<?xml version="1.0" encoding="UTF-8"?>
<svg xmlns="http://www.w3.org/2000/svg" xmlns:xlink="http://www.w3.org/1999/xlink" width="113.386" height="113.386" viewBox="0 0 113.386 113.386">
<defs>
<clipPath id="clip-0">
<path clip-rule="nonzero" d="M 0 3 L 113.386719 3 L 113.386719 109 L 0 109 Z M 0 3 "/>
</clipPath>
</defs>
<path fill-rule="nonzero" fill="rgb(50%, 50%, 50%)" fill-opacity="0.5" stroke-width="0.79701" stroke-linecap="butt" stroke-linejoin="miter" stroke="rgb(50%, 50%, 50%)" stroke-opacity="1" stroke-miterlimit="10" d="M 7.087625 0.00096875 L 7.087625 27.5205 L 14.173562 27.5205 L 14.173562 0.00096875 " transform="matrix(1, 0, 0, -1, 24.803, 88.583)"/>
<path fill-rule="nonzero" fill="rgb(50%, 50%, 50%)" fill-opacity="0.5" stroke-width="0.79701" stroke-linecap="butt" stroke-linejoin="miter" stroke="rgb(50%, 50%, 50%)" stroke-opacity="1" stroke-miterlimit="10" d="M 14.173562 0.00096875 L 14.173562 32.36425 L 21.2595 32.36425 L 21.2595 0.00096875 " transform="matrix(1, 0, 0, -1, 24.803, 88.583)"/>
<path fill-rule="nonzero" fill="rgb(50%, 50%, 50%)" fill-opacity="0.5" stroke-width="0.79701" stroke-linecap="butt" stroke-linejoin="miter" stroke="rgb(50%, 50%, 50%)" stroke-opacity="1" stroke-miterlimit="10" d="M 21.2595 0.00096875 L 21.2595 36.141594 L 28.345437 36.141594 L 28.345437 0.00096875 " transform="matrix(1, 0, 0, -1, 24.803, 88.583)"/>
<path fill-rule="nonzero" fill="rgb(50%, 50%, 50%)" fill-opacity="0.5" stroke-width="0.79701" stroke-linecap="butt" stroke-linejoin="miter" stroke="rgb(50%, 50%, 50%)" stroke-opacity="1" stroke-miterlimit="10" d="M 28.345437 0.00096875 L 28.345437 39.211906 L 35.435281 39.211906 L 35.435281 0.00096875 " transform="matrix(1, 0, 0, -1, 24.803, 88.583)"/>
<path fill-rule="nonzero" fill="rgb(50%, 50%, 50%)" fill-opacity="0.5" stroke-width="0.79701" stroke-linecap="butt" stroke-linejoin="miter" stroke="rgb(50%, 50%, 50%)" stroke-opacity="1" stroke-miterlimit="10" d="M 35.435281 0.00096875 L 35.435281 41.92675 L 42.521219 41.92675 L 42.521219 0.00096875 " transform="matrix(1, 0, 0, -1, 24.803, 88.583)"/>
<path fill-rule="nonzero" fill="rgb(50%, 50%, 50%)" fill-opacity="0.5" stroke-width="0.79701" stroke-linecap="butt" stroke-linejoin="miter" stroke="rgb(50%, 50%, 50%)" stroke-opacity="1" stroke-miterlimit="10" d="M 42.521219 0.00096875 L 42.521219 44.641594 L 49.607156 44.641594 L 49.607156 0.00096875 " transform="matrix(1, 0, 0, -1, 24.803, 88.583)"/>
<path fill-rule="nonzero" fill="rgb(50%, 50%, 50%)" fill-opacity="0.5" stroke-width="0.79701" stroke-linecap="butt" stroke-linejoin="miter" stroke="rgb(50%, 50%, 50%)" stroke-opacity="1" stroke-miterlimit="10" d="M 49.607156 0.00096875 L 49.607156 47.711906 L 56.693094 47.711906 L 56.693094 0.00096875 " transform="matrix(1, 0, 0, -1, 24.803, 88.583)"/>
<path fill="none" stroke-width="0.79701" stroke-linecap="butt" stroke-linejoin="miter" stroke="rgb(0%, 0%, 0%)" stroke-opacity="1" stroke-miterlimit="10" d="M -14.174094 0.00096875 L 73.29075 0.00096875 " transform="matrix(1, 0, 0, -1, 24.803, 88.583)"/>
<path fill-rule="nonzero" fill="rgb(0%, 0%, 0%)" fill-opacity="1" d="M 102.757812 88.582031 C 101.375 88.324219 99.128906 87.546875 97.578125 86.640625 L 97.578125 90.527344 C 99.128906 89.617188 101.375 88.84375 102.757812 88.582031 "/>
<path fill="none" stroke-width="0.79701" stroke-linecap="butt" stroke-linejoin="miter" stroke="rgb(0%, 0%, 0%)" stroke-opacity="1" stroke-miterlimit="10" d="M 0.0016875 -14.174813 L 0.0016875 73.290031 " transform="matrix(1, 0, 0, -1, 24.803, 88.583)"/>
<path fill-rule="nonzero" fill="rgb(0%, 0%, 0%)" fill-opacity="1" d="M 24.804688 10.628906 C 24.542969 12.011719 23.765625 14.253906 22.859375 15.808594 L 26.746094 15.808594 C 25.839844 14.253906 25.0625 12.011719 24.804688 10.628906 "/>
<g clip-path="url(#clip-0)">
<path fill="none" stroke-width="1.59404" stroke-linecap="butt" stroke-linejoin="miter" stroke="rgb(25%, 25%, 25%)" stroke-opacity="1" stroke-miterlimit="10" d="M -14.174094 3.071281 C -14.174094 3.071281 -13.967063 3.399406 -13.888938 3.524406 C -13.810813 3.649406 -13.681906 3.848625 -13.603781 3.973625 C -13.525656 4.098625 -13.400656 4.293937 -13.318625 4.418937 C -13.2405 4.540031 -13.1155 4.73925 -13.037375 4.860344 C -12.955344 4.981437 -12.830344 5.17675 -12.752219 5.297844 C -12.674094 5.418937 -12.545188 5.610344 -12.467063 5.731437 C -12.388938 5.848625 -12.260031 6.040031 -12.181906 6.161125 C -12.103781 6.278312 -11.978781 6.469719 -11.89675 6.586906 C -11.818625 6.704094 -11.693625 6.891594 -11.6155 7.008781 C -11.533469 7.125969 -11.408469 7.309562 -11.330344 7.42675 C -11.252219 7.540031 -11.123313 7.723625 -11.045188 7.840812 C -10.967063 7.954094 -10.838156 8.137687 -10.760031 8.250969 C -10.681906 8.36425 -10.556906 8.543937 -10.474875 8.657219 C -10.39675 8.7705 -10.27175 8.950187 -10.193625 9.059562 C -10.111594 9.172844 -9.986594 9.348625 -9.908469 9.461906 C -9.830344 9.571281 -9.701438 9.747062 -9.623313 9.856437 C -9.545188 9.965812 -9.416281 10.141594 -9.338156 10.247062 C -9.260031 10.356437 -9.135031 10.528312 -9.053 10.637687 C -8.974875 10.743156 -8.849875 10.915031 -8.77175 11.0205 C -8.689719 11.129875 -8.564719 11.297844 -8.486594 11.403312 C -8.408469 11.508781 -8.279563 11.67675 -8.201438 11.782219 C -8.123313 11.883781 -7.994406 12.05175 -7.916281 12.157219 C -7.838156 12.258781 -7.713156 12.422844 -7.631125 12.528312 C -7.553 12.629875 -7.428 12.793937 -7.349875 12.8955 C -7.267844 12.997062 -7.142844 13.157219 -7.064719 13.258781 C -6.982688 13.360344 -6.857688 13.5205 -6.779563 13.618156 C -6.701438 13.719719 -6.572531 13.875969 -6.494406 13.977531 C -6.416281 14.075187 -6.287375 14.231437 -6.20925 14.329094 C -6.131125 14.42675 -6.006125 14.583 -5.924094 14.680656 C -5.845969 14.778312 -5.720969 14.930656 -5.642844 15.028312 C -5.560813 15.122062 -5.435813 15.278312 -5.357688 15.372062 C -5.279563 15.465812 -5.150656 15.618156 -5.072531 15.711906 C -4.994406 15.805656 -4.8655 15.954094 -4.787375 16.047844 C -4.70925 16.141594 -4.58425 16.290031 -4.502219 16.383781 C -4.424094 16.473625 -4.299094 16.622062 -4.220969 16.715812 C -4.138938 16.805656 -4.013938 16.950187 -3.935813 17.040031 C -3.857688 17.133781 -3.728781 17.278312 -3.650656 17.36425 C -3.572531 17.454094 -3.443625 17.598625 -3.3655 17.688469 C -3.287375 17.774406 -3.162375 17.918937 -3.080344 18.004875 C -3.002219 18.094719 -2.877219 18.235344 -2.799094 18.321281 C -2.717063 18.407219 -2.592063 18.547844 -2.513938 18.633781 C -2.435813 18.719719 -2.306906 18.856437 -2.228781 18.942375 C -2.150656 19.028312 -2.02175 19.165031 -1.943625 19.247062 C -1.8655 19.333 -1.7405 19.465812 -1.658469 19.55175 C -1.580344 19.633781 -1.455344 19.766594 -1.377219 19.852531 C -1.295188 19.934562 -1.170188 20.067375 -1.092063 20.149406 C -1.013938 20.231437 -0.885031 20.360344 -0.806906 20.442375 C -0.728781 20.524406 -0.599875 20.653312 -0.52175 20.731437 C -0.443625 20.813469 -0.318625 20.942375 -0.236594 21.0205 C -0.158469 21.102531 -0.0334688 21.227531 0.0446562 21.305656 C 0.126687 21.383781 0.251687 21.512687 0.329812 21.590812 C 0.407937 21.668937 0.536844 21.790031 0.614969 21.868156 C 0.693094 21.946281 0.822 22.067375 0.900125 22.1455 C 0.97825 22.223625 1.10325 22.344719 1.185281 22.418937 C 1.263406 22.497062 1.388406 22.61425 1.466531 22.692375 C 1.548562 22.766594 1.673562 22.883781 1.751687 22.958 C 1.829812 23.032219 1.958719 23.153312 2.036844 23.223625 C 2.114969 23.297844 2.243875 23.415031 2.322 23.48925 C 2.400125 23.559562 2.525125 23.67675 2.607156 23.750969 C 2.685281 23.821281 2.810281 23.934562 2.888406 24.008781 C 2.970437 24.079094 3.095437 24.192375 3.173562 24.262687 C 3.251687 24.333 3.380594 24.446281 3.458719 24.516594 C 3.536844 24.583 3.66575 24.696281 3.743875 24.766594 C 3.822 24.833 3.947 24.942375 4.029031 25.012687 C 4.107156 25.079094 4.232156 25.188469 4.310281 25.258781 C 4.392312 25.325187 4.517312 25.434562 4.595437 25.500969 C 4.673562 25.567375 4.802469 25.672844 4.880594 25.73925 C 4.958719 25.805656 5.087625 25.911125 5.16575 25.977531 C 5.243875 26.043937 5.372781 26.149406 5.450906 26.211906 C 5.529031 26.278312 5.654031 26.379875 5.736062 26.446281 C 5.814187 26.508781 5.939187 26.610344 6.017312 26.67675 C 6.099344 26.73925 6.224344 26.840812 6.302469 26.903312 C 6.380594 26.965812 6.5095 27.067375 6.587625 27.129875 C 6.66575 27.192375 6.794656 27.290031 6.872781 27.352531 C 6.950906 27.415031 7.075906 27.512687 7.157937 27.575187 C 7.236062 27.633781 7.361062 27.731437 7.439187 27.793937 C 7.521219 27.852531 7.646219 27.950187 7.724344 28.008781 C 7.802469 28.067375 7.931375 28.165031 8.0095 28.223625 C 8.087625 28.282219 8.216531 28.375969 8.294656 28.434562 C 8.372781 28.493156 8.497781 28.586906 8.579812 28.6455 C 8.657937 28.704094 8.782937 28.793937 8.861062 28.852531 C 8.943094 28.911125 9.068094 29.000969 9.146219 29.059562 C 9.224344 29.11425 9.35325 29.204094 9.431375 29.262687 C 9.5095 29.317375 9.638406 29.407219 9.716531 29.461906 C 9.794656 29.5205 9.919656 29.606437 10.001687 29.661125 C 10.079812 29.715812 10.204812 29.805656 10.282937 29.860344 C 10.364969 29.915031 10.489969 30.000969 10.568094 30.055656 C 10.646219 30.106437 10.775125 30.192375 10.85325 30.247062 C 10.931375 30.30175 11.060281 30.387687 11.138406 30.438469 C 11.216531 30.493156 11.341531 30.575187 11.423562 30.629875 C 11.501687 30.680656 11.626687 30.762687 11.704812 30.813469 C 11.786844 30.868156 11.911844 30.950187 11.989969 31.000969 C 12.068094 31.05175 12.197 31.133781 12.275125 31.184562 C 12.35325 31.235344 12.482156 31.317375 12.560281 31.36425 C 12.638406 31.415031 12.763406 31.497062 12.845437 31.543937 C 12.923562 31.594719 13.048562 31.672844 13.126687 31.723625 C 13.208719 31.7705 13.333719 31.852531 13.411844 31.899406 C 13.489969 31.950187 13.618875 32.024406 13.697 32.075187 C 13.775125 32.122062 13.904031 32.200187 13.982156 32.247062 C 14.060281 32.293937 14.185281 32.372062 14.267312 32.418937 C 14.345437 32.465812 14.470437 32.540031 14.548562 32.586906 C 14.630594 32.633781 14.755594 32.708 14.833719 32.754875 C 14.911844 32.80175 15.04075 32.875969 15.118875 32.918937 C 15.197 32.965812 15.325906 33.040031 15.404031 33.083 C 15.482156 33.129875 15.607156 33.204094 15.689187 33.247062 C 15.767312 33.293937 15.892312 33.36425 15.970437 33.407219 C 16.052469 33.454094 16.177469 33.524406 16.255594 33.567375 C 16.333719 33.610344 16.462625 33.680656 16.54075 33.723625 C 16.618875 33.7705 16.747781 33.840812 16.825906 33.883781 C 16.904031 33.92675 17.029031 33.993156 17.111062 34.036125 C 17.189187 34.079094 17.314187 34.149406 17.396219 34.192375 C 17.474344 34.231437 17.599344 34.30175 17.677469 34.340812 C 17.7595 34.383781 17.8845 34.450187 17.962625 34.493156 C 18.04075 34.536125 18.169656 34.602531 18.247781 34.641594 C 18.325906 34.684562 18.454812 34.747062 18.532937 34.790031 C 18.611062 34.829094 18.736062 34.8955 18.818094 34.934562 C 18.896219 34.977531 19.021219 35.040031 19.099344 35.083 C 19.181375 35.122062 19.306375 35.184562 19.3845 35.223625 C 19.462625 35.266594 19.591531 35.329094 19.669656 35.368156 C 19.747781 35.407219 19.876687 35.469719 19.954812 35.508781 C 20.032937 35.547844 20.157937 35.610344 20.239969 35.649406 C 20.318094 35.688469 20.443094 35.750969 20.521219 35.786125 C 20.60325 35.825187 20.72825 35.887687 20.806375 35.92675 C 20.8845 35.961906 21.013406 36.024406 21.091531 36.059562 C 21.169656 36.098625 21.298562 36.157219 21.376687 36.196281 C 21.454812 36.235344 21.579812 36.293937 21.661844 36.329094 C 21.739969 36.368156 21.864969 36.42675 21.943094 36.461906 C 22.025125 36.500969 22.150125 36.559562 22.22825 36.594719 C 22.306375 36.629875 22.435281 36.688469 22.513406 36.727531 C 22.591531 36.762687 22.720437 36.821281 22.798562 36.856437 C 22.876687 36.891594 23.001687 36.950187 23.083719 36.985344 C 23.161844 37.0205 23.286844 37.075187 23.364969 37.110344 C 23.447 37.149406 23.572 37.204094 23.650125 37.23925 C 23.72825 37.274406 23.857156 37.329094 23.935281 37.36425 C 24.013406 37.399406 24.142312 37.454094 24.220437 37.48925 C 24.298562 37.524406 24.423562 37.579094 24.505594 37.61425 C 24.583719 37.6455 24.708719 37.704094 24.786844 37.735344 C 24.868875 37.7705 24.993875 37.825187 25.072 37.860344 C 25.150125 37.891594 25.279031 37.946281 25.357156 37.981437 C 25.435281 38.012687 25.564187 38.067375 25.642312 38.102531 C 25.720437 38.133781 25.845437 38.188469 25.927469 38.219719 C 26.005594 38.254875 26.130594 38.305656 26.208719 38.340812 C 26.29075 38.372062 26.41575 38.42675 26.493875 38.458 C 26.572 38.48925 26.700906 38.543937 26.779031 38.575187 C 26.857156 38.606437 26.986062 38.661125 27.064187 38.692375 C 27.142312 38.723625 27.267312 38.778312 27.349344 38.809562 C 27.427469 38.840812 27.552469 38.891594 27.630594 38.922844 C 27.712625 38.954094 27.837625 39.004875 27.91575 39.040031 C 27.993875 39.071281 28.122781 39.122062 28.200906 39.153312 C 28.279031 39.184562 28.407937 39.235344 28.486062 39.266594 C 28.564187 39.297844 28.689187 39.348625 28.771219 39.379875 C 28.849344 39.411125 28.974344 39.461906 29.056375 39.493156 C 29.1345 39.524406 29.2595 39.575187 29.337625 39.606437 C 29.419656 39.637687 29.544656 39.684562 29.622781 39.715812 C 29.700906 39.747062 29.829812 39.797844 29.907937 39.829094 C 29.986062 39.860344 30.114969 39.907219 30.193094 39.938469 C 30.271219 39.969719 30.396219 40.0205 30.47825 40.047844 C 30.556375 40.079094 30.681375 40.129875 30.7595 40.157219 C 30.841531 40.188469 30.966531 40.23925 31.044656 40.266594 C 31.122781 40.297844 31.251687 40.344719 31.329812 40.375969 C 31.407937 40.407219 31.536844 40.458 31.614969 40.485344 C 31.693094 40.516594 31.818094 40.563469 31.900125 40.594719 C 31.97825 40.625969 32.10325 40.672844 32.181375 40.704094 C 32.263406 40.735344 32.388406 40.782219 32.466531 40.809562 C 32.544656 40.840812 32.673563 40.887687 32.751688 40.918937 C 32.829813 40.950187 32.958719 40.997062 33.036844 41.024406 C 33.114969 41.055656 33.239969 41.102531 33.322 41.133781 C 33.400125 41.165031 33.525125 41.211906 33.60325 41.23925 C 33.685281 41.2705 33.810281 41.317375 33.888406 41.348625 C 33.966531 41.375969 34.095438 41.422844 34.173563 41.454094 C 34.251688 41.485344 34.380594 41.532219 34.458719 41.559562 C 34.536844 41.590812 34.661844 41.637687 34.743875 41.668937 C 34.822 41.696281 34.947 41.747062 35.025125 41.774406 C 35.107156 41.805656 35.232156 41.852531 35.310281 41.879875 C 35.388406 41.911125 35.517313 41.958 35.595438 41.985344 C 35.673563 42.016594 35.802469 42.063469 35.880594 42.094719 C 35.958719 42.122062 36.083719 42.172844 36.16575 42.200187 C 36.243875 42.231437 36.368875 42.278312 36.447 42.309562 C 36.529031 42.336906 36.654031 42.383781 36.732156 42.415031 C 36.810281 42.442375 36.939188 42.493156 37.017313 42.5205 C 37.095438 42.55175 37.224344 42.598625 37.302469 42.629875 C 37.380594 42.657219 37.505594 42.704094 37.587625 42.735344 C 37.66575 42.766594 37.79075 42.813469 37.868875 42.840812 C 37.950906 42.872062 38.075906 42.918937 38.154031 42.950187 C 38.232156 42.981437 38.361063 43.028312 38.439188 43.059562 C 38.517313 43.090812 38.646219 43.137687 38.724344 43.165031 C 38.802469 43.196281 38.927469 43.243156 39.0095 43.274406 C 39.087625 43.30175 39.212625 43.352531 39.29075 43.383781 C 39.372781 43.411125 39.497781 43.461906 39.575906 43.493156 C 39.654031 43.5205 39.782938 43.571281 39.861063 43.602531 C 39.939188 43.629875 40.068094 43.680656 40.146219 43.711906 C 40.224344 43.743156 40.349344 43.790031 40.431375 43.821281 C 40.5095 43.848625 40.6345 43.899406 40.712625 43.930656 C 40.794656 43.961906 40.919656 44.008781 40.997781 44.040031 C 41.079813 44.071281 41.204813 44.122062 41.282938 44.153312 C 41.361063 44.184562 41.489969 44.231437 41.568094 44.262687 C 41.646219 44.293937 41.775125 44.348625 41.85325 44.379875 C 41.931375 44.407219 42.056375 44.458 42.138406 44.48925 C 42.216531 44.5205 42.341531 44.571281 42.419656 44.602531 C 42.501688 44.633781 42.626688 44.684562 42.704813 44.715812 C 42.782938 44.747062 42.911844 44.797844 42.989969 44.829094 C 43.068094 44.86425 43.197 44.915031 43.275125 44.946281 C 43.35325 44.977531 43.47825 45.028312 43.560281 45.059562 C 43.638406 45.090812 43.763406 45.1455 43.841531 45.17675 C 43.923563 45.208 44.048563 45.262687 44.126688 45.293937 C 44.204813 45.325187 44.333719 45.379875 44.411844 45.411125 C 44.489969 45.446281 44.618875 45.497062 44.697 45.532219 C 44.775125 45.563469 44.900125 45.618156 44.982156 45.649406 C 45.060281 45.684562 45.185281 45.735344 45.263406 45.766594 C 45.345438 45.80175 45.470438 45.856437 45.548563 45.887687 C 45.626688 45.922844 45.755594 45.977531 45.833719 46.008781 C 45.911844 46.043937 46.04075 46.098625 46.118875 46.133781 C 46.197 46.168937 46.322 46.223625 46.404031 46.258781 C 46.482156 46.293937 46.607156 46.348625 46.685281 46.379875 C 46.767313 46.415031 46.892313 46.469719 46.970438 46.504875 C 47.048563 46.540031 47.177469 46.594719 47.255594 46.629875 C 47.333719 46.665031 47.462625 46.723625 47.54075 46.758781 C 47.618875 46.793937 47.743875 46.852531 47.825906 46.887687 C 47.904031 46.922844 48.029031 46.981437 48.107156 47.016594 C 48.189188 47.05175 48.314188 47.106437 48.392313 47.141594 C 48.470438 47.180656 48.599344 47.23925 48.677469 47.274406 C 48.755594 47.313469 48.8845 47.372062 48.962625 47.407219 C 49.04075 47.442375 49.16575 47.504875 49.247781 47.540031 C 49.325906 47.579094 49.450906 47.637687 49.529031 47.67675 C 49.611063 47.711906 49.736063 47.774406 49.814188 47.809562 C 49.892313 47.848625 50.021219 47.907219 50.099344 47.946281 C 50.177469 47.981437 50.306375 48.043937 50.3845 48.083 C 50.462625 48.122062 50.587625 48.184562 50.669656 48.223625 C 50.747781 48.262687 50.872781 48.325187 50.950906 48.36425 C 51.032938 48.403312 51.157938 48.465812 51.236063 48.504875 C 51.314188 48.543937 51.443094 48.606437 51.521219 48.649406 C 51.599344 48.688469 51.72825 48.750969 51.806375 48.790031 C 51.8845 48.829094 52.0095 48.8955 52.091531 48.934562 C 52.169656 48.977531 52.294656 49.040031 52.372781 49.083 C 52.454813 49.122062 52.579813 49.188469 52.657938 49.231437 C 52.739969 49.2705 52.864969 49.336906 52.943094 49.379875 C 53.021219 49.422844 53.150125 49.485344 53.22825 49.528312 C 53.306375 49.571281 53.435281 49.637687 53.513406 49.680656 C 53.591531 49.723625 53.716531 49.790031 53.798563 49.833 C 53.876688 49.875969 54.001688 49.946281 54.079813 49.98925 C 54.161844 50.036125 54.286844 50.102531 54.364969 50.149406 C 54.443094 50.192375 54.572 50.262687 54.650125 50.305656 C 54.72825 50.348625 54.857156 50.418937 54.935281 50.461906 C 55.013406 50.508781 55.138406 50.579094 55.220438 50.625969 C 55.298563 50.668937 55.423563 50.743156 55.501688 50.790031 C 55.583719 50.833 55.708719 50.907219 55.786844 50.954094 C 55.864969 51.000969 55.993875 51.071281 56.072 51.118156 C 56.150125 51.165031 56.279031 51.243156 56.357156 51.286125 C 56.435281 51.333 56.560281 51.407219 56.642313 51.454094 C 56.720438 51.500969 56.845438 51.579094 56.923563 51.625969 C 57.005594 51.672844 57.130594 51.750969 57.208719 51.797844 C 57.286844 51.848625 57.41575 51.92675 57.493875 51.973625 C 57.572 52.024406 57.700906 52.102531 57.779031 52.153312 C 57.857156 52.200187 57.982156 52.278312 58.064188 52.329094 C 58.142313 52.375969 58.267313 52.458 58.345438 52.508781 C 58.427469 52.555656 58.552469 52.637687 58.630594 52.688469 C 58.708719 52.73925 58.837625 52.825187 58.91575 52.875969 C 58.993875 52.92675 59.122781 53.008781 59.200906 53.059562 C 59.279031 53.11425 59.404031 53.196281 59.486063 53.247062 C 59.564188 53.297844 59.689188 53.383781 59.767313 53.434562 C 59.849344 53.485344 59.974344 53.575187 60.052469 53.625969 C 60.130594 53.680656 60.2595 53.766594 60.337625 53.821281 C 60.41575 53.875969 60.544656 53.961906 60.622781 54.016594 C 60.700906 54.071281 60.825906 54.161125 60.907938 54.215812 C 60.986063 54.2705 61.111063 54.356437 61.189188 54.411125 C 61.271219 54.465812 61.396219 54.555656 61.474344 54.61425 C 61.552469 54.668937 61.681375 54.758781 61.7595 54.817375 C 61.837625 54.875969 61.966531 54.965812 62.044656 55.024406 C 62.122781 55.079094 62.247781 55.172844 62.329813 55.231437 C 62.407938 55.290031 62.532938 55.383781 62.611063 55.442375 C 62.693094 55.500969 62.818094 55.590812 62.896219 55.653312 C 62.974344 55.711906 63.10325 55.805656 63.181375 55.868156 C 63.2595 55.92675 63.388406 56.024406 63.466531 56.083 C 63.544656 56.1455 63.669656 56.243156 63.751688 56.30175 C 63.829813 56.36425 63.954813 56.461906 64.032938 56.524406 C 64.114969 56.586906 64.239969 56.688469 64.318094 56.750969 C 64.396219 56.813469 64.525125 56.911125 64.60325 56.973625 C 64.681375 57.036125 64.810281 57.137687 64.888406 57.200187 C 64.966531 57.266594 65.095438 57.368156 65.173563 57.430656 C 65.251688 57.497062 65.376688 57.602531 65.458719 57.665031 C 65.536844 57.731437 65.661844 57.836906 65.739969 57.903312 C 65.822 57.969719 65.947 58.071281 66.025125 58.137687 C 66.10325 58.204094 66.232156 58.309562 66.310281 58.375969 C 66.388406 58.442375 66.517313 58.55175 66.595438 58.618156 C 66.673563 58.688469 66.798563 58.797844 66.880594 58.868156 C 66.958719 58.934562 67.083719 59.047844 67.161844 59.11425 C 67.243875 59.184562 67.368875 59.297844 67.447 59.368156 C 67.525125 59.434562 67.654031 59.543937 67.732156 59.61425 C 67.810281 59.684562 67.939188 59.80175 68.017313 59.872062 C 68.095438 59.942375 68.220438 60.059562 68.302469 60.129875 C 68.380594 60.204094 68.505594 60.317375 68.583719 60.391594 C 68.66575 60.465812 68.79075 60.583 68.868875 60.657219 C 68.947 60.731437 69.075906 60.848625 69.154031 60.922844 C 69.232156 60.997062 69.361063 61.11425 69.439188 61.188469 C 69.517313 61.262687 69.642313 61.383781 69.724344 61.461906 C 69.802469 61.536125 69.927469 61.657219 70.005594 61.735344 C 70.087625 61.813469 70.212625 61.938469 70.29075 62.012687 C 70.368875 62.090812 70.497781 62.215812 70.575906 62.293937 C 70.654031 62.372062 70.861063 62.571281 70.861063 62.571281 " transform="matrix(1, 0, 0, -1, 24.803, 88.583)"/>
</g>
</svg>
