<?xml version="1.0" encoding="UTF-8"?>
<svg xmlns="http://www.w3.org/2000/svg" xmlns:xlink="http://www.w3.org/1999/xlink" width="113.386" height="113.386" viewBox="0 0 113.386 113.386">
<defs>
<clipPath id="clip-0">
<path clip-rule="nonzero" d="M 34 6 L 100 6 L 100 113.386719 L 34 113.386719 Z M 34 6 "/>
</clipPath>
</defs>
<path fill="none" stroke-width="0.79701" stroke-linecap="butt" stroke-linejoin="miter" stroke="rgb(0%, 0%, 0%)" stroke-opacity="1" stroke-miterlimit="10" d="M -14.174094 0.00096875 L 73.29075 0.00096875 " transform="matrix(1, 0, 0, -1, 24.803, 88.583)"/>
<path fill-rule="nonzero" fill="rgb(0%, 0%, 0%)" fill-opacity="1" d="M 102.757812 88.582031 C 101.375 88.324219 99.128906 87.546875 97.578125 86.640625 L 97.578125 90.527344 C 99.128906 89.617188 101.375 88.84375 102.757812 88.582031 "/>
<path fill="none" stroke-width="0.79701" stroke-linecap="butt" stroke-linejoin="miter" stroke="rgb(0%, 0%, 0%)" stroke-opacity="1" stroke-miterlimit="10" d="M 28.345437 -14.174813 L 28.345437 73.290031 " transform="matrix(1, 0, 0, -1, 24.803, 88.583)"/>
<path fill-rule="nonzero" fill="rgb(0%, 0%, 0%)" fill-opacity="1" d="M 53.148438 10.628906 C 52.890625 12.011719 52.113281 14.253906 51.207031 15.808594 L 55.09375 15.808594 C 54.1875 14.253906 53.410156 12.011719 53.148438 10.628906 "/>
<g clip-path="url(#clip-0)">
<path fill="none" stroke-width="0.79701" stroke-linecap="butt" stroke-linejoin="miter" stroke="rgb(50%, 50%, 50%)" stroke-opacity="1" stroke-dasharray="2.49069 1.0959" stroke-miterlimit="10" d="M 21.2595 -14.174813 L 63.779031 70.868156 " transform="matrix(1, 0, 0, -1, 24.803, 88.583)"/>
</g>
<path fill="none" stroke-width="1.59404" stroke-linecap="butt" stroke-linejoin="miter" stroke="rgb(25%, 25%, 25%)" stroke-opacity="1" stroke-miterlimit="10" d="M 28.345437 0.00096875 L -2.724875 37.286125 " transform="matrix(1, 0, 0, -1, 24.803, 88.583)"/>
<path fill-rule="nonzero" fill="rgb(25%, 25%, 25%)" fill-opacity="1" d="M 17.714844 46.0625 C 18.71875 47.855469 19.945312 51.105469 20.382812 53.695312 L 24.746094 50.0625 C 22.273438 49.164062 19.300781 47.371094 17.714844 46.0625 "/>
<path fill="none" stroke-width="1.59404" stroke-linecap="butt" stroke-linejoin="miter" stroke="rgb(25%, 25%, 25%)" stroke-opacity="1" stroke-miterlimit="10" d="M 28.345437 0.00096875 L 50.599344 11.125969 " transform="matrix(1, 0, 0, -1, 24.803, 88.583)"/>
<path fill-rule="nonzero" fill="rgb(25%, 25%, 25%)" fill-opacity="1" d="M 81.496094 74.410156 C 79.519531 74.972656 76.078125 75.425781 73.453125 75.257812 L 75.996094 80.335938 C 77.433594 78.132812 79.859375 75.652344 81.496094 74.410156 "/>
<path fill="none" stroke-width="1.59404" stroke-linecap="butt" stroke-linejoin="miter" stroke="rgb(50%, 50%, 50%)" stroke-opacity="1" stroke-miterlimit="10" d="M 28.345437 0.00096875 L 39.474344 22.250969 " transform="matrix(1, 0, 0, -1, 24.803, 88.583)"/>
<path fill-rule="nonzero" fill="rgb(50%, 50%, 50%)" fill-opacity="1" d="M 67.324219 60.234375 C 66.082031 61.871094 63.597656 64.300781 61.398438 65.738281 L 66.476562 68.277344 C 66.308594 65.652344 66.757812 62.210938 67.324219 60.234375 "/>
<path fill="none" stroke-width="1.59404" stroke-linecap="butt" stroke-linejoin="miter" stroke="rgb(50%, 50%, 50%)" stroke-opacity="1" stroke-miterlimit="10" d="M 28.345437 0.00096875 L 53.646219 50.598625 " transform="matrix(1, 0, 0, -1, 24.803, 88.583)"/>
<path fill-rule="nonzero" fill="rgb(50%, 50%, 50%)" fill-opacity="1" d="M 81.496094 31.890625 C 80.253906 33.527344 77.773438 35.953125 75.570312 37.390625 L 80.648438 39.929688 C 80.480469 37.308594 80.933594 33.863281 81.496094 31.890625 "/>
</svg>
