<?xml version="1.0" encoding="UTF-8"?>
<svg xmlns="http://www.w3.org/2000/svg" xmlns:xlink="http://www.w3.org/1999/xlink" width="113.386" height="113.386" viewBox="0 0 113.386 113.386">
<defs>
<clipPath id="clip-0">
<path clip-rule="nonzero" d="M 0 2 L 113.386719 2 L 113.386719 113.386719 L 0 113.386719 Z M 0 2 "/>
</clipPath>
</defs>
<path fill="none" stroke-width="0.79701" stroke-linecap="butt" stroke-linejoin="miter" stroke="rgb(0%, 0%, 0%)" stroke-opacity="1" stroke-miterlimit="10" d="M -42.521094 0.001625 L 44.94375 0.001625 " transform="matrix(1, 0, 0, -1, 53.15, 60.236)"/>
<path fill-rule="nonzero" fill="rgb(0%, 0%, 0%)" fill-opacity="1" d="M 102.757812 60.234375 C 101.375 59.976562 99.128906 59.199219 97.578125 58.292969 L 97.578125 62.179688 C 99.128906 61.273438 101.375 60.496094 102.757812 60.234375 "/>
<path fill="none" stroke-width="0.79701" stroke-linecap="butt" stroke-linejoin="miter" stroke="rgb(0%, 0%, 0%)" stroke-opacity="1" stroke-miterlimit="10" d="M -42.521094 -42.521813 L -42.521094 44.943031 " transform="matrix(1, 0, 0, -1, 53.15, 60.236)"/>
<path fill-rule="nonzero" fill="rgb(0%, 0%, 0%)" fill-opacity="1" d="M 10.628906 10.628906 C 10.371094 12.011719 9.59375 14.253906 8.6875 15.808594 L 12.574219 15.808594 C 11.664062 14.253906 10.890625 12.011719 10.628906 10.628906 "/>
<path fill="none" stroke-width="0.79701" stroke-linecap="butt" stroke-linejoin="miter" stroke="rgb(50%, 50%, 50%)" stroke-opacity="1" stroke-dasharray="2.49069 1.0959" stroke-miterlimit="10" d="M -42.521094 35.6735 C -42.521094 35.6735 -42.396094 35.603187 -42.349219 35.575844 C -42.302344 35.5485 -42.228125 35.501625 -42.18125 35.474281 C -42.130469 35.446937 -42.05625 35.403969 -42.009375 35.376625 C -41.9625 35.349281 -41.884375 35.306312 -41.8375 35.278969 C -41.790625 35.251625 -41.716406 35.20475 -41.669531 35.177406 C -41.622656 35.150062 -41.544531 35.107094 -41.497656 35.07975 C -41.450781 35.052406 -41.372656 35.009437 -41.325781 34.982094 C -41.278906 34.95475 -41.204687 34.911781 -41.157812 34.884437 C -41.110937 34.857094 -41.032812 34.814125 -40.985937 34.786781 C -40.939062 34.759437 -40.864844 34.716469 -40.814062 34.689125 C -40.767187 34.661781 -40.692969 34.618812 -40.646094 34.591469 C -40.599219 34.564125 -40.521094 34.521156 -40.474219 34.493812 C -40.427344 34.466469 -40.353125 34.4235 -40.30625 34.396156 C -40.259375 34.372719 -40.18125 34.32975 -40.134375 34.302406 C -40.0875 34.275062 -40.009375 34.232094 -39.9625 34.20475 C -39.915625 34.177406 -39.841406 34.134437 -39.794531 34.111 C -39.747656 34.083656 -39.669531 34.040687 -39.622656 34.013344 C -39.575781 33.986 -39.501562 33.946937 -39.450781 33.919594 C -39.403906 33.89225 -39.329687 33.849281 -39.282812 33.821937 C -39.235937 33.7985 -39.157812 33.755531 -39.110937 33.728187 C -39.064062 33.700844 -38.989844 33.661781 -38.942969 33.634437 C -38.892187 33.607094 -38.817969 33.568031 -38.771094 33.540687 C -38.724219 33.513344 -38.646094 33.470375 -38.599219 33.446937 C -38.552344 33.419594 -38.478125 33.376625 -38.43125 33.353187 C -38.384375 33.325844 -38.30625 33.286781 -38.259375 33.259437 C -38.2125 33.232094 -38.138281 33.193031 -38.0875 33.165687 C -38.040625 33.138344 -37.966406 33.099281 -37.919531 33.071937 C -37.872656 33.0485 -37.794531 33.005531 -37.747656 32.982094 C -37.700781 32.95475 -37.626562 32.911781 -37.579687 32.888344 C -37.528906 32.861 -37.454687 32.821937 -37.407812 32.794594 C -37.360937 32.771156 -37.282812 32.728187 -37.235937 32.70475 C -37.189062 32.677406 -37.114844 32.638344 -37.067969 32.611 C -37.021094 32.587562 -36.942969 32.544594 -36.896094 32.521156 C -36.849219 32.493812 -36.775 32.45475 -36.724219 32.431312 C -36.677344 32.403969 -36.603125 32.364906 -36.55625 32.337562 C -36.509375 32.314125 -36.43125 32.275062 -36.384375 32.247719 C -36.3375 32.224281 -36.263281 32.181312 -36.216406 32.157875 C -36.165625 32.134437 -36.091406 32.091469 -36.044531 32.068031 C -35.997656 32.044594 -35.919531 32.001625 -35.872656 31.978187 C -35.825781 31.95475 -35.751562 31.911781 -35.704687 31.888344 C -35.657812 31.864906 -35.579687 31.821937 -35.532812 31.7985 C -35.485937 31.775062 -35.411719 31.736 -35.360937 31.708656 C -35.314062 31.685219 -35.239844 31.646156 -35.192969 31.622719 C -35.146094 31.595375 -35.067969 31.556312 -35.021094 31.532875 C -34.974219 31.509437 -34.9 31.466469 -34.853125 31.443031 C -34.802344 31.419594 -34.728125 31.380531 -34.68125 31.357094 C -34.634375 31.333656 -34.55625 31.290687 -34.509375 31.26725 C -34.4625 31.243812 -34.388281 31.20475 -34.341406 31.181312 C -34.294531 31.157875 -34.216406 31.118812 -34.169531 31.091469 C -34.122656 31.068031 -34.044531 31.028969 -33.997656 31.005531 C -33.950781 30.982094 -33.876562 30.943031 -33.829687 30.919594 C -33.782812 30.896156 -33.704687 30.857094 -33.657812 30.833656 C -33.610937 30.810219 -33.536719 30.771156 -33.489844 30.747719 C -33.439062 30.724281 -33.364844 30.685219 -33.317969 30.661781 C -33.271094 30.638344 -33.192969 30.599281 -33.146094 30.575844 C -33.099219 30.552406 -33.025 30.513344 -32.978125 30.489906 C -32.93125 30.466469 -32.853125 30.427406 -32.80625 30.403969 C -32.759375 30.380531 -32.68125 30.341469 -32.634375 30.318031 C -32.5875 30.294594 -32.513281 30.255531 -32.466406 30.232094 C -32.419531 30.208656 -32.341406 30.1735 -32.294531 30.150062 C -32.247656 30.126625 -32.173437 30.087562 -32.122656 30.064125 C -32.075781 30.040687 -32.001562 30.001625 -31.954687 29.978187 C -31.907812 29.95475 -31.829687 29.919594 -31.782812 29.896156 C -31.735937 29.872719 -31.661719 29.833656 -31.614844 29.810219 C -31.567969 29.786781 -31.489844 29.751625 -31.442969 29.728187 C -31.396094 29.70475 -31.317969 29.669594 -31.271094 29.646156 C -31.224219 29.622719 -31.15 29.583656 -31.103125 29.560219 C -31.05625 29.540687 -30.978125 29.501625 -30.93125 29.478187 C -30.884375 29.45475 -30.810156 29.419594 -30.759375 29.396156 C -30.7125 29.372719 -30.638281 29.337562 -30.591406 29.314125 C -30.544531 29.290687 -30.466406 29.255531 -30.419531 29.232094 C -30.372656 29.208656 -30.298437 29.1735 -30.251562 29.150062 C -30.200781 29.126625 -30.126562 29.091469 -30.079687 29.068031 C -30.032812 29.044594 -29.954687 29.009437 -29.907812 28.986 C -29.860937 28.966469 -29.786719 28.927406 -29.739844 28.903969 C -29.692969 28.884437 -29.614844 28.845375 -29.567969 28.825844 C -29.521094 28.802406 -29.446875 28.76725 -29.396094 28.743812 C -29.349219 28.720375 -29.275 28.685219 -29.228125 28.661781 C -29.18125 28.64225 -29.103125 28.607094 -29.05625 28.583656 C -29.009375 28.560219 -28.935156 28.525062 -28.888281 28.501625 C -28.8375 28.482094 -28.763281 28.446937 -28.716406 28.4235 C -28.669531 28.400062 -28.591406 28.364906 -28.544531 28.345375 C -28.497656 28.321937 -28.423437 28.286781 -28.376562 28.263344 C -28.329687 28.243812 -28.251562 28.208656 -28.204687 28.185219 C -28.157812 28.161781 -28.083594 28.126625 -28.032812 28.107094 C -27.985937 28.083656 -27.911719 28.0485 -27.864844 28.028969 C -27.817969 28.005531 -27.739844 27.970375 -27.692969 27.946937 C -27.646094 27.927406 -27.571875 27.89225 -27.525 27.868812 C -27.474219 27.849281 -27.4 27.814125 -27.353125 27.794594 C -27.30625 27.771156 -27.228125 27.736 -27.18125 27.716469 C -27.134375 27.693031 -27.060156 27.657875 -27.013281 27.638344 C -26.966406 27.614906 -26.888281 27.57975 -26.841406 27.560219 C -26.794531 27.536781 -26.720312 27.505531 -26.669531 27.482094 C -26.622656 27.462562 -26.548437 27.427406 -26.501562 27.403969 C -26.454687 27.384437 -26.376562 27.349281 -26.329687 27.32975 C -26.282812 27.306312 -26.208594 27.275062 -26.161719 27.251625 C -26.110937 27.232094 -26.036719 27.196937 -25.989844 27.177406 C -25.942969 27.153969 -25.864844 27.122719 -25.817969 27.099281 C -25.771094 27.07975 -25.696875 27.044594 -25.65 27.025062 C -25.603125 27.001625 -25.525 26.970375 -25.478125 26.946937 C -25.43125 26.927406 -25.353125 26.89225 -25.30625 26.872719 C -25.259375 26.853187 -25.185156 26.818031 -25.138281 26.7985 C -25.091406 26.775062 -25.013281 26.743812 -24.966406 26.720375 C -24.919531 26.700844 -24.845312 26.669594 -24.798437 26.646156 C -24.747656 26.626625 -24.673437 26.591469 -24.626562 26.571937 C -24.579687 26.552406 -24.501562 26.51725 -24.454687 26.497719 C -24.407812 26.478187 -24.333594 26.443031 -24.286719 26.4235 C -24.239844 26.403969 -24.161719 26.368812 -24.114844 26.349281 C -24.067969 26.32975 -23.989844 26.2985 -23.942969 26.275062 C -23.896094 26.255531 -23.821875 26.224281 -23.775 26.200844 C -23.728125 26.181312 -23.65 26.150062 -23.603125 26.130531 C -23.55625 26.107094 -23.482031 26.075844 -23.43125 26.056312 C -23.384375 26.036781 -23.310156 26.001625 -23.263281 25.982094 C -23.216406 25.962562 -23.138281 25.931312 -23.091406 25.911781 C -23.044531 25.888344 -22.970312 25.857094 -22.923437 25.837562 C -22.876562 25.818031 -22.798437 25.782875 -22.751562 25.763344 C -22.704687 25.743812 -22.626562 25.712562 -22.579687 25.693031 C -22.532812 25.6735 -22.458594 25.64225 -22.411719 25.618812 C -22.364844 25.599281 -22.286719 25.568031 -22.239844 25.5485 C -22.192969 25.528969 -22.11875 25.497719 -22.067969 25.478187 C -22.021094 25.458656 -21.946875 25.427406 -21.9 25.407875 C -21.853125 25.384437 -21.775 25.353187 -21.728125 25.333656 C -21.68125 25.314125 -21.607031 25.282875 -21.560156 25.263344 C -21.509375 25.243812 -21.435156 25.212562 -21.388281 25.193031 C -21.341406 25.1735 -21.263281 25.14225 -21.216406 25.122719 C -21.169531 25.103187 -21.095312 25.071937 -21.048437 25.052406 C -21.001562 25.032875 -20.923437 25.001625 -20.876562 24.982094 C -20.829687 24.962562 -20.755469 24.931312 -20.704687 24.911781 C -20.657812 24.89225 -20.583594 24.861 -20.536719 24.841469 C -20.489844 24.821937 -20.411719 24.790687 -20.364844 24.771156 C -20.317969 24.755531 -20.24375 24.724281 -20.196875 24.70475 C -20.146094 24.685219 -20.071875 24.653969 -20.025 24.634437 C -19.978125 24.614906 -19.9 24.583656 -19.853125 24.564125 C -19.80625 24.544594 -19.732031 24.513344 -19.685156 24.497719 C -19.638281 24.478187 -19.560156 24.446937 -19.513281 24.427406 C -19.466406 24.407875 -19.392187 24.376625 -19.341406 24.361 C -19.294531 24.341469 -19.220312 24.310219 -19.173437 24.290687 C -19.126562 24.271156 -19.048437 24.239906 -19.001562 24.224281 C -18.954687 24.20475 -18.880469 24.1735 -18.833594 24.153969 C -18.782812 24.138344 -18.708594 24.107094 -18.661719 24.087562 C -18.614844 24.068031 -18.536719 24.040687 -18.489844 24.021156 C -18.442969 24.001625 -18.36875 23.970375 -18.321875 23.95475 C -18.275 23.935219 -18.196875 23.903969 -18.15 23.884437 C -18.103125 23.868812 -18.028906 23.837562 -17.978125 23.818031 C -17.93125 23.7985 -17.857031 23.771156 -17.810156 23.751625 C -17.763281 23.732094 -17.685156 23.70475 -17.638281 23.685219 C -17.591406 23.665687 -17.517187 23.638344 -17.470312 23.618812 C -17.419531 23.599281 -17.345312 23.571937 -17.298437 23.552406 C -17.251562 23.532875 -17.173437 23.505531 -17.126562 23.486 C -17.079687 23.470375 -17.005469 23.439125 -16.958594 23.419594 C -16.911719 23.403969 -16.833594 23.372719 -16.786719 23.357094 C -16.739844 23.337562 -16.661719 23.306312 -16.614844 23.290687 C -16.567969 23.271156 -16.49375 23.243812 -16.446875 23.224281 C -16.4 23.20475 -16.321875 23.177406 -16.275 23.157875 C -16.228125 23.14225 -16.153906 23.111 -16.107031 23.095375 C -16.05625 23.075844 -15.982031 23.0485 -15.935156 23.028969 C -15.888281 23.013344 -15.810156 22.982094 -15.763281 22.966469 C -15.716406 22.946937 -15.642187 22.919594 -15.595312 22.900062 C -15.548437 22.884437 -15.470312 22.853187 -15.423437 22.837562 C -15.376562 22.818031 -15.298437 22.790687 -15.251562 22.771156 C -15.204687 22.755531 -15.130469 22.728187 -15.083594 22.708656 C -15.036719 22.693031 -14.958594 22.661781 -14.911719 22.646156 C -14.864844 22.626625 -14.790625 22.599281 -14.739844 22.583656 C -14.692969 22.564125 -14.61875 22.536781 -14.571875 22.51725 C -14.525 22.501625 -14.446875 22.474281 -14.4 22.45475 C -14.353125 22.439125 -14.278906 22.411781 -14.232031 22.39225 C -14.18125 22.376625 -14.107031 22.349281 -14.060156 22.32975 C -14.013281 22.314125 -13.935156 22.286781 -13.888281 22.26725 C -13.841406 22.251625 -13.767187 22.224281 -13.720312 22.20475 C -13.673437 22.189125 -13.595312 22.161781 -13.548437 22.14225 C -13.501562 22.126625 -13.427344 22.099281 -13.376562 22.07975 C -13.329687 22.064125 -13.255469 22.036781 -13.208594 22.021156 C -13.161719 22.001625 -13.083594 21.974281 -13.036719 21.958656 C -12.989844 21.939125 -12.915625 21.911781 -12.86875 21.896156 C -12.817969 21.880531 -12.74375 21.853187 -12.696875 21.833656 C -12.65 21.818031 -12.571875 21.790687 -12.525 21.775062 C -12.478125 21.755531 -12.403906 21.728187 -12.357031 21.712562 C -12.310156 21.696937 -12.232031 21.669594 -12.185156 21.650062 C -12.138281 21.634437 -12.064062 21.607094 -12.013281 21.591469 C -11.966406 21.575844 -11.892187 21.5485 -11.845312 21.528969 C -11.798437 21.513344 -11.720312 21.486 -11.673437 21.470375 C -11.626562 21.45475 -11.552344 21.427406 -11.505469 21.411781 C -11.454687 21.39225 -11.380469 21.364906 -11.333594 21.349281 C -11.286719 21.333656 -11.208594 21.306312 -11.161719 21.290687 C -11.114844 21.275062 -11.040625 21.247719 -10.99375 21.232094 C -10.946875 21.212562 -10.86875 21.189125 -10.821875 21.169594 C -10.775 21.153969 -10.700781 21.126625 -10.65 21.111 C -10.603125 21.095375 -10.528906 21.068031 -10.482031 21.052406 C -10.435156 21.036781 -10.357031 21.009437 -10.310156 20.993812 C -10.263281 20.978187 -10.189062 20.950844 -10.142187 20.935219 C -10.091406 20.919594 -10.017187 20.89225 -9.970312 20.876625 C -9.923437 20.861 -9.845312 20.833656 -9.798437 20.818031 C -9.751562 20.802406 -9.677344 20.775062 -9.630469 20.759437 C -9.583594 20.743812 -9.505469 20.716469 -9.458594 20.700844 C -9.411719 20.685219 -9.3375 20.657875 -9.286719 20.64225 C -9.239844 20.626625 -9.165625 20.603187 -9.11875 20.583656 C -9.071875 20.568031 -8.99375 20.544594 -8.946875 20.528969 C -8.9 20.513344 -8.825781 20.486 -8.778906 20.470375 C -8.728125 20.45475 -8.653906 20.427406 -8.607031 20.411781 C -8.560156 20.396156 -8.482031 20.372719 -8.435156 20.357094 C -8.388281 20.341469 -8.314062 20.314125 -8.267187 20.2985 C -8.220312 20.282875 -8.142187 20.255531 -8.095312 20.239906 C -8.048437 20.224281 -7.970312 20.200844 -7.923437 20.185219 C -7.876562 20.169594 -7.802344 20.14225 -7.755469 20.126625 C -7.708594 20.111 -7.630469 20.087562 -7.583594 20.071937 C -7.536719 20.056312 -7.4625 20.032875 -7.415625 20.01725 C -7.364844 20.001625 -7.290625 19.974281 -7.24375 19.958656 C -7.196875 19.943031 -7.11875 19.919594 -7.071875 19.903969 C -7.025 19.888344 -6.950781 19.864906 -6.903906 19.849281 C -6.857031 19.833656 -6.778906 19.806312 -6.732031 19.790687 C -6.685156 19.778969 -6.607031 19.751625 -6.560156 19.736 C -6.513281 19.720375 -6.439062 19.696937 -6.392187 19.681312 C -6.345312 19.665687 -6.267187 19.64225 -6.220312 19.626625 C -6.173437 19.611 -6.099219 19.587562 -6.048437 19.571937 C -6.001562 19.556312 -5.927344 19.532875 -5.880469 19.51725 C -5.833594 19.501625 -5.755469 19.478187 -5.708594 19.462562 C -5.661719 19.446937 -5.5875 19.4235 -5.540625 19.407875 C -5.489844 19.39225 -5.415625 19.368812 -5.36875 19.353187 C -5.321875 19.337562 -5.24375 19.314125 -5.196875 19.2985 C -5.15 19.282875 -5.075781 19.259437 -5.028906 19.243812 C -4.982031 19.232094 -4.903906 19.20475 -4.857031 19.189125 C -4.810156 19.177406 -4.735937 19.153969 -4.685156 19.138344 C -4.638281 19.122719 -4.564062 19.099281 -4.517187 19.083656 C -4.470312 19.068031 -4.392187 19.044594 -4.345312 19.028969 C -4.298437 19.01725 -4.224219 18.989906 -4.177344 18.978187 C -4.126562 18.962562 -4.052344 18.939125 -4.005469 18.9235 C -3.958594 18.907875 -3.880469 18.884437 -3.833594 18.868812 C -3.786719 18.857094 -3.7125 18.833656 -3.665625 18.818031 C -3.61875 18.802406 -3.540625 18.778969 -3.49375 18.763344 C -3.446875 18.751625 -3.372656 18.728187 -3.321875 18.712562 C -3.275 18.696937 -3.200781 18.6735 -3.153906 18.661781 C -3.107031 18.646156 -3.028906 18.622719 -2.982031 18.607094 C -2.935156 18.595375 -2.860937 18.571937 -2.814062 18.556312 C -2.763281 18.540687 -2.689062 18.51725 -2.642187 18.501625 C -2.595312 18.489906 -2.517187 18.466469 -2.470312 18.450844 C -2.423437 18.439125 -2.349219 18.415687 -2.302344 18.400062 C -2.255469 18.384437 -2.177344 18.361 -2.130469 18.349281 C -2.083594 18.333656 -2.009375 18.310219 -1.958594 18.2985 C -1.911719 18.282875 -1.8375 18.259437 -1.790625 18.247719 C -1.74375 18.232094 -1.665625 18.208656 -1.61875 18.196937 C -1.571875 18.181312 -1.497656 18.157875 -1.450781 18.14225 C -1.4 18.130531 -1.325781 18.107094 -1.278906 18.091469 C -1.232031 18.07975 -1.153906 18.056312 -1.107031 18.040687 C -1.060156 18.028969 -0.985937 18.005531 -0.939062 17.989906 C -0.892187 17.978187 -0.814062 17.95475 -0.767187 17.943031 C -0.720312 17.927406 -0.646094 17.903969 -0.595312 17.89225 C -0.548437 17.876625 -0.474219 17.857094 -0.427344 17.841469 C -0.380469 17.825844 -0.302344 17.806312 -0.255469 17.790687 C -0.208594 17.778969 -0.134375 17.755531 -0.0875 17.739906 C -0.0367187 17.728187 0.0375 17.70475 0.084375 17.693031 C 0.13125 17.677406 0.209375 17.657875 0.25625 17.64225 C 0.303125 17.626625 0.377344 17.607094 0.424219 17.591469 C 0.471094 17.57975 0.549219 17.556312 0.596094 17.544594 C 0.642969 17.528969 0.721094 17.505531 0.767969 17.493812 C 0.814844 17.478187 0.889063 17.458656 0.935938 17.446937 C 0.982813 17.431312 1.060938 17.407875 1.107813 17.396156 C 1.154688 17.384437 1.228906 17.361 1.275781 17.349281 C 1.326563 17.333656 1.400781 17.310219 1.447656 17.2985 C 1.494531 17.286781 1.572656 17.263344 1.619531 17.251625 C 1.666406 17.236 1.740625 17.216469 1.7875 17.200844 C 1.834375 17.189125 1.9125 17.165687 1.959375 17.153969 C 2.00625 17.138344 2.084375 17.118812 2.13125 17.107094 C 2.178125 17.091469 2.252344 17.071937 2.299219 17.056312 C 2.346094 17.044594 2.424219 17.021156 2.471094 17.009437 C 2.517969 16.997719 2.592188 16.974281 2.642969 16.962562 C 2.689844 16.946937 2.764063 16.927406 2.810938 16.915687 C 2.857813 16.900062 2.935938 16.880531 2.982813 16.868812 C 3.029688 16.853187 3.103906 16.833656 3.150781 16.821937 C 3.201563 16.806312 3.275781 16.786781 3.322656 16.771156 C 3.369531 16.759437 3.447656 16.739906 3.494531 16.728187 C 3.541406 16.712562 3.615625 16.693031 3.6625 16.677406 C 3.709375 16.665687 3.7875 16.646156 3.834375 16.630531 C 3.88125 16.618812 3.955469 16.599281 4.00625 16.587562 C 4.053125 16.571937 4.127344 16.552406 4.174219 16.540687 C 4.221094 16.528969 4.299219 16.505531 4.346094 16.493812 C 4.392969 16.478187 4.467188 16.458656 4.514063 16.446937 C 4.564844 16.435219 4.639063 16.411781 4.685938 16.400062 C 4.732813 16.388344 4.810938 16.368812 4.857813 16.353187 C 4.904688 16.341469 4.978906 16.321937 5.025781 16.306312 C 5.072656 16.294594 5.150781 16.275062 5.197656 16.263344 C 5.244531 16.251625 5.31875 16.232094 5.369531 16.216469 C 5.416406 16.20475 5.490625 16.185219 5.5375 16.1735 C 5.584375 16.157875 5.6625 16.138344 5.709375 16.126625 C 5.75625 16.114906 5.830469 16.095375 5.877344 16.07975 C 5.928125 16.068031 6.002344 16.0485 6.049219 16.036781 C 6.096094 16.025062 6.174219 16.005531 6.221094 15.989906 C 6.267969 15.978187 6.342188 15.958656 6.389063 15.946937 C 6.435938 15.935219 6.514063 15.915687 6.560938 15.903969 C 6.607813 15.888344 6.682031 15.868812 6.732813 15.857094 C 6.779688 15.845375 6.853906 15.825844 6.900781 15.814125 C 6.947656 15.802406 7.025781 15.782875 7.072656 15.771156 C 7.119531 15.755531 7.19375 15.736 7.240625 15.724281 C 7.291406 15.712562 7.365625 15.693031 7.4125 15.681312 C 7.459375 15.669594 7.5375 15.650062 7.584375 15.638344 C 7.63125 15.622719 7.705469 15.603187 7.752344 15.591469 C 7.799219 15.57975 7.877344 15.560219 7.924219 15.5485 C 7.971094 15.536781 8.045313 15.51725 8.096094 15.505531 C 8.142969 15.493812 8.217188 15.474281 8.264063 15.462562 C 8.310938 15.450844 8.389063 15.431312 8.435938 15.419594 C 8.482813 15.407875 8.557031 15.388344 8.603906 15.376625 C 8.654688 15.364906 8.728906 15.345375 8.775781 15.333656 C 8.822656 15.321937 8.900781 15.302406 8.947656 15.290687 C 8.994531 15.278969 9.06875 15.259437 9.115625 15.247719 C 9.1625 15.236 9.240625 15.216469 9.2875 15.20475 C 9.334375 15.193031 9.4125 15.1735 9.459375 15.161781 C 9.50625 15.150062 9.580469 15.130531 9.627344 15.118812 C 9.674219 15.107094 9.752344 15.087562 9.799219 15.075844 C 9.846094 15.064125 9.920313 15.044594 9.967188 15.032875 C 10.017969 15.021156 10.092188 15.001625 10.139063 14.993812 C 10.185938 14.982094 10.264063 14.962562 10.310938 14.950844 C 10.357813 14.939125 10.432031 14.919594 10.478906 14.907875 C 10.525781 14.896156 10.603906 14.876625 10.650781 14.864906 C 10.697656 14.853187 10.775781 14.837562 10.822656 14.825844 C 10.869531 14.814125 10.94375 14.794594 10.990625 14.782875 C 11.0375 14.771156 11.115625 14.755531 11.1625 14.743812 C 11.209375 14.732094 11.283594 14.712562 11.334375 14.700844 C 11.38125 14.689125 11.455469 14.6735 11.502344 14.661781 C 11.549219 14.650062 11.627344 14.630531 11.674219 14.618812 C 11.721094 14.607094 11.795313 14.587562 11.842188 14.575844 C 11.892969 14.564125 11.967188 14.5485 12.014063 14.536781 C 12.060938 14.525062 12.139063 14.505531 12.185938 14.497719 C 12.232813 14.486 12.307031 14.466469 12.353906 14.45475 C 12.400781 14.443031 12.478906 14.4235 12.525781 14.415687 C 12.572656 14.403969 12.646875 14.388344 12.697656 14.376625 C 12.744531 14.364906 12.81875 14.345375 12.865625 14.333656 C 12.9125 14.321937 12.990625 14.306312 13.0375 14.294594 C 13.084375 14.282875 13.158594 14.26725 13.205469 14.255531 C 13.25625 14.243812 13.330469 14.224281 13.377344 14.212562 C 13.424219 14.20475 13.502344 14.185219 13.549219 14.1735 C 13.596094 14.165687 13.670313 14.146156 13.717188 14.134437 C 13.764063 14.122719 13.842188 14.107094 13.889063 14.095375 C 13.935938 14.083656 14.010156 14.068031 14.060938 14.056312 C 14.107813 14.044594 14.182031 14.025062 14.228906 14.01725 C 14.275781 14.005531 14.353906 13.986 14.400781 13.978187 C 14.447656 13.966469 14.521875 13.946937 14.56875 13.939125 C 14.619531 13.927406 14.69375 13.907875 14.740625 13.900062 C 14.7875 13.888344 14.865625 13.868812 14.9125 13.861 C 14.959375 13.849281 15.033594 13.833656 15.080469 13.821937 C 15.127344 13.810219 15.205469 13.790687 15.252344 13.782875 C 15.299219 13.771156 15.373438 13.751625 15.424219 13.743812 C 15.471094 13.732094 15.545313 13.716469 15.592188 13.70475 C 15.639063 13.696937 15.717188 13.677406 15.764063 13.665687 C 15.810938 13.653969 15.885156 13.638344 15.932031 13.630531 C 15.982813 13.618812 16.057031 13.603187 16.103906 13.591469 C 16.150781 13.57975 16.228906 13.560219 16.275781 13.552406 C 16.322656 13.540687 16.396875 13.525062 16.44375 13.513344 C 16.490625 13.505531 16.56875 13.486 16.615625 13.478187 C 16.6625 13.466469 16.736719 13.446937 16.7875 13.439125 C 16.834375 13.427406 16.908594 13.411781 16.955469 13.400062 C 17.002344 13.39225 17.080469 13.372719 17.127344 13.364906 C 17.174219 13.353187 17.248438 13.337562 17.295313 13.325844 C 17.346094 13.318031 17.420313 13.2985 17.467188 13.290687 C 17.514063 13.278969 17.592188 13.263344 17.639063 13.251625 C 17.685938 13.239906 17.760156 13.224281 17.807031 13.216469 C 17.853906 13.20475 17.932031 13.189125 17.978906 13.177406 C 18.025781 13.165687 18.103906 13.150062 18.150781 13.14225 C 18.197656 13.130531 18.271875 13.114906 18.31875 13.103187 C 18.365625 13.091469 18.44375 13.075844 18.490625 13.068031 C 18.5375 13.056312 18.611719 13.040687 18.658594 13.028969 C 18.709375 13.021156 18.783594 13.001625 18.830469 12.993812 C 18.877344 12.982094 18.955469 12.966469 19.002344 12.958656 C 19.049219 12.946937 19.123438 12.931312 19.170313 12.919594 C 19.217188 12.911781 19.295313 12.896156 19.342188 12.884437 C 19.389063 12.876625 19.467188 12.857094 19.514063 12.849281 C 19.560938 12.837562 19.635156 12.821937 19.682031 12.814125 C 19.728906 12.802406 19.807031 12.786781 19.853906 12.778969 C 19.900781 12.76725 19.975 12.751625 20.025781 12.739906 C 20.072656 12.732094 20.146875 12.716469 20.19375 12.70475 C 20.240625 12.693031 20.31875 12.677406 20.365625 12.669594 C 20.4125 12.657875 20.486719 12.64225 20.533594 12.634437 C 20.584375 12.622719 20.658594 12.607094 20.705469 12.599281 C 20.752344 12.587562 20.830469 12.571937 20.877344 12.564125 C 20.924219 12.552406 20.998438 12.536781 21.045313 12.528969 C 21.092188 12.51725 21.170313 12.501625 21.217188 12.493812 C 21.264063 12.486 21.338281 12.466469 21.389063 12.458656 C 21.435938 12.446937 21.510156 12.431312 21.557031 12.4235 C 21.603906 12.411781 21.682031 12.400062 21.728906 12.388344 C 21.775781 12.380531 21.85 12.364906 21.896875 12.353187 C 21.947656 12.345375 22.021875 12.32975 22.06875 12.318031 C 22.115625 12.310219 22.19375 12.294594 22.240625 12.282875 C 22.2875 12.275062 22.361719 12.259437 22.408594 12.247719 C 22.455469 12.239906 22.533594 12.224281 22.580469 12.216469 C 22.627344 12.20475 22.701563 12.193031 22.752344 12.181312 C 22.799219 12.1735 22.873438 12.157875 22.920313 12.150062 C 22.967188 12.138344 23.045313 12.122719 23.092188 12.111 C 23.139063 12.103187 23.213281 12.087562 23.260156 12.07975 C 23.310938 12.068031 23.385156 12.056312 23.432031 12.044594 C 23.478906 12.036781 23.557031 12.021156 23.603906 12.013344 C 23.650781 12.001625 23.725 11.986 23.771875 11.978187 C 23.81875 11.970375 23.896875 11.95475 23.94375 11.943031 C 23.990625 11.935219 24.064844 11.919594 24.115625 11.911781 C 24.1625 11.900062 24.236719 11.884437 24.283594 11.876625 C 24.330469 11.868812 24.408594 11.853187 24.455469 11.845375 C 24.502344 11.837562 24.576563 11.821937 24.623438 11.810219 C 24.674219 11.802406 24.748438 11.786781 24.795313 11.778969 C 24.842188 11.76725 24.920313 11.751625 24.967188 11.743812 C 25.014063 11.736 25.088281 11.720375 25.135156 11.712562 C 25.182031 11.70475 25.260156 11.689125 25.307031 11.677406 C 25.353906 11.669594 25.428125 11.653969 25.478906 11.646156 C 25.525781 11.638344 25.6 11.622719 25.646875 11.614906 C 25.69375 11.607094 25.771875 11.591469 25.81875 11.57975 C 25.865625 11.571937 25.939844 11.556312 25.986719 11.5485 C 26.0375 11.540687 26.111719 11.525062 26.158594 11.51725 C 26.205469 11.509437 26.283594 11.493812 26.330469 11.482094 C 26.377344 11.474281 26.451563 11.462562 26.498438 11.450844 C 26.545313 11.443031 26.623438 11.427406 26.670313 11.419594 C 26.717188 11.411781 26.795313 11.396156 26.842188 11.388344 C 26.889063 11.380531 26.963281 11.364906 27.010156 11.357094 C 27.057031 11.349281 27.135156 11.333656 27.182031 11.325844 C 27.228906 11.314125 27.303125 11.302406 27.353906 11.294594 C 27.400781 11.282875 27.475 11.271156 27.521875 11.259437 C 27.56875 11.251625 27.646875 11.239906 27.69375 11.232094 C 27.740625 11.220375 27.814844 11.208656 27.861719 11.196937 C 27.908594 11.189125 27.986719 11.1735 28.033594 11.165687 C 28.080469 11.157875 28.158594 11.14225 28.205469 11.134437 C 28.252344 11.126625 28.326563 11.114906 28.373438 11.103187 C 28.420313 11.095375 28.498438 11.07975 28.545313 11.071937 C 28.592188 11.064125 28.666406 11.052406 28.717188 11.044594 C 28.764063 11.032875 28.838281 11.021156 28.885156 11.009437 C 28.932031 11.001625 29.010156 10.989906 29.057031 10.982094 C 29.103906 10.970375 29.178125 10.958656 29.225 10.950844 C 29.275781 10.943031 29.35 10.927406 29.396875 10.919594 C 29.44375 10.911781 29.521875 10.896156 29.56875 10.888344 C 29.615625 10.880531 29.689844 10.864906 29.736719 10.857094 C 29.783594 10.849281 29.861719 10.837562 29.908594 10.82975 C 29.955469 10.821937 30.029688 10.806312 30.080469 10.7985 C 30.127344 10.786781 30.201563 10.775062 30.248438 10.76725 C 30.295313 10.759437 30.373438 10.743812 30.420313 10.736 C 30.467188 10.728187 30.541406 10.712562 30.588281 10.70475 C 30.639063 10.696937 30.713281 10.685219 30.760156 10.677406 C 30.807031 10.669594 30.885156 10.653969 30.932031 10.646156 C 30.978906 10.638344 31.053125 10.626625 31.1 10.618812 C 31.146875 10.611 31.225 10.595375 31.271875 10.587562 C 31.31875 10.57975 31.392969 10.564125 31.44375 10.556312 C 31.490625 10.5485 31.564844 10.536781 31.611719 10.528969 C 31.658594 10.51725 31.736719 10.505531 31.783594 10.497719 C 31.830469 10.489906 31.904688 10.478187 31.951563 10.470375 C 32.002344 10.458656 32.076563 10.446937 32.123438 10.439125 C 32.170313 10.431312 32.248438 10.419594 32.295313 10.411781 C 32.342188 10.403969 32.416406 10.388344 32.463281 10.380531 C 32.510156 10.372719 32.588281 10.361 32.635156 10.353187 C 32.682031 10.345375 32.75625 10.32975 32.807031 10.321937 C 32.853906 10.314125 32.928125 10.302406 32.975 10.294594 C 33.021875 10.286781 33.1 10.275062 33.146875 10.263344 C 33.19375 10.255531 33.267969 10.243812 33.314844 10.236 C 33.365625 10.228187 33.439844 10.216469 33.486719 10.208656 C 33.533594 10.200844 33.611719 10.189125 33.658594 10.181312 C 33.705469 10.1735 33.779688 10.157875 33.826563 10.150062 C 33.873438 10.14225 33.951563 10.130531 33.998438 10.122719 C 34.045313 10.114906 34.119531 10.099281 34.170313 10.091469 C 34.217188 10.083656 34.291406 10.075844 34.338281 10.068031 C 34.385156 10.060219 34.463281 10.044594 34.510156 10.036781 C 34.557031 10.028969 34.63125 10.01725 34.678125 10.009437 C 34.728906 10.001625 34.803125 9.989906 34.85 9.982094 C 34.896875 9.974281 34.975 9.962562 35.021875 9.95475 C 35.06875 9.946937 35.142969 9.931312 35.189844 9.9235 C 35.236719 9.915687 35.314844 9.903969 35.361719 9.900062 C 35.408594 9.89225 35.486719 9.876625 35.533594 9.868812 C 35.580469 9.861 35.654688 9.849281 35.701563 9.841469 C 35.748438 9.833656 35.826563 9.821937 35.873438 9.814125 C 35.920313 9.806312 35.994531 9.794594 36.045313 9.786781 C 36.092188 9.778969 36.166406 9.76725 36.213281 9.759437 C 36.260156 9.751625 36.338281 9.739906 36.385156 9.732094 C 36.432031 9.724281 36.50625 9.712562 36.553125 9.70475 C 36.6 9.696937 36.678125 9.685219 36.725 9.677406 C 36.771875 9.669594 36.85 9.657875 36.896875 9.650062 C 36.94375 9.64225 37.017969 9.630531 37.064844 9.622719 C 37.111719 9.614906 37.189844 9.603187 37.236719 9.595375 C 37.283594 9.591469 37.357813 9.57975 37.408594 9.571937 C 37.455469 9.564125 37.529688 9.552406 37.576563 9.544594 C 37.623438 9.536781 37.701563 9.521156 37.748438 9.51725 C 37.795313 9.509437 37.869531 9.497719 37.916406 9.489906 C 37.967188 9.482094 38.041406 9.470375 38.088281 9.462562 C 38.135156 9.45475 38.213281 9.443031 38.260156 9.435219 C 38.307031 9.427406 38.38125 9.419594 38.428125 9.411781 C 38.475 9.403969 38.553125 9.39225 38.6 9.384437 C 38.646875 9.376625 38.721094 9.364906 38.771875 9.357094 C 38.81875 9.349281 38.892969 9.337562 38.939844 9.32975 C 38.986719 9.325844 39.064844 9.310219 39.111719 9.306312 C 39.158594 9.2985 39.232813 9.286781 39.279688 9.278969 C 39.330469 9.271156 39.404688 9.259437 39.451563 9.251625 C 39.498438 9.247719 39.576563 9.232094 39.623438 9.228187 C 39.670313 9.220375 39.744531 9.208656 39.791406 9.200844 C 39.838281 9.193031 39.916406 9.181312 39.963281 9.1735 C 40.010156 9.169594 40.084375 9.157875 40.135156 9.150062 C 40.182031 9.14225 40.25625 9.130531 40.303125 9.122719 C 40.35 9.114906 40.428125 9.107094 40.475 9.099281 C 40.521875 9.091469 40.596094 9.07975 40.642969 9.071937 C 40.69375 9.064125 40.767969 9.056312 40.814844 9.0485 C 40.861719 9.040687 40.939844 9.028969 40.986719 9.021156 C 41.033594 9.01725 41.107813 9.001625 41.154688 8.997719 C 41.201563 8.989906 41.279688 8.978187 41.326563 8.970375 C 41.373438 8.966469 41.447656 8.95475 41.498438 8.946937 C 41.545313 8.939125 41.619531 8.927406 41.666406 8.9235 C 41.713281 8.915687 41.791406 8.903969 41.838281 8.896156 C 41.885156 8.89225 41.959375 8.880531 42.00625 8.872719 C 42.057031 8.864906 42.13125 8.853187 42.178125 8.849281 C 42.225 8.841469 42.303125 8.82975 42.35 8.821937 C 42.396875 8.814125 42.517969 8.7985 42.517969 8.7985 " transform="matrix(1, 0, 0, -1, 53.15, 60.236)"/>
<path fill="none" stroke-width="0.79701" stroke-linecap="butt" stroke-linejoin="miter" stroke="rgb(50%, 50%, 50%)" stroke-opacity="1" stroke-dasharray="2.49069 1.0959" stroke-miterlimit="10" d="M -42.521094 -35.674156 C -42.521094 -35.674156 -42.396094 -35.603844 -42.349219 -35.5765 C -42.302344 -35.549156 -42.228125 -35.502281 -42.18125 -35.474938 C -42.130469 -35.447594 -42.05625 -35.404625 -42.009375 -35.377281 C -41.9625 -35.349938 -41.884375 -35.303063 -41.8375 -35.275719 C -41.790625 -35.248375 -41.716406 -35.205406 -41.669531 -35.178063 C -41.622656 -35.150719 -41.544531 -35.10775 -41.497656 -35.080406 C -41.450781 -35.053063 -41.372656 -35.010094 -41.325781 -34.98275 C -41.278906 -34.955406 -41.204687 -34.912438 -41.157812 -34.885094 C -41.110937 -34.85775 -41.032812 -34.814781 -40.985937 -34.787438 C -40.939062 -34.760094 -40.864844 -34.717125 -40.814062 -34.689781 C -40.767187 -34.662438 -40.692969 -34.619469 -40.646094 -34.592125 C -40.599219 -34.564781 -40.521094 -34.521813 -40.474219 -34.494469 C -40.427344 -34.467125 -40.353125 -34.424156 -40.30625 -34.396813 C -40.259375 -34.369469 -40.18125 -34.3265 -40.134375 -34.303063 C -40.0875 -34.275719 -40.009375 -34.23275 -39.9625 -34.205406 C -39.915625 -34.178063 -39.841406 -34.135094 -39.794531 -34.10775 C -39.747656 -34.084313 -39.669531 -34.041344 -39.622656 -34.014 C -39.575781 -33.986656 -39.501562 -33.943688 -39.450781 -33.92025 C -39.403906 -33.892906 -39.329687 -33.849938 -39.282812 -33.822594 C -39.235937 -33.79525 -39.157812 -33.756188 -39.110937 -33.728844 C -39.064062 -33.7015 -38.989844 -33.658531 -38.942969 -33.635094 C -38.892187 -33.60775 -38.817969 -33.564781 -38.771094 -33.541344 C -38.724219 -33.514 -38.646094 -33.471031 -38.599219 -33.447594 C -38.552344 -33.42025 -38.478125 -33.377281 -38.43125 -33.353844 C -38.384375 -33.3265 -38.30625 -33.283531 -38.259375 -33.260094 C -38.2125 -33.23275 -38.138281 -33.193688 -38.0875 -33.166344 C -38.040625 -33.139 -37.966406 -33.099938 -37.919531 -33.072594 C -37.872656 -33.04525 -37.794531 -33.006188 -37.747656 -32.978844 C -37.700781 -32.955406 -37.626562 -32.912438 -37.579687 -32.889 C -37.528906 -32.861656 -37.454687 -32.822594 -37.407812 -32.79525 C -37.360937 -32.771813 -37.282812 -32.728844 -37.235937 -32.7015 C -37.189062 -32.678063 -37.114844 -32.639 -37.067969 -32.611656 C -37.021094 -32.588219 -36.942969 -32.54525 -36.896094 -32.521813 C -36.849219 -32.494469 -36.775 -32.455406 -36.724219 -32.428063 C -36.677344 -32.404625 -36.603125 -32.365563 -36.55625 -32.338219 C -36.509375 -32.314781 -36.43125 -32.271813 -36.384375 -32.248375 C -36.3375 -32.224938 -36.263281 -32.181969 -36.216406 -32.158531 C -36.165625 -32.131188 -36.091406 -32.092125 -36.044531 -32.068688 C -35.997656 -32.041344 -35.919531 -32.002281 -35.872656 -31.978844 C -35.825781 -31.9515 -35.751562 -31.912438 -35.704687 -31.889 C -35.657812 -31.861656 -35.579687 -31.822594 -35.532812 -31.799156 C -35.485937 -31.775719 -35.411719 -31.73275 -35.360937 -31.709313 C -35.314062 -31.685875 -35.239844 -31.646813 -35.192969 -31.619469 C -35.146094 -31.596031 -35.067969 -31.556969 -35.021094 -31.533531 C -34.974219 -31.506188 -34.9 -31.467125 -34.853125 -31.443688 C -34.802344 -31.42025 -34.728125 -31.381188 -34.68125 -31.35775 C -34.634375 -31.330406 -34.55625 -31.291344 -34.509375 -31.267906 C -34.4625 -31.244469 -34.388281 -31.205406 -34.341406 -31.181969 C -34.294531 -31.154625 -34.216406 -31.119469 -34.169531 -31.092125 C -34.122656 -31.068688 -34.044531 -31.029625 -33.997656 -31.006188 C -33.950781 -30.98275 -33.876562 -30.943688 -33.829687 -30.92025 C -33.782812 -30.896813 -33.704687 -30.85775 -33.657812 -30.834313 C -33.610937 -30.806969 -33.536719 -30.771813 -33.489844 -30.744469 C -33.439062 -30.721031 -33.364844 -30.685875 -33.317969 -30.658531 C -33.271094 -30.635094 -33.192969 -30.599938 -33.146094 -30.572594 C -33.099219 -30.549156 -33.025 -30.514 -32.978125 -30.490563 C -32.93125 -30.463219 -32.853125 -30.428063 -32.80625 -30.404625 C -32.759375 -30.381188 -32.68125 -30.342125 -32.634375 -30.318688 C -32.5875 -30.29525 -32.513281 -30.256188 -32.466406 -30.23275 C -32.419531 -30.209313 -32.341406 -30.17025 -32.294531 -30.146813 C -32.247656 -30.123375 -32.173437 -30.088219 -32.122656 -30.064781 C -32.075781 -30.041344 -32.001562 -30.002281 -31.954687 -29.978844 C -31.907812 -29.955406 -31.829687 -29.92025 -31.782812 -29.896813 C -31.735937 -29.873375 -31.661719 -29.834313 -31.614844 -29.810875 C -31.567969 -29.787438 -31.489844 -29.752281 -31.442969 -29.728844 C -31.396094 -29.705406 -31.317969 -29.67025 -31.271094 -29.646813 C -31.224219 -29.623375 -31.15 -29.584313 -31.103125 -29.560875 C -31.05625 -29.537438 -30.978125 -29.502281 -30.93125 -29.478844 C -30.884375 -29.455406 -30.810156 -29.42025 -30.759375 -29.396813 C -30.7125 -29.373375 -30.638281 -29.338219 -30.591406 -29.314781 C -30.544531 -29.291344 -30.466406 -29.256188 -30.419531 -29.23275 C -30.372656 -29.209313 -30.298437 -29.174156 -30.251562 -29.150719 C -30.200781 -29.127281 -30.126562 -29.092125 -30.079687 -29.068688 C -30.032812 -29.04525 -29.954687 -29.010094 -29.907812 -28.986656 C -29.860937 -28.963219 -29.786719 -28.928063 -29.739844 -28.904625 C -29.692969 -28.885094 -29.614844 -28.846031 -29.567969 -28.822594 C -29.521094 -28.803063 -29.446875 -28.767906 -29.396094 -28.744469 C -29.349219 -28.721031 -29.275 -28.685875 -29.228125 -28.662438 C -29.18125 -28.642906 -29.103125 -28.603844 -29.05625 -28.584313 C -29.009375 -28.560875 -28.935156 -28.525719 -28.888281 -28.502281 C -28.8375 -28.478844 -28.763281 -28.443688 -28.716406 -28.424156 C -28.669531 -28.400719 -28.591406 -28.365563 -28.544531 -28.342125 C -28.497656 -28.322594 -28.423437 -28.287438 -28.376562 -28.264 C -28.329687 -28.240563 -28.251562 -28.205406 -28.204687 -28.185875 C -28.157812 -28.162438 -28.083594 -28.127281 -28.032812 -28.10775 C -27.985937 -28.084313 -27.911719 -28.049156 -27.864844 -28.025719 C -27.817969 -28.006188 -27.739844 -27.971031 -27.692969 -27.947594 C -27.646094 -27.928063 -27.571875 -27.892906 -27.525 -27.869469 C -27.474219 -27.849938 -27.4 -27.814781 -27.353125 -27.791344 C -27.30625 -27.771813 -27.228125 -27.736656 -27.18125 -27.713219 C -27.134375 -27.693688 -27.060156 -27.658531 -27.013281 -27.639 C -26.966406 -27.615563 -26.888281 -27.580406 -26.841406 -27.560875 C -26.794531 -27.537438 -26.720312 -27.502281 -26.669531 -27.48275 C -26.622656 -27.459313 -26.548437 -27.428063 -26.501562 -27.404625 C -26.454687 -27.385094 -26.376562 -27.349938 -26.329687 -27.330406 C -26.282812 -27.306969 -26.208594 -27.271813 -26.161719 -27.252281 C -26.110937 -27.23275 -26.036719 -27.197594 -25.989844 -27.174156 C -25.942969 -27.154625 -25.864844 -27.119469 -25.817969 -27.099938 C -25.771094 -27.080406 -25.696875 -27.04525 -25.65 -27.025719 C -25.603125 -27.002281 -25.525 -26.967125 -25.478125 -26.947594 C -25.43125 -26.928063 -25.353125 -26.892906 -25.30625 -26.873375 C -25.259375 -26.849938 -25.185156 -26.818688 -25.138281 -26.79525 C -25.091406 -26.775719 -25.013281 -26.744469 -24.966406 -26.721031 C -24.919531 -26.7015 -24.845312 -26.67025 -24.798437 -26.646813 C -24.747656 -26.627281 -24.673437 -26.592125 -24.626562 -26.572594 C -24.579687 -26.553063 -24.501562 -26.517906 -24.454687 -26.498375 C -24.407812 -26.478844 -24.333594 -26.443688 -24.286719 -26.424156 C -24.239844 -26.404625 -24.161719 -26.369469 -24.114844 -26.349938 C -24.067969 -26.330406 -23.989844 -26.29525 -23.942969 -26.275719 C -23.896094 -26.256188 -23.821875 -26.221031 -23.775 -26.2015 C -23.728125 -26.181969 -23.65 -26.150719 -23.603125 -26.127281 C -23.55625 -26.10775 -23.482031 -26.0765 -23.43125 -26.056969 C -23.384375 -26.037438 -23.310156 -26.002281 -23.263281 -25.98275 C -23.216406 -25.963219 -23.138281 -25.931969 -23.091406 -25.908531 C -23.044531 -25.889 -22.970312 -25.85775 -22.923437 -25.838219 C -22.876562 -25.818688 -22.798437 -25.783531 -22.751562 -25.764 C -22.704687 -25.744469 -22.626562 -25.713219 -22.579687 -25.693688 C -22.532812 -25.674156 -22.458594 -25.639 -22.411719 -25.619469 C -22.364844 -25.599938 -22.286719 -25.568688 -22.239844 -25.549156 C -22.192969 -25.529625 -22.11875 -25.498375 -22.067969 -25.478844 C -22.021094 -25.459313 -21.946875 -25.424156 -21.9 -25.404625 C -21.853125 -25.385094 -21.775 -25.353844 -21.728125 -25.334313 C -21.68125 -25.314781 -21.607031 -25.283531 -21.560156 -25.264 C -21.509375 -25.244469 -21.435156 -25.213219 -21.388281 -25.193688 C -21.341406 -25.174156 -21.263281 -25.142906 -21.216406 -25.123375 C -21.169531 -25.103844 -21.095312 -25.072594 -21.048437 -25.053063 C -21.001562 -25.033531 -20.923437 -25.002281 -20.876562 -24.98275 C -20.829687 -24.963219 -20.755469 -24.931969 -20.704687 -24.912438 C -20.657812 -24.892906 -20.583594 -24.861656 -20.536719 -24.842125 C -20.489844 -24.822594 -20.411719 -24.791344 -20.364844 -24.771813 C -20.317969 -24.752281 -20.24375 -24.721031 -20.196875 -24.7015 C -20.146094 -24.685875 -20.071875 -24.650719 -20.025 -24.635094 C -19.978125 -24.615563 -19.9 -24.584313 -19.853125 -24.564781 C -19.80625 -24.54525 -19.732031 -24.514 -19.685156 -24.494469 C -19.638281 -24.478844 -19.560156 -24.447594 -19.513281 -24.428063 C -19.466406 -24.408531 -19.392187 -24.377281 -19.341406 -24.35775 C -19.294531 -24.342125 -19.220312 -24.310875 -19.173437 -24.291344 C -19.126562 -24.271813 -19.048437 -24.240563 -19.001562 -24.221031 C -18.954687 -24.205406 -18.880469 -24.174156 -18.833594 -24.154625 C -18.782812 -24.135094 -18.708594 -24.10775 -18.661719 -24.088219 C -18.614844 -24.068688 -18.536719 -24.037438 -18.489844 -24.021813 C -18.442969 -24.002281 -18.36875 -23.971031 -18.321875 -23.9515 C -18.275 -23.935875 -18.196875 -23.904625 -18.15 -23.885094 C -18.103125 -23.865563 -18.028906 -23.838219 -17.978125 -23.818688 C -17.93125 -23.799156 -17.857031 -23.771813 -17.810156 -23.752281 C -17.763281 -23.73275 -17.685156 -23.705406 -17.638281 -23.685875 C -17.591406 -23.666344 -17.517187 -23.639 -17.470312 -23.619469 C -17.419531 -23.599938 -17.345312 -23.572594 -17.298437 -23.553063 C -17.251562 -23.533531 -17.173437 -23.506188 -17.126562 -23.486656 C -17.079687 -23.467125 -17.005469 -23.439781 -16.958594 -23.42025 C -16.911719 -23.404625 -16.833594 -23.373375 -16.786719 -23.353844 C -16.739844 -23.338219 -16.661719 -23.306969 -16.614844 -23.291344 C -16.567969 -23.271813 -16.49375 -23.244469 -16.446875 -23.224938 C -16.4 -23.205406 -16.321875 -23.178063 -16.275 -23.158531 C -16.228125 -23.142906 -16.153906 -23.111656 -16.107031 -23.096031 C -16.05625 -23.0765 -15.982031 -23.049156 -15.935156 -23.029625 C -15.888281 -23.014 -15.810156 -22.98275 -15.763281 -22.967125 C -15.716406 -22.947594 -15.642187 -22.92025 -15.595312 -22.900719 C -15.548437 -22.885094 -15.470312 -22.853844 -15.423437 -22.838219 C -15.376562 -22.818688 -15.298437 -22.791344 -15.251562 -22.771813 C -15.204687 -22.756188 -15.130469 -22.728844 -15.083594 -22.709313 C -15.036719 -22.693688 -14.958594 -22.662438 -14.911719 -22.646813 C -14.864844 -22.627281 -14.790625 -22.599938 -14.739844 -22.580406 C -14.692969 -22.564781 -14.61875 -22.537438 -14.571875 -22.517906 C -14.525 -22.502281 -14.446875 -22.474938 -14.4 -22.455406 C -14.353125 -22.439781 -14.278906 -22.412438 -14.232031 -22.392906 C -14.18125 -22.377281 -14.107031 -22.346031 -14.060156 -22.330406 C -14.013281 -22.310875 -13.935156 -22.283531 -13.888281 -22.267906 C -13.841406 -22.252281 -13.767187 -22.221031 -13.720312 -22.205406 C -13.673437 -22.189781 -13.595312 -22.158531 -13.548437 -22.142906 C -13.501562 -22.127281 -13.427344 -22.099938 -13.376562 -22.080406 C -13.329687 -22.064781 -13.255469 -22.037438 -13.208594 -22.017906 C -13.161719 -22.002281 -13.083594 -21.974938 -13.036719 -21.955406 C -12.989844 -21.939781 -12.915625 -21.912438 -12.86875 -21.896813 C -12.817969 -21.877281 -12.74375 -21.849938 -12.696875 -21.834313 C -12.65 -21.818688 -12.571875 -21.791344 -12.525 -21.771813 C -12.478125 -21.756188 -12.403906 -21.728844 -12.357031 -21.713219 C -12.310156 -21.693688 -12.232031 -21.67025 -12.185156 -21.650719 C -12.138281 -21.635094 -12.064062 -21.60775 -12.013281 -21.592125 C -11.966406 -21.572594 -11.892187 -21.54525 -11.845312 -21.529625 C -11.798437 -21.514 -11.720312 -21.486656 -11.673437 -21.471031 C -11.626562 -21.455406 -11.552344 -21.428063 -11.505469 -21.408531 C -11.454687 -21.392906 -11.380469 -21.365563 -11.333594 -21.349938 C -11.286719 -21.334313 -11.208594 -21.306969 -11.161719 -21.291344 C -11.114844 -21.271813 -11.040625 -21.248375 -10.99375 -21.228844 C -10.946875 -21.213219 -10.86875 -21.185875 -10.821875 -21.17025 C -10.775 -21.154625 -10.700781 -21.127281 -10.65 -21.111656 C -10.603125 -21.096031 -10.528906 -21.068688 -10.482031 -21.053063 C -10.435156 -21.037438 -10.357031 -21.010094 -10.310156 -20.994469 C -10.263281 -20.978844 -10.189062 -20.9515 -10.142187 -20.935875 C -10.091406 -20.92025 -10.017187 -20.892906 -9.970312 -20.877281 C -9.923437 -20.85775 -9.845312 -20.834313 -9.798437 -20.818688 C -9.751562 -20.803063 -9.677344 -20.775719 -9.630469 -20.760094 C -9.583594 -20.744469 -9.505469 -20.717125 -9.458594 -20.7015 C -9.411719 -20.685875 -9.3375 -20.658531 -9.286719 -20.642906 C -9.239844 -20.627281 -9.165625 -20.599938 -9.11875 -20.584313 C -9.071875 -20.568688 -8.99375 -20.54525 -8.946875 -20.525719 C -8.9 -20.510094 -8.825781 -20.486656 -8.778906 -20.471031 C -8.728125 -20.455406 -8.653906 -20.428063 -8.607031 -20.412438 C -8.560156 -20.396813 -8.482031 -20.369469 -8.435156 -20.353844 C -8.388281 -20.338219 -8.314062 -20.314781 -8.267187 -20.299156 C -8.220312 -20.283531 -8.142187 -20.256188 -8.095312 -20.240563 C -8.048437 -20.224938 -7.970312 -20.2015 -7.923437 -20.185875 C -7.876562 -20.17025 -7.802344 -20.142906 -7.755469 -20.127281 C -7.708594 -20.111656 -7.630469 -20.088219 -7.583594 -20.072594 C -7.536719 -20.056969 -7.4625 -20.029625 -7.415625 -20.014 C -7.364844 -19.998375 -7.290625 -19.974938 -7.24375 -19.959313 C -7.196875 -19.943688 -7.11875 -19.92025 -7.071875 -19.904625 C -7.025 -19.889 -6.950781 -19.865563 -6.903906 -19.849938 C -6.857031 -19.834313 -6.778906 -19.806969 -6.732031 -19.791344 C -6.685156 -19.775719 -6.607031 -19.752281 -6.560156 -19.736656 C -6.513281 -19.721031 -6.439062 -19.697594 -6.392187 -19.681969 C -6.345312 -19.666344 -6.267187 -19.642906 -6.220312 -19.627281 C -6.173437 -19.611656 -6.099219 -19.588219 -6.048437 -19.572594 C -6.001562 -19.556969 -5.927344 -19.533531 -5.880469 -19.517906 C -5.833594 -19.502281 -5.755469 -19.478844 -5.708594 -19.463219 C -5.661719 -19.447594 -5.5875 -19.424156 -5.540625 -19.408531 C -5.489844 -19.392906 -5.415625 -19.369469 -5.36875 -19.353844 C -5.321875 -19.338219 -5.24375 -19.314781 -5.196875 -19.299156 C -5.15 -19.283531 -5.075781 -19.260094 -5.028906 -19.244469 C -4.982031 -19.228844 -4.903906 -19.205406 -4.857031 -19.189781 C -4.810156 -19.178063 -4.735937 -19.150719 -4.685156 -19.139 C -4.638281 -19.123375 -4.564062 -19.099938 -4.517187 -19.084313 C -4.470312 -19.068688 -4.392187 -19.04525 -4.345312 -19.029625 C -4.298437 -19.014 -4.224219 -18.990563 -4.177344 -18.978844 C -4.126562 -18.963219 -4.052344 -18.939781 -4.005469 -18.924156 C -3.958594 -18.908531 -3.880469 -18.885094 -3.833594 -18.869469 C -3.786719 -18.85775 -3.7125 -18.834313 -3.665625 -18.818688 C -3.61875 -18.803063 -3.540625 -18.779625 -3.49375 -18.764 C -3.446875 -18.752281 -3.372656 -18.728844 -3.321875 -18.713219 C -3.275 -18.697594 -3.200781 -18.674156 -3.153906 -18.658531 C -3.107031 -18.646813 -3.028906 -18.623375 -2.982031 -18.60775 C -2.935156 -18.592125 -2.860937 -18.568688 -2.814062 -18.556969 C -2.763281 -18.541344 -2.689062 -18.517906 -2.642187 -18.502281 C -2.595312 -18.490563 -2.517187 -18.467125 -2.470312 -18.4515 C -2.423437 -18.435875 -2.349219 -18.416344 -2.302344 -18.400719 C -2.255469 -18.385094 -2.177344 -18.361656 -2.130469 -18.349938 C -2.083594 -18.334313 -2.009375 -18.310875 -1.958594 -18.299156 C -1.911719 -18.283531 -1.8375 -18.260094 -1.790625 -18.244469 C -1.74375 -18.23275 -1.665625 -18.209313 -1.61875 -18.193688 C -1.571875 -18.181969 -1.497656 -18.158531 -1.450781 -18.142906 C -1.4 -18.131188 -1.325781 -18.10775 -1.278906 -18.092125 C -1.232031 -18.080406 -1.153906 -18.056969 -1.107031 -18.041344 C -1.060156 -18.029625 -0.985937 -18.006188 -0.939062 -17.990563 C -0.892187 -17.978844 -0.814062 -17.955406 -0.767187 -17.939781 C -0.720312 -17.928063 -0.646094 -17.904625 -0.595312 -17.892906 C -0.548437 -17.877281 -0.474219 -17.853844 -0.427344 -17.842125 C -0.380469 -17.8265 -0.302344 -17.806969 -0.255469 -17.791344 C -0.208594 -17.775719 -0.134375 -17.756188 -0.0875 -17.740563 C -0.0367187 -17.728844 0.0375 -17.705406 0.084375 -17.693688 C 0.13125 -17.678063 0.209375 -17.654625 0.25625 -17.642906 C 0.303125 -17.627281 0.377344 -17.60775 0.424219 -17.592125 C 0.471094 -17.580406 0.549219 -17.556969 0.596094 -17.541344 C 0.642969 -17.529625 0.721094 -17.506188 0.767969 -17.494469 C 0.814844 -17.478844 0.889063 -17.459313 0.935938 -17.443688 C 0.982813 -17.431969 1.060938 -17.408531 1.107813 -17.396813 C 1.154688 -17.381188 1.228906 -17.361656 1.275781 -17.349938 C 1.326563 -17.334313 1.400781 -17.310875 1.447656 -17.299156 C 1.494531 -17.283531 1.572656 -17.264 1.619531 -17.252281 C 1.666406 -17.236656 1.740625 -17.213219 1.7875 -17.2015 C 1.834375 -17.185875 1.9125 -17.166344 1.959375 -17.154625 C 2.00625 -17.139 2.084375 -17.119469 2.13125 -17.103844 C 2.178125 -17.092125 2.252344 -17.072594 2.299219 -17.056969 C 2.346094 -17.04525 2.424219 -17.021813 2.471094 -17.010094 C 2.517969 -16.998375 2.592188 -16.974938 2.642969 -16.963219 C 2.689844 -16.947594 2.764063 -16.928063 2.810938 -16.912438 C 2.857813 -16.900719 2.935938 -16.881188 2.982813 -16.869469 C 3.029688 -16.853844 3.103906 -16.834313 3.150781 -16.818688 C 3.201563 -16.806969 3.275781 -16.783531 3.322656 -16.771813 C 3.369531 -16.760094 3.447656 -16.740563 3.494531 -16.724938 C 3.541406 -16.713219 3.615625 -16.689781 3.6625 -16.678063 C 3.709375 -16.666344 3.7875 -16.646813 3.834375 -16.631188 C 3.88125 -16.619469 3.955469 -16.599938 4.00625 -16.588219 C 4.053125 -16.572594 4.127344 -16.553063 4.174219 -16.541344 C 4.221094 -16.525719 4.299219 -16.506188 4.346094 -16.490563 C 4.392969 -16.478844 4.467188 -16.459313 4.514063 -16.447594 C 4.564844 -16.431969 4.639063 -16.412438 4.685938 -16.400719 C 4.732813 -16.389 4.810938 -16.365563 4.857813 -16.353844 C 4.904688 -16.342125 4.978906 -16.322594 5.025781 -16.306969 C 5.072656 -16.29525 5.150781 -16.275719 5.197656 -16.264 C 5.244531 -16.252281 5.31875 -16.228844 5.369531 -16.217125 C 5.416406 -16.205406 5.490625 -16.185875 5.5375 -16.17025 C 5.584375 -16.158531 5.6625 -16.139 5.709375 -16.127281 C 5.75625 -16.115563 5.830469 -16.092125 5.877344 -16.080406 C 5.928125 -16.068688 6.002344 -16.049156 6.049219 -16.037438 C 6.096094 -16.025719 6.174219 -16.002281 6.221094 -15.990563 C 6.267969 -15.978844 6.342188 -15.959313 6.389063 -15.947594 C 6.435938 -15.935875 6.514063 -15.916344 6.560938 -15.900719 C 6.607813 -15.889 6.682031 -15.869469 6.732813 -15.85775 C 6.779688 -15.846031 6.853906 -15.8265 6.900781 -15.814781 C 6.947656 -15.803063 7.025781 -15.783531 7.072656 -15.767906 C 7.119531 -15.756188 7.19375 -15.736656 7.240625 -15.724938 C 7.291406 -15.713219 7.365625 -15.693688 7.4125 -15.681969 C 7.459375 -15.67025 7.5375 -15.650719 7.584375 -15.635094 C 7.63125 -15.623375 7.705469 -15.603844 7.752344 -15.592125 C 7.799219 -15.580406 7.877344 -15.560875 7.924219 -15.549156 C 7.971094 -15.537438 8.045313 -15.517906 8.096094 -15.506188 C 8.142969 -15.494469 8.217188 -15.474938 8.264063 -15.463219 C 8.310938 -15.4515 8.389063 -15.431969 8.435938 -15.42025 C 8.482813 -15.408531 8.557031 -15.389 8.603906 -15.377281 C 8.654688 -15.365563 8.728906 -15.346031 8.775781 -15.334313 C 8.822656 -15.322594 8.900781 -15.303063 8.947656 -15.291344 C 8.994531 -15.275719 9.06875 -15.260094 9.115625 -15.248375 C 9.1625 -15.236656 9.240625 -15.217125 9.2875 -15.205406 C 9.334375 -15.193688 9.4125 -15.174156 9.459375 -15.162438 C 9.50625 -15.150719 9.580469 -15.131188 9.627344 -15.119469 C 9.674219 -15.10775 9.752344 -15.088219 9.799219 -15.0765 C 9.846094 -15.064781 9.920313 -15.04525 9.967188 -15.033531 C 10.017969 -15.021813 10.092188 -15.002281 10.139063 -14.990563 C 10.185938 -14.978844 10.264063 -14.963219 10.310938 -14.9515 C 10.357813 -14.939781 10.432031 -14.92025 10.478906 -14.908531 C 10.525781 -14.896813 10.603906 -14.877281 10.650781 -14.865563 C 10.697656 -14.853844 10.775781 -14.838219 10.822656 -14.8265 C 10.869531 -14.814781 10.94375 -14.79525 10.990625 -14.783531 C 11.0375 -14.771813 11.115625 -14.752281 11.1625 -14.740563 C 11.209375 -14.728844 11.283594 -14.713219 11.334375 -14.7015 C 11.38125 -14.689781 11.455469 -14.67025 11.502344 -14.658531 C 11.549219 -14.650719 11.627344 -14.631188 11.674219 -14.619469 C 11.721094 -14.60775 11.795313 -14.588219 11.842188 -14.5765 C 11.892969 -14.564781 11.967188 -14.549156 12.014063 -14.537438 C 12.060938 -14.525719 12.139063 -14.506188 12.185938 -14.494469 C 12.232813 -14.48275 12.307031 -14.467125 12.353906 -14.455406 C 12.400781 -14.443688 12.478906 -14.424156 12.525781 -14.412438 C 12.572656 -14.404625 12.646875 -14.385094 12.697656 -14.377281 C 12.744531 -14.365563 12.81875 -14.346031 12.865625 -14.334313 C 12.9125 -14.322594 12.990625 -14.303063 13.0375 -14.29525 C 13.084375 -14.283531 13.158594 -14.264 13.205469 -14.256188 C 13.25625 -14.244469 13.330469 -14.224938 13.377344 -14.213219 C 13.424219 -14.2015 13.502344 -14.185875 13.549219 -14.174156 C 13.596094 -14.162438 13.670313 -14.146813 13.717188 -14.135094 C 13.764063 -14.123375 13.842188 -14.10775 13.889063 -14.096031 C 13.935938 -14.084313 14.010156 -14.068688 14.060938 -14.056969 C 14.107813 -14.04525 14.182031 -14.025719 14.228906 -14.014 C 14.275781 -14.006188 14.353906 -13.986656 14.400781 -13.974938 C 14.447656 -13.967125 14.521875 -13.947594 14.56875 -13.935875 C 14.619531 -13.928063 14.69375 -13.908531 14.740625 -13.896813 C 14.7875 -13.889 14.865625 -13.869469 14.9125 -13.861656 C 14.959375 -13.849938 15.033594 -13.830406 15.080469 -13.822594 C 15.127344 -13.810875 15.205469 -13.791344 15.252344 -13.783531 C 15.299219 -13.771813 15.373438 -13.752281 15.424219 -13.744469 C 15.471094 -13.73275 15.545313 -13.717125 15.592188 -13.705406 C 15.639063 -13.693688 15.717188 -13.678063 15.764063 -13.666344 C 15.810938 -13.654625 15.885156 -13.639 15.932031 -13.631188 C 15.982813 -13.619469 16.057031 -13.599938 16.103906 -13.592125 C 16.150781 -13.580406 16.228906 -13.560875 16.275781 -13.553063 C 16.322656 -13.541344 16.396875 -13.525719 16.44375 -13.514 C 16.490625 -13.502281 16.56875 -13.486656 16.615625 -13.478844 C 16.6625 -13.467125 16.736719 -13.447594 16.7875 -13.439781 C 16.834375 -13.428063 16.908594 -13.412438 16.955469 -13.400719 C 17.002344 -13.389 17.080469 -13.373375 17.127344 -13.365563 C 17.174219 -13.353844 17.248438 -13.338219 17.295313 -13.3265 C 17.346094 -13.314781 17.420313 -13.299156 17.467188 -13.287438 C 17.514063 -13.279625 17.592188 -13.264 17.639063 -13.252281 C 17.685938 -13.240563 17.760156 -13.224938 17.807031 -13.213219 C 17.853906 -13.205406 17.932031 -13.189781 17.978906 -13.178063 C 18.025781 -13.166344 18.103906 -13.150719 18.150781 -13.139 C 18.197656 -13.131188 18.271875 -13.111656 18.31875 -13.103844 C 18.365625 -13.092125 18.44375 -13.0765 18.490625 -13.064781 C 18.5375 -13.056969 18.611719 -13.041344 18.658594 -13.029625 C 18.709375 -13.021813 18.783594 -13.002281 18.830469 -12.994469 C 18.877344 -12.98275 18.955469 -12.967125 19.002344 -12.959313 C 19.049219 -12.947594 19.123438 -12.931969 19.170313 -12.92025 C 19.217188 -12.908531 19.295313 -12.896813 19.342188 -12.885094 C 19.389063 -12.873375 19.467188 -12.85775 19.514063 -12.849938 C 19.560938 -12.838219 19.635156 -12.822594 19.682031 -12.814781 C 19.728906 -12.803063 19.807031 -12.787438 19.853906 -12.775719 C 19.900781 -12.767906 19.975 -12.752281 20.025781 -12.740563 C 20.072656 -12.73275 20.146875 -12.713219 20.19375 -12.705406 C 20.240625 -12.693688 20.31875 -12.678063 20.365625 -12.67025 C 20.4125 -12.658531 20.486719 -12.642906 20.533594 -12.635094 C 20.584375 -12.623375 20.658594 -12.60775 20.705469 -12.599938 C 20.752344 -12.588219 20.830469 -12.572594 20.877344 -12.564781 C 20.924219 -12.553063 20.998438 -12.537438 21.045313 -12.525719 C 21.092188 -12.517906 21.170313 -12.502281 21.217188 -12.494469 C 21.264063 -12.48275 21.338281 -12.467125 21.389063 -12.459313 C 21.435938 -12.447594 21.510156 -12.431969 21.557031 -12.424156 C 21.603906 -12.412438 21.682031 -12.400719 21.728906 -12.389 C 21.775781 -12.381188 21.85 -12.361656 21.896875 -12.353844 C 21.947656 -12.342125 22.021875 -12.3265 22.06875 -12.318688 C 22.115625 -12.306969 22.19375 -12.29525 22.240625 -12.283531 C 22.2875 -12.275719 22.361719 -12.260094 22.408594 -12.248375 C 22.455469 -12.240563 22.533594 -12.224938 22.580469 -12.217125 C 22.627344 -12.205406 22.701563 -12.189781 22.752344 -12.181969 C 22.799219 -12.174156 22.873438 -12.158531 22.920313 -12.146813 C 22.967188 -12.139 23.045313 -12.123375 23.092188 -12.111656 C 23.139063 -12.103844 23.213281 -12.088219 23.260156 -12.080406 C 23.310938 -12.068688 23.385156 -12.053063 23.432031 -12.04525 C 23.478906 -12.037438 23.557031 -12.021813 23.603906 -12.010094 C 23.650781 -12.002281 23.725 -11.986656 23.771875 -11.978844 C 23.81875 -11.967125 23.896875 -11.955406 23.94375 -11.943688 C 23.990625 -11.935875 24.064844 -11.92025 24.115625 -11.912438 C 24.1625 -11.900719 24.236719 -11.885094 24.283594 -11.877281 C 24.330469 -11.869469 24.408594 -11.853844 24.455469 -11.846031 C 24.502344 -11.834313 24.576563 -11.822594 24.623438 -11.810875 C 24.674219 -11.803063 24.748438 -11.787438 24.795313 -11.779625 C 24.842188 -11.767906 24.920313 -11.752281 24.967188 -11.744469 C 25.014063 -11.736656 25.088281 -11.721031 25.135156 -11.713219 C 25.182031 -11.7015 25.260156 -11.689781 25.307031 -11.678063 C 25.353906 -11.67025 25.428125 -11.654625 25.478906 -11.646813 C 25.525781 -11.639 25.6 -11.623375 25.646875 -11.615563 C 25.69375 -11.60775 25.771875 -11.592125 25.81875 -11.580406 C 25.865625 -11.572594 25.939844 -11.556969 25.986719 -11.549156 C 26.0375 -11.541344 26.111719 -11.525719 26.158594 -11.517906 C 26.205469 -11.510094 26.283594 -11.494469 26.330469 -11.48275 C 26.377344 -11.474938 26.451563 -11.459313 26.498438 -11.4515 C 26.545313 -11.443688 26.623438 -11.428063 26.670313 -11.42025 C 26.717188 -11.412438 26.795313 -11.396813 26.842188 -11.389 C 26.889063 -11.381188 26.963281 -11.365563 27.010156 -11.35775 C 27.057031 -11.346031 27.135156 -11.334313 27.182031 -11.322594 C 27.228906 -11.314781 27.303125 -11.303063 27.353906 -11.291344 C 27.400781 -11.283531 27.475 -11.267906 27.521875 -11.260094 C 27.56875 -11.252281 27.646875 -11.240563 27.69375 -11.228844 C 27.740625 -11.221031 27.814844 -11.209313 27.861719 -11.197594 C 27.908594 -11.189781 27.986719 -11.174156 28.033594 -11.166344 C 28.080469 -11.158531 28.158594 -11.142906 28.205469 -11.135094 C 28.252344 -11.127281 28.326563 -11.111656 28.373438 -11.103844 C 28.420313 -11.096031 28.498438 -11.080406 28.545313 -11.072594 C 28.592188 -11.064781 28.666406 -11.053063 28.717188 -11.041344 C 28.764063 -11.033531 28.838281 -11.017906 28.885156 -11.010094 C 28.932031 -11.002281 29.010156 -10.990563 29.057031 -10.978844 C 29.103906 -10.971031 29.178125 -10.959313 29.225 -10.9515 C 29.275781 -10.943688 29.35 -10.928063 29.396875 -10.92025 C 29.44375 -10.908531 29.521875 -10.896813 29.56875 -10.889 C 29.615625 -10.881188 29.689844 -10.865563 29.736719 -10.85775 C 29.783594 -10.849938 29.861719 -10.838219 29.908594 -10.830406 C 29.955469 -10.818688 30.029688 -10.806969 30.080469 -10.79525 C 30.127344 -10.787438 30.201563 -10.775719 30.248438 -10.767906 C 30.295313 -10.756188 30.373438 -10.744469 30.420313 -10.736656 C 30.467188 -10.728844 30.541406 -10.713219 30.588281 -10.705406 C 30.639063 -10.697594 30.713281 -10.685875 30.760156 -10.674156 C 30.807031 -10.666344 30.885156 -10.654625 30.932031 -10.646813 C 30.978906 -10.639 31.053125 -10.627281 31.1 -10.619469 C 31.146875 -10.60775 31.225 -10.596031 31.271875 -10.588219 C 31.31875 -10.580406 31.392969 -10.564781 31.44375 -10.556969 C 31.490625 -10.549156 31.564844 -10.533531 31.611719 -10.525719 C 31.658594 -10.517906 31.736719 -10.506188 31.783594 -10.498375 C 31.830469 -10.490563 31.904688 -10.474938 31.951563 -10.467125 C 32.002344 -10.459313 32.076563 -10.447594 32.123438 -10.439781 C 32.170313 -10.431969 32.248438 -10.42025 32.295313 -10.408531 C 32.342188 -10.400719 32.416406 -10.389 32.463281 -10.381188 C 32.510156 -10.373375 32.588281 -10.361656 32.635156 -10.353844 C 32.682031 -10.342125 32.75625 -10.330406 32.807031 -10.322594 C 32.853906 -10.314781 32.928125 -10.303063 32.975 -10.29525 C 33.021875 -10.287438 33.1 -10.271813 33.146875 -10.264 C 33.19375 -10.256188 33.267969 -10.244469 33.314844 -10.236656 C 33.365625 -10.228844 33.439844 -10.217125 33.486719 -10.209313 C 33.533594 -10.2015 33.611719 -10.189781 33.658594 -10.178063 C 33.705469 -10.17025 33.779688 -10.158531 33.826563 -10.150719 C 33.873438 -10.142906 33.951563 -10.131188 33.998438 -10.123375 C 34.045313 -10.115563 34.119531 -10.099938 34.170313 -10.092125 C 34.217188 -10.084313 34.291406 -10.072594 34.338281 -10.064781 C 34.385156 -10.060875 34.463281 -10.04525 34.510156 -10.037438 C 34.557031 -10.029625 34.63125 -10.017906 34.678125 -10.010094 C 34.728906 -10.002281 34.803125 -9.990563 34.85 -9.98275 C 34.896875 -9.974938 34.975 -9.959313 35.021875 -9.9515 C 35.06875 -9.943688 35.142969 -9.931969 35.189844 -9.924156 C 35.236719 -9.916344 35.314844 -9.904625 35.361719 -9.896813 C 35.408594 -9.889 35.486719 -9.877281 35.533594 -9.869469 C 35.580469 -9.861656 35.654688 -9.849938 35.701563 -9.842125 C 35.748438 -9.834313 35.826563 -9.822594 35.873438 -9.814781 C 35.920313 -9.806969 35.994531 -9.79525 36.045313 -9.787438 C 36.092188 -9.779625 36.166406 -9.767906 36.213281 -9.760094 C 36.260156 -9.752281 36.338281 -9.740563 36.385156 -9.73275 C 36.432031 -9.724938 36.50625 -9.713219 36.553125 -9.705406 C 36.6 -9.697594 36.678125 -9.685875 36.725 -9.678063 C 36.771875 -9.67025 36.85 -9.658531 36.896875 -9.650719 C 36.94375 -9.642906 37.017969 -9.631188 37.064844 -9.623375 C 37.111719 -9.615563 37.189844 -9.603844 37.236719 -9.596031 C 37.283594 -9.588219 37.357813 -9.5765 37.408594 -9.568688 C 37.455469 -9.564781 37.529688 -9.553063 37.576563 -9.54525 C 37.623438 -9.537438 37.701563 -9.521813 37.748438 -9.514 C 37.795313 -9.506188 37.869531 -9.498375 37.916406 -9.490563 C 37.967188 -9.48275 38.041406 -9.471031 38.088281 -9.463219 C 38.135156 -9.455406 38.213281 -9.443688 38.260156 -9.435875 C 38.307031 -9.428063 38.38125 -9.416344 38.428125 -9.412438 C 38.475 -9.404625 38.553125 -9.392906 38.6 -9.385094 C 38.646875 -9.377281 38.721094 -9.365563 38.771875 -9.35775 C 38.81875 -9.349938 38.892969 -9.338219 38.939844 -9.330406 C 38.986719 -9.322594 39.064844 -9.310875 39.111719 -9.303063 C 39.158594 -9.299156 39.232813 -9.287438 39.279688 -9.279625 C 39.330469 -9.271813 39.404688 -9.260094 39.451563 -9.252281 C 39.498438 -9.244469 39.576563 -9.23275 39.623438 -9.224938 C 39.670313 -9.221031 39.744531 -9.209313 39.791406 -9.2015 C 39.838281 -9.193688 39.916406 -9.181969 39.963281 -9.174156 C 40.010156 -9.17025 40.084375 -9.158531 40.135156 -9.150719 C 40.182031 -9.142906 40.25625 -9.131188 40.303125 -9.123375 C 40.35 -9.115563 40.428125 -9.10775 40.475 -9.099938 C 40.521875 -9.092125 40.596094 -9.080406 40.642969 -9.072594 C 40.69375 -9.064781 40.767969 -9.053063 40.814844 -9.049156 C 40.861719 -9.041344 40.939844 -9.029625 40.986719 -9.021813 C 41.033594 -9.014 41.107813 -9.002281 41.154688 -8.994469 C 41.201563 -8.990563 41.279688 -8.978844 41.326563 -8.971031 C 41.373438 -8.963219 41.447656 -8.955406 41.498438 -8.947594 C 41.545313 -8.939781 41.619531 -8.928063 41.666406 -8.92025 C 41.713281 -8.916344 41.791406 -8.904625 41.838281 -8.896813 C 41.885156 -8.889 41.959375 -8.881188 42.00625 -8.873375 C 42.057031 -8.865563 42.13125 -8.853844 42.178125 -8.846031 C 42.225 -8.842125 42.303125 -8.830406 42.35 -8.822594 C 42.396875 -8.814781 42.517969 -8.799156 42.517969 -8.799156 " transform="matrix(1, 0, 0, -1, 53.15, 60.236)"/>
<g clip-path="url(#clip-0)">
<path fill="none" stroke-width="1.59404" stroke-linecap="butt" stroke-linejoin="miter" stroke="rgb(25%, 25%, 25%)" stroke-opacity="1" stroke-miterlimit="10" d="M -42.521094 35.6735 C -42.521094 35.6735 -42.396094 35.560219 -42.349219 35.478187 C -42.302344 35.396156 -42.228125 35.224281 -42.18125 35.091469 C -42.130469 34.958656 -42.05625 34.70475 -42.009375 34.51725 C -41.9625 34.333656 -41.884375 33.997719 -41.8375 33.763344 C -41.790625 33.528969 -41.716406 33.114906 -41.669531 32.833656 C -41.622656 32.5485 -41.544531 32.056312 -41.497656 31.728187 C -41.450781 31.396156 -41.372656 30.82975 -41.325781 30.458656 C -41.278906 30.083656 -41.204687 29.446937 -41.157812 29.032875 C -41.110937 28.614906 -41.032812 27.911781 -40.985937 27.458656 C -40.939062 27.001625 -40.864844 26.236 -40.814062 25.743812 C -40.767187 25.251625 -40.692969 24.427406 -40.646094 23.900062 C -40.599219 23.372719 -40.521094 22.497719 -40.474219 21.939125 C -40.427344 21.380531 -40.353125 20.458656 -40.30625 19.872719 C -40.259375 19.282875 -40.18125 18.321937 -40.134375 17.708656 C -40.0875 17.095375 -40.009375 16.095375 -39.9625 15.462562 C -39.915625 14.825844 -39.841406 13.794594 -39.794531 13.14225 C -39.747656 12.493812 -39.669531 11.431312 -39.622656 10.76725 C -39.575781 10.103187 -39.501562 9.025062 -39.450781 8.349281 C -39.403906 7.6735 -39.329687 6.57975 -39.282812 5.896156 C -39.235937 5.212562 -39.157812 4.111 -39.110937 3.427406 C -39.064062 2.739906 -38.989844 1.638344 -38.942969 0.950844 C -38.892187 0.26725 -38.817969 -0.830406 -38.771094 -1.510094 C -38.724219 -2.193688 -38.646094 -3.283531 -38.599219 -3.955406 C -38.552344 -4.627281 -38.478125 -5.7015 -38.43125 -6.365563 C -38.384375 -7.025719 -38.30625 -8.0765 -38.259375 -8.724938 C -38.2125 -9.369469 -38.138281 -10.396813 -38.0875 -11.025719 C -38.040625 -11.654625 -37.966406 -12.646813 -37.919531 -13.252281 C -37.872656 -13.861656 -37.794531 -14.814781 -37.747656 -15.396813 C -37.700781 -15.978844 -37.626562 -16.892906 -37.579687 -17.447594 C -37.528906 -18.002281 -37.454687 -18.869469 -37.407812 -19.392906 C -37.360937 -19.916344 -37.282812 -20.728844 -37.235937 -21.221031 C -37.189062 -21.709313 -37.114844 -22.471031 -37.067969 -22.924156 C -37.021094 -23.381188 -36.942969 -24.080406 -36.896094 -24.498375 C -36.849219 -24.912438 -36.775 -25.549156 -36.724219 -25.928063 C -36.677344 -26.303063 -36.603125 -26.873375 -36.55625 -27.209313 C -36.509375 -27.54525 -36.43125 -28.049156 -36.384375 -28.338219 C -36.3375 -28.631188 -36.263281 -29.064781 -36.216406 -29.310875 C -36.165625 -29.556969 -36.091406 -29.916344 -36.044531 -30.115563 C -35.997656 -30.318688 -35.919531 -30.603844 -35.872656 -30.756188 C -35.825781 -30.912438 -35.751562 -31.119469 -35.704687 -31.228844 C -35.657812 -31.334313 -35.579687 -31.467125 -35.532812 -31.529625 C -35.485937 -31.588219 -35.411719 -31.646813 -35.360937 -31.658531 C -35.314062 -31.67025 -35.239844 -31.650719 -35.192969 -31.615563 C -35.146094 -31.580406 -35.067969 -31.486656 -35.021094 -31.404625 C -34.974219 -31.318688 -34.9 -31.150719 -34.853125 -31.021813 C -34.802344 -30.892906 -34.728125 -30.650719 -34.68125 -30.478844 C -34.634375 -30.303063 -34.55625 -29.986656 -34.509375 -29.771813 C -34.4625 -29.553063 -34.388281 -29.17025 -34.341406 -28.908531 C -34.294531 -28.650719 -34.216406 -28.197594 -34.169531 -27.896813 C -34.122656 -27.592125 -34.044531 -27.0765 -33.997656 -26.736656 C -33.950781 -26.396813 -33.876562 -25.818688 -33.829687 -25.439781 C -33.782812 -25.064781 -33.704687 -24.428063 -33.657812 -24.017906 C -33.610937 -23.603844 -33.536719 -22.912438 -33.489844 -22.471031 C -33.439062 -22.025719 -33.364844 -21.283531 -33.317969 -20.810875 C -33.271094 -20.334313 -33.192969 -19.549156 -33.146094 -19.049156 C -33.099219 -18.54525 -33.025 -17.721031 -32.978125 -17.193688 C -32.93125 -16.666344 -32.853125 -15.803063 -32.80625 -15.256188 C -32.759375 -14.709313 -32.68125 -13.814781 -32.634375 -13.248375 C -32.5875 -12.681969 -32.513281 -11.760094 -32.466406 -11.181969 C -32.419531 -10.599938 -32.341406 -9.654625 -32.294531 -9.064781 C -32.247656 -8.471031 -32.173437 -7.510094 -32.122656 -6.908531 C -32.075781 -6.306969 -32.001562 -5.338219 -31.954687 -4.73275 C -31.907812 -4.123375 -31.829687 -3.146813 -31.782812 -2.537438 C -31.735937 -1.931969 -31.661719 -0.9515 -31.614844 -0.346031 C -31.567969 0.263344 -31.489844 1.236 -31.442969 1.837562 C -31.396094 2.439125 -31.317969 3.403969 -31.271094 3.997719 C -31.224219 4.595375 -31.15 5.540687 -31.103125 6.126625 C -31.05625 6.708656 -30.978125 7.638344 -30.93125 8.208656 C -30.884375 8.778969 -30.810156 9.681312 -30.759375 10.236 C -30.7125 10.790687 -30.638281 11.661781 -30.591406 12.196937 C -30.544531 12.728187 -30.466406 13.568031 -30.419531 14.07975 C -30.372656 14.591469 -30.298437 15.39225 -30.251562 15.876625 C -30.200781 16.361 -30.126562 17.118812 -30.079687 17.57975 C -30.032812 18.036781 -29.954687 18.747719 -29.907812 19.177406 C -29.860937 19.603187 -29.786719 20.26725 -29.739844 20.661781 C -29.692969 21.056312 -29.614844 21.665687 -29.567969 22.025062 C -29.521094 22.388344 -29.446875 22.943031 -29.396094 23.26725 C -29.349219 23.591469 -29.275 24.087562 -29.228125 24.372719 C -29.18125 24.661781 -29.103125 25.095375 -29.05625 25.345375 C -29.009375 25.591469 -28.935156 25.962562 -28.888281 26.169594 C -28.8375 26.380531 -28.763281 26.685219 -28.716406 26.853187 C -28.669531 27.025062 -28.591406 27.259437 -28.544531 27.388344 C -28.497656 27.51725 -28.423437 27.685219 -28.376562 27.771156 C -28.329687 27.857094 -28.251562 27.958656 -28.204687 28.001625 C -28.157812 28.044594 -28.083594 28.07975 -28.032812 28.083656 C -27.985937 28.083656 -27.911719 28.052406 -27.864844 28.009437 C -27.817969 27.970375 -27.739844 27.868812 -27.692969 27.786781 C -27.646094 27.70475 -27.571875 27.540687 -27.525 27.415687 C -27.474219 27.294594 -27.4 27.064125 -27.353125 26.900062 C -27.30625 26.736 -27.228125 26.443031 -27.18125 26.243812 C -27.134375 26.040687 -27.060156 25.685219 -27.013281 25.446937 C -26.966406 25.208656 -26.888281 24.790687 -26.841406 24.51725 C -26.794531 24.239906 -26.720312 23.771156 -26.669531 23.462562 C -26.622656 23.150062 -26.548437 22.626625 -26.501562 22.286781 C -26.454687 21.943031 -26.376562 21.368812 -26.329687 20.997719 C -26.282812 20.622719 -26.208594 20.001625 -26.161719 19.603187 C -26.110937 19.200844 -26.036719 18.536781 -25.989844 18.107094 C -25.942969 17.681312 -25.864844 16.978187 -25.817969 16.525062 C -25.771094 16.075844 -25.696875 15.333656 -25.65 14.864906 C -25.603125 14.39225 -25.525 13.618812 -25.478125 13.130531 C -25.43125 12.64225 -25.353125 11.841469 -25.30625 11.337562 C -25.259375 10.833656 -25.185156 10.009437 -25.138281 9.489906 C -25.091406 8.974281 -25.013281 8.134437 -24.966406 7.607094 C -24.919531 7.07975 -24.845312 6.224281 -24.798437 5.689125 C -24.747656 5.153969 -24.673437 4.290687 -24.626562 3.751625 C -24.579687 3.212562 -24.501562 2.345375 -24.454687 1.806312 C -24.407812 1.26725 -24.333594 0.400062 -24.286719 -0.135094 C -24.239844 -0.674156 -24.161719 -1.537438 -24.114844 -2.068688 C -24.067969 -2.603844 -23.989844 -3.455406 -23.942969 -3.978844 C -23.896094 -4.506188 -23.821875 -5.342125 -23.775 -5.85775 C -23.728125 -6.373375 -23.65 -7.193688 -23.603125 -7.693688 C -23.55625 -8.197594 -23.482031 -8.994469 -23.43125 -9.478844 C -23.384375 -9.967125 -23.310156 -10.736656 -23.263281 -11.205406 C -23.216406 -11.674156 -23.138281 -12.408531 -23.091406 -12.85775 C -23.044531 -13.306969 -22.970312 -14.010094 -22.923437 -14.431969 C -22.876562 -14.85775 -22.798437 -15.521813 -22.751562 -15.92025 C -22.704687 -16.322594 -22.626562 -16.943688 -22.579687 -17.318688 C -22.532812 -17.689781 -22.458594 -18.267906 -22.411719 -18.611656 C -22.364844 -18.955406 -22.286719 -19.48275 -22.239844 -19.799156 C -22.192969 -20.111656 -22.11875 -20.588219 -22.067969 -20.869469 C -22.021094 -21.150719 -21.946875 -21.5765 -21.9 -21.8265 C -21.853125 -22.072594 -21.775 -22.443688 -21.728125 -22.654625 C -21.68125 -22.869469 -21.607031 -23.181969 -21.560156 -23.361656 C -21.509375 -23.537438 -21.435156 -23.79525 -21.388281 -23.935875 C -21.341406 -24.080406 -21.263281 -24.275719 -21.216406 -24.381188 C -21.169531 -24.486656 -21.095312 -24.623375 -21.048437 -24.689781 C -21.001562 -24.756188 -20.923437 -24.834313 -20.876562 -24.865563 C -20.829687 -24.892906 -20.755469 -24.912438 -20.704687 -24.904625 C -20.657812 -24.896813 -20.583594 -24.853844 -20.536719 -24.810875 C -20.489844 -24.764 -20.411719 -24.666344 -20.364844 -24.584313 C -20.317969 -24.502281 -20.24375 -24.342125 -20.196875 -24.224938 C -20.146094 -24.103844 -20.071875 -23.889 -20.025 -23.736656 C -19.978125 -23.584313 -19.9 -23.310875 -19.853125 -23.123375 C -19.80625 -22.939781 -19.732031 -22.611656 -19.685156 -22.392906 C -19.638281 -22.17025 -19.560156 -21.791344 -19.513281 -21.541344 C -19.466406 -21.291344 -19.392187 -20.861656 -19.341406 -20.580406 C -19.294531 -20.299156 -19.220312 -19.822594 -19.173437 -19.514 C -19.126562 -19.205406 -19.048437 -18.681969 -19.001562 -18.346031 C -18.954687 -18.010094 -18.880469 -17.4515 -18.833594 -17.092125 C -18.782812 -16.728844 -18.708594 -16.131188 -18.661719 -15.748375 C -18.614844 -15.365563 -18.536719 -14.73275 -18.489844 -14.3265 C -18.442969 -13.924156 -18.36875 -13.260094 -18.321875 -12.838219 C -18.275 -12.416344 -18.196875 -11.724938 -18.15 -11.287438 C -18.103125 -10.849938 -18.028906 -10.135094 -17.978125 -9.685875 C -17.93125 -9.23275 -17.857031 -8.502281 -17.810156 -8.041344 C -17.763281 -7.5765 -17.685156 -6.830406 -17.638281 -6.361656 C -17.591406 -5.889 -17.517187 -5.131188 -17.470312 -4.654625 C -17.419531 -4.181969 -17.345312 -3.412438 -17.298437 -2.935875 C -17.251562 -2.455406 -17.173437 -1.685875 -17.126562 -1.209313 C -17.079687 -0.73275 -17.005469 0.0367812 -16.958594 0.513344 C -16.911719 0.989906 -16.833594 1.751625 -16.786719 2.224281 C -16.739844 2.693031 -16.661719 3.446937 -16.614844 3.911781 C -16.567969 4.376625 -16.49375 5.114906 -16.446875 5.571937 C -16.4 6.025062 -16.321875 6.747719 -16.275 7.189125 C -16.228125 7.634437 -16.153906 8.333656 -16.107031 8.763344 C -16.05625 9.189125 -15.982031 9.864906 -15.935156 10.278969 C -15.888281 10.689125 -15.810156 11.337562 -15.763281 11.728187 C -15.716406 12.122719 -15.642187 12.736 -15.595312 13.111 C -15.548437 13.482094 -15.470312 14.064125 -15.423437 14.411781 C -15.376562 14.759437 -15.298437 15.302406 -15.251562 15.630531 C -15.204687 15.95475 -15.130469 16.45475 -15.083594 16.755531 C -15.036719 17.052406 -14.958594 17.513344 -14.911719 17.782875 C -14.864844 18.056312 -14.790625 18.470375 -14.739844 18.712562 C -14.692969 18.95475 -14.61875 19.321937 -14.571875 19.536781 C -14.525 19.747719 -14.446875 20.064125 -14.4 20.247719 C -14.353125 20.427406 -14.278906 20.696937 -14.232031 20.845375 C -14.18125 20.997719 -14.107031 21.212562 -14.060156 21.32975 C -14.013281 21.446937 -13.935156 21.611 -13.888281 21.696937 C -13.841406 21.782875 -13.767187 21.89225 -13.720312 21.943031 C -13.673437 21.993812 -13.595312 22.052406 -13.548437 22.071937 C -13.501562 22.091469 -13.427344 22.095375 -13.376562 22.07975 C -13.329687 22.064125 -13.255469 22.01725 -13.208594 21.970375 C -13.161719 21.9235 -13.083594 21.818031 -13.036719 21.739906 C -12.989844 21.661781 -12.915625 21.509437 -12.86875 21.396156 C -12.817969 21.282875 -12.74375 21.07975 -12.696875 20.939125 C -12.65 20.794594 -12.571875 20.540687 -12.525 20.368812 C -12.478125 20.196937 -12.403906 19.896156 -12.357031 19.696937 C -12.310156 19.493812 -12.232031 19.150062 -12.185156 18.919594 C -12.138281 18.689125 -12.064062 18.302406 -12.013281 18.044594 C -11.966406 17.790687 -11.892187 17.357094 -11.845312 17.07975 C -11.798437 16.7985 -11.720312 16.32975 -11.673437 16.025062 C -11.626562 15.720375 -11.552344 15.216469 -11.505469 14.89225 C -11.454687 14.568031 -11.380469 14.028969 -11.333594 13.685219 C -11.286719 13.341469 -11.208594 12.771156 -11.161719 12.411781 C -11.114844 12.0485 -11.040625 11.45475 -10.99375 11.075844 C -10.946875 10.700844 -10.86875 10.07975 -10.821875 9.689125 C -10.775 9.2985 -10.700781 8.661781 -10.65 8.259437 C -10.603125 7.857094 -10.528906 7.20475 -10.482031 6.794594 C -10.435156 6.380531 -10.357031 5.716469 -10.310156 5.2985 C -10.263281 4.880531 -10.189062 4.20475 -10.142187 3.782875 C -10.091406 3.361 -10.017187 2.677406 -9.970312 2.255531 C -9.923437 1.82975 -9.845312 1.146156 -9.798437 0.724281 C -9.751562 0.2985 -9.677344 -0.381188 -9.630469 -0.803063 C -9.583594 -1.224938 -9.505469 -1.896813 -9.458594 -2.314781 C -9.411719 -2.73275 -9.3375 -3.396813 -9.286719 -3.806969 C -9.239844 -4.217125 -9.165625 -4.869469 -9.11875 -5.271813 C -9.071875 -5.674156 -8.99375 -6.310875 -8.946875 -6.7015 C -8.9 -7.088219 -8.825781 -7.705406 -8.778906 -8.080406 C -8.728125 -8.459313 -8.653906 -9.053063 -8.607031 -9.412438 C -8.560156 -9.775719 -8.482031 -10.342125 -8.435156 -10.689781 C -8.388281 -11.033531 -8.314062 -11.572594 -8.267187 -11.896813 C -8.220312 -12.221031 -8.142187 -12.728844 -8.095312 -13.033531 C -8.048437 -13.342125 -7.970312 -13.814781 -7.923437 -14.096031 C -7.876562 -14.381188 -7.802344 -14.814781 -7.755469 -15.0765 C -7.708594 -15.334313 -7.630469 -15.73275 -7.583594 -15.971031 C -7.536719 -16.205406 -7.4625 -16.560875 -7.415625 -16.771813 C -7.364844 -16.98275 -7.290625 -17.29525 -7.24375 -17.478844 C -7.196875 -17.662438 -7.11875 -17.931969 -7.071875 -18.088219 C -7.025 -18.244469 -6.950781 -18.471031 -6.903906 -18.596031 C -6.857031 -18.724938 -6.778906 -18.904625 -6.732031 -19.002281 C -6.685156 -19.099938 -6.607031 -19.23275 -6.560156 -19.303063 C -6.513281 -19.373375 -6.439062 -19.459313 -6.392187 -19.498375 C -6.345312 -19.537438 -6.267187 -19.5765 -6.220312 -19.588219 C -6.173437 -19.596031 -6.099219 -19.588219 -6.048437 -19.568688 C -6.001562 -19.549156 -5.927344 -19.494469 -5.880469 -19.447594 C -5.833594 -19.400719 -5.755469 -19.299156 -5.708594 -19.221031 C -5.661719 -19.146813 -5.5875 -18.998375 -5.540625 -18.892906 C -5.489844 -18.787438 -5.415625 -18.596031 -5.36875 -18.463219 C -5.321875 -18.330406 -5.24375 -18.096031 -5.196875 -17.939781 C -5.15 -17.779625 -5.075781 -17.502281 -5.028906 -17.318688 C -4.982031 -17.135094 -4.903906 -16.818688 -4.857031 -16.611656 C -4.810156 -16.400719 -4.735937 -16.049156 -4.685156 -15.814781 C -4.638281 -15.584313 -4.564062 -15.193688 -4.517187 -14.939781 C -4.470312 -14.685875 -4.392187 -14.264 -4.345312 -13.990563 C -4.298437 -13.717125 -4.224219 -13.260094 -4.177344 -12.971031 C -4.126562 -12.678063 -4.052344 -12.193688 -4.005469 -11.885094 C -3.958594 -11.5765 -3.880469 -11.064781 -3.833594 -10.740563 C -3.786719 -10.416344 -3.7125 -9.885094 -3.665625 -9.549156 C -3.61875 -9.209313 -3.540625 -8.658531 -3.49375 -8.306969 C -3.446875 -7.959313 -3.372656 -7.389 -3.321875 -7.033531 C -3.275 -6.674156 -3.200781 -6.092125 -3.153906 -5.724938 C -3.107031 -5.35775 -3.028906 -4.764 -2.982031 -4.392906 C -2.935156 -4.021813 -2.860937 -3.42025 -2.814062 -3.04525 C -2.763281 -2.67025 -2.689062 -2.064781 -2.642187 -1.689781 C -2.595312 -1.314781 -2.517187 -0.709313 -2.470312 -0.330406 C -2.423437 0.0445937 -2.349219 0.646156 -2.302344 1.01725 C -2.255469 1.39225 -2.177344 1.989906 -2.130469 2.357094 C -2.083594 2.728187 -2.009375 3.314125 -1.958594 3.677406 C -1.911719 4.036781 -1.8375 4.614906 -1.790625 4.966469 C -1.74375 5.321937 -1.665625 5.884437 -1.61875 6.224281 C -1.571875 6.568031 -1.497656 7.111 -1.450781 7.443031 C -1.4 7.775062 -1.325781 8.294594 -1.278906 8.611 C -1.232031 8.931312 -1.153906 9.427406 -1.107031 9.728187 C -1.060156 10.032875 -0.985937 10.501625 -0.939062 10.786781 C -0.892187 11.071937 -0.814062 11.51725 -0.767187 11.782875 C -0.720312 12.0485 -0.646094 12.462562 -0.595312 12.708656 C -0.548437 12.95475 -0.474219 13.333656 -0.427344 13.560219 C -0.380469 13.786781 -0.302344 14.130531 -0.255469 14.333656 C -0.208594 14.536781 -0.134375 14.845375 -0.0875 15.025062 C -0.0367187 15.20475 0.0375 15.478187 0.084375 15.634437 C 0.13125 15.790687 0.209375 16.021156 0.25625 16.153969 C 0.303125 16.286781 0.377344 16.478187 0.424219 16.583656 C 0.471094 16.689125 0.549219 16.841469 0.596094 16.9235 C 0.642969 17.001625 0.721094 17.111 0.767969 17.165687 C 0.814844 17.220375 0.889063 17.290687 0.935938 17.321937 C 0.982813 17.349281 1.060938 17.372719 1.107813 17.376625 C 1.154688 17.380531 1.228906 17.364906 1.275781 17.341469 C 1.326563 17.318031 1.400781 17.259437 1.447656 17.208656 C 1.494531 17.161781 1.572656 17.064125 1.619531 16.989906 C 1.666406 16.915687 1.740625 16.775062 1.7875 16.677406 C 1.834375 16.57975 1.9125 16.400062 1.959375 16.278969 C 2.00625 16.153969 2.084375 15.939125 2.13125 15.790687 C 2.178125 15.646156 2.252344 15.39225 2.299219 15.224281 C 2.346094 15.056312 2.424219 14.76725 2.471094 14.57975 C 2.517969 14.388344 2.592188 14.068031 2.642969 13.857094 C 2.689844 13.646156 2.764063 13.294594 2.810938 13.064125 C 2.857813 12.833656 2.935938 12.45475 2.982813 12.208656 C 3.029688 11.962562 3.103906 11.552406 3.150781 11.286781 C 3.201563 11.025062 3.275781 10.591469 3.322656 10.314125 C 3.369531 10.036781 3.447656 9.57975 3.494531 9.290687 C 3.541406 8.997719 3.615625 8.521156 3.6625 8.220375 C 3.709375 7.919594 3.7875 7.4235 3.834375 7.114906 C 3.88125 6.802406 3.955469 6.294594 4.00625 5.974281 C 4.053125 5.653969 4.127344 5.134437 4.174219 4.810219 C 4.221094 4.482094 4.299219 3.95475 4.346094 3.622719 C 4.392969 3.294594 4.467188 2.759437 4.514063 2.427406 C 4.564844 2.095375 4.639063 1.556312 4.685938 1.224281 C 4.732813 0.888344 4.810938 0.353187 4.857813 0.0211562 C 4.904688 -0.310875 4.978906 -0.846031 5.025781 -1.174156 C 5.072656 -1.506188 5.150781 -2.033531 5.197656 -2.361656 C 5.244531 -2.685875 5.31875 -3.205406 5.369531 -3.525719 C 5.416406 -3.842125 5.490625 -4.349938 5.5375 -4.662438 C 5.584375 -4.974938 5.6625 -5.467125 5.709375 -5.771813 C 5.75625 -6.072594 5.830469 -6.549156 5.877344 -6.842125 C 5.928125 -7.131188 6.002344 -7.592125 6.049219 -7.869469 C 6.096094 -8.146813 6.174219 -8.584313 6.221094 -8.846031 C 6.267969 -9.111656 6.342188 -9.525719 6.389063 -9.775719 C 6.435938 -10.021813 6.514063 -10.408531 6.560938 -10.642906 C 6.607813 -10.873375 6.682031 -11.236656 6.732813 -11.447594 C 6.779688 -11.662438 6.853906 -11.994469 6.900781 -12.189781 C 6.947656 -12.385094 7.025781 -12.681969 7.072656 -12.85775 C 7.119531 -13.033531 7.19375 -13.303063 7.240625 -13.455406 C 7.291406 -13.611656 7.365625 -13.846031 7.4125 -13.978844 C 7.459375 -14.111656 7.5375 -14.306969 7.584375 -14.42025 C 7.63125 -14.533531 7.705469 -14.693688 7.752344 -14.783531 C 7.799219 -14.873375 7.877344 -14.998375 7.924219 -15.064781 C 7.971094 -15.131188 8.045313 -15.221031 8.096094 -15.264 C 8.142969 -15.306969 8.217188 -15.361656 8.264063 -15.381188 C 8.310938 -15.400719 8.389063 -15.412438 8.435938 -15.412438 C 8.482813 -15.408531 8.557031 -15.385094 8.603906 -15.361656 C 8.654688 -15.334313 8.728906 -15.275719 8.775781 -15.228844 C 8.822656 -15.178063 8.900781 -15.084313 8.947656 -15.010094 C 8.994531 -14.939781 9.06875 -14.810875 9.115625 -14.717125 C 9.1625 -14.623375 9.240625 -14.459313 9.2875 -14.346031 C 9.334375 -14.23275 9.4125 -14.033531 9.459375 -13.896813 C 9.50625 -13.764 9.580469 -13.533531 9.627344 -13.377281 C 9.674219 -13.224938 9.752344 -12.963219 9.799219 -12.791344 C 9.846094 -12.615563 9.920313 -12.3265 9.967188 -12.135094 C 10.017969 -11.943688 10.092188 -11.623375 10.139063 -11.416344 C 10.185938 -11.213219 10.264063 -10.865563 10.310938 -10.646813 C 10.357813 -10.424156 10.432031 -10.053063 10.478906 -9.818688 C 10.525781 -9.584313 10.603906 -9.193688 10.650781 -8.943688 C 10.697656 -8.693688 10.775781 -8.287438 10.822656 -8.025719 C 10.869531 -7.767906 10.94375 -7.338219 10.990625 -7.068688 C 11.0375 -6.799156 11.115625 -6.35775 11.1625 -6.080406 C 11.209375 -5.803063 11.283594 -5.349938 11.334375 -5.064781 C 11.38125 -4.779625 11.455469 -4.318688 11.502344 -4.025719 C 11.549219 -3.736656 11.627344 -3.267906 11.674219 -2.974938 C 11.721094 -2.678063 11.795313 -2.205406 11.842188 -1.908531 C 11.892969 -1.615563 11.967188 -1.139 12.014063 -0.842125 C 12.060938 -0.54525 12.139063 -0.0686875 12.185938 0.224281 C 12.232813 0.521156 12.307031 0.989906 12.353906 1.282875 C 12.400781 1.575844 12.478906 2.040687 12.525781 2.32975 C 12.572656 2.618812 12.646875 3.075844 12.697656 3.357094 C 12.744531 3.64225 12.81875 4.087562 12.865625 4.361 C 12.9125 4.638344 12.990625 5.071937 13.0375 5.337562 C 13.084375 5.603187 13.158594 6.025062 13.205469 6.278969 C 13.25625 6.536781 13.330469 6.935219 13.377344 7.181312 C 13.424219 7.4235 13.502344 7.806312 13.549219 8.040687 C 13.596094 8.271156 13.670313 8.630531 13.717188 8.849281 C 13.764063 9.068031 13.842188 9.403969 13.889063 9.607094 C 13.935938 9.810219 14.010156 10.122719 14.060938 10.310219 C 14.107813 10.497719 14.182031 10.782875 14.228906 10.950844 C 14.275781 11.118812 14.353906 11.380531 14.400781 11.532875 C 14.447656 11.681312 14.521875 11.911781 14.56875 12.044594 C 14.619531 12.181312 14.69375 12.380531 14.740625 12.493812 C 14.7875 12.607094 14.865625 12.775062 14.9125 12.868812 C 14.959375 12.966469 15.033594 13.099281 15.080469 13.177406 C 15.127344 13.251625 15.205469 13.353187 15.252344 13.407875 C 15.299219 13.462562 15.373438 13.532875 15.424219 13.568031 C 15.471094 13.603187 15.545313 13.64225 15.592188 13.653969 C 15.639063 13.669594 15.717188 13.6735 15.764063 13.665687 C 15.810938 13.657875 15.885156 13.630531 15.932031 13.603187 C 15.982813 13.575844 16.057031 13.51725 16.103906 13.466469 C 16.150781 13.419594 16.228906 13.325844 16.275781 13.259437 C 16.322656 13.193031 16.396875 13.071937 16.44375 12.982094 C 16.490625 12.896156 16.56875 12.743812 16.615625 12.638344 C 16.6625 12.532875 16.736719 12.349281 16.7875 12.224281 C 16.834375 12.103187 16.908594 11.89225 16.955469 11.751625 C 17.002344 11.611 17.080469 11.372719 17.127344 11.216469 C 17.174219 11.060219 17.248438 10.794594 17.295313 10.622719 C 17.346094 10.450844 17.420313 10.161781 17.467188 9.974281 C 17.514063 9.790687 17.592188 9.478187 17.639063 9.278969 C 17.685938 9.07975 17.760156 8.747719 17.807031 8.536781 C 17.853906 8.321937 17.932031 7.974281 17.978906 7.751625 C 18.025781 7.528969 18.103906 7.161781 18.150781 6.927406 C 18.197656 6.693031 18.271875 6.314125 18.31875 6.071937 C 18.365625 5.82975 18.44375 5.439125 18.490625 5.189125 C 18.5375 4.939125 18.611719 4.536781 18.658594 4.282875 C 18.709375 4.028969 18.783594 3.618812 18.830469 3.361 C 18.877344 3.103187 18.955469 2.685219 19.002344 2.4235 C 19.049219 2.161781 19.123438 1.739906 19.170313 1.478187 C 19.217188 1.216469 19.295313 0.794594 19.342188 0.528969 C 19.389063 0.26725 19.467188 -0.154625 19.514063 -0.412438 C 19.560938 -0.674156 19.635156 -1.092125 19.682031 -1.349938 C 19.728906 -1.611656 19.807031 -2.021813 19.853906 -2.275719 C 19.900781 -2.529625 19.975 -2.935875 20.025781 -3.181969 C 20.072656 -3.431969 20.146875 -3.8265 20.19375 -4.068688 C 20.240625 -4.310875 20.31875 -4.693688 20.365625 -4.928063 C 20.4125 -5.162438 20.486719 -5.529625 20.533594 -5.756188 C 20.584375 -5.978844 20.658594 -6.330406 20.705469 -6.54525 C 20.752344 -6.760094 20.830469 -7.096031 20.877344 -7.299156 C 20.924219 -7.498375 20.998438 -7.814781 21.045313 -8.006188 C 21.092188 -8.197594 21.170313 -8.490563 21.217188 -8.666344 C 21.264063 -8.846031 21.338281 -9.115563 21.389063 -9.279625 C 21.435938 -9.439781 21.510156 -9.689781 21.557031 -9.834313 C 21.603906 -9.98275 21.682031 -10.205406 21.728906 -10.338219 C 21.775781 -10.467125 21.85 -10.666344 21.896875 -10.779625 C 21.947656 -10.892906 22.021875 -11.064781 22.06875 -11.162438 C 22.115625 -11.260094 22.19375 -11.400719 22.240625 -11.48275 C 22.2875 -11.560875 22.361719 -11.674156 22.408594 -11.736656 C 22.455469 -11.799156 22.533594 -11.885094 22.580469 -11.928063 C 22.627344 -11.974938 22.701563 -12.029625 22.752344 -12.056969 C 22.799219 -12.084313 22.873438 -12.111656 22.920313 -12.119469 C 22.967188 -12.127281 23.045313 -12.123375 23.092188 -12.111656 C 23.139063 -12.099938 23.213281 -12.068688 23.260156 -12.041344 C 23.310938 -12.014 23.385156 -11.955406 23.432031 -11.908531 C 23.478906 -11.861656 23.557031 -11.771813 23.603906 -11.709313 C 23.650781 -11.646813 23.725 -11.529625 23.771875 -11.4515 C 23.81875 -11.369469 23.896875 -11.228844 23.94375 -11.131188 C 23.990625 -11.033531 24.064844 -10.865563 24.115625 -10.752281 C 24.1625 -10.639 24.236719 -10.443688 24.283594 -10.318688 C 24.330469 -10.189781 24.408594 -9.974938 24.455469 -9.834313 C 24.502344 -9.689781 24.576563 -9.4515 24.623438 -9.29525 C 24.674219 -9.139 24.748438 -8.877281 24.795313 -8.709313 C 24.842188 -8.541344 24.920313 -8.260094 24.967188 -8.080406 C 25.014063 -7.900719 25.088281 -7.603844 25.135156 -7.412438 C 25.182031 -7.224938 25.260156 -6.908531 25.307031 -6.709313 C 25.353906 -6.510094 25.428125 -6.181969 25.478906 -5.974938 C 25.525781 -5.764 25.6 -5.424156 25.646875 -5.209313 C 25.69375 -4.994469 25.771875 -4.642906 25.81875 -4.42025 C 25.865625 -4.197594 25.939844 -3.838219 25.986719 -3.611656 C 26.0375 -3.389 26.111719 -3.021813 26.158594 -2.791344 C 26.205469 -2.560875 26.283594 -2.189781 26.330469 -1.959313 C 26.377344 -1.724938 26.451563 -1.349938 26.498438 -1.119469 C 26.545313 -0.885094 26.623438 -0.510094 26.670313 -0.279625 C 26.717188 -0.04525 26.795313 0.325844 26.842188 0.556312 C 26.889063 0.790687 26.963281 1.157875 27.010156 1.388344 C 27.057031 1.614906 27.135156 1.978187 27.182031 2.20475 C 27.228906 2.427406 27.303125 2.786781 27.353906 3.005531 C 27.400781 3.224281 27.475 3.571937 27.521875 3.786781 C 27.56875 3.997719 27.646875 4.333656 27.69375 4.540687 C 27.740625 4.747719 27.814844 5.071937 27.861719 5.26725 C 27.908594 5.462562 27.986719 5.775062 28.033594 5.962562 C 28.080469 6.150062 28.158594 6.443031 28.205469 6.618812 C 28.252344 6.794594 28.326563 7.071937 28.373438 7.239906 C 28.420313 7.403969 28.498438 7.661781 28.545313 7.814125 C 28.592188 7.966469 28.666406 8.20475 28.717188 8.345375 C 28.764063 8.486 28.838281 8.700844 28.885156 8.82975 C 28.932031 8.95475 29.010156 9.150062 29.057031 9.263344 C 29.103906 9.376625 29.178125 9.544594 29.225 9.64225 C 29.275781 9.739906 29.35 9.884437 29.396875 9.970375 C 29.44375 10.052406 29.521875 10.1735 29.56875 10.239906 C 29.615625 10.306312 29.689844 10.403969 29.736719 10.45475 C 29.783594 10.505531 29.861719 10.575844 29.908594 10.611 C 29.955469 10.646156 30.029688 10.689125 30.080469 10.708656 C 30.127344 10.728187 30.201563 10.747719 30.248438 10.751625 C 30.295313 10.755531 30.373438 10.747719 30.420313 10.732094 C 30.467188 10.720375 30.541406 10.685219 30.588281 10.657875 C 30.639063 10.630531 30.713281 10.571937 30.760156 10.525062 C 30.807031 10.482094 30.885156 10.396156 30.932031 10.337562 C 30.978906 10.278969 31.053125 10.169594 31.1 10.095375 C 31.146875 10.021156 31.225 9.888344 31.271875 9.7985 C 31.31875 9.712562 31.392969 9.556312 31.44375 9.45475 C 31.490625 9.349281 31.564844 9.1735 31.611719 9.056312 C 31.658594 8.939125 31.736719 8.743812 31.783594 8.614906 C 31.830469 8.486 31.904688 8.271156 31.951563 8.130531 C 32.002344 7.989906 32.076563 7.751625 32.123438 7.603187 C 32.170313 7.450844 32.248438 7.196937 32.295313 7.036781 C 32.342188 6.872719 32.416406 6.607094 32.463281 6.435219 C 32.510156 6.26725 32.588281 5.982094 32.635156 5.806312 C 32.682031 5.626625 32.75625 5.333656 32.807031 5.146156 C 32.853906 4.958656 32.928125 4.653969 32.975 4.462562 C 33.021875 4.271156 33.1 3.95475 33.146875 3.759437 C 33.19375 3.560219 33.267969 3.239906 33.314844 3.040687 C 33.365625 2.837562 33.439844 2.513344 33.486719 2.306312 C 33.533594 2.103187 33.611719 1.775062 33.658594 1.568031 C 33.705469 1.361 33.779688 1.028969 33.826563 0.821937 C 33.873438 0.614906 33.951563 0.282875 33.998438 0.0758437 C 34.045313 -0.127281 34.119531 -0.459313 34.170313 -0.662438 C 34.217188 -0.869469 34.291406 -1.193688 34.338281 -1.396813 C 34.385156 -1.599938 34.463281 -1.92025 34.510156 -2.119469 C 34.557031 -2.314781 34.63125 -2.631188 34.678125 -2.8265 C 34.728906 -3.017906 34.803125 -3.322594 34.85 -3.510094 C 34.896875 -3.697594 34.975 -3.994469 35.021875 -4.178063 C 35.06875 -4.35775 35.142969 -4.642906 35.189844 -4.814781 C 35.236719 -4.986656 35.314844 -5.260094 35.361719 -5.424156 C 35.408594 -5.588219 35.486719 -5.846031 35.533594 -5.998375 C 35.580469 -6.154625 35.654688 -6.392906 35.701563 -6.537438 C 35.748438 -6.681969 35.826563 -6.908531 35.873438 -7.041344 C 35.920313 -7.178063 35.994531 -7.381188 36.045313 -7.502281 C 36.092188 -7.627281 36.166406 -7.810875 36.213281 -7.924156 C 36.260156 -8.033531 36.338281 -8.197594 36.385156 -8.29525 C 36.432031 -8.392906 36.50625 -8.537438 36.553125 -8.623375 C 36.6 -8.705406 36.678125 -8.830406 36.725 -8.900719 C 36.771875 -8.971031 36.85 -9.072594 36.896875 -9.131188 C 36.94375 -9.185875 37.017969 -9.264 37.064844 -9.306969 C 37.111719 -9.349938 37.189844 -9.408531 37.236719 -9.435875 C 37.283594 -9.463219 37.357813 -9.498375 37.408594 -9.514 C 37.455469 -9.525719 37.529688 -9.537438 37.576563 -9.537438 C 37.623438 -9.537438 37.701563 -9.521813 37.748438 -9.510094 C 37.795313 -9.494469 37.869531 -9.459313 37.916406 -9.431969 C 37.967188 -9.404625 38.041406 -9.346031 38.088281 -9.303063 C 38.135156 -9.260094 38.213281 -9.178063 38.260156 -9.123375 C 38.307031 -9.068688 38.38125 -8.967125 38.428125 -8.900719 C 38.475 -8.830406 38.553125 -8.709313 38.6 -8.627281 C 38.646875 -8.54525 38.721094 -8.400719 38.771875 -8.306969 C 38.81875 -8.213219 38.892969 -8.053063 38.939844 -7.947594 C 38.986719 -7.842125 39.064844 -7.662438 39.111719 -7.54525 C 39.158594 -7.428063 39.232813 -7.23275 39.279688 -7.10775 C 39.330469 -6.978844 39.404688 -6.767906 39.451563 -6.631188 C 39.498438 -6.494469 39.576563 -6.267906 39.623438 -6.119469 C 39.670313 -5.974938 39.744531 -5.736656 39.791406 -5.584313 C 39.838281 -5.428063 39.916406 -5.178063 39.963281 -5.017906 C 40.010156 -4.85775 40.084375 -4.596031 40.135156 -4.428063 C 40.182031 -4.260094 40.25625 -3.986656 40.303125 -3.814781 C 40.35 -3.646813 40.428125 -3.365563 40.475 -3.189781 C 40.521875 -3.014 40.596094 -2.728844 40.642969 -2.549156 C 40.69375 -2.369469 40.767969 -2.080406 40.814844 -1.896813 C 40.861719 -1.717125 40.939844 -1.424156 40.986719 -1.240563 C 41.033594 -1.056969 41.107813 -0.760094 41.154688 -0.580406 C 41.201563 -0.396813 41.279688 -0.0999375 41.326563 0.07975 C 41.373438 0.263344 41.447656 0.556312 41.498438 0.736 C 41.545313 0.919594 41.619531 1.208656 41.666406 1.384437 C 41.713281 1.564125 41.791406 1.849281 41.838281 2.025062 C 41.885156 2.196937 41.959375 2.474281 42.00625 2.646156 C 42.057031 2.818031 42.13125 3.087562 42.178125 3.251625 C 42.225 3.415687 42.303125 3.677406 42.35 3.833656 C 42.396875 3.993812 42.517969 4.396156 42.517969 4.396156 " transform="matrix(1, 0, 0, -1, 53.15, 60.236)"/>
</g>
</svg>
