<?xml version="1.0" encoding="UTF-8"?>
<svg xmlns="http://www.w3.org/2000/svg" xmlns:xlink="http://www.w3.org/1999/xlink" width="113.386" height="113.386" viewBox="0 0 113.386 113.386">
<defs>
<clipPath id="clip-0">
<path clip-rule="nonzero" d="M 20 17 L 113.386719 17 L 113.386719 54 L 20 54 Z M 20 17 "/>
</clipPath>
<clipPath id="clip-1">
<path clip-rule="nonzero" d="M 70 17 L 113.386719 17 L 113.386719 83 L 70 83 Z M 70 17 "/>
</clipPath>
<clipPath id="clip-2">
<path clip-rule="nonzero" d="M 0 9 L 113.386719 9 L 113.386719 108 L 0 108 Z M 0 9 "/>
</clipPath>
</defs>
<g clip-path="url(#clip-0)">
<path fill="none" stroke-width="0.79701" stroke-linecap="butt" stroke-linejoin="miter" stroke="rgb(50%, 50%, 50%)" stroke-opacity="1" stroke-dasharray="2.49069 1.0959" stroke-miterlimit="10" d="M 21.260625 56.693469 L 92.127813 70.865344 " transform="matrix(1, 0, 0, -1, 10.63, 99.213)"/>
</g>
<g clip-path="url(#clip-1)">
<path fill="none" stroke-width="0.79701" stroke-linecap="butt" stroke-linejoin="miter" stroke="rgb(50%, 50%, 50%)" stroke-opacity="1" stroke-dasharray="2.49069 1.0959" stroke-miterlimit="10" d="M 70.866094 28.345812 L 92.127813 70.865344 " transform="matrix(1, 0, 0, -1, 10.63, 99.213)"/>
</g>
<path fill="none" stroke-width="1.59404" stroke-linecap="butt" stroke-linejoin="miter" stroke="rgb(50%, 50%, 50%)" stroke-opacity="1" stroke-miterlimit="10" d="M -0.00109375 14.173937 L 64.186406 27.009875 " transform="matrix(1, 0, 0, -1, 10.63, 99.213)"/>
<path fill-rule="nonzero" fill="rgb(50%, 50%, 50%)" fill-opacity="1" d="M 81.496094 70.867188 C 79.441406 70.890625 76.003906 70.421875 73.515625 69.566406 L 74.628906 75.136719 C 76.597656 73.390625 79.589844 71.632812 81.496094 70.867188 "/>
<path fill="none" stroke-width="1.59404" stroke-linecap="butt" stroke-linejoin="miter" stroke="rgb(25%, 25%, 25%)" stroke-opacity="1" stroke-miterlimit="10" d="M -0.00109375 14.173937 L 18.21375 50.599719 " transform="matrix(1, 0, 0, -1, 10.63, 99.213)"/>
<path fill-rule="nonzero" fill="rgb(25%, 25%, 25%)" fill-opacity="1" d="M 31.890625 42.519531 C 30.648438 44.15625 28.164062 46.582031 25.964844 48.023438 L 31.042969 50.5625 C 30.875 47.9375 31.324219 44.496094 31.890625 42.519531 "/>
<g clip-path="url(#clip-2)">
<path fill="none" stroke-width="1.59404" stroke-linecap="butt" stroke-linejoin="miter" stroke="rgb(0%, 0%, 0%)" stroke-opacity="1" stroke-miterlimit="10" d="M -0.00109375 14.173937 L 86.323125 67.295031 " transform="matrix(1, 0, 0, -1, 10.63, 99.213)"/>
</g>
<path fill-rule="nonzero" fill="rgb(0%, 0%, 0%)" fill-opacity="1" d="M 102.757812 28.347656 C 100.839844 29.082031 97.449219 29.835938 94.820312 29.894531 L 97.796875 34.730469 C 99.035156 32.414062 101.234375 29.726562 102.757812 28.347656 "/>
</svg>
