<?xml version="1.0" encoding="UTF-8"?>
<svg xmlns="http://www.w3.org/2000/svg" xmlns:xlink="http://www.w3.org/1999/xlink" width="113.386" height="113.386" viewBox="0 0 113.386 113.386">
<defs>
<clipPath id="clip-0">
<path clip-rule="nonzero" d="M 0 0 L 112 0 L 112 113.386719 L 0 113.386719 Z M 0 0 "/>
</clipPath>
</defs>
<g clip-path="url(#clip-0)">
<path fill="none" stroke-width="2.98883" stroke-linecap="butt" stroke-linejoin="miter" stroke="rgb(25%, 25%, 25%)" stroke-opacity="1" stroke-miterlimit="10" d="M 145.834812 -23.660313 C 145.834812 -23.660313 147.787937 -22.511875 148.506687 -22.05875 C 149.23325 -21.605625 150.350437 -20.863438 151.022312 -20.394688 C 151.694187 -19.918125 152.73325 -19.144688 153.35825 -18.660313 C 153.98325 -18.168125 154.944187 -17.363438 155.5145 -16.863438 C 156.092625 -16.355625 156.967625 -15.5275 157.48325 -15.004063 C 158.006687 -14.488438 158.79575 -13.636875 159.2645 -13.097813 C 159.725437 -12.566563 160.428562 -11.699375 160.842625 -11.1525 C 161.248875 -10.597813 161.866062 -9.715 162.217625 -9.160313 C 162.569187 -8.597813 163.084812 -7.699375 163.381687 -7.129063 C 163.67075 -6.55875 164.100437 -5.644688 164.334812 -5.074375 C 164.569187 -4.49625 164.897312 -3.574375 165.069187 -2.99625 C 165.241062 -2.410313 165.475437 -1.480625 165.592625 -0.894688 C 165.702 -0.30875 165.834812 0.62875 165.8895 1.214687 C 165.944187 1.800625 165.975437 2.738125 165.967625 3.331875 C 165.959812 3.917812 165.897312 4.855312 165.827 5.44125 C 165.756687 6.027187 165.600437 6.964687 165.467625 7.550625 C 165.334812 8.12875 165.077 9.058437 164.8895 9.636562 C 164.694187 10.214687 164.342625 11.144375 164.092625 11.714687 C 163.834812 12.285 163.3895 13.199062 163.077 13.761562 C 162.7645 14.331875 162.225437 15.230312 161.85825 15.785 C 161.491062 16.339687 160.850437 17.2225 160.42075 17.761562 C 159.998875 18.308437 159.272312 19.167812 158.787937 19.706875 C 158.311375 20.238125 157.491062 21.074062 156.959812 21.5975 C 156.42075 22.113125 155.522312 22.933437 154.936375 23.433437 C 154.350437 23.933437 153.366062 24.730312 152.725437 25.214687 C 152.092625 25.699062 151.030125 26.464687 150.342625 26.933437 C 149.655125 27.394375 148.5145 28.12875 147.780125 28.581875 C 147.053562 29.027187 145.842625 29.730312 145.069187 30.152187 C 144.287937 30.581875 143.0145 31.245937 142.194187 31.652187 C 141.373875 32.058437 140.030125 32.69125 139.178562 33.074062 C 138.319187 33.456875 136.912937 34.042812 136.022312 34.402187 C 135.131687 34.761562 133.678562 35.31625 132.748875 35.644375 C 131.827 35.980312 130.311375 36.495937 129.35825 36.800625 C 128.405125 37.105312 126.850437 37.574062 125.866062 37.855312 C 124.881687 38.136562 123.287937 38.56625 122.280125 38.81625 C 121.272312 39.06625 119.6395 39.449062 118.616062 39.675625 C 117.584812 39.902187 115.928562 40.238125 114.881687 40.433437 C 113.834812 40.62875 112.147312 40.917812 111.084812 41.089687 C 110.030125 41.25375 108.319187 41.495937 107.256687 41.636562 C 106.186375 41.769375 104.459812 41.9725 103.3895 42.074062 C 102.311375 42.183437 100.577 42.331875 99.498875 42.41 C 98.42075 42.488125 96.686375 42.589687 95.600437 42.636562 C 94.522312 42.69125 92.787937 42.738125 91.717625 42.761562 C 90.6395 42.777187 88.912937 42.785 87.842625 42.777187 C 86.772312 42.761562 85.061375 42.7225 83.998875 42.683437 C 82.936375 42.644375 81.248875 42.550625 80.202 42.480312 C 79.155125 42.41 77.491062 42.277187 76.459812 42.183437 C 75.428562 42.081875 73.787937 41.902187 72.780125 41.777187 C 71.7645 41.652187 70.162937 41.425625 69.178562 41.269375 C 68.194187 41.120937 66.631687 40.8475 65.67075 40.667812 C 64.709812 40.488125 63.194187 40.175625 62.2645 39.964687 C 61.334812 39.761562 59.866062 39.41 58.967625 39.175625 C 58.069187 38.949062 56.655125 38.558437 55.787937 38.300625 C 54.928562 38.042812 53.577 37.613125 52.748875 37.331875 C 51.928562 37.050625 50.6395 36.581875 49.85825 36.285 C 49.069187 35.980312 47.850437 35.480312 47.10825 35.16 C 46.373875 34.839687 45.217625 34.300625 44.522312 33.964687 C 43.827 33.620937 42.756687 33.050625 42.10825 32.69125 C 41.467625 32.331875 40.467625 31.738125 39.873875 31.363125 C 39.280125 30.980312 38.35825 30.363125 37.819187 29.9725 C 37.272312 29.574062 36.444187 28.933437 35.952 28.527187 C 35.459812 28.113125 34.725437 27.449062 34.287937 27.027187 C 33.850437 26.605312 33.202 25.925625 32.819187 25.488125 C 32.444187 25.058437 31.881688 24.355312 31.561375 23.917812 C 31.241063 23.4725 30.772313 22.761562 30.5145 22.308437 C 30.256688 21.863125 29.881688 21.136562 29.686375 20.675625 C 29.48325 20.2225 29.209813 19.488125 29.069188 19.027187 C 28.928563 18.56625 28.748875 17.824062 28.67075 17.355312 C 28.584813 16.894375 28.506688 16.152187 28.491063 15.683437 C 28.467625 15.2225 28.491063 14.4725 28.530125 14.011562 C 28.577 13.542812 28.694188 12.800625 28.79575 12.339687 C 28.897313 11.870937 29.116063 11.12875 29.280125 10.675625 C 29.444188 10.214687 29.756688 9.480312 29.975438 9.027187 C 30.202 8.574062 30.60825 7.855312 30.897313 7.402187 C 31.178563 6.956875 31.686375 6.245937 32.030125 5.808437 C 32.366062 5.370937 32.967625 4.675625 33.366062 4.245937 C 33.7645 3.824062 34.452 3.144375 34.905125 2.730312 C 35.366062 2.308437 36.1395 1.652187 36.655125 1.25375 C 37.162937 0.8475 38.030125 0.214687 38.592625 -0.175938 C 39.155125 -0.55875 40.10825 -1.168125 40.717625 -1.543125 C 41.334812 -1.910313 42.35825 -2.49625 43.022312 -2.847813 C 43.686375 -3.207188 44.79575 -3.754063 45.506687 -4.09 C 46.217625 -4.425938 47.397312 -4.949375 48.155125 -5.261875 C 48.912937 -5.574375 50.162937 -6.066563 50.959812 -6.355625 C 51.756687 -6.6525 53.077 -7.105625 53.912937 -7.37125 C 54.756687 -7.644688 56.131687 -8.05875 57.006687 -8.30875 C 57.881687 -8.550938 59.319187 -8.93375 60.23325 -9.1525 C 61.1395 -9.37125 62.631687 -9.707188 63.569187 -9.910313 C 64.5145 -10.105625 66.053562 -10.4025 67.022312 -10.574375 C 67.991062 -10.738438 69.569187 -10.988438 70.569187 -11.136875 C 71.561375 -11.2775 73.178562 -11.488438 74.202 -11.597813 C 75.217625 -11.715 76.866062 -11.879063 77.905125 -11.965 C 78.936375 -12.050938 80.616062 -12.168125 81.67075 -12.230625 C 82.725437 -12.285313 84.42075 -12.355625 85.48325 -12.386875 C 86.553562 -12.418125 88.2645 -12.441563 89.342625 -12.43375 C 90.412937 -12.43375 92.147312 -12.410313 93.225437 -12.379063 C 94.303562 -12.355625 96.037937 -12.2775 97.116062 -12.222813 C 98.194187 -12.160313 99.928562 -12.043125 101.006687 -11.949375 C 102.084812 -11.863438 103.819187 -11.691563 104.8895 -11.574375 C 105.959812 -11.457188 107.678562 -11.238438 108.748875 -11.09 C 109.811375 -10.941563 111.5145 -10.68375 112.569187 -10.504063 C 113.616062 -10.324375 115.29575 -10.011875 116.334812 -9.80875 C 117.373875 -9.597813 119.030125 -9.24625 120.04575 -9.011875 C 121.061375 -8.7775 122.686375 -8.37125 123.678562 -8.113438 C 124.678562 -7.847813 126.256687 -7.4025 127.23325 -7.113438 C 128.202 -6.824375 129.741062 -6.34 130.686375 -6.019688 C 131.631687 -5.707188 133.123875 -5.175938 134.030125 -4.832188 C 134.944187 -4.488438 136.381687 -3.918125 137.2645 -3.550938 C 138.1395 -3.18375 139.522312 -2.582188 140.366062 -2.191563 C 141.209812 -1.800938 142.522312 -1.1525 143.327 -0.738438 C 144.131687 -0.324375 145.381687 0.355312 146.1395 0.792812 C 146.897312 1.2225 148.084812 1.94125 148.79575 2.394375 C 149.5145 2.8475 150.623875 3.5975 151.287937 4.074062 C 151.959812 4.542812 152.991062 5.324062 153.60825 5.808437 C 154.225437 6.300625 155.178562 7.105312 155.741062 7.613125 C 156.311375 8.120937 157.178562 8.956875 157.694187 9.4725 C 158.202 9.995937 158.991062 10.8475 159.444187 11.386562 C 159.905125 11.925625 160.600437 12.792812 161.006687 13.3475 C 161.405125 13.894375 162.006687 14.785 162.350437 15.339687 C 162.702 15.902187 163.209812 16.800625 163.498875 17.370937 C 163.780125 17.94125 164.194187 18.855312 164.428562 19.433437 C 164.655125 20.00375 164.967625 20.933437 165.1395 21.511562 C 165.303562 22.089687 165.522312 23.027187 165.631687 23.613125 C 165.741062 24.199062 165.866062 25.136562 165.905125 25.7225 C 165.952 26.308437 165.98325 27.245937 165.967625 27.831875 C 165.952 28.425625 165.873875 29.363125 165.803562 29.949062 C 165.725437 30.535 165.553562 31.4725 165.412937 32.050625 C 165.280125 32.636562 165.006687 33.56625 164.811375 34.144375 C 164.60825 34.7225 164.248875 35.644375 163.991062 36.214687 C 163.73325 36.785 163.272312 37.699062 162.952 38.261562 C 162.6395 38.824062 162.084812 39.7225 161.709812 40.277187 C 161.334812 40.831875 160.686375 41.714687 160.256687 42.25375 C 159.819187 42.800625 159.084812 43.66 158.600437 44.19125 C 158.10825 44.7225 157.287937 45.558437 156.748875 46.074062 C 156.202 46.589687 155.29575 47.41 154.702 47.91 C 154.10825 48.41 153.116062 49.199062 152.475437 49.683437 C 151.827 50.16 150.756687 50.925625 150.069187 51.386562 C 149.373875 51.855312 148.23325 52.589687 147.491062 53.035 C 146.756687 53.480312 145.537937 54.175625 144.756687 54.5975 C 143.975437 55.019375 142.686375 55.683437 141.866062 56.089687 C 141.04575 56.488125 139.694187 57.120937 138.834812 57.495937 C 137.975437 57.87875 136.569187 58.464687 135.67075 58.824062 C 134.772312 59.175625 133.311375 59.7225 132.381687 60.050625 C 131.452 60.386562 129.936375 60.894375 128.975437 61.19125 C 128.022312 61.495937 126.459812 61.964687 125.475437 62.238125 C 124.491062 62.519375 122.8895 62.94125 121.881687 63.19125 C 120.873875 63.44125 119.23325 63.81625 118.209812 64.035 C 117.178562 64.261562 115.5145 64.589687 114.467625 64.785 C 113.42075 64.980312 111.725437 65.261562 110.67075 65.425625 C 109.60825 65.589687 107.897312 65.831875 106.827 65.964687 C 105.756687 66.0975 104.037937 66.292812 102.959812 66.394375 C 101.881687 66.495937 100.147312 66.644375 99.069187 66.714687 C 97.991062 66.792812 96.256687 66.886562 95.178562 66.933437 C 94.092625 66.980312 92.366062 67.027187 91.287937 67.042812 C 90.209812 67.058437 88.491062 67.058437 87.42075 67.042812 C 86.350437 67.027187 84.6395 66.980312 83.577 66.94125 C 82.522312 66.894375 80.834812 66.800625 79.787937 66.730312 C 78.741062 66.66 77.077 66.519375 76.04575 66.417812 C 75.022312 66.31625 73.3895 66.12875 72.381687 65.995937 C 71.373875 65.870937 69.772312 65.636562 68.787937 65.480312 C 67.803562 65.324062 66.248875 65.050625 65.287937 64.870937 C 64.334812 64.683437 62.819187 64.370937 61.8895 64.16 C 60.967625 63.949062 59.506687 63.5975 58.60825 63.363125 C 57.717625 63.12875 56.311375 62.730312 55.452 62.4725 C 54.592625 62.214687 53.248875 61.777187 52.428562 61.495937 C 51.60825 61.214687 50.319187 60.745937 49.54575 60.44125 C 48.7645 60.136562 47.553562 59.62875 46.819187 59.308437 C 46.084812 58.980312 44.944187 58.44125 44.248875 58.0975 C 43.561375 57.75375 42.498875 57.183437 41.85825 56.824062 C 41.217625 56.464687 40.225437 55.863125 39.631687 55.488125 C 39.04575 55.105312 38.1395 54.480312 37.600437 54.089687 C 37.069187 53.69125 36.248875 53.042812 35.7645 52.636562 C 35.280125 52.230312 34.54575 51.558437 34.116062 51.136562 C 33.686375 50.714687 33.04575 50.027187 32.67075 49.5975 C 32.303562 49.16 31.748875 48.456875 31.436375 48.019375 C 31.123875 47.574062 30.67075 46.855312 30.412938 46.41 C 30.162938 45.956875 29.79575 45.230312 29.600438 44.769375 C 29.412938 44.31625 29.147313 43.581875 29.0145 43.120937 C 28.873875 42.66 28.709813 41.91 28.6395 41.449062 C 28.561375 40.988125 28.498875 40.238125 28.48325 39.777187 C 28.475438 39.308437 28.506688 38.56625 28.553563 38.0975 C 28.600438 37.636562 28.725438 36.886562 28.834813 36.425625 C 28.952 35.964687 29.17075 35.2225 29.342625 34.769375 C 29.5145 34.308437 29.842625 33.574062 30.069188 33.120937 C 30.303563 32.667812 30.717625 31.949062 31.0145 31.50375 C 31.303563 31.058437 31.819188 30.3475 32.162937 29.91 C 32.5145 29.4725 33.116062 28.777187 33.522312 28.355312 C 33.928562 27.925625 34.631687 27.25375 35.092625 26.839687 C 35.553562 26.425625 36.342625 25.769375 36.85825 25.370937 C 37.373875 24.964687 38.248875 24.331875 38.819187 23.949062 C 39.3895 23.558437 40.342625 22.956875 40.959812 22.581875 C 41.584812 22.214687 42.623875 21.636562 43.29575 21.285 C 43.959812 20.933437 45.077 20.386562 45.79575 20.050625 C 46.5145 19.7225 47.694187 19.199062 48.459812 18.886562 C 49.217625 18.574062 50.475437 18.089687 51.280125 17.800625 C 52.084812 17.511562 53.405125 17.058437 54.248875 16.792812 C 55.092625 16.527187 56.475437 16.113125 57.35825 15.870937 C 58.23325 15.62875 59.678562 15.25375 60.592625 15.035 C 61.506687 14.81625 62.998875 14.480312 63.944187 14.285 C 64.8895 14.0975 66.428562 13.808437 67.405125 13.636562 C 68.381687 13.4725 69.967625 13.2225 70.959812 13.081875 C 71.959812 12.94125 73.577 12.738125 74.600437 12.62875 C 75.623875 12.511562 77.272312 12.355312 78.311375 12.277187 C 79.350437 12.19125 81.037937 12.074062 82.084812 12.019375 C 83.1395 11.964687 84.842625 11.902187 85.912937 11.87875 C 86.975437 11.855312 88.694187 11.831875 89.7645 11.839687 C 90.842625 11.839687 92.569187 11.870937 93.647312 11.902187 C 94.73325 11.933437 96.459812 12.011562 97.54575 12.074062 C 98.623875 12.144375 100.35825 12.269375 101.436375 12.363125 C 102.5145 12.449062 104.241062 12.62875 105.319187 12.745937 C 106.3895 12.870937 108.10825 13.089687 109.17075 13.245937 C 110.23325 13.394375 111.928562 13.66 112.98325 13.8475 C 114.037937 14.027187 115.709812 14.339687 116.748875 14.550625 C 117.780125 14.761562 119.428562 15.120937 120.452 15.355312 C 121.467625 15.5975 123.084812 16.00375 124.077 16.269375 C 125.069187 16.535 126.647312 16.980312 127.616062 17.277187 C 128.584812 17.56625 130.116062 18.058437 131.061375 18.37875 C 131.998875 18.699062 133.48325 19.230312 134.397312 19.581875 C 135.303562 19.925625 136.73325 20.495937 137.60825 20.863125 C 138.48325 21.238125 139.85825 21.8475 140.694187 22.245937 C 141.530125 22.636562 142.842625 23.285 143.6395 23.699062 C 144.436375 24.113125 145.686375 24.800625 146.436375 25.238125 C 147.194187 25.675625 148.373875 26.394375 149.077 26.8475 C 149.787937 27.308437 150.8895 28.058437 151.553562 28.535 C 152.217625 29.011562 153.23325 29.785 153.850437 30.285 C 154.459812 30.777187 155.405125 31.581875 155.967625 32.089687 C 156.530125 32.605312 157.3895 33.433437 157.897312 33.956875 C 158.405125 34.480312 159.178562 35.339687 159.631687 35.870937 C 160.084812 36.41 160.7645 37.285 161.162937 37.839687 C 161.561375 38.386562 162.147312 39.277187 162.491062 39.839687 C 162.827 40.394375 163.327 41.300625 163.60825 41.870937 C 163.8895 42.44125 164.29575 43.355312 164.5145 43.933437 C 164.73325 44.511562 165.037937 45.433437 165.202 46.019375 C 165.366062 46.5975 165.577 47.535 165.67075 48.120937 C 165.772312 48.699062 165.8895 49.644375 165.928562 50.230312 C 165.967625 50.81625 165.975437 51.75375 165.959812 52.339687 C 165.936375 52.925625 165.850437 53.870937 165.7645 54.456875 C 165.686375 55.042812 165.498875 55.9725 165.35825 56.558437 C 165.217625 57.136562 164.936375 58.074062 164.73325 58.652187 C 164.530125 59.2225 164.147312 60.144375 163.8895 60.714687 C 163.623875 61.285 163.147312 62.199062 162.827 62.761562 C 162.498875 63.324062 161.936375 64.214687 161.553562 64.769375 C 161.178562 65.324062 160.522312 66.199062 160.084812 66.745937 C 159.647312 67.285 158.897312 68.144375 158.405125 68.675625 C 157.912937 69.199062 157.077 70.042812 156.530125 70.550625 C 155.98325 71.06625 155.061375 71.87875 154.467625 72.37875 C 153.866062 72.87875 152.866062 73.667812 152.217625 74.144375 C 151.569187 74.62875 150.491062 75.386562 149.79575 75.8475 C 149.092625 76.308437 147.936375 77.035 147.202 77.480312 C 146.459812 77.925625 145.23325 78.620937 144.444187 79.042812 C 143.662937 79.464687 142.366062 80.120937 141.54575 80.519375 C 140.717625 80.917812 139.35825 81.542812 138.491062 81.917812 C 137.631687 82.300625 136.209812 82.87875 135.311375 83.230312 C 134.412937 83.581875 132.944187 84.12875 132.0145 84.456875 C 131.077 84.785 129.561375 85.292812 128.600437 85.589687 C 127.6395 85.894375 126.069187 86.355312 125.084812 86.62875 C 124.092625 86.902187 122.491062 87.31625 121.475437 87.56625 C 120.467625 87.808437 118.827 88.183437 117.79575 88.402187 C 116.7645 88.620937 115.100437 88.94125 114.04575 89.136562 C 112.998875 89.324062 111.311375 89.605312 110.248875 89.769375 C 109.186375 89.925625 107.475437 90.16 106.405125 90.292812 C 105.334812 90.417812 103.60825 90.605312 102.530125 90.706875 C 101.452 90.808437 99.725437 90.949062 98.6395 91.019375 C 97.561375 91.089687 95.827 91.183437 94.748875 91.2225 C 93.67075 91.269375 91.936375 91.308437 90.85825 91.324062 C 89.787937 91.331875 88.061375 91.331875 86.991062 91.308437 C 85.928562 91.292812 84.217625 91.245937 83.162937 91.199062 C 82.100437 91.152187 80.412937 91.050625 79.373875 90.9725 C 78.327 90.902187 76.67075 90.75375 75.6395 90.652187 C 74.616062 90.542812 72.98325 90.355312 71.98325 90.2225 C 70.975437 90.089687 69.381687 89.855312 68.397312 89.699062 C 67.42075 89.535 65.866062 89.261562 64.912937 89.074062 C 63.959812 88.886562 62.452 88.56625 61.522312 88.3475 C 60.600437 88.136562 59.147312 87.777187 58.256687 87.542812 C 57.366062 87.300625 55.967625 86.902187 55.10825 86.644375 C 54.256687 86.37875 52.92075 85.94125 52.100437 85.66 C 51.287937 85.370937 50.0145 84.902187 49.241062 84.589687 C 48.467625 84.285 47.256687 83.777187 46.530125 83.449062 C 45.79575 83.120937 44.662937 82.581875 43.98325 82.238125 C 43.29575 81.886562 42.23325 81.31625 41.600437 80.956875 C 40.967625 80.589687 39.991062 79.988125 39.405125 79.605312 C 38.819187 79.2225 37.92075 78.5975 37.3895 78.206875 C 36.85825 77.808437 36.04575 77.16 35.569187 76.745937 C 35.092625 76.339687 34.366062 75.667812 33.944187 75.245937 C 33.522312 74.824062 32.8895 74.12875 32.530125 73.699062 C 32.162937 73.261562 31.623875 72.558437 31.319188 72.113125 C 31.006688 71.675625 30.561375 70.956875 30.311375 70.50375 C 30.069188 70.050625 29.717625 69.324062 29.530125 68.863125 C 29.334813 68.41 29.084813 67.667812 28.959813 67.206875 C 28.834813 66.745937 28.678563 66.00375 28.60825 65.542812 C 28.54575 65.074062 28.48325 64.331875 28.48325 63.863125 C 28.475438 63.402187 28.5145 62.652187 28.569188 62.19125 C 28.623875 61.7225 28.7645 60.980312 28.881688 60.519375 C 28.998875 60.058437 29.241063 59.31625 29.412938 58.863125 C 29.592625 58.402187 29.928563 57.667812 30.162938 57.2225 C 30.397313 56.769375 30.827 56.042812 31.123875 55.5975 C 31.42075 55.16 31.952 54.449062 32.303562 54.011562 C 32.662937 53.574062 33.280125 52.886562 33.686375 52.464687 C 34.100437 52.035 34.811375 51.363125 35.280125 50.949062 C 35.741062 50.535 36.537937 49.87875 37.061375 49.480312 C 37.584812 49.081875 38.467625 48.456875 39.04575 48.074062 C 39.623875 47.683437 40.584812 47.081875 41.209812 46.714687 C 41.842625 46.3475 42.881687 45.769375 43.561375 45.417812 C 44.23325 45.074062 45.35825 44.527187 46.077 44.19125 C 46.79575 43.863125 47.991062 43.3475 48.756687 43.042812 C 49.522312 42.730312 50.787937 42.245937 51.600437 41.964687 C 52.405125 41.675625 53.73325 41.230312 54.584812 40.964687 C 55.428562 40.699062 56.819187 40.292812 57.702 40.050625 C 58.592625 39.808437 60.037937 39.44125 60.952 39.2225 C 61.873875 39.00375 63.373875 38.675625 64.319187 38.488125 C 65.272312 38.300625 66.819187 38.011562 67.79575 37.8475 C 68.772312 37.683437 70.35825 37.44125 71.35825 37.300625 C 72.35825 37.167812 73.98325 36.964687 75.006687 36.855312 C 76.030125 36.745937 77.686375 36.5975 78.725437 36.519375 C 79.7645 36.433437 81.452 36.331875 82.506687 36.277187 C 83.561375 36.2225 85.2645 36.167812 86.334812 36.144375 C 87.397312 36.120937 89.116062 36.105312 90.194187 36.113125 C 91.2645 36.120937 92.998875 36.152187 94.077 36.19125 C 95.155125 36.230312 96.8895 36.308437 97.967625 36.37875 C 99.053562 36.44125 100.787937 36.574062 101.866062 36.667812 C 102.944187 36.769375 104.67075 36.949062 105.741062 37.074062 C 106.811375 37.199062 108.530125 37.425625 109.592625 37.581875 C 110.655125 37.730312 112.350437 38.00375 113.397312 38.19125 C 114.452 38.37875 116.123875 38.69125 117.162937 38.91 C 118.194187 39.120937 119.834812 39.488125 120.850437 39.730312 C 121.866062 39.9725 123.475437 40.37875 124.467625 40.644375 C 125.459812 40.917812 127.037937 41.370937 127.998875 41.667812 C 128.967625 41.964687 130.498875 42.456875 131.436375 42.785 C 132.366062 43.105312 133.850437 43.644375 134.756687 43.988125 C 135.662937 44.339687 137.084812 44.917812 137.959812 45.285 C 138.827 45.66 140.194187 46.277187 141.030125 46.675625 C 141.85825 47.06625 143.162937 47.7225 143.959812 48.144375 C 144.748875 48.558437 145.991062 49.245937 146.741062 49.683437 C 147.48325 50.12875 148.655125 50.8475 149.35825 51.308437 C 150.061375 51.769375 151.155125 52.519375 151.811375 52.995937 C 152.467625 53.4725 153.48325 54.261562 154.092625 54.75375 C 154.702 55.245937 155.631687 56.058437 156.186375 56.56625 C 156.741062 57.081875 157.592625 57.917812 158.092625 58.44125 C 158.600437 58.964687 159.35825 59.824062 159.803562 60.363125 C 160.256687 60.902187 160.928562 61.777187 161.319187 62.331875 C 161.709812 62.87875 162.287937 63.769375 162.623875 64.331875 C 162.959812 64.894375 163.444187 65.800625 163.717625 66.370937 C 163.991062 66.94125 164.381687 67.863125 164.600437 68.433437 C 164.811375 69.011562 165.10825 69.94125 165.2645 70.519375 C 165.42075 71.105312 165.623875 72.042812 165.709812 72.620937 C 165.803562 73.206875 165.905125 74.152187 165.936375 74.738125 C 165.967625 75.324062 165.975437 76.261562 165.944187 76.8475 C 165.92075 77.433437 165.819187 78.37875 165.73325 78.964687 C 165.647312 79.542812 165.452 80.480312 165.303562 81.06625 C 165.147312 81.644375 164.85825 82.574062 164.647312 83.152187 C 164.436375 83.730312 164.053562 84.644375 163.780125 85.214687 C 163.506687 85.785 163.022312 86.699062 162.694187 87.25375 C 162.366062 87.81625 161.79575 88.714687 161.405125 89.261562 C 161.022312 89.81625 160.350437 90.69125 159.905125 91.230312 C 159.459812 91.769375 158.702 92.62875 158.209812 93.16 C 157.709812 93.683437 156.866062 94.519375 156.311375 95.035 C 155.756687 95.542812 154.834812 96.355312 154.225437 96.855312 C 153.623875 97.3475 152.616062 98.12875 151.959812 98.613125 C 151.303562 99.089687 150.217625 99.8475 149.5145 100.308437 C 148.811375 100.769375 147.647312 101.488125 146.905125 101.933437 C 146.155125 102.370937 144.928562 103.06625 144.1395 103.480312 C 143.342625 103.902187 142.04575 104.558437 141.209812 104.956875 C 140.381687 105.3475 139.0145 105.9725 138.147312 106.339687 C 137.280125 106.714687 135.85825 107.300625 134.959812 107.644375 C 134.053562 107.995937 132.577 108.535 131.6395 108.863125 C 130.709812 109.183437 129.178562 109.683437 128.217625 109.980312 C 127.248875 110.277187 125.678562 110.738125 124.694187 111.00375 C 123.702 111.277187 122.092625 111.69125 121.077 111.933437 C 120.061375 112.175625 118.42075 112.542812 117.3895 112.761562 C 116.35825 112.9725 114.686375 113.300625 113.631687 113.480312 C 112.584812 113.667812 110.8895 113.94125 109.827 114.105312 C 108.7645 114.261562 107.053562 114.488125 105.98325 114.613125 C 104.905125 114.745937 103.178562 114.925625 102.100437 115.027187 C 101.022312 115.120937 99.29575 115.25375 98.209812 115.324062 C 97.131687 115.394375 95.397312 115.4725 94.319187 115.511562 C 93.241062 115.550625 91.506687 115.589687 90.436375 115.5975 C 89.35825 115.605312 87.6395 115.5975 86.569187 115.581875 C 85.498875 115.558437 83.79575 115.50375 82.741062 115.449062 C 81.686375 115.402187 79.998875 115.300625 78.959812 115.214687 C 77.92075 115.136562 76.256687 114.988125 75.23325 114.87875 C 74.209812 114.777187 72.584812 114.581875 71.584812 114.44125 C 70.577 114.308437 68.991062 114.06625 68.006687 113.91 C 67.030125 113.745937 65.48325 113.456875 64.530125 113.269375 C 63.584812 113.081875 62.077 112.75375 61.162937 112.542812 C 60.241062 112.324062 58.787937 111.964687 57.905125 111.7225 C 57.0145 111.480312 55.623875 111.074062 54.772312 110.808437 C 53.92075 110.550625 52.592625 110.105312 51.780125 109.81625 C 50.967625 109.535 49.702 109.050625 48.928562 108.745937 C 48.162937 108.433437 46.967625 107.925625 46.241062 107.5975 C 45.5145 107.269375 44.3895 106.7225 43.709812 106.370937 C 43.030125 106.027187 41.98325 105.449062 41.350437 105.081875 C 40.725437 104.714687 39.756687 104.113125 39.178562 103.730312 C 38.592625 103.3475 37.709812 102.7225 37.178562 102.324062 C 36.655125 101.925625 35.850437 101.269375 35.381687 100.855312 C 34.905125 100.449062 34.194187 99.777187 33.780125 99.3475 C 33.366062 98.925625 32.741062 98.238125 32.381687 97.800625 C 32.022312 97.363125 31.491063 96.66 31.194188 96.214687 C 30.8895 95.769375 30.459813 95.050625 30.217625 94.5975 C 29.975438 94.144375 29.6395 93.417812 29.459813 92.956875 C 29.272313 92.50375 29.030125 91.761562 28.912938 91.300625 C 28.787938 90.839687 28.647313 90.0975 28.584813 89.62875 C 28.522313 89.167812 28.475438 88.417812 28.475438 87.956875 C 28.48325 87.488125 28.530125 86.745937 28.600438 86.277187 C 28.662938 85.81625 28.811375 85.074062 28.928563 84.613125 C 29.053563 84.144375 29.303563 83.41 29.48325 82.949062 C 29.67075 82.495937 30.0145 81.761562 30.256688 81.31625 C 30.498875 80.863125 30.944188 80.144375 31.248875 79.699062 C 31.553563 79.25375 32.084812 78.550625 32.444187 78.113125 C 32.811375 77.683437 33.436375 76.988125 33.850437 76.56625 C 34.272312 76.144375 34.98325 75.4725 35.459812 75.058437 C 35.936375 74.644375 36.741062 73.995937 37.272312 73.5975 C 37.803562 73.199062 38.694187 72.574062 39.272312 72.19125 C 39.85825 71.808437 40.827 71.206875 41.459812 70.839687 C 42.092625 70.480312 43.147312 69.902187 43.827 69.558437 C 44.506687 69.206875 45.6395 68.667812 46.366062 68.339687 C 47.092625 68.011562 48.29575 67.495937 49.069187 67.19125 C 49.834812 66.886562 51.10825 66.41 51.92075 66.120937 C 52.73325 65.831875 54.069187 65.394375 54.92075 65.12875 C 55.772312 64.870937 57.17075 64.464687 58.053562 64.230312 C 58.944187 63.988125 60.397312 63.62875 61.319187 63.41 C 62.241062 63.199062 63.748875 62.87875 64.694187 62.683437 C 65.647312 62.495937 67.202 62.214687 68.178562 62.058437 C 69.155125 61.894375 70.748875 61.66 71.756687 61.519375 C 72.756687 61.386562 74.3895 61.199062 75.412937 61.089687 C 76.436375 60.988125 78.100437 60.839687 79.1395 60.761562 C 80.178562 60.683437 81.866062 60.581875 82.92075 60.527187 C 83.98325 60.480312 85.686375 60.425625 86.756687 60.41 C 87.827 60.386562 89.54575 60.37875 90.623875 60.394375 C 91.694187 60.402187 93.428562 60.44125 94.506687 60.480312 C 95.584812 60.519375 97.319187 60.613125 98.397312 60.675625 C 99.48325 60.745937 101.209812 60.886562 102.287937 60.988125 C 103.366062 61.081875 105.092625 61.269375 106.162937 61.394375 C 107.23325 61.527187 108.952 61.75375 110.0145 61.917812 C 111.077 62.074062 112.7645 62.3475 113.819187 62.535 C 114.866062 62.7225 116.537937 63.050625 117.569187 63.269375 C 118.600437 63.480312 120.241062 63.855312 121.256687 64.0975 C 122.2645 64.339687 123.873875 64.761562 124.866062 65.027187 C 125.850437 65.300625 127.42075 65.761562 128.381687 66.058437 C 129.350437 66.355312 130.866062 66.863125 131.803562 67.183437 C 132.741062 67.511562 134.209812 68.050625 135.116062 68.402187 C 136.0145 68.75375 137.436375 69.339687 138.303562 69.714687 C 139.162937 70.089687 140.530125 70.706875 141.35825 71.105312 C 142.186375 71.50375 143.48325 72.16 144.272312 72.581875 C 145.061375 73.00375 146.287937 73.69125 147.030125 74.136562 C 147.780125 74.574062 148.936375 75.300625 149.6395 75.761562 C 150.334812 76.2225 151.42075 76.980312 152.077 77.464687 C 152.725437 77.94125 153.73325 78.730312 154.334812 79.2225 C 154.936375 79.7225 155.85825 80.535 156.405125 81.050625 C 156.959812 81.558437 157.79575 82.394375 158.29575 82.925625 C 158.787937 83.449062 159.54575 84.308437 159.98325 84.8475 C 160.428562 85.394375 161.084812 86.269375 161.475437 86.824062 C 161.85825 87.370937 162.428562 88.269375 162.756687 88.831875 C 163.077 89.394375 163.561375 90.300625 163.827 90.870937 C 164.092625 91.44125 164.475437 92.363125 164.686375 92.94125 C 164.8895 93.511562 165.178562 94.449062 165.327 95.027187 C 165.475437 95.605312 165.662937 96.542812 165.748875 97.12875 C 165.834812 97.714687 165.92075 98.66 165.952 99.245937 C 165.975437 99.831875 165.967625 100.769375 165.936375 101.355312 C 165.897312 101.94125 165.79575 102.886562 165.694187 103.464687 C 165.600437 104.050625 165.397312 104.988125 165.241062 105.56625 C 165.084812 106.152187 164.780125 107.081875 164.561375 107.652187 C 164.342625 108.230312 163.952 109.152187 163.67075 109.714687 C 163.397312 110.285 162.905125 111.19125 162.569187 111.75375 C 162.23325 112.31625 161.647312 113.206875 161.248875 113.75375 C 160.85825 114.308437 160.178562 115.183437 159.725437 115.7225 C 159.280125 116.261562 158.5145 117.113125 158.006687 117.636562 C 157.506687 118.167812 156.647312 118.995937 156.092625 119.511562 C 155.537937 120.019375 154.592625 120.824062 153.98325 121.324062 C 153.373875 121.81625 152.35825 122.5975 151.702 123.074062 C 151.037937 123.550625 149.944187 124.308437 149.23325 124.761562 C 148.530125 125.2225 147.35825 125.94125 146.60825 126.37875 C 145.85825 126.81625 144.616062 127.50375 143.819187 127.925625 C 143.030125 128.339687 141.717625 128.988125 140.881687 129.386562 C 140.04575 129.777187 138.678562 130.394375 137.803562 130.769375 C 136.936375 131.136562 135.506687 131.714687 134.600437 132.058437 C 133.694187 132.41 132.209812 132.94125 131.272312 133.261562 C 130.327 133.581875 128.79575 134.081875 127.834812 134.370937 C 126.866062 134.667812 125.287937 135.120937 124.29575 135.386562 C 123.303562 135.66 121.694187 136.06625 120.678562 136.308437 C 119.662937 136.542812 118.0145 136.91 116.975437 137.120937 C 115.944187 137.331875 114.272312 137.644375 113.217625 137.831875 C 112.17075 138.011562 110.467625 138.285 109.405125 138.44125 C 108.342625 138.589687 106.623875 138.81625 105.553562 138.94125 C 104.48325 139.06625 102.756687 139.238125 101.678562 139.331875 C 100.600437 139.425625 98.866062 139.558437 97.787937 139.620937 C 96.702 139.69125 94.967625 139.769375 93.8895 139.800625 C 92.811375 139.839687 91.084812 139.870937 90.006687 139.87875 C 88.936375 139.886562 87.209812 139.870937 86.147312 139.8475 C 85.077 139.81625 83.373875 139.75375 82.319187 139.706875 C 81.2645 139.652187 79.584812 139.542812 78.54575 139.456875 C 77.506687 139.37875 75.850437 139.2225 74.827 139.113125 C 73.811375 139.00375 72.186375 138.800625 71.186375 138.667812 C 70.186375 138.527187 68.600437 138.285 67.623875 138.113125 C 66.647312 137.949062 65.10825 137.66 64.155125 137.4725 C 63.209812 137.277187 61.709812 136.949062 60.79575 136.730312 C 59.881687 136.511562 58.436375 136.144375 57.553562 135.902187 C 56.67075 135.66 55.280125 135.245937 54.436375 134.980312 C 53.592625 134.714687 52.2645 134.269375 51.459812 133.980312 C 50.655125 133.69125 48.623875 132.894375 48.623875 132.894375 " transform="matrix(0.5, 0, 0, -0.5, 7.0865, 82.6425)"/>
</g>
<path fill="none" stroke-width="2.98883" stroke-linecap="butt" stroke-linejoin="miter" stroke="rgb(25%, 25%, 25%)" stroke-opacity="1" stroke-miterlimit="10" d="M 48.616062 132.894375 C 48.616062 132.894375 48.397312 132.800625 48.311375 132.769375 C 48.225437 132.730312 48.092625 132.675625 48.006687 132.644375 C 47.92075 132.605312 47.787937 132.550625 47.709812 132.511562 C 47.623875 132.480312 47.491062 132.417812 47.405125 132.386562 C 47.327 132.3475 47.194187 132.292812 47.10825 132.25375 C 47.030125 132.2225 46.897312 132.167812 46.811375 132.12875 C 46.73325 132.089687 46.600437 132.035 46.522312 131.995937 C 46.444187 131.956875 46.311375 131.902187 46.23325 131.863125 C 46.147312 131.831875 46.022312 131.769375 45.936375 131.730312 C 45.85825 131.699062 45.73325 131.636562 45.655125 131.5975 C 45.577 131.56625 45.444187 131.50375 45.366062 131.464687 C 45.287937 131.425625 45.162937 131.370937 45.084812 131.331875 C 45.006687 131.292812 44.881687 131.230312 44.803562 131.19125 C 44.725437 131.16 44.600437 131.0975 44.522312 131.058437 C 44.444187 131.019375 44.327 130.956875 44.248875 130.917812 C 44.17075 130.87875 44.053562 130.824062 43.975437 130.785 C 43.897312 130.745937 43.772312 130.683437 43.702 130.644375 C 43.623875 130.605312 43.506687 130.542812 43.428562 130.50375 C 43.35825 130.464687 43.23325 130.402187 43.162937 130.363125 C 43.084812 130.324062 42.967625 130.261562 42.897312 130.2225 C 42.819187 130.183437 42.702 130.120937 42.631687 130.074062 C 42.561375 130.035 42.444187 129.9725 42.366062 129.933437 C 42.29575 129.894375 42.178562 129.831875 42.10825 129.792812 C 42.037937 129.75375 41.92075 129.683437 41.850437 129.644375 C 41.780125 129.605312 41.662937 129.542812 41.592625 129.50375 C 41.522312 129.456875 41.412937 129.394375 41.342625 129.355312 C 41.272312 129.31625 41.162937 129.245937 41.092625 129.206875 C 41.022312 129.167812 40.912937 129.0975 40.842625 129.058437 C 40.772312 129.019375 40.662937 128.949062 40.600437 128.91 C 40.530125 128.870937 40.42075 128.800625 40.350437 128.761562 C 40.287937 128.714687 40.178562 128.652187 40.10825 128.613125 C 40.04575 128.56625 39.936375 128.495937 39.873875 128.456875 C 39.803562 128.417812 39.702 128.3475 39.631687 128.308437 C 39.569187 128.261562 39.459812 128.199062 39.397312 128.152187 C 39.334812 128.113125 39.23325 128.042812 39.162937 128.00375 C 39.100437 127.956875 38.998875 127.886562 38.936375 127.8475 C 38.873875 127.800625 38.772312 127.738125 38.709812 127.69125 C 38.647312 127.652187 38.54575 127.581875 38.48325 127.535 C 38.42075 127.495937 38.319187 127.425625 38.256687 127.37875 C 38.194187 127.339687 38.100437 127.269375 38.037937 127.2225 C 37.975437 127.183437 37.873875 127.113125 37.819187 127.06625 C 37.756687 127.019375 37.662937 126.956875 37.600437 126.91 C 37.537937 126.863125 37.444187 126.792812 37.3895 126.745937 C 37.327 126.706875 37.23325 126.636562 37.17075 126.589687 C 37.116062 126.550625 37.022312 126.4725 36.967625 126.433437 C 36.905125 126.386562 36.819187 126.31625 36.756687 126.269375 C 36.702 126.2225 36.60825 126.152187 36.553562 126.105312 C 36.498875 126.06625 36.405125 125.988125 36.350437 125.949062 C 36.29575 125.902187 36.209812 125.831875 36.155125 125.785 C 36.092625 125.738125 36.006687 125.667812 35.952 125.620937 C 35.897312 125.574062 35.811375 125.50375 35.756687 125.456875 C 35.702 125.41 35.616062 125.339687 35.561375 125.292812 C 35.5145 125.245937 35.428562 125.175625 35.373875 125.12875 C 35.327 125.081875 35.241062 125.011562 35.186375 124.964687 C 35.1395 124.917812 35.053562 124.839687 34.998875 124.800625 C 34.952 124.75375 34.866062 124.675625 34.819187 124.62875 C 34.772312 124.581875 34.686375 124.511562 34.6395 124.464687 C 34.592625 124.417812 34.5145 124.339687 34.459812 124.292812 C 34.412937 124.245937 34.334812 124.175625 34.287937 124.12875 C 34.241062 124.081875 34.162937 124.00375 34.116062 123.956875 C 34.069187 123.91 33.991062 123.839687 33.944187 123.792812 C 33.897312 123.745937 33.819187 123.667812 33.780125 123.620937 C 33.73325 123.574062 33.655125 123.495937 33.60825 123.449062 C 33.561375 123.402187 33.491062 123.324062 33.444187 123.277187 C 33.405125 123.230312 33.334812 123.152187 33.287937 123.105312 C 33.241062 123.058437 33.17075 122.980312 33.131687 122.933437 C 33.084812 122.886562 33.0145 122.808437 32.975437 122.761562 C 32.928562 122.714687 32.866062 122.636562 32.819187 122.589687 C 32.780125 122.542812 32.709812 122.464687 32.67075 122.417812 C 32.631687 122.370937 32.561375 122.292812 32.522312 122.245937 C 32.48325 122.199062 32.42075 122.120937 32.381687 122.06625 C 32.342625 122.019375 32.272312 121.94125 32.23325 121.894375 C 32.194187 121.8475 32.1395 121.769375 32.100437 121.7225 C 32.061375 121.667812 31.998875 121.589687 31.959813 121.542812 C 31.92075 121.495937 31.85825 121.417812 31.827 121.370937 C 31.787938 121.31625 31.725438 121.238125 31.694188 121.19125 C 31.655125 121.144375 31.600438 121.06625 31.561375 121.011562 C 31.530125 120.964687 31.467625 120.886562 31.436375 120.839687 C 31.397313 120.792812 31.350438 120.706875 31.311375 120.66 C 31.280125 120.613125 31.225438 120.535 31.186375 120.480312 C 31.155125 120.433437 31.100438 120.355312 31.069188 120.308437 C 31.037938 120.25375 30.991063 120.175625 30.952 120.12875 C 30.92075 120.074062 30.873875 119.995937 30.842625 119.949062 C 30.811375 119.902187 30.756688 119.81625 30.73325 119.769375 C 30.702 119.714687 30.655125 119.636562 30.623875 119.589687 C 30.592625 119.535 30.54575 119.456875 30.5145 119.41 C 30.48325 119.355312 30.436375 119.277187 30.412938 119.230312 C 30.381688 119.175625 30.342625 119.0975 30.311375 119.050625 C 30.287938 118.995937 30.241063 118.917812 30.209813 118.863125 C 30.186375 118.81625 30.147313 118.738125 30.116063 118.683437 C 30.092625 118.636562 30.053563 118.558437 30.022313 118.50375 C 29.998875 118.456875 29.959813 118.370937 29.936375 118.324062 C 29.912938 118.269375 29.873875 118.19125 29.850438 118.144375 C 29.827 118.089687 29.787938 118.011562 29.7645 117.956875 C 29.741063 117.91 29.702 117.824062 29.686375 117.777187 C 29.662938 117.7225 29.623875 117.644375 29.600438 117.589687 C 29.584813 117.542812 29.54575 117.464687 29.522313 117.41 C 29.506688 117.363125 29.475438 117.277187 29.452 117.230312 C 29.436375 117.175625 29.405125 117.0975 29.381688 117.042812 C 29.366063 116.995937 29.327 116.91 29.311375 116.863125 C 29.29575 116.808437 29.2645 116.730312 29.248875 116.675625 C 29.23325 116.62875 29.202 116.542812 29.186375 116.495937 C 29.162938 116.44125 29.1395 116.355312 29.123875 116.308437 C 29.10825 116.25375 29.084813 116.175625 29.069188 116.120937 C 29.053563 116.074062 29.022313 115.988125 29.006688 115.94125 C 28.998875 115.886562 28.975438 115.808437 28.959813 115.75375 C 28.944188 115.699062 28.92075 115.620937 28.912938 115.56625 C 28.897313 115.519375 28.873875 115.433437 28.85825 115.386562 C 28.850438 115.331875 28.827 115.25375 28.819188 115.199062 C 28.803563 115.144375 28.787938 115.06625 28.780125 115.011562 C 28.7645 114.964687 28.748875 114.87875 28.73325 114.831875 C 28.725438 114.777187 28.709813 114.69125 28.702 114.644375 C 28.694188 114.589687 28.678563 114.511562 28.67075 114.456875 C 28.655125 114.402187 28.647313 114.324062 28.6395 114.269375 C 28.631688 114.2225 28.616063 114.136562 28.60825 114.081875 C 28.600438 114.035 28.592625 113.949062 28.584813 113.902187 C 28.577 113.8475 28.569188 113.761562 28.561375 113.714687 C 28.553563 113.66 28.54575 113.581875 28.54575 113.527187 C 28.537938 113.4725 28.530125 113.394375 28.522313 113.339687 C 28.522313 113.292812 28.5145 113.206875 28.5145 113.152187 C 28.506688 113.105312 28.498875 113.019375 28.498875 112.9725 C 28.498875 112.917812 28.491063 112.831875 28.491063 112.785 C 28.48325 112.730312 28.48325 112.644375 28.48325 112.5975 C 28.48325 112.542812 28.48325 112.464687 28.48325 112.41 C 28.48325 112.355312 28.475438 112.277187 28.475438 112.2225 C 28.475438 112.175625 28.48325 112.089687 28.48325 112.035 C 28.48325 111.988125 28.48325 111.902187 28.48325 111.8475 C 28.491063 111.800625 28.491063 111.714687 28.491063 111.667812 C 28.498875 111.613125 28.498875 111.527187 28.506688 111.480312 C 28.506688 111.425625 28.5145 111.3475 28.5145 111.292812 C 28.522313 111.238125 28.530125 111.16 28.530125 111.105312 C 28.537938 111.058437 28.54575 110.9725 28.553563 110.917812 C 28.561375 110.870937 28.569188 110.785 28.569188 110.738125 C 28.577 110.683437 28.592625 110.5975 28.600438 110.550625 C 28.60825 110.495937 28.616063 110.41 28.623875 110.363125 C 28.631688 110.308437 28.6395 110.230312 28.647313 110.175625 C 28.662938 110.12875 28.678563 110.042812 28.686375 109.988125 C 28.694188 109.94125 28.709813 109.855312 28.717625 109.808437 C 28.725438 109.75375 28.741063 109.667812 28.756688 109.620937 C 28.7645 109.56625 28.787938 109.488125 28.79575 109.433437 C 28.811375 109.386562 28.827 109.300625 28.842625 109.245937 C 28.850438 109.199062 28.873875 109.113125 28.881688 109.06625 C 28.897313 109.011562 28.92075 108.933437 28.936375 108.87875 C 28.944188 108.824062 28.967625 108.745937 28.98325 108.69125 C 28.998875 108.644375 29.022313 108.558437 29.037938 108.511562 C 29.053563 108.456875 29.077 108.37875 29.092625 108.324062 C 29.10825 108.277187 29.131688 108.19125 29.147313 108.144375 C 29.17075 108.089687 29.194188 108.00375 29.217625 107.956875 C 29.23325 107.902187 29.2645 107.824062 29.280125 107.769375 C 29.29575 107.7225 29.327 107.636562 29.342625 107.589687 C 29.366063 107.535 29.397313 107.456875 29.42075 107.402187 C 29.436375 107.355312 29.467625 107.269375 29.491063 107.2225 C 29.506688 107.167812 29.54575 107.089687 29.561375 107.042812 C 29.584813 106.988125 29.623875 106.91 29.6395 106.855312 C 29.662938 106.808437 29.702 106.7225 29.725438 106.675625 C 29.741063 106.620937 29.780125 106.542812 29.803563 106.488125 C 29.827 106.44125 29.866063 106.363125 29.8895 106.308437 C 29.912938 106.261562 29.952 106.175625 29.975438 106.12875 C 30.006688 106.074062 30.04575 105.995937 30.069188 105.949062 C 30.100438 105.894375 30.1395 105.81625 30.162938 105.761562 C 30.194188 105.714687 30.23325 105.636562 30.2645 105.581875 C 30.287938 105.535 30.334813 105.449062 30.35825 105.402187 C 30.3895 105.355312 30.436375 105.269375 30.459813 105.2225 C 30.491063 105.175625 30.537938 105.089687 30.569188 105.042812 C 30.592625 104.995937 30.647313 104.91 30.678563 104.863125 C 30.702 104.81625 30.756688 104.730312 30.780125 104.683437 C 30.811375 104.636562 30.866063 104.550625 30.897313 104.50375 C 30.928563 104.456875 30.98325 104.37875 31.0145 104.324062 C 31.04575 104.277187 31.092625 104.199062 31.131688 104.144375 C 31.162938 104.0975 31.217625 104.019375 31.248875 103.9725 C 31.287938 103.917812 31.342625 103.839687 31.373875 103.792812 C 31.405125 103.738125 31.459813 103.66 31.498875 103.613125 C 31.530125 103.56625 31.592625 103.488125 31.623875 103.433437 C 31.662938 103.386562 31.717625 103.308437 31.756688 103.261562 C 31.79575 103.214687 31.850438 103.136562 31.8895 103.081875 C 31.928563 103.035 31.991063 102.956875 32.030125 102.91 C 32.069187 102.863125 32.123875 102.785 32.162937 102.730312 C 32.202 102.683437 32.2645 102.605312 32.303562 102.558437 C 32.342625 102.511562 32.412937 102.433437 32.452 102.386562 C 32.491062 102.339687 32.553562 102.261562 32.592625 102.206875 C 32.631687 102.16 32.702 102.081875 32.741062 102.035 C 32.787937 101.988125 32.850437 101.91 32.897312 101.863125 C 32.936375 101.81625 33.006687 101.738125 33.04575 101.69125 C 33.092625 101.644375 33.162937 101.56625 33.209812 101.519375 C 33.248875 101.4725 33.319187 101.394375 33.366062 101.3475 C 33.412937 101.300625 33.48325 101.2225 33.530125 101.175625 C 33.569187 101.12875 33.647312 101.050625 33.694187 101.00375 C 33.741062 100.956875 33.811375 100.886562 33.85825 100.839687 C 33.905125 100.792812 33.975437 100.714687 34.030125 100.667812 C 34.077 100.620937 34.155125 100.542812 34.202 100.495937 C 34.248875 100.449062 34.327 100.37875 34.373875 100.331875 C 34.42075 100.285 34.498875 100.206875 34.54575 100.16 C 34.600437 100.113125 34.678562 100.042812 34.725437 99.995937 C 34.780125 99.949062 34.85825 99.870937 34.905125 99.824062 C 34.959812 99.777187 35.04575 99.706875 35.092625 99.66 C 35.147312 99.613125 35.225437 99.542812 35.280125 99.495937 C 35.334812 99.449062 35.412937 99.37875 35.467625 99.331875 C 35.522312 99.285 35.60825 99.214687 35.662937 99.167812 C 35.717625 99.120937 35.803562 99.042812 35.85825 99.00375 C 35.905125 98.956875 35.991062 98.87875 36.04575 98.839687 C 36.100437 98.792812 36.194187 98.7225 36.248875 98.675625 C 36.303562 98.62875 36.397312 98.558437 36.452 98.511562 C 36.506687 98.464687 36.600437 98.394375 36.655125 98.3475 C 36.709812 98.308437 36.803562 98.238125 36.85825 98.19125 C 36.92075 98.144375 37.006687 98.074062 37.069187 98.027187 C 37.123875 97.988125 37.217625 97.917812 37.280125 97.870937 C 37.334812 97.824062 37.436375 97.75375 37.491062 97.714687 C 37.553562 97.667812 37.647312 97.5975 37.709812 97.550625 C 37.7645 97.511562 37.866062 97.44125 37.928562 97.394375 C 37.98325 97.355312 38.084812 97.277187 38.147312 97.238125 C 38.202 97.19125 38.303562 97.120937 38.366062 97.081875 C 38.428562 97.035 38.530125 96.9725 38.592625 96.925625 C 38.655125 96.886562 38.756687 96.81625 38.819187 96.769375 C 38.881687 96.730312 38.98325 96.66 39.04575 96.613125 C 39.116062 96.574062 39.217625 96.50375 39.280125 96.464687 C 39.342625 96.417812 39.452 96.355312 39.5145 96.308437 C 39.577 96.269375 39.686375 96.199062 39.748875 96.16 C 39.819187 96.113125 39.92075 96.050625 39.991062 96.00375 C 40.053562 95.964687 40.162937 95.894375 40.225437 95.855312 C 40.29575 95.81625 40.405125 95.745937 40.475437 95.706875 C 40.537937 95.667812 40.647312 95.5975 40.717625 95.558437 C 40.787937 95.519375 40.897312 95.449062 40.967625 95.41 C 41.030125 95.363125 41.147312 95.300625 41.217625 95.261562 C 41.287937 95.2225 41.397312 95.152187 41.467625 95.113125 C 41.537937 95.074062 41.655125 95.011562 41.725437 94.964687 C 41.79575 94.925625 41.905125 94.863125 41.98325 94.824062 C 42.053562 94.785 42.162937 94.714687 42.23325 94.675625 C 42.311375 94.636562 42.428562 94.574062 42.498875 94.535 C 42.569187 94.495937 42.686375 94.433437 42.7645 94.394375 C 42.834812 94.355312 42.952 94.285 43.022312 94.245937 C 43.100437 94.206875 43.217625 94.144375 43.29575 94.105312 C 43.366062 94.06625 43.491062 94.00375 43.561375 93.964687 C 43.6395 93.925625 43.756687 93.863125 43.834812 93.824062 C 43.912937 93.785 44.030125 93.730312 44.10825 93.69125 C 44.186375 93.652187 44.303562 93.589687 44.381687 93.550625 C 44.459812 93.511562 44.584812 93.449062 44.662937 93.41 C 44.741062 93.37875 44.866062 93.31625 44.944187 93.277187 C 45.022312 93.238125 45.147312 93.183437 45.225437 93.144375 C 45.303562 93.105312 45.428562 93.042812 45.506687 93.00375 C 45.584812 92.9725 45.717625 92.91 45.79575 92.870937 C 45.873875 92.839687 45.998875 92.777187 46.084812 92.738125 C 46.162937 92.706875 46.29575 92.644375 46.373875 92.605312 C 46.452 92.574062 46.584812 92.511562 46.662937 92.480312 C 46.748875 92.44125 46.873875 92.386562 46.959812 92.3475 C 47.037937 92.308437 47.17075 92.25375 47.256687 92.2225 C 47.334812 92.183437 47.467625 92.12875 47.553562 92.089687 C 47.6395 92.058437 47.772312 91.995937 47.850437 91.964687 C 47.936375 91.925625 48.069187 91.870937 48.155125 91.839687 C 48.241062 91.800625 48.373875 91.745937 48.459812 91.706875 C 48.54575 91.675625 48.678562 91.620937 48.7645 91.589687 C 48.850437 91.550625 48.991062 91.495937 49.077 91.464687 C 49.155125 91.425625 49.29575 91.370937 49.381687 91.339687 C 49.467625 91.308437 49.60825 91.25375 49.694187 91.2225 C 49.780125 91.183437 49.92075 91.12875 50.006687 91.0975 C 50.092625 91.06625 50.23325 91.011562 50.319187 90.980312 C 50.412937 90.94125 50.553562 90.894375 50.6395 90.863125 C 50.73325 90.824062 50.873875 90.777187 50.959812 90.738125 C 51.04575 90.706875 51.194187 90.66 51.280125 90.620937 C 51.366062 90.589687 51.5145 90.542812 51.60825 90.511562 C 51.694187 90.4725 51.842625 90.425625 51.928562 90.394375 C 52.022312 90.363125 52.162937 90.308437 52.256687 90.277187 C 52.342625 90.245937 52.491062 90.199062 52.584812 90.167812 C 52.678562 90.136562 52.819187 90.081875 52.912937 90.050625 C 53.006687 90.027187 53.155125 89.9725 53.248875 89.94125 C 53.334812 89.91 53.48325 89.863125 53.577 89.831875 C 53.67075 89.800625 53.819187 89.75375 53.912937 89.7225 C 54.006687 89.69125 54.155125 89.644375 54.248875 89.620937 C 54.342625 89.589687 54.491062 89.542812 54.584812 89.511562 C 54.686375 89.480312 54.834812 89.433437 54.928562 89.402187 C 55.022312 89.370937 55.178562 89.331875 55.272312 89.300625 C 55.366062 89.269375 55.522312 89.2225 55.616062 89.199062 C 55.709812 89.167812 55.866062 89.120937 55.959812 89.089687 C 56.061375 89.06625 56.209812 89.019375 56.311375 88.988125 C 56.405125 88.964687 56.561375 88.917812 56.655125 88.894375 C 56.756687 88.863125 56.905125 88.81625 57.006687 88.792812 C 57.100437 88.761562 57.2645 88.7225 57.35825 88.69125 C 57.459812 88.667812 57.616062 88.620937 57.709812 88.5975 C 57.811375 88.56625 57.967625 88.527187 58.069187 88.50375 C 58.162937 88.4725 58.327 88.433437 58.42075 88.402187 C 58.522312 88.37875 58.678562 88.339687 58.780125 88.308437 C 58.881687 88.285 59.037937 88.245937 59.1395 88.214687 C 59.241062 88.19125 59.405125 88.152187 59.498875 88.12875 C 59.600437 88.0975 59.7645 88.058437 59.866062 88.035 C 59.967625 88.011562 60.123875 87.9725 60.225437 87.949062 C 60.327 87.925625 60.491062 87.87875 60.592625 87.855312 C 60.694187 87.831875 60.85825 87.792812 60.959812 87.769375 C 61.061375 87.745937 61.225437 87.706875 61.327 87.683437 C 61.428562 87.66 61.592625 87.620937 61.694187 87.5975 C 61.803562 87.574062 61.967625 87.535 62.069187 87.511562 C 62.17075 87.488125 62.342625 87.456875 62.444187 87.433437 C 62.54575 87.41 62.709812 87.370937 62.819187 87.3475 C 62.92075 87.324062 63.084812 87.292812 63.194187 87.269375 C 63.29575 87.245937 63.467625 87.214687 63.569187 87.19125 C 63.678562 87.167812 63.842625 87.136562 63.944187 87.113125 C 64.053562 87.089687 64.217625 87.058437 64.327 87.035 C 64.436375 87.011562 64.600437 86.980312 64.709812 86.956875 C 64.811375 86.94125 64.98325 86.902187 65.092625 86.886562 C 65.194187 86.863125 65.366062 86.831875 65.475437 86.808437 C 65.577 86.792812 65.748875 86.761562 65.85825 86.738125 C 65.959812 86.714687 66.131687 86.683437 66.241062 86.667812 C 66.350437 86.644375 66.522312 86.613125 66.631687 86.5975 C 66.741062 86.574062 66.912937 86.550625 67.022312 86.527187 C 67.123875 86.511562 67.29575 86.480312 67.405125 86.456875 C 67.5145 86.44125 67.686375 86.41 67.79575 86.394375 C 67.905125 86.37875 68.077 86.3475 68.186375 86.331875 C 68.29575 86.308437 68.475437 86.285 68.584812 86.261562 C 68.694187 86.245937 68.866062 86.2225 68.975437 86.199062 C 69.084812 86.183437 69.2645 86.16 69.373875 86.144375 C 69.48325 86.120937 69.655125 86.0975 69.7645 86.081875 C 69.881687 86.06625 70.053562 86.035 70.162937 86.019375 C 70.272312 86.00375 70.452 85.980312 70.561375 85.964687 C 70.67075 85.949062 70.850437 85.925625 70.959812 85.91 C 71.077 85.894375 71.248875 85.863125 71.366062 85.8475 C 71.475437 85.831875 71.655125 85.808437 71.7645 85.792812 C 71.873875 85.785 72.053562 85.761562 72.17075 85.745937 C 72.280125 85.730312 72.459812 85.706875 72.569187 85.69125 C 72.678562 85.675625 72.866062 85.652187 72.975437 85.644375 C 73.084812 85.62875 73.2645 85.605312 73.381687 85.589687 C 73.491062 85.581875 73.67075 85.558437 73.787937 85.542812 C 73.897312 85.527187 74.084812 85.511562 74.194187 85.495937 C 74.311375 85.488125 74.491062 85.464687 74.600437 85.449062 C 74.717625 85.44125 74.897312 85.417812 75.0145 85.41 C 75.123875 85.394375 75.311375 85.37875 75.42075 85.363125 C 75.537937 85.355312 75.717625 85.331875 75.834812 85.324062 C 75.944187 85.308437 76.131687 85.292812 76.241062 85.277187 C 76.35825 85.269375 76.54575 85.25375 76.655125 85.245937 C 76.772312 85.230312 76.952 85.214687 77.069187 85.206875 C 77.186375 85.19125 77.366062 85.175625 77.48325 85.167812 C 77.600437 85.16 77.787937 85.144375 77.897312 85.12875 C 78.0145 85.120937 78.202 85.105312 78.319187 85.0975 C 78.428562 85.089687 78.616062 85.074062 78.73325 85.06625 C 78.850437 85.058437 79.030125 85.042812 79.147312 85.035 C 79.2645 85.027187 79.452 85.011562 79.569187 85.00375 C 79.686375 84.995937 79.866062 84.980312 79.98325 84.9725 C 80.100437 84.964687 80.287937 84.956875 80.405125 84.949062 C 80.522312 84.94125 80.709812 84.925625 80.827 84.917812 C 80.944187 84.91 81.131687 84.902187 81.248875 84.894375 C 81.366062 84.886562 81.54575 84.87875 81.662937 84.870937 C 81.780125 84.863125 81.975437 84.855312 82.092625 84.8475 C 82.209812 84.839687 82.397312 84.831875 82.5145 84.824062 C 82.631687 84.81625 82.819187 84.808437 82.936375 84.800625 C 83.053562 84.800625 83.241062 84.792812 83.35825 84.785 C 83.475437 84.785 83.662937 84.777187 83.780125 84.769375 C 83.897312 84.761562 84.084812 84.75375 84.209812 84.75375 C 84.327 84.745937 84.5145 84.738125 84.631687 84.738125 C 84.748875 84.730312 84.936375 84.730312 85.061375 84.7225 C 85.178562 84.7225 85.366062 84.714687 85.48325 84.714687 C 85.600437 84.706875 85.79575 84.706875 85.912937 84.699062 C 86.030125 84.699062 86.217625 84.69125 86.334812 84.69125 C 86.459812 84.69125 86.647312 84.683437 86.7645 84.683437 C 86.881687 84.683437 87.077 84.675625 87.194187 84.675625 C 87.311375 84.675625 87.498875 84.667812 87.623875 84.667812 C 87.741062 84.667812 87.928562 84.667812 88.053562 84.667812 C 88.17075 84.667812 88.35825 84.66 88.475437 84.66 C 88.600437 84.66 88.787937 84.66 88.912937 84.66 C 89.030125 84.66 89.217625 84.66 89.342625 84.66 C 89.459812 84.66 89.647312 84.66 89.772312 84.66 C 89.8895 84.66 90.077 84.66 90.202 84.66 C 90.319187 84.66 90.5145 84.667812 90.631687 84.667812 C 90.748875 84.667812 90.944187 84.667812 91.061375 84.667812 C 91.178562 84.675625 91.373875 84.675625 91.491062 84.675625 C 91.616062 84.683437 91.803562 84.683437 91.92075 84.683437 C 92.04575 84.683437 92.23325 84.69125 92.350437 84.69125 C 92.475437 84.699062 92.67075 84.699062 92.787937 84.706875 C 92.905125 84.706875 93.100437 84.714687 93.217625 84.714687 C 93.342625 84.714687 93.530125 84.7225 93.655125 84.730312 C 93.772312 84.730312 93.959812 84.738125 94.084812 84.738125 C 94.202 84.745937 94.397312 84.75375 94.5145 84.75375 C 94.6395 84.761562 94.827 84.769375 94.944187 84.769375 C 95.069187 84.777187 95.2645 84.785 95.381687 84.792812 C 95.498875 84.800625 95.694187 84.808437 95.811375 84.808437 C 95.936375 84.81625 96.123875 84.824062 96.248875 84.831875 C 96.366062 84.839687 96.561375 84.8475 96.678562 84.855312 C 96.79575 84.863125 96.991062 84.870937 97.10825 84.87875 C 97.23325 84.886562 97.42075 84.894375 97.54575 84.902187 C 97.662937 84.91 97.85825 84.917812 97.975437 84.925625 C 98.100437 84.933437 98.287937 84.949062 98.412937 84.956875 C 98.530125 84.964687 98.725437 84.9725 98.842625 84.980312 C 98.959812 84.995937 99.155125 85.00375 99.272312 85.011562 C 99.397312 85.019375 99.584812 85.035 99.709812 85.042812 C 99.827 85.050625 100.022312 85.06625 100.1395 85.074062 C 100.256687 85.089687 100.452 85.105312 100.569187 85.113125 C 100.694187 85.120937 100.881687 85.136562 101.006687 85.144375 C 101.123875 85.16 101.319187 85.175625 101.436375 85.183437 C 101.553562 85.19125 101.748875 85.206875 101.866062 85.2225 C 101.991062 85.230312 102.178562 85.245937 102.303562 85.261562 C 102.42075 85.269375 102.616062 85.292812 102.73325 85.300625 C 102.850437 85.308437 103.04575 85.331875 103.162937 85.339687 C 103.280125 85.355312 103.475437 85.370937 103.592625 85.386562 C 103.717625 85.394375 103.905125 85.417812 104.022312 85.433437 C 104.147312 85.44125 104.334812 85.464687 104.459812 85.4725 C 104.577 85.488125 104.7645 85.511562 104.8895 85.527187 C 105.006687 85.535 105.194187 85.558437 105.319187 85.574062 C 105.436375 85.581875 105.623875 85.605312 105.748875 85.620937 C 105.866062 85.636562 106.053562 85.66 106.17075 85.675625 C 106.29575 85.683437 106.48325 85.706875 106.60825 85.7225 C 106.725437 85.738125 106.912937 85.761562 107.030125 85.777187 C 107.155125 85.792812 107.342625 85.81625 107.459812 85.831875 C 107.577 85.8475 107.772312 85.870937 107.8895 85.886562 C 108.006687 85.902187 108.194187 85.933437 108.319187 85.949062 C 108.436375 85.964687 108.623875 85.988125 108.741062 86.00375 C 108.85825 86.019375 109.053562 86.050625 109.17075 86.06625 C 109.287937 86.081875 109.475437 86.113125 109.592625 86.12875 C 109.709812 86.144375 109.905125 86.175625 110.022312 86.19125 C 110.1395 86.206875 110.327 86.238125 110.444187 86.25375 C 110.561375 86.269375 110.756687 86.300625 110.873875 86.324062 C 110.991062 86.339687 111.178562 86.370937 111.29575 86.386562 C 111.412937 86.41 111.600437 86.433437 111.717625 86.456875 C 111.834812 86.4725 112.022312 86.50375 112.1395 86.527187 C 112.256687 86.542812 112.444187 86.574062 112.561375 86.5975 C 112.678562 86.613125 112.866062 86.644375 112.98325 86.667812 C 113.100437 86.69125 113.287937 86.7225 113.405125 86.738125 C 113.522312 86.761562 113.709812 86.792812 113.827 86.81625 C 113.944187 86.831875 114.131687 86.870937 114.241062 86.894375 C 114.35825 86.91 114.54575 86.949062 114.662937 86.964687 C 114.780125 86.988125 114.967625 87.027187 115.084812 87.042812 C 115.202 87.06625 115.381687 87.105312 115.498875 87.12875 C 115.616062 87.152187 115.803562 87.183437 115.912937 87.206875 C 116.030125 87.230312 116.217625 87.269375 116.334812 87.292812 C 116.452 87.308437 116.631687 87.3475 116.748875 87.370937 C 116.866062 87.394375 117.04575 87.433437 117.162937 87.456875 C 117.280125 87.480312 117.459812 87.519375 117.577 87.542812 C 117.694187 87.56625 117.873875 87.605312 117.991062 87.62875 C 118.100437 87.652187 118.287937 87.69125 118.405125 87.7225 C 118.5145 87.745937 118.702 87.785 118.811375 87.808437 C 118.928562 87.831875 119.10825 87.87875 119.225437 87.902187 C 119.334812 87.925625 119.522312 87.964687 119.631687 87.995937 C 119.748875 88.019375 119.928562 88.058437 120.037937 88.089687 C 120.155125 88.113125 120.334812 88.152187 120.452 88.183437 C 120.561375 88.206875 120.741062 88.25375 120.85825 88.277187 C 120.967625 88.300625 121.147312 88.3475 121.2645 88.37875 C 121.373875 88.402187 121.553562 88.449062 121.67075 88.4725 C 121.780125 88.50375 121.959812 88.542812 122.069187 88.574062 C 122.186375 88.5975 122.366062 88.644375 122.475437 88.675625 C 122.584812 88.706875 122.7645 88.745937 122.881687 88.777187 C 122.991062 88.808437 123.17075 88.855312 123.280125 88.87875 C 123.3895 88.91 123.569187 88.956875 123.678562 88.988125 C 123.787937 89.011562 123.967625 89.058437 124.077 89.089687 C 124.186375 89.120937 124.366062 89.167812 124.475437 89.199062 C 124.584812 89.230312 124.7645 89.277187 124.873875 89.308437 C 124.98325 89.339687 125.155125 89.386562 125.2645 89.417812 C 125.373875 89.449062 125.553562 89.495937 125.662937 89.527187 C 125.772312 89.558437 125.944187 89.605312 126.053562 89.636562 C 126.162937 89.667812 126.342625 89.7225 126.444187 89.75375 C 126.553562 89.785 126.73325 89.831875 126.834812 89.863125 C 126.944187 89.902187 127.123875 89.949062 127.225437 89.980312 C 127.334812 90.011562 127.506687 90.06625 127.616062 90.0975 C 127.725437 90.12875 127.897312 90.183437 128.006687 90.214687 C 128.116062 90.25375 128.287937 90.300625 128.3895 90.331875 C 128.498875 90.370937 128.67075 90.425625 128.772312 90.456875 C 128.881687 90.488125 129.053562 90.542812 129.162937 90.581875 C 129.2645 90.613125 129.436375 90.667812 129.54575 90.699062 C 129.647312 90.738125 129.819187 90.792812 129.92075 90.824062 C 130.030125 90.863125 130.202 90.917812 130.303562 90.949062 C 130.412937 90.988125 130.577 91.042812 130.686375 91.074062 C 130.787937 91.113125 130.952 91.167812 131.061375 91.206875 C 131.162937 91.238125 131.334812 91.292812 131.436375 91.331875 C 131.537937 91.370937 131.709812 91.425625 131.811375 91.464687 C 131.912937 91.495937 132.084812 91.558437 132.186375 91.589687 C 132.287937 91.62875 132.452 91.69125 132.561375 91.7225 C 132.662937 91.761562 132.827 91.824062 132.928562 91.855312 C 133.030125 91.894375 133.194187 91.956875 133.29575 91.995937 C 133.397312 92.027187 133.561375 92.089687 133.662937 92.12875 C 133.7645 92.167812 133.928562 92.230312 134.030125 92.261562 C 134.131687 92.300625 134.29575 92.363125 134.397312 92.402187 C 134.498875 92.44125 134.655125 92.50375 134.756687 92.542812 C 134.85825 92.581875 135.022312 92.644375 135.123875 92.683437 C 135.217625 92.7225 135.381687 92.785 135.48325 92.824062 C 135.584812 92.863125 135.741062 92.925625 135.842625 92.964687 C 135.936375 93.00375 136.100437 93.06625 136.194187 93.105312 C 136.29575 93.144375 136.452 93.206875 136.553562 93.25375 C 136.655125 93.292812 136.811375 93.355312 136.905125 93.394375 C 137.006687 93.433437 137.162937 93.50375 137.256687 93.542812 C 137.35825 93.581875 137.5145 93.652187 137.60825 93.69125 C 137.709812 93.730312 137.866062 93.800625 137.959812 93.839687 C 138.053562 93.87875 138.209812 93.949062 138.303562 93.988125 C 138.405125 94.027187 138.561375 94.0975 138.655125 94.136562 C 138.748875 94.183437 138.905125 94.245937 138.998875 94.292812 C 139.092625 94.331875 139.248875 94.402187 139.342625 94.44125 C 139.436375 94.488125 139.592625 94.558437 139.686375 94.5975 C 139.780125 94.644375 139.928562 94.706875 140.022312 94.75375 C 140.116062 94.792812 140.2645 94.863125 140.35825 94.91 C 140.452 94.949062 140.600437 95.019375 140.694187 95.06625 C 140.787937 95.113125 140.936375 95.183437 141.030125 95.2225 C 141.123875 95.269375 141.272312 95.339687 141.366062 95.37875 C 141.459812 95.425625 141.600437 95.495937 141.694187 95.542812 C 141.787937 95.589687 141.936375 95.66 142.022312 95.706875 C 142.116062 95.745937 142.2645 95.824062 142.350437 95.863125 C 142.444187 95.91 142.584812 95.980312 142.678562 96.027187 C 142.7645 96.074062 142.912937 96.144375 142.998875 96.19125 C 143.092625 96.238125 143.23325 96.308437 143.319187 96.355312 C 143.412937 96.402187 143.553562 96.480312 143.6395 96.527187 C 143.73325 96.574062 143.873875 96.644375 143.959812 96.69125 C 144.04575 96.738125 144.194187 96.808437 144.280125 96.855312 C 144.366062 96.902187 144.506687 96.980312 144.592625 97.027187 C 144.678562 97.074062 144.819187 97.152187 144.905125 97.199062 C 144.991062 97.245937 145.131687 97.324062 145.217625 97.370937 C 145.303562 97.417812 145.436375 97.495937 145.522312 97.542812 C 145.60825 97.589687 145.834812 97.714687 136.600437 92.542812 " transform="matrix(0.5, 0, 0, -0.5, 7.0865, 82.6425)"/>
<path fill-rule="nonzero" fill="rgb(25%, 25%, 25%)" fill-opacity="1" d="M 80.003906 33.785156 C 78.492188 34.296875 75.839844 34.769531 73.796875 34.734375 L 75.949219 38.582031 C 76.988281 36.820312 78.777344 34.808594 80.003906 33.785156 "/>
</svg>
