<?xml version="1.0" encoding="UTF-8"?>
<svg xmlns="http://www.w3.org/2000/svg" xmlns:xlink="http://www.w3.org/1999/xlink" width="113.386" height="113.386" viewBox="0 0 113.386 113.386">
<defs>
<clipPath id="clip-0">
<path clip-rule="nonzero" d="M 7 43 L 113.386719 43 L 113.386719 113.386719 L 7 113.386719 Z M 7 43 "/>
</clipPath>
</defs>
<path fill="none" stroke-width="0.79701" stroke-linecap="butt" stroke-linejoin="miter" stroke="rgb(0%, 0%, 0%)" stroke-opacity="1" stroke-miterlimit="10" d="M -14.174094 0.00096875 L 73.29075 0.00096875 " transform="matrix(1, 0, 0, -1, 24.803, 88.583)"/>
<path fill-rule="nonzero" fill="rgb(0%, 0%, 0%)" fill-opacity="1" d="M 102.757812 88.582031 C 101.375 88.324219 99.128906 87.546875 97.578125 86.640625 L 97.578125 90.527344 C 99.128906 89.617188 101.375 88.84375 102.757812 88.582031 "/>
<path fill="none" stroke-width="0.79701" stroke-linecap="butt" stroke-linejoin="miter" stroke="rgb(0%, 0%, 0%)" stroke-opacity="1" stroke-miterlimit="10" d="M 0.0016875 -14.174813 L 0.0016875 73.290031 " transform="matrix(1, 0, 0, -1, 24.803, 88.583)"/>
<path fill-rule="nonzero" fill="rgb(0%, 0%, 0%)" fill-opacity="1" d="M 24.804688 10.628906 C 24.542969 12.011719 23.765625 14.253906 22.859375 15.808594 L 26.746094 15.808594 C 25.839844 14.253906 25.0625 12.011719 24.804688 10.628906 "/>
<path fill="none" stroke-width="1.59404" stroke-linecap="butt" stroke-linejoin="miter" stroke="rgb(25%, 25%, 25%)" stroke-opacity="1" stroke-miterlimit="10" d="M -14.174094 5.211906 C -14.174094 5.211906 -14.119406 5.235344 -14.099875 5.243156 C -14.080344 5.247062 -14.045188 5.258781 -14.025656 5.266594 C -14.006125 5.274406 -13.970969 5.290031 -13.951438 5.297844 C -13.931906 5.305656 -13.89675 5.317375 -13.877219 5.325187 C -13.857688 5.333 -13.822531 5.344719 -13.803 5.352531 C -13.783469 5.360344 -13.748313 5.372062 -13.728781 5.379875 C -13.70925 5.387687 -13.678 5.399406 -13.654563 5.407219 C -13.635031 5.415031 -13.603781 5.42675 -13.580344 5.434562 C -13.560813 5.442375 -13.529563 5.454094 -13.506125 5.461906 C -13.486594 5.473625 -13.455344 5.485344 -13.431906 5.493156 C -13.412375 5.500969 -13.381125 5.512687 -13.361594 5.5205 C -13.338156 5.528312 -13.306906 5.543937 -13.287375 5.55175 C -13.263938 5.559562 -13.232688 5.571281 -13.213156 5.579094 C -13.189719 5.586906 -13.158469 5.598625 -13.138938 5.610344 C -13.1155 5.618156 -13.08425 5.629875 -13.064719 5.637687 C -13.045188 5.6455 -13.010031 5.661125 -12.9905 5.668937 C -12.970969 5.67675 -12.935813 5.688469 -12.916281 5.696281 C -12.89675 5.704094 -12.861594 5.719719 -12.842063 5.727531 C -12.822531 5.735344 -12.787375 5.750969 -12.767844 5.758781 C -12.748313 5.766594 -12.713156 5.778312 -12.693625 5.786125 C -12.674094 5.793937 -12.638938 5.809562 -12.619406 5.817375 C -12.599875 5.825187 -12.568625 5.840812 -12.545188 5.848625 C -12.525656 5.856437 -12.494406 5.872062 -12.470969 5.879875 C -12.451438 5.887687 -12.420188 5.899406 -12.39675 5.907219 C -12.377219 5.918937 -12.345969 5.930656 -12.322531 5.938469 C -12.303 5.950187 -12.27175 5.961906 -12.252219 5.969719 C -12.228781 5.981437 -12.197531 5.993156 -12.178 6.000969 C -12.154563 6.012687 -12.123313 6.024406 -12.103781 6.032219 C -12.080344 6.043937 -12.049094 6.055656 -12.029563 6.067375 C -12.006125 6.075187 -11.974875 6.086906 -11.955344 6.098625 C -11.935813 6.106437 -11.900656 6.118156 -11.881125 6.129875 C -11.861594 6.137687 -11.826438 6.153312 -11.806906 6.161125 C -11.787375 6.168937 -11.752219 6.184562 -11.732688 6.192375 C -11.713156 6.204094 -11.678 6.215812 -11.658469 6.227531 C -11.638938 6.235344 -11.603781 6.250969 -11.58425 6.258781 C -11.564719 6.266594 -11.529563 6.282219 -11.510031 6.290031 C -11.4905 6.30175 -11.455344 6.313469 -11.435813 6.325187 C -11.416281 6.333 -11.385031 6.348625 -11.361594 6.356437 C -11.342063 6.36425 -11.310813 6.379875 -11.287375 6.391594 C -11.267844 6.399406 -11.236594 6.415031 -11.213156 6.422844 C -11.193625 6.434562 -11.162375 6.446281 -11.138938 6.458 C -11.119406 6.465812 -11.088156 6.481437 -11.068625 6.493156 C -11.045188 6.500969 -11.013938 6.516594 -10.994406 6.524406 C -10.970969 6.536125 -10.939719 6.55175 -10.920188 6.559562 C -10.89675 6.567375 -10.8655 6.583 -10.845969 6.594719 C -10.822531 6.602531 -10.791281 6.618156 -10.77175 6.629875 C -10.752219 6.637687 -10.717063 6.653312 -10.697531 6.661125 C -10.678 6.672844 -10.642844 6.688469 -10.623313 6.700187 C -10.603781 6.708 -10.568625 6.723625 -10.549094 6.731437 C -10.529563 6.743156 -10.494406 6.758781 -10.474875 6.766594 C -10.455344 6.778312 -10.420188 6.793937 -10.400656 6.80175 C -10.381125 6.813469 -10.345969 6.829094 -10.326438 6.836906 C -10.306906 6.848625 -10.275656 6.86425 -10.252219 6.875969 C -10.232688 6.883781 -10.201438 6.899406 -10.178 6.911125 C -10.158469 6.918937 -10.127219 6.934562 -10.103781 6.946281 C -10.08425 6.958 -10.053 6.973625 -10.029563 6.981437 C -10.010031 6.993156 -9.978781 7.008781 -9.95925 7.0205 C -9.935813 7.032219 -9.904563 7.047844 -9.885031 7.055656 C -9.861594 7.067375 -9.830344 7.083 -9.810813 7.094719 C -9.787375 7.102531 -9.756125 7.122062 -9.736594 7.129875 C -9.713156 7.141594 -9.681906 7.157219 -9.662375 7.168937 C -9.642844 7.17675 -9.607688 7.196281 -9.588156 7.204094 C -9.568625 7.215812 -9.533469 7.231437 -9.513938 7.243156 C -9.494406 7.254875 -9.45925 7.2705 -9.439719 7.282219 C -9.420188 7.290031 -9.385031 7.309562 -9.3655 7.317375 C -9.345969 7.329094 -9.310813 7.348625 -9.291281 7.356437 C -9.27175 7.368156 -9.236594 7.383781 -9.217063 7.3955 C -9.197531 7.407219 -9.166281 7.422844 -9.142844 7.434562 C -9.123313 7.446281 -9.092063 7.461906 -9.068625 7.473625 C -9.049094 7.485344 -9.017844 7.500969 -8.994406 7.512687 C -8.974875 7.524406 -8.943625 7.540031 -8.920188 7.55175 C -8.900656 7.563469 -8.869406 7.579094 -8.849875 7.590812 C -8.826438 7.602531 -8.795188 7.618156 -8.775656 7.629875 C -8.752219 7.641594 -8.720969 7.661125 -8.701438 7.668937 C -8.678 7.680656 -8.64675 7.700187 -8.627219 7.711906 C -8.603781 7.723625 -8.572531 7.73925 -8.553 7.750969 C -8.533469 7.762687 -8.498313 7.782219 -8.478781 7.793937 C -8.45925 7.805656 -8.424094 7.821281 -8.404563 7.833 C -8.385031 7.844719 -8.349875 7.860344 -8.330344 7.872062 C -8.310813 7.883781 -8.275656 7.903312 -8.256125 7.915031 C -8.236594 7.92675 -8.201438 7.946281 -8.181906 7.958 C -8.162375 7.969719 -8.127219 7.985344 -8.107688 7.997062 C -8.088156 8.008781 -8.053 8.028312 -8.033469 8.040031 C -8.013938 8.05175 -7.982688 8.071281 -7.95925 8.083 C -7.939719 8.094719 -7.908469 8.11425 -7.885031 8.125969 C -7.8655 8.137687 -7.83425 8.153312 -7.810813 8.165031 C -7.791281 8.17675 -7.760031 8.196281 -7.736594 8.208 C -7.717063 8.219719 -7.685813 8.243156 -7.666281 8.254875 C -7.642844 8.266594 -7.611594 8.282219 -7.592063 8.293937 C -7.568625 8.305656 -7.537375 8.329094 -7.517844 8.340812 C -7.494406 8.352531 -7.463156 8.372062 -7.443625 8.383781 C -7.424094 8.3955 -7.388938 8.415031 -7.369406 8.42675 C -7.349875 8.438469 -7.314719 8.458 -7.295188 8.469719 C -7.275656 8.485344 -7.2405 8.504875 -7.220969 8.516594 C -7.201438 8.528312 -7.166281 8.547844 -7.14675 8.559562 C -7.127219 8.571281 -7.092063 8.590812 -7.072531 8.606437 C -7.053 8.618156 -7.017844 8.637687 -6.998313 8.649406 C -6.978781 8.661125 -6.943625 8.684562 -6.924094 8.696281 C -6.904563 8.708 -6.873313 8.727531 -6.849875 8.73925 C -6.830344 8.754875 -6.799094 8.774406 -6.775656 8.786125 C -6.756125 8.797844 -6.724875 8.817375 -6.701438 8.833 C -6.681906 8.844719 -6.650656 8.86425 -6.627219 8.879875 C -6.607688 8.891594 -6.576438 8.911125 -6.556906 8.92675 C -6.533469 8.938469 -6.502219 8.958 -6.482688 8.973625 C -6.45925 8.985344 -6.428 9.004875 -6.408469 9.0205 C -6.385031 9.032219 -6.353781 9.05175 -6.33425 9.063469 C -6.310813 9.079094 -6.279563 9.098625 -6.260031 9.11425 C -6.2405 9.125969 -6.205344 9.1455 -6.185813 9.161125 C -6.166281 9.172844 -6.131125 9.196281 -6.111594 9.208 C -6.092063 9.223625 -6.056906 9.243156 -6.037375 9.254875 C -6.017844 9.2705 -5.982688 9.290031 -5.963156 9.305656 C -5.943625 9.317375 -5.908469 9.340812 -5.888938 9.352531 C -5.869406 9.368156 -5.83425 9.387687 -5.814719 9.403312 C -5.795188 9.415031 -5.763938 9.438469 -5.7405 9.454094 C -5.720969 9.465812 -5.689719 9.48925 -5.666281 9.500969 C -5.64675 9.516594 -5.6155 9.536125 -5.592063 9.55175 C -5.572531 9.563469 -5.541281 9.586906 -5.517844 9.602531 C -5.498313 9.61425 -5.467063 9.637687 -5.447531 9.649406 C -5.424094 9.665031 -5.392844 9.688469 -5.373313 9.700187 C -5.349875 9.715812 -5.318625 9.73925 -5.299094 9.750969 C -5.275656 9.766594 -5.244406 9.790031 -5.224875 9.80175 C -5.201438 9.817375 -5.170188 9.840812 -5.150656 9.856437 C -5.131125 9.868156 -5.095969 9.891594 -5.076438 9.907219 C -5.056906 9.922844 -5.02175 9.942375 -5.002219 9.958 C -4.982688 9.973625 -4.947531 9.997062 -4.928 10.008781 C -4.908469 10.024406 -4.873313 10.047844 -4.853781 10.063469 C -4.83425 10.079094 -4.799094 10.102531 -4.779563 10.11425 C -4.760031 10.129875 -4.724875 10.153312 -4.705344 10.168937 C -4.685813 10.184562 -4.650656 10.208 -4.631125 10.223625 C -4.611594 10.235344 -4.580344 10.262687 -4.556906 10.274406 C -4.537375 10.290031 -4.506125 10.313469 -4.482688 10.329094 C -4.463156 10.344719 -4.431906 10.368156 -4.408469 10.383781 C -4.388938 10.399406 -4.357688 10.422844 -4.33425 10.438469 C -4.314719 10.454094 -4.283469 10.477531 -4.263938 10.493156 C -4.2405 10.508781 -4.20925 10.532219 -4.189719 10.547844 C -4.166281 10.559562 -4.135031 10.586906 -4.1155 10.602531 C -4.092063 10.618156 -4.060813 10.641594 -4.041281 10.657219 C -4.02175 10.672844 -3.986594 10.696281 -3.967063 10.711906 C -3.947531 10.727531 -3.912375 10.754875 -3.892844 10.7705 C -3.873313 10.786125 -3.838156 10.809562 -3.818625 10.825187 C -3.799094 10.840812 -3.763938 10.868156 -3.744406 10.883781 C -3.724875 10.899406 -3.689719 10.922844 -3.670188 10.938469 C -3.650656 10.954094 -3.6155 10.981437 -3.595969 10.997062 C -3.576438 11.012687 -3.541281 11.036125 -3.52175 11.055656 C -3.502219 11.071281 -3.470969 11.094719 -3.447531 11.110344 C -3.428 11.129875 -3.39675 11.153312 -3.373313 11.168937 C -3.353781 11.184562 -3.322531 11.211906 -3.299094 11.227531 C -3.279563 11.243156 -3.248313 11.2705 -3.224875 11.286125 C -3.205344 11.305656 -3.174094 11.329094 -3.154563 11.344719 C -3.131125 11.360344 -3.099875 11.387687 -3.080344 11.407219 C -3.056906 11.422844 -3.025656 11.446281 -3.006125 11.465812 C -2.982688 11.481437 -2.951438 11.508781 -2.931906 11.524406 C -2.908469 11.543937 -2.877219 11.567375 -2.857688 11.586906 C -2.838156 11.602531 -2.803 11.629875 -2.783469 11.6455 C -2.763938 11.665031 -2.728781 11.688469 -2.70925 11.708 C -2.689719 11.723625 -2.654563 11.750969 -2.635031 11.766594 C -2.6155 11.786125 -2.580344 11.813469 -2.560813 11.829094 C -2.541281 11.848625 -2.506125 11.875969 -2.486594 11.891594 C -2.467063 11.907219 -2.431906 11.938469 -2.412375 11.954094 C -2.392844 11.969719 -2.361594 11.997062 -2.338156 12.016594 C -2.318625 12.032219 -2.287375 12.063469 -2.263938 12.079094 C -2.244406 12.098625 -2.213156 12.125969 -2.189719 12.141594 C -2.170188 12.161125 -2.138938 12.188469 -2.1155 12.208 C -2.095969 12.223625 -2.064719 12.250969 -2.045188 12.2705 C -2.02175 12.286125 -1.9905 12.317375 -1.970969 12.333 C -1.947531 12.352531 -1.916281 12.379875 -1.89675 12.399406 C -1.873313 12.418937 -1.842063 12.446281 -1.822531 12.465812 C -1.799094 12.481437 -1.767844 12.512687 -1.748313 12.528312 C -1.728781 12.547844 -1.693625 12.575187 -1.674094 12.594719 C -1.654563 12.61425 -1.619406 12.641594 -1.599875 12.661125 C -1.580344 12.67675 -1.545188 12.708 -1.525656 12.727531 C -1.506125 12.743156 -1.470969 12.774406 -1.451438 12.793937 C -1.431906 12.809562 -1.39675 12.840812 -1.377219 12.860344 C -1.357688 12.879875 -1.322531 12.907219 -1.303 12.92675 C -1.283469 12.946281 -1.248313 12.977531 -1.228781 12.997062 C -1.20925 13.012687 -1.178 13.043937 -1.154563 13.063469 C -1.135031 13.083 -1.103781 13.11425 -1.080344 13.129875 C -1.060813 13.149406 -1.029563 13.180656 -1.006125 13.200187 C -0.986594 13.219719 -0.955344 13.250969 -0.931906 13.2705 C -0.912375 13.290031 -0.881125 13.317375 -0.861594 13.336906 C -0.838156 13.356437 -0.806906 13.387687 -0.787375 13.407219 C -0.763938 13.42675 -0.732688 13.458 -0.713156 13.477531 C -0.689719 13.497062 -0.658469 13.528312 -0.638938 13.547844 C -0.6155 13.567375 -0.58425 13.602531 -0.564719 13.622062 C -0.545188 13.641594 -0.510031 13.672844 -0.4905 13.692375 C -0.470969 13.711906 -0.435813 13.743156 -0.416281 13.762687 C -0.39675 13.782219 -0.361594 13.813469 -0.342063 13.833 C -0.322531 13.856437 -0.287375 13.887687 -0.267844 13.907219 C -0.248313 13.92675 -0.213156 13.958 -0.193625 13.977531 C -0.174094 14.000969 -0.138938 14.032219 -0.119406 14.05175 C -0.099875 14.075187 -0.068625 14.106437 -0.0451875 14.125969 C -0.0256563 14.1455 0.00559375 14.180656 0.0290312 14.200187 C 0.0485625 14.223625 0.0798125 14.254875 0.10325 14.274406 C 0.122781 14.297844 0.154031 14.329094 0.177469 14.348625 C 0.197 14.372062 0.22825 14.403312 0.247781 14.42675 C 0.271219 14.446281 0.302469 14.481437 0.322 14.500969 C 0.345437 14.5205 0.376687 14.555656 0.396219 14.575187 C 0.419656 14.598625 0.450906 14.629875 0.470437 14.653312 C 0.493875 14.672844 0.525125 14.708 0.544656 14.727531 C 0.564187 14.750969 0.599344 14.786125 0.618875 14.805656 C 0.638406 14.829094 0.673562 14.860344 0.693094 14.883781 C 0.712625 14.907219 0.747781 14.938469 0.767312 14.961906 C 0.786844 14.981437 0.822 15.016594 0.841531 15.040031 C 0.861062 15.063469 0.896219 15.094719 0.91575 15.118156 C 0.935281 15.141594 0.970437 15.17675 0.989969 15.196281 C 1.0095 15.219719 1.04075 15.254875 1.064187 15.278312 C 1.083719 15.297844 1.114969 15.333 1.138406 15.356437 C 1.157937 15.379875 1.189187 15.415031 1.212625 15.438469 C 1.232156 15.458 1.263406 15.497062 1.286844 15.516594 C 1.306375 15.540031 1.337625 15.575187 1.357156 15.598625 C 1.380594 15.622062 1.411844 15.657219 1.431375 15.680656 C 1.454812 15.704094 1.486062 15.73925 1.505594 15.762687 C 1.529031 15.786125 1.560281 15.821281 1.579812 15.844719 C 1.60325 15.868156 1.6345 15.907219 1.654031 15.92675 C 1.673562 15.950187 1.708719 15.98925 1.72825 16.012687 C 1.747781 16.036125 1.782937 16.071281 1.802469 16.094719 C 1.822 16.118156 1.857156 16.157219 1.876687 16.180656 C 1.896219 16.204094 1.931375 16.23925 1.950906 16.262687 C 1.970437 16.286125 2.005594 16.325187 2.025125 16.348625 C 2.044656 16.372062 2.079812 16.411125 2.099344 16.434562 C 2.118875 16.458 2.154031 16.497062 2.173562 16.5205 C 2.193094 16.543937 2.224344 16.583 2.247781 16.606437 C 2.267312 16.629875 2.298562 16.668937 2.322 16.692375 C 2.341531 16.719719 2.372781 16.758781 2.396219 16.782219 C 2.41575 16.805656 2.447 16.844719 2.466531 16.868156 C 2.489969 16.8955 2.521219 16.934562 2.54075 16.958 C 2.564187 16.981437 2.595437 17.0205 2.614969 17.047844 C 2.638406 17.071281 2.669656 17.110344 2.689187 17.133781 C 2.712625 17.161125 2.743875 17.200187 2.763406 17.223625 C 2.782937 17.250969 2.818094 17.290031 2.837625 17.317375 C 2.857156 17.340812 2.892312 17.379875 2.911844 17.407219 C 2.931375 17.430656 2.966531 17.473625 2.986062 17.497062 C 3.005594 17.5205 3.04075 17.563469 3.060281 17.586906 C 3.079812 17.61425 3.114969 17.653312 3.1345 17.680656 C 3.154031 17.708 3.189187 17.747062 3.208719 17.774406 C 3.22825 17.797844 3.263406 17.840812 3.282937 17.86425 C 3.302469 17.891594 3.333719 17.934562 3.357156 17.958 C 3.376687 17.985344 3.407937 18.028312 3.431375 18.05175 C 3.450906 18.079094 3.482156 18.122062 3.505594 18.149406 C 3.525125 18.172844 3.556375 18.215812 3.579812 18.243156 C 3.599344 18.2705 3.630594 18.313469 3.650125 18.336906 C 3.673562 18.36425 3.704812 18.407219 3.724344 18.434562 C 3.747781 18.461906 3.779031 18.504875 3.798562 18.532219 C 3.822 18.555656 3.85325 18.602531 3.872781 18.625969 C 3.896219 18.653312 3.927469 18.696281 3.947 18.723625 C 3.966531 18.750969 4.001687 18.797844 4.021219 18.821281 C 4.04075 18.848625 4.075906 18.8955 4.095437 18.922844 C 4.114969 18.950187 4.150125 18.993156 4.169656 19.0205 C 4.189187 19.047844 4.224344 19.090812 4.243875 19.122062 C 4.263406 19.149406 4.298562 19.192375 4.318094 19.219719 C 4.337625 19.247062 4.372781 19.293937 4.392312 19.321281 C 4.411844 19.348625 4.443094 19.3955 4.466531 19.422844 C 4.486062 19.450187 4.517312 19.497062 4.54075 19.524406 C 4.560281 19.55175 4.591531 19.598625 4.614969 19.625969 C 4.6345 19.653312 4.66575 19.700187 4.689187 19.727531 C 4.708719 19.758781 4.739969 19.80175 4.7595 19.833 C 4.782937 19.860344 4.814187 19.907219 4.833719 19.934562 C 4.857156 19.965812 4.888406 20.008781 4.907937 20.040031 C 4.931375 20.067375 4.962625 20.11425 4.982156 20.1455 C 5.005594 20.172844 5.036844 20.219719 5.056375 20.250969 C 5.075906 20.278312 5.111062 20.325187 5.130594 20.356437 C 5.150125 20.383781 5.185281 20.434562 5.204812 20.461906 C 5.224344 20.493156 5.2595 20.540031 5.279031 20.571281 C 5.298562 20.598625 5.333719 20.6455 5.35325 20.67675 C 5.372781 20.708 5.407937 20.754875 5.427469 20.786125 C 5.447 20.817375 5.482156 20.86425 5.501687 20.8955 C 5.521219 20.922844 5.556375 20.973625 5.575906 21.004875 C 5.595437 21.032219 5.626687 21.083 5.650125 21.11425 C 5.669656 21.1455 5.700906 21.192375 5.724344 21.223625 C 5.743875 21.254875 5.775125 21.305656 5.798562 21.333 C 5.818094 21.36425 5.849344 21.415031 5.872781 21.446281 C 5.892312 21.477531 5.923562 21.528312 5.943094 21.559562 C 5.966531 21.590812 5.997781 21.641594 6.017312 21.672844 C 6.04075 21.704094 6.072 21.754875 6.091531 21.786125 C 6.114969 21.817375 6.146219 21.868156 6.16575 21.899406 C 6.185281 21.930656 6.220437 21.981437 6.239969 22.012687 C 6.2595 22.043937 6.294656 22.094719 6.314187 22.129875 C 6.333719 22.161125 6.368875 22.211906 6.388406 22.243156 C 6.407937 22.274406 6.443094 22.329094 6.462625 22.360344 C 6.482156 22.391594 6.517312 22.446281 6.536844 22.477531 C 6.556375 22.508781 6.591531 22.563469 6.611062 22.594719 C 6.630594 22.625969 6.66575 22.680656 6.685281 22.711906 C 6.704812 22.747062 6.736062 22.797844 6.7595 22.833 C 6.779031 22.86425 6.810281 22.918937 6.833719 22.950187 C 6.85325 22.985344 6.8845 23.040031 6.907937 23.071281 C 6.927469 23.106437 6.958719 23.157219 6.982156 23.192375 C 7.001687 23.227531 7.032937 23.278312 7.052469 23.313469 C 7.075906 23.348625 7.107156 23.403312 7.126687 23.434562 C 7.150125 23.469719 7.181375 23.524406 7.200906 23.559562 C 7.224344 23.590812 7.255594 23.6455 7.275125 23.680656 C 7.298562 23.715812 7.329812 23.7705 7.349344 23.805656 C 7.368875 23.840812 7.404031 23.8955 7.423562 23.930656 C 7.443094 23.965812 7.47825 24.0205 7.497781 24.055656 C 7.517312 24.090812 7.552469 24.1455 7.572 24.180656 C 7.591531 24.215812 7.626687 24.274406 7.646219 24.309562 C 7.66575 24.344719 7.700906 24.399406 7.720437 24.434562 C 7.739969 24.469719 7.775125 24.528312 7.794656 24.563469 C 7.814187 24.598625 7.845437 24.653312 7.868875 24.692375 C 7.888406 24.727531 7.919656 24.786125 7.943094 24.821281 C 7.962625 24.856437 7.993875 24.915031 8.017312 24.950187 C 8.036844 24.985344 8.068094 25.043937 8.091531 25.079094 C 8.111062 25.118156 8.142312 25.17675 8.161844 25.211906 C 8.185281 25.247062 8.216531 25.309562 8.236062 25.344719 C 8.2595 25.379875 8.29075 25.438469 8.310281 25.477531 C 8.333719 25.512687 8.364969 25.571281 8.3845 25.610344 C 8.407937 25.6455 8.439187 25.708 8.458719 25.743156 C 8.47825 25.782219 8.513406 25.840812 8.532937 25.879875 C 8.552469 25.915031 8.587625 25.977531 8.607156 26.012687 C 8.626687 26.05175 8.661844 26.110344 8.681375 26.149406 C 8.700906 26.188469 8.736062 26.247062 8.755594 26.286125 C 8.775125 26.325187 8.810281 26.387687 8.829812 26.422844 C 8.849344 26.461906 8.8845 26.524406 8.904031 26.563469 C 8.923562 26.602531 8.958719 26.661125 8.97825 26.700187 C 8.997781 26.73925 9.029031 26.80175 9.052469 26.840812 C 9.072 26.879875 9.10325 26.942375 9.126687 26.981437 C 9.146219 27.0205 9.177469 27.083 9.200906 27.122062 C 9.220437 27.161125 9.251687 27.223625 9.271219 27.262687 C 9.294656 27.305656 9.325906 27.368156 9.345437 27.407219 C 9.368875 27.446281 9.400125 27.512687 9.419656 27.55175 C 9.443094 27.590812 9.474344 27.653312 9.493875 27.696281 C 9.517312 27.735344 9.548562 27.80175 9.568094 27.840812 C 9.587625 27.879875 9.622781 27.946281 9.642312 27.985344 C 9.661844 28.024406 9.697 28.090812 9.716531 28.129875 C 9.736062 28.172844 9.771219 28.23925 9.79075 28.278312 C 9.810281 28.321281 9.845437 28.387687 9.864969 28.42675 C 9.8845 28.469719 9.919656 28.532219 9.939187 28.575187 C 9.958719 28.618156 9.993875 28.684562 10.013406 28.723625 C 10.032937 28.766594 10.068094 28.833 10.087625 28.875969 C 10.107156 28.918937 10.138406 28.985344 10.161844 29.028312 C 10.181375 29.067375 10.212625 29.137687 10.236062 29.17675 C 10.255594 29.219719 10.286844 29.290031 10.310281 29.333 C 10.329812 29.372062 10.361062 29.442375 10.3845 29.485344 C 10.404031 29.528312 10.435281 29.594719 10.454812 29.637687 C 10.47825 29.680656 10.5095 29.750969 10.529031 29.793937 C 10.552469 29.836906 10.583719 29.907219 10.60325 29.950187 C 10.626687 29.993156 10.657937 30.063469 10.677469 30.106437 C 10.700906 30.149406 10.732156 30.219719 10.751687 30.262687 C 10.771219 30.309562 10.806375 30.379875 10.825906 30.422844 C 10.845437 30.465812 10.880594 30.536125 10.900125 30.583 C 10.919656 30.625969 10.954812 30.696281 10.974344 30.743156 C 10.993875 30.786125 11.029031 30.856437 11.048562 30.903312 C 11.068094 30.946281 11.10325 31.0205 11.122781 31.063469 C 11.142312 31.110344 11.177469 31.180656 11.197 31.227531 C 11.216531 31.2705 11.247781 31.344719 11.271219 31.391594 C 11.29075 31.434562 11.322 31.508781 11.345437 31.555656 C 11.364969 31.598625 11.396219 31.672844 11.419656 31.719719 C 11.439187 31.766594 11.470437 31.840812 11.493875 31.883781 C 11.513406 31.930656 11.544656 32.004875 11.564187 32.05175 C 11.587625 32.098625 11.618875 32.172844 11.638406 32.219719 C 11.661844 32.266594 11.693094 32.340812 11.712625 32.387687 C 11.736062 32.434562 11.767312 32.512687 11.786844 32.559562 C 11.810281 32.606437 11.841531 32.680656 11.861062 32.727531 C 11.880594 32.774406 11.91575 32.852531 11.935281 32.899406 C 11.954812 32.946281 11.989969 33.024406 12.0095 33.071281 C 12.029031 33.118156 12.064187 33.196281 12.083719 33.243156 C 12.10325 33.293937 12.138406 33.372062 12.157937 33.418937 C 12.177469 33.465812 12.212625 33.543937 12.232156 33.594719 C 12.251687 33.641594 12.286844 33.719719 12.306375 33.7705 C 12.325906 33.817375 12.361062 33.8955 12.380594 33.946281 C 12.400125 33.993156 12.431375 34.075187 12.454812 34.122062 C 12.474344 34.172844 12.505594 34.250969 12.529031 34.30175 C 12.548562 34.352531 12.579812 34.430656 12.60325 34.481437 C 12.622781 34.532219 12.654031 34.610344 12.673562 34.661125 C 12.697 34.711906 12.72825 34.793937 12.747781 34.844719 C 12.771219 34.8955 12.802469 34.973625 12.822 35.024406 C 12.845437 35.075187 12.876687 35.157219 12.896219 35.208 C 12.919656 35.258781 12.950906 35.340812 12.970437 35.391594 C 12.989969 35.446281 13.025125 35.528312 13.044656 35.579094 C 13.064187 35.629875 13.099344 35.711906 13.118875 35.762687 C 13.138406 35.817375 13.173562 35.899406 13.193094 35.950187 C 13.212625 36.004875 13.247781 36.086906 13.267312 36.137687 C 13.286844 36.192375 13.322 36.274406 13.341531 36.329094 C 13.361062 36.379875 13.396219 36.465812 13.41575 36.5205 C 13.435281 36.571281 13.470437 36.657219 13.489969 36.708 C 13.5095 36.762687 13.54075 36.848625 13.564187 36.903312 C 13.583719 36.954094 13.614969 37.040031 13.638406 37.094719 C 13.657937 37.149406 13.689187 37.235344 13.712625 37.290031 C 13.732156 37.344719 13.763406 37.430656 13.786844 37.485344 C 13.806375 37.540031 13.837625 37.625969 13.857156 37.680656 C 13.880594 37.735344 13.911844 37.821281 13.931375 37.875969 C 13.954812 37.930656 13.986062 38.0205 14.005594 38.075187 C 14.029031 38.129875 14.060281 38.219719 14.079812 38.274406 C 14.10325 38.329094 14.1345 38.418937 14.154031 38.473625 C 14.173562 38.532219 14.208719 38.622062 14.22825 38.67675 C 14.247781 38.731437 14.282937 38.821281 14.302469 38.879875 C 14.322 38.934562 14.357156 39.024406 14.376687 39.083 C 14.396219 39.137687 14.431375 39.231437 14.450906 39.286125 C 14.470437 39.344719 14.505594 39.434562 14.525125 39.493156 C 14.544656 39.547844 14.579812 39.641594 14.599344 39.700187 C 14.618875 39.754875 14.650125 39.848625 14.673562 39.907219 C 14.693094 39.965812 14.724344 40.055656 14.747781 40.11425 C 14.767312 40.172844 14.798562 40.266594 14.822 40.325187 C 14.841531 40.383781 14.872781 40.477531 14.896219 40.536125 C 14.91575 40.594719 14.947 40.688469 14.966531 40.747062 C 14.989969 40.809562 15.021219 40.903312 15.04075 40.961906 C 15.064187 41.0205 15.095437 41.118156 15.114969 41.17675 C 15.138406 41.235344 15.169656 41.333 15.189187 41.391594 C 15.212625 41.450187 15.243875 41.547844 15.263406 41.606437 C 15.282937 41.668937 15.318094 41.766594 15.337625 41.825187 C 15.357156 41.887687 15.392312 41.985344 15.411844 42.043937 C 15.431375 42.106437 15.466531 42.204094 15.486062 42.266594 C 15.505594 42.325187 15.54075 42.422844 15.560281 42.485344 C 15.579812 42.547844 15.614969 42.6455 15.6345 42.708 C 15.654031 42.7705 15.689187 42.868156 15.708719 42.930656 C 15.72825 42.993156 15.763406 43.094719 15.782937 43.157219 C 15.802469 43.219719 15.833719 43.317375 15.857156 43.379875 C 15.876687 43.442375 15.907937 43.543937 15.931375 43.610344 C 15.950906 43.672844 15.982156 43.774406 16.005594 43.836906 C 16.025125 43.899406 16.056375 44.000969 16.075906 44.067375 C 16.099344 44.129875 16.130594 44.231437 16.150125 44.297844 C 16.173562 44.360344 16.204812 44.465812 16.224344 44.528312 C 16.247781 44.594719 16.279031 44.696281 16.298562 44.762687 C 16.322 44.825187 16.35325 44.930656 16.372781 44.997062 C 16.392312 45.059562 16.427469 45.165031 16.447 45.231437 C 16.466531 45.297844 16.501687 45.403312 16.521219 45.465812 C 16.54075 45.532219 16.575906 45.641594 16.595437 45.708 C 16.614969 45.7705 16.650125 45.875969 16.669656 45.946281 C 16.689187 46.012687 16.724344 46.118156 16.743875 46.184562 C 16.763406 46.250969 16.798562 46.360344 16.818094 46.42675 C 16.837625 46.493156 16.872781 46.602531 16.892312 46.668937 C 16.911844 46.735344 16.943094 46.844719 16.966531 46.915031 C 16.986062 46.981437 17.017312 47.090812 17.04075 47.161125 C 17.060281 47.227531 17.091531 47.336906 17.114969 47.407219 C 17.1345 47.473625 17.16575 47.586906 17.189187 47.653312 C 17.208719 47.723625 17.239969 47.833 17.2595 47.903312 C 17.282937 47.973625 17.314187 48.083 17.333719 48.153312 C 17.357156 48.223625 17.388406 48.336906 17.407937 48.407219 C 17.431375 48.477531 17.462625 48.586906 17.482156 48.657219 C 17.505594 48.727531 17.536844 48.844719 17.556375 48.915031 C 17.575906 48.985344 17.611062 49.098625 17.630594 49.168937 C 17.650125 49.23925 17.685281 49.356437 17.704812 49.42675 C 17.724344 49.497062 17.7595 49.61425 17.779031 49.684562 C 17.798562 49.758781 17.833719 49.872062 17.85325 49.946281 C 17.872781 50.0205 17.907937 50.133781 17.927469 50.208 C 17.947 50.282219 17.982156 50.3955 18.001687 50.469719 C 18.021219 50.543937 18.052469 50.661125 18.075906 50.735344 C 18.095437 50.805656 18.126687 50.92675 18.150125 51.000969 C 18.169656 51.075187 18.200906 51.192375 18.224344 51.266594 C 18.243875 51.340812 18.275125 51.461906 18.298562 51.536125 C 18.318094 51.610344 18.349344 51.727531 18.368875 51.805656 C 18.392312 51.879875 18.423562 52.000969 18.443094 52.075187 C 18.466531 52.149406 18.497781 52.2705 18.517312 52.348625 C 18.54075 52.422844 18.572 52.543937 18.591531 52.622062 C 18.614969 52.696281 18.646219 52.821281 18.66575 52.8955 C 18.685281 52.973625 18.720437 53.098625 18.739969 53.172844 C 18.7595 53.250969 18.794656 53.375969 18.814187 53.454094 C 18.833719 53.528312 18.868875 53.653312 18.888406 53.731437 C 18.907937 53.809562 18.943094 53.934562 18.962625 54.012687 C 18.982156 54.090812 19.017312 54.215812 19.036844 54.293937 C 19.056375 54.372062 19.091531 54.500969 19.111062 54.579094 C 19.130594 54.657219 19.16575 54.786125 19.185281 54.86425 C 19.204812 54.942375 19.236062 55.071281 19.2595 55.153312 C 19.279031 55.231437 19.310281 55.360344 19.333719 55.442375 C 19.35325 55.5205 19.3845 55.649406 19.407937 55.731437 C 19.427469 55.809562 19.458719 55.942375 19.482156 56.0205 C 19.501687 56.102531 19.532937 56.235344 19.552469 56.313469 C 19.575906 56.3955 19.607156 56.528312 19.626687 56.610344 C 19.650125 56.692375 19.681375 56.825187 19.700906 56.907219 C 19.724344 56.98925 19.755594 57.122062 19.775125 57.204094 C 19.794656 57.286125 19.829812 57.418937 19.849344 57.504875 C 19.868875 57.586906 19.904031 57.719719 19.923562 57.805656 C 19.943094 57.887687 19.97825 58.0205 19.997781 58.106437 C 20.017312 58.188469 20.052469 58.325187 20.072 58.411125 C 20.091531 58.497062 20.126687 58.633781 20.146219 58.715812 C 20.16575 58.80175 20.200906 58.938469 20.220437 59.024406 C 20.239969 59.110344 20.275125 59.247062 20.294656 59.333 C 20.314187 59.418937 20.345437 59.555656 20.368875 59.641594 C 20.388406 59.727531 20.419656 59.868156 20.443094 59.954094 C 20.462625 60.043937 20.493875 60.180656 20.517312 60.2705 C 20.536844 60.356437 20.568094 60.497062 20.591531 60.583 C 20.611062 60.672844 20.642312 60.813469 20.661844 60.899406 C 20.685281 60.98925 20.716531 61.129875 20.736062 61.219719 C 20.7595 61.309562 20.79075 61.450187 20.810281 61.540031 C 20.833719 61.629875 20.864969 61.7705 20.8845 61.860344 C 20.907937 61.950187 20.939187 62.094719 20.958719 62.184562 C 20.97825 62.274406 21.013406 62.418937 21.032937 62.508781 C 21.052469 62.602531 21.087625 62.747062 21.107156 62.836906 C 21.126687 62.92675 21.161844 63.075187 21.181375 63.165031 C 21.200906 63.258781 21.236062 63.403312 21.255594 63.497062 C 21.275125 63.590812 21.310281 63.735344 21.329812 63.829094 C 21.349344 63.922844 21.3845 64.071281 21.404031 64.165031 C 21.423562 64.254875 21.454812 64.407219 21.47825 64.497062 C 21.497781 64.590812 21.529031 64.743156 21.552469 64.836906 C 21.572 64.930656 21.60325 65.083 21.626687 65.17675 C 21.646219 65.2705 21.677469 65.422844 21.700906 65.516594 C 21.720437 65.610344 21.751687 65.762687 21.771219 65.860344 C 21.794656 65.954094 21.825906 66.106437 21.845437 66.204094 C 21.868875 66.297844 21.900125 66.454094 21.919656 66.55175 C 21.943094 66.6455 21.974344 66.80175 21.993875 66.899406 C 22.017312 66.997062 22.048562 67.153312 22.068094 67.250969 C 22.087625 67.348625 22.122781 67.504875 22.142312 67.602531 C 22.161844 67.700187 22.197 67.856437 22.216531 67.954094 C 22.236062 68.05175 22.271219 68.211906 22.29075 68.309562 C 22.310281 68.407219 22.345437 68.567375 22.364969 68.668937 C 22.3845 68.766594 22.419656 68.92675 22.439187 69.028312 C 22.458719 69.125969 22.493875 69.286125 22.513406 69.387687 C 22.532937 69.48925 22.568094 69.649406 22.587625 69.750969 C 22.607156 69.852531 22.638406 70.012687 22.661844 70.11425 C 22.681375 70.215812 22.712625 70.379875 22.736062 70.481437 C 22.755594 70.583 22.810281 70.852531 22.810281 70.852531 " transform="matrix(1, 0, 0, -1, 24.803, 88.583)"/>
<g clip-path="url(#clip-0)">
<path fill="none" stroke-width="1.59404" stroke-linecap="butt" stroke-linejoin="miter" stroke="rgb(50%, 50%, 50%)" stroke-opacity="1" stroke-miterlimit="10" d="M 5.212625 -14.178719 C 5.212625 -14.178719 5.306375 -13.920906 5.345437 -13.82325 C 5.380594 -13.725594 5.439187 -13.57325 5.474344 -13.4795 C 5.513406 -13.38575 5.572 -13.237313 5.607156 -13.143563 C 5.642312 -13.049813 5.700906 -12.905281 5.739969 -12.815438 C 5.775125 -12.725594 5.833719 -12.581063 5.868875 -12.495125 C 5.907937 -12.405281 5.966531 -12.264656 6.001687 -12.178719 C 6.036844 -12.092781 6.095437 -11.956063 6.1345 -11.874031 C 6.169656 -11.788094 6.22825 -11.655281 6.263406 -11.57325 C 6.302469 -11.491219 6.361062 -11.358406 6.396219 -11.280281 C 6.431375 -11.19825 6.489969 -11.069344 6.529031 -10.991219 C 6.564187 -10.909188 6.622781 -10.784188 6.657937 -10.706063 C 6.697 -10.627938 6.755594 -10.506844 6.79075 -10.432625 C 6.825906 -10.3545 6.8845 -10.233406 6.923562 -10.159188 C 6.958719 -10.084969 7.017312 -9.967781 7.052469 -9.893563 C 7.091531 -9.819344 7.150125 -9.702156 7.185281 -9.627938 C 7.220437 -9.557625 7.279031 -9.440438 7.318094 -9.370125 C 7.35325 -9.299813 7.411844 -9.186531 7.447 -9.120125 C 7.486062 -9.049813 7.544656 -8.940438 7.579812 -8.870125 C 7.614969 -8.803719 7.673562 -8.694344 7.712625 -8.627938 C 7.747781 -8.561531 7.806375 -8.452156 7.841531 -8.38575 C 7.880594 -8.32325 7.939187 -8.217781 7.974344 -8.151375 C 8.0095 -8.088875 8.068094 -7.983406 8.107156 -7.920906 C 8.142312 -7.8545 8.200906 -7.752938 8.236062 -7.690438 C 8.275125 -7.627938 8.333719 -7.530281 8.368875 -7.467781 C 8.404031 -7.405281 8.462625 -7.307625 8.501687 -7.245125 C 8.536844 -7.186531 8.595437 -7.088875 8.630594 -7.030281 C 8.669656 -6.967781 8.72825 -6.874031 8.763406 -6.815438 C 8.798562 -6.756844 8.857156 -6.663094 8.896219 -6.6045 C 8.931375 -6.545906 8.989969 -6.452156 9.025125 -6.393563 C 9.064187 -6.338875 9.122781 -6.245125 9.157937 -6.190438 C 9.193094 -6.13575 9.251687 -6.045906 9.29075 -5.987313 C 9.325906 -5.932625 9.3845 -5.842781 9.419656 -5.788094 C 9.458719 -5.733406 9.517312 -5.647469 9.552469 -5.592781 C 9.587625 -5.538094 9.646219 -5.452156 9.685281 -5.397469 C 9.720437 -5.346688 9.779031 -5.26075 9.814187 -5.206063 C 9.85325 -5.155281 9.911844 -5.069344 9.947 -5.018563 C 9.982156 -4.967781 10.04075 -4.88575 10.079812 -4.834969 C 10.114969 -4.780281 10.173562 -4.702156 10.208719 -4.651375 C 10.247781 -4.600594 10.306375 -4.518563 10.341531 -4.467781 C 10.376687 -4.417 10.435281 -4.338875 10.474344 -4.288094 C 10.5095 -4.241219 10.568094 -4.163094 10.60325 -4.112313 C 10.642312 -4.065438 10.700906 -3.987313 10.736062 -3.936531 C 10.771219 -3.889656 10.829812 -3.811531 10.868875 -3.764656 C 10.904031 -3.717781 10.962625 -3.643563 10.997781 -3.596688 C 11.036844 -3.549813 11.095437 -3.475594 11.130594 -3.428719 C 11.16575 -3.381844 11.224344 -3.307625 11.263406 -3.26075 C 11.298562 -3.213875 11.357156 -3.139656 11.392312 -3.096688 C 11.431375 -3.049813 11.489969 -2.9795 11.525125 -2.932625 C 11.560281 -2.889656 11.618875 -2.815438 11.657937 -2.772469 C 11.693094 -2.7295 11.751687 -2.655281 11.786844 -2.612313 C 11.825906 -2.569344 11.880594 -2.499031 11.919656 -2.456063 C 11.954812 -2.413094 12.013406 -2.342781 12.048562 -2.299813 C 12.087625 -2.256844 12.146219 -2.190438 12.181375 -2.147469 C 12.216531 -2.1045 12.275125 -2.034188 12.314187 -1.995125 C 12.349344 -1.952156 12.407937 -1.88575 12.443094 -1.846688 C 12.482156 -1.803719 12.54075 -1.737313 12.575906 -1.694344 C 12.611062 -1.655281 12.669656 -1.588875 12.708719 -1.549813 C 12.743875 -1.506844 12.802469 -1.440438 12.837625 -1.401375 C 12.876687 -1.362313 12.935281 -1.299813 12.970437 -1.26075 C 13.005594 -1.217781 13.064187 -1.155281 13.10325 -1.112313 C 13.138406 -1.07325 13.197 -1.01075 13.232156 -0.971688 C 13.271219 -0.932625 13.329812 -0.874031 13.364969 -0.834969 C 13.400125 -0.795906 13.458719 -0.733406 13.497781 -0.694344 C 13.532937 -0.659188 13.591531 -0.596688 13.626687 -0.557625 C 13.66575 -0.518563 13.724344 -0.459969 13.7595 -0.420906 C 13.794656 -0.38575 13.85325 -0.327156 13.892312 -0.288094 C 13.927469 -0.249031 13.986062 -0.190438 14.021219 -0.151375 C 14.060281 -0.116219 14.118875 -0.057625 14.154031 -0.0224688 C 14.189187 0.0165937 14.247781 0.0751875 14.286844 0.110344 C 14.322 0.149406 14.380594 0.204094 14.41575 0.243156 C 14.454812 0.278312 14.513406 0.333 14.548562 0.372062 C 14.583719 0.407219 14.642312 0.461906 14.681375 0.497062 C 14.716531 0.532219 14.775125 0.590812 14.810281 0.625969 C 14.849344 0.657219 14.907937 0.715812 14.943094 0.750969 C 14.97825 0.782219 15.036844 0.840812 15.075906 0.872062 C 15.111062 0.907219 15.169656 0.961906 15.204812 0.997062 C 15.243875 1.032219 15.302469 1.083 15.337625 1.118156 C 15.372781 1.153312 15.431375 1.208 15.470437 1.23925 C 15.505594 1.274406 15.564187 1.325187 15.599344 1.360344 C 15.638406 1.391594 15.697 1.446281 15.732156 1.477531 C 15.767312 1.512687 15.825906 1.563469 15.864969 1.598625 C 15.900125 1.629875 15.958719 1.680656 15.993875 1.711906 C 16.032937 1.747062 16.091531 1.797844 16.126687 1.829094 C 16.161844 1.860344 16.220437 1.915031 16.2595 1.946281 C 16.294656 1.977531 16.35325 2.028312 16.388406 2.059562 C 16.427469 2.090812 16.486062 2.141594 16.521219 2.172844 C 16.556375 2.204094 16.614969 2.254875 16.654031 2.286125 C 16.689187 2.317375 16.747781 2.36425 16.782937 2.3955 C 16.822 2.42675 16.880594 2.477531 16.91575 2.504875 C 16.950906 2.536125 17.0095 2.586906 17.048562 2.618156 C 17.083719 2.6455 17.142312 2.696281 17.177469 2.723625 C 17.216531 2.754875 17.275125 2.80175 17.310281 2.833 C 17.345437 2.86425 17.404031 2.911125 17.443094 2.942375 C 17.47825 2.969719 17.536844 3.016594 17.572 3.047844 C 17.611062 3.075187 17.669656 3.122062 17.704812 3.153312 C 17.739969 3.180656 17.798562 3.227531 17.837625 3.258781 C 17.872781 3.286125 17.931375 3.333 17.966531 3.360344 C 18.005594 3.391594 18.064187 3.438469 18.099344 3.465812 C 18.1345 3.493156 18.193094 3.540031 18.232156 3.567375 C 18.267312 3.594719 18.325906 3.641594 18.361062 3.668937 C 18.400125 3.696281 18.458719 3.743156 18.493875 3.7705 C 18.529031 3.797844 18.587625 3.844719 18.626687 3.872062 C 18.661844 3.899406 18.720437 3.942375 18.755594 3.969719 C 18.794656 3.997062 18.85325 4.043937 18.888406 4.071281 C 18.923562 4.098625 18.982156 4.141594 19.021219 4.168937 C 19.056375 4.196281 19.114969 4.23925 19.150125 4.266594 C 19.189187 4.293937 19.247781 4.336906 19.282937 4.36425 C 19.318094 4.387687 19.376687 4.430656 19.41575 4.458 C 19.450906 4.485344 19.5095 4.528312 19.544656 4.555656 C 19.583719 4.583 19.642312 4.622062 19.677469 4.649406 C 19.712625 4.67675 19.771219 4.719719 19.810281 4.743156 C 19.845437 4.7705 19.904031 4.813469 19.939187 4.836906 C 19.97825 4.86425 20.036844 4.903312 20.072 4.930656 C 20.107156 4.958 20.16575 4.997062 20.204812 5.024406 C 20.239969 5.047844 20.298562 5.090812 20.333719 5.11425 C 20.372781 5.141594 20.431375 5.180656 20.466531 5.208 C 20.501687 5.231437 20.560281 5.2705 20.599344 5.297844 C 20.6345 5.321281 20.693094 5.36425 20.72825 5.387687 C 20.767312 5.411125 20.822 5.450187 20.861062 5.477531 C 20.896219 5.500969 20.954812 5.540031 20.989969 5.567375 C 21.029031 5.590812 21.087625 5.629875 21.122781 5.653312 C 21.161844 5.680656 21.216531 5.719719 21.255594 5.743156 C 21.29075 5.766594 21.349344 5.805656 21.3845 5.829094 C 21.423562 5.856437 21.482156 5.891594 21.517312 5.915031 C 21.552469 5.942375 21.611062 5.977531 21.650125 6.004875 C 21.685281 6.028312 21.743875 6.063469 21.779031 6.086906 C 21.818094 6.11425 21.876687 6.149406 21.911844 6.172844 C 21.947 6.196281 22.005594 6.235344 22.044656 6.258781 C 22.079812 6.282219 22.138406 6.321281 22.173562 6.344719 C 22.212625 6.368156 22.271219 6.403312 22.306375 6.42675 C 22.341531 6.450187 22.400125 6.48925 22.439187 6.508781 C 22.474344 6.532219 22.532937 6.571281 22.568094 6.594719 C 22.607156 6.618156 22.66575 6.653312 22.700906 6.67675 C 22.736062 6.700187 22.794656 6.735344 22.833719 6.758781 C 22.868875 6.778312 22.927469 6.817375 22.962625 6.836906 C 23.001687 6.860344 23.060281 6.8955 23.095437 6.918937 C 23.130594 6.942375 23.189187 6.977531 23.22825 7.000969 C 23.263406 7.024406 23.322 7.059562 23.357156 7.079094 C 23.396219 7.102531 23.454812 7.137687 23.489969 7.161125 C 23.525125 7.180656 23.583719 7.215812 23.622781 7.23925 C 23.657937 7.262687 23.716531 7.293937 23.751687 7.317375 C 23.79075 7.336906 23.849344 7.372062 23.8845 7.3955 C 23.919656 7.415031 23.97825 7.450187 24.017312 7.473625 C 24.052469 7.493156 24.111062 7.528312 24.146219 7.55175 C 24.185281 7.571281 24.243875 7.606437 24.279031 7.629875 C 24.314187 7.649406 24.372781 7.684562 24.411844 7.704094 C 24.447 7.723625 24.505594 7.758781 24.54075 7.782219 C 24.579812 7.80175 24.638406 7.836906 24.673562 7.856437 C 24.708719 7.875969 24.767312 7.911125 24.806375 7.930656 C 24.841531 7.954094 24.900125 7.985344 24.935281 8.004875 C 24.974344 8.028312 25.032937 8.059562 25.068094 8.083 C 25.10325 8.102531 25.161844 8.133781 25.200906 8.157219 C 25.236062 8.17675 25.294656 8.208 25.329812 8.227531 C 25.368875 8.250969 25.427469 8.282219 25.462625 8.30175 C 25.497781 8.321281 25.556375 8.356437 25.595437 8.375969 C 25.630594 8.3955 25.689187 8.42675 25.724344 8.446281 C 25.763406 8.465812 25.822 8.497062 25.857156 8.5205 C 25.892312 8.540031 25.950906 8.571281 25.989969 8.590812 C 26.025125 8.61425 26.083719 8.6455 26.118875 8.665031 C 26.157937 8.684562 26.216531 8.715812 26.251687 8.735344 C 26.286844 8.754875 26.345437 8.786125 26.3845 8.805656 C 26.419656 8.825187 26.47825 8.856437 26.513406 8.875969 C 26.552469 8.8955 26.611062 8.92675 26.646219 8.946281 C 26.681375 8.965812 26.739969 8.997062 26.779031 9.016594 C 26.814187 9.036125 26.872781 9.067375 26.907937 9.086906 C 26.947 9.106437 27.005594 9.133781 27.04075 9.153312 C 27.075906 9.172844 27.1345 9.204094 27.173562 9.223625 C 27.208719 9.243156 27.267312 9.2705 27.302469 9.290031 C 27.341531 9.309562 27.400125 9.340812 27.435281 9.360344 C 27.470437 9.375969 27.529031 9.407219 27.568094 9.42675 C 27.60325 9.442375 27.661844 9.477531 27.697 9.493156 C 27.736062 9.512687 27.794656 9.543937 27.829812 9.559562 C 27.864969 9.579094 27.923562 9.610344 27.962625 9.629875 C 27.997781 9.6455 28.056375 9.67675 28.091531 9.696281 C 28.130594 9.711906 28.189187 9.743156 28.224344 9.758781 C 28.2595 9.778312 28.318094 9.809562 28.357156 9.829094 C 28.392312 9.848625 28.450906 9.875969 28.486062 9.8955 C 28.525125 9.911125 28.583719 9.942375 28.618875 9.958 C 28.654031 9.977531 28.712625 10.004875 28.751687 10.024406 C 28.786844 10.043937 28.845437 10.071281 28.880594 10.086906 C 28.919656 10.106437 28.97825 10.133781 29.013406 10.153312 C 29.048562 10.172844 29.107156 10.200187 29.146219 10.215812 C 29.181375 10.235344 29.239969 10.262687 29.275125 10.282219 C 29.314187 10.297844 29.372781 10.325187 29.407937 10.344719 C 29.443094 10.360344 29.501687 10.391594 29.54075 10.407219 C 29.575906 10.42675 29.6345 10.454094 29.669656 10.469719 C 29.708719 10.48925 29.767312 10.516594 29.802469 10.532219 C 29.837625 10.55175 29.896219 10.579094 29.935281 10.594719 C 29.970437 10.61425 30.029031 10.641594 30.064187 10.657219 C 30.10325 10.67675 30.157937 10.704094 30.197 10.719719 C 30.232156 10.735344 30.29075 10.762687 30.325906 10.782219 C 30.364969 10.797844 30.423562 10.825187 30.458719 10.840812 C 30.493875 10.860344 30.552469 10.887687 30.591531 10.903312 C 30.626687 10.918937 30.685281 10.946281 30.720437 10.965812 C 30.7595 10.981437 30.818094 11.008781 30.85325 11.024406 C 30.888406 11.040031 30.947 11.067375 30.986062 11.086906 C 31.021219 11.102531 31.079812 11.129875 31.114969 11.1455 C 31.154031 11.161125 31.212625 11.188469 31.247781 11.204094 C 31.282937 11.219719 31.341531 11.247062 31.380594 11.266594 C 31.41575 11.282219 31.474344 11.305656 31.5095 11.325187 C 31.548562 11.340812 31.607156 11.368156 31.642312 11.383781 C 31.677469 11.399406 31.736062 11.42675 31.775125 11.442375 C 31.810281 11.458 31.868875 11.485344 31.904031 11.500969 C 31.943094 11.516594 32.001688 11.543937 32.036844 11.559562 C 32.072 11.575187 32.130594 11.598625 32.169656 11.618156 C 32.204813 11.633781 32.263406 11.657219 32.298563 11.672844 C 32.337625 11.692375 32.396219 11.715812 32.431375 11.731437 C 32.466531 11.747062 32.525125 11.774406 32.564188 11.790031 C 32.599344 11.805656 32.657938 11.829094 32.693094 11.844719 C 32.732156 11.86425 32.79075 11.887687 32.825906 11.903312 C 32.861063 11.918937 32.919656 11.946281 32.958719 11.961906 C 32.993875 11.977531 33.052469 12.000969 33.087625 12.016594 C 33.126688 12.032219 33.185281 12.055656 33.220438 12.071281 C 33.255594 12.086906 33.314188 12.11425 33.35325 12.129875 C 33.388406 12.1455 33.447 12.168937 33.482156 12.184562 C 33.521219 12.200187 33.579813 12.223625 33.614969 12.23925 C 33.650125 12.254875 33.708719 12.278312 33.747781 12.293937 C 33.782938 12.309562 33.841531 12.333 33.876688 12.348625 C 33.91575 12.36425 33.974344 12.391594 34.0095 12.407219 C 34.044656 12.418937 34.10325 12.446281 34.142313 12.461906 C 34.177469 12.473625 34.236063 12.500969 34.271219 12.512687 C 34.310281 12.528312 34.368875 12.555656 34.404031 12.567375 C 34.439188 12.583 34.497781 12.606437 34.536844 12.622062 C 34.572 12.637687 34.630594 12.661125 34.66575 12.67675 C 34.704813 12.692375 34.763406 12.715812 34.798563 12.731437 C 34.833719 12.747062 34.892313 12.7705 34.931375 12.782219 C 34.966531 12.797844 35.025125 12.821281 35.060281 12.836906 C 35.099344 12.852531 35.157938 12.875969 35.193094 12.891594 C 35.22825 12.903312 35.286844 12.92675 35.325906 12.942375 C 35.361063 12.958 35.419656 12.981437 35.454813 12.997062 C 35.493875 13.008781 35.552469 13.032219 35.587625 13.047844 C 35.622781 13.063469 35.681375 13.086906 35.720438 13.098625 C 35.755594 13.11425 35.814188 13.137687 35.849344 13.153312 C 35.888406 13.165031 35.947 13.188469 35.982156 13.204094 C 36.017313 13.219719 36.075906 13.243156 36.114969 13.254875 C 36.150125 13.2705 36.208719 13.293937 36.243875 13.309562 C 36.282938 13.321281 36.341531 13.344719 36.376688 13.360344 C 36.411844 13.372062 36.470438 13.3955 36.5095 13.411125 C 36.544656 13.422844 36.60325 13.446281 36.638406 13.461906 C 36.677469 13.473625 36.736063 13.497062 36.771219 13.512687 C 36.806375 13.524406 36.864969 13.547844 36.904031 13.563469 C 36.939188 13.575187 36.997781 13.598625 37.032938 13.61425 C 37.072 13.625969 37.130594 13.649406 37.16575 13.661125 C 37.200906 13.67675 37.2595 13.700187 37.298563 13.711906 C 37.333719 13.727531 37.392313 13.747062 37.427469 13.762687 C 37.466531 13.778312 37.525125 13.797844 37.560281 13.813469 C 37.595438 13.825187 37.654031 13.848625 37.693094 13.860344 C 37.72825 13.875969 37.786844 13.899406 37.822 13.911125 C 37.861063 13.92675 37.919656 13.946281 37.954813 13.961906 C 37.989969 13.973625 38.048563 13.997062 38.087625 14.008781 C 38.122781 14.024406 38.181375 14.043937 38.216531 14.059562 C 38.255594 14.071281 38.314188 14.094719 38.349344 14.106437 C 38.3845 14.122062 38.443094 14.141594 38.482156 14.157219 C 38.517313 14.168937 38.575906 14.192375 38.611063 14.204094 C 38.650125 14.215812 38.708719 14.23925 38.743875 14.250969 C 38.779031 14.266594 38.837625 14.286125 38.876688 14.30175 C 38.911844 14.313469 38.970438 14.333 39.005594 14.348625 C 39.044656 14.360344 39.099344 14.383781 39.138406 14.3955 C 39.173563 14.407219 39.232156 14.430656 39.267313 14.442375 C 39.306375 14.458 39.364969 14.477531 39.400125 14.48925 C 39.435281 14.504875 39.493875 14.524406 39.532938 14.536125 C 39.568094 14.55175 39.626688 14.571281 39.661844 14.583 C 39.700906 14.598625 39.7595 14.618156 39.794656 14.633781 C 39.829813 14.6455 39.888406 14.665031 39.927469 14.680656 C 39.962625 14.692375 40.021219 14.711906 40.056375 14.723625 C 40.095438 14.73925 40.154031 14.758781 40.189188 14.7705 C 40.224344 14.786125 40.282938 14.805656 40.322 14.817375 C 40.357156 14.829094 40.41575 14.852531 40.450906 14.86425 C 40.489969 14.875969 40.548563 14.8955 40.583719 14.911125 C 40.618875 14.922844 40.677469 14.942375 40.716531 14.954094 C 40.751688 14.969719 40.810281 14.98925 40.845438 15.000969 C 40.8845 15.012687 40.943094 15.036125 40.97825 15.047844 C 41.013406 15.059562 41.072 15.079094 41.111063 15.090812 C 41.146219 15.106437 41.204813 15.125969 41.239969 15.137687 C 41.279031 15.149406 41.337625 15.168937 41.372781 15.180656 C 41.407938 15.196281 41.466531 15.215812 41.505594 15.227531 C 41.54075 15.23925 41.599344 15.258781 41.6345 15.274406 C 41.673563 15.286125 41.732156 15.305656 41.767313 15.317375 C 41.802469 15.329094 41.861063 15.348625 41.900125 15.360344 C 41.935281 15.375969 41.993875 15.3955 42.029031 15.407219 C 42.068094 15.418937 42.126688 15.438469 42.161844 15.450187 C 42.197 15.461906 42.255594 15.481437 42.294656 15.493156 C 42.329813 15.504875 42.388406 15.528312 42.423563 15.540031 C 42.462625 15.55175 42.521219 15.571281 42.556375 15.583 C 42.591531 15.594719 42.650125 15.61425 42.689188 15.625969 C 42.724344 15.637687 42.782938 15.657219 42.818094 15.668937 C 42.857156 15.680656 42.91575 15.700187 42.950906 15.711906 C 42.986063 15.723625 43.044656 15.743156 43.083719 15.754875 C 43.118875 15.766594 43.177469 15.786125 43.212625 15.797844 C 43.251688 15.809562 43.310281 15.833 43.345438 15.844719 C 43.380594 15.856437 43.439188 15.875969 43.47825 15.887687 C 43.513406 15.899406 43.572 15.915031 43.607156 15.92675 C 43.646219 15.942375 43.704813 15.958 43.739969 15.969719 C 43.775125 15.981437 43.833719 16.000969 43.872781 16.012687 C 43.907938 16.024406 43.966531 16.043937 44.001688 16.055656 C 44.04075 16.067375 44.099344 16.086906 44.1345 16.098625 C 44.169656 16.110344 44.22825 16.129875 44.267313 16.141594 C 44.302469 16.153312 44.361063 16.168937 44.396219 16.180656 C 44.435281 16.192375 44.493875 16.211906 44.529031 16.223625 C 44.564188 16.235344 44.622781 16.254875 44.661844 16.266594 C 44.697 16.278312 44.755594 16.297844 44.79075 16.309562 C 44.829813 16.321281 44.888406 16.336906 44.923563 16.348625 C 44.958719 16.360344 45.017313 16.379875 45.056375 16.391594 C 45.091531 16.403312 45.150125 16.418937 45.185281 16.430656 C 45.224344 16.442375 45.282938 16.461906 45.318094 16.473625 C 45.35325 16.485344 45.411844 16.504875 45.450906 16.516594 C 45.486063 16.524406 45.544656 16.543937 45.579813 16.555656 C 45.618875 16.567375 45.677469 16.583 45.712625 16.594719 C 45.747781 16.606437 45.806375 16.625969 45.845438 16.637687 C 45.880594 16.649406 45.939188 16.665031 45.974344 16.67675 C 46.013406 16.688469 46.072 16.708 46.107156 16.719719 C 46.142313 16.727531 46.200906 16.747062 46.239969 16.758781 C 46.275125 16.7705 46.333719 16.786125 46.368875 16.797844 C 46.407938 16.809562 46.466531 16.825187 46.501688 16.836906 C 46.536844 16.848625 46.595438 16.868156 46.6345 16.879875 C 46.669656 16.891594 46.72825 16.907219 46.763406 16.918937 C 46.802469 16.930656 46.861063 16.946281 46.896219 16.958 C 46.931375 16.969719 46.989969 16.98925 47.029031 16.997062 C 47.064188 17.008781 47.122781 17.028312 47.157938 17.040031 C 47.197 17.047844 47.255594 17.067375 47.29075 17.079094 C 47.325906 17.086906 47.3845 17.106437 47.423563 17.118156 C 47.458719 17.125969 47.517313 17.1455 47.552469 17.157219 C 47.591531 17.165031 47.650125 17.184562 47.685281 17.196281 C 47.720438 17.204094 47.779031 17.223625 47.818094 17.235344 C 47.85325 17.243156 47.911844 17.262687 47.947 17.274406 C 47.986063 17.282219 48.04075 17.30175 48.079813 17.313469 C 48.114969 17.321281 48.173563 17.340812 48.208719 17.348625 C 48.247781 17.360344 48.306375 17.379875 48.341531 17.387687 C 48.380594 17.399406 48.435281 17.415031 48.474344 17.42675 C 48.5095 17.438469 48.568094 17.454094 48.60325 17.465812 C 48.642313 17.477531 48.700906 17.493156 48.736063 17.500969 C 48.771219 17.512687 48.829813 17.532219 48.868875 17.543937 C 48.904031 17.555656 48.962625 17.571281 48.997781 17.579094 C 49.036844 17.590812 49.095438 17.606437 49.130594 17.618156 C 49.16575 17.629875 49.224344 17.6455 49.263406 17.657219 C 49.298563 17.668937 49.357156 17.684562 49.392313 17.696281 C 49.431375 17.704094 49.489969 17.719719 49.525125 17.731437 C 49.560281 17.743156 49.618875 17.758781 49.657938 17.7705 C 49.693094 17.778312 49.751688 17.797844 49.786844 17.805656 C 49.825906 17.817375 49.8845 17.833 49.919656 17.844719 C 49.954813 17.852531 50.013406 17.872062 50.052469 17.879875 C 50.087625 17.891594 50.146219 17.907219 50.181375 17.918937 C 50.220438 17.92675 50.279031 17.946281 50.314188 17.954094 C 50.349344 17.965812 50.407938 17.981437 50.447 17.993156 C 50.482156 18.000969 50.54075 18.016594 50.575906 18.028312 C 50.614969 18.040031 50.673563 18.055656 50.708719 18.067375 C 50.743875 18.075187 50.802469 18.094719 50.841531 18.102531 C 50.876688 18.11425 50.935281 18.129875 50.970438 18.141594 C 51.0095 18.149406 51.068094 18.165031 51.10325 18.17675 C 51.138406 18.184562 51.197 18.204094 51.236063 18.211906 C 51.271219 18.223625 51.329813 18.23925 51.364969 18.247062 C 51.404031 18.258781 51.462625 18.274406 51.497781 18.286125 C 51.532938 18.293937 51.591531 18.309562 51.630594 18.321281 C 51.66575 18.329094 51.724344 18.344719 51.7595 18.356437 C 51.798563 18.368156 51.857156 18.383781 51.892313 18.391594 C 51.927469 18.403312 51.986063 18.418937 52.025125 18.42675 C 52.060281 18.438469 52.118875 18.454094 52.154031 18.465812 C 52.193094 18.473625 52.251688 18.48925 52.286844 18.500969 C 52.322 18.508781 52.380594 18.524406 52.419656 18.536125 C 52.454813 18.543937 52.513406 18.563469 52.548563 18.571281 C 52.587625 18.583 52.646219 18.598625 52.681375 18.606437 C 52.716531 18.618156 52.775125 18.633781 52.814188 18.641594 C 52.849344 18.653312 52.907938 18.668937 52.943094 18.67675 C 52.982156 18.688469 53.04075 18.704094 53.075906 18.711906 C 53.111063 18.723625 53.169656 18.73925 53.208719 18.747062 C 53.243875 18.754875 53.302469 18.774406 53.337625 18.782219 C 53.376688 18.793937 53.435281 18.809562 53.470438 18.817375 C 53.505594 18.825187 53.564188 18.840812 53.60325 18.852531 C 53.638406 18.860344 53.697 18.875969 53.732156 18.887687 C 53.771219 18.8955 53.829813 18.911125 53.864969 18.922844 C 53.900125 18.930656 53.958719 18.946281 53.997781 18.954094 C 54.032938 18.965812 54.091531 18.977531 54.126688 18.98925 C 54.16575 18.997062 54.224344 19.016594 54.2595 19.024406 C 54.294656 19.036125 54.35325 19.05175 54.392313 19.059562 C 54.427469 19.067375 54.486063 19.083 54.521219 19.094719 C 54.560281 19.102531 54.618875 19.118156 54.654031 19.129875 C 54.689188 19.137687 54.747781 19.153312 54.786844 19.161125 C 54.822 19.172844 54.880594 19.184562 54.91575 19.196281 C 54.954813 19.204094 55.013406 19.219719 55.048563 19.227531 C 55.083719 19.23925 55.142313 19.250969 55.181375 19.262687 C 55.216531 19.2705 55.275125 19.286125 55.310281 19.297844 C 55.349344 19.305656 55.407938 19.321281 55.443094 19.329094 C 55.47825 19.336906 55.536844 19.352531 55.575906 19.36425 C 55.611063 19.372062 55.669656 19.387687 55.704813 19.3955 C 55.743875 19.407219 55.802469 19.418937 55.837625 19.430656 C 55.872781 19.438469 55.931375 19.454094 55.970438 19.461906 C 56.005594 19.473625 56.064188 19.48925 56.099344 19.497062 C 56.138406 19.508781 56.197 19.5205 56.232156 19.532219 C 56.267313 19.540031 56.325906 19.555656 56.364969 19.563469 C 56.400125 19.575187 56.458719 19.586906 56.493875 19.598625 C 56.532938 19.606437 56.591531 19.622062 56.626688 19.629875 C 56.661844 19.637687 56.720438 19.653312 56.7595 19.665031 C 56.794656 19.672844 56.85325 19.688469 56.888406 19.696281 C 56.927469 19.708 56.986063 19.719719 57.021219 19.731437 C 57.056375 19.73925 57.114969 19.754875 57.154031 19.762687 C 57.189188 19.7705 57.247781 19.786125 57.282938 19.793937 C 57.322 19.805656 57.376688 19.817375 57.41575 19.829094 C 57.450906 19.836906 57.5095 19.852531 57.544656 19.860344 C 57.583719 19.868156 57.642313 19.883781 57.677469 19.891594 C 57.712625 19.899406 57.771219 19.915031 57.810281 19.922844 C 57.845438 19.934562 57.904031 19.946281 57.939188 19.958 C 57.97825 19.965812 58.036844 19.981437 58.072 19.98925 C 58.107156 19.997062 58.16575 20.012687 58.204813 20.0205 C 58.239969 20.028312 58.298563 20.043937 58.333719 20.05175 C 58.372781 20.063469 58.431375 20.075187 58.466531 20.083 C 58.501688 20.094719 58.560281 20.106437 58.599344 20.118156 C 58.6345 20.125969 58.693094 20.137687 58.72825 20.149406 C 58.767313 20.157219 58.825906 20.172844 58.861063 20.180656 C 58.896219 20.188469 58.954813 20.204094 58.993875 20.211906 C 59.029031 20.219719 59.087625 20.235344 59.122781 20.243156 C 59.161844 20.250969 59.220438 20.266594 59.255594 20.274406 C 59.29075 20.282219 59.349344 20.297844 59.388406 20.305656 C 59.423563 20.313469 59.482156 20.329094 59.517313 20.336906 C 59.556375 20.344719 59.614969 20.360344 59.650125 20.368156 C 59.685281 20.375969 59.743875 20.391594 59.782938 20.399406 C 59.818094 20.407219 59.876688 20.422844 59.911844 20.430656 C 59.950906 20.438469 60.0095 20.454094 60.044656 20.461906 C 60.079813 20.469719 60.138406 20.485344 60.177469 20.493156 C 60.212625 20.500969 60.271219 20.516594 60.306375 20.524406 C 60.345438 20.532219 60.404031 20.547844 60.439188 20.555656 C 60.474344 20.563469 60.532938 20.575187 60.572 20.586906 C 60.607156 20.594719 60.66575 20.606437 60.700906 20.618156 C 60.739969 20.625969 60.798563 20.637687 60.833719 20.6455 C 60.868875 20.657219 60.927469 20.668937 60.966531 20.67675 C 61.001688 20.684562 61.060281 20.700187 61.095438 20.708 C 61.1345 20.715812 61.193094 20.731437 61.22825 20.73925 C 61.263406 20.747062 61.322 20.758781 61.361063 20.7705 C 61.396219 20.778312 61.454813 20.790031 61.489969 20.797844 C 61.529031 20.809562 61.587625 20.821281 61.622781 20.829094 C 61.657938 20.836906 61.716531 20.852531 61.755594 20.860344 C 61.79075 20.868156 61.849344 20.883781 61.8845 20.891594 C 61.923563 20.899406 61.982156 20.911125 62.017313 20.918937 C 62.052469 20.92675 62.111063 20.942375 62.150125 20.950187 C 62.185281 20.958 62.243875 20.973625 62.279031 20.981437 C 62.318094 20.98925 62.376688 21.000969 62.411844 21.008781 C 62.447 21.016594 62.505594 21.032219 62.544656 21.040031 C 62.579813 21.047844 62.638406 21.063469 62.673563 21.071281 C 62.712625 21.079094 62.771219 21.090812 62.806375 21.098625 C 62.841531 21.106437 62.900125 21.122062 62.939188 21.129875 C 62.974344 21.137687 63.032938 21.149406 63.068094 21.157219 C 63.107156 21.165031 63.16575 21.180656 63.200906 21.188469 C 63.236063 21.196281 63.294656 21.208 63.333719 21.215812 C 63.368875 21.227531 63.427469 21.23925 63.462625 21.247062 C 63.501688 21.254875 63.560281 21.266594 63.595438 21.278312 C 63.630594 21.286125 63.689188 21.297844 63.72825 21.305656 C 63.763406 21.313469 63.822 21.325187 63.857156 21.333 C 63.896219 21.344719 63.954813 21.356437 63.989969 21.36425 C 64.025125 21.372062 64.083719 21.383781 64.122781 21.391594 C 64.157938 21.399406 64.216531 21.415031 64.251688 21.422844 C 64.29075 21.430656 64.349344 21.442375 64.3845 21.450187 C 64.419656 21.458 64.47825 21.473625 64.517313 21.481437 C 64.552469 21.48925 64.611063 21.500969 64.646219 21.508781 C 64.685281 21.516594 64.743875 21.528312 64.779031 21.536125 C 64.814188 21.543937 64.872781 21.559562 64.911844 21.567375 C 64.947 21.575187 65.005594 21.586906 65.04075 21.594719 C 65.079813 21.602531 65.138406 21.61425 65.173563 21.622062 C 65.208719 21.629875 65.267313 21.6455 65.306375 21.653312 C 65.341531 21.661125 65.400125 21.672844 65.435281 21.680656 C 65.474344 21.688469 65.532938 21.700187 65.568094 21.708 C 65.60325 21.715812 65.661844 21.731437 65.700906 21.73925 C 65.736063 21.747062 65.794656 21.758781 65.829813 21.766594 C 65.868875 21.774406 65.927469 21.786125 65.962625 21.793937 C 65.997781 21.80175 66.056375 21.813469 66.095438 21.821281 C 66.130594 21.829094 66.189188 21.844719 66.224344 21.852531 C 66.263406 21.860344 66.318094 21.872062 66.357156 21.879875 C 66.392313 21.887687 66.450906 21.899406 66.486063 21.907219 C 66.525125 21.915031 66.583719 21.92675 66.618875 21.934562 C 66.654031 21.942375 66.712625 21.954094 66.751688 21.961906 C 66.786844 21.969719 66.845438 21.981437 66.880594 21.98925 C 66.919656 21.997062 66.97825 22.012687 67.013406 22.0205 C 67.048563 22.024406 67.107156 22.040031 67.146219 22.047844 C 67.181375 22.055656 67.239969 22.067375 67.275125 22.075187 C 67.314188 22.083 67.372781 22.094719 67.407938 22.102531 C 67.443094 22.110344 67.501688 22.122062 67.54075 22.129875 C 67.575906 22.137687 67.6345 22.149406 67.669656 22.157219 C 67.708719 22.165031 67.767313 22.17675 67.802469 22.184562 C 67.837625 22.192375 67.896219 22.204094 67.935281 22.211906 C 67.970438 22.219719 68.029031 22.231437 68.064188 22.23925 C 68.10325 22.247062 68.161844 22.258781 68.197 22.266594 C 68.232156 22.274406 68.29075 22.286125 68.329813 22.293937 C 68.364969 22.30175 68.423563 22.313469 68.458719 22.321281 C 68.497781 22.329094 68.556375 22.340812 68.591531 22.348625 C 68.626688 22.356437 68.685281 22.368156 68.724344 22.375969 C 68.7595 22.383781 68.818094 22.3955 68.85325 22.403312 C 68.892313 22.411125 68.950906 22.422844 68.986063 22.430656 C 69.021219 22.438469 69.079813 22.450187 69.118875 22.458 C 69.154031 22.465812 69.212625 22.477531 69.247781 22.485344 C 69.286844 22.493156 69.345438 22.504875 69.380594 22.508781 C 69.41575 22.516594 69.474344 22.528312 69.513406 22.536125 C 69.548563 22.543937 69.607156 22.555656 69.642313 22.563469 C 69.681375 22.571281 69.739969 22.583 69.775125 22.590812 C 69.810281 22.598625 69.868875 22.610344 69.907938 22.618156 C 69.943094 22.625969 70.001688 22.637687 70.036844 22.6455 C 70.075906 22.653312 70.1345 22.665031 70.169656 22.668937 C 70.204813 22.67675 70.263406 22.688469 70.302469 22.696281 C 70.337625 22.704094 70.396219 22.715812 70.431375 22.723625 C 70.470438 22.731437 70.529031 22.743156 70.564188 22.750969 C 70.599344 22.758781 70.657938 22.7705 70.697 22.778312 C 70.732156 22.782219 70.825906 22.80175 70.825906 22.80175 " transform="matrix(1, 0, 0, -1, 24.803, 88.583)"/>
</g>
</svg>
