<?xml version="1.0" encoding="UTF-8"?>
<svg xmlns="http://www.w3.org/2000/svg" xmlns:xlink="http://www.w3.org/1999/xlink" width="113.386" height="113.386" viewBox="0 0 113.386 113.386">
<path fill="none" stroke-width="1.59404" stroke-linecap="butt" stroke-linejoin="miter" stroke="rgb(50%, 50%, 50%)" stroke-opacity="1" stroke-miterlimit="10" d="M -49.607063 -29.33825 L 49.607781 -29.33825 " transform="matrix(1, 0, 0, -1, 56.693, 56.693)"/>
<path fill-rule="nonzero" fill="rgb(25%, 25%, 25%)" fill-opacity="1" stroke-width="0.3985" stroke-linecap="butt" stroke-linejoin="miter" stroke="rgb(25%, 25%, 25%)" stroke-opacity="1" stroke-miterlimit="10" d="M -44.259406 -23.560906 L -8.919563 19.306281 C -8.720344 19.548469 -8.364875 19.583625 -8.122688 19.384406 L -3.528938 15.595344 C -3.28675 15.396125 -3.251594 15.040656 -3.450813 14.798469 L -38.790656 -28.068719 C -38.989875 -28.310906 -39.345344 -28.346063 -39.587531 -28.146844 L -44.181281 -24.361688 C -44.423469 -24.162469 -44.458625 -23.803094 -44.259406 -23.560906 Z M -44.259406 -23.560906 " transform="matrix(1, 0, 0, -1, 56.693, 56.693)"/>
<path fill-rule="nonzero" fill="rgb(25%, 25%, 25%)" fill-opacity="1" stroke-width="0.3985" stroke-linecap="butt" stroke-linejoin="miter" stroke="rgb(25%, 25%, 25%)" stroke-opacity="1" stroke-miterlimit="10" d="M -23.982063 -24.635125 L 2.099969 24.419562 C 2.248406 24.696906 2.592156 24.802375 2.865594 24.653937 L 8.123406 21.860969 C 8.40075 21.712531 8.506219 21.372687 8.357781 21.095344 L -17.72425 -27.959344 C -17.872688 -28.236688 -18.216438 -28.342156 -18.489875 -28.197625 L -23.747688 -25.40075 C -24.025031 -25.252313 -24.1305 -24.912469 -23.982063 -24.635125 Z M -23.982063 -24.635125 " transform="matrix(1, 0, 0, -1, 56.693, 56.693)"/>
<path fill-rule="nonzero" fill="rgb(25%, 25%, 25%)" fill-opacity="1" stroke-width="0.3985" stroke-linecap="butt" stroke-linejoin="miter" stroke="rgb(25%, 25%, 25%)" stroke-opacity="1" stroke-miterlimit="10" d="M -3.357063 -26.139031 L 10.318719 27.708625 C 10.396844 28.013312 10.705437 28.196906 11.010125 28.118781 L 16.77575 26.653937 C 17.080437 26.575812 17.264031 26.267219 17.185906 25.966437 L 3.514031 -27.881219 C 3.435906 -28.185906 3.127312 -28.3695 2.822625 -28.291375 L -2.946906 -26.826531 C -3.247688 -26.748406 -3.431281 -26.439813 -3.357063 -26.139031 Z M -3.357063 -26.139031 " transform="matrix(1, 0, 0, -1, 56.693, 56.693)"/>
<path fill-rule="nonzero" fill="rgb(25%, 25%, 25%)" fill-opacity="1" stroke-width="0.3985" stroke-linecap="butt" stroke-linejoin="miter" stroke="rgb(25%, 25%, 25%)" stroke-opacity="1" stroke-miterlimit="10" d="M 24.803094 -27.779656 L 24.803094 27.778937 C 24.803094 28.091437 24.549187 28.345344 24.236687 28.345344 L 18.283562 28.345344 C 17.971062 28.345344 17.717156 28.091437 17.717156 27.778937 L 17.717156 -27.779656 C 17.717156 -28.092156 17.971062 -28.346063 18.283562 -28.346063 L 24.236687 -28.346063 C 24.549187 -28.346063 24.803094 -28.092156 24.803094 -27.779656 Z M 24.803094 -27.779656 " transform="matrix(1, 0, 0, -1, 56.693, 56.693)"/>
<path fill-rule="nonzero" fill="rgb(25%, 25%, 25%)" fill-opacity="1" stroke-width="0.3985" stroke-linecap="butt" stroke-linejoin="miter" stroke="rgb(25%, 25%, 25%)" stroke-opacity="1" stroke-miterlimit="10" d="M 46.064812 -27.779656 L 46.064812 27.778937 C 46.064812 28.091437 45.810906 28.345344 45.498406 28.345344 L 39.545281 28.345344 C 39.228875 28.345344 38.974969 28.091437 38.974969 27.778937 L 38.974969 -27.779656 C 38.974969 -28.092156 39.228875 -28.346063 39.545281 -28.346063 L 45.498406 -28.346063 C 45.810906 -28.346063 46.064812 -28.092156 46.064812 -27.779656 Z M 46.064812 -27.779656 " transform="matrix(1, 0, 0, -1, 56.693, 56.693)"/>
</svg>
