<?xml version="1.0" encoding="UTF-8"?>
<svg xmlns="http://www.w3.org/2000/svg" xmlns:xlink="http://www.w3.org/1999/xlink" width="113.386" height="113.386" viewBox="0 0 113.386 113.386">
<defs>
<clipPath id="clip-0">
<path clip-rule="nonzero" d="M 0 9 L 113.386719 9 L 113.386719 97 L 0 97 Z M 0 9 "/>
</clipPath>
</defs>
<path fill="none" stroke-width="0.79701" stroke-linecap="butt" stroke-linejoin="miter" stroke="rgb(0%, 0%, 0%)" stroke-opacity="1" stroke-miterlimit="10" d="M -14.174094 0.00096875 L 73.29075 0.00096875 " transform="matrix(1, 0, 0, -1, 24.803, 88.583)"/>
<path fill-rule="nonzero" fill="rgb(0%, 0%, 0%)" fill-opacity="1" d="M 102.757812 88.582031 C 101.375 88.324219 99.128906 87.546875 97.578125 86.640625 L 97.578125 90.527344 C 99.128906 89.617188 101.375 88.84375 102.757812 88.582031 "/>
<path fill="none" stroke-width="0.79701" stroke-linecap="butt" stroke-linejoin="miter" stroke="rgb(0%, 0%, 0%)" stroke-opacity="1" stroke-miterlimit="10" d="M 28.345437 -14.174813 L 28.345437 73.290031 " transform="matrix(1, 0, 0, -1, 24.803, 88.583)"/>
<path fill-rule="nonzero" fill="rgb(0%, 0%, 0%)" fill-opacity="1" d="M 53.148438 10.628906 C 52.890625 12.011719 52.113281 14.253906 51.207031 15.808594 L 55.09375 15.808594 C 54.1875 14.253906 53.410156 12.011719 53.148438 10.628906 "/>
<g clip-path="url(#clip-0)">
<path fill="none" stroke-width="1.59404" stroke-linecap="butt" stroke-linejoin="miter" stroke="rgb(25%, 25%, 25%)" stroke-opacity="1" stroke-miterlimit="10" d="M -14.174094 14.172844 L 70.868875 56.692375 " transform="matrix(1, 0, 0, -1, 24.803, 88.583)"/>
</g>
<path fill="none" stroke-width="1.59404" stroke-linecap="butt" stroke-linejoin="miter" stroke="rgb(50%, 50%, 50%)" stroke-opacity="1" stroke-miterlimit="10" d="M -3.345969 70.86425 C -3.345969 70.86425 -3.252219 70.458 -3.217063 70.297844 C -3.181906 70.141594 -3.127219 69.891594 -3.092063 69.735344 C -3.056906 69.579094 -2.998313 69.329094 -2.963156 69.172844 C -2.928 69.016594 -2.873313 68.766594 -2.838156 68.61425 C -2.803 68.458 -2.744406 68.211906 -2.70925 68.055656 C -2.674094 67.899406 -2.619406 67.653312 -2.58425 67.500969 C -2.549094 67.348625 -2.4905 67.102531 -2.455344 66.946281 C -2.420188 66.793937 -2.3655 66.547844 -2.330344 66.3955 C -2.295188 66.243156 -2.236594 66.000969 -2.201438 65.848625 C -2.166281 65.696281 -2.111594 65.454094 -2.076438 65.30175 C -2.041281 65.149406 -1.982688 64.907219 -1.947531 64.758781 C -1.912375 64.606437 -1.857688 64.368156 -1.822531 64.215812 C -1.787375 64.067375 -1.728781 63.825187 -1.693625 63.67675 C -1.658469 63.528312 -1.603781 63.290031 -1.568625 63.141594 C -1.533469 62.993156 -1.474875 62.754875 -1.439719 62.606437 C -1.404563 62.458 -1.349875 62.219719 -1.314719 62.075187 C -1.279563 61.92675 -1.220969 61.688469 -1.185813 61.543937 C -1.150656 61.3955 -1.095969 61.161125 -1.060813 61.016594 C -1.025656 60.868156 -0.967063 60.633781 -0.931906 60.48925 C -0.89675 60.344719 -0.842063 60.110344 -0.806906 59.965812 C -0.77175 59.821281 -0.713156 59.590812 -0.678 59.446281 C -0.642844 59.30175 -0.588156 59.071281 -0.553 58.92675 C -0.517844 58.782219 -0.45925 58.55175 -0.424094 58.411125 C -0.388938 58.266594 -0.33425 58.036125 -0.299094 57.8955 C -0.263938 57.754875 -0.205344 57.524406 -0.170188 57.383781 C -0.135031 57.243156 -0.0803438 57.016594 -0.0451875 56.872062 C -0.0100313 56.731437 0.0485625 56.504875 0.0837187 56.36425 C 0.118875 56.227531 0.173562 56.000969 0.208719 55.860344 C 0.243875 55.719719 0.302469 55.497062 0.337625 55.356437 C 0.372781 55.219719 0.427469 54.997062 0.462625 54.856437 C 0.497781 54.719719 0.556375 54.497062 0.591531 54.360344 C 0.626687 54.219719 0.681375 54.000969 0.716531 53.86425 C 0.751687 53.723625 0.810281 53.504875 0.845437 53.368156 C 0.880594 53.231437 0.935281 53.012687 0.970437 52.875969 C 1.005594 52.743156 1.064187 52.524406 1.099344 52.387687 C 1.1345 52.250969 1.189187 52.036125 1.224344 51.899406 C 1.2595 51.766594 1.318094 51.55175 1.35325 51.415031 C 1.388406 51.282219 1.443094 51.067375 1.47825 50.934562 C 1.513406 50.80175 1.572 50.586906 1.607156 50.454094 C 1.642312 50.321281 1.697 50.106437 1.732156 49.977531 C 1.767312 49.844719 1.825906 49.633781 1.861062 49.500969 C 1.896219 49.368156 1.950906 49.157219 1.986062 49.028312 C 2.021219 48.8955 2.079812 48.684562 2.114969 48.555656 C 2.150125 48.42675 2.204812 48.215812 2.239969 48.086906 C 2.275125 47.958 2.333719 47.750969 2.368875 47.622062 C 2.404031 47.493156 2.458719 47.286125 2.493875 47.157219 C 2.529031 47.028312 2.587625 46.821281 2.622781 46.696281 C 2.657937 46.567375 2.712625 46.360344 2.747781 46.235344 C 2.782937 46.106437 2.841531 45.903312 2.876687 45.778312 C 2.911844 45.649406 2.966531 45.446281 3.001687 45.321281 C 3.036844 45.196281 3.095437 44.993156 3.130594 44.868156 C 3.16575 44.743156 3.220437 44.543937 3.255594 44.418937 C 3.29075 44.293937 3.349344 44.094719 3.3845 43.969719 C 3.419656 43.844719 3.474344 43.649406 3.5095 43.524406 C 3.544656 43.399406 3.60325 43.204094 3.638406 43.079094 C 3.673562 42.958 3.72825 42.762687 3.763406 42.637687 C 3.798562 42.516594 3.857156 42.321281 3.892312 42.200187 C 3.927469 42.079094 3.982156 41.883781 4.017312 41.762687 C 4.052469 41.641594 4.111062 41.446281 4.146219 41.329094 C 4.181375 41.208 4.236062 41.016594 4.271219 40.8955 C 4.306375 40.774406 4.364969 40.583 4.400125 40.465812 C 4.435281 40.344719 4.489969 40.157219 4.525125 40.036125 C 4.560281 39.918937 4.618875 39.731437 4.654031 39.610344 C 4.689187 39.493156 4.743875 39.305656 4.779031 39.188469 C 4.814187 39.071281 4.872781 38.883781 4.907937 38.766594 C 4.943094 38.649406 4.997781 38.465812 5.032937 38.348625 C 5.068094 38.231437 5.122781 38.047844 5.161844 37.930656 C 5.197 37.817375 5.251687 37.633781 5.286844 37.516594 C 5.322 37.403312 5.376687 37.219719 5.41575 37.106437 C 5.450906 36.993156 5.505594 36.809562 5.54075 36.696281 C 5.575906 36.583 5.630594 36.403312 5.669656 36.290031 C 5.704812 36.17675 5.7595 35.997062 5.794656 35.883781 C 5.829812 35.7705 5.8845 35.590812 5.923562 35.481437 C 5.958719 35.368156 6.013406 35.192375 6.048562 35.079094 C 6.083719 34.969719 6.138406 34.793937 6.177469 34.680656 C 6.212625 34.571281 6.267312 34.3955 6.302469 34.286125 C 6.337625 34.17675 6.392312 34.000969 6.431375 33.891594 C 6.466531 33.782219 6.521219 33.610344 6.556375 33.500969 C 6.591531 33.391594 6.646219 33.219719 6.685281 33.110344 C 6.720437 33.004875 6.775125 32.833 6.810281 32.723625 C 6.845437 32.618156 6.900125 32.446281 6.939187 32.340812 C 6.974344 32.235344 7.029031 32.063469 7.064187 31.958 C 7.099344 31.852531 7.154031 31.680656 7.193094 31.579094 C 7.22825 31.473625 7.282937 31.305656 7.318094 31.200187 C 7.35325 31.094719 7.407937 30.92675 7.443094 30.825187 C 7.482156 30.719719 7.536844 30.555656 7.572 30.450187 C 7.607156 30.348625 7.661844 30.180656 7.697 30.079094 C 7.736062 29.977531 7.79075 29.813469 7.825906 29.711906 C 7.861062 29.610344 7.91575 29.446281 7.950906 29.344719 C 7.989969 29.243156 8.044656 29.079094 8.079812 28.981437 C 8.114969 28.879875 8.169656 28.719719 8.204812 28.618156 C 8.243875 28.516594 8.298562 28.356437 8.333719 28.258781 C 8.368875 28.161125 8.423562 28.000969 8.458719 27.899406 C 8.497781 27.80175 8.552469 27.6455 8.587625 27.547844 C 8.622781 27.446281 8.677469 27.290031 8.712625 27.192375 C 8.751687 27.094719 8.806375 26.938469 8.841531 26.844719 C 8.876687 26.747062 8.931375 26.590812 8.966531 26.493156 C 9.005594 26.399406 9.060281 26.243156 9.095437 26.149406 C 9.130594 26.05175 9.185281 25.899406 9.220437 25.805656 C 9.2595 25.708 9.314187 25.559562 9.349344 25.461906 C 9.3845 25.368156 9.439187 25.219719 9.474344 25.125969 C 9.513406 25.032219 9.568094 24.879875 9.60325 24.786125 C 9.638406 24.692375 9.693094 24.543937 9.72825 24.454094 C 9.767312 24.360344 9.822 24.211906 9.857156 24.122062 C 9.892312 24.028312 9.947 23.879875 9.982156 23.790031 C 10.021219 23.700187 10.075906 23.55175 10.111062 23.461906 C 10.146219 23.372062 10.200906 23.227531 10.236062 23.137687 C 10.271219 23.047844 10.329812 22.903312 10.364969 22.813469 C 10.400125 22.723625 10.454812 22.583 10.489969 22.493156 C 10.525125 22.403312 10.583719 22.262687 10.618875 22.172844 C 10.654031 22.086906 10.708719 21.946281 10.743875 21.856437 C 10.779031 21.7705 10.837625 21.629875 10.872781 21.543937 C 10.907937 21.458 10.962625 21.317375 10.997781 21.231437 C 11.032937 21.1455 11.091531 21.008781 11.126687 20.922844 C 11.161844 20.836906 11.216531 20.700187 11.251687 20.61425 C 11.286844 20.528312 11.345437 20.3955 11.380594 20.309562 C 11.41575 20.223625 11.470437 20.090812 11.505594 20.004875 C 11.54075 19.922844 11.599344 19.790031 11.6345 19.708 C 11.669656 19.622062 11.724344 19.48925 11.7595 19.407219 C 11.794656 19.325187 11.85325 19.192375 11.888406 19.110344 C 11.923562 19.028312 11.97825 18.899406 12.013406 18.817375 C 12.048562 18.735344 12.107156 18.606437 12.142312 18.528312 C 12.177469 18.446281 12.232156 18.317375 12.267312 18.23925 C 12.302469 18.157219 12.361062 18.028312 12.396219 17.950187 C 12.431375 17.872062 12.486062 17.743156 12.521219 17.665031 C 12.556375 17.586906 12.614969 17.461906 12.650125 17.383781 C 12.685281 17.305656 12.739969 17.180656 12.775125 17.102531 C 12.810281 17.028312 12.868875 16.903312 12.904031 16.825187 C 12.939187 16.750969 12.993875 16.625969 13.029031 16.55175 C 13.064187 16.473625 13.122781 16.352531 13.157937 16.278312 C 13.193094 16.200187 13.247781 16.083 13.282937 16.004875 C 13.318094 15.930656 13.376687 15.813469 13.411844 15.73925 C 13.447 15.665031 13.501687 15.543937 13.536844 15.469719 C 13.572 15.399406 13.630594 15.278312 13.66575 15.208 C 13.700906 15.133781 13.755594 15.016594 13.79075 14.946281 C 13.825906 14.872062 13.8845 14.758781 13.919656 14.684562 C 13.954812 14.61425 14.0095 14.500969 14.044656 14.42675 C 14.079812 14.356437 14.138406 14.243156 14.173562 14.172844 C 14.208719 14.102531 14.263406 13.98925 14.298562 13.918937 C 14.333719 13.852531 14.392312 13.73925 14.427469 13.668937 C 14.462625 13.602531 14.517312 13.48925 14.552469 13.422844 C 14.587625 13.352531 14.646219 13.243156 14.681375 13.17675 C 14.716531 13.106437 14.771219 13.000969 14.806375 12.930656 C 14.841531 12.86425 14.900125 12.758781 14.935281 12.692375 C 14.970437 12.625969 15.025125 12.516594 15.060281 12.450187 C 15.095437 12.383781 15.154031 12.282219 15.189187 12.215812 C 15.224344 12.149406 15.279031 12.043937 15.314187 11.981437 C 15.349344 11.915031 15.407937 11.813469 15.443094 11.747062 C 15.47825 11.684562 15.532937 11.583 15.568094 11.516594 C 15.60325 11.454094 15.661844 11.352531 15.697 11.290031 C 15.732156 11.227531 15.786844 11.125969 15.822 11.063469 C 15.857156 11.000969 15.91575 10.903312 15.950906 10.840812 C 15.986062 10.778312 16.04075 10.680656 16.075906 10.622062 C 16.111062 10.559562 16.169656 10.461906 16.204812 10.403312 C 16.239969 10.340812 16.294656 10.247062 16.329812 10.184562 C 16.364969 10.125969 16.423562 10.032219 16.458719 9.969719 C 16.493875 9.911125 16.548562 9.817375 16.583719 9.758781 C 16.618875 9.700187 16.677469 9.606437 16.712625 9.55175 C 16.747781 9.493156 16.802469 9.399406 16.837625 9.344719 C 16.872781 9.286125 16.931375 9.196281 16.966531 9.137687 C 17.001687 9.083 17.056375 8.98925 17.091531 8.934562 C 17.126687 8.879875 17.185281 8.790031 17.220437 8.735344 C 17.255594 8.680656 17.310281 8.590812 17.345437 8.536125 C 17.380594 8.481437 17.439187 8.3955 17.474344 8.340812 C 17.5095 8.286125 17.564187 8.200187 17.599344 8.1455 C 17.6345 8.094719 17.693094 8.008781 17.72825 7.954094 C 17.763406 7.903312 17.818094 7.817375 17.85325 7.766594 C 17.888406 7.715812 17.947 7.629875 17.982156 7.579094 C 18.017312 7.528312 18.072 7.446281 18.107156 7.3955 C 18.142312 7.344719 18.200906 7.262687 18.236062 7.211906 C 18.271219 7.161125 18.325906 7.083 18.361062 7.032219 C 18.396219 6.981437 18.454812 6.903312 18.489969 6.856437 C 18.525125 6.805656 18.579812 6.727531 18.614969 6.680656 C 18.650125 6.629875 18.708719 6.555656 18.743875 6.504875 C 18.779031 6.458 18.833719 6.383781 18.868875 6.336906 C 18.904031 6.290031 18.962625 6.211906 18.997781 6.168937 C 19.032937 6.122062 19.087625 6.047844 19.122781 6.000969 C 19.157937 5.954094 19.216531 5.883781 19.251687 5.836906 C 19.286844 5.790031 19.341531 5.719719 19.376687 5.67675 C 19.411844 5.629875 19.470437 5.559562 19.505594 5.516594 C 19.54075 5.469719 19.595437 5.403312 19.630594 5.356437 C 19.66575 5.313469 19.724344 5.247062 19.7595 5.204094 C 19.794656 5.161125 19.849344 5.090812 19.8845 5.05175 C 19.919656 5.008781 19.97825 4.942375 20.013406 4.899406 C 20.048562 4.860344 20.10325 4.793937 20.138406 4.750969 C 20.173562 4.711906 20.232156 4.6455 20.267312 4.606437 C 20.302469 4.567375 20.357156 4.500969 20.392312 4.461906 C 20.427469 4.422844 20.486062 4.360344 20.521219 4.321281 C 20.556375 4.282219 20.611062 4.219719 20.646219 4.180656 C 20.681375 4.1455 20.739969 4.083 20.775125 4.043937 C 20.810281 4.008781 20.864969 3.946281 20.900125 3.911125 C 20.935281 3.872062 20.993875 3.813469 21.029031 3.778312 C 21.064187 3.743156 21.118875 3.684562 21.154031 3.649406 C 21.189187 3.61425 21.247781 3.555656 21.282937 3.5205 C 21.318094 3.485344 21.372781 3.430656 21.407937 3.3955 C 21.443094 3.360344 21.501687 3.305656 21.536844 3.2705 C 21.572 3.23925 21.626687 3.184562 21.661844 3.153312 C 21.697 3.118156 21.755594 3.063469 21.79075 3.032219 C 21.825906 3.000969 21.880594 2.950187 21.91575 2.915031 C 21.950906 2.883781 22.0095 2.833 22.044656 2.80175 C 22.079812 2.7705 22.1345 2.719719 22.169656 2.692375 C 22.204812 2.661125 22.263406 2.610344 22.298562 2.583 C 22.333719 2.55175 22.388406 2.504875 22.423562 2.473625 C 22.458719 2.446281 22.517312 2.399406 22.552469 2.368156 C 22.587625 2.340812 22.642312 2.293937 22.677469 2.266594 C 22.712625 2.23925 22.771219 2.192375 22.806375 2.165031 C 22.841531 2.137687 22.896219 2.094719 22.931375 2.067375 C 22.966531 2.040031 23.025125 1.997062 23.060281 1.973625 C 23.095437 1.946281 23.150125 1.903312 23.185281 1.879875 C 23.220437 1.852531 23.279031 1.813469 23.314187 1.786125 C 23.349344 1.762687 23.404031 1.723625 23.439187 1.696281 C 23.474344 1.672844 23.532937 1.633781 23.568094 1.610344 C 23.60325 1.586906 23.657937 1.55175 23.693094 1.528312 C 23.72825 1.504875 23.786844 1.465812 23.822 1.446281 C 23.857156 1.422844 23.911844 1.387687 23.947 1.36425 C 23.982156 1.344719 24.04075 1.309562 24.075906 1.286125 C 24.111062 1.266594 24.16575 1.231437 24.200906 1.211906 C 24.236062 1.192375 24.294656 1.157219 24.329812 1.137687 C 24.364969 1.118156 24.419656 1.086906 24.454812 1.067375 C 24.489969 1.047844 24.548562 1.016594 24.583719 1.000969 C 24.618875 0.981437 24.673562 0.950187 24.708719 0.934562 C 24.743875 0.915031 24.802469 0.887687 24.837625 0.868156 C 24.872781 0.852531 24.927469 0.825187 24.962625 0.805656 C 24.997781 0.790031 25.056375 0.762687 25.091531 0.747062 C 25.126687 0.731437 25.181375 0.708 25.216531 0.692375 C 25.251687 0.67675 25.310281 0.649406 25.345437 0.633781 C 25.380594 0.622062 25.435281 0.598625 25.470437 0.583 C 25.505594 0.567375 25.564187 0.547844 25.599344 0.532219 C 25.6345 0.5205 25.689187 0.497062 25.724344 0.485344 C 25.7595 0.469719 25.818094 0.450187 25.85325 0.438469 C 25.888406 0.42675 25.943094 0.407219 25.97825 0.3955 C 26.013406 0.383781 26.072 0.36425 26.107156 0.352531 C 26.142312 0.344719 26.197 0.325187 26.232156 0.313469 C 26.267312 0.305656 26.325906 0.290031 26.361062 0.278312 C 26.396219 0.266594 26.450906 0.254875 26.486062 0.243156 C 26.521219 0.235344 26.579812 0.219719 26.614969 0.211906 C 26.650125 0.204094 26.704812 0.188469 26.739969 0.180656 C 26.775125 0.172844 26.833719 0.161125 26.868875 0.153312 C 26.904031 0.1455 26.958719 0.133781 26.993875 0.129875 C 27.029031 0.122062 27.087625 0.110344 27.122781 0.106437 C 27.157937 0.098625 27.212625 0.0908125 27.247781 0.083 C 27.282937 0.0790937 27.341531 0.0712812 27.376687 0.067375 C 27.411844 0.0634687 27.466531 0.0556562 27.501687 0.05175 C 27.536844 0.0478437 27.595437 0.0400312 27.630594 0.036125 C 27.66575 0.0322187 27.720437 0.0283125 27.755594 0.0244062 C 27.79075 0.0205 27.849344 0.0165937 27.8845 0.0165937 C 27.919656 0.0126875 27.974344 0.00878125 28.0095 0.00878125 C 28.044656 0.004875 28.10325 0.004875 28.138406 0.004875 C 28.173562 0.00096875 28.22825 0.00096875 28.263406 0.00096875 C 28.298562 0.00096875 28.357156 0.00096875 28.392312 0.00096875 C 28.427469 0.00096875 28.482156 0.00096875 28.517312 0.00096875 C 28.552469 0.00096875 28.611062 0.004875 28.646219 0.004875 C 28.681375 0.00878125 28.736062 0.00878125 28.771219 0.0126875 C 28.806375 0.0165937 28.864969 0.0205 28.900125 0.0205 C 28.935281 0.0244062 28.989969 0.0283125 29.025125 0.0322187 C 29.060281 0.036125 29.118875 0.0400312 29.154031 0.0439375 C 29.189187 0.05175 29.243875 0.0556562 29.279031 0.0595625 C 29.314187 0.067375 29.372781 0.0751875 29.407937 0.0790937 C 29.443094 0.083 29.497781 0.0947187 29.532937 0.098625 C 29.568094 0.106437 29.626687 0.11425 29.661844 0.122062 C 29.697 0.129875 29.751687 0.137687 29.786844 0.1455 C 29.822 0.153312 29.880594 0.165031 29.91575 0.172844 C 29.950906 0.180656 30.005594 0.192375 30.04075 0.204094 C 30.075906 0.211906 30.1345 0.223625 30.169656 0.235344 C 30.204812 0.243156 30.2595 0.258781 30.294656 0.266594 C 30.329812 0.278312 30.388406 0.293937 30.423562 0.305656 C 30.458719 0.313469 30.513406 0.333 30.548562 0.340812 C 30.583719 0.352531 30.642312 0.372062 30.677469 0.383781 C 30.712625 0.3955 30.767312 0.415031 30.802469 0.42675 C 30.837625 0.438469 30.896219 0.458 30.931375 0.469719 C 30.966531 0.485344 31.021219 0.504875 31.056375 0.516594 C 31.091531 0.532219 31.150125 0.555656 31.185281 0.567375 C 31.220437 0.583 31.275125 0.606437 31.310281 0.618156 C 31.345437 0.633781 31.404031 0.657219 31.439187 0.672844 C 31.474344 0.688469 31.529031 0.715812 31.564187 0.731437 C 31.599344 0.747062 31.657937 0.774406 31.693094 0.790031 C 31.72825 0.805656 31.782937 0.833 31.818094 0.852531 C 31.85325 0.868156 31.911844 0.8955 31.947 0.915031 C 31.982156 0.930656 32.036844 0.961906 32.072 0.981437 C 32.107156 0.997062 32.16575 1.028312 32.200906 1.047844 C 32.236063 1.067375 32.29075 1.098625 32.325906 1.118156 C 32.361063 1.137687 32.419656 1.168937 32.454813 1.188469 C 32.489969 1.211906 32.544656 1.243156 32.579813 1.266594 C 32.614969 1.286125 32.673563 1.321281 32.708719 1.340812 C 32.743875 1.36425 32.798563 1.399406 32.833719 1.422844 C 32.868875 1.442375 32.927469 1.481437 32.962625 1.500969 C 32.997781 1.524406 33.052469 1.563469 33.087625 1.586906 C 33.122781 1.610344 33.181375 1.649406 33.216531 1.672844 C 33.251688 1.696281 33.306375 1.735344 33.341531 1.762687 C 33.376688 1.786125 33.435281 1.825187 33.470438 1.852531 C 33.505594 1.875969 33.560281 1.918937 33.595438 1.946281 C 33.630594 1.969719 33.689188 2.012687 33.724344 2.040031 C 33.7595 2.067375 33.814188 2.110344 33.849344 2.137687 C 33.8845 2.165031 33.943094 2.208 33.97825 2.235344 C 34.013406 2.266594 34.068094 2.309562 34.10325 2.340812 C 34.138406 2.368156 34.197 2.415031 34.232156 2.442375 C 34.267313 2.473625 34.322 2.5205 34.357156 2.547844 C 34.392313 2.579094 34.450906 2.629875 34.486063 2.657219 C 34.521219 2.688469 34.575906 2.73925 34.611063 2.7705 C 34.646219 2.80175 34.704813 2.852531 34.739969 2.883781 C 34.775125 2.915031 34.829813 2.965812 34.864969 2.997062 C 34.900125 3.032219 34.958719 3.083 34.993875 3.118156 C 35.029031 3.149406 35.083719 3.204094 35.118875 3.235344 C 35.154031 3.2705 35.212625 3.325187 35.247781 3.360344 C 35.282938 3.3955 35.337625 3.450187 35.372781 3.485344 C 35.407938 3.5205 35.466531 3.575187 35.501688 3.610344 C 35.536844 3.6455 35.591531 3.704094 35.626688 3.73925 C 35.661844 3.778312 35.720438 3.836906 35.755594 3.872062 C 35.79075 3.907219 35.845438 3.969719 35.880594 4.004875 C 35.91575 4.043937 35.974344 4.102531 36.0095 4.141594 C 36.044656 4.180656 36.099344 4.243156 36.1345 4.278312 C 36.169656 4.317375 36.22825 4.379875 36.263406 4.422844 C 36.298563 4.461906 36.35325 4.524406 36.388406 4.563469 C 36.423563 4.602531 36.482156 4.668937 36.517313 4.708 C 36.552469 4.750969 36.607156 4.813469 36.642313 4.856437 C 36.677469 4.899406 36.736063 4.965812 36.771219 5.004875 C 36.806375 5.047844 36.861063 5.11425 36.896219 5.157219 C 36.931375 5.200187 36.989969 5.2705 37.025125 5.313469 C 37.060281 5.356437 37.114969 5.42675 37.150125 5.469719 C 37.185281 5.512687 37.243875 5.583 37.279031 5.629875 C 37.314188 5.672844 37.368875 5.743156 37.404031 5.790031 C 37.439188 5.833 37.497781 5.907219 37.532938 5.954094 C 37.568094 5.997062 37.622781 6.071281 37.657938 6.118156 C 37.693094 6.165031 37.751688 6.23925 37.786844 6.286125 C 37.822 6.333 37.876688 6.407219 37.911844 6.458 C 37.947 6.504875 38.005594 6.579094 38.04075 6.629875 C 38.075906 6.67675 38.130594 6.754875 38.16575 6.805656 C 38.200906 6.852531 38.2595 6.930656 38.294656 6.981437 C 38.329813 7.032219 38.3845 7.110344 38.419656 7.161125 C 38.454813 7.211906 38.513406 7.290031 38.548563 7.340812 C 38.583719 7.391594 38.638406 7.473625 38.673563 7.524406 C 38.708719 7.575187 38.767313 7.661125 38.802469 7.711906 C 38.837625 7.762687 38.892313 7.848625 38.927469 7.899406 C 38.962625 7.954094 39.021219 8.036125 39.056375 8.090812 C 39.091531 8.1455 39.146219 8.231437 39.181375 8.282219 C 39.216531 8.336906 39.275125 8.422844 39.310281 8.477531 C 39.345438 8.532219 39.400125 8.622062 39.435281 8.67675 C 39.470438 8.731437 39.529031 8.821281 39.564188 8.875969 C 39.599344 8.930656 39.654031 9.0205 39.689188 9.079094 C 39.724344 9.133781 39.782938 9.227531 39.818094 9.282219 C 39.85325 9.340812 39.907938 9.430656 39.943094 9.48925 C 39.97825 9.547844 40.036844 9.641594 40.072 9.700187 C 40.107156 9.754875 40.161844 9.852531 40.197 9.911125 C 40.232156 9.969719 40.29075 10.063469 40.325906 10.122062 C 40.361063 10.180656 40.41575 10.278312 40.450906 10.336906 C 40.486063 10.399406 40.544656 10.497062 40.579813 10.555656 C 40.614969 10.618156 40.669656 10.715812 40.704813 10.778312 C 40.739969 10.836906 40.798563 10.938469 40.833719 11.000969 C 40.868875 11.059562 40.923563 11.161125 40.958719 11.223625 C 40.993875 11.286125 41.052469 11.387687 41.087625 11.450187 C 41.122781 11.516594 41.177469 11.618156 41.212625 11.680656 C 41.247781 11.743156 41.306375 11.848625 41.341531 11.911125 C 41.376688 11.977531 41.431375 12.083 41.466531 12.1455 C 41.501688 12.211906 41.560281 12.317375 41.595438 12.383781 C 41.630594 12.450187 41.685281 12.555656 41.720438 12.622062 C 41.755594 12.688469 41.814188 12.793937 41.849344 12.860344 C 41.8845 12.930656 41.939188 13.036125 41.974344 13.106437 C 42.0095 13.172844 42.068094 13.282219 42.10325 13.348625 C 42.138406 13.418937 42.193094 13.528312 42.22825 13.598625 C 42.263406 13.665031 42.322 13.778312 42.357156 13.848625 C 42.392313 13.915031 42.447 14.028312 42.482156 14.098625 C 42.517313 14.168937 42.575906 14.282219 42.611063 14.352531 C 42.646219 14.422844 42.700906 14.540031 42.736063 14.610344 C 42.771219 14.680656 42.829813 14.797844 42.864969 14.868156 C 42.900125 14.942375 42.954813 15.059562 42.989969 15.129875 C 43.025125 15.204094 43.083719 15.321281 43.118875 15.3955 C 43.154031 15.465812 43.208719 15.586906 43.243875 15.661125 C 43.279031 15.735344 43.337625 15.852531 43.372781 15.92675 C 43.407938 16.000969 43.462625 16.122062 43.497781 16.196281 C 43.532938 16.274406 43.591531 16.3955 43.626688 16.469719 C 43.661844 16.547844 43.716531 16.668937 43.751688 16.747062 C 43.786844 16.821281 43.845438 16.946281 43.880594 17.024406 C 43.91575 17.098625 43.970438 17.223625 44.005594 17.30175 C 44.04075 17.379875 44.099344 17.504875 44.1345 17.583 C 44.169656 17.661125 44.224344 17.790031 44.2595 17.868156 C 44.294656 17.946281 44.35325 18.075187 44.388406 18.153312 C 44.423563 18.235344 44.47825 18.360344 44.513406 18.442375 C 44.548563 18.524406 44.607156 18.653312 44.642313 18.731437 C 44.677469 18.813469 44.732156 18.946281 44.767313 19.024406 C 44.802469 19.106437 44.861063 19.23925 44.896219 19.321281 C 44.931375 19.403312 44.986063 19.536125 45.021219 19.618156 C 45.056375 19.700187 45.114969 19.836906 45.150125 19.918937 C 45.185281 20.000969 45.239969 20.137687 45.275125 20.219719 C 45.310281 20.305656 45.368875 20.442375 45.404031 20.524406 C 45.439188 20.610344 45.493875 20.747062 45.529031 20.833 C 45.564188 20.918937 45.622781 21.055656 45.657938 21.141594 C 45.693094 21.227531 45.747781 21.36425 45.782938 21.454094 C 45.818094 21.540031 45.876688 21.67675 45.911844 21.766594 C 45.947 21.852531 46.001688 21.993156 46.036844 22.083 C 46.072 22.168937 46.130594 22.309562 46.16575 22.399406 C 46.200906 22.48925 46.255594 22.629875 46.29075 22.719719 C 46.325906 22.809562 46.3845 22.954094 46.419656 23.043937 C 46.454813 23.133781 46.5095 23.278312 46.544656 23.368156 C 46.579813 23.458 46.638406 23.602531 46.673563 23.696281 C 46.708719 23.786125 46.763406 23.930656 46.798563 24.024406 C 46.833719 24.11425 46.892313 24.262687 46.927469 24.356437 C 46.962625 24.446281 47.017313 24.598625 47.052469 24.688469 C 47.087625 24.782219 47.146219 24.930656 47.181375 25.024406 C 47.216531 25.118156 47.271219 25.2705 47.306375 25.36425 C 47.341531 25.458 47.400125 25.610344 47.435281 25.704094 C 47.470438 25.80175 47.525125 25.954094 47.560281 26.047844 C 47.595438 26.1455 47.654031 26.297844 47.689188 26.3955 C 47.724344 26.48925 47.779031 26.6455 47.814188 26.743156 C 47.849344 26.836906 47.907938 26.993156 47.943094 27.090812 C 47.97825 27.188469 48.032938 27.344719 48.068094 27.442375 C 48.10325 27.540031 48.161844 27.700187 48.197 27.797844 C 48.232156 27.8955 48.286844 28.055656 48.322 28.153312 C 48.357156 28.254875 48.41575 28.415031 48.450906 28.512687 C 48.486063 28.61425 48.54075 28.774406 48.575906 28.875969 C 48.611063 28.973625 48.669656 29.137687 48.704813 29.23925 C 48.739969 29.340812 48.794656 29.500969 48.829813 29.602531 C 48.864969 29.704094 48.923563 29.868156 48.958719 29.973625 C 48.993875 30.075187 49.048563 30.23925 49.083719 30.340812 C 49.118875 30.446281 49.177469 30.610344 49.212625 30.715812 C 49.247781 30.817375 49.302469 30.985344 49.337625 31.090812 C 49.372781 31.192375 49.431375 31.360344 49.466531 31.465812 C 49.501688 31.571281 49.556375 31.73925 49.591531 31.848625 C 49.626688 31.954094 49.685281 32.122062 49.720438 32.227531 C 49.755594 32.333 49.810281 32.504875 49.845438 32.610344 C 49.880594 32.719719 49.939188 32.891594 49.974344 32.997062 C 50.0095 33.106437 50.064188 33.278312 50.099344 33.387687 C 50.1345 33.497062 50.193094 33.668937 50.22825 33.778312 C 50.263406 33.887687 50.318094 34.063469 50.35325 34.172844 C 50.388406 34.282219 50.447 34.458 50.482156 34.567375 C 50.517313 34.67675 50.572 34.852531 50.607156 34.965812 C 50.642313 35.075187 50.700906 35.250969 50.736063 35.36425 C 50.771219 35.473625 50.825906 35.653312 50.861063 35.766594 C 50.896219 35.879875 50.954813 36.059562 50.989969 36.168937 C 51.025125 36.282219 51.079813 36.465812 51.114969 36.579094 C 51.150125 36.692375 51.208719 36.872062 51.243875 36.985344 C 51.279031 37.098625 51.333719 37.282219 51.368875 37.399406 C 51.404031 37.512687 51.462625 37.696281 51.497781 37.809562 C 51.532938 37.92675 51.587625 38.110344 51.622781 38.227531 C 51.657938 38.340812 51.716531 38.528312 51.751688 38.6455 C 51.786844 38.762687 51.841531 38.950187 51.876688 39.067375 C 51.911844 39.180656 51.970438 39.372062 52.005594 39.48925 C 52.04075 39.606437 52.095438 39.793937 52.130594 39.915031 C 52.16575 40.032219 52.224344 40.219719 52.2595 40.340812 C 52.294656 40.458 52.349344 40.649406 52.3845 40.7705 C 52.419656 40.887687 52.47825 41.083 52.513406 41.200187 C 52.548563 41.321281 52.60325 41.516594 52.638406 41.633781 C 52.673563 41.754875 52.732156 41.950187 52.767313 42.071281 C 52.802469 42.192375 52.857156 42.387687 52.892313 42.508781 C 52.927469 42.633781 52.986063 42.829094 53.021219 42.950187 C 53.056375 43.075187 53.111063 43.2705 53.146219 43.3955 C 53.181375 43.516594 53.239969 43.715812 53.275125 43.840812 C 53.310281 43.961906 53.364969 44.161125 53.400125 44.286125 C 53.435281 44.411125 53.493875 44.61425 53.529031 44.73925 C 53.564188 44.86425 53.618875 45.063469 53.654031 45.188469 C 53.689188 45.317375 53.747781 45.516594 53.782938 45.6455 C 53.818094 45.7705 53.872781 45.973625 53.907938 46.102531 C 53.943094 46.227531 54.001688 46.430656 54.036844 46.559562 C 54.072 46.688469 54.126688 46.891594 54.161844 47.0205 C 54.197 47.149406 54.255594 47.356437 54.29075 47.485344 C 54.325906 47.61425 54.380594 47.821281 54.41575 47.950187 C 54.450906 48.079094 54.5095 48.290031 54.544656 48.418937 C 54.579813 48.547844 54.6345 48.758781 54.669656 48.887687 C 54.704813 49.0205 54.763406 49.231437 54.798563 49.36425 C 54.833719 49.493156 54.888406 49.704094 54.923563 49.836906 C 54.958719 49.969719 55.017313 50.180656 55.052469 50.313469 C 55.087625 50.446281 55.142313 50.661125 55.177469 50.793937 C 55.212625 50.92675 55.271219 51.141594 55.306375 51.274406 C 55.341531 51.411125 55.396219 51.625969 55.431375 51.758781 C 55.466531 51.8955 55.525125 52.110344 55.560281 52.247062 C 55.595438 52.379875 55.650125 52.598625 55.685281 52.735344 C 55.720438 52.872062 55.779031 53.090812 55.814188 53.227531 C 55.849344 53.360344 55.904031 53.583 55.939188 53.719719 C 55.974344 53.856437 56.032938 54.075187 56.068094 54.215812 C 56.10325 54.352531 56.157938 54.575187 56.193094 54.711906 C 56.22825 54.848625 56.286844 55.071281 56.322 55.211906 C 56.357156 55.352531 56.411844 55.575187 56.447 55.715812 C 56.482156 55.852531 56.54075 56.079094 56.575906 56.219719 C 56.611063 56.360344 56.66575 56.583 56.700906 56.727531 C 56.736063 56.868156 56.794656 57.094719 56.829813 57.235344 C 56.864969 57.375969 56.919656 57.602531 56.954813 57.747062 C 56.989969 57.887687 57.048563 58.118156 57.083719 58.258781 C 57.118875 58.403312 57.173563 58.633781 57.208719 58.774406 C 57.243875 58.918937 57.302469 59.149406 57.337625 59.293937 C 57.372781 59.438469 57.427469 59.668937 57.462625 59.813469 C 57.497781 59.958 57.556375 60.192375 57.591531 60.336906 C 57.626688 60.481437 57.681375 60.715812 57.716531 60.860344 C 57.751688 61.008781 57.810281 61.243156 57.845438 61.387687 C 57.880594 61.536125 57.935281 61.7705 57.970438 61.918937 C 58.005594 62.067375 58.064188 62.30175 58.099344 62.450187 C 58.1345 62.598625 58.189188 62.836906 58.224344 62.985344 C 58.2595 63.133781 58.318094 63.372062 58.35325 63.5205 C 58.388406 63.668937 58.443094 63.911125 58.47825 64.059562 C 58.513406 64.208 58.572 64.450187 58.607156 64.598625 C 58.642313 64.750969 58.697 64.993156 58.732156 65.1455 C 58.767313 65.293937 58.825906 65.536125 58.861063 65.688469 C 58.896219 65.840812 58.950906 66.083 58.986063 66.235344 C 59.021219 66.387687 59.079813 66.633781 59.114969 66.786125 C 59.150125 66.938469 59.204813 67.184562 59.239969 67.340812 C 59.275125 67.493156 59.333719 67.73925 59.368875 67.8955 C 59.404031 68.047844 59.458719 68.293937 59.493875 68.450187 C 59.529031 68.606437 59.587625 68.852531 59.622781 69.008781 C 59.657938 69.165031 59.712625 69.415031 59.747781 69.571281 C 59.782938 69.727531 59.841531 69.977531 59.876688 70.133781 C 59.911844 70.290031 60.001688 70.700187 60.001688 70.700187 " transform="matrix(1, 0, 0, -1, 24.803, 88.583)"/>
</svg>
