<?xml version="1.0" encoding="UTF-8"?>
<svg xmlns="http://www.w3.org/2000/svg" xmlns:xlink="http://www.w3.org/1999/xlink" width="113.386" height="113.386" viewBox="0 0 113.386 113.386">
<path fill-rule="nonzero" fill="rgb(50%, 50%, 50%)" fill-opacity="0.5" d="M 46.0625 63.78125 C 46.0625 52.039062 38.132812 42.519531 28.347656 42.519531 C 18.5625 42.519531 10.628906 52.039062 10.628906 63.78125 C 10.628906 75.519531 18.5625 85.039062 28.347656 85.039062 C 38.132812 85.039062 46.0625 75.519531 46.0625 63.78125 Z M 46.0625 63.78125 "/>
<path fill-rule="nonzero" fill="rgb(0%, 0%, 0%)" fill-opacity="0.5" d="M 102.757812 63.78125 C 102.757812 52.039062 94.824219 42.519531 85.039062 42.519531 C 75.253906 42.519531 67.324219 52.039062 67.324219 63.78125 C 67.324219 75.519531 75.253906 85.039062 85.039062 85.039062 C 94.824219 85.039062 102.757812 75.519531 102.757812 63.78125 Z M 102.757812 63.78125 "/>
<path fill="none" stroke-width="1.59404" stroke-linecap="butt" stroke-linejoin="miter" stroke="rgb(25%, 25%, 25%)" stroke-opacity="1" stroke-miterlimit="10" d="M -28.345344 17.009406 C -12.653938 32.700812 12.65075 31.28675 23.529656 20.407844 " transform="matrix(1, 0, 0, -1, 56.693, 56.693)"/>
<path fill-rule="nonzero" fill="rgb(25%, 25%, 25%)" fill-opacity="1" d="M 85.039062 41.101562 C 83.878906 39.40625 82.363281 36.285156 81.695312 33.742188 L 77.679688 37.757812 C 80.222656 38.425781 83.34375 39.941406 85.039062 41.101562 "/>
</svg>
