<?xml version="1.0" encoding="UTF-8"?>
<svg xmlns="http://www.w3.org/2000/svg" xmlns:xlink="http://www.w3.org/1999/xlink" width="113.386" height="113.386" viewBox="0 0 113.386 113.386">
<defs>
<clipPath id="clip-0">
<path clip-rule="nonzero" d="M 0 0 L 113.386719 0 L 113.386719 109 L 0 109 Z M 0 0 "/>
</clipPath>
</defs>
<path fill-rule="nonzero" fill="rgb(50%, 50%, 50%)" fill-opacity="0.5" d="M 38.976562 88.582031 L 38.976562 75.890625 C 38.976562 75.890625 40.257812 75.285156 40.75 75.046875 C 41.238281 74.808594 42.027344 74.417969 42.519531 74.171875 C 43.011719 73.921875 43.800781 73.515625 44.292969 73.257812 C 44.78125 72.996094 45.570312 72.574219 46.0625 72.300781 C 46.554688 72.03125 47.34375 71.589844 47.835938 71.308594 C 48.328125 71.027344 49.113281 70.566406 49.605469 70.273438 C 50.097656 69.976562 50.886719 69.496094 51.378906 69.191406 C 51.871094 68.886719 52.65625 68.382812 53.148438 68.066406 C 53.640625 67.746094 54.429688 67.222656 54.921875 66.890625 C 55.414062 66.558594 56.203125 66.011719 56.691406 65.664062 C 57.183594 65.316406 57.972656 64.75 58.464844 64.390625 C 58.957031 64.027344 59.746094 63.4375 60.238281 63.058594 C 60.726562 62.683594 61.515625 62.0625 62.007812 61.671875 C 62.5 61.277344 63.289062 60.632812 63.78125 60.226562 C 64.269531 59.816406 65.058594 59.144531 65.550781 58.71875 C 66.042969 58.289062 66.832031 57.589844 67.324219 57.144531 C 67.816406 56.699219 68.601562 55.96875 69.09375 55.503906 C 69.585938 55.039062 70.375 54.28125 70.867188 53.796875 C 71.359375 53.3125 72.148438 52.519531 72.636719 52.011719 C 73.128906 51.507812 73.917969 50.683594 74.410156 50.15625 C 74.902344 49.632812 75.691406 48.769531 76.179688 48.21875 C 76.671875 47.671875 77.460938 46.773438 77.953125 46.203125 C 78.445312 45.628906 79.234375 44.691406 79.726562 44.097656 C 80.214844 43.5 81.496094 41.902344 81.496094 41.902344 L 81.496094 88.582031 "/>
<path fill="none" stroke-width="0.79701" stroke-linecap="butt" stroke-linejoin="miter" stroke="rgb(0%, 0%, 0%)" stroke-opacity="1" stroke-miterlimit="10" d="M -14.174094 0.00096875 L 73.29075 0.00096875 " transform="matrix(1, 0, 0, -1, 24.803, 88.583)"/>
<path fill-rule="nonzero" fill="rgb(0%, 0%, 0%)" fill-opacity="1" d="M 102.757812 88.582031 C 101.375 88.324219 99.128906 87.546875 97.578125 86.640625 L 97.578125 90.527344 C 99.128906 89.617188 101.375 88.84375 102.757812 88.582031 "/>
<path fill="none" stroke-width="0.79701" stroke-linecap="butt" stroke-linejoin="miter" stroke="rgb(0%, 0%, 0%)" stroke-opacity="1" stroke-miterlimit="10" d="M 0.0016875 -14.174813 L 0.0016875 73.290031 " transform="matrix(1, 0, 0, -1, 24.803, 88.583)"/>
<path fill-rule="nonzero" fill="rgb(0%, 0%, 0%)" fill-opacity="1" d="M 24.804688 10.628906 C 24.542969 12.011719 23.765625 14.253906 22.859375 15.808594 L 26.746094 15.808594 C 25.839844 14.253906 25.0625 12.011719 24.804688 10.628906 "/>
<g clip-path="url(#clip-0)">
<path fill="none" stroke-width="1.59404" stroke-linecap="butt" stroke-linejoin="miter" stroke="rgb(25%, 25%, 25%)" stroke-opacity="1" stroke-miterlimit="10" d="M -14.174094 3.067375 C -14.174094 3.067375 -11.611594 3.696281 -10.631125 3.950187 C -9.64675 4.208 -8.068625 4.633781 -7.088156 4.911125 C -6.103781 5.188469 -4.525656 5.649406 -3.545188 5.954094 C -2.560813 6.254875 -0.982688 6.758781 0.0016875 7.086906 C 0.982156 7.415031 2.560281 7.961906 3.544656 8.317375 C 4.525125 8.672844 6.10325 9.2705 7.087625 9.657219 C 8.068094 10.043937 9.646219 10.692375 10.630594 11.110344 C 11.614969 11.532219 13.189187 12.235344 14.173562 12.692375 C 15.157937 13.149406 16.732156 13.915031 17.716531 14.411125 C 18.700906 14.911125 20.275125 15.73925 21.2595 16.282219 C 22.243875 16.821281 23.822 17.723625 24.802469 18.309562 C 25.786844 18.899406 27.364969 19.879875 28.345437 20.516594 C 29.329812 21.157219 30.907937 22.223625 31.888406 22.918937 C 32.872781 23.61425 34.450906 24.7705 35.435281 25.524406 C 36.41575 26.278312 37.993875 27.536125 38.97825 28.356437 C 39.958719 29.180656 41.536844 30.547844 42.521219 31.438469 C 43.501688 32.333 45.079813 33.817375 46.064188 34.786125 C 47.048563 35.754875 48.622781 37.372062 49.607156 38.42675 C 50.591531 39.477531 52.16575 41.235344 53.150125 42.379875 C 54.1345 43.528312 55.708719 45.434562 56.693094 46.680656 C 57.677469 47.922844 59.255594 50.000969 60.236063 51.352531 C 61.220438 52.704094 62.798563 54.961906 63.779031 56.434562 C 64.763406 57.903312 66.341531 60.352531 67.322 61.950187 C 68.306375 63.547844 70.868875 67.950187 70.868875 67.950187 " transform="matrix(1, 0, 0, -1, 24.803, 88.583)"/>
</g>
</svg>
