<?xml version="1.0" encoding="UTF-8"?>
<svg xmlns="http://www.w3.org/2000/svg" xmlns:xlink="http://www.w3.org/1999/xlink" width="448.947" height="321.388" viewBox="0 0 448.947 321.388">
<defs>
<clipPath id="clip-0">
<path clip-rule="nonzero" d="M 29 206 L 158 206 L 158 321.386719 L 29 321.386719 Z M 29 206 "/>
</clipPath>
<clipPath id="clip-1">
<path clip-rule="nonzero" d="M 348 57 L 448.945312 57 L 448.945312 186 L 348 186 Z M 348 57 "/>
</clipPath>
</defs>
<path fill="none" stroke-width="2.49069" stroke-linecap="butt" stroke-linejoin="miter" stroke="rgb(0%, 0%, 0%)" stroke-opacity="1" stroke-miterlimit="10" d="M 0.0006875 -0.00021875 L 0.0006875 118.324 " transform="matrix(1, 0, 0, -1, 128.804, 171.324)"/>
<path fill-rule="nonzero" fill="rgb(0%, 0%, 0%)" fill-opacity="1" d="M 128.804688 43.761719 C 128.289062 46.5 126.75 50.945312 124.957031 54.023438 L 132.652344 54.023438 C 130.855469 50.945312 129.316406 46.5 128.804688 43.761719 "/>
<path fill="none" stroke-width="2.49069" stroke-linecap="butt" stroke-linejoin="miter" stroke="rgb(0%, 0%, 0%)" stroke-opacity="1" stroke-miterlimit="10" d="M 85.03975 -127.558813 L 85.03975 -9.234594 " transform="matrix(1, 0, 0, -1, 128.804, 171.324)"/>
<path fill-rule="nonzero" fill="rgb(0%, 0%, 0%)" fill-opacity="1" d="M 213.84375 171.324219 C 213.332031 174.058594 211.792969 178.507812 209.996094 181.585938 L 217.691406 181.585938 C 215.898438 178.507812 214.359375 174.058594 213.84375 171.324219 "/>
<path fill="none" stroke-width="2.49069" stroke-linecap="butt" stroke-linejoin="miter" stroke="rgb(0%, 0%, 0%)" stroke-opacity="1" stroke-miterlimit="10" d="M 170.082719 42.519312 L 170.082719 160.843531 " transform="matrix(1, 0, 0, -1, 128.804, 171.324)"/>
<path fill-rule="nonzero" fill="rgb(0%, 0%, 0%)" fill-opacity="1" d="M 298.886719 1.242188 C 298.371094 3.980469 296.832031 8.425781 295.035156 11.503906 L 302.734375 11.503906 C 300.9375 8.425781 299.398438 3.980469 298.886719 1.242188 "/>
<path fill="none" stroke-width="2.49069" stroke-linecap="butt" stroke-linejoin="miter" stroke="rgb(0%, 0%, 0%)" stroke-opacity="1" stroke-miterlimit="10" d="M 297.641313 -127.558813 L 297.641313 -9.234594 " transform="matrix(1, 0, 0, -1, 128.804, 171.324)"/>
<path fill-rule="nonzero" fill="rgb(0%, 0%, 0%)" fill-opacity="1" d="M 426.445312 171.324219 C 425.933594 174.058594 424.394531 178.507812 422.597656 181.585938 L 430.292969 181.585938 C 428.496094 178.507812 426.957031 174.058594 426.445312 171.324219 "/>
<path fill="none" stroke-width="2.49069" stroke-linecap="butt" stroke-linejoin="miter" stroke="rgb(0%, 0%, 0%)" stroke-opacity="1" stroke-miterlimit="10" d="M -85.042281 63.781031 L -45.440719 -55.01975 " transform="matrix(1, 0, 0, -1, 128.804, 171.324)"/>
<path fill-rule="nonzero" fill="rgb(0%, 0%, 0%)" fill-opacity="1" d="M 86.285156 235.105469 C 85.90625 232.347656 85.960938 227.640625 86.6875 224.152344 L 79.386719 226.585938 C 82.066406 228.9375 84.933594 232.671875 86.285156 235.105469 "/>
<path fill="none" stroke-width="2.49069" stroke-linecap="butt" stroke-linejoin="miter" stroke="rgb(0%, 0%, 0%)" stroke-opacity="1" stroke-miterlimit="10" d="M -127.561813 21.2615 L -87.96025 -97.539281 " transform="matrix(1, 0, 0, -1, 128.804, 171.324)"/>
<path fill-rule="nonzero" fill="rgb(0%, 0%, 0%)" fill-opacity="1" d="M 43.761719 277.625 C 43.386719 274.867188 43.4375 270.160156 44.167969 266.671875 L 36.867188 269.105469 C 39.546875 271.460938 42.410156 275.191406 43.761719 277.625 "/>
<path fill="none" stroke-width="2.49069" stroke-linecap="butt" stroke-linejoin="miter" stroke="rgb(0%, 0%, 0%)" stroke-opacity="1" stroke-miterlimit="10" d="M 148.821 42.519312 L 188.422562 -76.277563 " transform="matrix(1, 0, 0, -1, 128.804, 171.324)"/>
<path fill-rule="nonzero" fill="rgb(0%, 0%, 0%)" fill-opacity="1" d="M 320.144531 256.363281 C 319.765625 253.605469 319.820312 248.902344 320.550781 245.414062 L 313.25 247.847656 C 315.925781 250.199219 318.792969 253.929688 320.144531 256.363281 "/>
<g clip-path="url(#clip-0)">
<path fill="none" stroke-width="2.49069" stroke-linecap="butt" stroke-linejoin="miter" stroke="rgb(0%, 0%, 0%)" stroke-opacity="1" stroke-miterlimit="10" d="M -63.780563 -127.558813 L -6.530563 -70.312719 " transform="matrix(1, 0, 0, -1, 128.804, 171.324)"/>
</g>
<path fill-rule="nonzero" fill="rgb(0%, 0%, 0%)" fill-opacity="1" d="M 128.804688 235.105469 C 126.507812 236.675781 122.273438 238.730469 118.828125 239.640625 L 124.269531 245.082031 C 125.175781 241.636719 127.230469 237.402344 128.804688 235.105469 "/>
<path fill="none" stroke-width="2.49069" stroke-linecap="butt" stroke-linejoin="miter" stroke="rgb(0%, 0%, 0%)" stroke-opacity="1" stroke-miterlimit="10" d="M 212.60225 -106.301 L 269.85225 -49.051 " transform="matrix(1, 0, 0, -1, 128.804, 171.324)"/>
<path fill-rule="nonzero" fill="rgb(0%, 0%, 0%)" fill-opacity="1" d="M 405.183594 213.84375 C 402.886719 215.417969 398.65625 217.472656 395.207031 218.378906 L 400.648438 223.820312 C 401.558594 220.375 403.613281 216.140625 405.183594 213.84375 "/>
<g clip-path="url(#clip-1)">
<path fill="none" stroke-width="2.49069" stroke-linecap="butt" stroke-linejoin="miter" stroke="rgb(0%, 0%, 0%)" stroke-opacity="1" stroke-miterlimit="10" d="M 255.121781 21.2615 L 312.371781 78.5115 " transform="matrix(1, 0, 0, -1, 128.804, 171.324)"/>
</g>
<path fill-rule="nonzero" fill="rgb(0%, 0%, 0%)" fill-opacity="1" d="M 447.707031 86.285156 C 445.40625 87.855469 441.175781 89.910156 437.730469 90.820312 L 443.171875 96.261719 C 444.078125 92.8125 446.132812 88.582031 447.707031 86.285156 "/>
<path fill="none" stroke-width="2.49069" stroke-linecap="butt" stroke-linejoin="miter" stroke="rgb(0%, 0%, 0%)" stroke-opacity="1" stroke-miterlimit="10" d="M 191.340531 -116.929906 L 136.797562 -116.929906 " transform="matrix(1, 0, 0, -1, 128.804, 171.324)"/>
<path fill-rule="nonzero" fill="rgb(0%, 0%, 0%)" fill-opacity="1" d="M 256.363281 288.253906 C 259.101562 288.769531 263.546875 290.308594 266.625 292.101562 L 266.625 284.40625 C 263.546875 286.203125 259.101562 287.742188 256.363281 288.253906 "/>
<path fill="none" stroke-width="2.49069" stroke-linecap="butt" stroke-linejoin="miter" stroke="rgb(0%, 0%, 0%)" stroke-opacity="1" stroke-miterlimit="10" d="M 106.301469 127.562281 L 51.754594 127.562281 " transform="matrix(1, 0, 0, -1, 128.804, 171.324)"/>
<path fill-rule="nonzero" fill="rgb(0%, 0%, 0%)" fill-opacity="1" d="M 171.324219 43.761719 C 174.0625 44.277344 178.507812 45.816406 181.585938 47.613281 L 181.585938 39.914062 C 178.507812 41.710938 174.0625 43.25 171.324219 43.761719 "/>
<path fill="none" stroke-width="2.49069" stroke-linecap="butt" stroke-linejoin="miter" stroke="rgb(0%, 0%, 0%)" stroke-opacity="1" stroke-miterlimit="10" d="M -10.628219 -116.929906 L 43.91475 -116.929906 " transform="matrix(1, 0, 0, -1, 128.804, 171.324)"/>
<path fill-rule="nonzero" fill="rgb(0%, 0%, 0%)" fill-opacity="1" d="M 181.953125 288.253906 C 179.21875 287.742188 174.769531 286.203125 171.691406 284.40625 L 171.691406 292.101562 C 174.769531 290.308594 179.21875 288.769531 181.953125 288.253906 "/>
<path fill="none" stroke-width="2.49069" stroke-linecap="butt" stroke-linejoin="miter" stroke="rgb(0%, 0%, 0%)" stroke-opacity="1" stroke-miterlimit="10" d="M 63.781937 85.038844 L 63.781937 30.495875 " transform="matrix(1, 0, 0, -1, 128.804, 171.324)"/>
<path fill-rule="nonzero" fill="rgb(0%, 0%, 0%)" fill-opacity="1" d="M 192.585938 150.0625 C 193.097656 147.328125 194.636719 142.878906 196.433594 139.800781 L 188.734375 139.800781 C 190.53125 142.878906 192.070312 147.328125 192.585938 150.0625 "/>
<path fill="none" stroke-width="2.49069" stroke-linecap="butt" stroke-linejoin="miter" stroke="rgb(0%, 0%, 0%)" stroke-opacity="1" stroke-miterlimit="10" d="M 276.379594 -85.039281 L 276.379594 -139.586156 " transform="matrix(1, 0, 0, -1, 128.804, 171.324)"/>
<path fill-rule="nonzero" fill="rgb(0%, 0%, 0%)" fill-opacity="1" d="M 405.183594 320.144531 C 405.699219 317.410156 407.238281 312.960938 409.035156 309.882812 L 401.335938 309.882812 C 403.132812 312.960938 404.671875 317.410156 405.183594 320.144531 "/>
</svg>
