<?xml version="1.0" encoding="UTF-8"?>
<svg xmlns="http://www.w3.org/2000/svg" xmlns:xlink="http://www.w3.org/1999/xlink" width="518.288" height="73.107" viewBox="0 0 518.288 73.107">
<defs>
<clipPath id="clip-0">
<path clip-rule="nonzero" d="M 0 58 L 14 58 L 14 73.105469 L 0 73.105469 Z M 0 58 "/>
</clipPath>
<clipPath id="clip-1">
<path clip-rule="nonzero" d="M 185 58 L 205 58 L 205 73.105469 L 185 73.105469 Z M 185 58 "/>
</clipPath>
<clipPath id="clip-2">
<path clip-rule="nonzero" d="M 377 58 L 397 58 L 397 73.105469 L 377 73.105469 Z M 377 58 "/>
</clipPath>
<clipPath id="clip-3">
<path clip-rule="nonzero" d="M 37 58 L 57 58 L 57 73.105469 L 37 73.105469 Z M 37 58 "/>
</clipPath>
<clipPath id="clip-4">
<path clip-rule="nonzero" d="M 228 58 L 248 58 L 248 73.105469 L 228 73.105469 Z M 228 58 "/>
</clipPath>
<clipPath id="clip-5">
<path clip-rule="nonzero" d="M 419 58 L 439 58 L 439 73.105469 L 419 73.105469 Z M 419 58 "/>
</clipPath>
<clipPath id="clip-6">
<path clip-rule="nonzero" d="M 79 58 L 99 58 L 99 73.105469 L 79 73.105469 Z M 79 58 "/>
</clipPath>
<clipPath id="clip-7">
<path clip-rule="nonzero" d="M 270 58 L 290 58 L 290 73.105469 L 270 73.105469 Z M 270 58 "/>
</clipPath>
<clipPath id="clip-8">
<path clip-rule="nonzero" d="M 462 58 L 482 58 L 482 73.105469 L 462 73.105469 Z M 462 58 "/>
</clipPath>
<clipPath id="clip-9">
<path clip-rule="nonzero" d="M 122 58 L 142 58 L 142 73.105469 L 122 73.105469 Z M 122 58 "/>
</clipPath>
<clipPath id="clip-10">
<path clip-rule="nonzero" d="M 313 58 L 333 58 L 333 73.105469 L 313 73.105469 Z M 313 58 "/>
</clipPath>
<clipPath id="clip-11">
<path clip-rule="nonzero" d="M 510 63 L 518.289062 63 L 518.289062 72 L 510 72 Z M 510 63 "/>
</clipPath>
<clipPath id="clip-12">
<path clip-rule="nonzero" d="M 504 58 L 518.289062 58 L 518.289062 73.105469 L 504 73.105469 Z M 504 58 "/>
</clipPath>
<clipPath id="clip-13">
<path clip-rule="nonzero" d="M 35 57 L 58 57 L 58 73.105469 L 35 73.105469 Z M 35 57 "/>
</clipPath>
<clipPath id="clip-14">
<path clip-rule="nonzero" d="M 227 57 L 249 57 L 249 73.105469 L 227 73.105469 Z M 227 57 "/>
</clipPath>
<clipPath id="clip-15">
<path clip-rule="nonzero" d="M 418 57 L 440 57 L 440 73.105469 L 418 73.105469 Z M 418 57 "/>
</clipPath>
</defs>
<path fill-rule="nonzero" fill="rgb(0%, 0%, 0%)" fill-opacity="1" stroke-width="0.3985" stroke-linecap="butt" stroke-linejoin="miter" stroke="rgb(0%, 0%, 0%)" stroke-opacity="1" stroke-miterlimit="10" d="M 3.827813 -0.00134375 C 3.827813 2.111937 2.112969 3.826781 -0.0003125 3.826781 C -2.113594 3.826781 -3.828437 2.111937 -3.828437 -0.00134375 C -3.828437 -2.114625 -2.113594 -3.825563 -0.0003125 -3.825563 C 2.112969 -3.825563 3.827813 -2.114625 3.827813 -0.00134375 Z M 3.827813 -0.00134375 " transform="matrix(1, 0, 0, -1, 67.805, 4.026)"/>
<path fill-rule="nonzero" fill="rgb(0%, 0%, 0%)" fill-opacity="1" stroke-width="0.3985" stroke-linecap="butt" stroke-linejoin="miter" stroke="rgb(0%, 0%, 0%)" stroke-opacity="1" stroke-miterlimit="10" d="M 195.167656 -0.00134375 C 195.167656 2.111937 193.452812 3.826781 191.339531 3.826781 C 189.22625 3.826781 187.515312 2.111937 187.515312 -0.00134375 C 187.515312 -2.114625 189.22625 -3.825563 191.339531 -3.825563 C 193.452812 -3.825563 195.167656 -2.114625 195.167656 -0.00134375 Z M 195.167656 -0.00134375 " transform="matrix(1, 0, 0, -1, 67.805, 4.026)"/>
<path fill-rule="nonzero" fill="rgb(0%, 0%, 0%)" fill-opacity="1" stroke-width="0.3985" stroke-linecap="butt" stroke-linejoin="miter" stroke="rgb(0%, 0%, 0%)" stroke-opacity="1" stroke-miterlimit="10" d="M 386.5075 -0.00134375 C 386.5075 2.111937 384.796562 3.826781 382.683281 3.826781 C 380.57 3.826781 378.855156 2.111937 378.855156 -0.00134375 C 378.855156 -2.114625 380.57 -3.825563 382.683281 -3.825563 C 384.796562 -3.825563 386.5075 -2.114625 386.5075 -0.00134375 Z M 386.5075 -0.00134375 " transform="matrix(1, 0, 0, -1, 67.805, 4.026)"/>
<path fill-rule="nonzero" fill="rgb(0%, 0%, 0%)" fill-opacity="1" stroke-width="0.3985" stroke-linecap="butt" stroke-linejoin="miter" stroke="rgb(0%, 0%, 0%)" stroke-opacity="1" stroke-miterlimit="10" d="M -17.433906 -21.259156 C -17.433906 -19.145875 -19.144844 -17.434938 -21.262031 -17.434938 C -23.375312 -17.434938 -25.08625 -19.145875 -25.08625 -21.259156 C -25.08625 -23.372438 -23.375312 -25.087281 -21.262031 -25.087281 C -19.144844 -25.087281 -17.433906 -23.372438 -17.433906 -21.259156 Z M -17.433906 -21.259156 " transform="matrix(1, 0, 0, -1, 67.805, 4.026)"/>
<path fill-rule="nonzero" fill="rgb(0%, 0%, 0%)" fill-opacity="1" stroke-width="0.3985" stroke-linecap="butt" stroke-linejoin="miter" stroke="rgb(0%, 0%, 0%)" stroke-opacity="1" stroke-miterlimit="10" d="M 173.905937 -21.259156 C 173.905937 -19.145875 172.195 -17.434938 170.081719 -17.434938 C 167.968437 -17.434938 166.253594 -19.145875 166.253594 -21.259156 C 166.253594 -23.372438 167.968437 -25.087281 170.081719 -25.087281 C 172.195 -25.087281 173.905937 -23.372438 173.905937 -21.259156 Z M 173.905937 -21.259156 " transform="matrix(1, 0, 0, -1, 67.805, 4.026)"/>
<path fill-rule="nonzero" fill="rgb(0%, 0%, 0%)" fill-opacity="1" stroke-width="0.3985" stroke-linecap="butt" stroke-linejoin="miter" stroke="rgb(0%, 0%, 0%)" stroke-opacity="1" stroke-miterlimit="10" d="M 365.249687 -21.259156 C 365.249687 -19.145875 363.534844 -17.434938 361.421562 -17.434938 C 359.308281 -17.434938 357.593437 -19.145875 357.593437 -21.259156 C 357.593437 -23.372438 359.308281 -25.087281 361.421562 -25.087281 C 363.534844 -25.087281 365.249687 -23.372438 365.249687 -21.259156 Z M 365.249687 -21.259156 " transform="matrix(1, 0, 0, -1, 67.805, 4.026)"/>
<path fill-rule="nonzero" fill="rgb(0%, 0%, 0%)" fill-opacity="1" stroke-width="0.3985" stroke-linecap="butt" stroke-linejoin="miter" stroke="rgb(0%, 0%, 0%)" stroke-opacity="1" stroke-miterlimit="10" d="M 25.085625 -21.259156 C 25.085625 -19.145875 23.374688 -17.434938 21.261406 -17.434938 C 19.148125 -17.434938 17.433281 -19.145875 17.433281 -21.259156 C 17.433281 -23.372438 19.148125 -25.087281 21.261406 -25.087281 C 23.374688 -25.087281 25.085625 -23.372438 25.085625 -21.259156 Z M 25.085625 -21.259156 " transform="matrix(1, 0, 0, -1, 67.805, 4.026)"/>
<path fill-rule="nonzero" fill="rgb(0%, 0%, 0%)" fill-opacity="1" stroke-width="0.3985" stroke-linecap="butt" stroke-linejoin="miter" stroke="rgb(0%, 0%, 0%)" stroke-opacity="1" stroke-miterlimit="10" d="M 216.429375 -21.259156 C 216.429375 -19.145875 214.714531 -17.434938 212.60125 -17.434938 C 210.487969 -17.434938 208.773125 -19.145875 208.773125 -21.259156 C 208.773125 -23.372438 210.487969 -25.087281 212.60125 -25.087281 C 214.714531 -25.087281 216.429375 -23.372438 216.429375 -21.259156 Z M 216.429375 -21.259156 " transform="matrix(1, 0, 0, -1, 67.805, 4.026)"/>
<path fill-rule="nonzero" fill="rgb(0%, 0%, 0%)" fill-opacity="1" stroke-width="0.3985" stroke-linecap="butt" stroke-linejoin="miter" stroke="rgb(0%, 0%, 0%)" stroke-opacity="1" stroke-miterlimit="10" d="M 407.769219 -21.259156 C 407.769219 -19.145875 406.054375 -17.434938 403.941094 -17.434938 C 401.827812 -17.434938 400.116875 -19.145875 400.116875 -21.259156 C 400.116875 -23.372438 401.827812 -25.087281 403.941094 -25.087281 C 406.054375 -25.087281 407.769219 -23.372438 407.769219 -21.259156 Z M 407.769219 -21.259156 " transform="matrix(1, 0, 0, -1, 67.805, 4.026)"/>
<path fill-rule="nonzero" fill="rgb(0%, 0%, 0%)" fill-opacity="1" stroke-width="0.3985" stroke-linecap="butt" stroke-linejoin="miter" stroke="rgb(0%, 0%, 0%)" stroke-opacity="1" stroke-miterlimit="10" d="M -38.691719 -42.520875 C -38.691719 -40.407594 -40.406562 -38.69275 -42.519844 -38.69275 C -44.633125 -38.69275 -46.347969 -40.407594 -46.347969 -42.520875 C -46.347969 -44.634156 -44.633125 -46.345094 -42.519844 -46.345094 C -40.406562 -46.345094 -38.691719 -44.634156 -38.691719 -42.520875 Z M -38.691719 -42.520875 " transform="matrix(1, 0, 0, -1, 67.805, 4.026)"/>
<path fill-rule="nonzero" fill="rgb(0%, 0%, 0%)" fill-opacity="1" stroke-width="0.3985" stroke-linecap="butt" stroke-linejoin="miter" stroke="rgb(0%, 0%, 0%)" stroke-opacity="1" stroke-miterlimit="10" d="M 152.648125 -42.520875 C 152.648125 -40.407594 150.933281 -38.69275 148.82 -38.69275 C 146.706719 -38.69275 144.995781 -40.407594 144.995781 -42.520875 C 144.995781 -44.634156 146.706719 -46.345094 148.82 -46.345094 C 150.933281 -46.345094 152.648125 -44.634156 152.648125 -42.520875 Z M 152.648125 -42.520875 " transform="matrix(1, 0, 0, -1, 67.805, 4.026)"/>
<path fill-rule="nonzero" fill="rgb(0%, 0%, 0%)" fill-opacity="1" stroke-width="0.3985" stroke-linecap="butt" stroke-linejoin="miter" stroke="rgb(0%, 0%, 0%)" stroke-opacity="1" stroke-miterlimit="10" d="M 343.987969 -42.520875 C 343.987969 -40.407594 342.277031 -38.69275 340.159844 -38.69275 C 338.046562 -38.69275 336.335625 -40.407594 336.335625 -42.520875 C 336.335625 -44.634156 338.046562 -46.345094 340.159844 -46.345094 C 342.277031 -46.345094 343.987969 -44.634156 343.987969 -42.520875 Z M 343.987969 -42.520875 " transform="matrix(1, 0, 0, -1, 67.805, 4.026)"/>
<path fill-rule="nonzero" fill="rgb(0%, 0%, 0%)" fill-opacity="1" stroke-width="0.3985" stroke-linecap="butt" stroke-linejoin="miter" stroke="rgb(0%, 0%, 0%)" stroke-opacity="1" stroke-miterlimit="10" d="M 3.827813 -42.520875 C 3.827813 -40.407594 2.112969 -38.69275 -0.0003125 -38.69275 C -2.113594 -38.69275 -3.828437 -40.407594 -3.828437 -42.520875 C -3.828437 -44.634156 -2.113594 -46.345094 -0.0003125 -46.345094 C 2.112969 -46.345094 3.827813 -44.634156 3.827813 -42.520875 Z M 3.827813 -42.520875 " transform="matrix(1, 0, 0, -1, 67.805, 4.026)"/>
<path fill-rule="nonzero" fill="rgb(0%, 0%, 0%)" fill-opacity="1" stroke-width="0.3985" stroke-linecap="butt" stroke-linejoin="miter" stroke="rgb(0%, 0%, 0%)" stroke-opacity="1" stroke-miterlimit="10" d="M 195.167656 -42.520875 C 195.167656 -40.407594 193.452812 -38.69275 191.339531 -38.69275 C 189.22625 -38.69275 187.515312 -40.407594 187.515312 -42.520875 C 187.515312 -44.634156 189.22625 -46.345094 191.339531 -46.345094 C 193.452812 -46.345094 195.167656 -44.634156 195.167656 -42.520875 Z M 195.167656 -42.520875 " transform="matrix(1, 0, 0, -1, 67.805, 4.026)"/>
<path fill-rule="nonzero" fill="rgb(0%, 0%, 0%)" fill-opacity="1" stroke-width="0.3985" stroke-linecap="butt" stroke-linejoin="miter" stroke="rgb(0%, 0%, 0%)" stroke-opacity="1" stroke-miterlimit="10" d="M 386.5075 -42.520875 C 386.5075 -40.407594 384.796562 -38.69275 382.683281 -38.69275 C 380.57 -38.69275 378.855156 -40.407594 378.855156 -42.520875 C 378.855156 -44.634156 380.57 -46.345094 382.683281 -46.345094 C 384.796562 -46.345094 386.5075 -44.634156 386.5075 -42.520875 Z M 386.5075 -42.520875 " transform="matrix(1, 0, 0, -1, 67.805, 4.026)"/>
<path fill-rule="nonzero" fill="rgb(0%, 0%, 0%)" fill-opacity="1" stroke-width="0.3985" stroke-linecap="butt" stroke-linejoin="miter" stroke="rgb(0%, 0%, 0%)" stroke-opacity="1" stroke-miterlimit="10" d="M 46.347344 -42.520875 C 46.347344 -40.407594 44.6325 -38.69275 42.519219 -38.69275 C 40.405938 -38.69275 38.695 -40.407594 38.695 -42.520875 C 38.695 -44.634156 40.405938 -46.345094 42.519219 -46.345094 C 44.6325 -46.345094 46.347344 -44.634156 46.347344 -42.520875 Z M 46.347344 -42.520875 " transform="matrix(1, 0, 0, -1, 67.805, 4.026)"/>
<path fill-rule="nonzero" fill="rgb(0%, 0%, 0%)" fill-opacity="1" stroke-width="0.3985" stroke-linecap="butt" stroke-linejoin="miter" stroke="rgb(0%, 0%, 0%)" stroke-opacity="1" stroke-miterlimit="10" d="M 237.687187 -42.520875 C 237.687187 -40.407594 235.97625 -38.69275 233.862969 -38.69275 C 231.749687 -38.69275 230.034844 -40.407594 230.034844 -42.520875 C 230.034844 -44.634156 231.749687 -46.345094 233.862969 -46.345094 C 235.97625 -46.345094 237.687187 -44.634156 237.687187 -42.520875 Z M 237.687187 -42.520875 " transform="matrix(1, 0, 0, -1, 67.805, 4.026)"/>
<path fill-rule="nonzero" fill="rgb(0%, 0%, 0%)" fill-opacity="1" stroke-width="0.3985" stroke-linecap="butt" stroke-linejoin="miter" stroke="rgb(0%, 0%, 0%)" stroke-opacity="1" stroke-miterlimit="10" d="M 429.027031 -42.520875 C 429.027031 -40.407594 427.316094 -38.69275 425.202812 -38.69275 C 423.089531 -38.69275 421.374687 -40.407594 421.374687 -42.520875 C 421.374687 -44.634156 423.089531 -46.345094 425.202812 -46.345094 C 427.316094 -46.345094 429.027031 -44.634156 429.027031 -42.520875 Z M 429.027031 -42.520875 " transform="matrix(1, 0, 0, -1, 67.805, 4.026)"/>
<path fill-rule="nonzero" fill="rgb(0%, 0%, 0%)" fill-opacity="1" d="M 7.851562 67.804688 C 7.851562 65.691406 6.136719 63.980469 4.023438 63.980469 C 1.910156 63.980469 0.199219 65.691406 0.199219 67.804688 C 0.199219 69.917969 1.910156 71.632812 4.023438 71.632812 C 6.136719 71.632812 7.851562 69.917969 7.851562 67.804688 Z M 7.851562 67.804688 "/>
<g clip-path="url(#clip-0)">
<path fill="none" stroke-width="0.3985" stroke-linecap="butt" stroke-linejoin="miter" stroke="rgb(0%, 0%, 0%)" stroke-opacity="1" stroke-miterlimit="10" d="M -59.953437 -63.778688 C -59.953437 -61.665406 -61.668281 -59.954469 -63.781562 -59.954469 C -65.894844 -59.954469 -67.605781 -61.665406 -67.605781 -63.778688 C -67.605781 -65.891969 -65.894844 -67.606813 -63.781562 -67.606813 C -61.668281 -67.606813 -59.953437 -65.891969 -59.953437 -63.778688 Z M -59.953437 -63.778688 " transform="matrix(1, 0, 0, -1, 67.805, 4.026)"/>
</g>
<path fill-rule="nonzero" fill="rgb(0%, 0%, 0%)" fill-opacity="1" d="M 199.191406 67.804688 C 199.191406 65.691406 197.480469 63.980469 195.367188 63.980469 C 193.253906 63.980469 191.539062 65.691406 191.539062 67.804688 C 191.539062 69.917969 193.253906 71.632812 195.367188 71.632812 C 197.480469 71.632812 199.191406 69.917969 199.191406 67.804688 Z M 199.191406 67.804688 "/>
<g clip-path="url(#clip-1)">
<path fill="none" stroke-width="0.3985" stroke-linecap="butt" stroke-linejoin="miter" stroke="rgb(0%, 0%, 0%)" stroke-opacity="1" stroke-miterlimit="10" d="M 131.386406 -63.778688 C 131.386406 -61.665406 129.675469 -59.954469 127.562188 -59.954469 C 125.448906 -59.954469 123.734063 -61.665406 123.734063 -63.778688 C 123.734063 -65.891969 125.448906 -67.606813 127.562188 -67.606813 C 129.675469 -67.606813 131.386406 -65.891969 131.386406 -63.778688 Z M 131.386406 -63.778688 " transform="matrix(1, 0, 0, -1, 67.805, 4.026)"/>
</g>
<path fill-rule="nonzero" fill="rgb(0%, 0%, 0%)" fill-opacity="1" d="M 390.535156 67.804688 C 390.535156 65.691406 388.820312 63.980469 386.707031 63.980469 C 384.59375 63.980469 382.878906 65.691406 382.878906 67.804688 C 382.878906 69.917969 384.59375 71.632812 386.707031 71.632812 C 388.820312 71.632812 390.535156 69.917969 390.535156 67.804688 Z M 390.535156 67.804688 "/>
<g clip-path="url(#clip-2)">
<path fill="none" stroke-width="0.3985" stroke-linecap="butt" stroke-linejoin="miter" stroke="rgb(0%, 0%, 0%)" stroke-opacity="1" stroke-miterlimit="10" d="M 322.730156 -63.778688 C 322.730156 -61.665406 321.015312 -59.954469 318.902031 -59.954469 C 316.78875 -59.954469 315.073906 -61.665406 315.073906 -63.778688 C 315.073906 -65.891969 316.78875 -67.606813 318.902031 -67.606813 C 321.015312 -67.606813 322.730156 -65.891969 322.730156 -63.778688 Z M 322.730156 -63.778688 " transform="matrix(1, 0, 0, -1, 67.805, 4.026)"/>
</g>
<path fill-rule="nonzero" fill="rgb(0%, 0%, 0%)" fill-opacity="1" d="M 50.371094 67.804688 C 50.371094 65.691406 48.660156 63.980469 46.542969 63.980469 C 44.429688 63.980469 42.71875 65.691406 42.71875 67.804688 C 42.71875 69.917969 44.429688 71.632812 46.542969 71.632812 C 48.660156 71.632812 50.371094 69.917969 50.371094 67.804688 Z M 50.371094 67.804688 "/>
<g clip-path="url(#clip-3)">
<path fill="none" stroke-width="0.3985" stroke-linecap="butt" stroke-linejoin="miter" stroke="rgb(0%, 0%, 0%)" stroke-opacity="1" stroke-miterlimit="10" d="M -17.433906 -63.778688 C -17.433906 -61.665406 -19.144844 -59.954469 -21.262031 -59.954469 C -23.375312 -59.954469 -25.08625 -61.665406 -25.08625 -63.778688 C -25.08625 -65.891969 -23.375312 -67.606813 -21.262031 -67.606813 C -19.144844 -67.606813 -17.433906 -65.891969 -17.433906 -63.778688 Z M -17.433906 -63.778688 " transform="matrix(1, 0, 0, -1, 67.805, 4.026)"/>
</g>
<path fill-rule="nonzero" fill="rgb(0%, 0%, 0%)" fill-opacity="1" d="M 241.710938 67.804688 C 241.710938 65.691406 240 63.980469 237.886719 63.980469 C 235.773438 63.980469 234.058594 65.691406 234.058594 67.804688 C 234.058594 69.917969 235.773438 71.632812 237.886719 71.632812 C 240 71.632812 241.710938 69.917969 241.710938 67.804688 Z M 241.710938 67.804688 "/>
<g clip-path="url(#clip-4)">
<path fill="none" stroke-width="0.3985" stroke-linecap="butt" stroke-linejoin="miter" stroke="rgb(0%, 0%, 0%)" stroke-opacity="1" stroke-miterlimit="10" d="M 173.905937 -63.778688 C 173.905937 -61.665406 172.195 -59.954469 170.081719 -59.954469 C 167.968437 -59.954469 166.253594 -61.665406 166.253594 -63.778688 C 166.253594 -65.891969 167.968437 -67.606813 170.081719 -67.606813 C 172.195 -67.606813 173.905937 -65.891969 173.905937 -63.778688 Z M 173.905937 -63.778688 " transform="matrix(1, 0, 0, -1, 67.805, 4.026)"/>
</g>
<path fill-rule="nonzero" fill="rgb(0%, 0%, 0%)" fill-opacity="1" d="M 433.054688 67.804688 C 433.054688 65.691406 431.339844 63.980469 429.226562 63.980469 C 427.113281 63.980469 425.398438 65.691406 425.398438 67.804688 C 425.398438 69.917969 427.113281 71.632812 429.226562 71.632812 C 431.339844 71.632812 433.054688 69.917969 433.054688 67.804688 Z M 433.054688 67.804688 "/>
<g clip-path="url(#clip-5)">
<path fill="none" stroke-width="0.3985" stroke-linecap="butt" stroke-linejoin="miter" stroke="rgb(0%, 0%, 0%)" stroke-opacity="1" stroke-miterlimit="10" d="M 365.249687 -63.778688 C 365.249687 -61.665406 363.534844 -59.954469 361.421562 -59.954469 C 359.308281 -59.954469 357.593437 -61.665406 357.593437 -63.778688 C 357.593437 -65.891969 359.308281 -67.606813 361.421562 -67.606813 C 363.534844 -67.606813 365.249687 -65.891969 365.249687 -63.778688 Z M 365.249687 -63.778688 " transform="matrix(1, 0, 0, -1, 67.805, 4.026)"/>
</g>
<path fill-rule="nonzero" fill="rgb(0%, 0%, 0%)" fill-opacity="1" d="M 92.890625 67.804688 C 92.890625 65.691406 91.179688 63.980469 89.066406 63.980469 C 86.953125 63.980469 85.238281 65.691406 85.238281 67.804688 C 85.238281 69.917969 86.953125 71.632812 89.066406 71.632812 C 91.179688 71.632812 92.890625 69.917969 92.890625 67.804688 Z M 92.890625 67.804688 "/>
<g clip-path="url(#clip-6)">
<path fill="none" stroke-width="0.3985" stroke-linecap="butt" stroke-linejoin="miter" stroke="rgb(0%, 0%, 0%)" stroke-opacity="1" stroke-miterlimit="10" d="M 25.085625 -63.778688 C 25.085625 -61.665406 23.374688 -59.954469 21.261406 -59.954469 C 19.148125 -59.954469 17.433281 -61.665406 17.433281 -63.778688 C 17.433281 -65.891969 19.148125 -67.606813 21.261406 -67.606813 C 23.374688 -67.606813 25.085625 -65.891969 25.085625 -63.778688 Z M 25.085625 -63.778688 " transform="matrix(1, 0, 0, -1, 67.805, 4.026)"/>
</g>
<path fill-rule="nonzero" fill="rgb(0%, 0%, 0%)" fill-opacity="1" d="M 284.234375 67.804688 C 284.234375 65.691406 282.519531 63.980469 280.40625 63.980469 C 278.292969 63.980469 276.578125 65.691406 276.578125 67.804688 C 276.578125 69.917969 278.292969 71.632812 280.40625 71.632812 C 282.519531 71.632812 284.234375 69.917969 284.234375 67.804688 Z M 284.234375 67.804688 "/>
<g clip-path="url(#clip-7)">
<path fill="none" stroke-width="0.3985" stroke-linecap="butt" stroke-linejoin="miter" stroke="rgb(0%, 0%, 0%)" stroke-opacity="1" stroke-miterlimit="10" d="M 216.429375 -63.778688 C 216.429375 -61.665406 214.714531 -59.954469 212.60125 -59.954469 C 210.487969 -59.954469 208.773125 -61.665406 208.773125 -63.778688 C 208.773125 -65.891969 210.487969 -67.606813 212.60125 -67.606813 C 214.714531 -67.606813 216.429375 -65.891969 216.429375 -63.778688 Z M 216.429375 -63.778688 " transform="matrix(1, 0, 0, -1, 67.805, 4.026)"/>
</g>
<path fill-rule="nonzero" fill="rgb(0%, 0%, 0%)" fill-opacity="1" d="M 475.574219 67.804688 C 475.574219 65.691406 473.859375 63.980469 471.746094 63.980469 C 469.632812 63.980469 467.921875 65.691406 467.921875 67.804688 C 467.921875 69.917969 469.632812 71.632812 471.746094 71.632812 C 473.859375 71.632812 475.574219 69.917969 475.574219 67.804688 Z M 475.574219 67.804688 "/>
<g clip-path="url(#clip-8)">
<path fill="none" stroke-width="0.3985" stroke-linecap="butt" stroke-linejoin="miter" stroke="rgb(0%, 0%, 0%)" stroke-opacity="1" stroke-miterlimit="10" d="M 407.769219 -63.778688 C 407.769219 -61.665406 406.054375 -59.954469 403.941094 -59.954469 C 401.827812 -59.954469 400.116875 -61.665406 400.116875 -63.778688 C 400.116875 -65.891969 401.827812 -67.606813 403.941094 -67.606813 C 406.054375 -67.606813 407.769219 -65.891969 407.769219 -63.778688 Z M 407.769219 -63.778688 " transform="matrix(1, 0, 0, -1, 67.805, 4.026)"/>
</g>
<path fill-rule="nonzero" fill="rgb(0%, 0%, 0%)" fill-opacity="1" d="M 135.410156 67.804688 C 135.410156 65.691406 133.699219 63.980469 131.585938 63.980469 C 129.472656 63.980469 127.757812 65.691406 127.757812 67.804688 C 127.757812 69.917969 129.472656 71.632812 131.585938 71.632812 C 133.699219 71.632812 135.410156 69.917969 135.410156 67.804688 Z M 135.410156 67.804688 "/>
<g clip-path="url(#clip-9)">
<path fill="none" stroke-width="0.3985" stroke-linecap="butt" stroke-linejoin="miter" stroke="rgb(0%, 0%, 0%)" stroke-opacity="1" stroke-miterlimit="10" d="M 67.605156 -63.778688 C 67.605156 -61.665406 65.894219 -59.954469 63.780938 -59.954469 C 61.667656 -59.954469 59.952813 -61.665406 59.952813 -63.778688 C 59.952813 -65.891969 61.667656 -67.606813 63.780938 -67.606813 C 65.894219 -67.606813 67.605156 -65.891969 67.605156 -63.778688 Z M 67.605156 -63.778688 " transform="matrix(1, 0, 0, -1, 67.805, 4.026)"/>
</g>
<path fill-rule="nonzero" fill="rgb(0%, 0%, 0%)" fill-opacity="1" d="M 326.753906 67.804688 C 326.753906 65.691406 325.039062 63.980469 322.925781 63.980469 C 320.8125 63.980469 319.101562 65.691406 319.101562 67.804688 C 319.101562 69.917969 320.8125 71.632812 322.925781 71.632812 C 325.039062 71.632812 326.753906 69.917969 326.753906 67.804688 Z M 326.753906 67.804688 "/>
<g clip-path="url(#clip-10)">
<path fill="none" stroke-width="0.3985" stroke-linecap="butt" stroke-linejoin="miter" stroke="rgb(0%, 0%, 0%)" stroke-opacity="1" stroke-miterlimit="10" d="M 258.948906 -63.778688 C 258.948906 -61.665406 257.234062 -59.954469 255.120781 -59.954469 C 253.0075 -59.954469 251.296562 -61.665406 251.296562 -63.778688 C 251.296562 -65.891969 253.0075 -67.606813 255.120781 -67.606813 C 257.234062 -67.606813 258.948906 -65.891969 258.948906 -63.778688 Z M 258.948906 -63.778688 " transform="matrix(1, 0, 0, -1, 67.805, 4.026)"/>
</g>
<g clip-path="url(#clip-11)">
<path fill-rule="nonzero" fill="rgb(0%, 0%, 0%)" fill-opacity="1" d="M 518.09375 67.804688 C 518.09375 65.691406 516.378906 63.980469 514.265625 63.980469 C 512.152344 63.980469 510.441406 65.691406 510.441406 67.804688 C 510.441406 69.917969 512.152344 71.632812 514.265625 71.632812 C 516.378906 71.632812 518.09375 69.917969 518.09375 67.804688 Z M 518.09375 67.804688 "/>
</g>
<g clip-path="url(#clip-12)">
<path fill="none" stroke-width="0.3985" stroke-linecap="butt" stroke-linejoin="miter" stroke="rgb(0%, 0%, 0%)" stroke-opacity="1" stroke-miterlimit="10" d="M 450.28875 -63.778688 C 450.28875 -61.665406 448.573906 -59.954469 446.460625 -59.954469 C 444.347344 -59.954469 442.636406 -61.665406 442.636406 -63.778688 C 442.636406 -65.891969 444.347344 -67.606813 446.460625 -67.606813 C 448.573906 -67.606813 450.28875 -65.891969 450.28875 -63.778688 Z M 450.28875 -63.778688 " transform="matrix(1, 0, 0, -1, 67.805, 4.026)"/>
</g>
<path fill="none" stroke-width="0.3985" stroke-linecap="butt" stroke-linejoin="miter" stroke="rgb(0%, 0%, 0%)" stroke-opacity="1" stroke-miterlimit="10" d="M -4.250312 -4.251344 L -14.472969 -14.470094 " transform="matrix(1, 0, 0, -1, 67.805, 4.026)"/>
<path fill-rule="nonzero" fill="rgb(0%, 0%, 0%)" fill-opacity="1" d="M 50.796875 21.035156 C 51.691406 20.421875 53.332031 19.625 54.671875 19.273438 L 52.558594 17.160156 C 52.207031 18.496094 51.40625 20.140625 50.796875 21.035156 "/>
<path fill="none" stroke-width="0.3985" stroke-linecap="butt" stroke-linejoin="miter" stroke="rgb(0%, 0%, 0%)" stroke-opacity="1" stroke-miterlimit="10" d="M -25.512031 -25.513063 L -35.730781 -35.731813 " transform="matrix(1, 0, 0, -1, 67.805, 4.026)"/>
<path fill-rule="nonzero" fill="rgb(0%, 0%, 0%)" fill-opacity="1" d="M 29.539062 42.292969 C 30.429688 41.683594 32.074219 40.886719 33.410156 40.53125 L 31.296875 38.417969 C 30.945312 39.757812 30.148438 41.402344 29.539062 42.292969 "/>
<path fill="none" stroke-width="0.3985" stroke-linecap="butt" stroke-linejoin="miter" stroke="rgb(0%, 0%, 0%)" stroke-opacity="1" stroke-miterlimit="10" d="M -38.269844 -46.770875 L -28.047187 -56.993531 " transform="matrix(1, 0, 0, -1, 67.805, 4.026)"/>
<path fill-rule="nonzero" fill="rgb(0%, 0%, 0%)" fill-opacity="1" d="M 42.292969 63.554688 C 41.683594 62.660156 40.882812 61.019531 40.53125 59.679688 L 38.417969 61.792969 C 39.757812 62.144531 41.398438 62.945312 42.292969 63.554688 "/>
<path fill="none" stroke-width="0.3985" stroke-linecap="butt" stroke-linejoin="miter" stroke="rgb(0%, 0%, 0%)" stroke-opacity="1" stroke-miterlimit="10" d="M 187.089531 -4.251344 L 176.870781 -14.470094 " transform="matrix(1, 0, 0, -1, 67.805, 4.026)"/>
<path fill-rule="nonzero" fill="rgb(0%, 0%, 0%)" fill-opacity="1" d="M 242.136719 21.035156 C 243.03125 20.421875 244.675781 19.625 246.011719 19.273438 L 243.898438 17.160156 C 243.546875 18.496094 242.75 20.140625 242.136719 21.035156 "/>
<path fill="none" stroke-width="0.3985" stroke-linecap="butt" stroke-linejoin="miter" stroke="rgb(0%, 0%, 0%)" stroke-opacity="1" stroke-miterlimit="10" d="M 174.331719 -25.513063 L 184.554375 -35.731813 " transform="matrix(1, 0, 0, -1, 67.805, 4.026)"/>
<path fill-rule="nonzero" fill="rgb(0%, 0%, 0%)" fill-opacity="1" d="M 254.894531 42.292969 C 254.28125 41.402344 253.484375 39.757812 253.132812 38.417969 L 251.019531 40.53125 C 252.359375 40.886719 254 41.683594 254.894531 42.292969 "/>
<path fill="none" stroke-width="0.3985" stroke-linecap="butt" stroke-linejoin="miter" stroke="rgb(0%, 0%, 0%)" stroke-opacity="1" stroke-miterlimit="10" d="M 187.089531 -46.770875 L 176.870781 -56.993531 " transform="matrix(1, 0, 0, -1, 67.805, 4.026)"/>
<path fill-rule="nonzero" fill="rgb(0%, 0%, 0%)" fill-opacity="1" d="M 242.136719 63.554688 C 243.03125 62.945312 244.675781 62.144531 246.011719 61.792969 L 243.898438 59.679688 C 243.546875 61.019531 242.75 62.660156 242.136719 63.554688 "/>
<path fill="none" stroke-width="0.3985" stroke-linecap="butt" stroke-linejoin="miter" stroke="rgb(0%, 0%, 0%)" stroke-opacity="1" stroke-miterlimit="10" d="M 386.933281 -4.251344 L 397.152031 -14.470094 " transform="matrix(1, 0, 0, -1, 67.805, 4.026)"/>
<path fill-rule="nonzero" fill="rgb(0%, 0%, 0%)" fill-opacity="1" d="M 467.496094 21.035156 C 466.882812 20.140625 466.085938 18.496094 465.734375 17.160156 L 463.621094 19.273438 C 464.957031 19.625 466.601562 20.421875 467.496094 21.035156 "/>
<path fill="none" stroke-width="0.3985" stroke-linecap="butt" stroke-linejoin="miter" stroke="rgb(0%, 0%, 0%)" stroke-opacity="1" stroke-miterlimit="10" d="M 399.691094 -25.513063 L 389.468437 -35.731813 " transform="matrix(1, 0, 0, -1, 67.805, 4.026)"/>
<path fill-rule="nonzero" fill="rgb(0%, 0%, 0%)" fill-opacity="1" d="M 454.738281 42.292969 C 455.632812 41.683594 457.273438 40.886719 458.613281 40.53125 L 456.5 38.417969 C 456.148438 39.757812 455.351562 41.402344 454.738281 42.292969 "/>
<path fill="none" stroke-width="0.3985" stroke-linecap="butt" stroke-linejoin="miter" stroke="rgb(0%, 0%, 0%)" stroke-opacity="1" stroke-miterlimit="10" d="M 378.429375 -46.770875 L 368.210625 -56.993531 " transform="matrix(1, 0, 0, -1, 67.805, 4.026)"/>
<path fill-rule="nonzero" fill="rgb(0%, 0%, 0%)" fill-opacity="1" d="M 433.480469 63.554688 C 434.371094 62.945312 436.015625 62.144531 437.355469 61.792969 L 435.242188 59.679688 C 434.886719 61.019531 434.089844 62.660156 433.480469 63.554688 "/>
<g clip-path="url(#clip-13)">
<path fill="none" stroke-width="0.3985" stroke-linecap="butt" stroke-linejoin="miter" stroke="rgb(0%, 0%, 0%)" stroke-opacity="1" stroke-miterlimit="10" d="M -16.156562 -63.778688 C -16.156562 -60.962281 -18.441719 -58.677125 -21.262031 -58.677125 C -24.078437 -58.677125 -26.363594 -60.962281 -26.363594 -63.778688 C -26.363594 -66.599 -24.078437 -68.884156 -21.262031 -68.884156 C -18.441719 -68.884156 -16.156562 -66.599 -16.156562 -63.778688 Z M -16.156562 -63.778688 " transform="matrix(1, 0, 0, -1, 67.805, 4.026)"/>
</g>
<g clip-path="url(#clip-14)">
<path fill="none" stroke-width="0.3985" stroke-linecap="butt" stroke-linejoin="miter" stroke="rgb(0%, 0%, 0%)" stroke-opacity="1" stroke-miterlimit="10" d="M 175.183281 -63.778688 C 175.183281 -60.962281 172.898125 -58.677125 170.081719 -58.677125 C 167.261406 -58.677125 164.980156 -60.962281 164.980156 -63.778688 C 164.980156 -66.599 167.261406 -68.884156 170.081719 -68.884156 C 172.898125 -68.884156 175.183281 -66.599 175.183281 -63.778688 Z M 175.183281 -63.778688 " transform="matrix(1, 0, 0, -1, 67.805, 4.026)"/>
</g>
<g clip-path="url(#clip-15)">
<path fill="none" stroke-width="0.3985" stroke-linecap="butt" stroke-linejoin="miter" stroke="rgb(0%, 0%, 0%)" stroke-opacity="1" stroke-miterlimit="10" d="M 366.523125 -63.778688 C 366.523125 -60.962281 364.237969 -58.677125 361.421562 -58.677125 C 358.605156 -58.677125 356.32 -60.962281 356.32 -63.778688 C 356.32 -66.599 358.605156 -68.884156 361.421562 -68.884156 C 364.237969 -68.884156 366.523125 -66.599 366.523125 -63.778688 Z M 366.523125 -63.778688 " transform="matrix(1, 0, 0, -1, 67.805, 4.026)"/>
</g>
</svg>
