<?xml version="1.0" encoding="UTF-8"?>
<svg xmlns="http://www.w3.org/2000/svg" xmlns:xlink="http://www.w3.org/1999/xlink" width="113.386" height="113.386" viewBox="0 0 113.386 113.386">
<defs>
<clipPath id="clip-0">
<path clip-rule="nonzero" d="M 0 75 L 38 75 L 38 113.386719 L 0 113.386719 Z M 0 75 "/>
</clipPath>
<clipPath id="clip-1">
<path clip-rule="nonzero" d="M 0 4 L 109 4 L 109 113.386719 L 0 113.386719 Z M 0 4 "/>
</clipPath>
<clipPath id="clip-2">
<path clip-rule="nonzero" d="M 26 0 L 113.386719 0 L 113.386719 88 L 26 88 Z M 26 0 "/>
</clipPath>
<clipPath id="clip-3">
<path clip-rule="nonzero" d="M 61 0 L 113.386719 0 L 113.386719 52 L 61 52 Z M 61 0 "/>
</clipPath>
<clipPath id="clip-4">
<path clip-rule="nonzero" d="M 97 0 L 113.386719 0 L 113.386719 17 L 97 17 Z M 97 0 "/>
</clipPath>
<clipPath id="clip-5">
<path clip-rule="nonzero" d="M 61 40 L 113.386719 40 L 113.386719 113.386719 L 61 113.386719 Z M 61 40 "/>
</clipPath>
<clipPath id="clip-6">
<path clip-rule="nonzero" d="M 97 93 L 113.386719 93 L 113.386719 113.386719 L 97 113.386719 Z M 97 93 "/>
</clipPath>
<clipPath id="clip-7">
<path clip-rule="nonzero" d="M 0 29 L 85 29 L 85 113.386719 L 0 113.386719 Z M 0 29 "/>
</clipPath>
<clipPath id="clip-8">
<path clip-rule="nonzero" d="M 14 0 L 113.386719 0 L 113.386719 113.386719 L 14 113.386719 Z M 14 0 "/>
</clipPath>
</defs>
<path fill="none" stroke-width="0.3985" stroke-linecap="butt" stroke-linejoin="miter" stroke="rgb(0%, 0%, 0%)" stroke-opacity="1" stroke-miterlimit="10" d="M -42.520031 -21.26075 L -42.520031 85.040031 " transform="matrix(1, 0, 0, -1, 46.063, 88.583)"/>
<path fill="none" stroke-width="0.3985" stroke-linecap="butt" stroke-linejoin="miter" stroke="rgb(0%, 0%, 0%)" stroke-opacity="1" stroke-miterlimit="10" d="M -42.520031 -21.26075 L 63.78075 -21.26075 " transform="matrix(1, 0, 0, -1, 46.063, 88.583)"/>
<path fill="none" stroke-width="0.3985" stroke-linecap="butt" stroke-linejoin="miter" stroke="rgb(0%, 0%, 0%)" stroke-opacity="1" stroke-miterlimit="10" d="M -21.258313 -21.26075 L -21.258313 85.040031 " transform="matrix(1, 0, 0, -1, 46.063, 88.583)"/>
<path fill="none" stroke-width="0.3985" stroke-linecap="butt" stroke-linejoin="miter" stroke="rgb(0%, 0%, 0%)" stroke-opacity="1" stroke-miterlimit="10" d="M -42.520031 0.00096875 L 63.78075 0.00096875 " transform="matrix(1, 0, 0, -1, 46.063, 88.583)"/>
<path fill="none" stroke-width="0.3985" stroke-linecap="butt" stroke-linejoin="miter" stroke="rgb(0%, 0%, 0%)" stroke-opacity="1" stroke-miterlimit="10" d="M -0.0005 -21.26075 L -0.0005 85.040031 " transform="matrix(1, 0, 0, -1, 46.063, 88.583)"/>
<path fill="none" stroke-width="0.3985" stroke-linecap="butt" stroke-linejoin="miter" stroke="rgb(0%, 0%, 0%)" stroke-opacity="1" stroke-miterlimit="10" d="M -42.520031 21.258781 L 63.78075 21.258781 " transform="matrix(1, 0, 0, -1, 46.063, 88.583)"/>
<path fill="none" stroke-width="0.3985" stroke-linecap="butt" stroke-linejoin="miter" stroke="rgb(0%, 0%, 0%)" stroke-opacity="1" stroke-miterlimit="10" d="M 21.261219 -21.26075 L 21.261219 85.040031 " transform="matrix(1, 0, 0, -1, 46.063, 88.583)"/>
<path fill="none" stroke-width="0.3985" stroke-linecap="butt" stroke-linejoin="miter" stroke="rgb(0%, 0%, 0%)" stroke-opacity="1" stroke-miterlimit="10" d="M -42.520031 42.5205 L 63.78075 42.5205 " transform="matrix(1, 0, 0, -1, 46.063, 88.583)"/>
<path fill="none" stroke-width="0.3985" stroke-linecap="butt" stroke-linejoin="miter" stroke="rgb(0%, 0%, 0%)" stroke-opacity="1" stroke-miterlimit="10" d="M 42.519031 -21.26075 L 42.519031 85.040031 " transform="matrix(1, 0, 0, -1, 46.063, 88.583)"/>
<path fill="none" stroke-width="0.3985" stroke-linecap="butt" stroke-linejoin="miter" stroke="rgb(0%, 0%, 0%)" stroke-opacity="1" stroke-miterlimit="10" d="M -42.520031 63.782219 L 63.78075 63.782219 " transform="matrix(1, 0, 0, -1, 46.063, 88.583)"/>
<path fill="none" stroke-width="0.3985" stroke-linecap="butt" stroke-linejoin="miter" stroke="rgb(0%, 0%, 0%)" stroke-opacity="1" stroke-miterlimit="10" d="M 63.78075 -21.26075 L 63.78075 85.040031 " transform="matrix(1, 0, 0, -1, 46.063, 88.583)"/>
<path fill="none" stroke-width="0.3985" stroke-linecap="butt" stroke-linejoin="miter" stroke="rgb(0%, 0%, 0%)" stroke-opacity="1" stroke-miterlimit="10" d="M -42.520031 85.040031 L 63.78075 85.040031 " transform="matrix(1, 0, 0, -1, 46.063, 88.583)"/>
<g clip-path="url(#clip-0)">
<path fill="none" stroke-width="0.3985" stroke-linecap="butt" stroke-linejoin="miter" stroke="rgb(50%, 50%, 50%)" stroke-opacity="1" stroke-miterlimit="10" d="M -14.172375 -21.26075 L -42.520031 7.086906 " transform="matrix(1, 0, 0, -1, 46.063, 88.583)"/>
</g>
<g clip-path="url(#clip-1)">
<path fill="none" stroke-width="0.3985" stroke-linecap="butt" stroke-linejoin="miter" stroke="rgb(50%, 50%, 50%)" stroke-opacity="1" stroke-miterlimit="10" d="M 56.694812 -21.26075 L -42.520031 77.954094 " transform="matrix(1, 0, 0, -1, 46.063, 88.583)"/>
</g>
<g clip-path="url(#clip-2)">
<path fill="none" stroke-width="0.3985" stroke-linecap="butt" stroke-linejoin="miter" stroke="rgb(50%, 50%, 50%)" stroke-opacity="1" stroke-miterlimit="10" d="M 63.78075 7.086906 L -14.172375 85.040031 " transform="matrix(1, 0, 0, -1, 46.063, 88.583)"/>
</g>
<g clip-path="url(#clip-3)">
<path fill="none" stroke-width="0.3985" stroke-linecap="butt" stroke-linejoin="miter" stroke="rgb(50%, 50%, 50%)" stroke-opacity="1" stroke-miterlimit="10" d="M 63.78075 42.5205 L 21.261219 85.040031 " transform="matrix(1, 0, 0, -1, 46.063, 88.583)"/>
</g>
<g clip-path="url(#clip-4)">
<path fill="none" stroke-width="0.3985" stroke-linecap="butt" stroke-linejoin="miter" stroke="rgb(50%, 50%, 50%)" stroke-opacity="1" stroke-miterlimit="10" d="M 56.694812 85.040031 L 63.78075 77.954094 " transform="matrix(1, 0, 0, -1, 46.063, 88.583)"/>
</g>
<path fill="none" stroke-width="0.3985" stroke-linecap="butt" stroke-linejoin="miter" stroke="rgb(50%, 50%, 50%)" stroke-opacity="1" stroke-miterlimit="10" d="M -42.520031 -10.631844 L 21.261219 85.040031 " transform="matrix(1, 0, 0, -1, 46.063, 88.583)"/>
<path fill="none" stroke-width="0.3985" stroke-linecap="butt" stroke-linejoin="miter" stroke="rgb(50%, 50%, 50%)" stroke-opacity="1" stroke-miterlimit="10" d="M -42.520031 42.5205 L -14.172375 85.040031 " transform="matrix(1, 0, 0, -1, 46.063, 88.583)"/>
<g clip-path="url(#clip-5)">
<path fill="none" stroke-width="0.3985" stroke-linecap="butt" stroke-linejoin="miter" stroke="rgb(50%, 50%, 50%)" stroke-opacity="1" stroke-miterlimit="10" d="M 21.261219 -21.26075 L 63.78075 42.5205 " transform="matrix(1, 0, 0, -1, 46.063, 88.583)"/>
</g>
<g clip-path="url(#clip-6)">
<path fill="none" stroke-width="0.3985" stroke-linecap="butt" stroke-linejoin="miter" stroke="rgb(50%, 50%, 50%)" stroke-opacity="1" stroke-miterlimit="10" d="M 56.694812 -21.26075 L 63.78075 -10.631844 " transform="matrix(1, 0, 0, -1, 46.063, 88.583)"/>
</g>
<g clip-path="url(#clip-7)">
<path fill="none" stroke-width="1.19553" stroke-linecap="butt" stroke-linejoin="miter" stroke="rgb(50%, 50%, 50%)" stroke-opacity="1" stroke-miterlimit="10" d="M 21.261219 -21.26075 L -42.520031 42.5205 " transform="matrix(1, 0, 0, -1, 46.063, 88.583)"/>
</g>
<g clip-path="url(#clip-8)">
<path fill="none" stroke-width="1.19553" stroke-linecap="butt" stroke-linejoin="miter" stroke="rgb(50%, 50%, 50%)" stroke-opacity="1" stroke-miterlimit="10" d="M -14.172375 -21.26075 L 56.694812 85.040031 " transform="matrix(1, 0, 0, -1, 46.063, 88.583)"/>
</g>
<path fill="none" stroke-width="1.59404" stroke-linecap="butt" stroke-linejoin="miter" stroke="rgb(50%, 50%, 50%)" stroke-opacity="1" stroke-miterlimit="10" d="M -0.0005 0.00096875 L -16.441906 16.442375 " transform="matrix(1, 0, 0, -1, 46.063, 88.583)"/>
<path fill-rule="nonzero" fill="rgb(50%, 50%, 50%)" fill-opacity="1" d="M 24.804688 67.324219 C 25.964844 69.019531 27.480469 72.140625 28.148438 74.683594 L 32.164062 70.667969 C 29.621094 70 26.5 68.484375 24.804688 67.324219 "/>
<path fill="none" stroke-width="1.59404" stroke-linecap="butt" stroke-linejoin="miter" stroke="rgb(50%, 50%, 50%)" stroke-opacity="1" stroke-miterlimit="10" d="M -0.0005 0.00096875 L 10.394031 15.590812 " transform="matrix(1, 0, 0, -1, 46.063, 88.583)"/>
<path fill-rule="nonzero" fill="rgb(50%, 50%, 50%)" fill-opacity="1" d="M 60.238281 67.324219 C 58.800781 68.792969 56.035156 70.894531 53.675781 72.046875 L 58.398438 75.199219 C 58.554688 72.574219 59.429688 69.210938 60.238281 67.324219 "/>
<path fill="none" stroke-width="1.59404" stroke-linecap="butt" stroke-linejoin="miter" stroke="rgb(0%, 0%, 0%)" stroke-opacity="1" stroke-miterlimit="10" d="M -0.0005 0.00096875 L -0.0005 14.446281 " transform="matrix(1, 0, 0, -1, 46.063, 88.583)"/>
<path fill-rule="nonzero" fill="rgb(0%, 0%, 0%)" fill-opacity="1" d="M 46.0625 67.324219 C 45.683594 69.34375 44.546875 72.625 43.222656 74.894531 L 48.902344 74.894531 C 47.578125 72.625 46.441406 69.34375 46.0625 67.324219 "/>
<path fill="none" stroke-width="1.59404" stroke-linecap="butt" stroke-linejoin="miter" stroke="rgb(0%, 0%, 0%)" stroke-opacity="1" stroke-miterlimit="10" d="M -0.0005 0.00096875 L 14.444812 0.00096875 " transform="matrix(1, 0, 0, -1, 46.063, 88.583)"/>
<path fill-rule="nonzero" fill="rgb(0%, 0%, 0%)" fill-opacity="1" d="M 67.324219 88.582031 C 65.304688 88.203125 62.023438 87.070312 59.75 85.742188 L 59.75 91.421875 C 62.023438 90.097656 65.304688 88.960938 67.324219 88.582031 "/>
<path fill="none" stroke-width="1.19553" stroke-linecap="butt" stroke-linejoin="miter" stroke="rgb(0%, 0%, 0%)" stroke-opacity="1" stroke-miterlimit="10" d="M -42.520031 0.00096875 L 63.78075 0.00096875 " transform="matrix(1, 0, 0, -1, 46.063, 88.583)"/>
<path fill="none" stroke-width="1.19553" stroke-linecap="butt" stroke-linejoin="miter" stroke="rgb(0%, 0%, 0%)" stroke-opacity="1" stroke-miterlimit="10" d="M -0.0005 -21.26075 L -0.0005 85.040031 " transform="matrix(1, 0, 0, -1, 46.063, 88.583)"/>
</svg>
