<?xml version="1.0" encoding="UTF-8"?>
<svg xmlns="http://www.w3.org/2000/svg" xmlns:xlink="http://www.w3.org/1999/xlink" width="113.386" height="113.386" viewBox="0 0 113.386 113.386">
<path fill="none" stroke-width="1.59404" stroke-linecap="butt" stroke-linejoin="miter" stroke="rgb(50%, 50%, 50%)" stroke-opacity="1" stroke-miterlimit="10" d="M -42.521125 28.345344 L 42.521844 28.345344 " transform="matrix(1, 0, 0, -1, 56.693, 56.693)"/>
<path fill="none" stroke-width="1.59404" stroke-linecap="butt" stroke-linejoin="miter" stroke="rgb(50%, 50%, 50%)" stroke-opacity="1" stroke-miterlimit="10" d="M -42.521125 14.173469 L 42.521844 14.173469 " transform="matrix(1, 0, 0, -1, 56.693, 56.693)"/>
<path fill="none" stroke-width="1.59404" stroke-linecap="butt" stroke-linejoin="miter" stroke="rgb(50%, 50%, 50%)" stroke-opacity="1" stroke-miterlimit="10" d="M -42.521125 0.00159375 L 42.521844 0.00159375 " transform="matrix(1, 0, 0, -1, 56.693, 56.693)"/>
<path fill="none" stroke-width="1.59404" stroke-linecap="butt" stroke-linejoin="miter" stroke="rgb(50%, 50%, 50%)" stroke-opacity="1" stroke-miterlimit="10" d="M -42.521125 -14.174188 L 42.521844 -14.174188 " transform="matrix(1, 0, 0, -1, 56.693, 56.693)"/>
<path fill="none" stroke-width="1.59404" stroke-linecap="butt" stroke-linejoin="miter" stroke="rgb(50%, 50%, 50%)" stroke-opacity="1" stroke-miterlimit="10" d="M -42.521125 -28.346063 L 42.521844 -28.346063 " transform="matrix(1, 0, 0, -1, 56.693, 56.693)"/>
<path fill-rule="nonzero" fill="rgb(25%, 25%, 25%)" fill-opacity="1" d="M 32.574219 28.347656 C 32.574219 26.011719 30.679688 24.117188 28.347656 24.117188 C 26.011719 24.117188 24.117188 26.011719 24.117188 28.347656 C 24.117188 30.679688 26.011719 32.574219 28.347656 32.574219 C 30.679688 32.574219 32.574219 30.679688 32.574219 28.347656 Z M 32.574219 28.347656 "/>
<path fill-rule="nonzero" fill="rgb(25%, 25%, 25%)" fill-opacity="1" d="M 43.203125 28.347656 C 43.203125 26.011719 41.3125 24.117188 38.976562 24.117188 C 36.640625 24.117188 34.75 26.011719 34.75 28.347656 C 34.75 30.679688 36.640625 32.574219 38.976562 32.574219 C 41.3125 32.574219 43.203125 30.679688 43.203125 28.347656 Z M 43.203125 28.347656 "/>
<path fill-rule="nonzero" fill="rgb(25%, 25%, 25%)" fill-opacity="1" d="M 53.832031 28.347656 C 53.832031 26.011719 51.941406 24.117188 49.605469 24.117188 C 47.273438 24.117188 45.378906 26.011719 45.378906 28.347656 C 45.378906 30.679688 47.273438 32.574219 49.605469 32.574219 C 51.941406 32.574219 53.832031 30.679688 53.832031 28.347656 Z M 53.832031 28.347656 "/>
<path fill-rule="nonzero" fill="rgb(25%, 25%, 25%)" fill-opacity="1" d="M 64.464844 28.347656 C 64.464844 26.011719 62.570312 24.117188 60.238281 24.117188 C 57.902344 24.117188 56.007812 26.011719 56.007812 28.347656 C 56.007812 30.679688 57.902344 32.574219 60.238281 32.574219 C 62.570312 32.574219 64.464844 30.679688 64.464844 28.347656 Z M 64.464844 28.347656 "/>
<path fill-rule="nonzero" fill="rgb(25%, 25%, 25%)" fill-opacity="1" d="M 32.574219 42.519531 C 32.574219 40.183594 30.679688 38.292969 28.347656 38.292969 C 26.011719 38.292969 24.117188 40.183594 24.117188 42.519531 C 24.117188 44.855469 26.011719 46.746094 28.347656 46.746094 C 30.679688 46.746094 32.574219 44.855469 32.574219 42.519531 Z M 32.574219 42.519531 "/>
<path fill-rule="nonzero" fill="rgb(25%, 25%, 25%)" fill-opacity="1" d="M 43.203125 42.519531 C 43.203125 40.183594 41.3125 38.292969 38.976562 38.292969 C 36.640625 38.292969 34.75 40.183594 34.75 42.519531 C 34.75 44.855469 36.640625 46.746094 38.976562 46.746094 C 41.3125 46.746094 43.203125 44.855469 43.203125 42.519531 Z M 43.203125 42.519531 "/>
<path fill-rule="nonzero" fill="rgb(25%, 25%, 25%)" fill-opacity="1" d="M 53.832031 42.519531 C 53.832031 40.183594 51.941406 38.292969 49.605469 38.292969 C 47.273438 38.292969 45.378906 40.183594 45.378906 42.519531 C 45.378906 44.855469 47.273438 46.746094 49.605469 46.746094 C 51.941406 46.746094 53.832031 44.855469 53.832031 42.519531 Z M 53.832031 42.519531 "/>
<path fill-rule="nonzero" fill="rgb(25%, 25%, 25%)" fill-opacity="1" d="M 89.265625 42.519531 C 89.265625 40.183594 87.375 38.292969 85.039062 38.292969 C 82.707031 38.292969 80.8125 40.183594 80.8125 42.519531 C 80.8125 44.855469 82.707031 46.746094 85.039062 46.746094 C 87.375 46.746094 89.265625 44.855469 89.265625 42.519531 Z M 89.265625 42.519531 "/>
<path fill-rule="nonzero" fill="rgb(25%, 25%, 25%)" fill-opacity="1" d="M 32.574219 56.691406 C 32.574219 54.359375 30.679688 52.464844 28.347656 52.464844 C 26.011719 52.464844 24.117188 54.359375 24.117188 56.691406 C 24.117188 59.027344 26.011719 60.921875 28.347656 60.921875 C 30.679688 60.921875 32.574219 59.027344 32.574219 56.691406 Z M 32.574219 56.691406 "/>
<path fill-rule="nonzero" fill="rgb(25%, 25%, 25%)" fill-opacity="1" d="M 43.203125 56.691406 C 43.203125 54.359375 41.3125 52.464844 38.976562 52.464844 C 36.640625 52.464844 34.75 54.359375 34.75 56.691406 C 34.75 59.027344 36.640625 60.921875 38.976562 60.921875 C 41.3125 60.921875 43.203125 59.027344 43.203125 56.691406 Z M 43.203125 56.691406 "/>
<path fill-rule="nonzero" fill="rgb(25%, 25%, 25%)" fill-opacity="1" d="M 89.265625 56.691406 C 89.265625 54.359375 87.375 52.464844 85.039062 52.464844 C 82.707031 52.464844 80.8125 54.359375 80.8125 56.691406 C 80.8125 59.027344 82.707031 60.921875 85.039062 60.921875 C 87.375 60.921875 89.265625 59.027344 89.265625 56.691406 Z M 89.265625 56.691406 "/>
<path fill-rule="nonzero" fill="rgb(25%, 25%, 25%)" fill-opacity="1" d="M 78.636719 56.691406 C 78.636719 54.359375 76.746094 52.464844 74.410156 52.464844 C 72.074219 52.464844 70.183594 54.359375 70.183594 56.691406 C 70.183594 59.027344 72.074219 60.921875 74.410156 60.921875 C 76.746094 60.921875 78.636719 59.027344 78.636719 56.691406 Z M 78.636719 56.691406 "/>
<path fill-rule="nonzero" fill="rgb(25%, 25%, 25%)" fill-opacity="1" d="M 32.574219 70.867188 C 32.574219 68.53125 30.679688 66.640625 28.347656 66.640625 C 26.011719 66.640625 24.117188 68.53125 24.117188 70.867188 C 24.117188 73.199219 26.011719 75.09375 28.347656 75.09375 C 30.679688 75.09375 32.574219 73.199219 32.574219 70.867188 Z M 32.574219 70.867188 "/>
<path fill-rule="nonzero" fill="rgb(25%, 25%, 25%)" fill-opacity="1" d="M 78.636719 70.867188 C 78.636719 68.53125 76.746094 66.640625 74.410156 66.640625 C 72.074219 66.640625 70.183594 68.53125 70.183594 70.867188 C 70.183594 73.199219 72.074219 75.09375 74.410156 75.09375 C 76.746094 75.09375 78.636719 73.199219 78.636719 70.867188 Z M 78.636719 70.867188 "/>
<path fill-rule="nonzero" fill="rgb(25%, 25%, 25%)" fill-opacity="1" d="M 68.007812 70.867188 C 68.007812 68.53125 66.113281 66.640625 63.78125 66.640625 C 61.445312 66.640625 59.550781 68.53125 59.550781 70.867188 C 59.550781 73.199219 61.445312 75.09375 63.78125 75.09375 C 66.113281 75.09375 68.007812 73.199219 68.007812 70.867188 Z M 68.007812 70.867188 "/>
<path fill-rule="nonzero" fill="rgb(25%, 25%, 25%)" fill-opacity="1" d="M 89.265625 70.867188 C 89.265625 68.53125 87.375 66.640625 85.039062 66.640625 C 82.707031 66.640625 80.8125 68.53125 80.8125 70.867188 C 80.8125 73.199219 82.707031 75.09375 85.039062 75.09375 C 87.375 75.09375 89.265625 73.199219 89.265625 70.867188 Z M 89.265625 70.867188 "/>
<path fill-rule="nonzero" fill="rgb(25%, 25%, 25%)" fill-opacity="1" d="M 32.574219 85.039062 C 32.574219 82.707031 30.679688 80.8125 28.347656 80.8125 C 26.011719 80.8125 24.117188 82.707031 24.117188 85.039062 C 24.117188 87.375 26.011719 89.265625 28.347656 89.265625 C 30.679688 89.265625 32.574219 87.375 32.574219 85.039062 Z M 32.574219 85.039062 "/>
<path fill-rule="nonzero" fill="rgb(25%, 25%, 25%)" fill-opacity="1" d="M 43.203125 85.039062 C 43.203125 82.707031 41.3125 80.8125 38.976562 80.8125 C 36.640625 80.8125 34.75 82.707031 34.75 85.039062 C 34.75 87.375 36.640625 89.265625 38.976562 89.265625 C 41.3125 89.265625 43.203125 87.375 43.203125 85.039062 Z M 43.203125 85.039062 "/>
<path fill-rule="nonzero" fill="rgb(25%, 25%, 25%)" fill-opacity="1" d="M 53.832031 85.039062 C 53.832031 82.707031 51.941406 80.8125 49.605469 80.8125 C 47.273438 80.8125 45.378906 82.707031 45.378906 85.039062 C 45.378906 87.375 47.273438 89.265625 49.605469 89.265625 C 51.941406 89.265625 53.832031 87.375 53.832031 85.039062 Z M 53.832031 85.039062 "/>
<path fill-rule="nonzero" fill="rgb(25%, 25%, 25%)" fill-opacity="1" d="M 89.265625 85.039062 C 89.265625 82.707031 87.375 80.8125 85.039062 80.8125 C 82.707031 80.8125 80.8125 82.707031 80.8125 85.039062 C 80.8125 87.375 82.707031 89.265625 85.039062 89.265625 C 87.375 89.265625 89.265625 87.375 89.265625 85.039062 Z M 89.265625 85.039062 "/>
</svg>
