<?xml version="1.0" encoding="UTF-8"?>
<svg xmlns="http://www.w3.org/2000/svg" xmlns:xlink="http://www.w3.org/1999/xlink" width="113.386" height="113.386" viewBox="0 0 113.386 113.386">
<path fill="none" stroke-width="0.79701" stroke-linecap="butt" stroke-linejoin="miter" stroke="rgb(50%, 50%, 50%)" stroke-opacity="1" stroke-miterlimit="10" d="M -14.174094 21.259406 L 73.29075 21.259406 " transform="matrix(1, 0, 0, -1, 24.803, 56.693)"/>
<path fill-rule="nonzero" fill="rgb(50%, 50%, 50%)" fill-opacity="1" d="M 102.757812 35.433594 C 101.375 35.175781 99.128906 34.398438 97.578125 33.488281 L 97.578125 37.375 C 99.128906 36.46875 101.375 35.691406 102.757812 35.433594 "/>
<path fill="none" stroke-width="0.79701" stroke-linecap="butt" stroke-linejoin="miter" stroke="rgb(50%, 50%, 50%)" stroke-opacity="1" stroke-miterlimit="10" d="M -14.174094 7.087531 L 73.29075 7.087531 " transform="matrix(1, 0, 0, -1, 24.803, 56.693)"/>
<path fill-rule="nonzero" fill="rgb(50%, 50%, 50%)" fill-opacity="1" d="M 102.757812 49.605469 C 101.375 49.347656 99.128906 48.570312 97.578125 47.664062 L 97.578125 51.550781 C 99.128906 50.640625 101.375 49.867188 102.757812 49.605469 "/>
<path fill="none" stroke-width="0.79701" stroke-linecap="butt" stroke-linejoin="miter" stroke="rgb(50%, 50%, 50%)" stroke-opacity="1" stroke-miterlimit="10" d="M -14.174094 -7.08825 L 73.29075 -7.08825 " transform="matrix(1, 0, 0, -1, 24.803, 56.693)"/>
<path fill-rule="nonzero" fill="rgb(50%, 50%, 50%)" fill-opacity="1" d="M 102.757812 63.78125 C 101.375 63.519531 99.128906 62.742188 97.578125 61.835938 L 97.578125 65.722656 C 99.128906 64.816406 101.375 64.039062 102.757812 63.78125 "/>
<path fill="none" stroke-width="0.79701" stroke-linecap="butt" stroke-linejoin="miter" stroke="rgb(50%, 50%, 50%)" stroke-opacity="1" stroke-miterlimit="10" d="M -14.174094 -21.260125 L 73.29075 -21.260125 " transform="matrix(1, 0, 0, -1, 24.803, 56.693)"/>
<path fill-rule="nonzero" fill="rgb(50%, 50%, 50%)" fill-opacity="1" d="M 102.757812 77.953125 C 101.375 77.695312 99.128906 76.917969 97.578125 76.011719 L 97.578125 79.894531 C 99.128906 78.988281 101.375 78.210938 102.757812 77.953125 "/>
<path fill="none" stroke-width="1.59404" stroke-linecap="butt" stroke-linejoin="miter" stroke="rgb(25%, 25%, 25%)" stroke-opacity="1" stroke-miterlimit="10" d="M 0.0016875 21.259406 L 56.693094 21.259406 " transform="matrix(1, 0, 0, -1, 24.803, 56.693)"/>
<path fill-rule="nonzero" fill="rgb(25%, 25%, 25%)" fill-opacity="1" stroke-width="0.79701" stroke-linecap="butt" stroke-linejoin="miter" stroke="rgb(25%, 25%, 25%)" stroke-opacity="1" stroke-miterlimit="10" d="M 1.7595 21.259406 C 1.7595 22.232062 0.974344 23.021125 0.0016875 23.021125 C -0.970969 23.021125 -1.760031 22.232062 -1.760031 21.259406 C -1.760031 20.28675 -0.970969 19.497687 0.0016875 19.497687 C 0.974344 19.497687 1.7595 20.28675 1.7595 21.259406 Z M 1.7595 21.259406 " transform="matrix(1, 0, 0, -1, 24.803, 56.693)"/>
<path fill-rule="nonzero" fill="rgb(25%, 25%, 25%)" fill-opacity="1" stroke-width="0.79701" stroke-linecap="butt" stroke-linejoin="miter" stroke="rgb(25%, 25%, 25%)" stroke-opacity="1" stroke-miterlimit="10" d="M 58.454813 21.259406 C 58.454813 22.232062 57.66575 23.021125 56.693094 23.021125 C 55.720438 23.021125 54.931375 22.232062 54.931375 21.259406 C 54.931375 20.28675 55.720438 19.497687 56.693094 19.497687 C 57.66575 19.497687 58.454813 20.28675 58.454813 21.259406 Z M 58.454813 21.259406 " transform="matrix(1, 0, 0, -1, 24.803, 56.693)"/>
<path fill="none" stroke-width="1.59404" stroke-linecap="butt" stroke-linejoin="miter" stroke="rgb(25%, 25%, 25%)" stroke-opacity="1" stroke-miterlimit="10" d="M 7.087625 7.087531 L 49.607156 7.087531 " transform="matrix(1, 0, 0, -1, 24.803, 56.693)"/>
<path fill-rule="nonzero" fill="rgb(25%, 25%, 25%)" fill-opacity="1" stroke-width="0.79701" stroke-linecap="butt" stroke-linejoin="miter" stroke="rgb(25%, 25%, 25%)" stroke-opacity="1" stroke-miterlimit="10" d="M 8.849344 7.087531 C 8.849344 8.060187 8.060281 8.84925 7.087625 8.84925 C 6.114969 8.84925 5.325906 8.060187 5.325906 7.087531 C 5.325906 6.114875 6.114969 5.325812 7.087625 5.325812 C 8.060281 5.325812 8.849344 6.114875 8.849344 7.087531 Z M 8.849344 7.087531 " transform="matrix(1, 0, 0, -1, 24.803, 56.693)"/>
<path fill-rule="nonzero" fill="rgb(25%, 25%, 25%)" fill-opacity="1" stroke-width="0.79701" stroke-linecap="butt" stroke-linejoin="miter" stroke="rgb(25%, 25%, 25%)" stroke-opacity="1" stroke-miterlimit="10" d="M 51.368875 7.087531 C 51.368875 8.060187 50.579813 8.84925 49.607156 8.84925 C 48.6345 8.84925 47.845438 8.060187 47.845438 7.087531 C 47.845438 6.114875 48.6345 5.325812 49.607156 5.325812 C 50.579813 5.325812 51.368875 6.114875 51.368875 7.087531 Z M 51.368875 7.087531 " transform="matrix(1, 0, 0, -1, 24.803, 56.693)"/>
<path fill="none" stroke-width="1.59404" stroke-linecap="butt" stroke-linejoin="miter" stroke="rgb(25%, 25%, 25%)" stroke-opacity="1" stroke-miterlimit="10" d="M 14.173562 -7.08825 L 42.521219 -7.08825 " transform="matrix(1, 0, 0, -1, 24.803, 56.693)"/>
<path fill-rule="nonzero" fill="rgb(25%, 25%, 25%)" fill-opacity="1" stroke-width="0.79701" stroke-linecap="butt" stroke-linejoin="miter" stroke="rgb(25%, 25%, 25%)" stroke-opacity="1" stroke-miterlimit="10" d="M 15.935281 -7.08825 C 15.935281 -6.115594 15.146219 -5.326531 14.173562 -5.326531 C 13.200906 -5.326531 12.411844 -6.115594 12.411844 -7.08825 C 12.411844 -8.060906 13.200906 -8.846063 14.173562 -8.846063 C 15.146219 -8.846063 15.935281 -8.060906 15.935281 -7.08825 Z M 15.935281 -7.08825 " transform="matrix(1, 0, 0, -1, 24.803, 56.693)"/>
<path fill-rule="nonzero" fill="rgb(25%, 25%, 25%)" fill-opacity="1" stroke-width="0.79701" stroke-linecap="butt" stroke-linejoin="miter" stroke="rgb(25%, 25%, 25%)" stroke-opacity="1" stroke-miterlimit="10" d="M 44.282938 -7.08825 C 44.282938 -6.115594 43.493875 -5.326531 42.521219 -5.326531 C 41.548563 -5.326531 40.7595 -6.115594 40.7595 -7.08825 C 40.7595 -8.060906 41.548563 -8.846063 42.521219 -8.846063 C 43.493875 -8.846063 44.282938 -8.060906 44.282938 -7.08825 Z M 44.282938 -7.08825 " transform="matrix(1, 0, 0, -1, 24.803, 56.693)"/>
<path fill="none" stroke-width="1.59404" stroke-linecap="butt" stroke-linejoin="miter" stroke="rgb(25%, 25%, 25%)" stroke-opacity="1" stroke-miterlimit="10" d="M 21.2595 -21.260125 L 35.435281 -21.260125 " transform="matrix(1, 0, 0, -1, 24.803, 56.693)"/>
<path fill-rule="nonzero" fill="rgb(25%, 25%, 25%)" fill-opacity="1" stroke-width="0.79701" stroke-linecap="butt" stroke-linejoin="miter" stroke="rgb(25%, 25%, 25%)" stroke-opacity="1" stroke-miterlimit="10" d="M 23.021219 -21.260125 C 23.021219 -20.287469 22.232156 -19.498406 21.2595 -19.498406 C 20.286844 -19.498406 19.497781 -20.287469 19.497781 -21.260125 C 19.497781 -22.232781 20.286844 -23.021844 21.2595 -23.021844 C 22.232156 -23.021844 23.021219 -22.232781 23.021219 -21.260125 Z M 23.021219 -21.260125 " transform="matrix(1, 0, 0, -1, 24.803, 56.693)"/>
<path fill-rule="nonzero" fill="rgb(25%, 25%, 25%)" fill-opacity="1" stroke-width="0.79701" stroke-linecap="butt" stroke-linejoin="miter" stroke="rgb(25%, 25%, 25%)" stroke-opacity="1" stroke-miterlimit="10" d="M 37.193094 -21.260125 C 37.193094 -20.287469 36.407938 -19.498406 35.435281 -19.498406 C 34.462625 -19.498406 33.673563 -20.287469 33.673563 -21.260125 C 33.673563 -22.232781 34.462625 -23.021844 35.435281 -23.021844 C 36.407938 -23.021844 37.193094 -22.232781 37.193094 -21.260125 Z M 37.193094 -21.260125 " transform="matrix(1, 0, 0, -1, 24.803, 56.693)"/>
</svg>
