<?xml version="1.0" encoding="UTF-8"?>
<svg xmlns="http://www.w3.org/2000/svg" xmlns:xlink="http://www.w3.org/1999/xlink" width="113.386" height="113.386" viewBox="0 0 113.386 113.386">
<path fill-rule="nonzero" fill="rgb(50%, 50%, 50%)" fill-opacity="1" d="M 17.695312 67.324219 C 17.695312 65.378906 16.117188 63.800781 14.171875 63.800781 C 12.226562 63.800781 10.648438 65.378906 10.648438 67.324219 C 10.648438 69.269531 12.226562 70.847656 14.171875 70.847656 C 16.117188 70.847656 17.695312 69.269531 17.695312 67.324219 Z M 17.695312 67.324219 "/>
<path fill-rule="nonzero" fill="rgb(25%, 25%, 25%)" fill-opacity="1" d="M 31.867188 67.324219 C 31.867188 65.378906 30.292969 63.800781 28.347656 63.800781 C 26.402344 63.800781 24.824219 65.378906 24.824219 67.324219 C 24.824219 69.269531 26.402344 70.847656 28.347656 70.847656 C 30.292969 70.847656 31.867188 69.269531 31.867188 67.324219 Z M 31.867188 67.324219 "/>
<path fill-rule="nonzero" fill="rgb(50%, 50%, 50%)" fill-opacity="1" d="M 38.957031 67.324219 C 38.957031 65.378906 37.378906 63.800781 35.433594 63.800781 C 33.488281 63.800781 31.910156 65.378906 31.910156 67.324219 C 31.910156 69.269531 33.488281 70.847656 35.433594 70.847656 C 37.378906 70.847656 38.957031 69.269531 38.957031 67.324219 Z M 38.957031 67.324219 "/>
<path fill-rule="nonzero" fill="rgb(25%, 25%, 25%)" fill-opacity="1" d="M 53.128906 67.324219 C 53.128906 65.378906 51.550781 63.800781 49.605469 63.800781 C 47.660156 63.800781 46.082031 65.378906 46.082031 67.324219 C 46.082031 69.269531 47.660156 70.847656 49.605469 70.847656 C 51.550781 70.847656 53.128906 69.269531 53.128906 67.324219 Z M 53.128906 67.324219 "/>
<path fill-rule="nonzero" fill="rgb(25%, 25%, 25%)" fill-opacity="1" d="M 60.214844 67.324219 C 60.214844 65.378906 58.636719 63.800781 56.691406 63.800781 C 54.746094 63.800781 53.171875 65.378906 53.171875 67.324219 C 53.171875 69.269531 54.746094 70.847656 56.691406 70.847656 C 58.636719 70.847656 60.214844 69.269531 60.214844 67.324219 Z M 60.214844 67.324219 "/>
<path fill-rule="nonzero" fill="rgb(50%, 50%, 50%)" fill-opacity="1" d="M 67.300781 67.324219 C 67.300781 65.378906 65.726562 63.800781 63.78125 63.800781 C 61.835938 63.800781 60.257812 65.378906 60.257812 67.324219 C 60.257812 69.269531 61.835938 70.847656 63.78125 70.847656 C 65.726562 70.847656 67.300781 69.269531 67.300781 67.324219 Z M 67.300781 67.324219 "/>
<path fill-rule="nonzero" fill="rgb(25%, 25%, 25%)" fill-opacity="1" d="M 81.476562 67.324219 C 81.476562 65.378906 79.898438 63.800781 77.953125 63.800781 C 76.007812 63.800781 74.429688 65.378906 74.429688 67.324219 C 74.429688 69.269531 76.007812 70.847656 77.953125 70.847656 C 79.898438 70.847656 81.476562 69.269531 81.476562 67.324219 Z M 81.476562 67.324219 "/>
<path fill-rule="nonzero" fill="rgb(25%, 25%, 25%)" fill-opacity="1" d="M 88.5625 67.324219 C 88.5625 65.378906 86.984375 63.800781 85.039062 63.800781 C 83.09375 63.800781 81.515625 65.378906 81.515625 67.324219 C 81.515625 69.269531 83.09375 70.847656 85.039062 70.847656 C 86.984375 70.847656 88.5625 69.269531 88.5625 67.324219 Z M 88.5625 67.324219 "/>
<path fill-rule="nonzero" fill="rgb(25%, 25%, 25%)" fill-opacity="1" d="M 95.648438 67.324219 C 95.648438 65.378906 94.070312 63.800781 92.125 63.800781 C 90.179688 63.800781 88.605469 65.378906 88.605469 67.324219 C 88.605469 69.269531 90.179688 70.847656 92.125 70.847656 C 94.070312 70.847656 95.648438 69.269531 95.648438 67.324219 Z M 95.648438 67.324219 "/>
<path fill-rule="nonzero" fill="rgb(50%, 50%, 50%)" fill-opacity="1" d="M 102.734375 67.324219 C 102.734375 65.378906 101.160156 63.800781 99.214844 63.800781 C 97.269531 63.800781 95.691406 65.378906 95.691406 67.324219 C 95.691406 69.269531 97.269531 70.847656 99.214844 70.847656 C 101.160156 70.847656 102.734375 69.269531 102.734375 67.324219 Z M 102.734375 67.324219 "/>
<path fill-rule="nonzero" fill="rgb(50%, 50%, 50%)" fill-opacity="1" d="M 38.957031 60.238281 C 38.957031 58.289062 37.378906 56.714844 35.433594 56.714844 C 33.488281 56.714844 31.910156 58.289062 31.910156 60.238281 C 31.910156 62.183594 33.488281 63.757812 35.433594 63.757812 C 37.378906 63.757812 38.957031 62.183594 38.957031 60.238281 Z M 38.957031 60.238281 "/>
<path fill-rule="nonzero" fill="rgb(25%, 25%, 25%)" fill-opacity="1" d="M 60.214844 60.238281 C 60.214844 58.289062 58.636719 56.714844 56.691406 56.714844 C 54.746094 56.714844 53.171875 58.289062 53.171875 60.238281 C 53.171875 62.183594 54.746094 63.757812 56.691406 63.757812 C 58.636719 63.757812 60.214844 62.183594 60.214844 60.238281 Z M 60.214844 60.238281 "/>
<path fill-rule="nonzero" fill="rgb(50%, 50%, 50%)" fill-opacity="1" d="M 67.300781 60.238281 C 67.300781 58.289062 65.726562 56.714844 63.78125 56.714844 C 61.835938 56.714844 60.257812 58.289062 60.257812 60.238281 C 60.257812 62.183594 61.835938 63.757812 63.78125 63.757812 C 65.726562 63.757812 67.300781 62.183594 67.300781 60.238281 Z M 67.300781 60.238281 "/>
<path fill-rule="nonzero" fill="rgb(25%, 25%, 25%)" fill-opacity="1" d="M 88.5625 60.238281 C 88.5625 58.289062 86.984375 56.714844 85.039062 56.714844 C 83.09375 56.714844 81.515625 58.289062 81.515625 60.238281 C 81.515625 62.183594 83.09375 63.757812 85.039062 63.757812 C 86.984375 63.757812 88.5625 62.183594 88.5625 60.238281 Z M 88.5625 60.238281 "/>
<path fill-rule="nonzero" fill="rgb(25%, 25%, 25%)" fill-opacity="1" d="M 95.648438 60.238281 C 95.648438 58.289062 94.070312 56.714844 92.125 56.714844 C 90.179688 56.714844 88.605469 58.289062 88.605469 60.238281 C 88.605469 62.183594 90.179688 63.757812 92.125 63.757812 C 94.070312 63.757812 95.648438 62.183594 95.648438 60.238281 Z M 95.648438 60.238281 "/>
<path fill-rule="nonzero" fill="rgb(50%, 50%, 50%)" fill-opacity="1" d="M 102.734375 60.238281 C 102.734375 58.289062 101.160156 56.714844 99.214844 56.714844 C 97.269531 56.714844 95.691406 58.289062 95.691406 60.238281 C 95.691406 62.183594 97.269531 63.757812 99.214844 63.757812 C 101.160156 63.757812 102.734375 62.183594 102.734375 60.238281 Z M 102.734375 60.238281 "/>
<path fill-rule="nonzero" fill="rgb(50%, 50%, 50%)" fill-opacity="1" d="M 67.300781 53.148438 C 67.300781 51.203125 65.726562 49.625 63.78125 49.625 C 61.835938 49.625 60.257812 51.203125 60.257812 53.148438 C 60.257812 55.09375 61.835938 56.671875 63.78125 56.671875 C 65.726562 56.671875 67.300781 55.09375 67.300781 53.148438 Z M 67.300781 53.148438 "/>
<path fill-rule="nonzero" fill="rgb(25%, 25%, 25%)" fill-opacity="1" d="M 95.648438 53.148438 C 95.648438 51.203125 94.070312 49.625 92.125 49.625 C 90.179688 49.625 88.605469 51.203125 88.605469 53.148438 C 88.605469 55.09375 90.179688 56.671875 92.125 56.671875 C 94.070312 56.671875 95.648438 55.09375 95.648438 53.148438 Z M 95.648438 53.148438 "/>
<path fill-rule="nonzero" fill="rgb(50%, 50%, 50%)" fill-opacity="1" d="M 102.734375 53.148438 C 102.734375 51.203125 101.160156 49.625 99.214844 49.625 C 97.269531 49.625 95.691406 51.203125 95.691406 53.148438 C 95.691406 55.09375 97.269531 56.671875 99.214844 56.671875 C 101.160156 56.671875 102.734375 55.09375 102.734375 53.148438 Z M 102.734375 53.148438 "/>
<path fill-rule="nonzero" fill="rgb(50%, 50%, 50%)" fill-opacity="1" d="M 102.734375 46.0625 C 102.734375 44.117188 101.160156 42.539062 99.214844 42.539062 C 97.269531 42.539062 95.691406 44.117188 95.691406 46.0625 C 95.691406 48.007812 97.269531 49.585938 99.214844 49.585938 C 101.160156 49.585938 102.734375 48.007812 102.734375 46.0625 Z M 102.734375 46.0625 "/>
</svg>
