<?xml version="1.0" encoding="UTF-8"?>
<svg xmlns="http://www.w3.org/2000/svg" xmlns:xlink="http://www.w3.org/1999/xlink" width="363.908" height="193.829" viewBox="0 0 363.908 193.829">
<defs>
<clipPath id="clip-0">
<path clip-rule="nonzero" d="M 0 36 L 137 36 L 137 193.828125 L 0 193.828125 Z M 0 36 "/>
</clipPath>
<clipPath id="clip-1">
<path clip-rule="nonzero" d="M 221 0 L 363.90625 0 L 363.90625 165 L 221 165 Z M 221 0 "/>
</clipPath>
<clipPath id="clip-2">
<path clip-rule="nonzero" d="M 72 114 L 220 114 L 220 193.828125 L 72 193.828125 Z M 72 114 "/>
</clipPath>
<clipPath id="clip-3">
<path clip-rule="nonzero" d="M 114 114 L 263 114 L 263 193.828125 L 114 193.828125 Z M 114 114 "/>
</clipPath>
<clipPath id="clip-4">
<path clip-rule="nonzero" d="M 263 100 L 363.90625 100 L 363.90625 193.828125 L 263 193.828125 Z M 263 100 "/>
</clipPath>
</defs>
<g clip-path="url(#clip-0)">
<path fill="none" stroke-width="2.49069" stroke-linecap="butt" stroke-linejoin="miter" stroke="rgb(0%, 0%, 0%)" stroke-opacity="1" stroke-miterlimit="10" d="M 0.00109375 -0.00021875 L 99.770625 99.769313 " transform="matrix(1, 0, 0, -1, 1.245, 171.324)"/>
</g>
<path fill-rule="nonzero" fill="rgb(0%, 0%, 0%)" fill-opacity="1" d="M 107.546875 65.023438 C 105.246094 66.597656 101.015625 68.652344 97.570312 69.558594 L 103.011719 75 C 103.917969 71.554688 105.972656 67.320312 107.546875 65.023438 "/>
<g clip-path="url(#clip-1)">
<path fill="none" stroke-width="2.49069" stroke-linecap="butt" stroke-linejoin="miter" stroke="rgb(0%, 0%, 0%)" stroke-opacity="1" stroke-miterlimit="10" d="M 255.122187 42.519313 L 354.891719 142.288844 " transform="matrix(1, 0, 0, -1, 1.245, 171.324)"/>
</g>
<path fill-rule="nonzero" fill="rgb(0%, 0%, 0%)" fill-opacity="1" d="M 362.667969 22.503906 C 360.367188 24.074219 356.136719 26.132812 352.691406 27.039062 L 358.132812 32.480469 C 359.039062 29.035156 361.09375 24.800781 362.667969 22.503906 "/>
<path fill="none" stroke-width="2.49069" stroke-linecap="butt" stroke-linejoin="miter" stroke="rgb(0%, 0%, 0%)" stroke-opacity="1" stroke-miterlimit="10" d="M 85.040156 127.562281 L 8.258906 165.952906 " transform="matrix(1, 0, 0, -1, 1.245, 171.324)"/>
<path fill-rule="nonzero" fill="rgb(0%, 0%, 0%)" fill-opacity="1" d="M 1.246094 1.242188 C 3.464844 2.925781 6.75 6.289062 8.703125 9.273438 L 12.144531 2.390625 C 8.585938 2.621094 3.921875 2.007812 1.246094 1.242188 "/>
<path fill="none" stroke-width="2.49069" stroke-linecap="butt" stroke-linejoin="miter" stroke="rgb(0%, 0%, 0%)" stroke-opacity="1" stroke-miterlimit="10" d="M 191.340937 127.562281 L 114.559687 165.952906 " transform="matrix(1, 0, 0, -1, 1.245, 171.324)"/>
<path fill-rule="nonzero" fill="rgb(0%, 0%, 0%)" fill-opacity="1" d="M 107.546875 1.242188 C 109.761719 2.925781 113.050781 6.289062 115.003906 9.273438 L 118.445312 2.390625 C 114.886719 2.621094 110.222656 2.007812 107.546875 1.242188 "/>
<path fill="none" stroke-width="2.49069" stroke-linecap="butt" stroke-linejoin="miter" stroke="rgb(0%, 0%, 0%)" stroke-opacity="1" stroke-miterlimit="10" d="M 148.821406 127.562281 L 225.602656 89.171656 " transform="matrix(1, 0, 0, -1, 1.245, 171.324)"/>
<path fill-rule="nonzero" fill="rgb(0%, 0%, 0%)" fill-opacity="1" d="M 235.105469 86.285156 C 232.886719 84.601562 229.597656 81.234375 227.648438 78.253906 L 224.207031 85.136719 C 227.765625 84.90625 232.429688 85.519531 235.105469 86.285156 "/>
<g clip-path="url(#clip-2)">
<path fill="none" stroke-width="2.49069" stroke-linecap="butt" stroke-linejoin="miter" stroke="rgb(0%, 0%, 0%)" stroke-opacity="1" stroke-miterlimit="10" d="M 106.301875 21.2615 L 183.079219 -17.129125 " transform="matrix(1, 0, 0, -1, 1.245, 171.324)"/>
</g>
<path fill-rule="nonzero" fill="rgb(0%, 0%, 0%)" fill-opacity="1" d="M 192.585938 192.585938 C 190.367188 190.902344 187.078125 187.535156 185.128906 184.554688 L 181.6875 191.4375 C 185.242188 191.207031 189.910156 191.820312 192.585938 192.585938 "/>
<g clip-path="url(#clip-3)">
<path fill="none" stroke-width="2.49069" stroke-linecap="butt" stroke-linejoin="miter" stroke="rgb(0%, 0%, 0%)" stroke-opacity="1" stroke-miterlimit="10" d="M 148.821406 21.2615 L 225.602656 -17.129125 " transform="matrix(1, 0, 0, -1, 1.245, 171.324)"/>
</g>
<path fill-rule="nonzero" fill="rgb(0%, 0%, 0%)" fill-opacity="1" d="M 235.105469 192.585938 C 232.886719 190.902344 229.597656 187.535156 227.648438 184.554688 L 224.207031 191.4375 C 227.765625 191.207031 232.429688 191.820312 235.105469 192.585938 "/>
<path fill="none" stroke-width="2.49069" stroke-linecap="butt" stroke-linejoin="miter" stroke="rgb(0%, 0%, 0%)" stroke-opacity="1" stroke-miterlimit="10" d="M 212.602656 170.081813 L 289.38 131.691188 " transform="matrix(1, 0, 0, -1, 1.245, 171.324)"/>
<path fill-rule="nonzero" fill="rgb(0%, 0%, 0%)" fill-opacity="1" d="M 298.886719 43.761719 C 296.667969 42.082031 293.378906 38.714844 291.429688 35.734375 L 287.988281 42.617188 C 291.542969 42.386719 296.210938 43 298.886719 43.761719 "/>
<g clip-path="url(#clip-4)">
<path fill="none" stroke-width="2.49069" stroke-linecap="butt" stroke-linejoin="miter" stroke="rgb(0%, 0%, 0%)" stroke-opacity="1" stroke-miterlimit="10" d="M 297.641719 -0.00021875 L 333.63 35.988063 " transform="matrix(1, 0, 0, -1, 1.245, 171.324)"/>
</g>
<path fill-rule="nonzero" fill="rgb(0%, 0%, 0%)" fill-opacity="1" d="M 341.40625 128.804688 C 339.109375 130.375 334.875 132.433594 331.429688 133.339844 L 336.871094 138.78125 C 337.777344 135.335938 339.835938 131.101562 341.40625 128.804688 "/>
</svg>
