<?xml version="1.0" encoding="UTF-8"?>
<svg xmlns="http://www.w3.org/2000/svg" xmlns:xlink="http://www.w3.org/1999/xlink" width="385.168" height="278.868" viewBox="0 0 385.168 278.868">
<defs>
<clipPath id="clip-0">
<path clip-rule="nonzero" d="M 0 144 L 75 144 L 75 278.867188 L 0 278.867188 Z M 0 144 "/>
</clipPath>
<clipPath id="clip-1">
<path clip-rule="nonzero" d="M 306 101 L 385.167969 101 L 385.167969 250 L 306 250 Z M 306 101 "/>
</clipPath>
<clipPath id="clip-2">
<path clip-rule="nonzero" d="M 100 199 L 207 199 L 207 278.867188 L 100 278.867188 Z M 100 199 "/>
</clipPath>
<clipPath id="clip-3">
<path clip-rule="nonzero" d="M 142 199 L 250 199 L 250 278.867188 L 142 278.867188 Z M 142 199 "/>
</clipPath>
</defs>
<path fill="none" stroke-width="2.49069" stroke-linecap="butt" stroke-linejoin="miter" stroke="rgb(0%, 0%, 0%)" stroke-opacity="1" stroke-miterlimit="10" d="M 0.00015625 -0.0006875 L 0.00015625 118.323531 " transform="matrix(1, 0, 0, -1, 86.285, 128.804)"/>
<path fill-rule="nonzero" fill="rgb(0%, 0%, 0%)" fill-opacity="1" d="M 86.285156 1.242188 C 85.773438 3.980469 84.234375 8.425781 82.4375 11.503906 L 90.132812 11.503906 C 88.335938 8.425781 86.796875 3.980469 86.285156 1.242188 "/>
<path fill="none" stroke-width="2.49069" stroke-linecap="butt" stroke-linejoin="miter" stroke="rgb(0%, 0%, 0%)" stroke-opacity="1" stroke-miterlimit="10" d="M 106.300938 -0.0006875 L 106.300938 118.323531 " transform="matrix(1, 0, 0, -1, 86.285, 128.804)"/>
<path fill-rule="nonzero" fill="rgb(0%, 0%, 0%)" fill-opacity="1" d="M 192.585938 1.242188 C 192.074219 3.980469 190.53125 8.425781 188.738281 11.503906 L 196.433594 11.503906 C 194.636719 8.425781 193.097656 3.980469 192.585938 1.242188 "/>
<g clip-path="url(#clip-0)">
<path fill="none" stroke-width="2.49069" stroke-linecap="butt" stroke-linejoin="miter" stroke="rgb(0%, 0%, 0%)" stroke-opacity="1" stroke-miterlimit="10" d="M -85.038906 -127.559281 L -46.648281 -50.781937 " transform="matrix(1, 0, 0, -1, 86.285, 128.804)"/>
</g>
<path fill-rule="nonzero" fill="rgb(0%, 0%, 0%)" fill-opacity="1" d="M 43.765625 171.324219 C 42.082031 173.542969 38.71875 176.832031 35.734375 178.78125 L 42.617188 182.222656 C 42.386719 178.667969 43 174 43.765625 171.324219 "/>
<g clip-path="url(#clip-1)">
<path fill="none" stroke-width="2.49069" stroke-linecap="butt" stroke-linejoin="miter" stroke="rgb(0%, 0%, 0%)" stroke-opacity="1" stroke-miterlimit="10" d="M 255.12125 -85.03975 L 293.511875 -8.2585 " transform="matrix(1, 0, 0, -1, 86.285, 128.804)"/>
</g>
<path fill-rule="nonzero" fill="rgb(0%, 0%, 0%)" fill-opacity="1" d="M 383.925781 128.804688 C 382.242188 131.023438 378.878906 134.3125 375.894531 136.261719 L 382.78125 139.703125 C 382.550781 136.144531 383.160156 131.480469 383.925781 128.804688 "/>
<path fill="none" stroke-width="2.49069" stroke-linecap="butt" stroke-linejoin="miter" stroke="rgb(0%, 0%, 0%)" stroke-opacity="1" stroke-miterlimit="10" d="M 212.601719 127.561813 L 250.992344 50.780563 " transform="matrix(1, 0, 0, -1, 86.285, 128.804)"/>
<path fill-rule="nonzero" fill="rgb(0%, 0%, 0%)" fill-opacity="1" d="M 341.40625 86.285156 C 340.640625 83.605469 340.03125 78.941406 340.257812 75.386719 L 333.375 78.828125 C 336.359375 80.777344 339.722656 84.066406 341.40625 86.285156 "/>
<path fill="none" stroke-width="2.49069" stroke-linecap="butt" stroke-linejoin="miter" stroke="rgb(0%, 0%, 0%)" stroke-opacity="1" stroke-miterlimit="10" d="M 170.082188 85.042281 L 208.472813 8.261031 " transform="matrix(1, 0, 0, -1, 86.285, 128.804)"/>
<path fill-rule="nonzero" fill="rgb(0%, 0%, 0%)" fill-opacity="1" d="M 298.886719 128.804688 C 298.121094 126.128906 297.507812 121.460938 297.738281 117.90625 L 290.855469 121.347656 C 293.839844 123.296875 297.203125 126.585938 298.886719 128.804688 "/>
<path fill="none" stroke-width="2.49069" stroke-linecap="butt" stroke-linejoin="miter" stroke="rgb(0%, 0%, 0%)" stroke-opacity="1" stroke-miterlimit="10" d="M 85.039219 -42.520219 L 49.050938 -78.5085 " transform="matrix(1, 0, 0, -1, 86.285, 128.804)"/>
<path fill-rule="nonzero" fill="rgb(0%, 0%, 0%)" fill-opacity="1" d="M 128.804688 213.84375 C 131.101562 212.273438 135.335938 210.214844 138.78125 209.308594 L 133.339844 203.867188 C 132.433594 207.3125 130.378906 211.546875 128.804688 213.84375 "/>
<g clip-path="url(#clip-2)">
<path fill="none" stroke-width="2.49069" stroke-linecap="butt" stroke-linejoin="miter" stroke="rgb(0%, 0%, 0%)" stroke-opacity="1" stroke-miterlimit="10" d="M 85.039219 -106.301469 L 49.050938 -142.28975 " transform="matrix(1, 0, 0, -1, 86.285, 128.804)"/>
</g>
<path fill-rule="nonzero" fill="rgb(0%, 0%, 0%)" fill-opacity="1" d="M 128.804688 277.625 C 131.101562 276.050781 135.335938 273.996094 138.78125 273.089844 L 133.339844 267.648438 C 132.433594 271.09375 130.378906 275.328125 128.804688 277.625 "/>
<g clip-path="url(#clip-3)">
<path fill="none" stroke-width="2.49069" stroke-linecap="butt" stroke-linejoin="miter" stroke="rgb(0%, 0%, 0%)" stroke-opacity="1" stroke-miterlimit="10" d="M 127.55875 -106.301469 L 91.570469 -142.28975 " transform="matrix(1, 0, 0, -1, 86.285, 128.804)"/>
</g>
<path fill-rule="nonzero" fill="rgb(0%, 0%, 0%)" fill-opacity="1" d="M 171.324219 277.625 C 173.625 276.050781 177.855469 273.996094 181.300781 273.089844 L 175.859375 267.648438 C 174.953125 271.09375 172.898438 275.328125 171.324219 277.625 "/>
<path fill="none" stroke-width="2.49069" stroke-linecap="butt" stroke-linejoin="miter" stroke="rgb(0%, 0%, 0%)" stroke-opacity="1" stroke-miterlimit="10" d="M 170.082188 -127.559281 L 245.886875 -127.559281 " transform="matrix(1, 0, 0, -1, 86.285, 128.804)"/>
<path fill-rule="nonzero" fill="rgb(0%, 0%, 0%)" fill-opacity="1" d="M 341.40625 256.363281 C 338.667969 255.851562 334.222656 254.3125 331.144531 252.515625 L 331.144531 260.210938 C 334.222656 258.417969 338.667969 256.878906 341.40625 256.363281 "/>
</svg>
