<?xml version="1.0" encoding="UTF-8"?>
<svg xmlns="http://www.w3.org/2000/svg" xmlns:xlink="http://www.w3.org/1999/xlink" width="257.609" height="257.609" viewBox="0 0 257.609 257.609">
<defs>
<clipPath id="clip-0">
<path clip-rule="nonzero" d="M 0 142 L 115 142 L 115 257.609375 L 0 257.609375 Z M 0 142 "/>
</clipPath>
<clipPath id="clip-1">
<path clip-rule="nonzero" d="M 136 57 L 257.609375 57 L 257.609375 207 L 136 207 Z M 136 57 "/>
</clipPath>
<clipPath id="clip-2">
<path clip-rule="nonzero" d="M 142 8 L 257.609375 8 L 257.609375 158 L 142 158 Z M 142 8 "/>
</clipPath>
<clipPath id="clip-3">
<path clip-rule="nonzero" d="M 96 144 L 186 144 L 186 257.609375 L 96 257.609375 Z M 96 144 "/>
</clipPath>
</defs>
<g clip-path="url(#clip-0)">
<path fill="none" stroke-width="2.49069" stroke-linecap="butt" stroke-linejoin="miter" stroke="rgb(0%, 40.014648%, 79.998779%)" stroke-opacity="1" stroke-miterlimit="10" d="M -127.561813 -42.519281 L -49.050094 35.988531 " transform="matrix(1, 0, 0, -1, 128.804, 213.844)"/>
</g>
<path fill-rule="nonzero" fill="rgb(0%, 40.014648%, 79.998779%)" fill-opacity="1" d="M 86.285156 171.324219 C 83.984375 172.894531 79.753906 174.953125 76.308594 175.859375 L 81.75 181.300781 C 82.65625 177.855469 84.710938 173.621094 86.285156 171.324219 "/>
<g clip-path="url(#clip-1)">
<path fill="none" stroke-width="2.49069" stroke-linecap="butt" stroke-linejoin="miter" stroke="rgb(0%, 40.014648%, 79.998779%)" stroke-opacity="1" stroke-miterlimit="10" d="M 42.520219 42.519781 L 121.031937 121.0315 " transform="matrix(1, 0, 0, -1, 128.804, 213.844)"/>
</g>
<path fill-rule="nonzero" fill="rgb(0%, 40.014648%, 79.998779%)" fill-opacity="1" d="M 256.363281 86.285156 C 254.066406 87.855469 249.835938 89.910156 246.386719 90.820312 L 251.828125 96.261719 C 252.738281 92.8125 254.792969 88.582031 256.363281 86.285156 "/>
<g clip-path="url(#clip-2)">
<path fill="none" stroke-width="2.49069" stroke-linecap="butt" stroke-linejoin="miter" stroke="rgb(0.0137329%, 79.998779%, 0%)" stroke-opacity="1" stroke-miterlimit="10" d="M 49.051469 91.570563 L 127.559281 170.082281 " transform="matrix(1, 0, 0, -1, 128.804, 213.844)"/>
</g>
<path fill-rule="nonzero" fill="rgb(0.0137329%, 79.998779%, 0%)" fill-opacity="1" d="M 171.324219 128.804688 C 173.621094 127.230469 177.855469 125.175781 181.300781 124.269531 L 175.859375 118.828125 C 174.953125 122.273438 172.894531 126.503906 171.324219 128.804688 "/>
<path fill="none" stroke-width="2.49069" stroke-linecap="butt" stroke-linejoin="miter" stroke="rgb(0%, 40.014648%, 79.998779%)" stroke-opacity="1" stroke-miterlimit="10" d="M -42.518844 127.558844 L 35.988969 206.070563 " transform="matrix(1, 0, 0, -1, 128.804, 213.844)"/>
<path fill-rule="nonzero" fill="rgb(0%, 40.014648%, 79.998779%)" fill-opacity="1" d="M 171.324219 1.242188 C 169.027344 2.816406 164.792969 4.871094 161.347656 5.777344 L 166.789062 11.21875 C 167.695312 7.773438 169.753906 3.539062 171.324219 1.242188 "/>
<g clip-path="url(#clip-3)">
<path fill="none" stroke-width="2.49069" stroke-linecap="butt" stroke-linejoin="miter" stroke="rgb(79.998779%, 39.982605%, 0%)" stroke-opacity="1" stroke-miterlimit="10" d="M 21.2585 -21.261469 L 2.918656 33.758063 " transform="matrix(1, 0, 0, -1, 128.804, 213.844)"/>
</g>
<path fill-rule="nonzero" fill="rgb(79.998779%, 39.982605%, 0%)" fill-opacity="1" d="M 128.804688 171.324219 C 129.183594 174.082031 129.128906 178.785156 128.398438 182.273438 L 135.699219 179.839844 C 133.023438 177.488281 130.15625 173.757812 128.804688 171.324219 "/>
<path fill="none" stroke-width="2.49069" stroke-linecap="butt" stroke-linejoin="miter" stroke="rgb(79.998779%, 39.982605%, 0%)" stroke-opacity="1" stroke-miterlimit="10" d="M -63.780563 85.039313 L -82.120406 140.058844 " transform="matrix(1, 0, 0, -1, 128.804, 213.844)"/>
<path fill-rule="nonzero" fill="rgb(79.998779%, 39.982605%, 0%)" fill-opacity="1" d="M 43.761719 65.023438 C 44.140625 67.78125 44.089844 72.488281 43.359375 75.976562 L 50.660156 73.542969 C 47.980469 71.1875 45.117188 67.457031 43.761719 65.023438 "/>
<path fill="none" stroke-width="2.49069" stroke-linecap="butt" stroke-linejoin="miter" stroke="rgb(79.998779%, 39.982605%, 0%)" stroke-opacity="1" stroke-miterlimit="10" d="M 0.0006875 63.7815 L -18.339156 118.801031 " transform="matrix(1, 0, 0, -1, 128.804, 213.844)"/>
<path fill-rule="nonzero" fill="rgb(79.998779%, 39.982605%, 0%)" fill-opacity="1" d="M 107.542969 86.285156 C 107.921875 89.042969 107.867188 93.746094 107.136719 97.234375 L 114.4375 94.800781 C 111.761719 92.449219 108.894531 88.71875 107.542969 86.285156 "/>
</svg>
