<?xml version="1.0" encoding="UTF-8"?>
<svg xmlns="http://www.w3.org/2000/svg" xmlns:xlink="http://www.w3.org/1999/xlink" width="113.386" height="113.386" viewBox="0 0 113.386 113.386">
<defs>
<clipPath id="clip-0">
<path clip-rule="nonzero" d="M 0 12 L 113.386719 12 L 113.386719 94 L 0 94 Z M 0 12 "/>
</clipPath>
</defs>
<path fill-rule="nonzero" fill="rgb(50%, 50%, 50%)" fill-opacity="0.5" d="M 10.628906 37.722656 L 102.757812 37.722656 L 102.757812 57.277344 L 10.628906 57.277344 Z M 10.628906 37.722656 "/>
<path fill="none" stroke-width="0.79701" stroke-linecap="butt" stroke-linejoin="miter" stroke="rgb(0%, 0%, 0%)" stroke-opacity="1" stroke-miterlimit="10" d="M -14.174094 0.00096875 L 73.29075 0.00096875 " transform="matrix(1, 0, 0, -1, 24.803, 88.583)"/>
<path fill-rule="nonzero" fill="rgb(0%, 0%, 0%)" fill-opacity="1" d="M 102.757812 88.582031 C 101.375 88.324219 99.128906 87.546875 97.578125 86.640625 L 97.578125 90.527344 C 99.128906 89.617188 101.375 88.84375 102.757812 88.582031 "/>
<path fill="none" stroke-width="0.79701" stroke-linecap="butt" stroke-linejoin="miter" stroke="rgb(0%, 0%, 0%)" stroke-opacity="1" stroke-miterlimit="10" d="M 0.0016875 -14.174813 L 0.0016875 73.290031 " transform="matrix(1, 0, 0, -1, 24.803, 88.583)"/>
<path fill-rule="nonzero" fill="rgb(0%, 0%, 0%)" fill-opacity="1" d="M 24.804688 10.628906 C 24.542969 12.011719 23.765625 14.253906 22.859375 15.808594 L 26.746094 15.808594 C 25.839844 14.253906 25.0625 12.011719 24.804688 10.628906 "/>
<g clip-path="url(#clip-0)">
<path fill="none" stroke-width="1.59404" stroke-linecap="butt" stroke-linejoin="miter" stroke="rgb(25%, 25%, 25%)" stroke-opacity="1" stroke-miterlimit="10" d="M -14.174094 26.106437 C -14.174094 26.106437 -13.967063 26.309562 -13.888938 26.387687 C -13.810813 26.465812 -13.681906 26.594719 -13.603781 26.672844 C -13.525656 26.750969 -13.400656 26.879875 -13.318625 26.958 C -13.2405 27.040031 -13.1155 27.165031 -13.037375 27.247062 C -12.955344 27.325187 -12.830344 27.454094 -12.752219 27.532219 C -12.670188 27.61425 -12.545188 27.73925 -12.467063 27.821281 C -12.388938 27.899406 -12.260031 28.028312 -12.181906 28.110344 C -12.103781 28.188469 -11.974875 28.317375 -11.89675 28.399406 C -11.818625 28.481437 -11.693625 28.610344 -11.611594 28.688469 C -11.533469 28.7705 -11.408469 28.899406 -11.330344 28.981437 C -11.248313 29.059562 -11.123313 29.192375 -11.045188 29.2705 C -10.967063 29.352531 -10.838156 29.481437 -10.760031 29.563469 C -10.681906 29.6455 -10.553 29.774406 -10.474875 29.856437 C -10.39675 29.938469 -10.27175 30.067375 -10.189719 30.149406 C -10.111594 30.231437 -9.986594 30.360344 -9.908469 30.442375 C -9.826438 30.524406 -9.701438 30.653312 -9.623313 30.735344 C -9.545188 30.817375 -9.416281 30.946281 -9.338156 31.028312 C -9.260031 31.110344 -9.131125 31.23925 -9.053 31.321281 C -8.974875 31.403312 -8.849875 31.536125 -8.767844 31.61425 C -8.689719 31.696281 -8.564719 31.829094 -8.486594 31.911125 C -8.404563 31.98925 -8.279563 32.122062 -8.201438 32.204094 C -8.123313 32.286125 -7.994406 32.415031 -7.916281 32.497062 C -7.838156 32.579094 -7.70925 32.708 -7.631125 32.790031 C -7.553 32.872062 -7.428 33.000969 -7.345969 33.083 C -7.267844 33.165031 -7.142844 33.297844 -7.064719 33.375969 C -6.982688 33.458 -6.857688 33.590812 -6.779563 33.668937 C -6.701438 33.750969 -6.572531 33.883781 -6.494406 33.961906 C -6.416281 34.043937 -6.287375 34.172844 -6.20925 34.254875 C -6.131125 34.336906 -6.006125 34.465812 -5.924094 34.547844 C -5.845969 34.629875 -5.720969 34.758781 -5.642844 34.840812 C -5.560813 34.918937 -5.435813 35.047844 -5.357688 35.129875 C -5.279563 35.211906 -5.150656 35.340812 -5.072531 35.418937 C -4.994406 35.500969 -4.8655 35.629875 -4.787375 35.708 C -4.70925 35.790031 -4.580344 35.918937 -4.502219 35.997062 C -4.424094 36.079094 -4.299094 36.208 -4.217063 36.286125 C -4.138938 36.36425 -4.013938 36.493156 -3.935813 36.571281 C -3.853781 36.653312 -3.728781 36.778312 -3.650656 36.860344 C -3.572531 36.938469 -3.443625 37.063469 -3.3655 37.1455 C -3.287375 37.223625 -3.158469 37.348625 -3.080344 37.430656 C -3.002219 37.508781 -2.877219 37.633781 -2.795188 37.711906 C -2.717063 37.790031 -2.592063 37.915031 -2.513938 37.993156 C -2.431906 38.071281 -2.306906 38.196281 -2.228781 38.274406 C -2.150656 38.352531 -2.02175 38.477531 -1.943625 38.555656 C -1.8655 38.633781 -1.736594 38.754875 -1.658469 38.833 C -1.580344 38.911125 -1.455344 39.032219 -1.373313 39.110344 C -1.295188 39.188469 -1.170188 39.309562 -1.092063 39.387687 C -1.010031 39.461906 -0.885031 39.583 -0.806906 39.661125 C -0.728781 39.735344 -0.599875 39.856437 -0.52175 39.934562 C -0.443625 40.008781 -0.314719 40.129875 -0.236594 40.204094 C -0.158469 40.278312 -0.0334688 40.399406 0.0485625 40.473625 C 0.126687 40.547844 0.251687 40.668937 0.329812 40.743156 C 0.411844 40.817375 0.536844 40.934562 0.614969 41.008781 C 0.693094 41.083 0.822 41.200187 0.900125 41.274406 C 0.97825 41.348625 1.107156 41.465812 1.185281 41.536125 C 1.263406 41.610344 1.392312 41.723625 1.470437 41.797844 C 1.548562 41.868156 1.673562 41.985344 1.755594 42.055656 C 1.833719 42.129875 1.958719 42.243156 2.036844 42.313469 C 2.118875 42.383781 2.243875 42.497062 2.322 42.567375 C 2.400125 42.637687 2.529031 42.750969 2.607156 42.821281 C 2.685281 42.891594 2.814187 43.004875 2.892312 43.071281 C 2.970437 43.141594 3.095437 43.250969 3.177469 43.321281 C 3.255594 43.391594 3.380594 43.500969 3.458719 43.567375 C 3.54075 43.637687 3.66575 43.747062 3.743875 43.813469 C 3.822 43.879875 3.950906 43.98925 4.029031 44.055656 C 4.107156 44.122062 4.236062 44.227531 4.314187 44.293937 C 4.392312 44.360344 4.517312 44.465812 4.599344 44.532219 C 4.677469 44.598625 4.802469 44.704094 4.880594 44.766594 C 4.962625 44.833 5.087625 44.934562 5.16575 45.000969 C 5.243875 45.063469 5.372781 45.165031 5.450906 45.231437 C 5.529031 45.293937 5.657937 45.3955 5.736062 45.458 C 5.814187 45.5205 5.939187 45.622062 6.021219 45.684562 C 6.099344 45.743156 6.224344 45.844719 6.306375 45.903312 C 6.3845 45.965812 6.5095 46.063469 6.587625 46.125969 C 6.669656 46.184562 6.794656 46.282219 6.872781 46.340812 C 6.950906 46.403312 7.079812 46.497062 7.157937 46.555656 C 7.236062 46.61425 7.364969 46.708 7.443094 46.766594 C 7.521219 46.825187 7.646219 46.918937 7.72825 46.977531 C 7.806375 47.032219 7.931375 47.125969 8.0095 47.180656 C 8.091531 47.23925 8.216531 47.329094 8.294656 47.383781 C 8.372781 47.438469 8.501687 47.528312 8.579812 47.583 C 8.657937 47.637687 8.786844 47.727531 8.864969 47.782219 C 8.943094 47.833 9.068094 47.922844 9.150125 47.973625 C 9.22825 48.028312 9.35325 48.11425 9.431375 48.165031 C 9.513406 48.215812 9.638406 48.30175 9.716531 48.352531 C 9.794656 48.403312 9.923562 48.485344 10.001687 48.536125 C 10.079812 48.586906 10.208719 48.668937 10.286844 48.719719 C 10.364969 48.766594 10.489969 48.848625 10.572 48.8955 C 10.650125 48.946281 10.775125 49.024406 10.85325 49.071281 C 10.935281 49.118156 11.060281 49.196281 11.138406 49.243156 C 11.216531 49.290031 11.345437 49.36425 11.423562 49.411125 C 11.501687 49.458 11.630594 49.528312 11.708719 49.575187 C 11.786844 49.622062 11.91575 49.692375 11.993875 49.735344 C 12.072 49.782219 12.197 49.852531 12.279031 49.8955 C 12.357156 49.938469 12.482156 50.004875 12.560281 50.047844 C 12.642312 50.090812 12.767312 50.157219 12.845437 50.200187 C 12.923562 50.243156 13.052469 50.305656 13.130594 50.348625 C 13.208719 50.387687 13.337625 50.454094 13.41575 50.493156 C 13.493875 50.532219 13.618875 50.594719 13.700906 50.633781 C 13.779031 50.672844 13.904031 50.731437 13.982156 50.7705 C 14.064187 50.805656 14.189187 50.86425 14.267312 50.903312 C 14.345437 50.938469 14.474344 50.997062 14.552469 51.032219 C 14.630594 51.067375 14.7595 51.125969 14.837625 51.157219 C 14.91575 51.192375 15.04075 51.247062 15.122781 51.282219 C 15.200906 51.313469 15.325906 51.368156 15.404031 51.399406 C 15.486062 51.430656 15.611062 51.481437 15.689187 51.512687 C 15.767312 51.543937 15.896219 51.594719 15.974344 51.625969 C 16.052469 51.657219 16.181375 51.704094 16.2595 51.731437 C 16.337625 51.762687 16.462625 51.809562 16.544656 51.836906 C 16.622781 51.86425 16.747781 51.907219 16.825906 51.934562 C 16.907937 51.961906 17.032937 52.004875 17.111062 52.032219 C 17.189187 52.059562 17.318094 52.098625 17.396219 52.125969 C 17.474344 52.149406 17.60325 52.188469 17.681375 52.211906 C 17.7595 52.235344 17.888406 52.274406 17.966531 52.297844 C 18.044656 52.317375 18.169656 52.356437 18.251687 52.375969 C 18.329812 52.399406 18.454812 52.434562 18.532937 52.454094 C 18.614969 52.473625 18.739969 52.508781 18.818094 52.528312 C 18.896219 52.547844 19.025125 52.575187 19.10325 52.594719 C 19.181375 52.61425 19.310281 52.641594 19.388406 52.661125 C 19.466531 52.67675 19.591531 52.704094 19.673562 52.719719 C 19.751687 52.735344 19.876687 52.762687 19.954812 52.778312 C 20.036844 52.793937 20.161844 52.817375 20.239969 52.829094 C 20.318094 52.844719 20.447 52.86425 20.525125 52.879875 C 20.60325 52.891594 20.732156 52.911125 20.810281 52.922844 C 20.888406 52.934562 21.013406 52.954094 21.095437 52.965812 C 21.173562 52.973625 21.298562 52.993156 21.376687 53.000969 C 21.458719 53.008781 21.583719 53.024406 21.661844 53.032219 C 21.739969 53.043937 21.868875 53.055656 21.947 53.063469 C 22.025125 53.067375 22.154031 53.079094 22.232156 53.086906 C 22.310281 53.090812 22.435281 53.102531 22.517312 53.106437 C 22.595437 53.110344 22.720437 53.118156 22.798562 53.122062 C 22.880594 53.125969 23.005594 53.133781 23.083719 53.137687 C 23.161844 53.137687 23.29075 53.141594 23.368875 53.1455 C 23.447 53.1455 23.575906 53.149406 23.654031 53.149406 C 23.732156 53.149406 23.861062 53.149406 23.939187 53.149406 C 24.017312 53.149406 24.142312 53.1455 24.224344 53.1455 C 24.302469 53.1455 24.427469 53.141594 24.505594 53.137687 C 24.587625 53.133781 24.712625 53.129875 24.79075 53.125969 C 24.868875 53.122062 24.997781 53.11425 25.075906 53.110344 C 25.154031 53.102531 25.282937 53.094719 25.361062 53.086906 C 25.439187 53.083 25.564187 53.071281 25.646219 53.063469 C 25.724344 53.059562 25.849344 53.043937 25.927469 53.036125 C 26.0095 53.028312 26.1345 53.012687 26.212625 53.004875 C 26.29075 52.993156 26.419656 52.977531 26.497781 52.969719 C 26.575906 52.958 26.704812 52.938469 26.782937 52.92675 C 26.861062 52.915031 26.986062 52.8955 27.068094 52.883781 C 27.146219 52.872062 27.271219 52.848625 27.349344 52.836906 C 27.431375 52.821281 27.556375 52.797844 27.6345 52.782219 C 27.712625 52.766594 27.841531 52.743156 27.919656 52.727531 C 27.997781 52.711906 28.126687 52.684562 28.204812 52.665031 C 28.282937 52.649406 28.407937 52.622062 28.489969 52.602531 C 28.568094 52.583 28.693094 52.555656 28.771219 52.536125 C 28.85325 52.516594 28.97825 52.481437 29.056375 52.461906 C 29.1345 52.442375 29.263406 52.407219 29.341531 52.383781 C 29.419656 52.36425 29.548562 52.329094 29.626687 52.305656 C 29.704812 52.282219 29.833719 52.247062 29.911844 52.223625 C 29.989969 52.196281 30.114969 52.157219 30.197 52.133781 C 30.275125 52.110344 30.400125 52.067375 30.47825 52.043937 C 30.560281 52.016594 30.685281 51.973625 30.763406 51.946281 C 30.841531 51.918937 30.970437 51.875969 31.048562 51.848625 C 31.126687 51.821281 31.255594 51.774406 31.333719 51.743156 C 31.411844 51.715812 31.536844 51.668937 31.618875 51.637687 C 31.697 51.606437 31.822 51.555656 31.900125 51.524406 C 31.982156 51.493156 32.107156 51.442375 32.185281 51.411125 C 32.263406 51.379875 32.392313 51.329094 32.470438 51.293937 C 32.548563 51.262687 32.677469 51.208 32.755594 51.172844 C 32.833719 51.137687 32.958719 51.083 33.04075 51.043937 C 33.118875 51.008781 33.243875 50.954094 33.322 50.915031 C 33.404031 50.879875 33.529031 50.821281 33.607156 50.782219 C 33.685281 50.747062 33.814188 50.684562 33.892313 50.649406 C 33.970438 50.610344 34.099344 50.547844 34.177469 50.508781 C 34.255594 50.465812 34.380594 50.403312 34.462625 50.36425 C 34.54075 50.321281 34.66575 50.258781 34.743875 50.215812 C 34.825906 50.172844 34.950906 50.106437 35.029031 50.067375 C 35.107156 50.024406 35.236063 49.954094 35.314188 49.911125 C 35.392313 49.868156 35.521219 49.797844 35.599344 49.754875 C 35.677469 49.708 35.806375 49.637687 35.8845 49.594719 C 35.962625 49.547844 36.087625 49.473625 36.169656 49.42675 C 36.247781 49.383781 36.372781 49.305656 36.450906 49.258781 C 36.532938 49.211906 36.657938 49.137687 36.736063 49.090812 C 36.814188 49.043937 36.943094 48.965812 37.021219 48.915031 C 37.099344 48.868156 37.22825 48.786125 37.306375 48.735344 C 37.3845 48.688469 37.5095 48.606437 37.591531 48.555656 C 37.669656 48.504875 37.794656 48.422844 37.872781 48.372062 C 37.954813 48.321281 38.079813 48.23925 38.157938 48.184562 C 38.236063 48.133781 38.364969 48.047844 38.443094 47.993156 C 38.521219 47.942375 38.650125 47.856437 38.72825 47.80175 C 38.806375 47.747062 38.931375 47.661125 39.013406 47.606437 C 39.091531 47.55175 39.216531 47.461906 39.294656 47.407219 C 39.376688 47.348625 39.501688 47.258781 39.579813 47.204094 C 39.657938 47.1455 39.786844 47.055656 39.864969 46.997062 C 39.943094 46.938469 40.072 46.848625 40.150125 46.790031 C 40.22825 46.731437 40.35325 46.637687 40.435281 46.579094 C 40.513406 46.5205 40.638406 46.42675 40.716531 46.36425 C 40.798563 46.305656 40.923563 46.208 41.001688 46.149406 C 41.083719 46.086906 41.208719 45.98925 41.286844 45.92675 C 41.364969 45.868156 41.493875 45.7705 41.572 45.708 C 41.650125 45.6455 41.779031 45.543937 41.857156 45.481437 C 41.935281 45.418937 42.060281 45.317375 42.142313 45.254875 C 42.220438 45.192375 42.345438 45.090812 42.423563 45.024406 C 42.505594 44.961906 42.630594 44.856437 42.708719 44.793937 C 42.786844 44.727531 42.91575 44.622062 42.993875 44.559562 C 43.072 44.493156 43.200906 44.387687 43.279031 44.321281 C 43.357156 44.254875 43.482156 44.149406 43.564188 44.083 C 43.642313 44.016594 43.767313 43.907219 43.845438 43.840812 C 43.927469 43.7705 44.052469 43.661125 44.130594 43.594719 C 44.208719 43.528312 44.337625 43.415031 44.41575 43.348625 C 44.493875 43.278312 44.622781 43.168937 44.700906 43.098625 C 44.779031 43.032219 44.904031 42.918937 44.986063 42.848625 C 45.064188 42.778312 45.189188 42.665031 45.267313 42.594719 C 45.349344 42.524406 45.474344 42.411125 45.552469 42.340812 C 45.630594 42.2705 45.7595 42.157219 45.837625 42.083 C 45.91575 42.012687 46.044656 41.899406 46.122781 41.825187 C 46.200906 41.754875 46.325906 41.637687 46.407938 41.563469 C 46.486063 41.493156 46.611063 41.375969 46.693094 41.30175 C 46.771219 41.227531 46.896219 41.110344 46.974344 41.036125 C 47.056375 40.965812 47.181375 40.844719 47.2595 40.7705 C 47.337625 40.696281 47.466531 40.579094 47.544656 40.504875 C 47.622781 40.430656 47.751688 40.309562 47.829813 40.235344 C 47.907938 40.157219 48.032938 40.036125 48.114969 39.961906 C 48.193094 39.887687 48.318094 39.766594 48.396219 39.688469 C 48.47825 39.61425 48.60325 39.493156 48.681375 39.415031 C 48.7595 39.340812 48.888406 39.215812 48.966531 39.141594 C 49.044656 39.063469 49.173563 38.942375 49.251688 38.86425 C 49.329813 38.786125 49.454813 38.661125 49.536844 38.586906 C 49.614969 38.508781 49.739969 38.383781 49.818094 38.305656 C 49.900125 38.227531 50.025125 38.102531 50.10325 38.024406 C 50.181375 37.946281 50.310281 37.821281 50.388406 37.743156 C 50.466531 37.665031 50.595438 37.540031 50.673563 37.458 C 50.751688 37.379875 50.876688 37.254875 50.958719 37.17675 C 51.036844 37.094719 51.161844 36.969719 51.239969 36.891594 C 51.322 36.809562 51.447 36.684562 51.525125 36.602531 C 51.607156 36.524406 51.732156 36.3955 51.810281 36.317375 C 51.888406 36.23925 52.017313 36.110344 52.095438 36.028312 C 52.173563 35.950187 52.302469 35.821281 52.380594 35.73925 C 52.458719 35.661125 52.583719 35.532219 52.66575 35.450187 C 52.743875 35.372062 52.868875 35.243156 52.947 35.161125 C 53.029031 35.079094 53.154031 34.950187 53.232156 34.872062 C 53.310281 34.790031 53.439188 34.661125 53.517313 34.579094 C 53.595438 34.497062 53.724344 34.368156 53.802469 34.286125 C 53.880594 34.204094 54.005594 34.075187 54.087625 33.993156 C 54.16575 33.915031 54.29075 33.782219 54.368875 33.704094 C 54.450906 33.622062 54.575906 33.48925 54.654031 33.411125 C 54.732156 33.329094 54.861063 33.196281 54.939188 33.118156 C 55.017313 33.036125 55.146219 32.903312 55.224344 32.821281 C 55.302469 32.73925 55.427469 32.610344 55.5095 32.528312 C 55.587625 32.446281 55.712625 32.317375 55.79075 32.235344 C 55.872781 32.153312 55.997781 32.024406 56.075906 31.942375 C 56.154031 31.860344 56.282938 31.727531 56.361063 31.649406 C 56.439188 31.567375 56.568094 31.434562 56.646219 31.352531 C 56.724344 31.274406 56.849344 31.141594 56.931375 31.059562 C 57.0095 30.977531 57.1345 30.848625 57.216531 30.766594 C 57.294656 30.684562 57.419656 30.555656 57.497781 30.473625 C 57.579813 30.391594 57.704813 30.262687 57.782938 30.180656 C 57.861063 30.098625 57.989969 29.969719 58.068094 29.887687 C 58.146219 29.805656 58.275125 29.67675 58.35325 29.594719 C 58.431375 29.512687 58.556375 29.383781 58.638406 29.30175 C 58.716531 29.223625 58.841531 29.090812 58.919656 29.012687 C 59.001688 28.930656 59.126688 28.80175 59.204813 28.719719 C 59.282938 28.641594 59.411844 28.512687 59.489969 28.430656 C 59.568094 28.348625 59.697 28.219719 59.775125 28.141594 C 59.85325 28.059562 59.97825 27.930656 60.060281 27.852531 C 60.138406 27.7705 60.263406 27.641594 60.341531 27.563469 C 60.423563 27.485344 60.548563 27.356437 60.626688 27.274406 C 60.704813 27.196281 60.833719 27.071281 60.911844 26.98925 C 60.989969 26.911125 61.118875 26.782219 61.197 26.704094 C 61.275125 26.625969 61.400125 26.497062 61.482156 26.418937 C 61.560281 26.340812 61.685281 26.215812 61.763406 26.137687 C 61.845438 26.059562 61.970438 25.930656 62.048563 25.852531 C 62.126688 25.774406 62.255594 25.649406 62.333719 25.571281 C 62.411844 25.493156 62.54075 25.368156 62.618875 25.293937 C 62.697 25.215812 62.822 25.090812 62.904031 25.012687 C 62.982156 24.934562 63.107156 24.813469 63.185281 24.735344 C 63.267313 24.661125 63.392313 24.536125 63.470438 24.461906 C 63.552469 24.383781 63.677469 24.262687 63.755594 24.184562 C 63.833719 24.110344 63.962625 23.98925 64.04075 23.911125 C 64.118875 23.836906 64.247781 23.715812 64.325906 23.641594 C 64.404031 23.563469 64.529031 23.446281 64.611063 23.372062 C 64.689188 23.297844 64.814188 23.17675 64.892313 23.102531 C 64.974344 23.028312 65.099344 22.911125 65.177469 22.836906 C 65.255594 22.762687 65.3845 22.6455 65.462625 22.571281 C 65.54075 22.497062 65.669656 22.379875 65.747781 22.305656 C 65.825906 22.235344 65.950906 22.118156 66.032938 22.043937 C 66.111063 21.973625 66.236063 21.856437 66.314188 21.786125 C 66.396219 21.715812 66.521219 21.598625 66.599344 21.528312 C 66.677469 21.458 66.806375 21.344719 66.8845 21.274406 C 66.962625 21.204094 67.091531 21.090812 67.169656 21.0205 C 67.247781 20.950187 67.372781 20.836906 67.454813 20.766594 C 67.532938 20.696281 67.657938 20.586906 67.736063 20.516594 C 67.818094 20.450187 67.943094 20.340812 68.021219 20.2705 C 68.099344 20.204094 68.22825 20.094719 68.306375 20.024406 C 68.3845 19.958 68.513406 19.852531 68.591531 19.782219 C 68.669656 19.715812 68.794656 19.610344 68.876688 19.543937 C 68.954813 19.477531 69.079813 19.372062 69.157938 19.305656 C 69.239969 19.23925 69.364969 19.133781 69.443094 19.067375 C 69.525125 19.004875 69.650125 18.899406 69.72825 18.836906 C 69.806375 18.7705 69.935281 18.668937 70.013406 18.606437 C 70.091531 18.543937 70.220438 18.442375 70.298563 18.375969 C 70.376688 18.313469 70.501688 18.211906 70.583719 18.153312 C 70.661844 18.090812 70.864969 17.92675 70.864969 17.92675 " transform="matrix(1, 0, 0, -1, 24.803, 88.583)"/>
</g>
<path fill-rule="nonzero" fill="rgb(25%, 25%, 25%)" fill-opacity="1" stroke-width="0.79701" stroke-linecap="butt" stroke-linejoin="miter" stroke="rgb(25%, 25%, 25%)" stroke-opacity="1" stroke-miterlimit="10" d="M 15.935281 50.860344 C 15.935281 51.833 15.146219 52.618156 14.173562 52.618156 C 13.200906 52.618156 12.411844 51.833 12.411844 50.860344 C 12.411844 49.887687 13.200906 49.098625 14.173562 49.098625 C 15.146219 49.098625 15.935281 49.887687 15.935281 50.860344 Z M 15.935281 50.860344 " transform="matrix(1, 0, 0, -1, 24.803, 88.583)"/>
<path fill-rule="nonzero" fill="rgb(25%, 25%, 25%)" fill-opacity="1" stroke-width="0.79701" stroke-linecap="butt" stroke-linejoin="miter" stroke="rgb(25%, 25%, 25%)" stroke-opacity="1" stroke-miterlimit="10" d="M 58.454813 31.305656 C 58.454813 32.278312 57.66575 33.067375 56.693094 33.067375 C 55.720438 33.067375 54.931375 32.278312 54.931375 31.305656 C 54.931375 30.333 55.720438 29.543937 56.693094 29.543937 C 57.66575 29.543937 58.454813 30.333 58.454813 31.305656 Z M 58.454813 31.305656 " transform="matrix(1, 0, 0, -1, 24.803, 88.583)"/>
</svg>
