<?xml version="1.0" encoding="UTF-8"?>
<svg xmlns="http://www.w3.org/2000/svg" xmlns:xlink="http://www.w3.org/1999/xlink" width="113.386" height="113.386" viewBox="0 0 113.386 113.386">
<defs>
<clipPath id="clip-0">
<path clip-rule="nonzero" d="M 0 9 L 113.386719 9 L 113.386719 112 L 0 112 Z M 0 9 "/>
</clipPath>
</defs>
<path fill="none" stroke-width="0.79701" stroke-linecap="butt" stroke-linejoin="miter" stroke="rgb(0%, 0%, 0%)" stroke-opacity="1" stroke-miterlimit="10" d="M -42.521094 0.001625 L 44.94375 0.001625 " transform="matrix(1, 0, 0, -1, 53.15, 60.236)"/>
<path fill-rule="nonzero" fill="rgb(0%, 0%, 0%)" fill-opacity="1" d="M 102.757812 60.234375 C 101.375 59.976562 99.128906 59.199219 97.578125 58.292969 L 97.578125 62.179688 C 99.128906 61.273438 101.375 60.496094 102.757812 60.234375 "/>
<path fill="none" stroke-width="0.79701" stroke-linecap="butt" stroke-linejoin="miter" stroke="rgb(0%, 0%, 0%)" stroke-opacity="1" stroke-miterlimit="10" d="M -0.0015625 -42.521813 L -0.0015625 44.943031 " transform="matrix(1, 0, 0, -1, 53.15, 60.236)"/>
<path fill-rule="nonzero" fill="rgb(0%, 0%, 0%)" fill-opacity="1" d="M 53.148438 10.628906 C 52.890625 12.011719 52.113281 14.253906 51.207031 15.808594 L 55.09375 15.808594 C 54.1875 14.253906 53.410156 12.011719 53.148438 10.628906 "/>
<g clip-path="url(#clip-0)">
<path fill="none" stroke-width="1.59404" stroke-linecap="butt" stroke-linejoin="miter" stroke="rgb(25%, 25%, 25%)" stroke-opacity="1" stroke-miterlimit="10" d="M -42.521094 14.1735 C -42.521094 14.1735 -42.396094 13.911781 -42.349219 13.810219 C -42.302344 13.708656 -42.228125 13.5485 -42.18125 13.446937 C -42.130469 13.341469 -42.05625 13.181312 -42.009375 13.075844 C -41.9625 12.974281 -41.884375 12.810219 -41.8375 12.70475 C -41.790625 12.603187 -41.716406 12.435219 -41.669531 12.333656 C -41.622656 12.228187 -41.544531 12.060219 -41.497656 11.958656 C -41.450781 11.853187 -41.372656 11.681312 -41.325781 11.575844 C -41.278906 11.470375 -41.204687 11.302406 -41.157812 11.196937 C -41.110937 11.091469 -41.032812 10.919594 -40.985937 10.814125 C -40.939062 10.70475 -40.864844 10.532875 -40.814062 10.427406 C -40.767187 10.318031 -40.692969 10.146156 -40.646094 10.036781 C -40.599219 9.931312 -40.521094 9.755531 -40.474219 9.650062 C -40.427344 9.540687 -40.353125 9.364906 -40.30625 9.255531 C -40.259375 9.146156 -40.18125 8.970375 -40.134375 8.861 C -40.0875 8.751625 -40.009375 8.575844 -39.9625 8.462562 C -39.915625 8.353187 -39.841406 8.177406 -39.794531 8.064125 C -39.747656 7.95475 -39.669531 7.778969 -39.622656 7.665687 C -39.575781 7.556312 -39.501562 7.376625 -39.450781 7.263344 C -39.403906 7.153969 -39.329687 6.974281 -39.282812 6.861 C -39.235937 6.747719 -39.157812 6.568031 -39.110937 6.45475 C -39.064062 6.345375 -38.989844 6.161781 -38.942969 6.0485 C -38.892187 5.935219 -38.817969 5.755531 -38.771094 5.64225 C -38.724219 5.528969 -38.646094 5.345375 -38.599219 5.232094 C -38.552344 5.118812 -38.478125 4.939125 -38.43125 4.825844 C -38.384375 4.708656 -38.30625 4.528969 -38.259375 4.411781 C -38.2125 4.2985 -38.138281 4.114906 -38.0875 4.001625 C -38.040625 3.888344 -37.966406 3.70475 -37.919531 3.587562 C -37.872656 3.474281 -37.794531 3.290687 -37.747656 3.177406 C -37.700781 3.060219 -37.626562 2.876625 -37.579687 2.759437 C -37.528906 2.646156 -37.454687 2.462562 -37.407812 2.345375 C -37.360937 2.232094 -37.282812 2.0485 -37.235937 1.931312 C -37.189062 1.818031 -37.114844 1.630531 -37.067969 1.51725 C -37.021094 1.400062 -36.942969 1.216469 -36.896094 1.099281 C -36.849219 0.986 -36.775 0.7985 -36.724219 0.685219 C -36.677344 0.568031 -36.603125 0.384437 -36.55625 0.26725 C -36.509375 0.153969 -36.43125 -0.0335313 -36.384375 -0.146813 C -36.3375 -0.264 -36.263281 -0.447594 -36.216406 -0.564781 C -36.165625 -0.678063 -36.091406 -0.865563 -36.044531 -0.978844 C -35.997656 -1.096031 -35.919531 -1.279625 -35.872656 -1.396813 C -35.825781 -1.514 -35.751562 -1.697594 -35.704687 -1.810875 C -35.657812 -1.928063 -35.579687 -2.111656 -35.532812 -2.228844 C -35.485937 -2.342125 -35.411719 -2.525719 -35.360937 -2.642906 C -35.314062 -2.756188 -35.239844 -2.943688 -35.192969 -3.056969 C -35.146094 -3.17025 -35.067969 -3.35775 -35.021094 -3.471031 C -34.974219 -3.584313 -34.9 -3.767906 -34.853125 -3.885094 C -34.802344 -3.998375 -34.728125 -4.181969 -34.68125 -4.29525 C -34.634375 -4.408531 -34.55625 -4.592125 -34.509375 -4.705406 C -34.4625 -4.822594 -34.388281 -5.002281 -34.341406 -5.115563 C -34.294531 -5.228844 -34.216406 -5.412438 -34.169531 -5.525719 C -34.122656 -5.639 -34.044531 -5.818688 -33.997656 -5.931969 C -33.950781 -6.04525 -33.876562 -6.228844 -33.829687 -6.338219 C -33.782812 -6.4515 -33.704687 -6.631188 -33.657812 -6.744469 C -33.610937 -6.85775 -33.536719 -7.037438 -33.489844 -7.146813 C -33.439062 -7.260094 -33.364844 -7.439781 -33.317969 -7.549156 C -33.271094 -7.662438 -33.192969 -7.842125 -33.146094 -7.9515 C -33.099219 -8.060875 -33.025 -8.240563 -32.978125 -8.349938 C -32.93125 -8.459313 -32.853125 -8.639 -32.80625 -8.748375 C -32.759375 -8.85775 -32.68125 -9.033531 -32.634375 -9.142906 C -32.5875 -9.252281 -32.513281 -9.428063 -32.466406 -9.537438 C -32.419531 -9.642906 -32.341406 -9.818688 -32.294531 -9.928063 C -32.247656 -10.033531 -32.173437 -10.209313 -32.122656 -10.314781 C -32.075781 -10.424156 -32.001562 -10.596031 -31.954687 -10.7015 C -31.907812 -10.810875 -31.829687 -10.98275 -31.782812 -11.088219 C -31.735937 -11.193688 -31.661719 -11.361656 -31.614844 -11.467125 C -31.567969 -11.572594 -31.489844 -11.744469 -31.442969 -11.849938 C -31.396094 -11.955406 -31.317969 -12.119469 -31.271094 -12.224938 C -31.224219 -12.330406 -31.15 -12.494469 -31.103125 -12.599938 C -31.05625 -12.7015 -30.978125 -12.869469 -30.93125 -12.971031 C -30.884375 -13.072594 -30.810156 -13.236656 -30.759375 -13.342125 C -30.7125 -13.443688 -30.638281 -13.603844 -30.591406 -13.705406 C -30.544531 -13.806969 -30.466406 -13.971031 -30.419531 -14.068688 C -30.372656 -14.17025 -30.298437 -14.330406 -30.251562 -14.428063 C -30.200781 -14.529625 -30.126562 -14.685875 -30.079687 -14.787438 C -30.032812 -14.885094 -29.954687 -15.041344 -29.907812 -15.139 C -29.860937 -15.236656 -29.786719 -15.392906 -29.739844 -15.490563 C -29.692969 -15.588219 -29.614844 -15.740563 -29.567969 -15.838219 C -29.521094 -15.931969 -29.446875 -16.084313 -29.396094 -16.181969 C -29.349219 -16.275719 -29.275 -16.428063 -29.228125 -16.521813 C -29.18125 -16.615563 -29.103125 -16.764 -29.05625 -16.85775 C -29.009375 -16.9515 -28.935156 -17.099938 -28.888281 -17.189781 C -28.8375 -17.283531 -28.763281 -17.428063 -28.716406 -17.517906 C -28.669531 -17.611656 -28.591406 -17.756188 -28.544531 -17.846031 C -28.497656 -17.935875 -28.423437 -18.0765 -28.376562 -18.166344 C -28.329687 -18.256188 -28.251562 -18.396813 -28.204687 -18.48275 C -28.157812 -18.572594 -28.083594 -18.709313 -28.032812 -18.799156 C -27.985937 -18.885094 -27.911719 -19.021813 -27.864844 -19.10775 C -27.817969 -19.193688 -27.739844 -19.330406 -27.692969 -19.412438 C -27.646094 -19.498375 -27.571875 -19.631188 -27.525 -19.713219 C -27.474219 -19.799156 -27.4 -19.928063 -27.353125 -20.010094 C -27.30625 -20.092125 -27.228125 -20.224938 -27.18125 -20.303063 C -27.134375 -20.385094 -27.060156 -20.514 -27.013281 -20.592125 C -26.966406 -20.67025 -26.888281 -20.799156 -26.841406 -20.877281 C -26.794531 -20.955406 -26.720312 -21.080406 -26.669531 -21.154625 C -26.622656 -21.23275 -26.548437 -21.353844 -26.501562 -21.431969 C -26.454687 -21.506188 -26.376562 -21.627281 -26.329687 -21.7015 C -26.282812 -21.775719 -26.208594 -21.892906 -26.161719 -21.967125 C -26.110937 -22.041344 -26.036719 -22.154625 -25.989844 -22.228844 C -25.942969 -22.299156 -25.864844 -22.412438 -25.817969 -22.48275 C -25.771094 -22.553063 -25.696875 -22.666344 -25.65 -22.73275 C -25.603125 -22.803063 -25.525 -22.912438 -25.478125 -22.98275 C -25.43125 -23.049156 -25.353125 -23.154625 -25.30625 -23.221031 C -25.259375 -23.287438 -25.185156 -23.392906 -25.138281 -23.459313 C -25.091406 -23.521813 -25.013281 -23.627281 -24.966406 -23.689781 C -24.919531 -23.752281 -24.845312 -23.853844 -24.798437 -23.916344 C -24.747656 -23.978844 -24.673437 -24.0765 -24.626562 -24.135094 C -24.579687 -24.197594 -24.501562 -24.291344 -24.454687 -24.353844 C -24.407812 -24.412438 -24.333594 -24.506188 -24.286719 -24.564781 C -24.239844 -24.619469 -24.161719 -24.713219 -24.114844 -24.767906 C -24.067969 -24.822594 -23.989844 -24.912438 -23.942969 -24.967125 C -23.896094 -25.021813 -23.821875 -25.10775 -23.775 -25.162438 C -23.728125 -25.213219 -23.65 -25.299156 -23.603125 -25.349938 C -23.55625 -25.400719 -23.482031 -25.48275 -23.43125 -25.533531 C -23.384375 -25.584313 -23.310156 -25.662438 -23.263281 -25.713219 C -23.216406 -25.760094 -23.138281 -25.838219 -23.091406 -25.885094 C -23.044531 -25.931969 -22.970312 -26.006188 -22.923437 -26.053063 C -22.876562 -26.096031 -22.798437 -26.17025 -22.751562 -26.213219 C -22.704687 -26.256188 -22.626562 -26.3265 -22.579687 -26.369469 C -22.532812 -26.412438 -22.458594 -26.478844 -22.411719 -26.517906 C -22.364844 -26.560875 -22.286719 -26.623375 -22.239844 -26.662438 C -22.192969 -26.7015 -22.11875 -26.764 -22.067969 -26.803063 C -22.021094 -26.838219 -21.946875 -26.896813 -21.9 -26.935875 C -21.853125 -26.971031 -21.775 -27.025719 -21.728125 -27.060875 C -21.68125 -27.096031 -21.607031 -27.150719 -21.560156 -27.181969 C -21.509375 -27.213219 -21.435156 -27.264 -21.388281 -27.29525 C -21.341406 -27.3265 -21.263281 -27.377281 -21.216406 -27.404625 C -21.169531 -27.435875 -21.095312 -27.48275 -21.048437 -27.510094 C -21.001562 -27.537438 -20.923437 -27.580406 -20.876562 -27.60775 C -20.829687 -27.635094 -20.755469 -27.674156 -20.704687 -27.697594 C -20.657812 -27.721031 -20.583594 -27.760094 -20.536719 -27.783531 C -20.489844 -27.806969 -20.411719 -27.842125 -20.364844 -27.861656 C -20.317969 -27.885094 -20.24375 -27.916344 -20.196875 -27.935875 C -20.146094 -27.955406 -20.071875 -27.986656 -20.025 -28.006188 C -19.978125 -28.021813 -19.9 -28.049156 -19.853125 -28.064781 C -19.80625 -28.080406 -19.732031 -28.10775 -19.685156 -28.123375 C -19.638281 -28.135094 -19.560156 -28.158531 -19.513281 -28.17025 C -19.466406 -28.181969 -19.392187 -28.2015 -19.341406 -28.213219 C -19.294531 -28.224938 -19.220312 -28.240563 -19.173437 -28.252281 C -19.126562 -28.260094 -19.048437 -28.275719 -19.001562 -28.283531 C -18.954687 -28.291344 -18.880469 -28.299156 -18.833594 -28.306969 C -18.782812 -28.314781 -18.708594 -28.322594 -18.661719 -28.3265 C -18.614844 -28.330406 -18.536719 -28.334313 -18.489844 -28.338219 C -18.442969 -28.342125 -18.36875 -28.342125 -18.321875 -28.346031 C -18.275 -28.346031 -18.196875 -28.346031 -18.15 -28.346031 C -18.103125 -28.346031 -18.028906 -28.342125 -17.978125 -28.338219 C -17.93125 -28.338219 -17.857031 -28.330406 -17.810156 -28.3265 C -17.763281 -28.322594 -17.685156 -28.314781 -17.638281 -28.310875 C -17.591406 -28.303063 -17.517187 -28.291344 -17.470312 -28.283531 C -17.419531 -28.279625 -17.345312 -28.264 -17.298437 -28.256188 C -17.251562 -28.244469 -17.173437 -28.228844 -17.126562 -28.217125 C -17.079687 -28.209313 -17.005469 -28.189781 -16.958594 -28.178063 C -16.911719 -28.166344 -16.833594 -28.142906 -16.786719 -28.127281 C -16.739844 -28.115563 -16.661719 -28.092125 -16.614844 -28.0765 C -16.567969 -28.056969 -16.49375 -28.029625 -16.446875 -28.014 C -16.4 -27.994469 -16.321875 -27.967125 -16.275 -27.947594 C -16.228125 -27.928063 -16.153906 -27.896813 -16.107031 -27.873375 C -16.05625 -27.853844 -15.982031 -27.818688 -15.935156 -27.79525 C -15.888281 -27.771813 -15.810156 -27.736656 -15.763281 -27.713219 C -15.716406 -27.685875 -15.642187 -27.646813 -15.595312 -27.619469 C -15.548437 -27.596031 -15.470312 -27.553063 -15.423437 -27.525719 C -15.376562 -27.498375 -15.298437 -27.4515 -15.251562 -27.42025 C -15.204687 -27.392906 -15.130469 -27.346031 -15.083594 -27.314781 C -15.036719 -27.283531 -14.958594 -27.23275 -14.911719 -27.197594 C -14.864844 -27.166344 -14.790625 -27.111656 -14.739844 -27.080406 C -14.692969 -27.04525 -14.61875 -26.990563 -14.571875 -26.955406 C -14.525 -26.92025 -14.446875 -26.85775 -14.4 -26.822594 C -14.353125 -26.783531 -14.278906 -26.721031 -14.232031 -26.681969 C -14.18125 -26.642906 -14.107031 -26.580406 -14.060156 -26.541344 C -14.013281 -26.498375 -13.935156 -26.431969 -13.888281 -26.389 C -13.841406 -26.349938 -13.767187 -26.279625 -13.720312 -26.236656 C -13.673437 -26.193688 -13.595312 -26.119469 -13.548437 -26.0765 C -13.501562 -26.029625 -13.427344 -25.955406 -13.376562 -25.908531 C -13.329687 -25.861656 -13.255469 -25.787438 -13.208594 -25.736656 C -13.161719 -25.689781 -13.083594 -25.611656 -13.036719 -25.560875 C -12.989844 -25.510094 -12.915625 -25.428063 -12.86875 -25.377281 C -12.817969 -25.3265 -12.74375 -25.244469 -12.696875 -25.189781 C -12.65 -25.135094 -12.571875 -25.049156 -12.525 -24.994469 C -12.478125 -24.943688 -12.403906 -24.853844 -12.357031 -24.799156 C -12.310156 -24.740563 -12.232031 -24.650719 -12.185156 -24.592125 C -12.138281 -24.533531 -12.064062 -24.439781 -12.013281 -24.381188 C -11.966406 -24.322594 -11.892187 -24.228844 -11.845312 -24.166344 C -11.798437 -24.10775 -11.720312 -24.010094 -11.673437 -23.947594 C -11.626562 -23.885094 -11.552344 -23.787438 -11.505469 -23.721031 C -11.454687 -23.658531 -11.380469 -23.556969 -11.333594 -23.494469 C -11.286719 -23.428063 -11.208594 -23.322594 -11.161719 -23.256188 C -11.114844 -23.189781 -11.040625 -23.084313 -10.99375 -23.017906 C -10.946875 -22.947594 -10.86875 -22.838219 -10.821875 -22.771813 C -10.775 -22.7015 -10.700781 -22.592125 -10.65 -22.521813 C -10.603125 -22.4515 -10.528906 -22.334313 -10.482031 -22.264 C -10.435156 -22.193688 -10.357031 -22.0765 -10.310156 -22.006188 C -10.263281 -21.931969 -10.189062 -21.814781 -10.142187 -21.740563 C -10.091406 -21.666344 -10.017187 -21.54525 -9.970312 -21.471031 C -9.923437 -21.392906 -9.845312 -21.271813 -9.798437 -21.197594 C -9.751562 -21.119469 -9.677344 -20.994469 -9.630469 -20.916344 C -9.583594 -20.838219 -9.505469 -20.713219 -9.458594 -20.635094 C -9.411719 -20.556969 -9.3375 -20.428063 -9.286719 -20.346031 C -9.239844 -20.267906 -9.165625 -20.135094 -9.11875 -20.056969 C -9.071875 -19.974938 -8.99375 -19.842125 -8.946875 -19.756188 C -8.9 -19.674156 -8.825781 -19.541344 -8.778906 -19.455406 C -8.728125 -19.373375 -8.653906 -19.236656 -8.607031 -19.150719 C -8.560156 -19.068688 -8.482031 -18.928063 -8.435156 -18.842125 C -8.388281 -18.756188 -8.314062 -18.619469 -8.267187 -18.529625 C -8.220312 -18.443688 -8.142187 -18.303063 -8.095312 -18.213219 C -8.048437 -18.123375 -7.970312 -17.98275 -7.923437 -17.892906 C -7.876562 -17.803063 -7.802344 -17.658531 -7.755469 -17.568688 C -7.708594 -17.474938 -7.630469 -17.330406 -7.583594 -17.236656 C -7.536719 -17.146813 -7.4625 -16.998375 -7.415625 -16.904625 C -7.364844 -16.814781 -7.290625 -16.662438 -7.24375 -16.568688 C -7.196875 -16.474938 -7.11875 -16.3265 -7.071875 -16.23275 C -7.025 -16.135094 -6.950781 -15.98275 -6.903906 -15.889 C -6.857031 -15.791344 -6.778906 -15.639 -6.732031 -15.541344 C -6.685156 -15.443688 -6.607031 -15.287438 -6.560156 -15.189781 C -6.513281 -15.092125 -6.439062 -14.935875 -6.392187 -14.838219 C -6.345312 -14.740563 -6.267187 -14.580406 -6.220312 -14.48275 C -6.173437 -14.381188 -6.099219 -14.221031 -6.048437 -14.123375 C -6.001562 -14.021813 -5.927344 -13.861656 -5.880469 -13.760094 C -5.833594 -13.658531 -5.755469 -13.494469 -5.708594 -13.392906 C -5.661719 -13.291344 -5.5875 -13.127281 -5.540625 -13.025719 C -5.489844 -12.924156 -5.415625 -12.756188 -5.36875 -12.654625 C -5.321875 -12.549156 -5.24375 -12.385094 -5.196875 -12.279625 C -5.15 -12.174156 -5.075781 -12.010094 -5.028906 -11.904625 C -4.982031 -11.799156 -4.903906 -11.631188 -4.857031 -11.525719 C -4.810156 -11.42025 -4.735937 -11.248375 -4.685156 -11.142906 C -4.638281 -11.037438 -4.564062 -10.865563 -4.517187 -10.760094 C -4.470312 -10.650719 -4.392187 -10.478844 -4.345312 -10.373375 C -4.298437 -10.264 -4.224219 -10.092125 -4.177344 -9.98275 C -4.126562 -9.877281 -4.052344 -9.7015 -4.005469 -9.592125 C -3.958594 -9.48275 -3.880469 -9.310875 -3.833594 -9.2015 C -3.786719 -9.092125 -3.7125 -8.916344 -3.665625 -8.806969 C -3.61875 -8.697594 -3.540625 -8.517906 -3.49375 -8.408531 C -3.446875 -8.299156 -3.372656 -8.119469 -3.321875 -8.010094 C -3.275 -7.900719 -3.200781 -7.721031 -3.153906 -7.60775 C -3.107031 -7.498375 -3.028906 -7.318688 -2.982031 -7.209313 C -2.935156 -7.096031 -2.860937 -6.916344 -2.814062 -6.803063 C -2.763281 -6.693688 -2.689062 -6.510094 -2.642187 -6.400719 C -2.595312 -6.287438 -2.517187 -6.10775 -2.470312 -5.994469 C -2.423437 -5.881188 -2.349219 -5.697594 -2.302344 -5.584313 C -2.255469 -5.471031 -2.177344 -5.291344 -2.130469 -5.178063 C -2.083594 -5.064781 -2.009375 -4.881188 -1.958594 -4.767906 C -1.911719 -4.650719 -1.8375 -4.471031 -1.790625 -4.353844 C -1.74375 -4.240563 -1.665625 -4.056969 -1.61875 -3.943688 C -1.571875 -3.830406 -1.497656 -3.646813 -1.450781 -3.529625 C -1.4 -3.416344 -1.325781 -3.23275 -1.278906 -3.115563 C -1.232031 -3.002281 -1.153906 -2.818688 -1.107031 -2.7015 C -1.060156 -2.588219 -0.985937 -2.404625 -0.939062 -2.287438 C -0.892187 -2.174156 -0.814062 -1.990563 -0.767187 -1.873375 C -0.720312 -1.756188 -0.646094 -1.572594 -0.595312 -1.455406 C -0.548437 -1.342125 -0.474219 -1.154625 -0.427344 -1.041344 C -0.380469 -0.924156 -0.302344 -0.740563 -0.255469 -0.627281 C -0.208594 -0.510094 -0.134375 -0.322594 -0.0875 -0.209313 C -0.0367187 -0.092125 0.0375 0.0914687 0.084375 0.208656 C 0.13125 0.321937 0.209375 0.509437 0.25625 0.622719 C 0.303125 0.739906 0.377344 0.9235 0.424219 1.040687 C 0.471094 1.153969 0.549219 1.341469 0.596094 1.45475 C 0.642969 1.571937 0.721094 1.755531 0.767969 1.872719 C 0.814844 1.986 0.889063 2.169594 0.935938 2.286781 C 0.982813 2.400062 1.060938 2.587562 1.107813 2.700844 C 1.154688 2.814125 1.228906 3.001625 1.275781 3.114906 C 1.326563 3.228187 1.400781 3.415687 1.447656 3.528969 C 1.494531 3.64225 1.572656 3.825844 1.619531 3.943031 C 1.666406 4.056312 1.740625 4.239906 1.7875 4.353187 C 1.834375 4.466469 1.9125 4.650062 1.959375 4.763344 C 2.00625 4.876625 2.084375 5.060219 2.13125 5.1735 C 2.178125 5.286781 2.252344 5.470375 2.299219 5.583656 C 2.346094 5.696937 2.424219 5.876625 2.471094 5.989906 C 2.517969 6.103187 2.592188 6.282875 2.642969 6.396156 C 2.689844 6.509437 2.764063 6.689125 2.810938 6.802406 C 2.857813 6.915687 2.935938 7.095375 2.982813 7.20475 C 3.029688 7.318031 3.103906 7.497719 3.150781 7.607094 C 3.201563 7.720375 3.275781 7.896156 3.322656 8.009437 C 3.369531 8.118812 3.447656 8.294594 3.494531 8.407875 C 3.541406 8.51725 3.615625 8.693031 3.6625 8.802406 C 3.709375 8.911781 3.7875 9.087562 3.834375 9.196937 C 3.88125 9.306312 3.955469 9.482094 4.00625 9.591469 C 4.053125 9.700844 4.127344 9.872719 4.174219 9.982094 C 4.221094 10.091469 4.299219 10.263344 4.346094 10.368812 C 4.392969 10.478187 4.467188 10.650062 4.514063 10.755531 C 4.564844 10.864906 4.639063 11.032875 4.685938 11.14225 C 4.732813 11.247719 4.810938 11.415687 4.857813 11.521156 C 4.904688 11.626625 4.978906 11.7985 5.025781 11.900062 C 5.072656 12.005531 5.150781 12.1735 5.197656 12.278969 C 5.244531 12.384437 5.31875 12.5485 5.369531 12.653969 C 5.416406 12.755531 5.490625 12.919594 5.5375 13.025062 C 5.584375 13.126625 5.6625 13.290687 5.709375 13.39225 C 5.75625 13.493812 5.830469 13.657875 5.877344 13.759437 C 5.928125 13.861 6.002344 14.021156 6.049219 14.118812 C 6.096094 14.220375 6.174219 14.380531 6.221094 14.478187 C 6.267969 14.57975 6.342188 14.736 6.389063 14.837562 C 6.435938 14.935219 6.514063 15.091469 6.560938 15.189125 C 6.607813 15.286781 6.682031 15.443031 6.732813 15.540687 C 6.779688 15.634437 6.853906 15.790687 6.900781 15.884437 C 6.947656 15.982094 7.025781 16.134437 7.072656 16.228187 C 7.119531 16.321937 7.19375 16.474281 7.240625 16.568031 C 7.291406 16.661781 7.365625 16.810219 7.4125 16.903969 C 7.459375 16.997719 7.5375 17.146156 7.584375 17.236 C 7.63125 17.32975 7.705469 17.474281 7.752344 17.564125 C 7.799219 17.657875 7.877344 17.802406 7.924219 17.89225 C 7.971094 17.982094 8.045313 18.122719 8.096094 18.212562 C 8.142969 18.302406 8.217188 18.443031 8.264063 18.528969 C 8.310938 18.614906 8.389063 18.755531 8.435938 18.841469 C 8.482813 18.927406 8.557031 19.064125 8.603906 19.150062 C 8.654688 19.236 8.728906 19.372719 8.775781 19.45475 C 8.822656 19.540687 8.900781 19.6735 8.947656 19.755531 C 8.994531 19.837562 9.06875 19.970375 9.115625 20.052406 C 9.1625 20.134437 9.240625 20.263344 9.2875 20.345375 C 9.334375 20.427406 9.4125 20.552406 9.459375 20.634437 C 9.50625 20.712562 9.580469 20.837562 9.627344 20.915687 C 9.674219 20.993812 9.752344 21.118812 9.799219 21.193031 C 9.846094 21.271156 9.920313 21.39225 9.967188 21.470375 C 10.017969 21.544594 10.092188 21.665687 10.139063 21.739906 C 10.185938 21.814125 10.264063 21.931312 10.310938 22.005531 C 10.357813 22.075844 10.432031 22.193031 10.478906 22.263344 C 10.525781 22.333656 10.603906 22.446937 10.650781 22.51725 C 10.697656 22.587562 10.775781 22.700844 10.822656 22.771156 C 10.869531 22.837562 10.94375 22.946937 10.990625 23.013344 C 11.0375 23.083656 11.115625 23.189125 11.1625 23.255531 C 11.209375 23.321937 11.283594 23.427406 11.334375 23.489906 C 11.38125 23.556312 11.455469 23.657875 11.502344 23.720375 C 11.549219 23.782875 11.627344 23.884437 11.674219 23.946937 C 11.721094 24.009437 11.795313 24.107094 11.842188 24.165687 C 11.892969 24.228187 11.967188 24.321937 12.014063 24.380531 C 12.060938 24.439125 12.139063 24.532875 12.185938 24.591469 C 12.232813 24.650062 12.307031 24.739906 12.353906 24.7985 C 12.400781 24.853187 12.478906 24.943031 12.525781 24.993812 C 12.572656 25.0485 12.646875 25.134437 12.697656 25.189125 C 12.744531 25.239906 12.81875 25.325844 12.865625 25.376625 C 12.9125 25.427406 12.990625 25.509437 13.0375 25.560219 C 13.084375 25.611 13.158594 25.689125 13.205469 25.736 C 13.25625 25.786781 13.330469 25.861 13.377344 25.907875 C 13.424219 25.95475 13.502344 26.028969 13.549219 26.075844 C 13.596094 26.118812 13.670313 26.193031 13.717188 26.236 C 13.764063 26.278969 13.842188 26.349281 13.889063 26.388344 C 13.935938 26.431312 14.010156 26.497719 14.060938 26.540687 C 14.107813 26.57975 14.182031 26.64225 14.228906 26.681312 C 14.275781 26.720375 14.353906 26.782875 14.400781 26.821937 C 14.447656 26.857094 14.521875 26.915687 14.56875 26.950844 C 14.619531 26.989906 14.69375 27.044594 14.740625 27.07975 C 14.7875 27.111 14.865625 27.165687 14.9125 27.196937 C 14.959375 27.232094 15.033594 27.282875 15.080469 27.314125 C 15.127344 27.345375 15.205469 27.39225 15.252344 27.419594 C 15.299219 27.450844 15.373438 27.497719 15.424219 27.525062 C 15.471094 27.552406 15.545313 27.595375 15.592188 27.622719 C 15.639063 27.646156 15.717188 27.685219 15.764063 27.712562 C 15.810938 27.736 15.885156 27.771156 15.932031 27.794594 C 15.982813 27.818031 16.057031 27.853187 16.103906 27.872719 C 16.150781 27.896156 16.228906 27.927406 16.275781 27.946937 C 16.322656 27.966469 16.396875 27.993812 16.44375 28.013344 C 16.490625 28.032875 16.56875 28.060219 16.615625 28.075844 C 16.6625 28.091469 16.736719 28.114906 16.7875 28.130531 C 16.834375 28.14225 16.908594 28.165687 16.955469 28.177406 C 17.002344 28.189125 17.080469 28.208656 17.127344 28.220375 C 17.174219 28.228187 17.248438 28.243812 17.295313 28.255531 C 17.346094 28.263344 17.420313 28.278969 17.467188 28.286781 C 17.514063 28.294594 17.592188 28.302406 17.639063 28.310219 C 17.685938 28.314125 17.760156 28.321937 17.807031 28.325844 C 17.853906 28.333656 17.932031 28.337562 17.978906 28.337562 C 18.025781 28.341469 18.103906 28.345375 18.150781 28.345375 C 18.197656 28.345375 18.271875 28.345375 18.31875 28.345375 C 18.365625 28.345375 18.44375 28.341469 18.490625 28.337562 C 18.5375 28.333656 18.611719 28.32975 18.658594 28.325844 C 18.709375 28.321937 18.783594 28.314125 18.830469 28.306312 C 18.877344 28.302406 18.955469 28.290687 19.002344 28.282875 C 19.049219 28.275062 19.123438 28.259437 19.170313 28.251625 C 19.217188 28.239906 19.295313 28.224281 19.342188 28.212562 C 19.389063 28.200844 19.467188 28.181312 19.514063 28.169594 C 19.560938 28.157875 19.635156 28.134437 19.682031 28.122719 C 19.728906 28.107094 19.807031 28.083656 19.853906 28.068031 C 19.900781 28.0485 19.975 28.021156 20.025781 28.005531 C 20.072656 27.986 20.146875 27.958656 20.19375 27.939125 C 20.240625 27.919594 20.31875 27.884437 20.365625 27.864906 C 20.4125 27.841469 20.486719 27.806312 20.533594 27.782875 C 20.584375 27.763344 20.658594 27.724281 20.705469 27.696937 C 20.752344 27.6735 20.830469 27.634437 20.877344 27.607094 C 20.924219 27.583656 20.998438 27.540687 21.045313 27.509437 C 21.092188 27.482094 21.170313 27.435219 21.217188 27.407875 C 21.264063 27.376625 21.338281 27.32975 21.389063 27.2985 C 21.435938 27.26725 21.510156 27.216469 21.557031 27.181312 C 21.603906 27.150062 21.682031 27.095375 21.728906 27.060219 C 21.775781 27.028969 21.85 26.970375 21.896875 26.935219 C 21.947656 26.900062 22.021875 26.841469 22.06875 26.802406 C 22.115625 26.76725 22.19375 26.70475 22.240625 26.665687 C 22.2875 26.626625 22.361719 26.560219 22.408594 26.521156 C 22.455469 26.478187 22.533594 26.411781 22.580469 26.368812 C 22.627344 26.325844 22.701563 26.255531 22.752344 26.212562 C 22.799219 26.169594 22.873438 26.099281 22.920313 26.052406 C 22.967188 26.009437 23.045313 25.931312 23.092188 25.884437 C 23.139063 25.837562 23.213281 25.763344 23.260156 25.712562 C 23.310938 25.665687 23.385156 25.583656 23.432031 25.536781 C 23.478906 25.486 23.557031 25.403969 23.603906 25.353187 C 23.650781 25.2985 23.725 25.216469 23.771875 25.161781 C 23.81875 25.111 23.896875 25.025062 23.94375 24.970375 C 23.990625 24.915687 24.064844 24.825844 24.115625 24.771156 C 24.1625 24.712562 24.236719 24.622719 24.283594 24.564125 C 24.330469 24.505531 24.408594 24.411781 24.455469 24.353187 C 24.502344 24.294594 24.576563 24.196937 24.623438 24.138344 C 24.674219 24.075844 24.748438 23.978187 24.795313 23.915687 C 24.842188 23.853187 24.920313 23.751625 24.967188 23.689125 C 25.014063 23.626625 25.088281 23.525062 25.135156 23.458656 C 25.182031 23.396156 25.260156 23.290687 25.307031 23.224281 C 25.353906 23.157875 25.428125 23.0485 25.478906 22.982094 C 25.525781 22.915687 25.6 22.806312 25.646875 22.736 C 25.69375 22.665687 25.771875 22.556312 25.81875 22.486 C 25.865625 22.415687 25.939844 22.2985 25.986719 22.228187 C 26.0375 22.157875 26.111719 22.040687 26.158594 21.966469 C 26.205469 21.896156 26.283594 21.775062 26.330469 21.700844 C 26.377344 21.626625 26.451563 21.509437 26.498438 21.431312 C 26.545313 21.357094 26.623438 21.236 26.670313 21.157875 C 26.717188 21.07975 26.795313 20.95475 26.842188 20.876625 C 26.889063 20.7985 26.963281 20.6735 27.010156 20.595375 C 27.057031 20.513344 27.135156 20.388344 27.182031 20.306312 C 27.228906 20.224281 27.303125 20.095375 27.353906 20.013344 C 27.400781 19.931312 27.475 19.7985 27.521875 19.716469 C 27.56875 19.634437 27.646875 19.497719 27.69375 19.415687 C 27.740625 19.32975 27.814844 19.193031 27.861719 19.111 C 27.908594 19.025062 27.986719 18.884437 28.033594 18.7985 C 28.080469 18.712562 28.158594 18.571937 28.205469 18.486 C 28.252344 18.400062 28.326563 18.255531 28.373438 18.169594 C 28.420313 18.07975 28.498438 17.935219 28.545313 17.845375 C 28.592188 17.755531 28.666406 17.611 28.717188 17.521156 C 28.764063 17.431312 28.838281 17.282875 28.885156 17.193031 C 28.932031 17.099281 29.010156 16.950844 29.057031 16.857094 C 29.103906 16.76725 29.178125 16.614906 29.225 16.521156 C 29.275781 16.427406 29.35 16.278969 29.396875 16.181312 C 29.44375 16.087562 29.521875 15.935219 29.56875 15.837562 C 29.615625 15.743812 29.689844 15.587562 29.736719 15.489906 C 29.783594 15.396156 29.861719 15.239906 29.908594 15.14225 C 29.955469 15.044594 30.029688 14.884437 30.080469 14.786781 C 30.127344 14.689125 30.201563 14.528969 30.248438 14.431312 C 30.295313 14.333656 30.373438 14.1735 30.420313 14.071937 C 30.467188 13.970375 30.541406 13.810219 30.588281 13.708656 C 30.639063 13.607094 30.713281 13.443031 30.760156 13.341469 C 30.807031 13.239906 30.885156 13.075844 30.932031 12.974281 C 30.978906 12.872719 31.053125 12.70475 31.1 12.603187 C 31.146875 12.497719 31.225 12.32975 31.271875 12.228187 C 31.31875 12.122719 31.392969 11.95475 31.44375 11.849281 C 31.490625 11.743812 31.564844 11.575844 31.611719 11.470375 C 31.658594 11.364906 31.736719 11.196937 31.783594 11.087562 C 31.830469 10.982094 31.904688 10.810219 31.951563 10.70475 C 32.002344 10.595375 32.076563 10.4235 32.123438 10.318031 C 32.170313 10.208656 32.248438 10.036781 32.295313 9.927406 C 32.342188 9.821937 32.416406 9.646156 32.463281 9.536781 C 32.510156 9.427406 32.588281 9.255531 32.635156 9.146156 C 32.682031 9.036781 32.75625 8.861 32.807031 8.751625 C 32.853906 8.638344 32.928125 8.462562 32.975 8.353187 C 33.021875 8.243812 33.1 8.064125 33.146875 7.95475 C 33.19375 7.841469 33.267969 7.665687 33.314844 7.552406 C 33.365625 7.443031 33.439844 7.263344 33.486719 7.150062 C 33.533594 7.040687 33.611719 6.861 33.658594 6.747719 C 33.705469 6.634437 33.779688 6.45475 33.826563 6.341469 C 33.873438 6.228187 33.951563 6.0485 33.998438 5.935219 C 34.045313 5.821937 34.119531 5.64225 34.170313 5.528969 C 34.217188 5.415687 34.291406 5.232094 34.338281 5.118812 C 34.385156 5.005531 34.463281 4.821937 34.510156 4.708656 C 34.557031 4.595375 34.63125 4.411781 34.678125 4.2985 C 34.728906 4.181312 34.803125 4.001625 34.85 3.884437 C 34.896875 3.771156 34.975 3.587562 35.021875 3.474281 C 35.06875 3.357094 35.142969 3.1735 35.189844 3.060219 C 35.236719 2.943031 35.314844 2.759437 35.361719 2.646156 C 35.408594 2.528969 35.486719 2.345375 35.533594 2.228187 C 35.580469 2.114906 35.654688 1.931312 35.701563 1.814125 C 35.748438 1.700844 35.826563 1.513344 35.873438 1.400062 C 35.920313 1.282875 35.994531 1.099281 36.045313 0.982094 C 36.092188 0.868812 36.166406 0.681312 36.213281 0.568031 C 36.260156 0.450844 36.338281 0.26725 36.385156 0.150062 C 36.432031 0.0367812 36.50625 -0.150719 36.553125 -0.264 C 36.6 -0.381188 36.678125 -0.564781 36.725 -0.681969 C 36.771875 -0.79525 36.85 -0.98275 36.896875 -1.096031 C 36.94375 -1.213219 37.017969 -1.396813 37.064844 -1.514 C 37.111719 -1.631188 37.189844 -1.814781 37.236719 -1.928063 C 37.283594 -2.04525 37.357813 -2.228844 37.408594 -2.346031 C 37.455469 -2.459313 37.529688 -2.642906 37.576563 -2.760094 C 37.623438 -2.873375 37.701563 -3.056969 37.748438 -3.174156 C 37.795313 -3.287438 37.869531 -3.471031 37.916406 -3.588219 C 37.967188 -3.7015 38.041406 -3.885094 38.088281 -3.998375 C 38.135156 -4.115563 38.213281 -4.29525 38.260156 -4.412438 C 38.307031 -4.525719 38.38125 -4.709313 38.428125 -4.822594 C 38.475 -4.935875 38.553125 -5.119469 38.6 -5.23275 C 38.646875 -5.346031 38.721094 -5.525719 38.771875 -5.639 C 38.81875 -5.752281 38.892969 -5.935875 38.939844 -6.049156 C 38.986719 -6.162438 39.064844 -6.342125 39.111719 -6.455406 C 39.158594 -6.568688 39.232813 -6.748375 39.279688 -6.85775 C 39.330469 -6.971031 39.404688 -7.150719 39.451563 -7.264 C 39.498438 -7.373375 39.576563 -7.553063 39.623438 -7.662438 C 39.670313 -7.775719 39.744531 -7.9515 39.791406 -8.064781 C 39.838281 -8.174156 39.916406 -8.349938 39.963281 -8.463219 C 40.010156 -8.572594 40.084375 -8.748375 40.135156 -8.85775 C 40.182031 -8.967125 40.25625 -9.142906 40.303125 -9.252281 C 40.35 -9.361656 40.428125 -9.537438 40.475 -9.646813 C 40.521875 -9.756188 40.596094 -9.928063 40.642969 -10.037438 C 40.69375 -10.142906 40.767969 -10.318688 40.814844 -10.424156 C 40.861719 -10.533531 40.939844 -10.705406 40.986719 -10.810875 C 41.033594 -10.916344 41.107813 -11.088219 41.154688 -11.193688 C 41.201563 -11.299156 41.279688 -11.471031 41.326563 -11.5765 C 41.373438 -11.681969 41.447656 -11.849938 41.498438 -11.955406 C 41.545313 -12.060875 41.619531 -12.224938 41.666406 -12.330406 C 41.713281 -12.435875 41.791406 -12.599938 41.838281 -12.705406 C 41.885156 -12.806969 41.959375 -12.974938 42.00625 -13.0765 C 42.057031 -13.178063 42.13125 -13.342125 42.178125 -13.443688 C 42.225 -13.54525 42.303125 -13.709313 42.35 -13.810875 C 42.396875 -13.908531 42.517969 -14.17025 42.517969 -14.17025 " transform="matrix(1, 0, 0, -1, 53.15, 60.236)"/>
<path fill="none" stroke-width="1.59404" stroke-linecap="butt" stroke-linejoin="miter" stroke="rgb(50%, 50%, 50%)" stroke-opacity="1" stroke-miterlimit="10" d="M -42.521094 -24.549156 C -42.521094 -24.549156 -42.396094 -24.697594 -42.349219 -24.752281 C -42.302344 -24.810875 -42.228125 -24.900719 -42.18125 -24.955406 C -42.130469 -25.010094 -42.05625 -25.096031 -42.009375 -25.146813 C -41.9625 -25.2015 -41.884375 -25.287438 -41.8375 -25.338219 C -41.790625 -25.389 -41.716406 -25.471031 -41.669531 -25.521813 C -41.622656 -25.572594 -41.544531 -25.650719 -41.497656 -25.7015 C -41.450781 -25.748375 -41.372656 -25.8265 -41.325781 -25.873375 C -41.278906 -25.92025 -41.204687 -25.994469 -41.157812 -26.041344 C -41.110937 -26.084313 -41.032812 -26.158531 -40.985937 -26.2015 C -40.939062 -26.244469 -40.864844 -26.314781 -40.814062 -26.35775 C -40.767187 -26.400719 -40.692969 -26.467125 -40.646094 -26.506188 C -40.599219 -26.549156 -40.521094 -26.615563 -40.474219 -26.654625 C -40.427344 -26.693688 -40.353125 -26.756188 -40.30625 -26.791344 C -40.259375 -26.830406 -40.18125 -26.889 -40.134375 -26.924156 C -40.0875 -26.959313 -40.009375 -27.017906 -39.9625 -27.053063 C -39.915625 -27.084313 -39.841406 -27.139 -39.794531 -27.174156 C -39.747656 -27.205406 -39.669531 -27.256188 -39.622656 -27.287438 C -39.575781 -27.318688 -39.501562 -27.369469 -39.450781 -27.400719 C -39.403906 -27.428063 -39.329687 -27.474938 -39.282812 -27.502281 C -39.235937 -27.529625 -39.157812 -27.572594 -39.110937 -27.599938 C -39.064062 -27.627281 -38.989844 -27.666344 -38.942969 -27.693688 C -38.892187 -27.717125 -38.817969 -27.756188 -38.771094 -27.779625 C -38.724219 -27.799156 -38.646094 -27.838219 -38.599219 -27.85775 C -38.552344 -27.881188 -38.478125 -27.912438 -38.43125 -27.931969 C -38.384375 -27.9515 -38.30625 -27.98275 -38.259375 -28.002281 C -38.2125 -28.017906 -38.138281 -28.04525 -38.0875 -28.060875 C -38.040625 -28.0765 -37.966406 -28.103844 -37.919531 -28.119469 C -37.872656 -28.131188 -37.794531 -28.154625 -37.747656 -28.166344 C -37.700781 -28.178063 -37.626562 -28.197594 -37.579687 -28.209313 C -37.528906 -28.221031 -37.454687 -28.236656 -37.407812 -28.248375 C -37.360937 -28.256188 -37.282812 -28.271813 -37.235937 -28.279625 C -37.189062 -28.287438 -37.114844 -28.299156 -37.067969 -28.306969 C -37.021094 -28.310875 -36.942969 -28.318688 -36.896094 -28.322594 C -36.849219 -28.3265 -36.775 -28.334313 -36.724219 -28.338219 C -36.677344 -28.338219 -36.603125 -28.342125 -36.55625 -28.346031 C -36.509375 -28.346031 -36.43125 -28.346031 -36.384375 -28.346031 C -36.3375 -28.346031 -36.263281 -28.342125 -36.216406 -28.342125 C -36.165625 -28.338219 -36.091406 -28.334313 -36.044531 -28.330406 C -35.997656 -28.3265 -35.919531 -28.318688 -35.872656 -28.310875 C -35.825781 -28.306969 -35.751562 -28.29525 -35.704687 -28.287438 C -35.657812 -28.279625 -35.579687 -28.267906 -35.532812 -28.256188 C -35.485937 -28.248375 -35.411719 -28.23275 -35.360937 -28.221031 C -35.314062 -28.209313 -35.239844 -28.193688 -35.192969 -28.181969 C -35.146094 -28.166344 -35.067969 -28.146813 -35.021094 -28.131188 C -34.974219 -28.119469 -34.9 -28.096031 -34.853125 -28.080406 C -34.802344 -28.060875 -34.728125 -28.037438 -34.68125 -28.017906 C -34.634375 -28.002281 -34.55625 -27.971031 -34.509375 -27.9515 C -34.4625 -27.931969 -34.388281 -27.900719 -34.341406 -27.881188 C -34.294531 -27.85775 -34.216406 -27.822594 -34.169531 -27.803063 C -34.122656 -27.779625 -34.044531 -27.740563 -33.997656 -27.717125 C -33.950781 -27.693688 -33.876562 -27.654625 -33.829687 -27.627281 C -33.782812 -27.603844 -33.704687 -27.560875 -33.657812 -27.529625 C -33.610937 -27.502281 -33.536719 -27.459313 -33.489844 -27.428063 C -33.439062 -27.400719 -33.364844 -27.349938 -33.317969 -27.322594 C -33.271094 -27.291344 -33.192969 -27.240563 -33.146094 -27.205406 C -33.099219 -27.174156 -33.025 -27.123375 -32.978125 -27.088219 C -32.93125 -27.053063 -32.853125 -26.998375 -32.80625 -26.963219 C -32.759375 -26.928063 -32.68125 -26.869469 -32.634375 -26.830406 C -32.5875 -26.79525 -32.513281 -26.73275 -32.466406 -26.693688 C -32.419531 -26.654625 -32.341406 -26.592125 -32.294531 -26.549156 C -32.247656 -26.510094 -32.173437 -26.443688 -32.122656 -26.400719 C -32.075781 -26.361656 -32.001562 -26.291344 -31.954687 -26.248375 C -31.907812 -26.205406 -31.829687 -26.131188 -31.782812 -26.088219 C -31.735937 -26.041344 -31.661719 -25.967125 -31.614844 -25.92025 C -31.567969 -25.873375 -31.489844 -25.799156 -31.442969 -25.748375 C -31.396094 -25.7015 -31.317969 -25.623375 -31.271094 -25.572594 C -31.224219 -25.521813 -31.15 -25.443688 -31.103125 -25.389 C -31.05625 -25.338219 -30.978125 -25.256188 -30.93125 -25.2015 C -30.884375 -25.150719 -30.810156 -25.064781 -30.759375 -25.010094 C -30.7125 -24.955406 -30.638281 -24.869469 -30.591406 -24.810875 C -30.544531 -24.756188 -30.466406 -24.666344 -30.419531 -24.60775 C -30.372656 -24.549156 -30.298437 -24.455406 -30.251562 -24.396813 C -30.200781 -24.338219 -30.126562 -24.244469 -30.079687 -24.181969 C -30.032812 -24.123375 -29.954687 -24.025719 -29.907812 -23.963219 C -29.860937 -23.900719 -29.786719 -23.803063 -29.739844 -23.740563 C -29.692969 -23.674156 -29.614844 -23.572594 -29.567969 -23.510094 C -29.521094 -23.443688 -29.446875 -23.338219 -29.396094 -23.271813 C -29.349219 -23.209313 -29.275 -23.099938 -29.228125 -23.033531 C -29.18125 -22.967125 -29.103125 -22.85775 -29.05625 -22.787438 C -29.009375 -22.721031 -28.935156 -22.60775 -28.888281 -22.537438 C -28.8375 -22.467125 -28.763281 -22.353844 -28.716406 -22.283531 C -28.669531 -22.213219 -28.591406 -22.096031 -28.544531 -22.025719 C -28.497656 -21.9515 -28.423437 -21.834313 -28.376562 -21.760094 C -28.329687 -21.685875 -28.251562 -21.564781 -28.204687 -21.490563 C -28.157812 -21.412438 -28.083594 -21.291344 -28.032812 -21.213219 C -27.985937 -21.139 -27.911719 -21.014 -27.864844 -20.935875 C -27.817969 -20.85775 -27.739844 -20.73275 -27.692969 -20.654625 C -27.646094 -20.5765 -27.571875 -20.447594 -27.525 -20.365563 C -27.474219 -20.287438 -27.4 -20.158531 -27.353125 -20.0765 C -27.30625 -19.994469 -27.228125 -19.861656 -27.18125 -19.779625 C -27.134375 -19.697594 -27.060156 -19.560875 -27.013281 -19.478844 C -26.966406 -19.392906 -26.888281 -19.260094 -26.841406 -19.174156 C -26.794531 -19.088219 -26.720312 -18.9515 -26.669531 -18.865563 C -26.622656 -18.779625 -26.548437 -18.639 -26.501562 -18.553063 C -26.454687 -18.463219 -26.376562 -18.3265 -26.329687 -18.236656 C -26.282812 -18.146813 -26.208594 -18.006188 -26.161719 -17.916344 C -26.110937 -17.8265 -26.036719 -17.681969 -25.989844 -17.588219 C -25.942969 -17.498375 -25.864844 -17.353844 -25.817969 -17.260094 C -25.771094 -17.17025 -25.696875 -17.021813 -25.65 -16.928063 C -25.603125 -16.838219 -25.525 -16.685875 -25.478125 -16.592125 C -25.43125 -16.498375 -25.353125 -16.349938 -25.30625 -16.256188 C -25.259375 -16.158531 -25.185156 -16.006188 -25.138281 -15.912438 C -25.091406 -15.814781 -25.013281 -15.662438 -24.966406 -15.564781 C -24.919531 -15.467125 -24.845312 -15.314781 -24.798437 -15.217125 C -24.747656 -15.119469 -24.673437 -14.959313 -24.626562 -14.861656 C -24.579687 -14.764 -24.501562 -14.60775 -24.454687 -14.506188 C -24.407812 -14.408531 -24.333594 -14.248375 -24.286719 -14.146813 C -24.239844 -14.049156 -24.161719 -13.885094 -24.114844 -13.783531 C -24.067969 -13.685875 -23.989844 -13.521813 -23.942969 -13.42025 C -23.896094 -13.318688 -23.821875 -13.154625 -23.775 -13.053063 C -23.728125 -12.947594 -23.65 -12.783531 -23.603125 -12.681969 C -23.55625 -12.5765 -23.482031 -12.412438 -23.43125 -12.306969 C -23.384375 -12.2015 -23.310156 -12.033531 -23.263281 -11.931969 C -23.216406 -11.8265 -23.138281 -11.658531 -23.091406 -11.553063 C -23.044531 -11.447594 -22.970312 -11.275719 -22.923437 -11.17025 C -22.876562 -11.064781 -22.798437 -10.892906 -22.751562 -10.787438 C -22.704687 -10.678063 -22.626562 -10.506188 -22.579687 -10.400719 C -22.532812 -10.291344 -22.458594 -10.119469 -22.411719 -10.010094 C -22.364844 -9.904625 -22.286719 -9.728844 -22.239844 -9.619469 C -22.192969 -9.514 -22.11875 -9.338219 -22.067969 -9.228844 C -22.021094 -9.119469 -21.946875 -8.943688 -21.9 -8.834313 C -21.853125 -8.724938 -21.775 -8.54525 -21.728125 -8.435875 C -21.68125 -8.3265 -21.607031 -8.146813 -21.560156 -8.037438 C -21.509375 -7.928063 -21.435156 -7.748375 -21.388281 -7.639 C -21.341406 -7.525719 -21.263281 -7.346031 -21.216406 -7.236656 C -21.169531 -7.123375 -21.095312 -6.943688 -21.048437 -6.834313 C -21.001562 -6.721031 -20.923437 -6.541344 -20.876562 -6.428063 C -20.829687 -6.314781 -20.755469 -6.135094 -20.704687 -6.021813 C -20.657812 -5.908531 -20.583594 -5.728844 -20.536719 -5.615563 C -20.489844 -5.502281 -20.411719 -5.318688 -20.364844 -5.205406 C -20.317969 -5.092125 -20.24375 -4.908531 -20.196875 -4.79525 C -20.146094 -4.681969 -20.071875 -4.498375 -20.025 -4.385094 C -19.978125 -4.271813 -19.9 -4.088219 -19.853125 -3.971031 C -19.80625 -3.85775 -19.732031 -3.674156 -19.685156 -3.560875 C -19.638281 -3.443688 -19.560156 -3.260094 -19.513281 -3.146813 C -19.466406 -3.029625 -19.392187 -2.846031 -19.341406 -2.73275 C -19.294531 -2.615563 -19.220312 -2.431969 -19.173437 -2.318688 C -19.126562 -2.2015 -19.048437 -2.017906 -19.001562 -1.904625 C -18.954687 -1.787438 -18.880469 -1.603844 -18.833594 -1.486656 C -18.782812 -1.369469 -18.708594 -1.185875 -18.661719 -1.068688 C -18.614844 -0.955406 -18.536719 -0.771813 -18.489844 -0.654625 C -18.442969 -0.537438 -18.36875 -0.353844 -18.321875 -0.236656 C -18.275 -0.123375 -18.196875 0.064125 -18.15 0.177406 C -18.103125 0.294594 -18.028906 0.478187 -17.978125 0.595375 C -17.93125 0.708656 -17.857031 0.896156 -17.810156 1.009437 C -17.763281 1.126625 -17.685156 1.310219 -17.638281 1.427406 C -17.591406 1.540687 -17.517187 1.728187 -17.470312 1.841469 C -17.419531 1.958656 -17.345312 2.14225 -17.298437 2.255531 C -17.251562 2.372719 -17.173437 2.556312 -17.126562 2.6735 C -17.079687 2.786781 -17.005469 2.970375 -16.958594 3.087562 C -16.911719 3.200844 -16.833594 3.384437 -16.786719 3.501625 C -16.739844 3.614906 -16.661719 3.7985 -16.614844 3.911781 C -16.567969 4.028969 -16.49375 4.208656 -16.446875 4.325844 C -16.4 4.439125 -16.321875 4.622719 -16.275 4.736 C -16.228125 4.849281 -16.153906 5.032875 -16.107031 5.146156 C -16.05625 5.259437 -15.982031 5.443031 -15.935156 5.556312 C -15.888281 5.669594 -15.810156 5.849281 -15.763281 5.962562 C -15.716406 6.075844 -15.642187 6.255531 -15.595312 6.368812 C -15.548437 6.482094 -15.470312 6.661781 -15.423437 6.775062 C -15.376562 6.884437 -15.298437 7.064125 -15.251562 7.177406 C -15.204687 7.290687 -15.130469 7.466469 -15.083594 7.57975 C -15.036719 7.689125 -14.958594 7.868812 -14.911719 7.978187 C -14.864844 8.091469 -14.790625 8.26725 -14.739844 8.380531 C -14.692969 8.489906 -14.61875 8.665687 -14.571875 8.775062 C -14.525 8.884437 -14.446875 9.060219 -14.4 9.169594 C -14.353125 9.278969 -14.278906 9.45475 -14.232031 9.564125 C -14.18125 9.6735 -14.107031 9.845375 -14.060156 9.95475 C -14.013281 10.060219 -13.935156 10.236 -13.888281 10.341469 C -13.841406 10.450844 -13.767187 10.622719 -13.720312 10.728187 C -13.673437 10.837562 -13.595312 11.009437 -13.548437 11.114906 C -13.501562 11.220375 -13.427344 11.388344 -13.376562 11.493812 C -13.329687 11.599281 -13.255469 11.771156 -13.208594 11.876625 C -13.161719 11.982094 -13.083594 12.146156 -13.036719 12.251625 C -12.989844 12.357094 -12.915625 12.521156 -12.86875 12.626625 C -12.817969 12.728187 -12.74375 12.896156 -12.696875 12.997719 C -12.65 13.099281 -12.571875 13.263344 -12.525 13.364906 C -12.478125 13.466469 -12.403906 13.630531 -12.357031 13.732094 C -12.310156 13.833656 -12.232031 13.993812 -12.185156 14.095375 C -12.138281 14.196937 -12.064062 14.357094 -12.013281 14.45475 C -11.966406 14.552406 -11.892187 14.712562 -11.845312 14.810219 C -11.798437 14.907875 -11.720312 15.068031 -11.673437 15.165687 C -11.626562 15.263344 -11.552344 15.419594 -11.505469 15.513344 C -11.454687 15.611 -11.380469 15.76725 -11.333594 15.861 C -11.286719 15.958656 -11.208594 16.111 -11.161719 16.20475 C -11.114844 16.2985 -11.040625 16.450844 -10.99375 16.544594 C -10.946875 16.638344 -10.86875 16.786781 -10.821875 16.880531 C -10.775 16.974281 -10.700781 17.122719 -10.65 17.212562 C -10.603125 17.306312 -10.528906 17.450844 -10.482031 17.540687 C -10.435156 17.634437 -10.357031 17.778969 -10.310156 17.868812 C -10.263281 17.958656 -10.189062 18.099281 -10.142187 18.189125 C -10.091406 18.278969 -10.017187 18.419594 -9.970312 18.505531 C -9.923437 18.595375 -9.845312 18.732094 -9.798437 18.818031 C -9.751562 18.907875 -9.677344 19.044594 -9.630469 19.130531 C -9.583594 19.212562 -9.505469 19.349281 -9.458594 19.435219 C -9.411719 19.51725 -9.3375 19.653969 -9.286719 19.736 C -9.239844 19.818031 -9.165625 19.950844 -9.11875 20.032875 C -9.071875 20.114906 -8.99375 20.243812 -8.946875 20.325844 C -8.9 20.403969 -8.825781 20.532875 -8.778906 20.611 C -8.728125 20.693031 -8.653906 20.818031 -8.607031 20.896156 C -8.560156 20.974281 -8.482031 21.099281 -8.435156 21.1735 C -8.388281 21.251625 -8.314062 21.372719 -8.267187 21.450844 C -8.220312 21.525062 -8.142187 21.646156 -8.095312 21.720375 C -8.048437 21.794594 -7.970312 21.911781 -7.923437 21.986 C -7.876562 22.056312 -7.802344 22.1735 -7.755469 22.243812 C -7.708594 22.318031 -7.630469 22.431312 -7.583594 22.501625 C -7.536719 22.571937 -7.4625 22.681312 -7.415625 22.751625 C -7.364844 22.821937 -7.290625 22.931312 -7.24375 22.997719 C -7.196875 23.064125 -7.11875 23.1735 -7.071875 23.239906 C -7.025 23.306312 -6.950781 23.411781 -6.903906 23.474281 C -6.857031 23.540687 -6.778906 23.64225 -6.732031 23.70475 C -6.685156 23.76725 -6.607031 23.868812 -6.560156 23.931312 C -6.513281 23.993812 -6.439062 24.091469 -6.392187 24.150062 C -6.345312 24.212562 -6.267187 24.306312 -6.220312 24.368812 C -6.173437 24.427406 -6.099219 24.521156 -6.048437 24.575844 C -6.001562 24.634437 -5.927344 24.724281 -5.880469 24.782875 C -5.833594 24.837562 -5.755469 24.927406 -5.708594 24.982094 C -5.661719 25.036781 -5.5875 25.122719 -5.540625 25.1735 C -5.489844 25.228187 -5.415625 25.314125 -5.36875 25.364906 C -5.321875 25.415687 -5.24375 25.497719 -5.196875 25.5485 C -5.15 25.595375 -5.075781 25.677406 -5.028906 25.724281 C -4.982031 25.775062 -4.903906 25.849281 -4.857031 25.896156 C -4.810156 25.943031 -4.735937 26.01725 -4.685156 26.064125 C -4.638281 26.111 -4.564062 26.181312 -4.517187 26.224281 C -4.470312 26.26725 -4.392187 26.337562 -4.345312 26.380531 C -4.298437 26.419594 -4.224219 26.489906 -4.177344 26.528969 C -4.126562 26.568031 -4.052344 26.634437 -4.005469 26.6735 C -3.958594 26.712562 -3.880469 26.775062 -3.833594 26.810219 C -3.786719 26.849281 -3.7125 26.907875 -3.665625 26.943031 C -3.61875 26.978187 -3.540625 27.036781 -3.49375 27.068031 C -3.446875 27.103187 -3.372656 27.157875 -3.321875 27.189125 C -3.275 27.224281 -3.200781 27.275062 -3.153906 27.306312 C -3.107031 27.333656 -3.028906 27.384437 -2.982031 27.415687 C -2.935156 27.443031 -2.860937 27.489906 -2.814062 27.51725 C -2.763281 27.544594 -2.689062 27.587562 -2.642187 27.614906 C -2.595312 27.638344 -2.517187 27.681312 -2.470312 27.70475 C -2.423437 27.728187 -2.349219 27.76725 -2.302344 27.790687 C -2.255469 27.814125 -2.177344 27.849281 -2.130469 27.868812 C -2.083594 27.888344 -2.009375 27.9235 -1.958594 27.943031 C -1.911719 27.962562 -1.8375 27.989906 -1.790625 28.009437 C -1.74375 28.025062 -1.665625 28.056312 -1.61875 28.071937 C -1.571875 28.087562 -1.497656 28.111 -1.450781 28.126625 C -1.4 28.138344 -1.325781 28.161781 -1.278906 28.1735 C -1.232031 28.185219 -1.153906 28.20475 -1.107031 28.216469 C -1.060156 28.228187 -0.985937 28.243812 -0.939062 28.251625 C -0.892187 28.263344 -0.814062 28.275062 -0.767187 28.282875 C -0.720312 28.290687 -0.646094 28.302406 -0.595312 28.310219 C -0.548437 28.314125 -0.474219 28.321937 -0.427344 28.325844 C -0.380469 28.32975 -0.302344 28.337562 -0.255469 28.337562 C -0.208594 28.341469 -0.134375 28.345375 -0.0875 28.345375 C -0.0367187 28.345375 0.0375 28.345375 0.084375 28.345375 C 0.13125 28.345375 0.209375 28.341469 0.25625 28.337562 C 0.303125 28.337562 0.377344 28.32975 0.424219 28.325844 C 0.471094 28.321937 0.549219 28.314125 0.596094 28.310219 C 0.642969 28.302406 0.721094 28.290687 0.767969 28.282875 C 0.814844 28.275062 0.889063 28.263344 0.935938 28.251625 C 0.982813 28.243812 1.060938 28.228187 1.107813 28.216469 C 1.154688 28.20475 1.228906 28.185219 1.275781 28.1735 C 1.326563 28.161781 1.400781 28.138344 1.447656 28.126625 C 1.494531 28.111 1.572656 28.087562 1.619531 28.071937 C 1.666406 28.052406 1.740625 28.028969 1.7875 28.009437 C 1.834375 27.989906 1.9125 27.962562 1.959375 27.943031 C 2.00625 27.9235 2.084375 27.89225 2.13125 27.868812 C 2.178125 27.849281 2.252344 27.814125 2.299219 27.790687 C 2.346094 27.76725 2.424219 27.728187 2.471094 27.70475 C 2.517969 27.681312 2.592188 27.64225 2.642969 27.614906 C 2.689844 27.587562 2.764063 27.544594 2.810938 27.51725 C 2.857813 27.489906 2.935938 27.443031 2.982813 27.415687 C 3.029688 27.384437 3.103906 27.337562 3.150781 27.306312 C 3.201563 27.275062 3.275781 27.224281 3.322656 27.189125 C 3.369531 27.157875 3.447656 27.103187 3.494531 27.071937 C 3.541406 27.036781 3.615625 26.982094 3.6625 26.943031 C 3.709375 26.907875 3.7875 26.849281 3.834375 26.814125 C 3.88125 26.775062 3.955469 26.712562 4.00625 26.6735 C 4.053125 26.634437 4.127344 26.571937 4.174219 26.528969 C 4.221094 26.489906 4.299219 26.4235 4.346094 26.380531 C 4.392969 26.337562 4.467188 26.26725 4.514063 26.224281 C 4.564844 26.181312 4.639063 26.111 4.685938 26.064125 C 4.732813 26.01725 4.810938 25.946937 4.857813 25.900062 C 4.904688 25.853187 4.978906 25.775062 5.025781 25.724281 C 5.072656 25.677406 5.150781 25.599281 5.197656 25.5485 C 5.244531 25.497719 5.31875 25.415687 5.369531 25.364906 C 5.416406 25.314125 5.490625 25.228187 5.5375 25.177406 C 5.584375 25.122719 5.6625 25.036781 5.709375 24.982094 C 5.75625 24.927406 5.830469 24.841469 5.877344 24.782875 C 5.928125 24.728187 6.002344 24.634437 6.049219 24.57975 C 6.096094 24.521156 6.174219 24.427406 6.221094 24.368812 C 6.267969 24.310219 6.342188 24.212562 6.389063 24.153969 C 6.435938 24.091469 6.514063 23.993812 6.560938 23.931312 C 6.607813 23.868812 6.682031 23.771156 6.732813 23.708656 C 6.779688 23.64225 6.853906 23.540687 6.900781 23.478187 C 6.947656 23.411781 7.025781 23.306312 7.072656 23.239906 C 7.119531 23.1735 7.19375 23.068031 7.240625 22.997719 C 7.291406 22.931312 7.365625 22.821937 7.4125 22.751625 C 7.459375 22.685219 7.5375 22.571937 7.584375 22.501625 C 7.63125 22.431312 7.705469 22.318031 7.752344 22.247719 C 7.799219 22.1735 7.877344 22.060219 7.924219 21.986 C 7.971094 21.911781 8.045313 21.794594 8.096094 21.720375 C 8.142969 21.646156 8.217188 21.528969 8.264063 21.450844 C 8.310938 21.376625 8.389063 21.251625 8.435938 21.177406 C 8.482813 21.099281 8.557031 20.974281 8.603906 20.896156 C 8.654688 20.818031 8.728906 20.693031 8.775781 20.614906 C 8.822656 20.532875 8.900781 20.407875 8.947656 20.325844 C 8.994531 20.247719 9.06875 20.114906 9.115625 20.032875 C 9.1625 19.950844 9.240625 19.821937 9.2875 19.736 C 9.334375 19.653969 9.4125 19.521156 9.459375 19.435219 C 9.50625 19.353187 9.580469 19.216469 9.627344 19.130531 C 9.674219 19.044594 9.752344 18.907875 9.799219 18.821937 C 9.846094 18.736 9.920313 18.595375 9.967188 18.509437 C 10.017969 18.419594 10.092188 18.278969 10.139063 18.189125 C 10.185938 18.103187 10.264063 17.958656 10.310938 17.868812 C 10.357813 17.778969 10.432031 17.634437 10.478906 17.544594 C 10.525781 17.45475 10.603906 17.306312 10.650781 17.216469 C 10.697656 17.122719 10.775781 16.974281 10.822656 16.880531 C 10.869531 16.790687 10.94375 16.638344 10.990625 16.544594 C 11.0375 16.450844 11.115625 16.302406 11.1625 16.20475 C 11.209375 16.111 11.283594 15.958656 11.334375 15.864906 C 11.38125 15.76725 11.455469 15.614906 11.502344 15.51725 C 11.549219 15.419594 11.627344 15.263344 11.674219 15.165687 C 11.721094 15.068031 11.795313 14.911781 11.842188 14.814125 C 11.892969 14.712562 11.967188 14.556312 12.014063 14.45475 C 12.060938 14.357094 12.139063 14.196937 12.185938 14.095375 C 12.232813 13.997719 12.307031 13.833656 12.353906 13.736 C 12.400781 13.634437 12.478906 13.470375 12.525781 13.368812 C 12.572656 13.26725 12.646875 13.103187 12.697656 12.997719 C 12.744531 12.896156 12.81875 12.732094 12.865625 12.626625 C 12.9125 12.525062 12.990625 12.357094 13.0375 12.251625 C 13.084375 12.150062 13.158594 11.982094 13.205469 11.876625 C 13.25625 11.771156 13.330469 11.603187 13.377344 11.497719 C 13.424219 11.39225 13.502344 11.224281 13.549219 11.114906 C 13.596094 11.009437 13.670313 10.837562 13.717188 10.732094 C 13.764063 10.622719 13.842188 10.450844 13.889063 10.345375 C 13.935938 10.236 14.010156 10.064125 14.060938 9.95475 C 14.107813 9.849281 14.182031 9.6735 14.228906 9.564125 C 14.275781 9.458656 14.353906 9.282875 14.400781 9.1735 C 14.447656 9.064125 14.521875 8.888344 14.56875 8.778969 C 14.619531 8.669594 14.69375 8.489906 14.740625 8.380531 C 14.7875 8.271156 14.865625 8.091469 14.9125 7.982094 C 14.959375 7.868812 15.033594 7.693031 15.080469 7.57975 C 15.127344 7.470375 15.205469 7.290687 15.252344 7.177406 C 15.299219 7.068031 15.373438 6.888344 15.424219 6.775062 C 15.471094 6.661781 15.545313 6.482094 15.592188 6.372719 C 15.639063 6.259437 15.717188 6.075844 15.764063 5.966469 C 15.810938 5.853187 15.885156 5.669594 15.932031 5.556312 C 15.982813 5.443031 16.057031 5.259437 16.103906 5.146156 C 16.150781 5.032875 16.228906 4.853187 16.275781 4.736 C 16.322656 4.622719 16.396875 4.439125 16.44375 4.325844 C 16.490625 4.212562 16.56875 4.028969 16.615625 3.915687 C 16.6625 3.802406 16.736719 3.614906 16.7875 3.501625 C 16.834375 3.388344 16.908594 3.200844 16.955469 3.087562 C 17.002344 2.974281 17.080469 2.790687 17.127344 2.6735 C 17.174219 2.560219 17.248438 2.376625 17.295313 2.259437 C 17.346094 2.146156 17.420313 1.958656 17.467188 1.845375 C 17.514063 1.728187 17.592188 1.544594 17.639063 1.427406 C 17.685938 1.314125 17.760156 1.126625 17.807031 1.013344 C 17.853906 0.896156 17.932031 0.712562 17.978906 0.595375 C 18.025781 0.478187 18.103906 0.294594 18.150781 0.181312 C 18.197656 0.064125 18.271875 -0.119469 18.31875 -0.236656 C 18.365625 -0.349938 18.44375 -0.537438 18.490625 -0.650719 C 18.5375 -0.767906 18.611719 -0.9515 18.658594 -1.068688 C 18.709375 -1.185875 18.783594 -1.369469 18.830469 -1.48275 C 18.877344 -1.599938 18.955469 -1.783531 19.002344 -1.900719 C 19.049219 -2.014 19.123438 -2.2015 19.170313 -2.314781 C 19.217188 -2.431969 19.295313 -2.615563 19.342188 -2.728844 C 19.389063 -2.846031 19.467188 -3.029625 19.514063 -3.142906 C 19.560938 -3.260094 19.635156 -3.443688 19.682031 -3.556969 C 19.728906 -3.674156 19.807031 -3.85775 19.853906 -3.971031 C 19.900781 -4.084313 19.975 -4.267906 20.025781 -4.381188 C 20.072656 -4.494469 20.146875 -4.678063 20.19375 -4.79525 C 20.240625 -4.908531 20.31875 -5.088219 20.365625 -5.2015 C 20.4125 -5.314781 20.486719 -5.498375 20.533594 -5.611656 C 20.584375 -5.724938 20.658594 -5.904625 20.705469 -6.017906 C 20.752344 -6.131188 20.830469 -6.314781 20.877344 -6.424156 C 20.924219 -6.537438 20.998438 -6.717125 21.045313 -6.830406 C 21.092188 -6.943688 21.170313 -7.123375 21.217188 -7.23275 C 21.264063 -7.346031 21.338281 -7.525719 21.389063 -7.635094 C 21.435938 -7.748375 21.510156 -7.924156 21.557031 -8.037438 C 21.603906 -8.146813 21.682031 -8.322594 21.728906 -8.435875 C 21.775781 -8.54525 21.85 -8.721031 21.896875 -8.830406 C 21.947656 -8.939781 22.021875 -9.115563 22.06875 -9.224938 C 22.115625 -9.334313 22.19375 -9.510094 22.240625 -9.619469 C 22.2875 -9.728844 22.361719 -9.900719 22.408594 -10.010094 C 22.455469 -10.115563 22.533594 -10.291344 22.580469 -10.396813 C 22.627344 -10.506188 22.701563 -10.678063 22.752344 -10.783531 C 22.799219 -10.889 22.873438 -11.060875 22.920313 -11.166344 C 22.967188 -11.275719 23.045313 -11.443688 23.092188 -11.549156 C 23.139063 -11.654625 23.213281 -11.822594 23.260156 -11.928063 C 23.310938 -12.033531 23.385156 -12.2015 23.432031 -12.303063 C 23.478906 -12.408531 23.557031 -12.5765 23.603906 -12.678063 C 23.650781 -12.779625 23.725 -12.947594 23.771875 -13.049156 C 23.81875 -13.150719 23.896875 -13.314781 23.94375 -13.416344 C 23.990625 -13.517906 24.064844 -13.681969 24.115625 -13.783531 C 24.1625 -13.885094 24.236719 -14.04525 24.283594 -14.146813 C 24.330469 -14.244469 24.408594 -14.404625 24.455469 -14.506188 C 24.502344 -14.603844 24.576563 -14.764 24.623438 -14.861656 C 24.674219 -14.959313 24.748438 -15.115563 24.795313 -15.213219 C 24.842188 -15.310875 24.920313 -15.467125 24.967188 -15.564781 C 25.014063 -15.658531 25.088281 -15.814781 25.135156 -15.908531 C 25.182031 -16.006188 25.260156 -16.158531 25.307031 -16.252281 C 25.353906 -16.349938 25.428125 -16.498375 25.478906 -16.592125 C 25.525781 -16.685875 25.6 -16.834313 25.646875 -16.928063 C 25.69375 -17.021813 25.771875 -17.17025 25.81875 -17.260094 C 25.865625 -17.349938 25.939844 -17.498375 25.986719 -17.588219 C 26.0375 -17.678063 26.111719 -17.822594 26.158594 -17.912438 C 26.205469 -18.002281 26.283594 -18.146813 26.330469 -18.23275 C 26.377344 -18.322594 26.451563 -18.463219 26.498438 -18.549156 C 26.545313 -18.639 26.623438 -18.775719 26.670313 -18.865563 C 26.717188 -18.9515 26.795313 -19.088219 26.842188 -19.174156 C 26.889063 -19.256188 26.963281 -19.392906 27.010156 -19.478844 C 27.057031 -19.560875 27.135156 -19.693688 27.182031 -19.775719 C 27.228906 -19.861656 27.303125 -19.990563 27.353906 -20.072594 C 27.400781 -20.154625 27.475 -20.283531 27.521875 -20.365563 C 27.56875 -20.447594 27.646875 -20.572594 27.69375 -20.654625 C 27.740625 -20.73275 27.814844 -20.85775 27.861719 -20.935875 C 27.908594 -21.014 27.986719 -21.139 28.033594 -21.213219 C 28.080469 -21.291344 28.158594 -21.412438 28.205469 -21.486656 C 28.252344 -21.564781 28.326563 -21.681969 28.373438 -21.756188 C 28.420313 -21.830406 28.498438 -21.947594 28.545313 -22.021813 C 28.592188 -22.096031 28.666406 -22.209313 28.717188 -22.283531 C 28.764063 -22.353844 28.838281 -22.467125 28.885156 -22.537438 C 28.932031 -22.60775 29.010156 -22.717125 29.057031 -22.787438 C 29.103906 -22.853844 29.178125 -22.963219 29.225 -23.033531 C 29.275781 -23.099938 29.35 -23.205406 29.396875 -23.271813 C 29.44375 -23.338219 29.521875 -23.443688 29.56875 -23.506188 C 29.615625 -23.572594 29.689844 -23.674156 29.736719 -23.736656 C 29.783594 -23.799156 29.861719 -23.900719 29.908594 -23.963219 C 29.955469 -24.025719 30.029688 -24.123375 30.080469 -24.181969 C 30.127344 -24.240563 30.201563 -24.338219 30.248438 -24.396813 C 30.295313 -24.455406 30.373438 -24.549156 30.420313 -24.60775 C 30.467188 -24.662438 30.541406 -24.756188 30.588281 -24.810875 C 30.639063 -24.865563 30.713281 -24.955406 30.760156 -25.010094 C 30.807031 -25.064781 30.885156 -25.150719 30.932031 -25.2015 C 30.978906 -25.256188 31.053125 -25.338219 31.1 -25.389 C 31.146875 -25.439781 31.225 -25.521813 31.271875 -25.572594 C 31.31875 -25.623375 31.392969 -25.7015 31.44375 -25.748375 C 31.490625 -25.799156 31.564844 -25.873375 31.611719 -25.92025 C 31.658594 -25.967125 31.736719 -26.041344 31.783594 -26.088219 C 31.830469 -26.131188 31.904688 -26.2015 31.951563 -26.244469 C 32.002344 -26.291344 32.076563 -26.35775 32.123438 -26.400719 C 32.170313 -26.443688 32.248438 -26.510094 32.295313 -26.549156 C 32.342188 -26.588219 32.416406 -26.654625 32.463281 -26.693688 C 32.510156 -26.73275 32.588281 -26.791344 32.635156 -26.830406 C 32.682031 -26.869469 32.75625 -26.928063 32.807031 -26.963219 C 32.853906 -26.998375 32.928125 -27.053063 32.975 -27.088219 C 33.021875 -27.119469 33.1 -27.174156 33.146875 -27.205406 C 33.19375 -27.240563 33.267969 -27.291344 33.314844 -27.318688 C 33.365625 -27.349938 33.439844 -27.400719 33.486719 -27.428063 C 33.533594 -27.459313 33.611719 -27.502281 33.658594 -27.529625 C 33.705469 -27.556969 33.779688 -27.599938 33.826563 -27.627281 C 33.873438 -27.654625 33.951563 -27.693688 33.998438 -27.717125 C 34.045313 -27.740563 34.119531 -27.779625 34.170313 -27.803063 C 34.217188 -27.822594 34.291406 -27.85775 34.338281 -27.877281 C 34.385156 -27.900719 34.463281 -27.931969 34.510156 -27.9515 C 34.557031 -27.971031 34.63125 -27.998375 34.678125 -28.017906 C 34.728906 -28.033531 34.803125 -28.060875 34.85 -28.0765 C 34.896875 -28.096031 34.975 -28.119469 35.021875 -28.131188 C 35.06875 -28.146813 35.142969 -28.166344 35.189844 -28.181969 C 35.236719 -28.193688 35.314844 -28.209313 35.361719 -28.221031 C 35.408594 -28.23275 35.486719 -28.248375 35.533594 -28.256188 C 35.580469 -28.267906 35.654688 -28.279625 35.701563 -28.287438 C 35.748438 -28.29525 35.826563 -28.306969 35.873438 -28.310875 C 35.920313 -28.318688 35.994531 -28.3265 36.045313 -28.330406 C 36.092188 -28.334313 36.166406 -28.338219 36.213281 -28.342125 C 36.260156 -28.342125 36.338281 -28.346031 36.385156 -28.346031 C 36.432031 -28.346031 36.50625 -28.346031 36.553125 -28.346031 C 36.6 -28.342125 36.678125 -28.338219 36.725 -28.338219 C 36.771875 -28.334313 36.85 -28.330406 36.896875 -28.322594 C 36.94375 -28.318688 37.017969 -28.310875 37.064844 -28.306969 C 37.111719 -28.299156 37.189844 -28.287438 37.236719 -28.279625 C 37.283594 -28.271813 37.357813 -28.256188 37.408594 -28.248375 C 37.455469 -28.236656 37.529688 -28.221031 37.576563 -28.209313 C 37.623438 -28.197594 37.701563 -28.178063 37.748438 -28.166344 C 37.795313 -28.154625 37.869531 -28.131188 37.916406 -28.119469 C 37.967188 -28.103844 38.041406 -28.0765 38.088281 -28.060875 C 38.135156 -28.04525 38.213281 -28.017906 38.260156 -28.002281 C 38.307031 -27.98275 38.38125 -27.9515 38.428125 -27.931969 C 38.475 -27.912438 38.553125 -27.881188 38.6 -27.85775 C 38.646875 -27.838219 38.721094 -27.803063 38.771875 -27.779625 C 38.81875 -27.756188 38.892969 -27.717125 38.939844 -27.693688 C 38.986719 -27.666344 39.064844 -27.627281 39.111719 -27.599938 C 39.158594 -27.5765 39.232813 -27.533531 39.279688 -27.502281 C 39.330469 -27.474938 39.404688 -27.428063 39.451563 -27.400719 C 39.498438 -27.369469 39.576563 -27.322594 39.623438 -27.291344 C 39.670313 -27.260094 39.744531 -27.205406 39.791406 -27.174156 C 39.838281 -27.139 39.916406 -27.088219 39.963281 -27.053063 C 40.010156 -27.017906 40.084375 -26.963219 40.135156 -26.924156 C 40.182031 -26.889 40.25625 -26.830406 40.303125 -26.791344 C 40.35 -26.756188 40.428125 -26.693688 40.475 -26.654625 C 40.521875 -26.615563 40.596094 -26.549156 40.642969 -26.510094 C 40.69375 -26.467125 40.767969 -26.400719 40.814844 -26.35775 C 40.861719 -26.314781 40.939844 -26.248375 40.986719 -26.2015 C 41.033594 -26.158531 41.107813 -26.088219 41.154688 -26.041344 C 41.201563 -25.994469 41.279688 -25.92025 41.326563 -25.873375 C 41.373438 -25.8265 41.447656 -25.752281 41.498438 -25.7015 C 41.545313 -25.654625 41.619531 -25.572594 41.666406 -25.521813 C 41.713281 -25.471031 41.791406 -25.389 41.838281 -25.338219 C 41.885156 -25.287438 41.959375 -25.2015 42.00625 -25.150719 C 42.057031 -25.096031 42.13125 -25.010094 42.178125 -24.955406 C 42.225 -24.900719 42.303125 -24.810875 42.35 -24.756188 C 42.396875 -24.697594 42.517969 -24.549156 42.517969 -24.549156 " transform="matrix(1, 0, 0, -1, 53.15, 60.236)"/>
</g>
</svg>
