<?xml version="1.0" encoding="UTF-8"?>
<svg xmlns="http://www.w3.org/2000/svg" xmlns:xlink="http://www.w3.org/1999/xlink" width="113.386" height="113.386" viewBox="0 0 113.386 113.386">
<defs>
<clipPath id="clip-0">
<path clip-rule="nonzero" d="M 0 0 L 113.386719 0 L 113.386719 109 L 0 109 Z M 0 0 "/>
</clipPath>
<clipPath id="clip-1">
<path clip-rule="nonzero" d="M 0 22 L 113.386719 22 L 113.386719 113.386719 L 0 113.386719 Z M 0 22 "/>
</clipPath>
</defs>
<path fill="none" stroke-width="0.79701" stroke-linecap="butt" stroke-linejoin="miter" stroke="rgb(0%, 0%, 0%)" stroke-opacity="1" stroke-miterlimit="10" d="M -14.174094 0.00096875 L 73.29075 0.00096875 " transform="matrix(1, 0, 0, -1, 24.803, 88.583)"/>
<path fill-rule="nonzero" fill="rgb(0%, 0%, 0%)" fill-opacity="1" d="M 102.757812 88.582031 C 101.375 88.324219 99.128906 87.546875 97.578125 86.640625 L 97.578125 90.527344 C 99.128906 89.617188 101.375 88.84375 102.757812 88.582031 "/>
<path fill="none" stroke-width="0.79701" stroke-linecap="butt" stroke-linejoin="miter" stroke="rgb(0%, 0%, 0%)" stroke-opacity="1" stroke-miterlimit="10" d="M 0.0016875 -14.174813 L 0.0016875 73.290031 " transform="matrix(1, 0, 0, -1, 24.803, 88.583)"/>
<path fill-rule="nonzero" fill="rgb(0%, 0%, 0%)" fill-opacity="1" d="M 24.804688 10.628906 C 24.542969 12.011719 23.765625 14.253906 22.859375 15.808594 L 26.746094 15.808594 C 25.839844 14.253906 25.0625 12.011719 24.804688 10.628906 "/>
<path fill="none" stroke-width="0.79701" stroke-linecap="butt" stroke-linejoin="miter" stroke="rgb(50%, 50%, 50%)" stroke-opacity="1" stroke-dasharray="2.49069 1.0959" stroke-miterlimit="10" d="M 49.607156 31.860344 L 49.607156 16.282219 L 21.2595 16.282219 " transform="matrix(1, 0, 0, -1, 24.803, 88.583)"/>
<g clip-path="url(#clip-0)">
<path fill="none" stroke-width="1.59404" stroke-linecap="butt" stroke-linejoin="miter" stroke="rgb(25%, 25%, 25%)" stroke-opacity="1" stroke-miterlimit="10" d="M -14.174094 3.067375 C -14.174094 3.067375 -11.611594 3.696281 -10.631125 3.950187 C -9.64675 4.208 -8.068625 4.633781 -7.088156 4.911125 C -6.103781 5.188469 -4.525656 5.649406 -3.545188 5.954094 C -2.560813 6.254875 -0.982688 6.758781 0.0016875 7.086906 C 0.982156 7.415031 2.560281 7.961906 3.544656 8.317375 C 4.525125 8.672844 6.10325 9.2705 7.087625 9.657219 C 8.068094 10.043937 9.646219 10.692375 10.630594 11.110344 C 11.614969 11.532219 13.189187 12.235344 14.173562 12.692375 C 15.157937 13.149406 16.732156 13.915031 17.716531 14.411125 C 18.700906 14.911125 20.275125 15.73925 21.2595 16.282219 C 22.243875 16.821281 23.822 17.723625 24.802469 18.309562 C 25.786844 18.899406 27.364969 19.879875 28.345437 20.516594 C 29.329812 21.157219 30.907937 22.223625 31.888406 22.918937 C 32.872781 23.61425 34.450906 24.7705 35.435281 25.524406 C 36.41575 26.278312 37.993875 27.536125 38.97825 28.356437 C 39.958719 29.180656 41.536844 30.547844 42.521219 31.438469 C 43.501688 32.333 45.079813 33.817375 46.064188 34.786125 C 47.048563 35.754875 48.622781 37.372062 49.607156 38.42675 C 50.591531 39.477531 52.16575 41.235344 53.150125 42.379875 C 54.1345 43.528312 55.708719 45.434562 56.693094 46.680656 C 57.677469 47.922844 59.255594 50.000969 60.236063 51.352531 C 61.220438 52.704094 62.798563 54.961906 63.779031 56.434562 C 64.763406 57.903312 66.341531 60.352531 67.322 61.950187 C 68.306375 63.547844 70.868875 67.950187 70.868875 67.950187 " transform="matrix(1, 0, 0, -1, 24.803, 88.583)"/>
</g>
<g clip-path="url(#clip-1)">
<path fill="none" stroke-width="1.59404" stroke-linecap="butt" stroke-linejoin="miter" stroke="rgb(50%, 50%, 50%)" stroke-opacity="1" stroke-miterlimit="10" d="M -14.174094 -3.190438 L 70.868875 43.543937 " transform="matrix(1, 0, 0, -1, 24.803, 88.583)"/>
</g>
</svg>
