<?xml version="1.0" encoding="UTF-8"?>
<svg xmlns="http://www.w3.org/2000/svg" xmlns:xlink="http://www.w3.org/1999/xlink" width="342.648" height="278.868" viewBox="0 0 342.648 278.868">
<defs>
<clipPath id="clip-0">
<path clip-rule="nonzero" d="M 178 206 L 286 206 L 286 278.867188 L 178 278.867188 Z M 178 206 "/>
</clipPath>
<clipPath id="clip-1">
<path clip-rule="nonzero" d="M 263 57 L 342.648438 57 L 342.648438 165 L 263 165 Z M 263 57 "/>
</clipPath>
<clipPath id="clip-2">
<path clip-rule="nonzero" d="M 263 57 L 342.648438 57 L 342.648438 165 L 263 165 Z M 263 57 "/>
</clipPath>
<clipPath id="clip-3">
<path clip-rule="nonzero" d="M 270 178 L 342.648438 178 L 342.648438 278.867188 L 270 278.867188 Z M 270 178 "/>
</clipPath>
</defs>
<path fill="none" stroke-width="2.49069" stroke-linecap="butt" stroke-linejoin="miter" stroke="rgb(0%, 0%, 0%)" stroke-opacity="1" stroke-miterlimit="10" d="M 0.000625 -0.00075 L 0.000625 75.803938 " transform="matrix(1, 0, 0, -1, 43.765, 213.843)"/>
<path fill-rule="nonzero" fill="rgb(0%, 0%, 0%)" fill-opacity="1" d="M 43.765625 128.800781 C 43.25 131.539062 41.710938 135.984375 39.917969 139.0625 L 47.613281 139.0625 C 45.816406 135.984375 44.277344 131.539062 43.765625 128.800781 "/>
<path fill="none" stroke-width="2.49069" stroke-linecap="butt" stroke-linejoin="miter" stroke="rgb(0%, 0%, 0%)" stroke-opacity="1" stroke-miterlimit="10" d="M 85.039687 -0.00075 L 85.039687 75.803938 " transform="matrix(1, 0, 0, -1, 43.765, 213.843)"/>
<path fill-rule="nonzero" fill="rgb(0%, 0%, 0%)" fill-opacity="1" d="M 128.804688 128.800781 C 128.292969 131.539062 126.753906 135.984375 124.957031 139.0625 L 132.652344 139.0625 C 130.859375 135.984375 129.320312 131.539062 128.804688 128.800781 "/>
<path fill="none" stroke-width="2.49069" stroke-linecap="butt" stroke-linejoin="miter" stroke="rgb(0%, 0%, 0%)" stroke-opacity="1" stroke-miterlimit="10" d="M -42.518906 85.042219 L -4.128281 161.819563 " transform="matrix(1, 0, 0, -1, 43.765, 213.843)"/>
<path fill-rule="nonzero" fill="rgb(0%, 0%, 0%)" fill-opacity="1" d="M 43.765625 43.761719 C 42.082031 45.980469 38.71875 49.269531 35.734375 51.21875 L 42.617188 54.660156 C 42.386719 51.105469 43 46.4375 43.765625 43.761719 "/>
<path fill="none" stroke-width="2.49069" stroke-linecap="butt" stroke-linejoin="miter" stroke="rgb(0%, 0%, 0%)" stroke-opacity="1" stroke-miterlimit="10" d="M 42.520156 42.518781 L 80.910781 119.300031 " transform="matrix(1, 0, 0, -1, 43.765, 213.843)"/>
<path fill-rule="nonzero" fill="rgb(0%, 0%, 0%)" fill-opacity="1" d="M 128.804688 86.28125 C 127.121094 88.5 123.757812 91.789062 120.773438 93.738281 L 127.660156 97.179688 C 127.429688 93.625 128.039062 88.960938 128.804688 86.28125 "/>
<path fill="none" stroke-width="2.49069" stroke-linecap="butt" stroke-linejoin="miter" stroke="rgb(0%, 0%, 0%)" stroke-opacity="1" stroke-miterlimit="10" d="M 0.000625 -42.520281 L 75.805312 -42.520281 " transform="matrix(1, 0, 0, -1, 43.765, 213.843)"/>
<path fill-rule="nonzero" fill="rgb(0%, 0%, 0%)" fill-opacity="1" d="M 128.804688 256.363281 C 126.070312 255.851562 121.621094 254.3125 118.542969 252.515625 L 118.542969 260.210938 C 121.621094 258.414062 126.070312 256.875 128.804688 256.363281 "/>
<path fill="none" stroke-width="2.49069" stroke-linecap="butt" stroke-linejoin="miter" stroke="rgb(0%, 0%, 0%)" stroke-opacity="1" stroke-miterlimit="10" d="M 212.602187 127.56175 L 135.820937 165.952375 " transform="matrix(1, 0, 0, -1, 43.765, 213.843)"/>
<path fill-rule="nonzero" fill="rgb(0%, 0%, 0%)" fill-opacity="1" d="M 171.324219 43.761719 C 173.542969 45.445312 176.832031 48.808594 178.78125 51.792969 L 182.222656 44.910156 C 178.667969 45.140625 174.003906 44.527344 171.324219 43.761719 "/>
<path fill="none" stroke-width="2.49069" stroke-linecap="butt" stroke-linejoin="miter" stroke="rgb(0%, 0%, 0%)" stroke-opacity="1" stroke-miterlimit="10" d="M 255.121719 170.081281 L 178.340469 208.471906 " transform="matrix(1, 0, 0, -1, 43.765, 213.843)"/>
<path fill-rule="nonzero" fill="rgb(0%, 0%, 0%)" fill-opacity="1" d="M 213.847656 1.242188 C 216.0625 2.925781 219.351562 6.289062 221.300781 9.273438 L 224.746094 2.390625 C 221.1875 2.617188 216.523438 2.007812 213.847656 1.242188 "/>
<g clip-path="url(#clip-0)">
<path fill="none" stroke-width="2.49069" stroke-linecap="butt" stroke-linejoin="miter" stroke="rgb(0%, 0%, 0%)" stroke-opacity="1" stroke-miterlimit="10" d="M 170.082656 -63.782 L 206.070937 -27.789812 " transform="matrix(1, 0, 0, -1, 43.765, 213.843)"/>
</g>
<path fill-rule="nonzero" fill="rgb(0%, 0%, 0%)" fill-opacity="1" d="M 256.367188 235.101562 C 254.066406 236.675781 249.835938 238.730469 246.390625 239.636719 L 251.832031 245.082031 C 252.738281 241.632812 254.792969 237.402344 256.367188 235.101562 "/>
<g clip-path="url(#clip-1)">
<path fill="none" stroke-width="2.49069" stroke-linecap="butt" stroke-linejoin="miter" stroke="rgb(0%, 0%, 0%)" stroke-opacity="1" stroke-miterlimit="10" d="M 255.121719 85.042219 L 291.11 121.0305 " transform="matrix(1, 0, 0, -1, 43.765, 213.843)"/>
</g>
<path fill-rule="nonzero" fill="rgb(0%, 0%, 0%)" fill-opacity="1" d="M 341.40625 86.28125 C 339.109375 87.855469 334.875 89.910156 331.429688 90.816406 L 336.871094 96.257812 C 337.777344 92.8125 339.835938 88.582031 341.40625 86.28125 "/>
<g clip-path="url(#clip-2)">
<path fill="none" stroke-width="2.49069" stroke-linecap="butt" stroke-linejoin="miter" stroke="rgb(0%, 0%, 0%)" stroke-opacity="1" stroke-miterlimit="10" d="M 255.121719 85.042219 L 291.11 121.0305 " transform="matrix(1, 0, 0, -1, 43.765, 213.843)"/>
</g>
<path fill-rule="nonzero" fill="rgb(0%, 0%, 0%)" fill-opacity="1" d="M 341.40625 86.28125 C 339.109375 87.855469 334.875 89.910156 331.429688 90.816406 L 336.871094 96.257812 C 337.777344 92.8125 339.835938 88.582031 341.40625 86.28125 "/>
<path fill="none" stroke-width="2.49069" stroke-linecap="butt" stroke-linejoin="miter" stroke="rgb(0%, 0%, 0%)" stroke-opacity="1" stroke-miterlimit="10" d="M 170.082656 42.518781 L 134.090469 6.5305 " transform="matrix(1, 0, 0, -1, 43.765, 213.843)"/>
<path fill-rule="nonzero" fill="rgb(0%, 0%, 0%)" fill-opacity="1" d="M 171.324219 213.84375 C 173.625 212.269531 177.855469 210.214844 181.300781 209.308594 L 175.859375 203.867188 C 174.953125 207.3125 172.898438 211.546875 171.324219 213.84375 "/>
<g clip-path="url(#clip-3)">
<path fill="none" stroke-width="2.49069" stroke-linecap="butt" stroke-linejoin="miter" stroke="rgb(0%, 0%, 0%)" stroke-opacity="1" stroke-miterlimit="10" d="M 297.64125 -0.00075 L 261.652969 -35.989031 " transform="matrix(1, 0, 0, -1, 43.765, 213.843)"/>
</g>
<path fill-rule="nonzero" fill="rgb(0%, 0%, 0%)" fill-opacity="1" d="M 298.886719 256.363281 C 301.183594 254.789062 305.417969 252.734375 308.863281 251.828125 L 303.421875 246.386719 C 302.515625 249.832031 300.457031 254.066406 298.886719 256.363281 "/>
<path fill="none" stroke-width="2.49069" stroke-linecap="butt" stroke-linejoin="miter" stroke="rgb(0%, 0%, 0%)" stroke-opacity="1" stroke-miterlimit="10" d="M 255.121719 63.7805 L 219.133437 27.792219 " transform="matrix(1, 0, 0, -1, 43.765, 213.843)"/>
<path fill-rule="nonzero" fill="rgb(0%, 0%, 0%)" fill-opacity="1" d="M 256.367188 192.582031 C 258.664062 191.011719 262.898438 188.953125 266.34375 188.046875 L 260.902344 182.605469 C 259.992188 186.050781 257.9375 190.285156 256.367188 192.582031 "/>
</svg>
