<?xml version="1.0" encoding="UTF-8"?>
<svg xmlns="http://www.w3.org/2000/svg" xmlns:xlink="http://www.w3.org/1999/xlink" width="113.386" height="113.386" viewBox="0 0 113.386 113.386">
<path fill="none" stroke-width="0.79701" stroke-linecap="butt" stroke-linejoin="miter" stroke="rgb(0%, 0%, 0%)" stroke-opacity="1" stroke-miterlimit="10" d="M -14.174094 0.00096875 L 73.29075 0.00096875 " transform="matrix(1, 0, 0, -1, 24.803, 88.583)"/>
<path fill-rule="nonzero" fill="rgb(0%, 0%, 0%)" fill-opacity="1" d="M 102.757812 88.582031 C 101.375 88.324219 99.128906 87.546875 97.578125 86.640625 L 97.578125 90.527344 C 99.128906 89.617188 101.375 88.84375 102.757812 88.582031 "/>
<path fill="none" stroke-width="0.79701" stroke-linecap="butt" stroke-linejoin="miter" stroke="rgb(0%, 0%, 0%)" stroke-opacity="1" stroke-miterlimit="10" d="M 0.0016875 -14.174813 L 0.0016875 73.290031 " transform="matrix(1, 0, 0, -1, 24.803, 88.583)"/>
<path fill-rule="nonzero" fill="rgb(0%, 0%, 0%)" fill-opacity="1" d="M 24.804688 10.628906 C 24.542969 12.011719 23.765625 14.253906 22.859375 15.808594 L 26.746094 15.808594 C 25.839844 14.253906 25.0625 12.011719 24.804688 10.628906 "/>
<path fill-rule="nonzero" fill="rgb(25%, 25%, 25%)" fill-opacity="1" stroke-width="0.79701" stroke-linecap="butt" stroke-linejoin="miter" stroke="rgb(25%, 25%, 25%)" stroke-opacity="1" stroke-miterlimit="10" d="M 8.849344 35.434562 C 8.849344 36.407219 8.060281 37.196281 7.087625 37.196281 C 6.114969 37.196281 5.325906 36.407219 5.325906 35.434562 C 5.325906 34.461906 6.114969 33.672844 7.087625 33.672844 C 8.060281 33.672844 8.849344 34.461906 8.849344 35.434562 Z M 8.849344 35.434562 " transform="matrix(1, 0, 0, -1, 24.803, 88.583)"/>
<path fill-rule="nonzero" fill="rgb(25%, 25%, 25%)" fill-opacity="1" stroke-width="0.79701" stroke-linecap="butt" stroke-linejoin="miter" stroke="rgb(25%, 25%, 25%)" stroke-opacity="1" stroke-miterlimit="10" d="M 15.935281 34.165031 C 15.935281 35.137687 15.146219 35.92675 14.173562 35.92675 C 13.200906 35.92675 12.411844 35.137687 12.411844 34.165031 C 12.411844 33.192375 13.200906 32.403312 14.173562 32.403312 C 15.146219 32.403312 15.935281 33.192375 15.935281 34.165031 Z M 15.935281 34.165031 " transform="matrix(1, 0, 0, -1, 24.803, 88.583)"/>
<path fill-rule="nonzero" fill="rgb(25%, 25%, 25%)" fill-opacity="1" stroke-width="0.79701" stroke-linecap="butt" stroke-linejoin="miter" stroke="rgb(25%, 25%, 25%)" stroke-opacity="1" stroke-miterlimit="10" d="M 23.021219 39.016594 C 23.021219 39.98925 22.232156 40.778312 21.2595 40.778312 C 20.286844 40.778312 19.497781 39.98925 19.497781 39.016594 C 19.497781 38.043937 20.286844 37.254875 21.2595 37.254875 C 22.232156 37.254875 23.021219 38.043937 23.021219 39.016594 Z M 23.021219 39.016594 " transform="matrix(1, 0, 0, -1, 24.803, 88.583)"/>
<path fill-rule="nonzero" fill="rgb(25%, 25%, 25%)" fill-opacity="1" stroke-width="0.79701" stroke-linecap="butt" stroke-linejoin="miter" stroke="rgb(25%, 25%, 25%)" stroke-opacity="1" stroke-miterlimit="10" d="M 30.107156 28.848625 C 30.107156 29.821281 29.318094 30.606437 28.345437 30.606437 C 27.372781 30.606437 26.583719 29.821281 26.583719 28.848625 C 26.583719 27.875969 27.372781 27.086906 28.345437 27.086906 C 29.318094 27.086906 30.107156 27.875969 30.107156 28.848625 Z M 30.107156 28.848625 " transform="matrix(1, 0, 0, -1, 24.803, 88.583)"/>
<path fill-rule="nonzero" fill="rgb(25%, 25%, 25%)" fill-opacity="1" stroke-width="0.79701" stroke-linecap="butt" stroke-linejoin="miter" stroke="rgb(25%, 25%, 25%)" stroke-opacity="1" stroke-miterlimit="10" d="M 37.193094 45.571281 C 37.193094 46.543937 36.407938 47.333 35.435281 47.333 C 34.462625 47.333 33.673563 46.543937 33.673563 45.571281 C 33.673563 44.598625 34.462625 43.813469 35.435281 43.813469 C 36.407938 43.813469 37.193094 44.598625 37.193094 45.571281 Z M 37.193094 45.571281 " transform="matrix(1, 0, 0, -1, 24.803, 88.583)"/>
<path fill-rule="nonzero" fill="rgb(25%, 25%, 25%)" fill-opacity="1" stroke-width="0.79701" stroke-linecap="butt" stroke-linejoin="miter" stroke="rgb(25%, 25%, 25%)" stroke-opacity="1" stroke-miterlimit="10" d="M 44.282938 21.258781 C 44.282938 22.231437 43.493875 23.0205 42.521219 23.0205 C 41.548563 23.0205 40.7595 22.231437 40.7595 21.258781 C 40.7595 20.286125 41.548563 19.497062 42.521219 19.497062 C 43.493875 19.497062 44.282938 20.286125 44.282938 21.258781 Z M 44.282938 21.258781 " transform="matrix(1, 0, 0, -1, 24.803, 88.583)"/>
<path fill-rule="nonzero" fill="rgb(25%, 25%, 25%)" fill-opacity="1" stroke-width="0.79701" stroke-linecap="butt" stroke-linejoin="miter" stroke="rgb(25%, 25%, 25%)" stroke-opacity="1" stroke-miterlimit="10" d="M 51.368875 54.063469 C 51.368875 55.036125 50.579813 55.825187 49.607156 55.825187 C 48.6345 55.825187 47.845438 55.036125 47.845438 54.063469 C 47.845438 53.090812 48.6345 52.30175 49.607156 52.30175 C 50.579813 52.30175 51.368875 53.090812 51.368875 54.063469 Z M 51.368875 54.063469 " transform="matrix(1, 0, 0, -1, 24.803, 88.583)"/>
<path fill-rule="nonzero" fill="rgb(25%, 25%, 25%)" fill-opacity="1" stroke-width="0.79701" stroke-linecap="butt" stroke-linejoin="miter" stroke="rgb(25%, 25%, 25%)" stroke-opacity="1" stroke-miterlimit="10" d="M 58.454813 11.958 C 58.454813 12.930656 57.66575 13.719719 56.693094 13.719719 C 55.720438 13.719719 54.931375 12.930656 54.931375 11.958 C 54.931375 10.985344 55.720438 10.196281 56.693094 10.196281 C 57.66575 10.196281 58.454813 10.985344 58.454813 11.958 Z M 58.454813 11.958 " transform="matrix(1, 0, 0, -1, 24.803, 88.583)"/>
<path fill-rule="nonzero" fill="rgb(25%, 25%, 25%)" fill-opacity="1" stroke-width="0.79701" stroke-linecap="butt" stroke-linejoin="miter" stroke="rgb(25%, 25%, 25%)" stroke-opacity="1" stroke-miterlimit="10" d="M 65.54075 64.11425 C 65.54075 65.086906 64.751688 65.875969 63.779031 65.875969 C 62.806375 65.875969 62.017313 65.086906 62.017313 64.11425 C 62.017313 63.141594 62.806375 62.352531 63.779031 62.352531 C 64.751688 62.352531 65.54075 63.141594 65.54075 64.11425 Z M 65.54075 64.11425 " transform="matrix(1, 0, 0, -1, 24.803, 88.583)"/>
</svg>
