<?xml version="1.0" encoding="UTF-8"?>
<svg xmlns="http://www.w3.org/2000/svg" xmlns:xlink="http://www.w3.org/1999/xlink" width="113.386" height="113.386" viewBox="0 0 113.386 113.386">
<path fill-rule="nonzero" fill="rgb(25%, 25%, 25%)" fill-opacity="1" d="M 14.171875 99.210938 L 14.171875 56.691406 L 56.695312 56.691406 L 56.695312 99.210938 Z M 14.171875 99.210938 "/>
<path fill-rule="nonzero" fill="rgb(25%, 25%, 25%)" fill-opacity="1" d="M 56.695312 56.691406 L 56.695312 35.433594 L 77.953125 35.433594 L 77.953125 56.691406 Z M 56.695312 56.691406 "/>
<path fill-rule="nonzero" fill="rgb(25%, 25%, 25%)" fill-opacity="1" d="M 77.953125 35.433594 L 77.953125 24.800781 L 88.582031 24.800781 L 88.582031 35.433594 Z M 77.953125 35.433594 "/>
<path fill-rule="nonzero" fill="rgb(25%, 25%, 25%)" fill-opacity="1" d="M 88.582031 24.800781 L 88.582031 19.488281 L 93.898438 19.488281 L 93.898438 24.800781 Z M 88.582031 24.800781 "/>
<path fill-rule="nonzero" fill="rgb(25%, 25%, 25%)" fill-opacity="1" d="M 93.898438 19.488281 L 93.898438 16.828125 L 96.554688 16.828125 L 96.554688 19.488281 Z M 93.898438 19.488281 "/>
<path fill-rule="nonzero" fill="rgb(25%, 25%, 25%)" fill-opacity="1" d="M 96.554688 16.828125 L 96.554688 15.5 L 97.886719 15.5 L 97.886719 16.828125 Z M 96.554688 16.828125 "/>
<path fill="none" stroke-width="0.79701" stroke-linecap="butt" stroke-linejoin="miter" stroke="rgb(25%, 25%, 25%)" stroke-opacity="1" stroke-miterlimit="10" d="M 14.171875 56.694594 L 99.214844 56.694594 " transform="matrix(1, 0, 0, -1, 0, 113.386)"/>
<path fill="none" stroke-width="0.79701" stroke-linecap="butt" stroke-linejoin="miter" stroke="rgb(25%, 25%, 25%)" stroke-opacity="1" stroke-miterlimit="10" d="M 56.695312 14.175062 L 56.695312 99.214125 " transform="matrix(1, 0, 0, -1, 0, 113.386)"/>
<path fill="none" stroke-width="0.79701" stroke-linecap="butt" stroke-linejoin="miter" stroke="rgb(25%, 25%, 25%)" stroke-opacity="1" stroke-miterlimit="10" d="M 56.695312 77.952406 L 99.214844 77.952406 " transform="matrix(1, 0, 0, -1, 0, 113.386)"/>
<path fill="none" stroke-width="0.79701" stroke-linecap="butt" stroke-linejoin="miter" stroke="rgb(25%, 25%, 25%)" stroke-opacity="1" stroke-miterlimit="10" d="M 77.953125 56.694594 L 77.953125 99.214125 " transform="matrix(1, 0, 0, -1, 0, 113.386)"/>
<path fill="none" stroke-width="0.79701" stroke-linecap="butt" stroke-linejoin="miter" stroke="rgb(25%, 25%, 25%)" stroke-opacity="1" stroke-miterlimit="10" d="M 77.953125 88.585219 L 99.214844 88.585219 " transform="matrix(1, 0, 0, -1, 0, 113.386)"/>
<path fill="none" stroke-width="0.79701" stroke-linecap="butt" stroke-linejoin="miter" stroke="rgb(25%, 25%, 25%)" stroke-opacity="1" stroke-miterlimit="10" d="M 88.582031 77.952406 L 88.582031 99.214125 " transform="matrix(1, 0, 0, -1, 0, 113.386)"/>
<path fill="none" stroke-width="0.79701" stroke-linecap="butt" stroke-linejoin="miter" stroke="rgb(25%, 25%, 25%)" stroke-opacity="1" stroke-miterlimit="10" d="M 88.582031 93.897719 L 99.214844 93.897719 " transform="matrix(1, 0, 0, -1, 0, 113.386)"/>
<path fill="none" stroke-width="0.79701" stroke-linecap="butt" stroke-linejoin="miter" stroke="rgb(25%, 25%, 25%)" stroke-opacity="1" stroke-miterlimit="10" d="M 93.898438 88.585219 L 93.898438 99.214125 " transform="matrix(1, 0, 0, -1, 0, 113.386)"/>
<path fill="none" stroke-width="0.79701" stroke-linecap="butt" stroke-linejoin="miter" stroke="rgb(25%, 25%, 25%)" stroke-opacity="1" stroke-miterlimit="10" d="M 93.898438 96.557875 L 99.214844 96.557875 " transform="matrix(1, 0, 0, -1, 0, 113.386)"/>
<path fill="none" stroke-width="0.79701" stroke-linecap="butt" stroke-linejoin="miter" stroke="rgb(25%, 25%, 25%)" stroke-opacity="1" stroke-miterlimit="10" d="M 96.554688 93.897719 L 96.554688 99.214125 " transform="matrix(1, 0, 0, -1, 0, 113.386)"/>
<path fill="none" stroke-width="0.79701" stroke-linecap="butt" stroke-linejoin="miter" stroke="rgb(25%, 25%, 25%)" stroke-opacity="1" stroke-miterlimit="10" d="M 96.554688 97.886 L 99.214844 97.886 " transform="matrix(1, 0, 0, -1, 0, 113.386)"/>
<path fill="none" stroke-width="0.79701" stroke-linecap="butt" stroke-linejoin="miter" stroke="rgb(25%, 25%, 25%)" stroke-opacity="1" stroke-miterlimit="10" d="M 97.886719 96.557875 L 97.886719 99.214125 " transform="matrix(1, 0, 0, -1, 0, 113.386)"/>
<path fill="none" stroke-width="0.79701" stroke-linecap="butt" stroke-linejoin="miter" stroke="rgb(25%, 25%, 25%)" stroke-opacity="1" stroke-miterlimit="10" d="M 97.886719 98.550062 L 99.214844 98.550062 " transform="matrix(1, 0, 0, -1, 0, 113.386)"/>
<path fill="none" stroke-width="0.79701" stroke-linecap="butt" stroke-linejoin="miter" stroke="rgb(25%, 25%, 25%)" stroke-opacity="1" stroke-miterlimit="10" d="M 98.550781 97.886 L 98.550781 99.214125 " transform="matrix(1, 0, 0, -1, 0, 113.386)"/>
<path fill="none" stroke-width="0.79701" stroke-linecap="butt" stroke-linejoin="miter" stroke="rgb(25%, 25%, 25%)" stroke-opacity="1" stroke-miterlimit="10" d="M 14.171875 14.175062 L 14.171875 99.214125 L 99.214844 99.214125 L 99.214844 14.175062 Z M 14.171875 14.175062 " transform="matrix(1, 0, 0, -1, 0, 113.386)"/>
</svg>
