<?xml version="1.0" encoding="UTF-8"?>
<svg xmlns="http://www.w3.org/2000/svg" xmlns:xlink="http://www.w3.org/1999/xlink" width="113.386" height="113.386" viewBox="0 0 113.386 113.386">
<defs>
<clipPath id="clip-0">
<path clip-rule="nonzero" d="M 0 19 L 113.386719 19 L 113.386719 113.386719 L 0 113.386719 Z M 0 19 "/>
</clipPath>
<clipPath id="clip-1">
<path clip-rule="nonzero" d="M 0 12 L 113.386719 12 L 113.386719 79 L 0 79 Z M 0 12 "/>
</clipPath>
</defs>
<path fill-rule="nonzero" fill="rgb(50%, 50%, 50%)" fill-opacity="0.5" d="M 38.976562 88.582031 L 38.976562 56.691406 C 38.976562 56.691406 40.257812 55.4375 40.75 54.976562 C 41.238281 54.515625 42.027344 53.800781 42.519531 53.371094 C 43.011719 52.941406 43.800781 52.277344 44.292969 51.875 C 44.78125 51.476562 45.570312 50.859375 46.0625 50.492188 C 46.554688 50.125 47.34375 49.554688 47.835938 49.21875 C 48.328125 48.878906 49.113281 48.363281 49.605469 48.054688 C 50.097656 47.75 50.886719 47.28125 51.378906 47.003906 C 51.871094 46.726562 52.65625 46.308594 53.148438 46.0625 C 53.640625 45.816406 54.429688 45.449219 54.921875 45.230469 C 55.414062 45.015625 56.203125 44.695312 56.691406 44.511719 C 57.183594 44.328125 57.972656 44.058594 58.464844 43.902344 C 58.957031 43.75 59.746094 43.527344 60.238281 43.40625 C 60.726562 43.28125 61.515625 43.109375 62.007812 43.019531 C 62.5 42.925781 63.289062 42.800781 63.78125 42.742188 C 64.269531 42.679688 65.058594 42.605469 65.550781 42.574219 C 66.042969 42.542969 66.832031 42.519531 67.324219 42.519531 C 67.816406 42.519531 68.601562 42.542969 69.09375 42.574219 C 69.585938 42.605469 70.375 42.679688 70.867188 42.742188 C 71.359375 42.800781 72.148438 42.925781 72.636719 43.019531 C 73.128906 43.109375 73.917969 43.28125 74.410156 43.40625 C 74.902344 43.527344 75.691406 43.75 76.179688 43.902344 C 76.671875 44.058594 77.460938 44.328125 77.953125 44.511719 C 78.445312 44.695312 79.234375 45.015625 79.726562 45.230469 C 80.214844 45.449219 81.496094 46.0625 81.496094 46.0625 L 81.496094 88.582031 "/>
<path fill="none" stroke-width="0.79701" stroke-linecap="butt" stroke-linejoin="miter" stroke="rgb(0%, 0%, 0%)" stroke-opacity="1" stroke-miterlimit="10" d="M -14.174094 0.00096875 L 73.29075 0.00096875 " transform="matrix(1, 0, 0, -1, 24.803, 88.583)"/>
<path fill-rule="nonzero" fill="rgb(0%, 0%, 0%)" fill-opacity="1" d="M 102.757812 88.582031 C 101.375 88.324219 99.128906 87.546875 97.578125 86.640625 L 97.578125 90.527344 C 99.128906 89.617188 101.375 88.84375 102.757812 88.582031 "/>
<path fill="none" stroke-width="0.79701" stroke-linecap="butt" stroke-linejoin="miter" stroke="rgb(0%, 0%, 0%)" stroke-opacity="1" stroke-miterlimit="10" d="M 0.0016875 -14.174813 L 0.0016875 73.290031 " transform="matrix(1, 0, 0, -1, 24.803, 88.583)"/>
<path fill-rule="nonzero" fill="rgb(0%, 0%, 0%)" fill-opacity="1" d="M 24.804688 10.628906 C 24.542969 12.011719 23.765625 14.253906 22.859375 15.808594 L 26.746094 15.808594 C 25.839844 14.253906 25.0625 12.011719 24.804688 10.628906 "/>
<g clip-path="url(#clip-0)">
<path fill="none" stroke-width="1.59404" stroke-linecap="butt" stroke-linejoin="miter" stroke="rgb(25%, 25%, 25%)" stroke-opacity="1" stroke-miterlimit="10" d="M -14.174094 -10.631844 C -14.174094 -10.631844 -11.611594 -5.608406 -10.631125 -3.764656 C -9.64675 -1.920906 -8.068625 0.938469 -7.088156 2.657219 C -6.103781 4.379875 -4.525656 7.040031 -3.545188 8.637687 C -2.560813 10.235344 -0.982688 12.700187 0.0016875 14.172844 C 0.982156 15.649406 2.560281 17.915031 3.544656 19.266594 C 4.525125 20.618156 6.10325 22.688469 7.087625 23.918937 C 8.068094 25.1455 9.646219 27.0205 10.630594 28.125969 C 11.614969 29.231437 13.189187 30.907219 14.173562 31.891594 C 15.157937 32.872062 16.732156 34.352531 17.716531 35.211906 C 18.700906 36.071281 20.275125 37.352531 21.2595 38.090812 C 22.243875 38.829094 23.822 39.911125 24.802469 40.528312 C 25.786844 41.141594 27.364969 42.028312 28.345437 42.5205 C 29.329812 43.012687 30.907937 43.700187 31.888406 44.071281 C 32.872781 44.438469 34.450906 44.930656 35.435281 45.17675 C 36.41575 45.422844 37.993875 45.719719 38.97825 45.840812 C 39.958719 45.965812 41.536844 46.063469 42.521219 46.063469 C 43.501688 46.063469 45.079813 45.965812 46.064188 45.840812 C 47.048563 45.719719 48.622781 45.422844 49.607156 45.17675 C 50.591531 44.930656 52.16575 44.438469 53.150125 44.071281 C 54.1345 43.700187 55.708719 43.012687 56.693094 42.5205 C 57.677469 42.028312 59.255594 41.141594 60.236063 40.528312 C 61.220438 39.911125 62.798563 38.829094 63.779031 38.090812 C 64.763406 37.352531 66.341531 36.071281 67.322 35.211906 C 68.306375 34.352531 70.868875 31.891594 70.868875 31.891594 " transform="matrix(1, 0, 0, -1, 24.803, 88.583)"/>
</g>
<g clip-path="url(#clip-1)">
<path fill="none" stroke-width="1.59404" stroke-linecap="butt" stroke-linejoin="miter" stroke="rgb(50%, 50%, 50%)" stroke-opacity="1" stroke-miterlimit="10" d="M -14.174094 32.774406 L 70.868875 54.036125 " transform="matrix(1, 0, 0, -1, 24.803, 88.583)"/>
</g>
</svg>
