<?xml version="1.0" encoding="UTF-8"?>
<svg xmlns="http://www.w3.org/2000/svg" xmlns:xlink="http://www.w3.org/1999/xlink" width="113.386" height="113.386" viewBox="0 0 113.386 113.386">
<defs>
<clipPath id="clip-0">
<path clip-rule="nonzero" d="M 31 9 L 113.386719 9 L 113.386719 82 L 31 82 Z M 31 9 "/>
</clipPath>
</defs>
<path fill="none" stroke-width="0.79701" stroke-linecap="butt" stroke-linejoin="miter" stroke="rgb(0%, 0%, 0%)" stroke-opacity="1" stroke-miterlimit="10" d="M -14.174094 0.00096875 L 73.29075 0.00096875 " transform="matrix(1, 0, 0, -1, 24.803, 88.583)"/>
<path fill-rule="nonzero" fill="rgb(0%, 0%, 0%)" fill-opacity="1" d="M 102.757812 88.582031 C 101.375 88.324219 99.128906 87.546875 97.578125 86.640625 L 97.578125 90.527344 C 99.128906 89.617188 101.375 88.84375 102.757812 88.582031 "/>
<path fill="none" stroke-width="0.79701" stroke-linecap="butt" stroke-linejoin="miter" stroke="rgb(0%, 0%, 0%)" stroke-opacity="1" stroke-miterlimit="10" d="M 0.0016875 -14.174813 L 0.0016875 73.290031 " transform="matrix(1, 0, 0, -1, 24.803, 88.583)"/>
<path fill-rule="nonzero" fill="rgb(0%, 0%, 0%)" fill-opacity="1" d="M 24.804688 10.628906 C 24.542969 12.011719 23.765625 14.253906 22.859375 15.808594 L 26.746094 15.808594 C 25.839844 14.253906 25.0625 12.011719 24.804688 10.628906 "/>
<path fill="none" stroke-width="1.59404" stroke-linecap="butt" stroke-linejoin="miter" stroke="rgb(25%, 25%, 25%)" stroke-opacity="1" stroke-miterlimit="10" d="M -14.174094 14.172844 L 28.345437 42.5205 " transform="matrix(1, 0, 0, -1, 24.803, 88.583)"/>
<g clip-path="url(#clip-0)">
<path fill="none" stroke-width="1.59404" stroke-linecap="butt" stroke-linejoin="miter" stroke="rgb(25%, 25%, 25%)" stroke-opacity="1" stroke-miterlimit="10" d="M 29.622781 29.196281 L 70.868875 56.692375 " transform="matrix(1, 0, 0, -1, 24.803, 88.583)"/>
</g>
<path fill-rule="nonzero" fill="rgb(25%, 25%, 25%)" fill-opacity="1" stroke-width="0.79701" stroke-linecap="butt" stroke-linejoin="miter" stroke="rgb(25%, 25%, 25%)" stroke-opacity="1" stroke-miterlimit="10" d="M 30.107156 42.5205 C 30.107156 43.493156 29.318094 44.282219 28.345437 44.282219 C 27.372781 44.282219 26.583719 43.493156 26.583719 42.5205 C 26.583719 41.547844 27.372781 40.758781 28.345437 40.758781 C 29.318094 40.758781 30.107156 41.547844 30.107156 42.5205 Z M 30.107156 42.5205 " transform="matrix(1, 0, 0, -1, 24.803, 88.583)"/>
<path fill="none" stroke-width="1.19553" stroke-linecap="butt" stroke-linejoin="miter" stroke="rgb(25%, 25%, 25%)" stroke-opacity="1" stroke-miterlimit="10" d="M 30.107156 28.348625 C 30.107156 29.321281 29.318094 30.106437 28.345437 30.106437 C 27.372781 30.106437 26.583719 29.321281 26.583719 28.348625 C 26.583719 27.375969 27.372781 26.586906 28.345437 26.586906 C 29.318094 26.586906 30.107156 27.375969 30.107156 28.348625 Z M 30.107156 28.348625 " transform="matrix(1, 0, 0, -1, 24.803, 88.583)"/>
</svg>
