<?xml version="1.0" encoding="UTF-8"?>
<svg xmlns="http://www.w3.org/2000/svg" xmlns:xlink="http://www.w3.org/1999/xlink" width="113.386" height="113.386" viewBox="0 0 113.386 113.386">
<path fill-rule="nonzero" fill="rgb(50%, 50%, 50%)" fill-opacity="0.5" stroke-width="0.3985" stroke-linecap="butt" stroke-linejoin="miter" stroke="rgb(0%, 0%, 0%)" stroke-opacity="1" stroke-miterlimit="10" d="M 14.174656 -42.519063 L 28.346531 -42.519063 C 28.346531 -37.456563 25.643406 -32.776875 21.260594 -30.245625 C 18.041844 -28.390156 14.225437 -27.870625 10.631687 -28.796406 " transform="matrix(1, 0, 0, -1, 14.173, 42.52)"/>
<path fill="none" stroke-width="1.59404" stroke-linecap="butt" stroke-linejoin="miter" stroke="rgb(25%, 25%, 25%)" stroke-opacity="1" stroke-miterlimit="10" d="M 14.174656 -42.519063 L 78.225437 -42.519063 " transform="matrix(1, 0, 0, -1, 14.173, 42.52)"/>
<path fill-rule="nonzero" fill="rgb(25%, 25%, 25%)" fill-opacity="1" d="M 99.214844 85.039062 C 97.195312 84.660156 93.914062 83.527344 91.640625 82.199219 L 91.640625 87.878906 C 93.914062 86.554688 97.195312 85.417969 99.214844 85.039062 "/>
<path fill="none" stroke-width="1.59404" stroke-linecap="butt" stroke-linejoin="miter" stroke="rgb(50%, 50%, 50%)" stroke-opacity="1" stroke-miterlimit="10" d="M 14.174656 -42.519063 L 1.651219 7.562969 " transform="matrix(1, 0, 0, -1, 14.173, 42.52)"/>
<path fill-rule="nonzero" fill="rgb(50%, 50%, 50%)" fill-opacity="1" d="M 14.171875 28.347656 C 14.296875 30.398438 13.988281 33.855469 13.253906 36.378906 L 18.765625 35.003906 C 16.925781 33.121094 15.03125 30.214844 14.171875 28.347656 "/>
<path fill-rule="nonzero" fill="rgb(0%, 0%, 0%)" fill-opacity="1" stroke-width="0.79701" stroke-linecap="butt" stroke-linejoin="miter" stroke="rgb(0%, 0%, 0%)" stroke-opacity="1" stroke-miterlimit="10" d="M 15.936375 -42.519063 C 15.936375 -41.546406 15.147312 -40.757344 14.174656 -40.757344 C 13.202 -40.757344 12.412937 -41.546406 12.412937 -42.519063 C 12.412937 -43.491719 13.202 -44.280781 14.174656 -44.280781 C 15.147312 -44.280781 15.936375 -43.491719 15.936375 -42.519063 Z M 15.936375 -42.519063 " transform="matrix(1, 0, 0, -1, 14.173, 42.52)"/>
</svg>
