<?xml version="1.0" encoding="UTF-8"?>
<svg xmlns="http://www.w3.org/2000/svg" xmlns:xlink="http://www.w3.org/1999/xlink" width="113.386" height="113.386" viewBox="0 0 113.386 113.386">
<defs>
<clipPath id="clip-0">
<path clip-rule="nonzero" d="M 0 0 L 112 0 L 112 113.386719 L 0 113.386719 Z M 0 0 "/>
</clipPath>
<clipPath id="clip-1">
<path clip-rule="nonzero" d="M 35 0 L 113.386719 0 L 113.386719 79 L 35 79 Z M 35 0 "/>
</clipPath>
<clipPath id="clip-2">
<path clip-rule="nonzero" d="M 0 42 L 71 42 L 71 113.386719 L 0 113.386719 Z M 0 42 "/>
</clipPath>
</defs>
<path fill="none" stroke-width="0.79701" stroke-linecap="butt" stroke-linejoin="miter" stroke="rgb(0%, 0%, 0%)" stroke-opacity="1" stroke-miterlimit="10" d="M -42.521094 0.001625 L 44.94375 0.001625 " transform="matrix(1, 0, 0, -1, 53.15, 60.236)"/>
<path fill-rule="nonzero" fill="rgb(0%, 0%, 0%)" fill-opacity="1" d="M 102.757812 60.234375 C 101.375 59.976562 99.128906 59.199219 97.578125 58.292969 L 97.578125 62.179688 C 99.128906 61.273438 101.375 60.496094 102.757812 60.234375 "/>
<path fill="none" stroke-width="0.79701" stroke-linecap="butt" stroke-linejoin="miter" stroke="rgb(0%, 0%, 0%)" stroke-opacity="1" stroke-miterlimit="10" d="M -0.0015625 -42.521813 L -0.0015625 44.943031 " transform="matrix(1, 0, 0, -1, 53.15, 60.236)"/>
<path fill-rule="nonzero" fill="rgb(0%, 0%, 0%)" fill-opacity="1" d="M 53.148438 10.628906 C 52.890625 12.011719 52.113281 14.253906 51.207031 15.808594 L 55.09375 15.808594 C 54.1875 14.253906 53.410156 12.011719 53.148438 10.628906 "/>
<g clip-path="url(#clip-0)">
<path fill="none" stroke-width="1.59404" stroke-linecap="butt" stroke-linejoin="miter" stroke="rgb(25%, 25%, 25%)" stroke-opacity="1" stroke-miterlimit="10" d="M -36.200781 -42.514 C -36.200781 -42.514 -36.095312 -41.935875 -36.05625 -41.717125 C -36.013281 -41.498375 -35.950781 -41.146813 -35.911719 -40.928063 C -35.86875 -40.709313 -35.80625 -40.361656 -35.767187 -40.146813 C -35.724219 -39.931969 -35.661719 -39.588219 -35.61875 -39.373375 C -35.579687 -39.158531 -35.517187 -38.818688 -35.474219 -38.60775 C -35.435156 -38.396813 -35.372656 -38.056969 -35.329687 -37.846031 C -35.290625 -37.639 -35.224219 -37.303063 -35.185156 -37.096031 C -35.146094 -36.889 -35.079687 -36.556969 -35.040625 -36.349938 C -35.001562 -36.146813 -34.935156 -35.818688 -34.896094 -35.615563 C -34.857031 -35.412438 -34.790625 -35.084313 -34.751562 -34.885094 C -34.7125 -34.681969 -34.646094 -34.361656 -34.607031 -34.162438 C -34.567969 -33.963219 -34.501562 -33.642906 -34.4625 -33.447594 C -34.419531 -33.248375 -34.357031 -32.931969 -34.317969 -32.736656 C -34.275 -32.541344 -34.2125 -32.23275 -34.173437 -32.037438 C -34.130469 -31.842125 -34.067969 -31.533531 -34.025 -31.342125 C -33.985937 -31.150719 -33.923437 -30.846031 -33.880469 -30.658531 C -33.841406 -30.467125 -33.778906 -30.166344 -33.735937 -29.978844 C -33.696875 -29.791344 -33.630469 -29.490563 -33.591406 -29.303063 C -33.552344 -29.119469 -33.485937 -28.822594 -33.446875 -28.639 C -33.407812 -28.455406 -33.341406 -28.162438 -33.302344 -27.98275 C -33.263281 -27.799156 -33.196875 -27.510094 -33.157812 -27.330406 C -33.11875 -27.150719 -33.052344 -26.861656 -33.013281 -26.685875 C -32.970312 -26.506188 -32.907812 -26.224938 -32.86875 -26.04525 C -32.825781 -25.869469 -32.763281 -25.588219 -32.724219 -25.416344 C -32.68125 -25.240563 -32.61875 -24.963219 -32.575781 -24.791344 C -32.536719 -24.619469 -32.474219 -24.346031 -32.43125 -24.174156 C -32.392187 -24.006188 -32.329687 -23.73275 -32.286719 -23.564781 C -32.247656 -23.396813 -32.18125 -23.127281 -32.142187 -22.959313 C -32.103125 -22.79525 -32.036719 -22.529625 -31.997656 -22.365563 C -31.958594 -22.197594 -31.892187 -21.935875 -31.853125 -21.771813 C -31.814062 -21.611656 -31.747656 -21.349938 -31.708594 -21.189781 C -31.669531 -21.029625 -31.603125 -20.771813 -31.564062 -20.611656 C -31.525 -20.455406 -31.458594 -20.2015 -31.419531 -20.041344 C -31.376562 -19.885094 -31.314062 -19.635094 -31.275 -19.478844 C -31.232031 -19.322594 -31.169531 -19.0765 -31.130469 -18.92025 C -31.0875 -18.767906 -31.025 -18.521813 -30.982031 -18.369469 C -30.942969 -18.217125 -30.880469 -17.974938 -30.8375 -17.8265 C -30.798437 -17.674156 -30.735937 -17.435875 -30.692969 -17.287438 C -30.653906 -17.139 -30.5875 -16.904625 -30.548437 -16.756188 C -30.509375 -16.611656 -30.442969 -16.377281 -30.403906 -16.23275 C -30.364844 -16.088219 -30.298437 -15.85775 -30.259375 -15.713219 C -30.220312 -15.568688 -30.153906 -15.342125 -30.114844 -15.2015 C -30.075781 -15.060875 -30.009375 -14.834313 -29.970312 -14.693688 C -29.927344 -14.556969 -29.864844 -14.334313 -29.825781 -14.193688 C -29.782812 -14.056969 -29.720312 -13.838219 -29.68125 -13.7015 C -29.638281 -13.564781 -29.575781 -13.349938 -29.532812 -13.213219 C -29.49375 -13.080406 -29.43125 -12.865563 -29.388281 -12.73275 C -29.349219 -12.599938 -29.286719 -12.389 -29.24375 -12.256188 C -29.204687 -12.127281 -29.142187 -11.916344 -29.099219 -11.787438 C -29.060156 -11.658531 -28.99375 -11.4515 -28.954687 -11.3265 C -28.915625 -11.197594 -28.849219 -10.994469 -28.810156 -10.869469 C -28.771094 -10.744469 -28.704687 -10.541344 -28.665625 -10.42025 C -28.626562 -10.29525 -28.560156 -10.096031 -28.521094 -9.974938 C -28.482031 -9.849938 -28.415625 -9.654625 -28.376562 -9.533531 C -28.333594 -9.412438 -28.271094 -9.221031 -28.232031 -9.099938 C -28.189062 -8.98275 -28.126562 -8.791344 -28.0875 -8.674156 C -28.044531 -8.556969 -27.982031 -8.369469 -27.939062 -8.252281 C -27.9 -8.139 -27.8375 -7.9515 -27.794531 -7.838219 C -27.755469 -7.724938 -27.692969 -7.541344 -27.65 -7.428063 C -27.610937 -7.314781 -27.544531 -7.135094 -27.505469 -7.025719 C -27.466406 -6.912438 -27.4 -6.736656 -27.360937 -6.627281 C -27.321875 -6.517906 -27.255469 -6.342125 -27.216406 -6.236656 C -27.177344 -6.127281 -27.110937 -5.955406 -27.071875 -5.849938 C -27.032812 -5.740563 -26.966406 -5.572594 -26.927344 -5.467125 C -26.888281 -5.361656 -26.821875 -5.193688 -26.782812 -5.092125 C -26.739844 -4.990563 -26.677344 -4.822594 -26.638281 -4.721031 C -26.595312 -4.619469 -26.532812 -4.459313 -26.49375 -4.35775 C -26.450781 -4.260094 -26.388281 -4.099938 -26.345312 -3.998375 C -26.30625 -3.900719 -26.24375 -3.744469 -26.200781 -3.646813 C -26.161719 -3.549156 -26.099219 -3.392906 -26.05625 -3.299156 C -26.017187 -3.205406 -25.950781 -3.053063 -25.911719 -2.955406 C -25.872656 -2.861656 -25.80625 -2.713219 -25.767187 -2.619469 C -25.728125 -2.525719 -25.661719 -2.381188 -25.622656 -2.287438 C -25.583594 -2.197594 -25.517187 -2.053063 -25.478125 -1.963219 C -25.439062 -1.873375 -25.372656 -1.728844 -25.333594 -1.642906 C -25.290625 -1.553063 -25.228125 -1.412438 -25.189062 -1.3265 C -25.146094 -1.240563 -25.083594 -1.103844 -25.044531 -1.017906 C -25.001562 -0.931969 -24.939062 -0.79525 -24.896094 -0.713219 C -24.857031 -0.627281 -24.794531 -0.494469 -24.751562 -0.412438 C -24.7125 -0.330406 -24.65 -0.197594 -24.607031 -0.119469 C -24.567969 -0.0374375 -24.501562 0.0914687 -24.4625 0.169594 C -24.423437 0.251625 -24.357031 0.376625 -24.317969 0.45475 C -24.278906 0.532875 -24.2125 0.657875 -24.173437 0.736 C -24.134375 0.810219 -24.067969 0.935219 -24.028906 1.009437 C -23.989844 1.083656 -23.923437 1.20475 -23.884375 1.278969 C -23.845312 1.353187 -23.778906 1.470375 -23.739844 1.540687 C -23.696875 1.614906 -23.634375 1.728187 -23.595312 1.802406 C -23.552344 1.872719 -23.489844 1.986 -23.450781 2.056312 C -23.407812 2.126625 -23.345312 2.236 -23.302344 2.302406 C -23.263281 2.372719 -23.200781 2.482094 -23.157812 2.5485 C -23.11875 2.614906 -23.05625 2.724281 -23.013281 2.786781 C -22.974219 2.853187 -22.907812 2.958656 -22.86875 3.021156 C -22.829687 3.087562 -22.763281 3.189125 -22.724219 3.251625 C -22.685156 3.314125 -22.61875 3.415687 -22.579687 3.478187 C -22.540625 3.540687 -22.474219 3.638344 -22.435156 3.696937 C -22.396094 3.759437 -22.329687 3.857094 -22.290625 3.915687 C -22.247656 3.974281 -22.185156 4.068031 -22.146094 4.126625 C -22.103125 4.185219 -22.040625 4.275062 -22.001562 4.333656 C -21.958594 4.388344 -21.896094 4.478187 -21.853125 4.532875 C -21.814062 4.587562 -21.751562 4.677406 -21.708594 4.732094 C -21.669531 4.786781 -21.607031 4.872719 -21.564062 4.9235 C -21.525 4.978187 -21.4625 5.060219 -21.419531 5.111 C -21.380469 5.165687 -21.314062 5.247719 -21.275 5.294594 C -21.235937 5.345375 -21.169531 5.427406 -21.130469 5.474281 C -21.091406 5.525062 -21.025 5.603187 -20.985937 5.650062 C -20.946875 5.696937 -20.880469 5.775062 -20.841406 5.821937 C -20.802344 5.868812 -20.735937 5.943031 -20.696875 5.986 C -20.653906 6.032875 -20.591406 6.103187 -20.552344 6.150062 C -20.509375 6.193031 -20.446875 6.263344 -20.407812 6.306312 C -20.364844 6.349281 -20.302344 6.419594 -20.259375 6.458656 C -20.220312 6.501625 -20.157812 6.568031 -20.114844 6.611 C -20.075781 6.650062 -20.013281 6.712562 -19.970312 6.755531 C -19.93125 6.794594 -19.864844 6.857094 -19.825781 6.896156 C -19.786719 6.935219 -19.720312 6.993812 -19.68125 7.032875 C -19.642187 7.068031 -19.575781 7.126625 -19.536719 7.165687 C -19.497656 7.200844 -19.43125 7.255531 -19.392187 7.290687 C -19.353125 7.325844 -19.286719 7.384437 -19.247656 7.415687 C -19.204687 7.450844 -19.142187 7.505531 -19.103125 7.536781 C -19.060156 7.568031 -18.997656 7.622719 -18.958594 7.653969 C -18.915625 7.685219 -18.853125 7.736 -18.814062 7.76725 C -18.771094 7.794594 -18.708594 7.845375 -18.665625 7.872719 C -18.626562 7.903969 -18.564062 7.950844 -18.521094 7.978187 C -18.482031 8.005531 -18.419531 8.052406 -18.376562 8.07975 C -18.3375 8.107094 -18.271094 8.150062 -18.232031 8.177406 C -18.192969 8.200844 -18.126562 8.243812 -18.0875 8.26725 C -18.048437 8.294594 -17.982031 8.333656 -17.942969 8.357094 C -17.903906 8.380531 -17.8375 8.419594 -17.798437 8.443031 C -17.759375 8.466469 -17.692969 8.501625 -17.653906 8.525062 C -17.610937 8.5485 -17.548437 8.583656 -17.509375 8.603187 C -17.466406 8.622719 -17.403906 8.657875 -17.364844 8.677406 C -17.321875 8.696937 -17.259375 8.728187 -17.216406 8.747719 C -17.177344 8.76725 -17.114844 8.7985 -17.071875 8.814125 C -17.032812 8.833656 -16.970312 8.861 -16.927344 8.880531 C -16.888281 8.896156 -16.821875 8.9235 -16.782812 8.939125 C -16.74375 8.95475 -16.677344 8.982094 -16.638281 8.993812 C -16.599219 9.009437 -16.532812 9.032875 -16.49375 9.0485 C -16.454687 9.064125 -16.388281 9.083656 -16.349219 9.099281 C -16.310156 9.111 -16.24375 9.130531 -16.204687 9.146156 C -16.165625 9.157875 -16.099219 9.177406 -16.060156 9.189125 C -16.017187 9.196937 -15.954687 9.216469 -15.915625 9.228187 C -15.872656 9.236 -15.810156 9.251625 -15.771094 9.263344 C -15.728125 9.271156 -15.665625 9.286781 -15.622656 9.294594 C -15.583594 9.302406 -15.521094 9.318031 -15.478125 9.325844 C -15.439062 9.333656 -15.376562 9.345375 -15.333594 9.353187 C -15.294531 9.357094 -15.228125 9.368812 -15.189062 9.372719 C -15.15 9.380531 -15.083594 9.388344 -15.044531 9.396156 C -15.005469 9.400062 -14.939062 9.407875 -14.9 9.411781 C -14.860937 9.415687 -14.794531 9.4235 -14.755469 9.4235 C -14.716406 9.427406 -14.65 9.431312 -14.610937 9.435219 C -14.567969 9.439125 -14.505469 9.443031 -14.466406 9.443031 C -14.423437 9.443031 -14.360937 9.446937 -14.321875 9.446937 C -14.278906 9.446937 -14.216406 9.450844 -14.173437 9.450844 C -14.134375 9.450844 -14.071875 9.446937 -14.028906 9.446937 C -13.989844 9.446937 -13.927344 9.446937 -13.884375 9.443031 C -13.845312 9.443031 -13.778906 9.439125 -13.739844 9.435219 C -13.700781 9.435219 -13.634375 9.427406 -13.595312 9.427406 C -13.55625 9.4235 -13.489844 9.415687 -13.450781 9.411781 C -13.411719 9.407875 -13.345312 9.400062 -13.30625 9.396156 C -13.267187 9.39225 -13.200781 9.384437 -13.161719 9.376625 C -13.122656 9.372719 -13.05625 9.364906 -13.017187 9.357094 C -12.974219 9.349281 -12.911719 9.341469 -12.872656 9.333656 C -12.829687 9.325844 -12.767187 9.314125 -12.728125 9.306312 C -12.685156 9.2985 -12.622656 9.286781 -12.579687 9.278969 C -12.540625 9.26725 -12.478125 9.255531 -12.435156 9.243812 C -12.396094 9.236 -12.333594 9.220375 -12.290625 9.208656 C -12.251562 9.200844 -12.185156 9.185219 -12.146094 9.1735 C -12.107031 9.161781 -12.040625 9.146156 -12.001562 9.134437 C -11.9625 9.122719 -11.896094 9.103187 -11.857031 9.091469 C -11.817969 9.07975 -11.751562 9.060219 -11.7125 9.044594 C -11.673437 9.032875 -11.607031 9.013344 -11.567969 8.997719 C -11.525 8.986 -11.4625 8.962562 -11.423437 8.950844 C -11.380469 8.935219 -11.317969 8.911781 -11.278906 8.896156 C -11.235937 8.884437 -11.173437 8.857094 -11.134375 8.845375 C -11.091406 8.82975 -11.028906 8.802406 -10.985937 8.786781 C -10.946875 8.771156 -10.884375 8.743812 -10.841406 8.728187 C -10.802344 8.712562 -10.739844 8.685219 -10.696875 8.665687 C -10.657812 8.650062 -10.591406 8.622719 -10.552344 8.603187 C -10.513281 8.583656 -10.446875 8.556312 -10.407812 8.536781 C -10.36875 8.51725 -10.302344 8.489906 -10.263281 8.470375 C -10.224219 8.450844 -10.157812 8.419594 -10.11875 8.400062 C -10.079687 8.380531 -10.013281 8.349281 -9.974219 8.325844 C -9.93125 8.306312 -9.86875 8.275062 -9.829687 8.251625 C -9.786719 8.232094 -9.724219 8.196937 -9.685156 8.177406 C -9.642187 8.153969 -9.579687 8.118812 -9.536719 8.099281 C -9.497656 8.075844 -9.435156 8.040687 -9.392187 8.01725 C -9.353125 7.997719 -9.290625 7.958656 -9.247656 7.935219 C -9.208594 7.911781 -9.142187 7.876625 -9.103125 7.853187 C -9.064062 7.82975 -8.997656 7.790687 -8.958594 7.76725 C -8.919531 7.739906 -8.853125 7.700844 -8.814062 7.677406 C -8.775 7.653969 -8.708594 7.614906 -8.669531 7.587562 C -8.630469 7.564125 -8.564062 7.521156 -8.525 7.497719 C -8.485937 7.470375 -8.419531 7.431312 -8.380469 7.403969 C -8.3375 7.376625 -8.275 7.333656 -8.235937 7.306312 C -8.192969 7.282875 -8.130469 7.239906 -8.091406 7.212562 C -8.048437 7.185219 -7.985937 7.14225 -7.942969 7.111 C -7.903906 7.083656 -7.841406 7.040687 -7.798437 7.013344 C -7.759375 6.986 -7.696875 6.939125 -7.653906 6.911781 C -7.614844 6.880531 -7.548437 6.837562 -7.509375 6.806312 C -7.470312 6.778969 -7.403906 6.732094 -7.364844 6.700844 C -7.325781 6.6735 -7.259375 6.626625 -7.220312 6.595375 C -7.18125 6.564125 -7.114844 6.51725 -7.075781 6.486 C -7.036719 6.458656 -6.970312 6.407875 -6.93125 6.376625 C -6.888281 6.349281 -6.825781 6.2985 -6.786719 6.26725 C -6.74375 6.236 -6.68125 6.185219 -6.642187 6.153969 C -6.599219 6.122719 -6.536719 6.071937 -6.49375 6.040687 C -6.454687 6.009437 -6.392187 5.958656 -6.349219 5.927406 C -6.310156 5.89225 -6.247656 5.841469 -6.204687 5.810219 C -6.165625 5.775062 -6.099219 5.724281 -6.060156 5.693031 C -6.021094 5.657875 -5.954687 5.607094 -5.915625 5.571937 C -5.876562 5.540687 -5.810156 5.486 -5.771094 5.450844 C -5.732031 5.419594 -5.665625 5.364906 -5.626562 5.32975 C -5.5875 5.2985 -5.521094 5.243812 -5.482031 5.208656 C -5.442969 5.1735 -5.376562 5.118812 -5.3375 5.083656 C -5.294531 5.0485 -5.232031 4.993812 -5.192969 4.958656 C -5.15 4.9235 -5.0875 4.868812 -5.048437 4.833656 C -5.005469 4.7985 -4.942969 4.739906 -4.9 4.70475 C -4.860937 4.669594 -4.798437 4.614906 -4.755469 4.57975 C -4.716406 4.544594 -4.653906 4.486 -4.610937 4.450844 C -4.571875 4.411781 -4.505469 4.357094 -4.466406 4.318031 C -4.427344 4.282875 -4.360937 4.224281 -4.321875 4.189125 C -4.282812 4.150062 -4.216406 4.091469 -4.177344 4.056312 C -4.138281 4.021156 -4.071875 3.962562 -4.032812 3.9235 C -3.99375 3.888344 -3.927344 3.825844 -3.888281 3.790687 C -3.845312 3.751625 -3.782812 3.693031 -3.74375 3.653969 C -3.700781 3.618812 -3.638281 3.556312 -3.599219 3.521156 C -3.55625 3.482094 -3.49375 3.4235 -3.450781 3.384437 C -3.411719 3.345375 -3.349219 3.286781 -3.30625 3.247719 C -3.267187 3.208656 -3.204687 3.150062 -3.161719 3.111 C -3.122656 3.071937 -3.060156 3.009437 -3.017187 2.974281 C -2.978125 2.935219 -2.911719 2.872719 -2.872656 2.833656 C -2.833594 2.794594 -2.767187 2.732094 -2.728125 2.693031 C -2.689062 2.657875 -2.622656 2.595375 -2.583594 2.556312 C -2.544531 2.51725 -2.478125 2.45475 -2.439062 2.415687 C -2.4 2.376625 -2.333594 2.314125 -2.294531 2.275062 C -2.251562 2.236 -2.189062 2.1735 -2.15 2.130531 C -2.107031 2.091469 -2.044531 2.028969 -2.005469 1.989906 C -1.9625 1.950844 -1.9 1.888344 -1.857031 1.849281 C -1.817969 1.810219 -1.755469 1.743812 -1.7125 1.70475 C -1.673437 1.665687 -1.610937 1.603187 -1.567969 1.564125 C -1.528906 1.521156 -1.4625 1.458656 -1.423437 1.419594 C -1.384375 1.380531 -1.317969 1.314125 -1.278906 1.275062 C -1.239844 1.236 -1.173437 1.1735 -1.134375 1.130531 C -1.095312 1.091469 -1.028906 1.028969 -0.989844 0.986 C -0.950781 0.946937 -0.884375 0.884437 -0.845312 0.845375 C -0.80625 0.802406 -0.739844 0.739906 -0.700781 0.700844 C -0.657812 0.657875 -0.595312 0.595375 -0.55625 0.556312 C -0.513281 0.513344 -0.450781 0.450844 -0.411719 0.407875 C -0.36875 0.368812 -0.30625 0.306312 -0.263281 0.263344 C -0.224219 0.224281 -0.161719 0.161781 -0.11875 0.118812 C -0.0796875 0.07975 -0.0171875 0.01725 0.0257813 -0.0257188 C 0.0648438 -0.0647813 0.13125 -0.131188 0.170313 -0.17025 C 0.209375 -0.209313 0.275781 -0.275719 0.314844 -0.314781 C 0.353906 -0.353844 0.420313 -0.42025 0.459375 -0.459313 C 0.498438 -0.498375 0.564844 -0.564781 0.603906 -0.603844 C 0.642969 -0.642906 0.709375 -0.709313 0.748438 -0.748375 C 0.791406 -0.787438 0.853906 -0.853844 0.892969 -0.892906 C 0.935938 -0.931969 0.998438 -0.998375 1.0375 -1.037438 C 1.080469 -1.0765 1.142969 -1.142906 1.185938 -1.181969 C 1.225 -1.221031 1.2875 -1.283531 1.330469 -1.3265 C 1.369531 -1.365563 1.432031 -1.428063 1.475 -1.467125 C 1.514063 -1.510094 1.580469 -1.572594 1.619531 -1.611656 C 1.658594 -1.650719 1.725 -1.717125 1.764063 -1.756188 C 1.803125 -1.79525 1.869531 -1.85775 1.908594 -1.896813 C 1.947656 -1.935875 2.014063 -1.998375 2.053125 -2.037438 C 2.092188 -2.080406 2.158594 -2.142906 2.197656 -2.181969 C 2.236719 -2.221031 2.303125 -2.283531 2.342188 -2.322594 C 2.385156 -2.361656 2.447656 -2.424156 2.486719 -2.463219 C 2.529688 -2.502281 2.592188 -2.564781 2.63125 -2.603844 C 2.674219 -2.642906 2.736719 -2.705406 2.779688 -2.740563 C 2.81875 -2.779625 2.88125 -2.842125 2.924219 -2.881188 C 2.963281 -2.92025 3.025781 -2.98275 3.06875 -3.021813 C 3.107813 -3.056969 3.174219 -3.119469 3.213281 -3.158531 C 3.252344 -3.197594 3.31875 -3.256188 3.357813 -3.29525 C 3.396875 -3.334313 3.463281 -3.392906 3.502344 -3.431969 C 3.541406 -3.471031 3.607813 -3.529625 3.646875 -3.568688 C 3.685938 -3.603844 3.752344 -3.666344 3.791406 -3.7015 C 3.834375 -3.740563 3.896875 -3.799156 3.935938 -3.834313 C 3.978906 -3.873375 4.041406 -3.931969 4.080469 -3.971031 C 4.123438 -4.006188 4.185938 -4.064781 4.228906 -4.099938 C 4.267969 -4.139 4.330469 -4.197594 4.373438 -4.23275 C 4.4125 -4.267906 4.475 -4.3265 4.517969 -4.365563 C 4.557031 -4.400719 4.619531 -4.459313 4.6625 -4.494469 C 4.701563 -4.529625 4.767969 -4.588219 4.807031 -4.623375 C 4.846094 -4.658531 4.9125 -4.713219 4.951563 -4.748375 C 4.990625 -4.783531 5.057031 -4.842125 5.096094 -4.877281 C 5.135156 -4.912438 5.201563 -4.967125 5.240625 -5.002281 C 5.279688 -5.037438 5.346094 -5.092125 5.385156 -5.127281 C 5.428125 -5.162438 5.490625 -5.217125 5.529688 -5.252281 C 5.572656 -5.283531 5.635156 -5.338219 5.674219 -5.373375 C 5.717188 -5.404625 5.779688 -5.459313 5.822656 -5.494469 C 5.861719 -5.525719 5.924219 -5.580406 5.967188 -5.615563 C 6.00625 -5.646813 6.06875 -5.697594 6.111719 -5.73275 C 6.150781 -5.764 6.217188 -5.818688 6.25625 -5.849938 C 6.295313 -5.881188 6.361719 -5.931969 6.400781 -5.967125 C 6.439844 -5.998375 6.50625 -6.049156 6.545313 -6.080406 C 6.584375 -6.111656 6.650781 -6.162438 6.689844 -6.193688 C 6.728906 -6.224938 6.795313 -6.275719 6.834375 -6.306969 C 6.873438 -6.338219 6.939844 -6.385094 6.978906 -6.416344 C 7.021875 -6.447594 7.084375 -6.494469 7.123438 -6.525719 C 7.166406 -6.556969 7.228906 -6.603844 7.267969 -6.631188 C 7.310938 -6.662438 7.373438 -6.709313 7.416406 -6.736656 C 7.455469 -6.767906 7.517969 -6.814781 7.560938 -6.842125 C 7.6 -6.873375 7.6625 -6.916344 7.705469 -6.947594 C 7.744531 -6.974938 7.810938 -7.017906 7.85 -7.04525 C 7.889063 -7.0765 7.955469 -7.119469 7.994531 -7.146813 C 8.033594 -7.174156 8.1 -7.217125 8.139063 -7.244469 C 8.178125 -7.271813 8.244531 -7.314781 8.283594 -7.342125 C 8.322656 -7.365563 8.389063 -7.408531 8.428125 -7.435875 C 8.471094 -7.463219 8.533594 -7.502281 8.572656 -7.529625 C 8.615625 -7.553063 8.678125 -7.596031 8.717188 -7.619469 C 8.760156 -7.642906 8.822656 -7.685875 8.865625 -7.709313 C 8.904688 -7.73275 8.967188 -7.771813 9.010156 -7.79525 C 9.049219 -7.818688 9.111719 -7.85775 9.154688 -7.881188 C 9.19375 -7.904625 9.260156 -7.943688 9.299219 -7.963219 C 9.338281 -7.986656 9.404688 -8.025719 9.44375 -8.04525 C 9.482813 -8.068688 9.549219 -8.103844 9.588281 -8.127281 C 9.627344 -8.146813 9.69375 -8.181969 9.732813 -8.2015 C 9.771875 -8.224938 9.838281 -8.260094 9.877344 -8.279625 C 9.916406 -8.299156 9.982813 -8.330406 10.021875 -8.353844 C 10.064844 -8.373375 10.127344 -8.404625 10.166406 -8.424156 C 10.209375 -8.443688 10.271875 -8.474938 10.310938 -8.494469 C 10.353906 -8.510094 10.416406 -8.541344 10.459375 -8.560875 C 10.498438 -8.5765 10.560938 -8.60775 10.603906 -8.623375 C 10.642969 -8.642906 10.705469 -8.67025 10.748438 -8.685875 C 10.7875 -8.705406 10.853906 -8.73275 10.892969 -8.748375 C 10.932031 -8.764 10.998438 -8.791344 11.0375 -8.806969 C 11.076563 -8.822594 11.142969 -8.846031 11.182031 -8.861656 C 11.221094 -8.877281 11.2875 -8.900719 11.326563 -8.916344 C 11.365625 -8.931969 11.432031 -8.9515 11.471094 -8.967125 C 11.514063 -8.98275 11.576563 -9.002281 11.615625 -9.014 C 11.658594 -9.029625 11.721094 -9.049156 11.760156 -9.060875 C 11.803125 -9.0765 11.865625 -9.096031 11.908594 -9.10775 C 11.947656 -9.119469 12.010156 -9.135094 12.053125 -9.146813 C 12.092188 -9.158531 12.154688 -9.174156 12.197656 -9.185875 C 12.236719 -9.197594 12.299219 -9.213219 12.342188 -9.221031 C 12.38125 -9.23275 12.447656 -9.248375 12.486719 -9.256188 C 12.525781 -9.264 12.592188 -9.279625 12.63125 -9.287438 C 12.670313 -9.29525 12.736719 -9.306969 12.775781 -9.314781 C 12.814844 -9.322594 12.88125 -9.334313 12.920313 -9.342125 C 12.959375 -9.349938 13.025781 -9.35775 13.064844 -9.365563 C 13.107813 -9.369469 13.170313 -9.381188 13.209375 -9.385094 C 13.252344 -9.389 13.314844 -9.396813 13.353906 -9.404625 C 13.396875 -9.408531 13.459375 -9.412438 13.502344 -9.416344 C 13.541406 -9.42025 13.603906 -9.428063 13.646875 -9.428063 C 13.685938 -9.431969 13.748438 -9.435875 13.791406 -9.439781 C 13.830469 -9.439781 13.896875 -9.443688 13.935938 -9.443688 C 13.975 -9.447594 14.041406 -9.447594 14.080469 -9.447594 C 14.119531 -9.447594 14.185938 -9.447594 14.225 -9.447594 C 14.264063 -9.447594 14.330469 -9.447594 14.369531 -9.447594 C 14.408594 -9.443688 14.475 -9.443688 14.514063 -9.439781 C 14.557031 -9.439781 14.619531 -9.435875 14.658594 -9.431969 C 14.701563 -9.428063 14.764063 -9.424156 14.803125 -9.42025 C 14.846094 -9.416344 14.908594 -9.412438 14.947656 -9.404625 C 14.990625 -9.400719 15.053125 -9.392906 15.096094 -9.389 C 15.135156 -9.381188 15.197656 -9.373375 15.240625 -9.365563 C 15.279688 -9.361656 15.342188 -9.349938 15.385156 -9.342125 C 15.424219 -9.334313 15.490625 -9.322594 15.529688 -9.314781 C 15.56875 -9.306969 15.635156 -9.29525 15.674219 -9.283531 C 15.713281 -9.275719 15.779688 -9.260094 15.81875 -9.252281 C 15.857813 -9.240563 15.924219 -9.224938 15.963281 -9.213219 C 16.002344 -9.2015 16.06875 -9.185875 16.107813 -9.174156 C 16.150781 -9.162438 16.213281 -9.142906 16.252344 -9.127281 C 16.295313 -9.115563 16.357813 -9.096031 16.396875 -9.080406 C 16.439844 -9.068688 16.502344 -9.04525 16.545313 -9.029625 C 16.584375 -9.017906 16.646875 -8.990563 16.689844 -8.974938 C 16.728906 -8.959313 16.791406 -8.935875 16.834375 -8.92025 C 16.873438 -8.900719 16.939844 -8.873375 16.978906 -8.85775 C 17.017969 -8.838219 17.084375 -8.810875 17.123438 -8.791344 C 17.1625 -8.775719 17.228906 -8.744469 17.267969 -8.724938 C 17.307031 -8.705406 17.373438 -8.674156 17.4125 -8.650719 C 17.451563 -8.631188 17.517969 -8.599938 17.557031 -8.5765 C 17.596094 -8.556969 17.6625 -8.521813 17.701563 -8.498375 C 17.744531 -8.474938 17.807031 -8.439781 17.846094 -8.412438 C 17.889063 -8.389 17.951563 -8.353844 17.990625 -8.3265 C 18.033594 -8.303063 18.096094 -8.264 18.139063 -8.236656 C 18.178125 -8.213219 18.240625 -8.17025 18.283594 -8.142906 C 18.322656 -8.115563 18.385156 -8.072594 18.428125 -8.04525 C 18.467188 -8.017906 18.533594 -7.971031 18.572656 -7.943688 C 18.611719 -7.912438 18.678125 -7.865563 18.717188 -7.838219 C 18.75625 -7.806969 18.822656 -7.760094 18.861719 -7.728844 C 18.900781 -7.697594 18.967188 -7.646813 19.00625 -7.615563 C 19.045313 -7.580406 19.111719 -7.529625 19.150781 -7.494469 C 19.19375 -7.463219 19.25625 -7.408531 19.295313 -7.373375 C 19.338281 -7.338219 19.400781 -7.283531 19.439844 -7.248375 C 19.482813 -7.213219 19.545313 -7.154625 19.588281 -7.119469 C 19.627344 -7.080406 19.689844 -7.021813 19.732813 -6.986656 C 19.771875 -6.947594 19.834375 -6.885094 19.877344 -6.846031 C 19.916406 -6.806969 19.982813 -6.744469 20.021875 -6.705406 C 20.060938 -6.666344 20.127344 -6.599938 20.166406 -6.556969 C 20.205469 -6.517906 20.271875 -6.4515 20.310938 -6.408531 C 20.35 -6.365563 20.416406 -6.29525 20.455469 -6.252281 C 20.494531 -6.209313 20.560938 -6.139 20.6 -6.096031 C 20.639063 -6.049156 20.705469 -5.974938 20.744531 -5.931969 C 20.7875 -5.885094 20.85 -5.810875 20.889063 -5.764 C 20.932031 -5.717125 20.994531 -5.639 21.033594 -5.592125 C 21.076563 -5.541344 21.139063 -5.463219 21.182031 -5.416344 C 21.221094 -5.365563 21.283594 -5.283531 21.326563 -5.23275 C 21.365625 -5.181969 21.428125 -5.099938 21.471094 -5.049156 C 21.510156 -4.994469 21.576563 -4.912438 21.615625 -4.85775 C 21.654688 -4.806969 21.721094 -4.717125 21.760156 -4.662438 C 21.799219 -4.60775 21.865625 -4.521813 21.904688 -4.463219 C 21.94375 -4.408531 22.010156 -4.318688 22.049219 -4.260094 C 22.088281 -4.205406 22.154688 -4.111656 22.19375 -4.053063 C 22.236719 -3.994469 22.299219 -3.900719 22.338281 -3.842125 C 22.38125 -3.779625 22.44375 -3.685875 22.482813 -3.623375 C 22.525781 -3.560875 22.588281 -3.463219 22.627344 -3.400719 C 22.670313 -3.338219 22.732813 -3.236656 22.775781 -3.174156 C 22.814844 -3.111656 22.877344 -3.006188 22.920313 -2.943688 C 22.959375 -2.877281 23.021875 -2.771813 23.064844 -2.705406 C 23.103906 -2.639 23.170313 -2.533531 23.209375 -2.467125 C 23.248438 -2.396813 23.314844 -2.287438 23.353906 -2.221031 C 23.392969 -2.150719 23.459375 -2.037438 23.498438 -1.967125 C 23.5375 -1.896813 23.603906 -1.783531 23.642969 -1.713219 C 23.682031 -1.639 23.748438 -1.525719 23.7875 -1.4515 C 23.830469 -1.377281 23.892969 -1.260094 23.932031 -1.185875 C 23.975 -1.111656 24.0375 -0.990563 24.076563 -0.916344 C 24.119531 -0.838219 24.182031 -0.717125 24.225 -0.639 C 24.264063 -0.560875 24.326563 -0.435875 24.369531 -0.35775 C 24.408594 -0.279625 24.471094 -0.150719 24.514063 -0.0725938 C 24.553125 0.0094375 24.619531 0.138344 24.658594 0.220375 C 24.697656 0.2985 24.764063 0.431312 24.803125 0.513344 C 24.842188 0.599281 24.908594 0.732094 24.947656 0.818031 C 24.986719 0.900062 25.053125 1.036781 25.092188 1.122719 C 25.13125 1.208656 25.197656 1.349281 25.236719 1.435219 C 25.275781 1.521156 25.342188 1.661781 25.38125 1.751625 C 25.424219 1.841469 25.486719 1.986 25.525781 2.075844 C 25.56875 2.165687 25.63125 2.310219 25.670313 2.403969 C 25.713281 2.493812 25.775781 2.64225 25.81875 2.736 C 25.857813 2.82975 25.920313 2.978187 25.963281 3.071937 C 26.002344 3.169594 26.064844 3.321937 26.107813 3.419594 C 26.146875 3.513344 26.213281 3.669594 26.252344 3.76725 C 26.291406 3.864906 26.357813 4.021156 26.396875 4.122719 C 26.435938 4.220375 26.502344 4.380531 26.541406 4.482094 C 26.580469 4.583656 26.646875 4.747719 26.685938 4.849281 C 26.725 4.950844 26.791406 5.114906 26.830469 5.220375 C 26.873438 5.325844 26.935938 5.493812 26.975 5.599281 C 27.017969 5.70475 27.080469 5.872719 27.119531 5.982094 C 27.1625 6.087562 27.225 6.259437 27.267969 6.368812 C 27.307031 6.478187 27.369531 6.653969 27.4125 6.763344 C 27.451563 6.872719 27.514063 7.052406 27.557031 7.161781 C 27.596094 7.275062 27.6625 7.45475 27.701563 7.568031 C 27.740625 7.681312 27.807031 7.864906 27.846094 7.978187 C 27.885156 8.095375 27.951563 8.278969 27.990625 8.396156 C 28.029688 8.513344 28.096094 8.700844 28.135156 8.821937 C 28.174219 8.939125 28.240625 9.130531 28.279688 9.247719 C 28.31875 9.368812 28.385156 9.564125 28.424219 9.685219 C 28.467188 9.806312 28.529688 10.001625 28.56875 10.126625 C 28.611719 10.247719 28.674219 10.446937 28.713281 10.571937 C 28.75625 10.696937 28.81875 10.900062 28.861719 11.025062 C 28.900781 11.150062 28.963281 11.357094 29.00625 11.486 C 29.045313 11.611 29.107813 11.818031 29.150781 11.950844 C 29.189844 12.07975 29.25625 12.286781 29.295313 12.419594 C 29.334375 12.552406 29.400781 12.763344 29.439844 12.896156 C 29.478906 13.028969 29.545313 13.243812 29.584375 13.380531 C 29.623438 13.513344 29.689844 13.732094 29.728906 13.868812 C 29.767969 14.005531 29.834375 14.228187 29.873438 14.364906 C 29.916406 14.505531 29.978906 14.728187 30.017969 14.868812 C 30.060938 15.009437 30.123438 15.232094 30.1625 15.376625 C 30.205469 15.51725 30.267969 15.747719 30.310938 15.89225 C 30.35 16.032875 30.4125 16.26725 30.455469 16.411781 C 30.494531 16.556312 30.557031 16.790687 30.6 16.939125 C 30.639063 17.087562 30.701563 17.321937 30.744531 17.474281 C 30.783594 17.622719 30.85 17.861 30.889063 18.013344 C 30.928125 18.161781 30.994531 18.407875 31.033594 18.560219 C 31.072656 18.712562 31.139063 18.958656 31.178125 19.111 C 31.217188 19.26725 31.283594 19.513344 31.322656 19.669594 C 31.361719 19.825844 31.428125 20.07975 31.467188 20.236 C 31.510156 20.396156 31.572656 20.650062 31.611719 20.810219 C 31.654688 20.970375 31.717188 21.228187 31.75625 21.388344 C 31.799219 21.552406 31.861719 21.810219 31.904688 21.974281 C 31.94375 22.138344 32.00625 22.403969 32.049219 22.568031 C 32.088281 22.732094 32.150781 23.001625 32.19375 23.165687 C 32.232813 23.333656 32.299219 23.603187 32.338281 23.775062 C 32.377344 23.943031 32.44375 24.216469 32.482813 24.384437 C 32.521875 24.556312 32.588281 24.833656 32.627344 25.005531 C 32.666406 25.177406 32.732813 25.458656 32.771875 25.630531 C 32.810938 25.806312 32.877344 26.087562 32.916406 26.263344 C 32.955469 26.443031 33.021875 26.728187 33.060938 26.903969 C 33.103906 27.083656 33.166406 27.372719 33.205469 27.552406 C 33.248438 27.732094 33.310938 28.025062 33.35 28.20475 C 33.392969 28.388344 33.455469 28.681312 33.498438 28.868812 C 33.5375 29.052406 33.6 29.349281 33.642969 29.536781 C 33.682031 29.720375 33.744531 30.021156 33.7875 30.208656 C 33.826563 30.400062 33.892969 30.700844 33.932031 30.89225 C 33.971094 31.083656 34.0375 31.388344 34.076563 31.57975 C 34.115625 31.775062 34.182031 32.083656 34.221094 32.278969 C 34.260156 32.470375 34.326563 32.782875 34.365625 32.982094 C 34.404688 33.177406 34.471094 33.493812 34.510156 33.693031 C 34.553125 33.888344 34.615625 34.208656 34.654688 34.407875 C 34.697656 34.611 34.760156 34.931312 34.799219 35.134437 C 34.842188 35.337562 34.904688 35.661781 34.947656 35.864906 C 34.986719 36.071937 35.049219 36.400062 35.092188 36.607094 C 35.13125 36.810219 35.19375 37.146156 35.236719 37.353187 C 35.275781 37.560219 35.342188 37.896156 35.38125 38.107094 C 35.420313 38.318031 35.486719 38.657875 35.525781 38.868812 C 35.564844 39.07975 35.63125 39.4235 35.670313 39.638344 C 35.709375 39.853187 35.775781 40.196937 35.814844 40.415687 C 35.853906 40.630531 35.920313 40.982094 35.959375 41.196937 C 35.998438 41.415687 36.103906 41.989906 36.103906 41.989906 " transform="matrix(1, 0, 0, -1, 53.15, 60.236)"/>
</g>
<g clip-path="url(#clip-1)">
<path fill="none" stroke-width="1.59404" stroke-linecap="butt" stroke-linejoin="miter" stroke="rgb(50%, 50%, 50%)" stroke-opacity="1" stroke-miterlimit="10" d="M 4.725 42.521156 C 4.725 42.521156 4.779688 42.032875 4.799219 41.849281 C 4.822656 41.665687 4.853906 41.376625 4.877344 41.200844 C 4.896875 41.021156 4.932031 40.743812 4.951563 40.568031 C 4.971094 40.396156 5.00625 40.126625 5.025781 39.958656 C 5.049219 39.790687 5.080469 39.528969 5.103906 39.364906 C 5.123438 39.20475 5.158594 38.946937 5.178125 38.790687 C 5.197656 38.634437 5.232813 38.384437 5.252344 38.232094 C 5.275781 38.07975 5.307031 37.837562 5.330469 37.689125 C 5.35 37.540687 5.385156 37.306312 5.404688 37.161781 C 5.428125 37.01725 5.459375 36.786781 5.482813 36.646156 C 5.502344 36.509437 5.5375 36.286781 5.557031 36.150062 C 5.576563 36.013344 5.611719 35.794594 5.63125 35.661781 C 5.654688 35.528969 5.685938 35.318031 5.709375 35.189125 C 5.728906 35.060219 5.764063 34.857094 5.783594 34.728187 C 5.807031 34.603187 5.838281 34.403969 5.861719 34.282875 C 5.88125 34.157875 5.916406 33.962562 5.935938 33.841469 C 5.955469 33.724281 5.990625 33.532875 6.010156 33.419594 C 6.033594 33.302406 6.064844 33.114906 6.088281 33.001625 C 6.107813 32.888344 6.142969 32.708656 6.1625 32.599281 C 6.182031 32.486 6.217188 32.310219 6.236719 32.200844 C 6.260156 32.095375 6.291406 31.919594 6.314844 31.814125 C 6.334375 31.708656 6.369531 31.540687 6.389063 31.439125 C 6.4125 31.333656 6.44375 31.1735 6.467188 31.071937 C 6.486719 30.970375 6.521875 30.810219 6.541406 30.712562 C 6.560938 30.611 6.596094 30.45475 6.615625 30.361 C 6.639063 30.263344 6.670313 30.111 6.69375 30.01725 C 6.713281 29.9235 6.748438 29.771156 6.767969 29.681312 C 6.7875 29.587562 6.822656 29.443031 6.842188 29.353187 C 6.865625 29.263344 6.896875 29.118812 6.920313 29.032875 C 6.939844 28.943031 6.975 28.802406 6.994531 28.716469 C 7.017969 28.630531 7.049219 28.493812 7.072656 28.407875 C 7.092188 28.325844 7.127344 28.193031 7.146875 28.107094 C 7.166406 28.025062 7.201563 27.896156 7.221094 27.814125 C 7.244531 27.732094 7.275781 27.603187 7.299219 27.525062 C 7.31875 27.446937 7.353906 27.321937 7.373438 27.243812 C 7.392969 27.165687 7.428125 27.040687 7.447656 26.966469 C 7.471094 26.888344 7.502344 26.76725 7.525781 26.693031 C 7.545313 26.618812 7.580469 26.501625 7.6 26.427406 C 7.623438 26.357094 7.654688 26.239906 7.678125 26.169594 C 7.697656 26.095375 7.732813 25.982094 7.752344 25.911781 C 7.771875 25.841469 7.807031 25.732094 7.826563 25.661781 C 7.85 25.595375 7.88125 25.486 7.904688 25.415687 C 7.924219 25.349281 7.959375 25.239906 7.978906 25.1735 C 7.998438 25.107094 8.033594 25.005531 8.053125 24.939125 C 8.076563 24.872719 8.107813 24.771156 8.13125 24.708656 C 8.150781 24.64225 8.185938 24.540687 8.205469 24.478187 C 8.228906 24.415687 8.260156 24.318031 8.283594 24.255531 C 8.303125 24.193031 8.338281 24.095375 8.357813 24.036781 C 8.377344 23.974281 8.4125 23.880531 8.432031 23.818031 C 8.455469 23.759437 8.486719 23.665687 8.510156 23.607094 C 8.529688 23.5485 8.564844 23.45475 8.584375 23.400062 C 8.603906 23.341469 8.639063 23.251625 8.658594 23.193031 C 8.682031 23.138344 8.713281 23.0485 8.736719 22.993812 C 8.75625 22.939125 8.791406 22.849281 8.810938 22.794594 C 8.834375 22.743812 8.865625 22.653969 8.889063 22.603187 C 8.908594 22.5485 8.94375 22.462562 8.963281 22.411781 C 8.982813 22.357094 9.017969 22.275062 9.0375 22.224281 C 9.060938 22.1735 9.092188 22.091469 9.115625 22.040687 C 9.135156 21.989906 9.170313 21.907875 9.189844 21.857094 C 9.213281 21.810219 9.244531 21.728187 9.267969 21.681312 C 9.2875 21.630531 9.322656 21.552406 9.342188 21.505531 C 9.361719 21.45475 9.396875 21.380531 9.416406 21.32975 C 9.439844 21.282875 9.471094 21.208656 9.494531 21.161781 C 9.514063 21.114906 9.549219 21.036781 9.56875 20.993812 C 9.588281 20.946937 9.623438 20.872719 9.642969 20.825844 C 9.666406 20.782875 9.697656 20.712562 9.721094 20.665687 C 9.740625 20.622719 9.775781 20.5485 9.795313 20.505531 C 9.81875 20.462562 9.85 20.39225 9.873438 20.349281 C 9.892969 20.306312 9.928125 20.236 9.947656 20.193031 C 9.967188 20.150062 10.002344 20.083656 10.021875 20.040687 C 10.045313 19.997719 10.076563 19.931312 10.1 19.89225 C 10.119531 19.849281 10.154688 19.782875 10.174219 19.743812 C 10.19375 19.70475 10.228906 19.638344 10.248438 19.599281 C 10.271875 19.556312 10.303125 19.493812 10.326563 19.45475 C 10.346094 19.415687 10.38125 19.353187 10.400781 19.314125 C 10.424219 19.275062 10.455469 19.212562 10.478906 19.1735 C 10.498438 19.134437 10.533594 19.071937 10.553125 19.036781 C 10.572656 18.997719 10.607813 18.939125 10.627344 18.900062 C 10.650781 18.861 10.682031 18.802406 10.705469 18.76725 C 10.725 18.728187 10.760156 18.669594 10.779688 18.634437 C 10.799219 18.599281 10.834375 18.540687 10.853906 18.505531 C 10.877344 18.470375 10.908594 18.411781 10.932031 18.376625 C 10.951563 18.341469 10.986719 18.282875 11.00625 18.247719 C 11.029688 18.216469 11.060938 18.157875 11.084375 18.126625 C 11.103906 18.091469 11.139063 18.036781 11.158594 18.001625 C 11.178125 17.966469 11.213281 17.915687 11.232813 17.880531 C 11.25625 17.849281 11.2875 17.794594 11.310938 17.759437 C 11.330469 17.728187 11.365625 17.6735 11.385156 17.64225 C 11.404688 17.611 11.439844 17.560219 11.459375 17.525062 C 11.482813 17.493812 11.514063 17.443031 11.5375 17.411781 C 11.557031 17.380531 11.592188 17.32975 11.611719 17.2985 C 11.635156 17.26725 11.666406 17.216469 11.689844 17.185219 C 11.709375 17.153969 11.744531 17.107094 11.764063 17.075844 C 11.783594 17.044594 11.81875 16.997719 11.838281 16.966469 C 11.861719 16.935219 11.892969 16.888344 11.916406 16.861 C 11.935938 16.82975 11.971094 16.782875 11.990625 16.751625 C 12.010156 16.724281 12.045313 16.677406 12.064844 16.646156 C 12.088281 16.618812 12.119531 16.571937 12.142969 16.544594 C 12.1625 16.513344 12.197656 16.470375 12.217188 16.443031 C 12.240625 16.411781 12.271875 16.368812 12.295313 16.337562 C 12.314844 16.310219 12.35 16.26725 12.369531 16.239906 C 12.389063 16.212562 12.424219 16.169594 12.44375 16.14225 C 12.467188 16.114906 12.498438 16.068031 12.521875 16.044594 C 12.541406 16.01725 12.576563 15.974281 12.596094 15.946937 C 12.615625 15.919594 12.650781 15.876625 12.674219 15.853187 C 12.69375 15.825844 12.728906 15.782875 12.748438 15.759437 C 12.767969 15.732094 12.803125 15.689125 12.822656 15.665687 C 12.846094 15.638344 12.877344 15.599281 12.900781 15.571937 C 12.920313 15.5485 12.955469 15.505531 12.975 15.482094 C 12.994531 15.45475 13.029688 15.415687 13.049219 15.39225 C 13.072656 15.368812 13.103906 15.325844 13.127344 15.302406 C 13.146875 15.278969 13.182031 15.239906 13.201563 15.216469 C 13.225 15.189125 13.25625 15.153969 13.279688 15.130531 C 13.299219 15.103187 13.334375 15.068031 13.353906 15.044594 C 13.373438 15.021156 13.408594 14.982094 13.428125 14.958656 C 13.451563 14.935219 13.482813 14.896156 13.50625 14.872719 C 13.525781 14.849281 13.560938 14.814125 13.580469 14.790687 C 13.6 14.76725 13.635156 14.732094 13.654688 14.708656 C 13.678125 14.685219 13.709375 14.650062 13.732813 14.626625 C 13.752344 14.607094 13.7875 14.568031 13.807031 14.5485 C 13.830469 14.525062 13.861719 14.489906 13.885156 14.466469 C 13.904688 14.446937 13.939844 14.411781 13.959375 14.39225 C 13.978906 14.368812 14.014063 14.333656 14.033594 14.314125 C 14.057031 14.290687 14.088281 14.255531 14.111719 14.236 C 14.13125 14.216469 14.166406 14.181312 14.185938 14.161781 C 14.205469 14.138344 14.240625 14.107094 14.260156 14.083656 C 14.283594 14.064125 14.314844 14.032875 14.338281 14.013344 C 14.357813 13.989906 14.392969 13.958656 14.4125 13.939125 C 14.435938 13.915687 14.467188 13.884437 14.490625 13.864906 C 14.510156 13.845375 14.545313 13.814125 14.564844 13.794594 C 14.584375 13.775062 14.619531 13.739906 14.639063 13.720375 C 14.6625 13.700844 14.69375 13.669594 14.717188 13.650062 C 14.736719 13.634437 14.771875 13.603187 14.791406 13.583656 C 14.810938 13.564125 14.846094 13.528969 14.865625 13.509437 C 14.889063 13.489906 14.920313 13.462562 14.94375 13.443031 C 14.963281 13.4235 14.998438 13.39225 15.017969 13.372719 C 15.041406 13.353187 15.072656 13.325844 15.096094 13.306312 C 15.115625 13.286781 15.150781 13.259437 15.170313 13.239906 C 15.189844 13.224281 15.225 13.193031 15.244531 13.1735 C 15.267969 13.153969 15.299219 13.126625 15.322656 13.107094 C 15.342188 13.091469 15.377344 13.064125 15.396875 13.044594 C 15.416406 13.028969 15.451563 13.001625 15.471094 12.986 C 15.494531 12.966469 15.525781 12.939125 15.549219 12.919594 C 15.56875 12.903969 15.603906 12.876625 15.623438 12.857094 C 15.646875 12.841469 15.678125 12.814125 15.701563 12.794594 C 15.721094 12.778969 15.75625 12.751625 15.775781 12.736 C 15.795313 12.716469 15.830469 12.689125 15.85 12.6735 C 15.873438 12.653969 15.904688 12.630531 15.928125 12.614906 C 15.947656 12.599281 15.982813 12.568031 16.002344 12.552406 C 16.021875 12.536781 16.057031 12.513344 16.076563 12.493812 C 16.1 12.478187 16.13125 12.450844 16.154688 12.435219 C 16.174219 12.419594 16.209375 12.39225 16.228906 12.376625 C 16.252344 12.361 16.283594 12.333656 16.307031 12.318031 C 16.326563 12.302406 16.361719 12.278969 16.38125 12.259437 C 16.400781 12.243812 16.435938 12.220375 16.455469 12.20475 C 16.478906 12.189125 16.510156 12.165687 16.533594 12.150062 C 16.553125 12.134437 16.588281 12.111 16.607813 12.095375 C 16.63125 12.07975 16.6625 12.052406 16.685938 12.040687 C 16.705469 12.025062 16.740625 11.997719 16.760156 11.982094 C 16.779688 11.970375 16.814844 11.946937 16.834375 11.931312 C 16.857813 11.919594 16.889063 11.89225 16.9125 11.880531 C 16.932031 11.864906 16.967188 11.841469 16.986719 11.825844 C 17.00625 11.810219 17.041406 11.786781 17.060938 11.775062 C 17.084375 11.759437 17.115625 11.736 17.139063 11.720375 C 17.158594 11.708656 17.19375 11.685219 17.213281 11.669594 C 17.236719 11.657875 17.267969 11.634437 17.291406 11.618812 C 17.310938 11.603187 17.346094 11.583656 17.365625 11.568031 C 17.385156 11.552406 17.420313 11.532875 17.439844 11.51725 C 17.463281 11.501625 17.494531 11.478187 17.517969 11.466469 C 17.5375 11.450844 17.572656 11.431312 17.592188 11.419594 C 17.611719 11.403969 17.646875 11.380531 17.666406 11.368812 C 17.689844 11.357094 17.721094 11.337562 17.744531 11.321937 C 17.764063 11.310219 17.799219 11.286781 17.81875 11.271156 C 17.842188 11.259437 17.873438 11.236 17.896875 11.224281 C 17.916406 11.212562 17.951563 11.189125 17.971094 11.177406 C 17.990625 11.165687 18.025781 11.146156 18.045313 11.130531 C 18.06875 11.118812 18.1 11.099281 18.123438 11.083656 C 18.142969 11.071937 18.178125 11.052406 18.197656 11.040687 C 18.217188 11.025062 18.252344 11.005531 18.271875 10.989906 C 18.295313 10.978187 18.326563 10.958656 18.35 10.946937 C 18.369531 10.935219 18.404688 10.915687 18.424219 10.903969 C 18.447656 10.888344 18.478906 10.868812 18.502344 10.857094 C 18.521875 10.845375 18.557031 10.825844 18.576563 10.814125 C 18.596094 10.802406 18.63125 10.782875 18.650781 10.76725 C 18.674219 10.755531 18.705469 10.736 18.728906 10.724281 C 18.748438 10.712562 18.783594 10.693031 18.803125 10.681312 C 18.822656 10.669594 18.857813 10.650062 18.877344 10.638344 C 18.900781 10.626625 18.932031 10.607094 18.955469 10.595375 C 18.975 10.583656 19.010156 10.568031 19.029688 10.556312 C 19.053125 10.544594 19.084375 10.525062 19.107813 10.513344 C 19.127344 10.501625 19.1625 10.482094 19.182031 10.470375 C 19.201563 10.458656 19.236719 10.443031 19.25625 10.431312 C 19.279688 10.419594 19.310938 10.400062 19.334375 10.388344 C 19.353906 10.376625 19.389063 10.361 19.408594 10.349281 C 19.428125 10.341469 19.463281 10.321937 19.482813 10.310219 C 19.50625 10.2985 19.5375 10.282875 19.560938 10.271156 C 19.580469 10.259437 19.615625 10.239906 19.635156 10.232094 C 19.658594 10.220375 19.689844 10.200844 19.713281 10.189125 C 19.732813 10.181312 19.767969 10.161781 19.7875 10.153969 C 19.807031 10.14225 19.842188 10.122719 19.861719 10.114906 C 19.885156 10.103187 19.916406 10.087562 19.939844 10.075844 C 19.959375 10.064125 19.994531 10.0485 20.014063 10.036781 C 20.0375 10.025062 20.06875 10.009437 20.092188 9.997719 C 20.111719 9.986 20.146875 9.974281 20.166406 9.962562 C 20.185938 9.950844 20.221094 9.935219 20.240625 9.9235 C 20.264063 9.911781 20.295313 9.896156 20.31875 9.884437 C 20.338281 9.876625 20.373438 9.861 20.392969 9.849281 C 20.4125 9.841469 20.447656 9.821937 20.467188 9.814125 C 20.490625 9.802406 20.521875 9.786781 20.545313 9.775062 C 20.564844 9.76725 20.6 9.751625 20.619531 9.739906 C 20.642969 9.728187 20.674219 9.712562 20.697656 9.70475 C 20.717188 9.696937 20.752344 9.681312 20.771875 9.6735 C 20.791406 9.661781 20.826563 9.646156 20.846094 9.638344 C 20.869531 9.626625 20.900781 9.611 20.924219 9.599281 C 20.94375 9.591469 20.978906 9.575844 20.998438 9.568031 C 21.017969 9.556312 21.053125 9.540687 21.072656 9.528969 C 21.096094 9.521156 21.127344 9.505531 21.150781 9.497719 C 21.170313 9.489906 21.205469 9.474281 21.225 9.466469 C 21.248438 9.45475 21.279688 9.439125 21.303125 9.431312 C 21.322656 9.419594 21.357813 9.407875 21.377344 9.396156 C 21.396875 9.388344 21.432031 9.372719 21.451563 9.361 C 21.475 9.353187 21.50625 9.337562 21.529688 9.32975 C 21.549219 9.321937 21.584375 9.306312 21.603906 9.2985 C 21.623438 9.290687 21.658594 9.275062 21.678125 9.263344 C 21.701563 9.255531 21.732813 9.239906 21.75625 9.232094 C 21.775781 9.224281 21.810938 9.208656 21.830469 9.200844 C 21.853906 9.189125 21.885156 9.177406 21.908594 9.169594 C 21.928125 9.161781 21.963281 9.146156 21.982813 9.138344 C 22.002344 9.130531 22.0375 9.114906 22.057031 9.107094 C 22.080469 9.099281 22.111719 9.083656 22.135156 9.075844 C 22.154688 9.068031 22.189844 9.052406 22.209375 9.044594 C 22.228906 9.036781 22.264063 9.021156 22.283594 9.013344 C 22.307031 9.005531 22.338281 8.993812 22.361719 8.986 C 22.38125 8.974281 22.416406 8.962562 22.435938 8.95475 C 22.459375 8.943031 22.490625 8.931312 22.514063 8.9235 C 22.533594 8.915687 22.56875 8.903969 22.588281 8.89225 C 22.607813 8.884437 22.642969 8.872719 22.6625 8.864906 C 22.685938 8.857094 22.717188 8.841469 22.740625 8.833656 C 22.760156 8.825844 22.795313 8.810219 22.814844 8.802406 C 22.834375 8.794594 22.869531 8.782875 22.889063 8.775062 C 22.9125 8.76725 22.94375 8.755531 22.967188 8.747719 C 22.986719 8.739906 23.021875 8.724281 23.041406 8.716469 C 23.064844 8.708656 23.096094 8.696937 23.119531 8.689125 C 23.139063 8.681312 23.174219 8.669594 23.19375 8.661781 C 23.213281 8.650062 23.248438 8.638344 23.267969 8.630531 C 23.291406 8.622719 23.322656 8.611 23.346094 8.603187 C 23.365625 8.595375 23.400781 8.583656 23.420313 8.575844 C 23.44375 8.571937 23.475 8.556312 23.498438 8.5485 C 23.517969 8.540687 23.553125 8.528969 23.572656 8.521156 C 23.592188 8.513344 23.627344 8.501625 23.646875 8.493812 C 23.670313 8.486 23.701563 8.474281 23.725 8.466469 C 23.744531 8.458656 23.779688 8.450844 23.799219 8.443031 C 23.81875 8.435219 23.853906 8.419594 23.873438 8.411781 C 23.896875 8.403969 23.928125 8.396156 23.951563 8.388344 C 23.971094 8.380531 24.00625 8.368812 24.025781 8.361 C 24.049219 8.353187 24.080469 8.341469 24.103906 8.333656 C 24.123438 8.325844 24.158594 8.314125 24.178125 8.306312 C 24.197656 8.2985 24.232813 8.286781 24.252344 8.282875 C 24.275781 8.275062 24.307031 8.263344 24.330469 8.255531 C 24.35 8.247719 24.385156 8.236 24.404688 8.232094 C 24.424219 8.224281 24.459375 8.212562 24.478906 8.20475 C 24.502344 8.196937 24.533594 8.185219 24.557031 8.181312 C 24.576563 8.1735 24.611719 8.161781 24.63125 8.153969 C 24.654688 8.146156 24.685938 8.138344 24.709375 8.130531 C 24.728906 8.122719 24.764063 8.111 24.783594 8.107094 C 24.803125 8.099281 24.838281 8.087562 24.857813 8.083656 C 24.88125 8.075844 24.9125 8.064125 24.935938 8.056312 C 24.955469 8.0485 24.990625 8.036781 25.010156 8.032875 C 25.029688 8.025062 25.064844 8.013344 25.084375 8.009437 C 25.107813 8.001625 25.139063 7.989906 25.1625 7.982094 C 25.182031 7.978187 25.217188 7.966469 25.236719 7.958656 C 25.260156 7.95475 25.291406 7.943031 25.314844 7.935219 C 25.334375 7.927406 25.369531 7.919594 25.389063 7.911781 C 25.408594 7.903969 25.44375 7.89225 25.463281 7.888344 C 25.486719 7.880531 25.517969 7.872719 25.541406 7.864906 C 25.560938 7.857094 25.596094 7.849281 25.615625 7.841469 C 25.635156 7.837562 25.670313 7.825844 25.689844 7.818031 C 25.713281 7.810219 25.744531 7.802406 25.767969 7.794594 C 25.7875 7.790687 25.822656 7.778969 25.842188 7.771156 C 25.865625 7.76725 25.896875 7.755531 25.920313 7.747719 C 25.939844 7.743812 25.975 7.732094 25.994531 7.728187 C 26.014063 7.720375 26.049219 7.712562 26.06875 7.70475 C 26.092188 7.696937 26.123438 7.689125 26.146875 7.685219 C 26.166406 7.677406 26.201563 7.665687 26.221094 7.661781 C 26.240625 7.653969 26.275781 7.64225 26.295313 7.638344 C 26.31875 7.630531 26.35 7.622719 26.373438 7.614906 C 26.392969 7.611 26.428125 7.603187 26.447656 7.595375 C 26.471094 7.587562 26.502344 7.57975 26.525781 7.571937 C 26.545313 7.568031 26.580469 7.556312 26.6 7.552406 C 26.619531 7.544594 26.654688 7.536781 26.674219 7.528969 C 26.697656 7.525062 26.728906 7.513344 26.752344 7.509437 C 26.771875 7.501625 26.807031 7.493812 26.826563 7.486 C 26.85 7.482094 26.88125 7.474281 26.904688 7.466469 C 26.924219 7.458656 26.959375 7.450844 26.978906 7.446937 C 26.998438 7.439125 27.033594 7.431312 27.053125 7.4235 C 27.076563 7.419594 27.107813 7.411781 27.13125 7.403969 C 27.150781 7.400062 27.185938 7.388344 27.205469 7.384437 C 27.225 7.376625 27.260156 7.368812 27.279688 7.364906 C 27.303125 7.357094 27.334375 7.349281 27.357813 7.341469 C 27.377344 7.337562 27.4125 7.325844 27.432031 7.321937 C 27.455469 7.318031 27.486719 7.306312 27.510156 7.302406 C 27.529688 7.2985 27.564844 7.286781 27.584375 7.282875 C 27.603906 7.275062 27.639063 7.26725 27.658594 7.263344 C 27.682031 7.255531 27.713281 7.247719 27.736719 7.243812 C 27.75625 7.236 27.791406 7.228187 27.810938 7.224281 C 27.830469 7.216469 27.865625 7.208656 27.885156 7.20475 C 27.908594 7.196937 27.939844 7.189125 27.963281 7.181312 C 27.982813 7.177406 28.017969 7.169594 28.0375 7.161781 C 28.060938 7.157875 28.092188 7.150062 28.115625 7.146156 C 28.135156 7.138344 28.170313 7.130531 28.189844 7.126625 C 28.209375 7.122719 28.244531 7.111 28.264063 7.107094 C 28.2875 7.099281 28.31875 7.091469 28.342188 7.087562 C 28.361719 7.07975 28.396875 7.071937 28.416406 7.068031 C 28.435938 7.064125 28.471094 7.056312 28.490625 7.0485 C 28.514063 7.044594 28.545313 7.036781 28.56875 7.032875 C 28.588281 7.025062 28.623438 7.01725 28.642969 7.013344 C 28.666406 7.009437 28.697656 6.997719 28.721094 6.993812 C 28.740625 6.989906 28.775781 6.982094 28.795313 6.974281 C 28.814844 6.970375 28.85 6.962562 28.869531 6.958656 C 28.892969 6.950844 28.924219 6.943031 28.947656 6.939125 C 28.967188 6.935219 29.002344 6.927406 29.021875 6.9235 C 29.041406 6.915687 29.076563 6.907875 29.096094 6.903969 C 29.119531 6.900062 29.150781 6.888344 29.174219 6.884437 C 29.19375 6.880531 29.228906 6.872719 29.248438 6.868812 C 29.271875 6.864906 29.303125 6.853187 29.326563 6.849281 C 29.346094 6.845375 29.38125 6.837562 29.400781 6.82975 C 29.420313 6.825844 29.455469 6.818031 29.475 6.814125 C 29.498438 6.810219 29.529688 6.802406 29.553125 6.794594 C 29.572656 6.790687 29.607813 6.782875 29.627344 6.778969 C 29.646875 6.775062 29.682031 6.76725 29.701563 6.763344 C 29.725 6.755531 29.75625 6.751625 29.779688 6.743812 C 29.799219 6.739906 29.834375 6.732094 29.853906 6.728187 C 29.877344 6.720375 29.908594 6.716469 29.932031 6.712562 C 29.951563 6.70475 29.986719 6.696937 30.00625 6.693031 C 30.025781 6.689125 30.060938 6.681312 30.080469 6.677406 C 30.103906 6.6735 30.135156 6.665687 30.158594 6.661781 C 30.178125 6.657875 30.213281 6.650062 30.232813 6.646156 C 30.25625 6.638344 30.2875 6.630531 30.310938 6.626625 C 30.330469 6.622719 30.365625 6.614906 30.385156 6.611 C 30.404688 6.607094 30.439844 6.599281 30.459375 6.595375 C 30.482813 6.591469 30.514063 6.583656 30.5375 6.57975 C 30.557031 6.571937 30.592188 6.568031 30.611719 6.564125 C 30.63125 6.556312 30.666406 6.5485 30.685938 6.544594 C 30.709375 6.540687 30.740625 6.532875 30.764063 6.528969 C 30.783594 6.525062 30.81875 6.51725 30.838281 6.513344 C 30.861719 6.509437 30.892969 6.501625 30.916406 6.497719 C 30.935938 6.493812 30.971094 6.486 30.990625 6.482094 C 31.010156 6.478187 31.045313 6.470375 31.064844 6.462562 C 31.088281 6.458656 31.119531 6.45475 31.142969 6.450844 C 31.1625 6.446937 31.197656 6.439125 31.217188 6.435219 C 31.236719 6.431312 31.271875 6.4235 31.291406 6.419594 C 31.314844 6.415687 31.346094 6.407875 31.369531 6.403969 C 31.389063 6.400062 31.424219 6.39225 31.44375 6.388344 C 31.467188 6.384437 31.498438 6.376625 31.521875 6.372719 C 31.541406 6.368812 31.576563 6.361 31.596094 6.357094 C 31.615625 6.353187 31.650781 6.345375 31.670313 6.341469 C 31.69375 6.337562 31.725 6.32975 31.748438 6.325844 C 31.767969 6.321937 31.803125 6.318031 31.822656 6.314125 C 31.842188 6.310219 31.877344 6.302406 31.896875 6.2985 C 31.920313 6.294594 31.951563 6.286781 31.975 6.282875 C 31.994531 6.278969 32.029688 6.271156 32.049219 6.26725 C 32.072656 6.263344 32.103906 6.255531 32.127344 6.251625 C 32.146875 6.247719 32.182031 6.243812 32.201563 6.239906 C 32.221094 6.232094 32.25625 6.228187 32.275781 6.224281 C 32.299219 6.220375 32.330469 6.212562 32.353906 6.208656 C 32.373438 6.20475 32.408594 6.196937 32.428125 6.193031 C 32.447656 6.189125 32.482813 6.185219 32.502344 6.181312 C 32.525781 6.177406 32.557031 6.169594 32.580469 6.165687 C 32.6 6.161781 32.635156 6.153969 32.654688 6.150062 C 32.678125 6.146156 32.709375 6.14225 32.732813 6.138344 C 32.752344 6.134437 32.7875 6.126625 32.807031 6.122719 C 32.826563 6.118812 32.861719 6.114906 32.88125 6.111 C 32.904688 6.107094 32.935938 6.099281 32.959375 6.095375 C 32.978906 6.091469 33.014063 6.083656 33.033594 6.07975 C 33.053125 6.075844 33.088281 6.071937 33.107813 6.068031 C 33.13125 6.064125 33.1625 6.056312 33.185938 6.052406 C 33.205469 6.0485 33.240625 6.044594 33.260156 6.040687 C 33.283594 6.036781 33.314844 6.028969 33.338281 6.025062 C 33.357813 6.021156 33.392969 6.01725 33.4125 6.013344 C 33.432031 6.009437 33.467188 6.001625 33.486719 5.997719 C 33.510156 5.993812 33.541406 5.989906 33.564844 5.986 C 33.584375 5.982094 33.619531 5.974281 33.639063 5.970375 C 33.6625 5.966469 33.69375 5.962562 33.717188 5.958656 C 33.736719 5.95475 33.771875 5.946937 33.791406 5.943031 C 33.810938 5.939125 33.846094 5.935219 33.865625 5.931312 C 33.889063 5.927406 33.920313 5.9235 33.94375 5.919594 C 33.963281 5.915687 33.998438 5.907875 34.017969 5.903969 C 34.0375 5.900062 34.072656 5.896156 34.092188 5.89225 C 34.115625 5.888344 34.146875 5.884437 34.170313 5.880531 C 34.189844 5.876625 34.225 5.868812 34.244531 5.864906 C 34.267969 5.861 34.299219 5.857094 34.322656 5.853187 C 34.342188 5.849281 34.377344 5.845375 34.396875 5.841469 C 34.416406 5.837562 34.451563 5.82975 34.471094 5.825844 C 34.494531 5.821937 34.525781 5.818031 34.549219 5.814125 C 34.56875 5.810219 34.603906 5.806312 34.623438 5.802406 C 34.642969 5.7985 34.678125 5.794594 34.697656 5.790687 C 34.721094 5.786781 34.752344 5.778969 34.775781 5.775062 C 34.795313 5.771156 34.830469 5.76725 34.85 5.763344 C 34.873438 5.759437 34.904688 5.755531 34.928125 5.751625 C 34.947656 5.747719 34.982813 5.743812 35.002344 5.739906 C 35.021875 5.736 35.057031 5.728187 35.076563 5.728187 C 35.1 5.724281 35.13125 5.716469 35.154688 5.712562 C 35.174219 5.712562 35.209375 5.70475 35.228906 5.700844 C 35.248438 5.700844 35.283594 5.693031 35.303125 5.689125 C 35.326563 5.685219 35.357813 5.681312 35.38125 5.677406 C 35.400781 5.6735 35.435938 5.669594 35.455469 5.665687 C 35.478906 5.661781 35.510156 5.657875 35.533594 5.653969 C 35.553125 5.650062 35.588281 5.646156 35.607813 5.64225 C 35.627344 5.638344 35.6625 5.634437 35.682031 5.630531 C 35.705469 5.626625 35.736719 5.622719 35.760156 5.618812 C 35.779688 5.614906 35.814844 5.607094 35.834375 5.607094 C 35.853906 5.603187 35.889063 5.595375 35.908594 5.595375 C 35.932031 5.591469 35.963281 5.583656 35.986719 5.583656 C 36.00625 5.57975 36.041406 5.571937 36.060938 5.571937 C 36.084375 5.568031 36.115625 5.560219 36.139063 5.560219 C 36.158594 5.556312 36.19375 5.5485 36.213281 5.544594 C 36.232813 5.544594 36.267969 5.536781 36.2875 5.536781 C 36.310938 5.532875 36.342188 5.525062 36.365625 5.525062 C 36.385156 5.521156 36.420313 5.51725 36.439844 5.513344 C 36.459375 5.509437 36.494531 5.505531 36.514063 5.501625 C 36.5375 5.497719 36.56875 5.493812 36.592188 5.489906 C 36.611719 5.486 36.646875 5.482094 36.666406 5.478187 C 36.689844 5.474281 36.721094 5.470375 36.744531 5.466469 C 36.764063 5.462562 36.799219 5.458656 36.81875 5.45475 C 36.838281 5.45475 36.873438 5.446937 36.892969 5.443031 C 36.916406 5.443031 36.947656 5.439125 36.971094 5.435219 C 36.990625 5.431312 37.025781 5.427406 37.045313 5.4235 C 37.064844 5.419594 37.1 5.415687 37.119531 5.411781 C 37.142969 5.407875 37.178125 5.403969 37.197656 5.400062 C 37.217188 5.396156 37.252344 5.39225 37.271875 5.388344 C 37.295313 5.384437 37.326563 5.380531 37.35 5.376625 C 37.369531 5.376625 37.404688 5.372719 37.424219 5.368812 C 37.44375 5.364906 37.478906 5.361 37.498438 5.357094 C 37.521875 5.353187 37.553125 5.349281 37.576563 5.345375 C 37.596094 5.341469 37.63125 5.337562 37.650781 5.333656 C 37.674219 5.333656 37.705469 5.325844 37.728906 5.325844 C 37.748438 5.321937 37.783594 5.318031 37.803125 5.314125 C 37.822656 5.310219 37.857813 5.306312 37.877344 5.302406 C 37.900781 5.302406 37.932031 5.294594 37.955469 5.290687 C 37.975 5.290687 38.010156 5.286781 38.029688 5.282875 C 38.049219 5.278969 38.084375 5.275062 38.103906 5.271156 C 38.127344 5.26725 38.158594 5.263344 38.182031 5.263344 C 38.201563 5.259437 38.236719 5.255531 38.25625 5.251625 C 38.279688 5.247719 38.310938 5.243812 38.334375 5.239906 C 38.353906 5.239906 38.389063 5.232094 38.408594 5.228187 C 38.428125 5.228187 38.463281 5.224281 38.482813 5.220375 C 38.50625 5.216469 38.5375 5.212562 38.560938 5.208656 C 38.580469 5.20475 38.615625 5.200844 38.635156 5.200844 C 38.654688 5.196937 38.689844 5.193031 38.709375 5.189125 C 38.732813 5.185219 38.764063 5.181312 38.7875 5.177406 C 38.807031 5.177406 38.842188 5.1735 38.861719 5.169594 C 38.885156 5.165687 38.916406 5.161781 38.939844 5.157875 C 38.959375 5.157875 38.994531 5.150062 39.014063 5.150062 C 39.033594 5.146156 39.06875 5.14225 39.088281 5.138344 C 39.111719 5.134437 39.142969 5.130531 39.166406 5.130531 C 39.185938 5.126625 39.221094 5.122719 39.240625 5.118812 C 39.260156 5.114906 39.295313 5.111 39.314844 5.111 C 39.338281 5.107094 39.369531 5.103187 39.392969 5.099281 C 39.4125 5.095375 39.447656 5.091469 39.467188 5.087562 C 39.490625 5.087562 39.521875 5.083656 39.545313 5.07975 C 39.564844 5.075844 39.6 5.071937 39.619531 5.071937 C 39.639063 5.068031 39.674219 5.064125 39.69375 5.060219 C 39.717188 5.056312 39.748438 5.052406 39.771875 5.052406 C 39.791406 5.0485 39.826563 5.044594 39.846094 5.040687 C 39.865625 5.040687 39.900781 5.032875 39.920313 5.032875 C 39.94375 5.028969 39.975 5.025062 39.998438 5.021156 C 40.017969 5.021156 40.053125 5.01725 40.072656 5.013344 C 40.096094 5.009437 40.127344 5.005531 40.150781 5.001625 C 40.170313 5.001625 40.205469 4.997719 40.225 4.993812 C 40.244531 4.989906 40.279688 4.986 40.299219 4.986 C 40.322656 4.982094 40.353906 4.978187 40.377344 4.974281 C 40.396875 4.974281 40.432031 4.970375 40.451563 4.966469 C 40.471094 4.962562 40.50625 4.958656 40.525781 4.958656 C 40.549219 4.95475 40.580469 4.950844 40.603906 4.946937 C 40.623438 4.946937 40.658594 4.939125 40.678125 4.939125 C 40.701563 4.935219 40.732813 4.931312 40.75625 4.931312 C 40.775781 4.927406 40.810938 4.9235 40.830469 4.919594 C 40.85 4.915687 40.885156 4.911781 40.904688 4.911781 C 40.928125 4.907875 40.959375 4.903969 40.982813 4.900062 C 41.002344 4.900062 41.0375 4.896156 41.057031 4.89225 C 41.080469 4.89225 41.111719 4.884437 41.135156 4.884437 C 41.154688 4.880531 41.189844 4.876625 41.209375 4.872719 C 41.228906 4.872719 41.264063 4.868812 41.283594 4.864906 C 41.307031 4.864906 41.338281 4.861 41.361719 4.857094 C 41.38125 4.853187 41.416406 4.849281 41.435938 4.849281 C 41.455469 4.845375 41.490625 4.841469 41.510156 4.837562 C 41.533594 4.837562 41.564844 4.833656 41.588281 4.82975 C 41.607813 4.82975 41.642969 4.825844 41.6625 4.821937 C 41.685938 4.818031 41.717188 4.814125 41.740625 4.814125 C 41.760156 4.810219 41.795313 4.806312 41.814844 4.806312 C 41.834375 4.802406 41.869531 4.7985 41.889063 4.794594 C 41.9125 4.794594 41.94375 4.790687 41.967188 4.786781 C 41.986719 4.782875 42.021875 4.778969 42.041406 4.778969 C 42.060938 4.775062 42.096094 4.771156 42.115625 4.771156 C 42.139063 4.76725 42.170313 4.763344 42.19375 4.759437 C 42.213281 4.759437 42.248438 4.755531 42.267969 4.751625 C 42.291406 4.751625 42.322656 4.747719 42.346094 4.743812 C 42.365625 4.739906 42.400781 4.736 42.420313 4.736 C 42.439844 4.732094 42.494531 4.728187 42.494531 4.728187 " transform="matrix(1, 0, 0, -1, 53.15, 60.236)"/>
</g>
<g clip-path="url(#clip-2)">
<path fill="none" stroke-width="1.59404" stroke-linecap="butt" stroke-linejoin="miter" stroke="rgb(50%, 50%, 50%)" stroke-opacity="1" stroke-miterlimit="10" d="M -42.521094 -4.724938 C -42.521094 -4.724938 -42.466406 -4.728844 -42.442969 -4.73275 C -42.423437 -4.73275 -42.388281 -4.740563 -42.36875 -4.740563 C -42.349219 -4.744469 -42.314062 -4.748375 -42.294531 -4.748375 C -42.271094 -4.752281 -42.239844 -4.756188 -42.216406 -4.756188 C -42.196875 -4.760094 -42.161719 -4.764 -42.142187 -4.767906 C -42.122656 -4.767906 -42.0875 -4.771813 -42.067969 -4.775719 C -42.044531 -4.775719 -42.013281 -4.783531 -41.989844 -4.783531 C -41.970312 -4.787438 -41.935156 -4.791344 -41.915625 -4.791344 C -41.892187 -4.79525 -41.860937 -4.799156 -41.8375 -4.803063 C -41.817969 -4.803063 -41.782812 -4.806969 -41.763281 -4.810875 C -41.74375 -4.810875 -41.708594 -4.814781 -41.689062 -4.818688 C -41.665625 -4.822594 -41.634375 -4.8265 -41.610937 -4.8265 C -41.591406 -4.830406 -41.55625 -4.834313 -41.536719 -4.834313 C -41.513281 -4.838219 -41.482031 -4.842125 -41.458594 -4.846031 C -41.439062 -4.846031 -41.403906 -4.849938 -41.384375 -4.853844 C -41.364844 -4.85775 -41.329687 -4.861656 -41.310156 -4.861656 C -41.286719 -4.865563 -41.255469 -4.869469 -41.232031 -4.873375 C -41.2125 -4.873375 -41.177344 -4.877281 -41.157812 -4.881188 C -41.138281 -4.885094 -41.103125 -4.889 -41.083594 -4.889 C -41.060156 -4.892906 -41.028906 -4.896813 -41.005469 -4.896813 C -40.985937 -4.900719 -40.950781 -4.904625 -40.93125 -4.908531 C -40.907812 -4.908531 -40.876562 -4.912438 -40.853125 -4.916344 C -40.833594 -4.92025 -40.798437 -4.924156 -40.778906 -4.924156 C -40.759375 -4.928063 -40.724219 -4.931969 -40.704687 -4.935875 C -40.68125 -4.935875 -40.65 -4.939781 -40.626562 -4.943688 C -40.607031 -4.947594 -40.571875 -4.9515 -40.552344 -4.955406 C -40.532812 -4.955406 -40.497656 -4.959313 -40.478125 -4.963219 C -40.454687 -4.967125 -40.423437 -4.971031 -40.4 -4.971031 C -40.380469 -4.974938 -40.345312 -4.978844 -40.325781 -4.98275 C -40.302344 -4.98275 -40.271094 -4.986656 -40.247656 -4.990563 C -40.228125 -4.994469 -40.192969 -4.998375 -40.173437 -4.998375 C -40.153906 -5.002281 -40.11875 -5.006188 -40.099219 -5.010094 C -40.075781 -5.014 -40.044531 -5.017906 -40.021094 -5.017906 C -40.001562 -5.021813 -39.966406 -5.025719 -39.946875 -5.029625 C -39.927344 -5.029625 -39.892187 -5.037438 -39.872656 -5.037438 C -39.849219 -5.041344 -39.817969 -5.04525 -39.794531 -5.049156 C -39.775 -5.049156 -39.739844 -5.053063 -39.720312 -5.056969 C -39.696875 -5.060875 -39.665625 -5.064781 -39.642187 -5.068688 C -39.622656 -5.068688 -39.5875 -5.072594 -39.567969 -5.0765 C -39.548437 -5.080406 -39.513281 -5.084313 -39.49375 -5.088219 C -39.470312 -5.088219 -39.439062 -5.092125 -39.415625 -5.096031 C -39.396094 -5.099938 -39.360937 -5.103844 -39.341406 -5.10775 C -39.321875 -5.10775 -39.286719 -5.111656 -39.267187 -5.115563 C -39.24375 -5.119469 -39.2125 -5.123375 -39.189062 -5.127281 C -39.169531 -5.127281 -39.134375 -5.131188 -39.114844 -5.135094 C -39.091406 -5.139 -39.060156 -5.142906 -39.036719 -5.146813 C -39.017187 -5.146813 -38.982031 -5.154625 -38.9625 -5.154625 C -38.942969 -5.158531 -38.907812 -5.162438 -38.888281 -5.166344 C -38.864844 -5.17025 -38.833594 -5.174156 -38.810156 -5.174156 C -38.790625 -5.178063 -38.755469 -5.181969 -38.735937 -5.185875 C -38.716406 -5.189781 -38.68125 -5.193688 -38.661719 -5.193688 C -38.638281 -5.197594 -38.607031 -5.205406 -38.583594 -5.205406 C -38.564062 -5.209313 -38.528906 -5.213219 -38.509375 -5.217125 C -38.485937 -5.221031 -38.454687 -5.224938 -38.43125 -5.224938 C -38.411719 -5.228844 -38.376562 -5.23275 -38.357031 -5.236656 C -38.3375 -5.240563 -38.302344 -5.244469 -38.282812 -5.248375 C -38.259375 -5.248375 -38.228125 -5.256188 -38.204687 -5.256188 C -38.185156 -5.260094 -38.15 -5.264 -38.130469 -5.267906 C -38.107031 -5.271813 -38.075781 -5.275719 -38.052344 -5.279625 C -38.032812 -5.279625 -37.997656 -5.287438 -37.978125 -5.287438 C -37.958594 -5.291344 -37.923437 -5.29525 -37.903906 -5.299156 C -37.880469 -5.303063 -37.849219 -5.306969 -37.825781 -5.310875 C -37.80625 -5.314781 -37.771094 -5.318688 -37.751562 -5.322594 C -37.732031 -5.322594 -37.696875 -5.330406 -37.677344 -5.330406 C -37.653906 -5.334313 -37.622656 -5.338219 -37.599219 -5.342125 C -37.579687 -5.346031 -37.544531 -5.349938 -37.525 -5.353844 C -37.501562 -5.35775 -37.470312 -5.361656 -37.446875 -5.365563 C -37.427344 -5.365563 -37.392187 -5.373375 -37.372656 -5.373375 C -37.353125 -5.377281 -37.317969 -5.381188 -37.298437 -5.385094 C -37.275 -5.389 -37.24375 -5.392906 -37.220312 -5.396813 C -37.200781 -5.400719 -37.165625 -5.404625 -37.146094 -5.408531 C -37.126562 -5.412438 -37.091406 -5.416344 -37.071875 -5.42025 C -37.048437 -5.42025 -37.017187 -5.428063 -36.99375 -5.428063 C -36.974219 -5.431969 -36.939062 -5.439781 -36.919531 -5.439781 C -36.896094 -5.443688 -36.864844 -5.447594 -36.841406 -5.4515 C -36.821875 -5.455406 -36.786719 -5.459313 -36.767187 -5.463219 C -36.747656 -5.467125 -36.7125 -5.471031 -36.692969 -5.474938 C -36.669531 -5.478844 -36.638281 -5.48275 -36.614844 -5.486656 C -36.595312 -5.490563 -36.560156 -5.494469 -36.540625 -5.498375 C -36.521094 -5.498375 -36.485937 -5.506188 -36.466406 -5.510094 C -36.442969 -5.510094 -36.411719 -5.517906 -36.388281 -5.521813 C -36.36875 -5.521813 -36.333594 -5.529625 -36.314062 -5.533531 C -36.290625 -5.533531 -36.259375 -5.541344 -36.235937 -5.541344 C -36.216406 -5.54525 -36.18125 -5.553063 -36.161719 -5.553063 C -36.142187 -5.556969 -36.107031 -5.564781 -36.0875 -5.564781 C -36.064062 -5.568688 -36.032812 -5.5765 -36.009375 -5.5765 C -35.989844 -5.580406 -35.954687 -5.584313 -35.935156 -5.588219 C -35.915625 -5.592125 -35.880469 -5.599938 -35.860937 -5.599938 C -35.8375 -5.603844 -35.80625 -5.611656 -35.782812 -5.611656 C -35.763281 -5.615563 -35.728125 -5.623375 -35.708594 -5.627281 C -35.685156 -5.627281 -35.653906 -5.635094 -35.630469 -5.635094 C -35.610937 -5.639 -35.575781 -5.646813 -35.55625 -5.650719 C -35.536719 -5.654625 -35.501562 -5.658531 -35.482031 -5.662438 C -35.458594 -5.666344 -35.427344 -5.67025 -35.403906 -5.674156 C -35.384375 -5.678063 -35.349219 -5.681969 -35.329687 -5.685875 C -35.310156 -5.689781 -35.275 -5.693688 -35.255469 -5.697594 C -35.232031 -5.7015 -35.200781 -5.705406 -35.177344 -5.709313 C -35.157812 -5.713219 -35.122656 -5.721031 -35.103125 -5.721031 C -35.079687 -5.724938 -35.048437 -5.73275 -35.025 -5.736656 C -35.005469 -5.736656 -34.970312 -5.744469 -34.950781 -5.748375 C -34.93125 -5.752281 -34.896094 -5.756188 -34.876562 -5.760094 C -34.853125 -5.764 -34.821875 -5.767906 -34.798437 -5.771813 C -34.778906 -5.775719 -34.74375 -5.779625 -34.724219 -5.783531 C -34.700781 -5.787438 -34.669531 -5.79525 -34.646094 -5.799156 C -34.626562 -5.803063 -34.591406 -5.806969 -34.571875 -5.810875 C -34.552344 -5.814781 -34.517187 -5.818688 -34.497656 -5.822594 C -34.474219 -5.8265 -34.442969 -5.830406 -34.419531 -5.834313 C -34.4 -5.838219 -34.364844 -5.846031 -34.345312 -5.849938 C -34.325781 -5.853844 -34.290625 -5.85775 -34.271094 -5.861656 C -34.247656 -5.865563 -34.216406 -5.869469 -34.192969 -5.873375 C -34.173437 -5.877281 -34.138281 -5.885094 -34.11875 -5.889 C -34.095312 -5.892906 -34.064062 -5.896813 -34.040625 -5.900719 C -34.021094 -5.904625 -33.985937 -5.908531 -33.966406 -5.912438 C -33.946875 -5.916344 -33.911719 -5.924156 -33.892187 -5.928063 C -33.86875 -5.931969 -33.8375 -5.935875 -33.814062 -5.939781 C -33.794531 -5.943688 -33.759375 -5.9515 -33.739844 -5.955406 C -33.720312 -5.955406 -33.685156 -5.963219 -33.665625 -5.967125 C -33.642187 -5.971031 -33.610937 -5.974938 -33.5875 -5.978844 C -33.567969 -5.98275 -33.532812 -5.990563 -33.513281 -5.994469 C -33.489844 -5.998375 -33.458594 -6.002281 -33.435156 -6.006188 C -33.415625 -6.010094 -33.380469 -6.017906 -33.360937 -6.021813 C -33.341406 -6.025719 -33.30625 -6.033531 -33.286719 -6.033531 C -33.263281 -6.037438 -33.232031 -6.04525 -33.208594 -6.049156 C -33.189062 -6.053063 -33.153906 -6.060875 -33.134375 -6.064781 C -33.114844 -6.068688 -33.079687 -6.072594 -33.060156 -6.0765 C -33.036719 -6.080406 -33.005469 -6.088219 -32.982031 -6.092125 C -32.9625 -6.096031 -32.927344 -6.099938 -32.907812 -6.103844 C -32.884375 -6.10775 -32.853125 -6.115563 -32.829687 -6.119469 C -32.810156 -6.123375 -32.775 -6.127281 -32.755469 -6.131188 C -32.735937 -6.135094 -32.700781 -6.142906 -32.68125 -6.146813 C -32.657812 -6.150719 -32.626562 -6.158531 -32.603125 -6.162438 C -32.583594 -6.166344 -32.548437 -6.17025 -32.528906 -6.174156 C -32.509375 -6.178063 -32.474219 -6.185875 -32.454687 -6.189781 C -32.43125 -6.193688 -32.4 -6.2015 -32.376562 -6.205406 C -32.357031 -6.209313 -32.321875 -6.213219 -32.302344 -6.217125 C -32.278906 -6.221031 -32.247656 -6.228844 -32.224219 -6.23275 C -32.204687 -6.236656 -32.169531 -6.244469 -32.15 -6.248375 C -32.130469 -6.252281 -32.095312 -6.260094 -32.075781 -6.264 C -32.052344 -6.267906 -32.021094 -6.271813 -31.997656 -6.275719 C -31.978125 -6.279625 -31.942969 -6.287438 -31.923437 -6.291344 C -31.903906 -6.29525 -31.86875 -6.303063 -31.849219 -6.306969 C -31.825781 -6.310875 -31.794531 -6.318688 -31.771094 -6.322594 C -31.751562 -6.3265 -31.716406 -6.334313 -31.696875 -6.338219 C -31.673437 -6.342125 -31.642187 -6.349938 -31.61875 -6.353844 C -31.599219 -6.35775 -31.564062 -6.361656 -31.544531 -6.369469 C -31.525 -6.373375 -31.489844 -6.381188 -31.470312 -6.385094 C -31.446875 -6.389 -31.415625 -6.392906 -31.392187 -6.396813 C -31.372656 -6.400719 -31.3375 -6.408531 -31.317969 -6.412438 C -31.294531 -6.416344 -31.263281 -6.424156 -31.239844 -6.428063 C -31.220312 -6.431969 -31.185156 -6.439781 -31.165625 -6.443688 C -31.146094 -6.447594 -31.110937 -6.455406 -31.091406 -6.459313 C -31.067969 -6.463219 -31.036719 -6.471031 -31.013281 -6.478844 C -30.99375 -6.48275 -30.958594 -6.486656 -30.939062 -6.490563 C -30.919531 -6.494469 -30.884375 -6.502281 -30.864844 -6.510094 C -30.841406 -6.514 -30.810156 -6.517906 -30.786719 -6.525719 C -30.767187 -6.529625 -30.732031 -6.537438 -30.7125 -6.541344 C -30.689062 -6.54525 -30.657812 -6.553063 -30.634375 -6.556969 C -30.614844 -6.560875 -30.579687 -6.568688 -30.560156 -6.572594 C -30.540625 -6.5765 -30.505469 -6.584313 -30.485937 -6.588219 C -30.4625 -6.592125 -30.43125 -6.599938 -30.407812 -6.603844 C -30.388281 -6.60775 -30.353125 -6.615563 -30.333594 -6.623375 C -30.314062 -6.627281 -30.278906 -6.635094 -30.259375 -6.639 C -30.235937 -6.642906 -30.204687 -6.650719 -30.18125 -6.654625 C -30.161719 -6.658531 -30.126562 -6.666344 -30.107031 -6.67025 C -30.083594 -6.678063 -30.052344 -6.681969 -30.028906 -6.689781 C -30.009375 -6.693688 -29.974219 -6.7015 -29.954687 -6.705406 C -29.935156 -6.709313 -29.9 -6.717125 -29.880469 -6.721031 C -29.857031 -6.728844 -29.825781 -6.73275 -29.802344 -6.740563 C -29.782812 -6.744469 -29.747656 -6.752281 -29.728125 -6.756188 C -29.708594 -6.760094 -29.673437 -6.767906 -29.653906 -6.771813 C -29.630469 -6.779625 -29.599219 -6.787438 -29.575781 -6.791344 C -29.55625 -6.79525 -29.521094 -6.803063 -29.501562 -6.806969 C -29.478125 -6.814781 -29.446875 -6.822594 -29.423437 -6.8265 C -29.403906 -6.830406 -29.36875 -6.838219 -29.349219 -6.842125 C -29.329687 -6.846031 -29.294531 -6.85775 -29.275 -6.861656 C -29.251562 -6.865563 -29.220312 -6.873375 -29.196875 -6.881188 C -29.177344 -6.885094 -29.142187 -6.892906 -29.122656 -6.896813 C -29.103125 -6.900719 -29.067969 -6.912438 -29.048437 -6.916344 C -29.025 -6.92025 -28.99375 -6.928063 -28.970312 -6.931969 C -28.950781 -6.939781 -28.915625 -6.947594 -28.896094 -6.9515 C -28.872656 -6.955406 -28.841406 -6.963219 -28.817969 -6.967125 C -28.798437 -6.974938 -28.763281 -6.98275 -28.74375 -6.986656 C -28.724219 -6.994469 -28.689062 -7.002281 -28.669531 -7.006188 C -28.646094 -7.010094 -28.614844 -7.021813 -28.591406 -7.025719 C -28.571875 -7.029625 -28.536719 -7.037438 -28.517187 -7.041344 C -28.497656 -7.049156 -28.4625 -7.056969 -28.442969 -7.060875 C -28.419531 -7.068688 -28.388281 -7.0765 -28.364844 -7.080406 C -28.345312 -7.088219 -28.310156 -7.096031 -28.290625 -7.099938 C -28.267187 -7.10775 -28.235937 -7.115563 -28.2125 -7.119469 C -28.192969 -7.123375 -28.157812 -7.135094 -28.138281 -7.139 C -28.11875 -7.142906 -28.083594 -7.150719 -28.064062 -7.158531 C -28.040625 -7.162438 -28.009375 -7.17025 -27.985937 -7.178063 C -27.966406 -7.181969 -27.93125 -7.189781 -27.911719 -7.197594 C -27.888281 -7.2015 -27.857031 -7.209313 -27.833594 -7.217125 C -27.814062 -7.221031 -27.778906 -7.228844 -27.759375 -7.236656 C -27.739844 -7.240563 -27.704687 -7.248375 -27.685156 -7.256188 C -27.661719 -7.260094 -27.630469 -7.267906 -27.607031 -7.275719 C -27.5875 -7.279625 -27.552344 -7.291344 -27.532812 -7.29525 C -27.513281 -7.299156 -27.478125 -7.310875 -27.458594 -7.314781 C -27.435156 -7.318688 -27.403906 -7.330406 -27.380469 -7.334313 C -27.360937 -7.342125 -27.325781 -7.349938 -27.30625 -7.35775 C -27.282812 -7.361656 -27.251562 -7.369469 -27.228125 -7.377281 C -27.208594 -7.381188 -27.173437 -7.392906 -27.153906 -7.396813 C -27.134375 -7.404625 -27.099219 -7.412438 -27.079687 -7.42025 C -27.05625 -7.424156 -27.025 -7.435875 -27.001562 -7.439781 C -26.982031 -7.443688 -26.946875 -7.455406 -26.927344 -7.459313 C -26.907812 -7.467125 -26.872656 -7.474938 -26.853125 -7.478844 C -26.829687 -7.486656 -26.798437 -7.494469 -26.775 -7.502281 C -26.755469 -7.506188 -26.720312 -7.517906 -26.700781 -7.521813 C -26.677344 -7.529625 -26.646094 -7.537438 -26.622656 -7.54525 C -26.603125 -7.549156 -26.567969 -7.560875 -26.548437 -7.564781 C -26.528906 -7.572594 -26.49375 -7.580406 -26.474219 -7.588219 C -26.450781 -7.596031 -26.419531 -7.603844 -26.396094 -7.60775 C -26.376562 -7.615563 -26.341406 -7.623375 -26.321875 -7.631188 C -26.302344 -7.639 -26.267187 -7.646813 -26.247656 -7.654625 C -26.224219 -7.658531 -26.192969 -7.67025 -26.169531 -7.674156 C -26.15 -7.681969 -26.114844 -7.689781 -26.095312 -7.697594 C -26.071875 -7.705406 -26.040625 -7.713219 -26.017187 -7.721031 C -25.997656 -7.724938 -25.9625 -7.736656 -25.942969 -7.744469 C -25.923437 -7.748375 -25.888281 -7.756188 -25.86875 -7.764 C -25.845312 -7.771813 -25.814062 -7.783531 -25.790625 -7.787438 C -25.771094 -7.79525 -25.735937 -7.803063 -25.716406 -7.810875 C -25.696875 -7.818688 -25.661719 -7.8265 -25.642187 -7.834313 C -25.61875 -7.838219 -25.5875 -7.849938 -25.564062 -7.85775 C -25.544531 -7.865563 -25.509375 -7.873375 -25.489844 -7.881188 C -25.466406 -7.885094 -25.435156 -7.896813 -25.411719 -7.904625 C -25.392187 -7.908531 -25.357031 -7.92025 -25.3375 -7.928063 C -25.317969 -7.931969 -25.282812 -7.943688 -25.263281 -7.9515 C -25.239844 -7.959313 -25.208594 -7.967125 -25.185156 -7.974938 C -25.165625 -7.978844 -25.130469 -7.994469 -25.110937 -7.998375 C -25.091406 -8.006188 -25.05625 -8.017906 -25.036719 -8.021813 C -25.013281 -8.029625 -24.982031 -8.041344 -24.958594 -8.049156 C -24.939062 -8.056969 -24.903906 -8.064781 -24.884375 -8.072594 C -24.860937 -8.080406 -24.829687 -8.092125 -24.80625 -8.096031 C -24.786719 -8.103844 -24.751562 -8.115563 -24.732031 -8.119469 C -24.7125 -8.127281 -24.677344 -8.139 -24.657812 -8.146813 C -24.634375 -8.154625 -24.603125 -8.162438 -24.579687 -8.17025 C -24.560156 -8.178063 -24.525 -8.189781 -24.505469 -8.197594 C -24.485937 -8.205406 -24.450781 -8.213219 -24.427344 -8.221031 C -24.407812 -8.228844 -24.372656 -8.240563 -24.353125 -8.248375 C -24.333594 -8.256188 -24.298437 -8.264 -24.278906 -8.271813 C -24.255469 -8.279625 -24.224219 -8.291344 -24.200781 -8.299156 C -24.18125 -8.306969 -24.146094 -8.318688 -24.126562 -8.3265 C -24.107031 -8.334313 -24.071875 -8.346031 -24.052344 -8.353844 C -24.028906 -8.35775 -23.997656 -8.369469 -23.974219 -8.377281 C -23.954687 -8.385094 -23.919531 -8.396813 -23.9 -8.404625 C -23.876562 -8.412438 -23.845312 -8.424156 -23.821875 -8.431969 C -23.802344 -8.439781 -23.767187 -8.4515 -23.747656 -8.459313 C -23.728125 -8.467125 -23.692969 -8.474938 -23.673437 -8.48275 C -23.65 -8.490563 -23.61875 -8.506188 -23.595312 -8.514 C -23.575781 -8.521813 -23.540625 -8.533531 -23.521094 -8.537438 C -23.501562 -8.54525 -23.466406 -8.560875 -23.446875 -8.568688 C -23.423437 -8.5765 -23.392187 -8.588219 -23.36875 -8.596031 C -23.349219 -8.603844 -23.314062 -8.615563 -23.294531 -8.623375 C -23.271094 -8.631188 -23.239844 -8.642906 -23.216406 -8.650719 C -23.196875 -8.658531 -23.161719 -8.67025 -23.142187 -8.678063 C -23.122656 -8.685875 -23.0875 -8.7015 -23.067969 -8.709313 C -23.044531 -8.717125 -23.013281 -8.728844 -22.989844 -8.736656 C -22.970312 -8.744469 -22.935156 -8.756188 -22.915625 -8.764 C -22.896094 -8.771813 -22.860937 -8.787438 -22.841406 -8.79525 C -22.817969 -8.803063 -22.786719 -8.814781 -22.763281 -8.822594 C -22.74375 -8.834313 -22.708594 -8.846031 -22.689062 -8.853844 C -22.665625 -8.861656 -22.634375 -8.873375 -22.610937 -8.881188 C -22.591406 -8.889 -22.55625 -8.904625 -22.536719 -8.912438 C -22.517187 -8.924156 -22.482031 -8.935875 -22.4625 -8.943688 C -22.439062 -8.9515 -22.407812 -8.963219 -22.384375 -8.974938 C -22.364844 -8.98275 -22.329687 -8.994469 -22.310156 -9.002281 C -22.290625 -9.010094 -22.255469 -9.025719 -22.235937 -9.033531 C -22.2125 -9.041344 -22.18125 -9.056969 -22.157812 -9.064781 C -22.138281 -9.072594 -22.103125 -9.088219 -22.083594 -9.096031 C -22.060156 -9.103844 -22.028906 -9.119469 -22.005469 -9.127281 C -21.985937 -9.135094 -21.950781 -9.150719 -21.93125 -9.158531 C -21.911719 -9.166344 -21.876562 -9.181969 -21.857031 -9.189781 C -21.833594 -9.197594 -21.802344 -9.213219 -21.778906 -9.221031 C -21.759375 -9.23275 -21.724219 -9.244469 -21.704687 -9.256188 C -21.685156 -9.264 -21.65 -9.279625 -21.630469 -9.287438 C -21.607031 -9.29525 -21.575781 -9.310875 -21.552344 -9.318688 C -21.532812 -9.3265 -21.497656 -9.342125 -21.478125 -9.353844 C -21.454687 -9.361656 -21.423437 -9.377281 -21.4 -9.385094 C -21.380469 -9.392906 -21.345312 -9.408531 -21.325781 -9.416344 C -21.30625 -9.428063 -21.271094 -9.443688 -21.251562 -9.4515 C -21.228125 -9.463219 -21.196875 -9.474938 -21.173437 -9.486656 C -21.153906 -9.494469 -21.11875 -9.510094 -21.099219 -9.521813 C -21.079687 -9.529625 -21.044531 -9.54525 -21.025 -9.553063 C -21.001562 -9.564781 -20.970312 -9.580406 -20.946875 -9.588219 C -20.927344 -9.599938 -20.892187 -9.615563 -20.872656 -9.623375 C -20.849219 -9.635094 -20.817969 -9.646813 -20.794531 -9.658531 C -20.775 -9.666344 -20.739844 -9.685875 -20.720312 -9.693688 C -20.700781 -9.705406 -20.665625 -9.721031 -20.646094 -9.728844 C -20.622656 -9.740563 -20.591406 -9.756188 -20.567969 -9.764 C -20.548437 -9.775719 -20.513281 -9.791344 -20.49375 -9.799156 C -20.470312 -9.810875 -20.439062 -9.830406 -20.415625 -9.838219 C -20.396094 -9.849938 -20.360937 -9.865563 -20.341406 -9.873375 C -20.321875 -9.885094 -20.286719 -9.900719 -20.267187 -9.912438 C -20.24375 -9.92025 -20.2125 -9.939781 -20.189062 -9.9515 C -20.169531 -9.959313 -20.134375 -9.974938 -20.114844 -9.986656 C -20.095312 -9.998375 -20.060156 -10.014 -20.040625 -10.021813 C -20.017187 -10.033531 -19.985937 -10.053063 -19.9625 -10.064781 C -19.942969 -10.072594 -19.907812 -10.088219 -19.888281 -10.099938 C -19.864844 -10.111656 -19.833594 -10.127281 -19.810156 -10.139 C -19.790625 -10.150719 -19.755469 -10.166344 -19.735937 -10.178063 C -19.716406 -10.189781 -19.68125 -10.205406 -19.661719 -10.217125 C -19.638281 -10.228844 -19.607031 -10.244469 -19.583594 -10.256188 C -19.564062 -10.267906 -19.528906 -10.287438 -19.509375 -10.29525 C -19.489844 -10.306969 -19.454687 -10.322594 -19.435156 -10.334313 C -19.411719 -10.346031 -19.380469 -10.365563 -19.357031 -10.377281 C -19.3375 -10.389 -19.302344 -10.404625 -19.282812 -10.416344 C -19.259375 -10.428063 -19.228125 -10.447594 -19.204687 -10.459313 C -19.185156 -10.471031 -19.15 -10.486656 -19.130469 -10.498375 C -19.110937 -10.510094 -19.075781 -10.529625 -19.05625 -10.541344 C -19.032812 -10.553063 -19.001562 -10.572594 -18.978125 -10.584313 C -18.958594 -10.596031 -18.923437 -10.615563 -18.903906 -10.627281 C -18.884375 -10.639 -18.849219 -10.654625 -18.829687 -10.67025 C -18.80625 -10.681969 -18.775 -10.697594 -18.751562 -10.709313 C -18.732031 -10.721031 -18.696875 -10.744469 -18.677344 -10.756188 C -18.653906 -10.767906 -18.622656 -10.787438 -18.599219 -10.799156 C -18.579687 -10.810875 -18.544531 -10.830406 -18.525 -10.842125 C -18.505469 -10.853844 -18.470312 -10.877281 -18.450781 -10.889 C -18.427344 -10.900719 -18.396094 -10.92025 -18.372656 -10.931969 C -18.353125 -10.943688 -18.317969 -10.963219 -18.298437 -10.978844 C -18.278906 -10.990563 -18.24375 -11.010094 -18.224219 -11.025719 C -18.200781 -11.037438 -18.169531 -11.056969 -18.146094 -11.068688 C -18.126562 -11.080406 -18.091406 -11.099938 -18.071875 -11.115563 C -18.048437 -11.127281 -18.017187 -11.150719 -17.99375 -11.162438 C -17.974219 -11.174156 -17.939062 -11.197594 -17.919531 -11.209313 C -17.9 -11.221031 -17.864844 -11.244469 -17.845312 -11.256188 C -17.821875 -11.267906 -17.790625 -11.291344 -17.767187 -11.303063 C -17.747656 -11.318688 -17.7125 -11.338219 -17.692969 -11.353844 C -17.673437 -11.365563 -17.638281 -11.389 -17.61875 -11.400719 C -17.595312 -11.416344 -17.564062 -11.439781 -17.540625 -11.4515 C -17.521094 -11.467125 -17.485937 -11.486656 -17.466406 -11.498375 C -17.442969 -11.514 -17.411719 -11.537438 -17.388281 -11.553063 C -17.36875 -11.564781 -17.333594 -11.588219 -17.314062 -11.599938 C -17.294531 -11.615563 -17.259375 -11.639 -17.239844 -11.650719 C -17.216406 -11.666344 -17.185156 -11.689781 -17.161719 -11.705406 C -17.142187 -11.717125 -17.107031 -11.740563 -17.0875 -11.756188 C -17.064062 -11.767906 -17.032812 -11.791344 -17.009375 -11.806969 C -16.989844 -11.822594 -16.954687 -11.846031 -16.935156 -11.861656 C -16.915625 -11.873375 -16.880469 -11.900719 -16.860937 -11.912438 C -16.8375 -11.928063 -16.80625 -11.9515 -16.782812 -11.967125 C -16.763281 -11.98275 -16.728125 -12.006188 -16.708594 -12.021813 C -16.689062 -12.037438 -16.653906 -12.060875 -16.634375 -12.0765 C -16.610937 -12.092125 -16.579687 -12.115563 -16.55625 -12.131188 C -16.536719 -12.146813 -16.501562 -12.17025 -16.482031 -12.185875 C -16.458594 -12.2015 -16.427344 -12.228844 -16.403906 -12.244469 C -16.384375 -12.260094 -16.349219 -12.287438 -16.329687 -12.303063 C -16.310156 -12.318688 -16.275 -12.342125 -16.255469 -12.35775 C -16.232031 -12.373375 -16.200781 -12.400719 -16.177344 -12.416344 C -16.157812 -12.431969 -16.122656 -12.459313 -16.103125 -12.474938 C -16.083594 -12.490563 -16.048437 -12.517906 -16.028906 -12.533531 C -16.005469 -12.549156 -15.974219 -12.5765 -15.950781 -12.592125 C -15.93125 -12.60775 -15.896094 -12.639 -15.876562 -12.654625 C -15.853125 -12.67025 -15.821875 -12.697594 -15.798437 -12.713219 C -15.778906 -12.728844 -15.74375 -12.756188 -15.724219 -12.775719 C -15.704687 -12.791344 -15.669531 -12.818688 -15.65 -12.838219 C -15.626562 -12.853844 -15.595312 -12.881188 -15.571875 -12.900719 C -15.552344 -12.916344 -15.517187 -12.943688 -15.497656 -12.963219 C -15.478125 -12.978844 -15.442969 -13.006188 -15.423437 -13.025719 C -15.4 -13.041344 -15.36875 -13.072594 -15.345312 -13.088219 C -15.325781 -13.10775 -15.290625 -13.135094 -15.271094 -13.154625 C -15.247656 -13.174156 -15.216406 -13.2015 -15.192969 -13.221031 C -15.173437 -13.236656 -15.138281 -13.267906 -15.11875 -13.287438 C -15.099219 -13.303063 -15.064062 -13.334313 -15.044531 -13.353844 C -15.021094 -13.369469 -14.989844 -13.400719 -14.966406 -13.42025 C -14.946875 -13.439781 -14.911719 -13.467125 -14.892187 -13.486656 C -14.872656 -13.506188 -14.8375 -13.537438 -14.817969 -13.556969 C -14.794531 -13.5765 -14.763281 -13.60775 -14.739844 -13.627281 C -14.720312 -13.646813 -14.685156 -13.678063 -14.665625 -13.697594 C -14.642187 -13.717125 -14.610937 -13.748375 -14.5875 -13.767906 C -14.567969 -13.787438 -14.532812 -13.818688 -14.513281 -13.842125 C -14.49375 -13.861656 -14.458594 -13.892906 -14.439062 -13.912438 C -14.415625 -13.931969 -14.384375 -13.967125 -14.360937 -13.986656 C -14.341406 -14.006188 -14.30625 -14.041344 -14.286719 -14.060875 C -14.267187 -14.080406 -14.232031 -14.115563 -14.2125 -14.135094 C -14.189062 -14.154625 -14.157812 -14.189781 -14.134375 -14.213219 C -14.114844 -14.23275 -14.079687 -14.267906 -14.060156 -14.287438 C -14.036719 -14.310875 -14.005469 -14.342125 -13.982031 -14.365563 C -13.9625 -14.385094 -13.927344 -14.42025 -13.907812 -14.443688 C -13.888281 -14.463219 -13.853125 -14.498375 -13.833594 -14.521813 C -13.810156 -14.54525 -13.778906 -14.580406 -13.755469 -14.603844 C -13.735937 -14.623375 -13.700781 -14.662438 -13.68125 -14.681969 C -13.657812 -14.705406 -13.626562 -14.740563 -13.603125 -14.764 C -13.583594 -14.787438 -13.548437 -14.8265 -13.528906 -14.849938 C -13.509375 -14.869469 -13.474219 -14.908531 -13.454687 -14.931969 C -13.43125 -14.955406 -13.4 -14.990563 -13.376562 -15.014 C -13.357031 -15.037438 -13.321875 -15.0765 -13.302344 -15.099938 C -13.282812 -15.123375 -13.247656 -15.162438 -13.228125 -15.185875 C -13.204687 -15.209313 -13.173437 -15.248375 -13.15 -15.275719 C -13.130469 -15.299156 -13.095312 -15.338219 -13.075781 -15.361656 C -13.052344 -15.385094 -13.021094 -15.428063 -12.997656 -15.4515 C -12.978125 -15.474938 -12.942969 -15.517906 -12.923437 -15.541344 C -12.903906 -15.568688 -12.86875 -15.60775 -12.849219 -15.635094 C -12.825781 -15.658531 -12.794531 -15.7015 -12.771094 -15.724938 C -12.751562 -15.752281 -12.716406 -15.79525 -12.696875 -15.822594 C -12.677344 -15.849938 -12.642187 -15.889 -12.622656 -15.916344 C -12.599219 -15.943688 -12.567969 -15.986656 -12.544531 -16.010094 C -12.525 -16.037438 -12.489844 -16.080406 -12.470312 -16.10775 C -12.446875 -16.135094 -12.415625 -16.178063 -12.392187 -16.205406 C -12.372656 -16.236656 -12.3375 -16.279625 -12.317969 -16.306969 C -12.298437 -16.334313 -12.263281 -16.381188 -12.24375 -16.408531 C -12.220312 -16.435875 -12.189062 -16.48275 -12.165625 -16.510094 C -12.146094 -16.537438 -12.110937 -16.584313 -12.091406 -16.615563 C -12.071875 -16.642906 -12.036719 -16.689781 -12.017187 -16.717125 C -11.99375 -16.748375 -11.9625 -16.79525 -11.939062 -16.822594 C -11.919531 -16.853844 -11.884375 -16.900719 -11.864844 -16.931969 C -11.841406 -16.963219 -11.810156 -17.010094 -11.786719 -17.041344 C -11.767187 -17.072594 -11.732031 -17.119469 -11.7125 -17.150719 C -11.692969 -17.181969 -11.657812 -17.228844 -11.638281 -17.260094 C -11.614844 -17.291344 -11.583594 -17.342125 -11.560156 -17.373375 C -11.540625 -17.408531 -11.505469 -17.459313 -11.485937 -17.490563 C -11.466406 -17.521813 -11.43125 -17.572594 -11.411719 -17.60775 C -11.388281 -17.639 -11.357031 -17.689781 -11.333594 -17.724938 C -11.314062 -17.756188 -11.278906 -17.810875 -11.259375 -17.842125 C -11.235937 -17.877281 -11.204687 -17.928063 -11.18125 -17.963219 C -11.161719 -17.998375 -11.126562 -18.049156 -11.107031 -18.084313 C -11.0875 -18.119469 -11.052344 -18.174156 -11.032812 -18.209313 C -11.009375 -18.244469 -10.978125 -18.299156 -10.954687 -18.334313 C -10.935156 -18.369469 -10.9 -18.428063 -10.880469 -18.463219 C -10.860937 -18.498375 -10.825781 -18.556969 -10.80625 -18.592125 C -10.782812 -18.627281 -10.751562 -18.685875 -10.728125 -18.724938 C -10.708594 -18.760094 -10.673437 -18.818688 -10.653906 -18.85775 C -10.630469 -18.892906 -10.599219 -18.9515 -10.575781 -18.990563 C -10.55625 -19.029625 -10.521094 -19.088219 -10.501562 -19.127281 C -10.482031 -19.166344 -10.446875 -19.228844 -10.427344 -19.267906 C -10.403906 -19.306969 -10.372656 -19.369469 -10.349219 -19.408531 C -10.329687 -19.447594 -10.294531 -19.510094 -10.275 -19.549156 C -10.251562 -19.592125 -10.220312 -19.654625 -10.196875 -19.697594 C -10.177344 -19.736656 -10.142187 -19.803063 -10.122656 -19.846031 C -10.103125 -19.885094 -10.067969 -19.9515 -10.048437 -19.994469 C -10.025 -20.033531 -9.99375 -20.103844 -9.970312 -20.142906 C -9.950781 -20.185875 -9.915625 -20.256188 -9.896094 -20.299156 C -9.876562 -20.342125 -9.841406 -20.412438 -9.821875 -20.455406 C -9.798437 -20.498375 -9.767187 -20.568688 -9.74375 -20.615563 C -9.724219 -20.658531 -9.689062 -20.728844 -9.669531 -20.775719 C -9.646094 -20.822594 -9.614844 -20.892906 -9.591406 -20.939781 C -9.571875 -20.986656 -9.536719 -21.060875 -9.517187 -21.103844 C -9.497656 -21.150719 -9.4625 -21.228844 -9.442969 -21.275719 C -9.419531 -21.322594 -9.388281 -21.400719 -9.364844 -21.447594 C -9.345312 -21.494469 -9.310156 -21.572594 -9.290625 -21.623375 C -9.271094 -21.67025 -9.235937 -21.752281 -9.216406 -21.799156 C -9.192969 -21.849938 -9.161719 -21.928063 -9.138281 -21.978844 C -9.11875 -22.029625 -9.083594 -22.111656 -9.064062 -22.162438 C -9.040625 -22.213219 -9.009375 -22.299156 -8.985937 -22.349938 C -8.966406 -22.400719 -8.93125 -22.486656 -8.911719 -22.541344 C -8.892187 -22.592125 -8.857031 -22.681969 -8.8375 -22.73275 C -8.814062 -22.787438 -8.782812 -22.873375 -8.759375 -22.928063 C -8.739844 -22.98275 -8.704687 -23.072594 -8.685156 -23.131188 C -8.665625 -23.185875 -8.630469 -23.275719 -8.610937 -23.334313 C -8.5875 -23.389 -8.55625 -23.48275 -8.532812 -23.541344 C -8.513281 -23.599938 -8.478125 -23.689781 -8.458594 -23.752281 C -8.435156 -23.810875 -8.403906 -23.904625 -8.380469 -23.967125 C -8.360937 -24.025719 -8.325781 -24.123375 -8.30625 -24.185875 C -8.286719 -24.244469 -8.251562 -24.346031 -8.232031 -24.408531 C -8.208594 -24.467125 -8.177344 -24.568688 -8.153906 -24.631188 C -8.134375 -24.693688 -8.099219 -24.799156 -8.079687 -24.861656 C -8.060156 -24.928063 -8.025 -25.033531 -8.005469 -25.099938 C -7.982031 -25.162438 -7.950781 -25.271813 -7.927344 -25.338219 C -7.907812 -25.404625 -7.872656 -25.514 -7.853125 -25.580406 C -7.829687 -25.650719 -7.798437 -25.760094 -7.775 -25.830406 C -7.755469 -25.900719 -7.720312 -26.014 -7.700781 -26.084313 C -7.68125 -26.158531 -7.646094 -26.271813 -7.626562 -26.346031 C -7.603125 -26.416344 -7.571875 -26.533531 -7.548437 -26.60775 C -7.528906 -26.681969 -7.49375 -26.803063 -7.474219 -26.877281 C -7.454687 -26.955406 -7.419531 -27.0765 -7.4 -27.154625 C -7.376562 -27.228844 -7.345312 -27.353844 -7.321875 -27.435875 C -7.302344 -27.514 -7.267187 -27.639 -7.247656 -27.721031 C -7.224219 -27.799156 -7.192969 -27.931969 -7.169531 -28.014 C -7.15 -28.096031 -7.114844 -28.228844 -7.095312 -28.310875 C -7.075781 -28.396813 -7.040625 -28.533531 -7.021094 -28.619469 C -6.997656 -28.7015 -6.966406 -28.842125 -6.942969 -28.928063 C -6.923437 -29.017906 -6.888281 -29.158531 -6.86875 -29.248375 C -6.845312 -29.338219 -6.814062 -29.48275 -6.790625 -29.572594 C -6.771094 -29.662438 -6.735937 -29.814781 -6.716406 -29.908531 C -6.696875 -30.002281 -6.661719 -30.150719 -6.642187 -30.248375 C -6.61875 -30.342125 -6.5875 -30.498375 -6.564062 -30.596031 C -6.544531 -30.693688 -6.509375 -30.853844 -6.489844 -30.9515 C -6.470312 -31.053063 -6.435156 -31.217125 -6.415625 -31.318688 C -6.392187 -31.42025 -6.360937 -31.588219 -6.3375 -31.693688 C -6.317969 -31.799156 -6.282812 -31.967125 -6.263281 -32.0765 C -6.239844 -32.181969 -6.208594 -32.35775 -6.185156 -32.467125 C -6.165625 -32.580406 -6.130469 -32.756188 -6.110937 -32.869469 C -6.091406 -32.98275 -6.05625 -33.166344 -6.036719 -33.283531 C -6.013281 -33.396813 -5.982031 -33.588219 -5.958594 -33.705406 C -5.939062 -33.8265 -5.903906 -34.017906 -5.884375 -34.139 C -5.864844 -34.260094 -5.829687 -34.459313 -5.810156 -34.584313 C -5.786719 -34.709313 -5.755469 -34.912438 -5.732031 -35.041344 C -5.7125 -35.17025 -5.677344 -35.377281 -5.657812 -35.510094 C -5.634375 -35.639 -5.603125 -35.853844 -5.579687 -35.990563 C -5.560156 -36.127281 -5.525 -36.346031 -5.505469 -36.486656 C -5.485937 -36.623375 -5.450781 -36.849938 -5.43125 -36.994469 C -5.407812 -37.139 -5.376562 -37.369469 -5.353125 -37.517906 C -5.333594 -37.662438 -5.298437 -37.904625 -5.278906 -38.053063 C -5.259375 -38.205406 -5.224219 -38.4515 -5.204687 -38.60775 C -5.18125 -38.764 -5.15 -39.017906 -5.126562 -39.178063 C -5.107031 -39.338219 -5.071875 -39.599938 -5.052344 -39.767906 C -5.028906 -39.931969 -4.997656 -40.2015 -4.974219 -40.373375 C -4.954687 -40.541344 -4.919531 -40.818688 -4.9 -40.994469 C -4.880469 -41.17025 -4.845312 -41.455406 -4.825781 -41.639 C -4.802344 -41.818688 -4.747656 -42.303063 -4.747656 -42.303063 " transform="matrix(1, 0, 0, -1, 53.15, 60.236)"/>
</g>
</svg>
