<?xml version="1.0" encoding="UTF-8"?>
<svg xmlns="http://www.w3.org/2000/svg" xmlns:xlink="http://www.w3.org/1999/xlink" width="113.386" height="113.386" viewBox="0 0 113.386 113.386">
<path fill="none" stroke-width="0.79701" stroke-linecap="butt" stroke-linejoin="miter" stroke="rgb(0%, 0%, 0%)" stroke-opacity="1" stroke-miterlimit="10" d="M -14.174094 0.00096875 L 73.29075 0.00096875 " transform="matrix(1, 0, 0, -1, 24.803, 88.583)"/>
<path fill-rule="nonzero" fill="rgb(0%, 0%, 0%)" fill-opacity="1" d="M 102.757812 88.582031 C 101.375 88.324219 99.128906 87.546875 97.578125 86.640625 L 97.578125 90.527344 C 99.128906 89.617188 101.375 88.84375 102.757812 88.582031 "/>
<path fill="none" stroke-width="0.79701" stroke-linecap="butt" stroke-linejoin="miter" stroke="rgb(0%, 0%, 0%)" stroke-opacity="1" stroke-miterlimit="10" d="M 0.0016875 -14.174813 L 0.0016875 73.290031 " transform="matrix(1, 0, 0, -1, 24.803, 88.583)"/>
<path fill-rule="nonzero" fill="rgb(0%, 0%, 0%)" fill-opacity="1" d="M 24.804688 10.628906 C 24.542969 12.011719 23.765625 14.253906 22.859375 15.808594 L 26.746094 15.808594 C 25.839844 14.253906 25.0625 12.011719 24.804688 10.628906 "/>
<path fill="none" stroke-width="0.79701" stroke-linecap="butt" stroke-linejoin="miter" stroke="rgb(50%, 50%, 50%)" stroke-opacity="1" stroke-dasharray="2.49069 1.0959" stroke-miterlimit="10" d="M -14.174094 42.5205 L 70.868875 42.5205 " transform="matrix(1, 0, 0, -1, 24.803, 88.583)"/>
<path fill-rule="nonzero" fill="rgb(25%, 25%, 25%)" fill-opacity="1" stroke-width="0.79701" stroke-linecap="butt" stroke-linejoin="miter" stroke="rgb(25%, 25%, 25%)" stroke-opacity="1" stroke-miterlimit="10" d="M 8.849344 14.172844 C 8.849344 15.1455 8.060281 15.934562 7.087625 15.934562 C 6.114969 15.934562 5.325906 15.1455 5.325906 14.172844 C 5.325906 13.200187 6.114969 12.411125 7.087625 12.411125 C 8.060281 12.411125 8.849344 13.200187 8.849344 14.172844 Z M 8.849344 14.172844 " transform="matrix(1, 0, 0, -1, 24.803, 88.583)"/>
<path fill-rule="nonzero" fill="rgb(25%, 25%, 25%)" fill-opacity="1" stroke-width="0.79701" stroke-linecap="butt" stroke-linejoin="miter" stroke="rgb(25%, 25%, 25%)" stroke-opacity="1" stroke-miterlimit="10" d="M 15.935281 28.348625 C 15.935281 29.321281 15.146219 30.106437 14.173562 30.106437 C 13.200906 30.106437 12.411844 29.321281 12.411844 28.348625 C 12.411844 27.375969 13.200906 26.586906 14.173562 26.586906 C 15.146219 26.586906 15.935281 27.375969 15.935281 28.348625 Z M 15.935281 28.348625 " transform="matrix(1, 0, 0, -1, 24.803, 88.583)"/>
<path fill-rule="nonzero" fill="rgb(25%, 25%, 25%)" fill-opacity="1" stroke-width="0.79701" stroke-linecap="butt" stroke-linejoin="miter" stroke="rgb(25%, 25%, 25%)" stroke-opacity="1" stroke-miterlimit="10" d="M 23.021219 34.6455 C 23.021219 35.618156 22.232156 36.407219 21.2595 36.407219 C 20.286844 36.407219 19.497781 35.618156 19.497781 34.6455 C 19.497781 33.672844 20.286844 32.883781 21.2595 32.883781 C 22.232156 32.883781 23.021219 33.672844 23.021219 34.6455 Z M 23.021219 34.6455 " transform="matrix(1, 0, 0, -1, 24.803, 88.583)"/>
<path fill-rule="nonzero" fill="rgb(25%, 25%, 25%)" fill-opacity="1" stroke-width="0.79701" stroke-linecap="butt" stroke-linejoin="miter" stroke="rgb(25%, 25%, 25%)" stroke-opacity="1" stroke-miterlimit="10" d="M 30.107156 37.204094 C 30.107156 38.17675 29.318094 38.965812 28.345437 38.965812 C 27.372781 38.965812 26.583719 38.17675 26.583719 37.204094 C 26.583719 36.231437 27.372781 35.442375 28.345437 35.442375 C 29.318094 35.442375 30.107156 36.231437 30.107156 37.204094 Z M 30.107156 37.204094 " transform="matrix(1, 0, 0, -1, 24.803, 88.583)"/>
<path fill-rule="nonzero" fill="rgb(25%, 25%, 25%)" fill-opacity="1" stroke-width="0.79701" stroke-linecap="butt" stroke-linejoin="miter" stroke="rgb(25%, 25%, 25%)" stroke-opacity="1" stroke-miterlimit="10" d="M 37.193094 38.55175 C 37.193094 39.524406 36.407938 40.313469 35.435281 40.313469 C 34.462625 40.313469 33.673563 39.524406 33.673563 38.55175 C 33.673563 37.579094 34.462625 36.790031 35.435281 36.790031 C 36.407938 36.790031 37.193094 37.579094 37.193094 38.55175 Z M 37.193094 38.55175 " transform="matrix(1, 0, 0, -1, 24.803, 88.583)"/>
<path fill-rule="nonzero" fill="rgb(25%, 25%, 25%)" fill-opacity="1" stroke-width="0.79701" stroke-linecap="butt" stroke-linejoin="miter" stroke="rgb(25%, 25%, 25%)" stroke-opacity="1" stroke-miterlimit="10" d="M 44.282938 39.372062 C 44.282938 40.344719 43.493875 41.133781 42.521219 41.133781 C 41.548563 41.133781 40.7595 40.344719 40.7595 39.372062 C 40.7595 38.399406 41.548563 37.610344 42.521219 37.610344 C 43.493875 37.610344 44.282938 38.399406 44.282938 39.372062 Z M 44.282938 39.372062 " transform="matrix(1, 0, 0, -1, 24.803, 88.583)"/>
<path fill-rule="nonzero" fill="rgb(25%, 25%, 25%)" fill-opacity="1" stroke-width="0.79701" stroke-linecap="butt" stroke-linejoin="miter" stroke="rgb(25%, 25%, 25%)" stroke-opacity="1" stroke-miterlimit="10" d="M 51.368875 39.915031 C 51.368875 40.891594 50.579813 41.67675 49.607156 41.67675 C 48.6345 41.67675 47.845438 40.891594 47.845438 39.915031 C 47.845438 38.942375 48.6345 38.157219 49.607156 38.157219 C 50.579813 38.157219 51.368875 38.942375 51.368875 39.915031 Z M 51.368875 39.915031 " transform="matrix(1, 0, 0, -1, 24.803, 88.583)"/>
<path fill-rule="nonzero" fill="rgb(25%, 25%, 25%)" fill-opacity="1" stroke-width="0.79701" stroke-linecap="butt" stroke-linejoin="miter" stroke="rgb(25%, 25%, 25%)" stroke-opacity="1" stroke-miterlimit="10" d="M 58.454813 40.305656 C 58.454813 41.278312 57.66575 42.067375 56.693094 42.067375 C 55.720438 42.067375 54.931375 41.278312 54.931375 40.305656 C 54.931375 39.333 55.720438 38.543937 56.693094 38.543937 C 57.66575 38.543937 58.454813 39.333 58.454813 40.305656 Z M 58.454813 40.305656 " transform="matrix(1, 0, 0, -1, 24.803, 88.583)"/>
<path fill-rule="nonzero" fill="rgb(25%, 25%, 25%)" fill-opacity="1" stroke-width="0.79701" stroke-linecap="butt" stroke-linejoin="miter" stroke="rgb(25%, 25%, 25%)" stroke-opacity="1" stroke-miterlimit="10" d="M 65.54075 40.594719 C 65.54075 41.567375 64.751688 42.356437 63.779031 42.356437 C 62.806375 42.356437 62.017313 41.567375 62.017313 40.594719 C 62.017313 39.622062 62.806375 38.833 63.779031 38.833 C 64.751688 38.833 65.54075 39.622062 65.54075 40.594719 Z M 65.54075 40.594719 " transform="matrix(1, 0, 0, -1, 24.803, 88.583)"/>
</svg>
