<?xml version="1.0" encoding="UTF-8"?>
<svg xmlns="http://www.w3.org/2000/svg" xmlns:xlink="http://www.w3.org/1999/xlink" width="113.386" height="113.386" viewBox="0 0 113.386 113.386">
<defs>
<clipPath id="clip-0">
<path clip-rule="nonzero" d="M 0 9 L 113.386719 9 L 113.386719 112 L 0 112 Z M 0 9 "/>
</clipPath>
</defs>
<path fill="none" stroke-width="0.79701" stroke-linecap="butt" stroke-linejoin="miter" stroke="rgb(0%, 0%, 0%)" stroke-opacity="1" stroke-miterlimit="10" d="M -14.174094 28.348625 L 73.29075 28.348625 " transform="matrix(1, 0, 0, -1, 24.803, 88.583)"/>
<path fill-rule="nonzero" fill="rgb(0%, 0%, 0%)" fill-opacity="1" d="M 102.757812 60.234375 C 101.375 59.976562 99.128906 59.199219 97.578125 58.292969 L 97.578125 62.179688 C 99.128906 61.273438 101.375 60.496094 102.757812 60.234375 "/>
<path fill="none" stroke-width="0.79701" stroke-linecap="butt" stroke-linejoin="miter" stroke="rgb(0%, 0%, 0%)" stroke-opacity="1" stroke-miterlimit="10" d="M 28.345437 -14.174813 L 28.345437 73.290031 " transform="matrix(1, 0, 0, -1, 24.803, 88.583)"/>
<path fill-rule="nonzero" fill="rgb(0%, 0%, 0%)" fill-opacity="1" d="M 53.148438 10.628906 C 52.890625 12.011719 52.113281 14.253906 51.207031 15.808594 L 55.09375 15.808594 C 54.1875 14.253906 53.410156 12.011719 53.148438 10.628906 "/>
<g clip-path="url(#clip-0)">
<path fill="none" stroke-width="1.59404" stroke-linecap="butt" stroke-linejoin="miter" stroke="rgb(25%, 25%, 25%)" stroke-opacity="1" stroke-miterlimit="10" d="M -14.174094 28.348625 C -14.174094 28.348625 -14.049094 27.961906 -14.002219 27.813469 C -13.955344 27.665031 -13.881125 27.42675 -13.83425 27.278312 C -13.783469 27.129875 -13.70925 26.891594 -13.662375 26.743156 C -13.6155 26.594719 -13.537375 26.356437 -13.4905 26.208 C -13.443625 26.059562 -13.369406 25.821281 -13.322531 25.672844 C -13.275656 25.528312 -13.197531 25.290031 -13.150656 25.141594 C -13.103781 24.993156 -13.029563 24.758781 -12.978781 24.610344 C -12.931906 24.461906 -12.857688 24.227531 -12.810813 24.079094 C -12.763938 23.934562 -12.685813 23.700187 -12.638938 23.55175 C -12.592063 23.407219 -12.517844 23.172844 -12.470969 23.024406 C -12.420188 22.879875 -12.345969 22.6455 -12.299094 22.500969 C -12.252219 22.356437 -12.174094 22.122062 -12.127219 21.977531 C -12.080344 21.833 -12.006125 21.602531 -11.95925 21.458 C -11.912375 21.313469 -11.83425 21.083 -11.787375 20.938469 C -11.7405 20.793937 -11.666281 20.567375 -11.6155 20.422844 C -11.568625 20.282219 -11.494406 20.05175 -11.447531 19.911125 C -11.400656 19.7705 -11.322531 19.543937 -11.275656 19.403312 C -11.228781 19.258781 -11.154563 19.036125 -11.107688 18.8955 C -11.056906 18.754875 -10.982688 18.532219 -10.935813 18.391594 C -10.888938 18.250969 -10.810813 18.032219 -10.763938 17.891594 C -10.717063 17.754875 -10.642844 17.532219 -10.595969 17.3955 C -10.549094 17.258781 -10.470969 17.040031 -10.424094 16.903312 C -10.377219 16.7705 -10.299094 16.55175 -10.252219 16.415031 C -10.205344 16.282219 -10.131125 16.067375 -10.08425 15.934562 C -10.037375 15.80175 -9.95925 15.586906 -9.912375 15.454094 C -9.8655 15.321281 -9.791281 15.110344 -9.744406 14.981437 C -9.693625 14.848625 -9.619406 14.637687 -9.572531 14.508781 C -9.525656 14.379875 -9.447531 14.172844 -9.400656 14.043937 C -9.353781 13.918937 -9.279563 13.711906 -9.232688 13.586906 C -9.185813 13.458 -9.107688 13.258781 -9.060813 13.133781 C -9.013938 13.004875 -8.935813 12.805656 -8.888938 12.684562 C -8.842063 12.559562 -8.767844 12.360344 -8.720969 12.23925 C -8.674094 12.118156 -8.595969 11.922844 -8.549094 11.80175 C -8.502219 11.680656 -8.428 11.48925 -8.377219 11.368156 C -8.330344 11.250969 -8.256125 11.059562 -8.20925 10.942375 C -8.162375 10.825187 -8.08425 10.641594 -8.037375 10.524406 C -7.9905 10.407219 -7.916281 10.223625 -7.869406 10.110344 C -7.818625 9.997062 -7.744406 9.817375 -7.697531 9.704094 C -7.650656 9.594719 -7.572531 9.415031 -7.525656 9.305656 C -7.478781 9.196281 -7.404563 9.0205 -7.357688 8.911125 C -7.310813 8.80175 -7.232688 8.633781 -7.185813 8.524406 C -7.138938 8.418937 -7.064719 8.250969 -7.013938 8.1455 C -6.967063 8.043937 -6.892844 7.875969 -6.845969 7.774406 C -6.799094 7.672844 -6.720969 7.508781 -6.674094 7.411125 C -6.627219 7.309562 -6.553 7.149406 -6.506125 7.05175 C -6.455344 6.954094 -6.381125 6.797844 -6.33425 6.704094 C -6.287375 6.606437 -6.20925 6.454094 -6.162375 6.360344 C -6.1155 6.266594 -6.041281 6.118156 -5.994406 6.028312 C -5.947531 5.934562 -5.869406 5.790031 -5.822531 5.700187 C -5.775656 5.610344 -5.701438 5.469719 -5.650656 5.383781 C -5.603781 5.297844 -5.529563 5.157219 -5.482688 5.075187 C -5.435813 4.98925 -5.357688 4.856437 -5.310813 4.7705 C -5.263938 4.688469 -5.189719 4.559562 -5.142844 4.477531 C -5.092063 4.399406 -5.017844 4.274406 -4.970969 4.196281 C -4.924094 4.118156 -4.845969 3.993156 -4.799094 3.918937 C -4.752219 3.844719 -4.678 3.723625 -4.631125 3.653312 C -4.58425 3.579094 -4.506125 3.461906 -4.45925 3.391594 C -4.412375 3.321281 -4.338156 3.211906 -4.287375 3.1455 C -4.2405 3.075187 -4.166281 2.969719 -4.119406 2.903312 C -4.072531 2.836906 -3.994406 2.735344 -3.947531 2.672844 C -3.900656 2.606437 -3.826438 2.508781 -3.779563 2.450187 C -3.728781 2.387687 -3.654563 2.293937 -3.607688 2.235344 C -3.560813 2.17675 -3.482688 2.086906 -3.435813 2.032219 C -3.388938 1.977531 -3.314719 1.891594 -3.267844 1.836906 C -3.220969 1.786125 -3.142844 1.704094 -3.095969 1.653312 C -3.049094 1.602531 -2.974875 1.524406 -2.924094 1.477531 C -2.877219 1.430656 -2.803 1.356437 -2.756125 1.313469 C -2.70925 1.266594 -2.631125 1.200187 -2.58425 1.157219 C -2.537375 1.11425 -2.463156 1.047844 -2.416281 1.008781 C -2.3655 0.969719 -2.291281 0.911125 -2.244406 0.872062 C -2.197531 0.836906 -2.119406 0.782219 -2.072531 0.747062 C -2.025656 0.711906 -1.951438 0.661125 -1.904563 0.629875 C -1.857688 0.598625 -1.779563 0.55175 -1.732688 0.5205 C -1.685813 0.493156 -1.607688 0.450187 -1.560813 0.422844 C -1.513938 0.399406 -1.439719 0.360344 -1.392844 0.336906 C -1.345969 0.313469 -1.267844 0.282219 -1.220969 0.258781 C -1.174094 0.23925 -1.099875 0.211906 -1.053 0.192375 C -1.002219 0.17675 -0.928 0.149406 -0.881125 0.137687 C -0.83425 0.122062 -0.756125 0.102531 -0.70925 0.0908125 C -0.662375 0.0790937 -0.588156 0.0595625 -0.541281 0.05175 C -0.494406 0.0439375 -0.416281 0.0322187 -0.369406 0.0244062 C -0.322531 0.0205 -0.244406 0.0126875 -0.197531 0.00878125 C -0.150656 0.004875 -0.0764375 0.00096875 -0.0295625 0.00096875 C 0.0173125 0.00096875 0.0954375 0.00096875 0.142312 0.004875 C 0.189187 0.004875 0.263406 0.0126875 0.314187 0.0165937 C 0.361062 0.0244062 0.435281 0.0322187 0.482156 0.0400312 C 0.529031 0.0478437 0.607156 0.0634687 0.654031 0.0751875 C 0.700906 0.0869062 0.775125 0.106437 0.822 0.118156 C 0.868875 0.133781 0.947 0.157219 0.993875 0.172844 C 1.04075 0.188469 1.118875 0.219719 1.16575 0.235344 C 1.212625 0.254875 1.286844 0.290031 1.333719 0.309562 C 1.380594 0.333 1.458719 0.372062 1.505594 0.3955 C 1.552469 0.418937 1.626687 0.461906 1.677469 0.48925 C 1.724344 0.516594 1.798562 0.563469 1.845437 0.590812 C 1.892312 0.622062 1.970437 0.672844 2.017312 0.704094 C 2.064187 0.73925 2.138406 0.793937 2.185281 0.829094 C 2.236062 0.86425 2.310281 0.922844 2.357156 0.961906 C 2.404031 1.000969 2.482156 1.063469 2.529031 1.106437 C 2.575906 1.1455 2.650125 1.215812 2.697 1.258781 C 2.743875 1.30175 2.822 1.375969 2.868875 1.422844 C 2.91575 1.465812 2.989969 1.543937 3.04075 1.594719 C 3.087625 1.641594 3.161844 1.723625 3.208719 1.774406 C 3.255594 1.829094 3.333719 1.911125 3.380594 1.965812 C 3.427469 2.0205 3.501687 2.110344 3.548562 2.168937 C 3.599344 2.223625 3.673562 2.317375 3.720437 2.375969 C 3.767312 2.438469 3.845437 2.536125 3.892312 2.594719 C 3.939187 2.657219 4.013406 2.758781 4.060281 2.825187 C 4.107156 2.887687 4.185281 2.993156 4.232156 3.063469 C 4.279031 3.129875 4.35325 3.23925 4.404031 3.309562 C 4.450906 3.375969 4.525125 3.493156 4.572 3.563469 C 4.618875 3.637687 4.697 3.754875 4.743875 3.829094 C 4.79075 3.903312 4.864969 4.024406 4.911844 4.102531 C 4.962625 4.17675 5.036844 4.30175 5.083719 4.383781 C 5.130594 4.461906 5.208719 4.590812 5.255594 4.672844 C 5.302469 4.754875 5.376687 4.887687 5.423562 4.973625 C 5.470437 5.055656 5.548562 5.192375 5.595437 5.278312 C 5.642312 5.36425 5.716531 5.504875 5.767312 5.594719 C 5.814187 5.684562 5.888406 5.825187 5.935281 5.918937 C 5.982156 6.008781 6.060281 6.157219 6.107156 6.247062 C 6.154031 6.340812 6.22825 6.493156 6.275125 6.586906 C 6.325906 6.684562 6.400125 6.836906 6.447 6.934562 C 6.493875 7.032219 6.572 7.188469 6.618875 7.290031 C 6.66575 7.387687 6.739969 7.547844 6.786844 7.649406 C 6.833719 7.750969 6.911844 7.918937 6.958719 8.0205 C 7.005594 8.125969 7.083719 8.293937 7.130594 8.399406 C 7.177469 8.504875 7.251687 8.672844 7.298562 8.782219 C 7.345437 8.887687 7.423562 9.063469 7.470437 9.172844 C 7.517312 9.282219 7.591531 9.458 7.638406 9.571281 C 7.689187 9.680656 7.763406 9.860344 7.810281 9.973625 C 7.857156 10.086906 7.935281 10.2705 7.982156 10.383781 C 8.029031 10.500969 8.10325 10.684562 8.150125 10.80175 C 8.197 10.918937 8.275125 11.106437 8.322 11.227531 C 8.368875 11.344719 8.447 11.536125 8.493875 11.657219 C 8.54075 11.774406 8.614969 11.969719 8.661844 12.090812 C 8.708719 12.211906 8.786844 12.411125 8.833719 12.532219 C 8.880594 12.657219 8.954812 12.856437 9.005594 12.981437 C 9.052469 13.106437 9.126687 13.305656 9.173562 13.434562 C 9.220437 13.559562 9.298562 13.762687 9.345437 13.891594 C 9.392312 14.0205 9.466531 14.223625 9.513406 14.352531 C 9.564187 14.485344 9.638406 14.692375 9.685281 14.821281 C 9.732156 14.954094 9.810281 15.165031 9.857156 15.293937 C 9.904031 15.42675 9.97825 15.641594 10.025125 15.774406 C 10.072 15.907219 10.150125 16.122062 10.197 16.254875 C 10.243875 16.387687 10.318094 16.606437 10.368875 16.73925 C 10.41575 16.875969 10.489969 17.094719 10.536844 17.231437 C 10.583719 17.368156 10.661844 17.586906 10.708719 17.727531 C 10.755594 17.86425 10.829812 18.086906 10.876687 18.223625 C 10.927469 18.36425 11.001687 18.586906 11.048562 18.727531 C 11.095437 18.86425 11.173562 19.090812 11.220437 19.231437 C 11.267312 19.372062 11.341531 19.598625 11.388406 19.73925 C 11.435281 19.879875 11.513406 20.110344 11.560281 20.250969 C 11.607156 20.3955 11.681375 20.622062 11.732156 20.766594 C 11.779031 20.911125 11.85325 21.137687 11.900125 21.282219 C 11.947 21.42675 12.025125 21.657219 12.072 21.80175 C 12.118875 21.946281 12.193094 22.180656 12.239969 22.325187 C 12.29075 22.469719 12.364969 22.704094 12.411844 22.848625 C 12.458719 22.993156 12.536844 23.227531 12.583719 23.375969 C 12.630594 23.5205 12.704812 23.754875 12.751687 23.903312 C 12.798562 24.047844 12.876687 24.286125 12.923562 24.430656 C 12.970437 24.579094 13.044656 24.817375 13.095437 24.961906 C 13.142312 25.110344 13.216531 25.348625 13.263406 25.497062 C 13.310281 25.6455 13.388406 25.879875 13.435281 26.028312 C 13.482156 26.17675 13.556375 26.415031 13.60325 26.563469 C 13.654031 26.711906 13.72825 26.950187 13.775125 27.098625 C 13.822 27.247062 13.900125 27.485344 13.947 27.633781 C 13.993875 27.782219 14.068094 28.0205 14.114969 28.168937 C 14.161844 28.317375 14.239969 28.555656 14.286844 28.704094 C 14.333719 28.852531 14.407937 29.090812 14.458719 29.23925 C 14.505594 29.387687 14.579812 29.625969 14.626687 29.7705 C 14.673562 29.918937 14.751687 30.157219 14.798562 30.305656 C 14.845437 30.454094 14.919656 30.692375 14.966531 30.840812 C 15.017312 30.98925 15.091531 31.223625 15.138406 31.372062 C 15.185281 31.5205 15.263406 31.758781 15.310281 31.907219 C 15.357156 32.05175 15.431375 32.290031 15.47825 32.434562 C 15.525125 32.583 15.60325 32.817375 15.650125 32.965812 C 15.697 33.110344 15.775125 33.344719 15.822 33.493156 C 15.868875 33.637687 15.943094 33.872062 15.989969 34.016594 C 16.036844 34.165031 16.114969 34.3955 16.161844 34.540031 C 16.208719 34.684562 16.282937 34.918937 16.329812 35.063469 C 16.380594 35.208 16.454812 35.438469 16.501687 35.583 C 16.548562 35.723625 16.626687 35.954094 16.673562 36.098625 C 16.720437 36.23925 16.794656 36.469719 16.841531 36.610344 C 16.888406 36.754875 16.966531 36.981437 17.013406 37.122062 C 17.060281 37.262687 17.138406 37.48925 17.185281 37.629875 C 17.232156 37.7705 17.306375 37.993156 17.35325 38.133781 C 17.400125 38.274406 17.47825 38.497062 17.525125 38.633781 C 17.572 38.7705 17.646219 38.993156 17.697 39.129875 C 17.743875 39.266594 17.818094 39.48925 17.864969 39.625969 C 17.911844 39.758781 17.989969 39.977531 18.036844 40.11425 C 18.083719 40.247062 18.157937 40.465812 18.204812 40.598625 C 18.255594 40.731437 18.329812 40.946281 18.376687 41.079094 C 18.423562 41.211906 18.501687 41.422844 18.548562 41.555656 C 18.595437 41.684562 18.669656 41.8955 18.716531 42.028312 C 18.763406 42.157219 18.841531 42.36425 18.888406 42.493156 C 18.935281 42.622062 19.0095 42.829094 19.060281 42.954094 C 19.107156 43.083 19.181375 43.286125 19.22825 43.411125 C 19.275125 43.536125 19.35325 43.735344 19.400125 43.860344 C 19.447 43.985344 19.521219 44.184562 19.568094 44.305656 C 19.618875 44.430656 19.693094 44.625969 19.739969 44.747062 C 19.786844 44.868156 19.864969 45.059562 19.911844 45.180656 C 19.958719 45.297844 20.032937 45.48925 20.079812 45.606437 C 20.126687 45.723625 20.204812 45.911125 20.251687 46.028312 C 20.298562 46.1455 20.372781 46.329094 20.423562 46.442375 C 20.470437 46.559562 20.544656 46.73925 20.591531 46.852531 C 20.638406 46.965812 20.716531 47.1455 20.763406 47.254875 C 20.810281 47.36425 20.8845 47.543937 20.931375 47.649406 C 20.982156 47.758781 21.056375 47.930656 21.10325 48.040031 C 21.150125 48.1455 21.22825 48.317375 21.275125 48.422844 C 21.322 48.524406 21.396219 48.692375 21.443094 48.793937 C 21.489969 48.899406 21.568094 49.059562 21.614969 49.161125 C 21.661844 49.262687 21.736062 49.422844 21.786844 49.5205 C 21.833719 49.622062 21.907937 49.778312 21.954812 49.872062 C 22.001687 49.969719 22.079812 50.122062 22.126687 50.219719 C 22.173562 50.313469 22.247781 50.461906 22.294656 50.555656 C 22.345437 50.6455 22.419656 50.793937 22.466531 50.883781 C 22.513406 50.973625 22.591531 51.118156 22.638406 51.204094 C 22.685281 51.293937 22.7595 51.430656 22.806375 51.516594 C 22.85325 51.602531 22.931375 51.73925 22.97825 51.821281 C 23.025125 51.903312 23.099344 52.036125 23.150125 52.118156 C 23.197 52.200187 23.271219 52.325187 23.318094 52.403312 C 23.364969 52.485344 23.443094 52.606437 23.489969 52.684562 C 23.536844 52.758781 23.611062 52.879875 23.657937 52.954094 C 23.708719 53.028312 23.782937 53.141594 23.829812 53.215812 C 23.876687 53.286125 23.954812 53.399406 24.001687 53.465812 C 24.048562 53.536125 24.122781 53.6455 24.169656 53.711906 C 24.216531 53.778312 24.294656 53.879875 24.341531 53.946281 C 24.388406 54.008781 24.466531 54.110344 24.513406 54.168937 C 24.560281 54.231437 24.6345 54.329094 24.681375 54.387687 C 24.72825 54.446281 24.806375 54.536125 24.85325 54.594719 C 24.900125 54.649406 24.974344 54.73925 25.025125 54.790031 C 25.072 54.844719 25.146219 54.930656 25.193094 54.981437 C 25.239969 55.032219 25.318094 55.110344 25.364969 55.157219 C 25.411844 55.208 25.486062 55.282219 25.532937 55.329094 C 25.579812 55.372062 25.657937 55.442375 25.704812 55.485344 C 25.751687 55.528312 25.829812 55.594719 25.876687 55.633781 C 25.923562 55.67675 25.997781 55.73925 26.044656 55.774406 C 26.091531 55.813469 26.169656 55.872062 26.216531 55.907219 C 26.263406 55.938469 26.337625 55.993156 26.388406 56.024406 C 26.435281 56.059562 26.5095 56.106437 26.556375 56.137687 C 26.60325 56.165031 26.681375 56.211906 26.72825 56.235344 C 26.775125 56.262687 26.849344 56.305656 26.896219 56.329094 C 26.947 56.352531 27.021219 56.387687 27.068094 56.407219 C 27.114969 56.430656 27.193094 56.461906 27.239969 56.481437 C 27.286844 56.497062 27.361062 56.524406 27.407937 56.540031 C 27.454812 56.555656 27.532937 56.579094 27.579812 56.590812 C 27.626687 56.602531 27.700906 56.622062 27.751687 56.629875 C 27.798562 56.641594 27.872781 56.653312 27.919656 56.661125 C 27.966531 56.668937 28.044656 56.67675 28.091531 56.680656 C 28.138406 56.684562 28.212625 56.688469 28.2595 56.692375 C 28.310281 56.692375 28.3845 56.692375 28.431375 56.692375 C 28.47825 56.688469 28.556375 56.684562 28.60325 56.680656 C 28.650125 56.67675 28.724344 56.668937 28.771219 56.661125 C 28.818094 56.653312 28.896219 56.641594 28.943094 56.629875 C 28.989969 56.622062 29.064187 56.602531 29.114969 56.590812 C 29.161844 56.579094 29.236062 56.555656 29.282937 56.540031 C 29.329812 56.524406 29.407937 56.497062 29.454812 56.481437 C 29.501687 56.461906 29.575906 56.430656 29.622781 56.407219 C 29.673562 56.387687 29.747781 56.352531 29.794656 56.329094 C 29.841531 56.305656 29.919656 56.262687 29.966531 56.23925 C 30.013406 56.211906 30.087625 56.165031 30.1345 56.137687 C 30.181375 56.106437 30.2595 56.059562 30.306375 56.024406 C 30.35325 55.993156 30.427469 55.942375 30.47825 55.907219 C 30.525125 55.872062 30.599344 55.813469 30.646219 55.774406 C 30.693094 55.73925 30.771219 55.67675 30.818094 55.637687 C 30.864969 55.594719 30.939187 55.528312 30.986062 55.485344 C 31.036844 55.442375 31.111062 55.372062 31.157937 55.329094 C 31.204812 55.282219 31.282937 55.208 31.329812 55.161125 C 31.376687 55.110344 31.450906 55.032219 31.497781 54.981437 C 31.544656 54.930656 31.622781 54.844719 31.669656 54.793937 C 31.716531 54.73925 31.79075 54.649406 31.841531 54.594719 C 31.888406 54.540031 31.962625 54.446281 32.0095 54.387687 C 32.056375 54.329094 32.1345 54.231437 32.181375 54.172844 C 32.22825 54.110344 32.302469 54.008781 32.349344 53.946281 C 32.400125 53.883781 32.474344 53.778312 32.521219 53.711906 C 32.568094 53.6455 32.646219 53.536125 32.693094 53.469719 C 32.739969 53.399406 32.814188 53.286125 32.861063 53.215812 C 32.907938 53.1455 32.986063 53.028312 33.032938 52.954094 C 33.079813 52.879875 33.157938 52.762687 33.204813 52.684562 C 33.251688 52.610344 33.325906 52.485344 33.372781 52.407219 C 33.419656 52.329094 33.497781 52.200187 33.544656 52.118156 C 33.591531 52.040031 33.66575 51.907219 33.716531 51.821281 C 33.763406 51.73925 33.837625 51.602531 33.8845 51.5205 C 33.931375 51.434562 34.0095 51.293937 34.056375 51.208 C 34.10325 51.118156 34.177469 50.977531 34.224344 50.883781 C 34.271219 50.793937 34.349344 50.649406 34.396219 50.555656 C 34.443094 50.465812 34.521219 50.313469 34.568094 50.219719 C 34.614969 50.125969 34.689188 49.973625 34.736063 49.875969 C 34.782938 49.778312 34.861063 49.622062 34.907938 49.524406 C 34.954813 49.422844 35.029031 49.266594 35.079813 49.165031 C 35.126688 49.063469 35.200906 48.899406 35.247781 48.797844 C 35.294656 48.696281 35.372781 48.528312 35.419656 48.422844 C 35.466531 48.317375 35.54075 48.149406 35.587625 48.040031 C 35.638406 47.934562 35.712625 47.762687 35.7595 47.653312 C 35.806375 47.543937 35.8845 47.368156 35.931375 47.258781 C 35.97825 47.1455 36.052469 46.969719 36.099344 46.856437 C 36.146219 46.743156 36.224344 46.559562 36.271219 46.446281 C 36.318094 46.333 36.392313 46.1455 36.443094 46.032219 C 36.489969 45.915031 36.564188 45.727531 36.611063 45.610344 C 36.657938 45.493156 36.736063 45.30175 36.782938 45.180656 C 36.829813 45.063469 36.904031 44.868156 36.950906 44.747062 C 37.001688 44.625969 37.075906 44.430656 37.122781 44.309562 C 37.169656 44.184562 37.247781 43.98925 37.294656 43.86425 C 37.341531 43.73925 37.41575 43.540031 37.462625 43.411125 C 37.5095 43.286125 37.587625 43.083 37.6345 42.958 C 37.681375 42.829094 37.755594 42.625969 37.806375 42.497062 C 37.85325 42.368156 37.927469 42.161125 37.974344 42.028312 C 38.021219 41.899406 38.099344 41.688469 38.146219 41.555656 C 38.193094 41.42675 38.267313 41.215812 38.314188 41.083 C 38.364969 40.950187 38.439188 40.735344 38.486063 40.602531 C 38.532938 40.465812 38.611063 40.250969 38.657938 40.11425 C 38.704813 39.981437 38.779031 39.762687 38.825906 39.625969 C 38.872781 39.48925 38.950906 39.2705 38.997781 39.133781 C 39.044656 38.997062 39.118875 38.774406 39.169656 38.637687 C 39.216531 38.497062 39.29075 38.274406 39.337625 38.137687 C 39.3845 37.997062 39.462625 37.7705 39.5095 37.633781 C 39.556375 37.493156 39.630594 37.266594 39.677469 37.125969 C 39.72825 36.985344 39.802469 36.754875 39.849344 36.61425 C 39.896219 36.473625 39.974344 36.243156 40.021219 36.098625 C 40.068094 35.958 40.142313 35.727531 40.189188 35.583 C 40.236063 35.438469 40.314188 35.208 40.361063 35.063469 C 40.407938 34.918937 40.482156 34.688469 40.532938 34.543937 C 40.579813 34.399406 40.654031 34.165031 40.700906 34.0205 C 40.747781 33.875969 40.825906 33.641594 40.872781 33.493156 C 40.919656 33.348625 40.993875 33.11425 41.04075 32.965812 C 41.091531 32.821281 41.16575 32.586906 41.212625 32.438469 C 41.2595 32.290031 41.337625 32.055656 41.3845 31.907219 C 41.431375 31.758781 41.505594 31.524406 41.552469 31.375969 C 41.599344 31.227531 41.677469 30.993156 41.724344 30.844719 C 41.771219 30.696281 41.849344 30.458 41.896219 30.309562 C 41.943094 30.161125 42.017313 29.922844 42.064188 29.774406 C 42.111063 29.625969 42.189188 29.387687 42.236063 29.23925 C 42.282938 29.090812 42.357156 28.852531 42.407938 28.704094 C 42.454813 28.555656 42.529031 28.317375 42.575906 28.168937 C 42.622781 28.0205 42.700906 27.782219 42.747781 27.633781 C 42.794656 27.485344 42.868875 27.247062 42.91575 27.098625 C 42.962625 26.950187 43.04075 26.715812 43.087625 26.567375 C 43.1345 26.418937 43.212625 26.180656 43.2595 26.032219 C 43.306375 25.883781 43.380594 25.6455 43.427469 25.497062 C 43.474344 25.352531 43.552469 25.11425 43.599344 24.965812 C 43.646219 24.817375 43.720438 24.583 43.771219 24.434562 C 43.818094 24.290031 43.892313 24.05175 43.939188 23.907219 C 43.986063 23.758781 44.064188 23.524406 44.111063 23.379875 C 44.157938 23.231437 44.232156 22.997062 44.279031 22.852531 C 44.329813 22.708 44.404031 22.473625 44.450906 22.329094 C 44.497781 22.180656 44.575906 21.950187 44.622781 21.805656 C 44.669656 21.661125 44.743875 21.430656 44.79075 21.286125 C 44.837625 21.141594 44.91575 20.911125 44.962625 20.7705 C 45.0095 20.625969 45.083719 20.3955 45.1345 20.254875 C 45.181375 20.110344 45.255594 19.883781 45.302469 19.743156 C 45.349344 19.602531 45.427469 19.375969 45.474344 19.235344 C 45.521219 19.094719 45.595438 18.868156 45.642313 18.727531 C 45.693094 18.586906 45.767313 18.36425 45.814188 18.227531 C 45.861063 18.086906 45.939188 17.86425 45.986063 17.727531 C 46.032938 17.590812 46.107156 17.372062 46.154031 17.235344 C 46.200906 17.098625 46.279031 16.879875 46.325906 16.743156 C 46.372781 16.606437 46.447 16.391594 46.497781 16.258781 C 46.544656 16.122062 46.618875 15.907219 46.66575 15.774406 C 46.712625 15.641594 46.79075 15.430656 46.837625 15.297844 C 46.8845 15.165031 46.958719 14.954094 47.005594 14.825187 C 47.056375 14.692375 47.130594 14.485344 47.177469 14.356437 C 47.224344 14.227531 47.302469 14.0205 47.349344 13.891594 C 47.396219 13.766594 47.470438 13.563469 47.517313 13.434562 C 47.564188 13.309562 47.642313 13.106437 47.689188 12.981437 C 47.736063 12.856437 47.810281 12.657219 47.861063 12.536125 C 47.907938 12.411125 47.982156 12.215812 48.029031 12.094719 C 48.075906 11.973625 48.154031 11.778312 48.200906 11.657219 C 48.247781 11.540031 48.322 11.344719 48.368875 11.227531 C 48.419656 11.110344 48.493875 10.922844 48.54075 10.805656 C 48.587625 10.688469 48.66575 10.504875 48.712625 10.387687 C 48.7595 10.274406 48.833719 10.090812 48.880594 9.977531 C 48.927469 9.86425 49.005594 9.684562 49.052469 9.571281 C 49.099344 9.461906 49.177469 9.282219 49.224344 9.172844 C 49.271219 9.063469 49.345438 8.891594 49.392313 8.782219 C 49.439188 8.67675 49.517313 8.504875 49.564188 8.399406 C 49.611063 8.293937 49.685281 8.125969 49.732156 8.024406 C 49.782938 7.918937 49.857156 7.754875 49.904031 7.653312 C 49.950906 7.55175 50.029031 7.391594 50.075906 7.290031 C 50.122781 7.192375 50.197 7.032219 50.243875 6.934562 C 50.29075 6.836906 50.368875 6.684562 50.41575 6.590812 C 50.462625 6.493156 50.54075 6.344719 50.587625 6.250969 C 50.6345 6.157219 50.708719 6.008781 50.755594 5.918937 C 50.802469 5.829094 50.880594 5.684562 50.927469 5.594719 C 50.974344 5.508781 51.048563 5.368156 51.099344 5.282219 C 51.146219 5.192375 51.220438 5.059562 51.267313 4.973625 C 51.314188 4.891594 51.392313 4.754875 51.439188 4.67675 C 51.486063 4.594719 51.560281 4.461906 51.607156 4.383781 C 51.654031 4.305656 51.732156 4.180656 51.779031 4.102531 C 51.825906 4.024406 51.904031 3.903312 51.950906 3.829094 C 51.997781 3.754875 52.072 3.637687 52.118875 3.563469 C 52.16575 3.493156 52.243875 3.379875 52.29075 3.309562 C 52.337625 3.23925 52.411844 3.129875 52.462625 3.063469 C 52.5095 2.997062 52.583719 2.891594 52.630594 2.825187 C 52.677469 2.762687 52.755594 2.661125 52.802469 2.598625 C 52.849344 2.536125 52.923563 2.438469 52.970438 2.379875 C 53.021219 2.317375 53.095438 2.227531 53.142313 2.168937 C 53.189188 2.110344 53.267313 2.0205 53.314188 1.965812 C 53.361063 1.915031 53.435281 1.829094 53.482156 1.778312 C 53.529031 1.723625 53.607156 1.6455 53.654031 1.594719 C 53.700906 1.543937 53.775125 1.469719 53.825906 1.422844 C 53.872781 1.375969 53.947 1.30175 53.993875 1.258781 C 54.04075 1.215812 54.118875 1.149406 54.16575 1.106437 C 54.212625 1.063469 54.286844 1.000969 54.333719 0.961906 C 54.3845 0.922844 54.458719 0.86425 54.505594 0.829094 C 54.552469 0.793937 54.630594 0.73925 54.677469 0.708 C 54.724344 0.672844 54.798563 0.622062 54.845438 0.594719 C 54.892313 0.563469 54.970438 0.516594 55.017313 0.48925 C 55.064188 0.461906 55.138406 0.418937 55.189188 0.3955 C 55.236063 0.372062 55.310281 0.333 55.357156 0.309562 C 55.404031 0.290031 55.482156 0.254875 55.529031 0.23925 C 55.575906 0.219719 55.650125 0.188469 55.697 0.172844 C 55.747781 0.157219 55.822 0.133781 55.868875 0.118156 C 55.91575 0.106437 55.993875 0.0869062 56.04075 0.0751875 C 56.087625 0.0634687 56.161844 0.0478437 56.208719 0.0400312 C 56.255594 0.0322187 56.333719 0.0244062 56.380594 0.0165937 C 56.427469 0.0126875 56.501688 0.004875 56.552469 0.004875 C 56.599344 0.00096875 56.673563 0.00096875 56.720438 0.00096875 C 56.767313 0.00096875 56.845438 0.004875 56.892313 0.00878125 C 56.939188 0.0126875 57.013406 0.0205 57.060281 0.0244062 C 57.111063 0.0322187 57.185281 0.0439375 57.232156 0.05175 C 57.279031 0.0595625 57.357156 0.0790937 57.404031 0.0908125 C 57.450906 0.102531 57.525125 0.122062 57.572 0.137687 C 57.618875 0.149406 57.697 0.17675 57.743875 0.192375 C 57.79075 0.211906 57.868875 0.23925 57.91575 0.258781 C 57.962625 0.282219 58.036844 0.313469 58.083719 0.336906 C 58.130594 0.360344 58.208719 0.399406 58.255594 0.422844 C 58.302469 0.450187 58.376688 0.493156 58.423563 0.5205 C 58.474344 0.547844 58.548563 0.598625 58.595438 0.629875 C 58.642313 0.661125 58.720438 0.711906 58.767313 0.747062 C 58.814188 0.778312 58.888406 0.836906 58.935281 0.872062 C 58.982156 0.907219 59.060281 0.969719 59.107156 1.008781 C 59.154031 1.047844 59.232156 1.11425 59.279031 1.157219 C 59.325906 1.196281 59.400125 1.266594 59.447 1.313469 C 59.493875 1.356437 59.572 1.430656 59.618875 1.477531 C 59.66575 1.524406 59.739969 1.602531 59.79075 1.653312 C 59.837625 1.704094 59.911844 1.786125 59.958719 1.836906 C 60.005594 1.891594 60.083719 1.977531 60.130594 2.032219 C 60.177469 2.086906 60.251688 2.17675 60.298563 2.235344 C 60.349344 2.293937 60.423563 2.387687 60.470438 2.446281 C 60.517313 2.508781 60.595438 2.606437 60.642313 2.668937 C 60.689188 2.735344 60.763406 2.836906 60.810281 2.903312 C 60.857156 2.965812 60.935281 3.075187 60.982156 3.141594 C 61.029031 3.211906 61.10325 3.321281 61.154031 3.391594 C 61.200906 3.461906 61.275125 3.579094 61.322 3.649406 C 61.368875 3.723625 61.447 3.840812 61.493875 3.918937 C 61.54075 3.993156 61.614969 4.11425 61.661844 4.192375 C 61.712625 4.2705 61.786844 4.399406 61.833719 4.477531 C 61.880594 4.559562 61.958719 4.688469 62.005594 4.7705 C 62.052469 4.852531 62.126688 4.98925 62.173563 5.071281 C 62.220438 5.157219 62.298563 5.293937 62.345438 5.379875 C 62.392313 5.469719 62.466531 5.610344 62.517313 5.700187 C 62.564188 5.790031 62.638406 5.934562 62.685281 6.024406 C 62.732156 6.118156 62.810281 6.266594 62.857156 6.360344 C 62.904031 6.454094 62.97825 6.606437 63.025125 6.700187 C 63.075906 6.797844 63.150125 6.954094 63.197 7.05175 C 63.243875 7.149406 63.322 7.309562 63.368875 7.407219 C 63.41575 7.508781 63.489969 7.668937 63.536844 7.774406 C 63.583719 7.875969 63.661844 8.040031 63.708719 8.1455 C 63.755594 8.247062 63.829813 8.418937 63.880594 8.524406 C 63.927469 8.629875 64.001688 8.80175 64.048563 8.911125 C 64.095438 9.016594 64.173563 9.192375 64.220438 9.30175 C 64.267313 9.411125 64.341531 9.590812 64.388406 9.704094 C 64.439188 9.813469 64.513406 9.997062 64.560281 10.110344 C 64.607156 10.223625 64.685281 10.407219 64.732156 10.5205 C 64.779031 10.637687 64.85325 10.825187 64.900125 10.942375 C 64.947 11.059562 65.025125 11.247062 65.072 11.368156 C 65.118875 11.485344 65.193094 11.680656 65.243875 11.797844 C 65.29075 11.918937 65.364969 12.11425 65.411844 12.235344 C 65.458719 12.360344 65.536844 12.555656 65.583719 12.680656 C 65.630594 12.805656 65.704813 13.004875 65.751688 13.129875 C 65.802469 13.254875 65.876688 13.458 65.923563 13.583 C 65.970438 13.711906 66.048563 13.915031 66.095438 14.043937 C 66.142313 14.172844 66.216531 14.379875 66.263406 14.508781 C 66.310281 14.637687 66.388406 14.844719 66.435281 14.977531 C 66.482156 15.110344 66.560281 15.321281 66.607156 15.450187 C 66.654031 15.583 66.72825 15.797844 66.775125 15.930656 C 66.822 16.063469 66.900125 16.278312 66.947 16.415031 C 66.993875 16.547844 67.068094 16.766594 67.114969 16.903312 C 67.16575 17.040031 67.239969 17.258781 67.286844 17.3955 C 67.333719 17.532219 67.411844 17.750969 67.458719 17.891594 C 67.505594 18.028312 67.579813 18.250969 67.626688 18.387687 C 67.673563 18.528312 67.751688 18.750969 67.798563 18.891594 C 67.845438 19.032219 67.923563 19.258781 67.970438 19.399406 C 68.017313 19.540031 68.091531 19.766594 68.138406 19.907219 C 68.185281 20.05175 68.263406 20.278312 68.310281 20.422844 C 68.357156 20.563469 68.431375 20.793937 68.482156 20.934562 C 68.529031 21.079094 68.60325 21.309562 68.650125 21.454094 C 68.697 21.598625 68.775125 21.829094 68.822 21.973625 C 68.868875 22.118156 68.943094 22.352531 68.989969 22.497062 C 69.04075 22.641594 69.114969 22.875969 69.161844 23.024406 C 69.208719 23.168937 69.286844 23.403312 69.333719 23.547844 C 69.380594 23.696281 69.454813 23.930656 69.501688 24.079094 C 69.548563 24.223625 69.626688 24.461906 69.673563 24.606437 C 69.720438 24.754875 69.794656 24.993156 69.845438 25.137687 C 69.892313 25.286125 69.966531 25.524406 70.013406 25.672844 C 70.060281 25.821281 70.138406 26.055656 70.185281 26.204094 C 70.232156 26.352531 70.306375 26.590812 70.35325 26.73925 C 70.404031 26.887687 70.47825 27.125969 70.525125 27.274406 C 70.572 27.422844 70.650125 27.661125 70.697 27.809562 C 70.743875 27.958 70.864969 28.344719 70.864969 28.344719 " transform="matrix(1, 0, 0, -1, 24.803, 88.583)"/>
</g>
<path fill="none" stroke-width="1.59404" stroke-linecap="butt" stroke-linejoin="miter" stroke="rgb(50%, 50%, 50%)" stroke-opacity="1" stroke-miterlimit="10" d="M -4.095969 70.856437 C -4.095969 70.856437 -4.002219 69.637687 -3.967063 69.17675 C -3.928 68.715812 -3.873313 67.981437 -3.83425 67.528312 C -3.799094 67.075187 -3.7405 66.356437 -3.705344 65.911125 C -3.670188 65.469719 -3.611594 64.762687 -3.576438 64.329094 C -3.541281 63.891594 -3.482688 63.200187 -3.447531 62.774406 C -3.408469 62.348625 -3.353781 61.668937 -3.314719 61.250969 C -3.279563 60.833 -3.220969 60.168937 -3.185813 59.758781 C -3.150656 59.348625 -3.092063 58.700187 -3.056906 58.297844 C -3.02175 57.8955 -2.963156 57.258781 -2.928 56.86425 C -2.888938 56.469719 -2.830344 55.844719 -2.795188 55.461906 C -2.760031 55.075187 -2.701438 54.461906 -2.666281 54.086906 C -2.631125 53.708 -2.572531 53.110344 -2.537375 52.73925 C -2.498313 52.372062 -2.443625 51.786125 -2.404563 51.422844 C -2.369406 51.063469 -2.310813 50.48925 -2.275656 50.137687 C -2.2405 49.782219 -2.181906 49.219719 -2.14675 48.875969 C -2.111594 48.528312 -2.053 47.981437 -2.017844 47.641594 C -1.978781 47.305656 -1.924094 46.766594 -1.885031 46.438469 C -1.849875 46.106437 -1.791281 45.583 -1.756125 45.258781 C -1.720969 44.934562 -1.662375 44.422844 -1.627219 44.106437 C -1.592063 43.790031 -1.533469 43.290031 -1.498313 42.981437 C -1.45925 42.672844 -1.400656 42.184562 -1.3655 41.883781 C -1.330344 41.583 -1.27175 41.106437 -1.236594 40.809562 C -1.201438 40.516594 -1.142844 40.05175 -1.107688 39.766594 C -1.072531 39.477531 -1.013938 39.024406 -0.974875 38.743156 C -0.939719 38.461906 -0.881125 38.0205 -0.845969 37.747062 C -0.810813 37.473625 -0.752219 37.043937 -0.717063 36.774406 C -0.681906 36.508781 -0.623313 36.086906 -0.588156 35.829094 C -0.549094 35.571281 -0.494406 35.161125 -0.455344 34.907219 C -0.420188 34.653312 -0.361594 34.254875 -0.326438 34.008781 C -0.291281 33.762687 -0.232688 33.372062 -0.197531 33.133781 C -0.162375 32.8955 -0.103781 32.516594 -0.068625 32.282219 C -0.0295625 32.05175 0.0290312 31.680656 0.0641875 31.454094 C 0.0993437 31.227531 0.157937 30.872062 0.193094 30.649406 C 0.22825 30.430656 0.286844 30.083 0.322 29.868156 C 0.361062 29.657219 0.41575 29.317375 0.454812 29.110344 C 0.489969 28.903312 0.548562 28.575187 0.583719 28.372062 C 0.618875 28.172844 0.677469 27.852531 0.712625 27.657219 C 0.747781 27.461906 0.806375 27.153312 0.841531 26.965812 C 0.880594 26.774406 0.939187 26.477531 0.974344 26.293937 C 1.0095 26.110344 1.068094 25.817375 1.10325 25.641594 C 1.138406 25.461906 1.197 25.184562 1.232156 25.012687 C 1.267312 24.840812 1.325906 24.567375 1.364969 24.403312 C 1.400125 24.235344 1.458719 23.973625 1.493875 23.813469 C 1.529031 23.653312 1.587625 23.399406 1.622781 23.243156 C 1.657937 23.090812 1.716531 22.844719 1.751687 22.696281 C 1.79075 22.547844 1.845437 22.309562 1.8845 22.165031 C 1.919656 22.024406 1.97825 21.797844 2.013406 21.657219 C 2.048562 21.5205 2.107156 21.30175 2.142312 21.165031 C 2.177469 21.032219 2.236062 20.825187 2.271219 20.696281 C 2.310281 20.567375 2.364969 20.36425 2.404031 20.243156 C 2.439187 20.118156 2.497781 19.92675 2.532937 19.809562 C 2.568094 19.688469 2.626687 19.504875 2.661844 19.391594 C 2.697 19.278312 2.755594 19.102531 2.794656 18.993156 C 2.829812 18.883781 2.888406 18.715812 2.923562 18.61425 C 2.958719 18.508781 3.017312 18.348625 3.052469 18.250969 C 3.087625 18.149406 3.146219 17.997062 3.181375 17.903312 C 3.220437 17.809562 3.275125 17.665031 3.314187 17.575187 C 3.349344 17.485344 3.407937 17.348625 3.443094 17.262687 C 3.47825 17.17675 3.536844 17.047844 3.572 16.965812 C 3.607156 16.887687 3.66575 16.762687 3.700906 16.688469 C 3.739969 16.610344 3.798562 16.493156 3.833719 16.422844 C 3.868875 16.352531 3.927469 16.243156 3.962625 16.17675 C 3.997781 16.110344 4.056375 16.004875 4.091531 15.946281 C 4.130594 15.883781 4.185281 15.786125 4.224344 15.727531 C 4.2595 15.668937 4.314187 15.579094 4.35325 15.528312 C 4.388406 15.473625 4.447 15.391594 4.482156 15.340812 C 4.517312 15.290031 4.575906 15.215812 4.611062 15.168937 C 4.650125 15.122062 4.704812 15.05175 4.743875 15.012687 C 4.779031 14.969719 4.837625 14.907219 4.872781 14.868156 C 4.907937 14.829094 4.966531 14.774406 5.001687 14.73925 C 5.036844 14.704094 5.095437 14.653312 5.130594 14.622062 C 5.169656 14.594719 5.224344 14.547844 5.263406 14.5205 C 5.298562 14.497062 5.357156 14.458 5.392312 14.434562 C 5.427469 14.411125 5.486062 14.375969 5.521219 14.360344 C 5.556375 14.340812 5.614969 14.313469 5.650125 14.297844 C 5.689187 14.282219 5.743875 14.258781 5.782937 14.247062 C 5.818094 14.235344 5.876687 14.219719 5.911844 14.208 C 5.947 14.200187 6.005594 14.188469 6.04075 14.184562 C 6.079812 14.180656 6.1345 14.172844 6.173562 14.172844 C 6.208719 14.168937 6.267312 14.168937 6.302469 14.172844 C 6.337625 14.172844 6.396219 14.17675 6.431375 14.184562 C 6.466531 14.188469 6.525125 14.196281 6.560281 14.204094 C 6.599344 14.211906 6.657937 14.227531 6.693094 14.23925 C 6.72825 14.250969 6.786844 14.2705 6.822 14.282219 C 6.857156 14.297844 6.91575 14.321281 6.950906 14.340812 C 6.989969 14.356437 7.044656 14.383781 7.079812 14.407219 C 7.118875 14.42675 7.177469 14.458 7.212625 14.481437 C 7.247781 14.504875 7.306375 14.543937 7.341531 14.567375 C 7.376687 14.594719 7.435281 14.637687 7.470437 14.665031 C 7.5095 14.692375 7.564187 14.743156 7.60325 14.774406 C 7.638406 14.805656 7.697 14.856437 7.732156 14.887687 C 7.767312 14.922844 7.825906 14.977531 7.861062 15.016594 C 7.896219 15.05175 7.954812 15.110344 7.989969 15.149406 C 8.029031 15.188469 8.083719 15.254875 8.122781 15.293937 C 8.157937 15.336906 8.216531 15.403312 8.251687 15.450187 C 8.286844 15.493156 8.345437 15.563469 8.380594 15.610344 C 8.41575 15.657219 8.474344 15.731437 8.513406 15.782219 C 8.548562 15.829094 8.60325 15.907219 8.642312 15.958 C 8.677469 16.008781 8.736062 16.094719 8.771219 16.1455 C 8.806375 16.200187 8.864969 16.286125 8.900125 16.340812 C 8.939187 16.3955 8.993875 16.485344 9.032937 16.543937 C 9.068094 16.602531 9.126687 16.696281 9.161844 16.754875 C 9.197 16.813469 9.255594 16.911125 9.29075 16.973625 C 9.325906 17.032219 9.3845 17.133781 9.419656 17.196281 C 9.458719 17.258781 9.513406 17.36425 9.552469 17.430656 C 9.587625 17.493156 9.646219 17.598625 9.681375 17.668937 C 9.716531 17.735344 9.775125 17.844719 9.810281 17.915031 C 9.845437 17.981437 9.904031 18.094719 9.939187 18.165031 C 9.97825 18.235344 10.036844 18.352531 10.072 18.422844 C 10.107156 18.497062 10.16575 18.61425 10.200906 18.688469 C 10.236062 18.762687 10.294656 18.883781 10.329812 18.958 C 10.368875 19.036125 10.423562 19.157219 10.462625 19.235344 C 10.497781 19.313469 10.556375 19.438469 10.591531 19.516594 C 10.626687 19.598625 10.685281 19.723625 10.720437 19.805656 C 10.755594 19.887687 10.814187 20.016594 10.849344 20.098625 C 10.888406 20.180656 10.943094 20.313469 10.982156 20.3955 C 11.017312 20.481437 11.075906 20.61425 11.111062 20.700187 C 11.146219 20.786125 11.204812 20.922844 11.239969 21.008781 C 11.275125 21.094719 11.333719 21.231437 11.372781 21.321281 C 11.407937 21.407219 11.466531 21.547844 11.501687 21.637687 C 11.536844 21.727531 11.595437 21.868156 11.630594 21.958 C 11.66575 22.047844 11.724344 22.192375 11.7595 22.286125 C 11.798562 22.375969 11.85325 22.524406 11.892312 22.61425 C 11.927469 22.708 11.986062 22.856437 12.021219 22.950187 C 12.056375 23.043937 12.114969 23.192375 12.150125 23.286125 C 12.185281 23.379875 12.243875 23.532219 12.279031 23.625969 C 12.318094 23.723625 12.372781 23.875969 12.411844 23.973625 C 12.447 24.067375 12.505594 24.223625 12.54075 24.321281 C 12.575906 24.415031 12.6345 24.571281 12.669656 24.668937 C 12.704812 24.7705 12.763406 24.92675 12.802469 25.024406 C 12.837625 25.122062 12.896219 25.282219 12.931375 25.379875 C 12.966531 25.481437 13.025125 25.641594 13.060281 25.743156 C 13.095437 25.840812 13.154031 26.000969 13.189187 26.102531 C 13.224344 26.204094 13.282937 26.368156 13.318094 26.469719 C 13.357156 26.571281 13.41575 26.731437 13.450906 26.833 C 13.486062 26.938469 13.544656 27.102531 13.579812 27.204094 C 13.614969 27.305656 13.673562 27.469719 13.708719 27.575187 C 13.747781 27.67675 13.802469 27.844719 13.841531 27.946281 C 13.876687 28.05175 13.935281 28.219719 13.970437 28.321281 C 14.005594 28.42675 14.064187 28.594719 14.099344 28.696281 C 14.1345 28.80175 14.193094 28.969719 14.22825 29.075187 C 14.267312 29.180656 14.325906 29.348625 14.361062 29.454094 C 14.396219 29.559562 14.454812 29.727531 14.489969 29.833 C 14.525125 29.938469 14.583719 30.110344 14.618875 30.215812 C 14.654031 30.321281 14.712625 30.493156 14.751687 30.598625 C 14.786844 30.704094 14.845437 30.875969 14.880594 30.981437 C 14.91575 31.086906 14.974344 31.258781 15.0095 31.36425 C 15.044656 31.469719 15.10325 31.641594 15.138406 31.747062 C 15.177469 31.852531 15.232156 32.024406 15.271219 32.133781 C 15.306375 32.23925 15.364969 32.411125 15.400125 32.516594 C 15.435281 32.622062 15.493875 32.793937 15.529031 32.903312 C 15.564187 33.008781 15.622781 33.180656 15.661844 33.286125 C 15.697 33.3955 15.755594 33.563469 15.79075 33.672844 C 15.825906 33.778312 15.8845 33.950187 15.919656 34.055656 C 15.954812 34.165031 16.013406 34.333 16.048562 34.442375 C 16.087625 34.547844 16.142312 34.719719 16.181375 34.825187 C 16.216531 34.930656 16.275125 35.102531 16.310281 35.208 C 16.345437 35.313469 16.404031 35.485344 16.439187 35.590812 C 16.474344 35.696281 16.532937 35.868156 16.568094 35.973625 C 16.607156 36.079094 16.661844 36.247062 16.700906 36.356437 C 16.736062 36.461906 16.794656 36.629875 16.829812 36.735344 C 16.864969 36.840812 16.923562 37.008781 16.958719 37.11425 C 16.997781 37.219719 17.052469 37.387687 17.087625 37.493156 C 17.126687 37.594719 17.181375 37.762687 17.220437 37.868156 C 17.255594 37.973625 17.314187 38.141594 17.349344 38.243156 C 17.3845 38.348625 17.443094 38.512687 17.47825 38.618156 C 17.513406 38.719719 17.572 38.887687 17.611062 38.98925 C 17.646219 39.090812 17.704812 39.258781 17.739969 39.360344 C 17.775125 39.461906 17.833719 39.625969 17.868875 39.727531 C 17.904031 39.829094 17.962625 39.993156 17.997781 40.094719 C 18.036844 40.196281 18.091531 40.360344 18.130594 40.458 C 18.16575 40.559562 18.224344 40.719719 18.2595 40.821281 C 18.294656 40.922844 18.35325 41.083 18.388406 41.180656 C 18.423562 41.282219 18.482156 41.442375 18.517312 41.540031 C 18.556375 41.637687 18.611062 41.797844 18.650125 41.8955 C 18.685281 41.993156 18.743875 42.153312 18.779031 42.247062 C 18.814187 42.344719 18.872781 42.500969 18.907937 42.598625 C 18.947 42.696281 19.001687 42.852531 19.04075 42.946281 C 19.075906 43.043937 19.1345 43.196281 19.169656 43.293937 C 19.204812 43.387687 19.263406 43.540031 19.298562 43.633781 C 19.333719 43.727531 19.392312 43.879875 19.427469 43.973625 C 19.466531 44.067375 19.521219 44.215812 19.560281 44.309562 C 19.595437 44.403312 19.654031 44.55175 19.689187 44.6455 C 19.724344 44.735344 19.782937 44.883781 19.818094 44.973625 C 19.85325 45.063469 19.911844 45.211906 19.947 45.30175 C 19.986062 45.391594 20.044656 45.536125 20.079812 45.625969 C 20.114969 45.711906 20.173562 45.856437 20.208719 45.946281 C 20.243875 46.032219 20.302469 46.172844 20.337625 46.262687 C 20.376687 46.348625 20.431375 46.48925 20.470437 46.575187 C 20.505594 46.661125 20.564187 46.797844 20.599344 46.883781 C 20.6345 46.969719 20.693094 47.106437 20.72825 47.188469 C 20.763406 47.274406 20.822 47.407219 20.857156 47.48925 C 20.896219 47.575187 20.950906 47.708 20.989969 47.790031 C 21.025125 47.872062 21.083719 48.000969 21.118875 48.083 C 21.154031 48.165031 21.212625 48.293937 21.247781 48.372062 C 21.282937 48.454094 21.341531 48.579094 21.376687 48.661125 C 21.41575 48.73925 21.470437 48.86425 21.5095 48.942375 C 21.544656 49.0205 21.60325 49.141594 21.638406 49.219719 C 21.673562 49.293937 21.732156 49.418937 21.767312 49.493156 C 21.802469 49.567375 21.861062 49.688469 21.896219 49.762687 C 21.935281 49.836906 21.993875 49.954094 22.029031 50.028312 C 22.064187 50.098625 22.122781 50.215812 22.157937 50.286125 C 22.193094 50.356437 22.251687 50.473625 22.286844 50.543937 C 22.325906 50.61425 22.380594 50.723625 22.419656 50.793937 C 22.454812 50.86425 22.513406 50.973625 22.548562 51.040031 C 22.583719 51.106437 22.642312 51.215812 22.677469 51.282219 C 22.712625 51.348625 22.771219 51.454094 22.806375 51.5205 C 22.845437 51.586906 22.904031 51.688469 22.939187 51.750969 C 22.974344 51.817375 23.032937 51.918937 23.068094 51.981437 C 23.10325 52.043937 23.161844 52.141594 23.197 52.204094 C 23.236062 52.262687 23.29075 52.360344 23.325906 52.418937 C 23.364969 52.481437 23.423562 52.575187 23.458719 52.633781 C 23.493875 52.692375 23.552469 52.786125 23.587625 52.840812 C 23.622781 52.899406 23.681375 52.98925 23.716531 53.043937 C 23.755594 53.098625 23.810281 53.188469 23.849344 53.243156 C 23.8845 53.297844 23.943094 53.383781 23.97825 53.434562 C 24.013406 53.48925 24.072 53.571281 24.107156 53.622062 C 24.142312 53.672844 24.200906 53.754875 24.239969 53.805656 C 24.275125 53.852531 24.329812 53.934562 24.368875 53.981437 C 24.404031 54.028312 24.462625 54.106437 24.497781 54.153312 C 24.532937 54.200187 24.591531 54.274406 24.626687 54.317375 C 24.661844 54.36425 24.720437 54.434562 24.7595 54.481437 C 24.794656 54.524406 24.849344 54.594719 24.888406 54.633781 C 24.923562 54.67675 24.982156 54.743156 25.017312 54.786125 C 25.052469 54.825187 25.111062 54.891594 25.146219 54.930656 C 25.185281 54.969719 25.239969 55.032219 25.279031 55.067375 C 25.314187 55.106437 25.372781 55.165031 25.407937 55.204094 C 25.443094 55.23925 25.501687 55.293937 25.536844 55.329094 C 25.572 55.36425 25.630594 55.418937 25.66575 55.454094 C 25.704812 55.485344 25.763406 55.536125 25.798562 55.567375 C 25.833719 55.602531 25.892312 55.649406 25.927469 55.680656 C 25.962625 55.711906 26.021219 55.758781 26.056375 55.786125 C 26.091531 55.813469 26.150125 55.856437 26.185281 55.883781 C 26.224344 55.911125 26.279031 55.954094 26.318094 55.977531 C 26.35325 56.004875 26.411844 56.043937 26.447 56.067375 C 26.482156 56.090812 26.54075 56.125969 26.575906 56.149406 C 26.614969 56.172844 26.669656 56.204094 26.708719 56.227531 C 26.743875 56.247062 26.802469 56.278312 26.837625 56.297844 C 26.872781 56.317375 26.931375 56.344719 26.966531 56.36425 C 27.001687 56.379875 27.060281 56.407219 27.095437 56.422844 C 27.130594 56.438469 27.189187 56.461906 27.22825 56.473625 C 27.263406 56.48925 27.322 56.508781 27.357156 56.524406 C 27.392312 56.536125 27.450906 56.555656 27.486062 56.563469 C 27.521219 56.575187 27.579812 56.590812 27.618875 56.602531 C 27.654031 56.610344 27.712625 56.622062 27.747781 56.629875 C 27.782937 56.637687 27.841531 56.649406 27.876687 56.653312 C 27.911844 56.661125 27.970437 56.668937 28.005594 56.672844 C 28.044656 56.67675 28.099344 56.684562 28.138406 56.684562 C 28.173562 56.688469 28.232156 56.692375 28.267312 56.692375 C 28.302469 56.692375 28.361062 56.692375 28.396219 56.692375 C 28.431375 56.692375 28.489969 56.692375 28.525125 56.688469 C 28.560281 56.684562 28.618875 56.680656 28.657937 56.67675 C 28.693094 56.672844 28.751687 56.665031 28.786844 56.661125 C 28.822 56.653312 28.880594 56.6455 28.91575 56.637687 C 28.950906 56.629875 29.0095 56.618156 29.044656 56.610344 C 29.083719 56.598625 29.138406 56.583 29.177469 56.575187 C 29.212625 56.563469 29.271219 56.543937 29.306375 56.532219 C 29.341531 56.5205 29.400125 56.500969 29.435281 56.485344 C 29.470437 56.473625 29.529031 56.450187 29.564187 56.434562 C 29.60325 56.418937 29.657937 56.3955 29.697 56.375969 C 29.732156 56.360344 29.79075 56.333 29.825906 56.313469 C 29.861062 56.293937 29.919656 56.262687 29.954812 56.243156 C 29.989969 56.223625 30.048562 56.192375 30.087625 56.168937 C 30.122781 56.1455 30.181375 56.110344 30.216531 56.086906 C 30.251687 56.063469 30.310281 56.024406 30.345437 56.000969 C 30.380594 55.977531 30.439187 55.934562 30.474344 55.907219 C 30.513406 55.879875 30.568094 55.836906 30.607156 55.809562 C 30.642312 55.782219 30.700906 55.735344 30.736062 55.704094 C 30.771219 55.67675 30.829812 55.625969 30.864969 55.594719 C 30.900125 55.563469 30.958719 55.512687 30.993875 55.481437 C 31.032937 55.446281 31.087625 55.3955 31.126687 55.360344 C 31.161844 55.325187 31.220437 55.2705 31.255594 55.231437 C 31.29075 55.196281 31.349344 55.137687 31.3845 55.102531 C 31.423562 55.063469 31.47825 55.000969 31.513406 54.961906 C 31.552469 54.922844 31.611062 54.860344 31.646219 54.821281 C 31.681375 54.778312 31.739969 54.711906 31.775125 54.672844 C 31.810281 54.629875 31.868875 54.559562 31.904031 54.516594 C 31.943094 54.473625 31.997781 54.403312 32.036844 54.356437 C 32.072 54.313469 32.130594 54.23925 32.16575 54.192375 C 32.200906 54.1455 32.2595 54.071281 32.294656 54.0205 C 32.329813 53.973625 32.388406 53.8955 32.423563 53.848625 C 32.462625 53.797844 32.517313 53.715812 32.556375 53.665031 C 32.591531 53.61425 32.650125 53.532219 32.685281 53.481437 C 32.720438 53.42675 32.779031 53.340812 32.814188 53.290031 C 32.85325 53.235344 32.907938 53.1455 32.947 53.090812 C 32.982156 53.036125 33.04075 52.946281 33.075906 52.891594 C 33.111063 52.833 33.169656 52.743156 33.204813 52.684562 C 33.239969 52.625969 33.298563 52.532219 33.333719 52.469719 C 33.372781 52.411125 33.427469 52.317375 33.466531 52.254875 C 33.501688 52.192375 33.560281 52.094719 33.595438 52.032219 C 33.630594 51.969719 33.689188 51.872062 33.724344 51.805656 C 33.7595 51.743156 33.818094 51.641594 33.85325 51.575187 C 33.892313 51.508781 33.947 51.407219 33.986063 51.340812 C 34.021219 51.274406 34.079813 51.165031 34.114969 51.098625 C 34.150125 51.032219 34.208719 50.922844 34.243875 50.852531 C 34.279031 50.782219 34.337625 50.672844 34.372781 50.602531 C 34.411844 50.532219 34.470438 50.418937 34.505594 50.348625 C 34.54075 50.278312 34.599344 50.161125 34.6345 50.086906 C 34.669656 50.016594 34.72825 49.899406 34.763406 49.825187 C 34.802469 49.750969 34.857156 49.629875 34.896219 49.555656 C 34.931375 49.481437 34.989969 49.360344 35.025125 49.282219 C 35.060281 49.208 35.118875 49.083 35.154031 49.008781 C 35.189188 48.930656 35.247781 48.805656 35.282938 48.727531 C 35.322 48.649406 35.376688 48.5205 35.41575 48.442375 C 35.450906 48.360344 35.5095 48.231437 35.544656 48.153312 C 35.579813 48.071281 35.638406 47.942375 35.673563 47.860344 C 35.712625 47.778312 35.767313 47.6455 35.806375 47.563469 C 35.841531 47.477531 35.900125 47.344719 35.935281 47.258781 C 35.970438 47.17675 36.029031 47.040031 36.064188 46.958 C 36.099344 46.872062 36.157938 46.735344 36.193094 46.649406 C 36.232156 46.563469 36.286844 46.422844 36.325906 46.336906 C 36.361063 46.247062 36.419656 46.106437 36.454813 46.0205 C 36.489969 45.930656 36.548563 45.790031 36.583719 45.700187 C 36.618875 45.610344 36.677469 45.465812 36.712625 45.375969 C 36.751688 45.286125 36.806375 45.141594 36.845438 45.05175 C 36.880594 44.961906 36.939188 44.813469 36.974344 44.723625 C 37.0095 44.629875 37.068094 44.481437 37.10325 44.391594 C 37.138406 44.297844 37.197 44.149406 37.236063 44.055656 C 37.271219 43.961906 37.329813 43.809562 37.364969 43.715812 C 37.400125 43.622062 37.458719 43.469719 37.493875 43.372062 C 37.529031 43.278312 37.587625 43.125969 37.622781 43.028312 C 37.661844 42.934562 37.716531 42.778312 37.755594 42.680656 C 37.79075 42.586906 37.849344 42.430656 37.8845 42.333 C 37.919656 42.235344 37.97825 42.079094 38.013406 41.977531 C 38.048563 41.879875 38.107156 41.723625 38.142313 41.625969 C 38.181375 41.524406 38.236063 41.368156 38.275125 41.266594 C 38.310281 41.168937 38.368875 41.008781 38.404031 40.907219 C 38.439188 40.805656 38.497781 40.6455 38.532938 40.543937 C 38.568094 40.446281 38.626688 40.282219 38.661844 40.180656 C 38.700906 40.079094 38.7595 39.915031 38.794656 39.813469 C 38.829813 39.711906 38.888406 39.547844 38.923563 39.446281 C 38.958719 39.344719 39.017313 39.180656 39.052469 39.075187 C 39.091531 38.973625 39.146219 38.809562 39.185281 38.704094 C 39.220438 38.602531 39.279031 38.434562 39.314188 38.333 C 39.349344 38.227531 39.407938 38.059562 39.443094 37.958 C 39.47825 37.852531 39.536844 37.684562 39.572 37.579094 C 39.611063 37.477531 39.66575 37.309562 39.704813 37.204094 C 39.739969 37.098625 39.798563 36.930656 39.833719 36.825187 C 39.868875 36.719719 39.927469 36.547844 39.962625 36.442375 C 39.997781 36.336906 40.056375 36.168937 40.091531 36.063469 C 40.130594 35.958 40.185281 35.786125 40.224344 35.680656 C 40.2595 35.575187 40.318094 35.403312 40.35325 35.297844 C 40.388406 35.192375 40.447 35.0205 40.482156 34.915031 C 40.521219 34.809562 40.575906 34.637687 40.614969 34.532219 C 40.650125 34.42675 40.708719 34.254875 40.743875 34.1455 C 40.779031 34.040031 40.837625 33.868156 40.872781 33.762687 C 40.907938 33.657219 40.966531 33.485344 41.001688 33.375969 C 41.04075 33.2705 41.095438 33.098625 41.1345 32.993156 C 41.169656 32.883781 41.22825 32.715812 41.263406 32.606437 C 41.298563 32.500969 41.357156 32.329094 41.392313 32.223625 C 41.427469 32.118156 41.486063 31.946281 41.521219 31.836906 C 41.560281 31.731437 41.614969 31.559562 41.654031 31.454094 C 41.689188 31.348625 41.747781 31.17675 41.782938 31.071281 C 41.818094 30.965812 41.876688 30.793937 41.911844 30.688469 C 41.950906 30.583 42.005594 30.411125 42.044656 30.305656 C 42.079813 30.200187 42.138406 30.028312 42.173563 29.922844 C 42.208719 29.817375 42.267313 29.649406 42.302469 29.543937 C 42.337625 29.438469 42.396219 29.2705 42.431375 29.165031 C 42.470438 29.059562 42.529031 28.891594 42.564188 28.786125 C 42.599344 28.680656 42.657938 28.512687 42.693094 28.411125 C 42.72825 28.305656 42.786844 28.137687 42.822 28.036125 C 42.861063 27.930656 42.91575 27.766594 42.954813 27.661125 C 42.989969 27.559562 43.048563 27.391594 43.083719 27.290031 C 43.118875 27.188469 43.177469 27.024406 43.212625 26.922844 C 43.247781 26.821281 43.306375 26.657219 43.341531 26.555656 C 43.380594 26.454094 43.435281 26.290031 43.474344 26.188469 C 43.5095 26.086906 43.568094 25.92675 43.60325 25.825187 C 43.638406 25.727531 43.697 25.567375 43.732156 25.465812 C 43.767313 25.368156 43.825906 25.208 43.861063 25.106437 C 43.900125 25.008781 43.954813 24.852531 43.993875 24.754875 C 44.029031 24.657219 44.087625 24.500969 44.122781 24.403312 C 44.157938 24.305656 44.216531 24.149406 44.251688 24.05175 C 44.286844 23.958 44.345438 23.80175 44.380594 23.708 C 44.419656 23.61425 44.47825 23.461906 44.513406 23.368156 C 44.548563 23.2705 44.607156 23.122062 44.642313 23.028312 C 44.677469 22.934562 44.736063 22.786125 44.771219 22.692375 C 44.810281 22.598625 44.864969 22.454094 44.904031 22.36425 C 44.939188 22.2705 44.997781 22.125969 45.032938 22.036125 C 45.068094 21.942375 45.126688 21.80175 45.161844 21.711906 C 45.197 21.622062 45.255594 21.481437 45.29075 21.3955 C 45.329813 21.305656 45.3845 21.165031 45.423563 21.079094 C 45.458719 20.993156 45.517313 20.856437 45.552469 20.7705 C 45.587625 20.684562 45.646219 20.55175 45.681375 20.465812 C 45.720438 20.383781 45.775125 20.250969 45.814188 20.168937 C 45.849344 20.086906 45.907938 19.954094 45.943094 19.872062 C 45.97825 19.793937 46.036844 19.665031 46.072 19.583 C 46.107156 19.504875 46.16575 19.379875 46.200906 19.30175 C 46.236063 19.223625 46.294656 19.098625 46.333719 19.024406 C 46.368875 18.946281 46.427469 18.825187 46.462625 18.750969 C 46.497781 18.67675 46.556375 18.555656 46.591531 18.485344 C 46.626688 18.411125 46.685281 18.293937 46.720438 18.223625 C 46.7595 18.153312 46.814188 18.040031 46.85325 17.969719 C 46.888406 17.899406 46.947 17.790031 46.982156 17.723625 C 47.017313 17.657219 47.075906 17.547844 47.111063 17.485344 C 47.146219 17.418937 47.204813 17.313469 47.243875 17.247062 C 47.279031 17.184562 47.337625 17.083 47.372781 17.024406 C 47.407938 16.961906 47.466531 16.86425 47.501688 16.805656 C 47.536844 16.743156 47.595438 16.649406 47.630594 16.590812 C 47.669656 16.532219 47.724344 16.442375 47.763406 16.387687 C 47.798563 16.333 47.857156 16.243156 47.892313 16.192375 C 47.927469 16.137687 47.986063 16.05175 48.021219 16.000969 C 48.056375 15.950187 48.114969 15.868156 48.150125 15.821281 C 48.189188 15.7705 48.243875 15.696281 48.282938 15.649406 C 48.318094 15.602531 48.376688 15.528312 48.411844 15.485344 C 48.447 15.438469 48.505594 15.368156 48.54075 15.329094 C 48.575906 15.286125 48.6345 15.223625 48.673563 15.184562 C 48.708719 15.141594 48.767313 15.079094 48.802469 15.043937 C 48.837625 15.004875 48.896219 14.950187 48.931375 14.915031 C 48.966531 14.883781 49.025125 14.829094 49.060281 14.797844 C 49.099344 14.766594 49.154031 14.715812 49.193094 14.688469 C 49.22825 14.657219 49.286844 14.61425 49.322 14.590812 C 49.357156 14.563469 49.41575 14.524406 49.450906 14.500969 C 49.486063 14.477531 49.544656 14.438469 49.579813 14.418937 C 49.618875 14.399406 49.673563 14.368156 49.712625 14.352531 C 49.747781 14.333 49.806375 14.309562 49.841531 14.293937 C 49.876688 14.278312 49.935281 14.258781 49.970438 14.247062 C 50.005594 14.235344 50.064188 14.219719 50.099344 14.208 C 50.138406 14.200187 50.197 14.192375 50.232156 14.184562 C 50.267313 14.180656 50.325906 14.172844 50.361063 14.168937 C 50.396219 14.168937 50.454813 14.168937 50.489969 14.168937 C 50.529031 14.168937 50.583719 14.17675 50.622781 14.180656 C 50.657938 14.184562 50.716531 14.192375 50.751688 14.200187 C 50.786844 14.208 50.845438 14.223625 50.880594 14.235344 C 50.91575 14.247062 50.974344 14.266594 51.0095 14.282219 C 51.048563 14.293937 51.10325 14.321281 51.142313 14.340812 C 51.177469 14.356437 51.236063 14.387687 51.271219 14.411125 C 51.306375 14.434562 51.364969 14.473625 51.400125 14.497062 C 51.435281 14.524406 51.493875 14.567375 51.529031 14.594719 C 51.568094 14.625969 51.622781 14.67675 51.661844 14.708 C 51.697 14.73925 51.755594 14.797844 51.79075 14.833 C 51.825906 14.872062 51.8845 14.930656 51.919656 14.969719 C 51.958719 15.012687 52.013406 15.083 52.052469 15.129875 C 52.087625 15.172844 52.146219 15.247062 52.181375 15.297844 C 52.216531 15.344719 52.275125 15.42675 52.310281 15.477531 C 52.345438 15.528312 52.404031 15.618156 52.439188 15.67675 C 52.47825 15.735344 52.532938 15.829094 52.572 15.891594 C 52.607156 15.950187 52.66575 16.05175 52.700906 16.11425 C 52.736063 16.180656 52.794656 16.290031 52.829813 16.360344 C 52.864969 16.430656 52.923563 16.547844 52.958719 16.622062 C 52.997781 16.696281 53.052469 16.817375 53.091531 16.8955 C 53.126688 16.973625 53.185281 17.102531 53.220438 17.188469 C 53.255594 17.2705 53.314188 17.411125 53.349344 17.497062 C 53.388406 17.586906 53.443094 17.727531 53.482156 17.817375 C 53.517313 17.911125 53.575906 18.063469 53.611063 18.161125 C 53.646219 18.258781 53.704813 18.422844 53.739969 18.524406 C 53.775125 18.625969 53.833719 18.790031 53.868875 18.8955 C 53.907938 19.004875 53.962625 19.180656 54.001688 19.293937 C 54.036844 19.403312 54.095438 19.586906 54.130594 19.704094 C 54.16575 19.821281 54.224344 20.012687 54.2595 20.133781 C 54.294656 20.254875 54.35325 20.454094 54.388406 20.583 C 54.427469 20.711906 54.482156 20.918937 54.521219 21.05175 C 54.556375 21.184562 54.614969 21.3955 54.650125 21.532219 C 54.685281 21.672844 54.743875 21.899406 54.779031 22.040031 C 54.818094 22.184562 54.872781 22.418937 54.911844 22.567375 C 54.947 22.715812 55.005594 22.954094 55.04075 23.106437 C 55.075906 23.262687 55.1345 23.516594 55.169656 23.672844 C 55.204813 23.833 55.263406 24.094719 55.298563 24.258781 C 55.337625 24.422844 55.392313 24.692375 55.431375 24.860344 C 55.466531 25.032219 55.525125 25.313469 55.560281 25.485344 C 55.595438 25.661125 55.654031 25.946281 55.689188 26.125969 C 55.724344 26.309562 55.782938 26.606437 55.818094 26.797844 C 55.857156 26.985344 55.91575 27.293937 55.950906 27.48925 C 55.986063 27.684562 56.044656 27.993156 56.079813 28.192375 C 56.114969 28.3955 56.173563 28.723625 56.208719 28.930656 C 56.247781 29.133781 56.302469 29.473625 56.341531 29.684562 C 56.376688 29.8955 56.435281 30.23925 56.470438 30.458 C 56.505594 30.672844 56.564188 31.032219 56.599344 31.254875 C 56.6345 31.481437 56.693094 31.852531 56.72825 32.083 C 56.767313 32.313469 56.822 32.684562 56.861063 32.922844 C 56.896219 33.161125 56.954813 33.547844 56.989969 33.793937 C 57.025125 34.036125 57.083719 34.438469 57.118875 34.688469 C 57.154031 34.938469 57.212625 35.344719 57.251688 35.602531 C 57.286844 35.856437 57.345438 36.278312 57.380594 36.543937 C 57.41575 36.809562 57.474344 37.23925 57.5095 37.508781 C 57.544656 37.782219 57.60325 38.219719 57.638406 38.497062 C 57.677469 38.774406 57.732156 39.227531 57.771219 39.516594 C 57.806375 39.80175 57.864969 40.266594 57.900125 40.559562 C 57.935281 40.848625 57.993875 41.321281 58.029031 41.618156 C 58.064188 41.918937 58.122781 42.407219 58.157938 42.711906 C 58.197 43.0205 58.251688 43.5205 58.29075 43.833 C 58.325906 44.149406 58.3845 44.653312 58.419656 44.973625 C 58.454813 45.297844 58.513406 45.821281 58.548563 46.149406 C 58.583719 46.477531 58.642313 47.012687 58.681375 47.348625 C 58.716531 47.684562 58.775125 48.227531 58.810281 48.571281 C 58.845438 48.915031 58.904031 49.477531 58.939188 49.829094 C 58.974344 50.180656 59.032938 50.750969 59.068094 51.110344 C 59.10325 51.469719 59.161844 52.05175 59.200906 52.418937 C 59.236063 52.786125 59.294656 53.379875 59.329813 53.758781 C 59.364969 54.133781 59.423563 54.747062 59.458719 55.129875 C 59.493875 55.512687 59.552469 56.129875 59.587625 56.5205 C 59.626688 56.911125 59.681375 57.547844 59.720438 57.946281 C 59.755594 58.348625 59.814188 58.997062 59.849344 59.407219 C 59.8845 59.813469 59.943094 60.469719 59.97825 60.883781 C 60.013406 61.30175 60.072 61.977531 60.107156 62.403312 C 60.146219 62.829094 60.204813 63.5205 60.239969 63.954094 C 60.275125 64.387687 60.333719 65.083 60.368875 65.524406 C 60.404031 65.965812 60.462625 66.684562 60.497781 67.137687 C 60.536844 67.586906 60.591531 68.321281 60.630594 68.778312 C 60.66575 69.23925 60.7595 70.442375 60.7595 70.442375 " transform="matrix(1, 0, 0, -1, 24.803, 88.583)"/>
</svg>
